<svg id="Capa_1" enable-background="new 0 0 512 512" height="512" viewBox="0 0 512 512" width="512" xmlns="http://www.w3.org/2000/svg"><g><g><path d="m502.348 248.072c-15.368 44.51-48.584 77.81-98.727 98.97-11.507 4.836-23.531-5.67-20.317-17.68 18.676-70.153.181-114.487-69.481-130.67-6.629-1.54-11.389-7.34-11.599-14.13-.39-12.14.88-43.85 20.957-76.19 11.528-18.57 27.416-34.28 47.224-46.69 23.417-14.67 52.513-24.79 86.479-30.07 6.209-.97 12.378 2.04 15.428 7.54 2.569 4.641 62.591 114.62 30.036 208.92z" fill="#d66823"/></g><g><path d="m409.48 264.572c-6.687 4.563-15.812 2.999-20.587-3.57-37.671-51.839-36.431-49.13-37.195-53.92-4.769-29.32 5.879-55.97 30.796-77.07 17.678-14.96 36.625-21.85 37.425-22.14 6.899-2.47 14.568.4 18.148 6.8.53.95 13.068 23.63 16.118 52.93 4.218 40.591-11.24 74.121-44.705 96.97z" fill="#9a4916"/></g><g><path d="m209.776 184.563c-.21 6.79-4.969 12.59-11.599 14.13-32.286 7.5-54.553 21.61-66.171 41.94-15.016 26.268-11.102 59.538-3.31 88.72 3.207 11.986-8.784 22.537-20.317 17.69-50.143-21.16-83.359-54.46-98.727-98.97-32.556-94.3 27.466-204.28 30.036-208.92 3.05-5.49 9.209-8.51 15.428-7.54 33.965 5.28 63.062 15.4 86.479 30.07 19.807 12.41 35.695 28.12 47.224 46.69 20.077 32.339 21.347 64.05 20.957 76.19z" fill="#f09b00"/></g><g><path d="m160.303 207.082c-.763 4.786.526 2.013-37.195 53.92-4.776 6.57-13.901 8.132-20.587 3.57-33.466-22.85-48.924-56.38-44.704-96.97 3.05-29.3 15.588-51.98 16.118-52.93 3.58-6.4 11.249-9.27 18.148-6.8.8.29 19.747 7.18 37.425 22.14 24.915 21.101 35.564 47.75 30.795 77.07z" fill="#d66823"/></g><g><path d="m414.839 326.827c-9.374 40.831-27.121 80.333-56.043 110.18-56.055 58.056-149.514 58.108-205.603-.01-26.662-27.563-43.554-62.82-53.473-99.89-24.961-93.218 11.7-149.065 91.678-167.63 63.807-14.781 176.222-10.962 214.632 56.27 15.238 26.64 18.198 60.65 8.809 101.08z" fill="#ffd18b"/></g><path d="m414.839 326.827c-9.374 40.831-27.121 80.333-56.043 110.18-27.06 28.026-64.09 43.56-102.796 43.56v-318.19c56.64 0 121.9 14.131 150.03 63.37 15.238 26.64 18.198 60.65 8.809 101.08z" fill="#ffb22a"/><g><ellipse cx="167.651" cy="283.226" fill="#525e63" rx="14.998" ry="15"/></g><g><ellipse cx="344.349" cy="283.226" fill="#414c51" rx="14.998" ry="15"/></g><g><path d="m302.604 325.467c-5.84 5.841-15.352 5.866-21.217 0l-13.188-13.2c-4.407-4.394-10.357-5.403-12.198-5.14-1-.125-7.47-.069-12.678 5.14l-12.968 12.97c-5.859 5.86-15.348 5.86-21.207 0-5.859-5.85-5.859-15.35 0-21.21l12.968-12.97c18.579-18.582 48.69-18.604 67.291 0l13.198 13.2c5.848 5.86 5.848 15.35-.001 21.21z" fill="#f09b00"/></g><g><path d="m228.354 418.734c-8.283 0-14.998-6.716-14.998-15v-36.23c0-8.284 6.715-15 14.998-15s14.998 6.716 14.998 15v36.23c0 8.284-6.715 15-14.998 15z" fill="#fff5f5"/></g><g><path d="m283.647 418.734c-8.283 0-14.998-6.716-14.998-15v-36.23c0-8.284 6.715-15 14.998-15s14.998 6.716 14.998 15v36.23c0 8.284-6.715 15-14.998 15z" fill="#f2e4e4"/></g><g><path d="m321.831 381.467c-3.463 7.94-12.79 11.061-19.957 7.65-28.297-12.385-61.814-13.157-91.928.08-7.579 3.34-16.428-.11-19.767-7.69-3.33-7.58.11-16.44 7.689-19.77 18.468-8.12 38.295-12.18 58.132-12.19h.22c20.659.031 41.113 4.628 57.872 12.17 7.589 3.32 11.059 12.16 7.739 19.75z" fill="#f09b00"/></g><g fill="#d66823"><path d="m256 307.127v-30.01c12.03 0 24.165 4.698 33.406 13.94l13.198 13.2c5.849 5.86 5.849 15.35 0 21.21-5.84 5.841-15.352 5.866-21.217 0l-13.188-13.2c-4.408-4.394-10.358-5.403-12.199-5.14z"/><path d="m321.831 381.467c-3.463 7.94-12.79 11.061-19.957 7.65-14.428-6.315-30.058-9.57-45.874-9.57v-30h.22c20.659.031 41.113 4.628 57.872 12.17 7.589 3.32 11.059 12.16 7.739 19.75z"/></g></g></svg>