<svg id="Capa_1" enable-background="new 0 0 512 512" height="512" viewBox="0 0 512 512" width="512" xmlns="http://www.w3.org/2000/svg"><g><g><path d="m174.165 62.096c-11.535 10.652-15.42 17.263-35.7 45.903-15.13 21.397-27.74 44.544-37.48 68.82-3.856 9.608-16.055 12.479-23.8 5.689-32.329-28.297-52.15-75.976-45.6-118.453 11.24-72.982 91.55-87.511 144.09-22.397 4.95 6.15 4.3 15.089-1.51 20.438z" fill="#f09b00"/></g><g><path d="m466.615 141.085c-8.1 15.998-19.09 30.326-31.77 41.424-7.752 6.796-19.95 3.903-23.8-5.689-16.704-41.633-34.795-65.01-56.6-95.836-4.86-6.859-10.43-13.208-16.58-18.887-5.81-5.349-6.46-14.288-1.51-20.437 26.6-32.966 69.527-53.119 106.1-34.605 41.861 21.193 50.675 81.675 24.16 134.03z" fill="#d66823"/></g><g><path d="m409.055 447.13c-34.591 38.782-88.415 64.87-146.92 64.87h-12.24c-53.715 0-107.464-21.944-146.91-64.86-88.308-94.474-63.081-251.749 10.99-356.458 20.18-28.499 25.631-37.496 39.85-50.623 27.834-25.773 64.544-39.984 102.19-39.984 48.78 0 94.73 23.767 122.91 63.581 23.431 33.119 57.881 76.818 76.15 152.608 20.246 83.904 12.767 167.885-46.02 230.866z" fill="#ffd18b"/></g><path d="m409.055 447.13c-11.36 12.737-27.174 26.075-44.62 36.535-35.966 21.521-70.338 28.335-108.42 28.335v-511.925c48.78 0 94.73 23.767 122.91 63.581 23.431 33.119 57.881 76.818 76.15 152.608 20.246 83.904 12.767 167.885-46.02 230.866z" fill="#ffb22a"/><g><path d="m412.045 438.891c-.2 3.459-1.6 6.739-3.95 9.289-37.154 40.228-89.969 63.82-145.96 63.82h-12.24c-55.26 0-108.45-23.257-145.95-63.821-2.36-2.54-3.76-5.829-3.96-9.289-5.507-91.454 42.787-175.783 115.66-199.481 3.785-1.241 79.483-.409 80.84.03 75.169 24.522 120.893 111.085 115.56 199.452z" fill="#ffb22a"/></g><path d="m412.045 438.891c-.2 3.459-1.6 6.739-3.95 9.289-12.79 13.848-27.48 25.786-43.66 35.485-35.542 21.268-69.766 28.335-108.42 28.335v-273.21c19.9.1 39.79.43 40.47.65 75.169 24.521 120.893 111.084 115.56 199.451z" fill="#f09b00"/><g><ellipse cx="157.163" cy="195.952" fill="#525e63" rx="15" ry="14.998"/></g><g><ellipse cx="354.968" cy="195.952" fill="#414c51" rx="15" ry="14.998"/></g><g><path d="m301.015 375.34v33.005c0 18.567-15.1 33.665-33.67 33.665h-22.66c-18.57 0-33.67-15.098-33.67-33.665v-33.005c0-8.279 6.72-14.998 15-14.998 8.27 0 15-6.729 15-14.998 0-8.279 6.72-14.998 15-14.998s15 6.719 15 14.998c0 8.269 6.73 14.998 15 14.998 8.28 0 15 6.719 15 14.998z" fill="#f2e4e4"/></g><path d="m301.015 375.34v33.005c0 18.567-15.1 33.665-33.67 33.665h-11.33v-111.663c8.28 0 15 6.719 15 14.998 0 8.269 6.73 14.998 15 14.998 8.28-.001 15 6.718 15 14.997z" fill="#d8c5c5"/><g><path d="m331.015 345.345c0 38.592-45.968 59.569-75 33.495-17.465 15.685-44.599 15.518-61.82-1.68-8.5-8.509-13.18-19.807-13.18-31.815 0-8.279 6.72-14.998 15-14.998s15 6.719 15 14.998c0 8.267 6.708 14.998 15 14.998 8.27 0 15-6.729 15-14.998v-53.442c-7.29-2.34-13.96-6.399-19.52-11.968-9.24-9.269-15.49-19.067-18.58-29.136-4.23-13.818 1.3-29.096 13.46-37.145 24.12-15.969 54.992-15.682 78.52-.56 13.02 8.359 18.75 24.326 13.95 38.844-3.2 9.659-9.33 19.087-18.22 27.996-5.349 5.372-11.949 9.545-19.61 11.998v53.412c0 13.379 16.247 19.983 25.6 10.598 2.84-2.83 4.4-6.599 4.4-10.598 0-8.279 6.72-14.998 15-14.998s15 6.72 15 14.999z" fill="#d66823"/></g><path d="m331.015 345.345c0 38.592-45.968 59.569-75 33.495v-177.124c13.538 0 27.001 3.744 38.88 11.378 13.02 8.359 18.75 24.326 13.95 38.844-3.2 9.659-9.33 19.087-18.22 27.996-5.349 5.372-11.949 9.545-19.61 11.998v53.412c0 13.379 16.247 19.983 25.6 10.598 2.84-2.83 4.4-6.599 4.4-10.598 0-8.279 6.72-14.998 15-14.998s15 6.72 15 14.999z" fill="#9a4916"/></g></svg>