<svg id="Capa_1" enable-background="new 0 0 512 512" height="512" viewBox="0 0 512 512" width="512" xmlns="http://www.w3.org/2000/svg"><g><g><path d="m222.908 78.322c-4.027 0-5.756-1.152-15.275-5.355-23.224-10.256-41.743-28.657-52.145-51.816-3.395-7.557-.02-16.434 7.538-19.829 7.556-3.393 16.434-.02 19.828 7.538 12.558 27.961 35.527 36.059 46.121 40.737 14.82 6.542 10.042 28.725-6.067 28.725z" fill="#d66823"/></g><g><path d="m275.362 69.376c-3.347-7.578.084-16.434 7.663-19.78 10.439-4.609 33.514-12.667 46.121-40.737 3.393-7.558 12.27-10.934 19.828-7.538 7.557 3.394 10.932 12.272 7.538 19.829-10.401 23.159-28.92 41.56-52.145 51.816l-9.225 4.073c-7.578 3.347-16.433-.083-19.78-7.663z" fill="#9a4916"/></g><g><path d="m271 454.491v42.509c0 8.28-6.72 15-15 15s-15-6.72-15-15v-42.51c0-8.28 6.72-15 15-15 8.28.001 15 6.721 15 15.001z" fill="#d66823"/></g><path d="m271 454.491v42.509c0 8.28-6.72 15-15 15v-72.509c8.28 0 15 6.72 15 15z" fill="#9a4916"/><path d="m356.429 289.572c-11.843-10.859-14.707-18.311-35.39-57.08l-5.34-10-34.699-64.999h34.6c8.28 0 15-6.72 15-15v-29.61c0-41.492-33.677-74.599-74.6-74.599-41.71.065-74.6 34.563-74.6 75.589v28.62c0 8.28 6.72 15 15 15h34.6c-64.554 120.922-62.573 120.29-75.43 132.079-7.463 6.84-4.07 15.28-4.07 16.28 13.583 59.488 56.268 124.397 94.289 159.628 2.88 2.67 6.55 4.01 10.21 4.01s7.33-1.34 10.21-4.01c35.42-32.821 73.763-89.875 89.839-142.989 2.8-9.137 4.966-18.492 5.13-20 .603-4.81-1.175-9.644-4.749-12.919z" fill="#ffb22a"/><path d="m360.949 303.862c-13.902 61.174-55.156 124.94-94.739 161.618-2.88 2.67-6.55 4.01-10.21 4.01v-431.205c40.854 0 74.6 33.055 74.6 74.599v29.61c0 8.28-6.72 15-15 15h-34.6l34.7 64.999 5.34 10c20.728 38.853 23.572 46.243 35.39 57.08 3.883 3.559 5.672 8.984 4.519 14.289z" fill="#f09b00"/><g><path d="m337.049 262.492h-162.108c8.026-15.029 7.611-14.253 16.02-30h130.079c12.759 23.917 9.174 17.2 16.009 30z" fill="#d66823"/></g><g><path d="m361.179 302.492c-.123 1.128-2.785 13.853-8.38 30h-193.598c-5.328-15.375-8.219-28.514-8.38-30z" fill="#d66823"/></g><g><path d="m335.42 372.491c-5.353 10.266-11.402 20.526-17.62 30h-123.6c-6.201-9.448-12.25-19.703-17.62-30z" fill="#d66823"/></g><g fill="#9a4916"><path d="m256 372.491h79.42c-5.353 10.266-11.402 20.526-17.62 30h-61.8z"/><path d="m337.049 262.492h-81.049v-30h65.04c12.759 23.917 9.174 17.2 16.009 30z"/><path d="m361.179 302.492c-.123 1.128-2.785 13.853-8.38 30h-96.799v-30z"/></g><g><path d="m511.998 232.223c.15 29.16-10.11 54.959-29.67 74.609-46.179 46.433-132.007 44.163-168.619-24.37l-57.709-108.119-57.71 108.109c-36.578 68.53-122.429 70.825-168.619 24.38-19.56-19.65-29.82-45.45-29.67-74.609.3-57.749 47.86-104.729 106.019-104.729h299.958c58.161 0 105.72 46.979 106.02 104.729z" fill="#f2e4e4"/></g><path d="m511.998 232.223c.15 29.16-10.11 54.959-29.67 74.609-46.179 46.433-132.007 44.163-168.619-24.37l-57.709-108.119v-46.849h149.979c58.16 0 105.719 46.979 106.019 104.729z" fill="#d8c5c5"/></g></svg>