<svg id="Capa_1" enable-background="new 0 0 512 512" height="512" viewBox="0 0 512 512" width="512" xmlns="http://www.w3.org/2000/svg"><g><g><path d="m367.762 185.94c-16.28 0-20.869-22.501-5.822-28.83l59.859-25.177 25.206-68.714c1.84-5.017 6.21-8.676 11.472-9.605l35.911-6.346c8.16-1.443 15.94 4.003 17.381 12.161 1.442 8.158-4.003 15.94-12.161 17.381l-27.411 4.844-24.482 66.741c-1.434 3.91-4.429 7.047-8.267 8.661-71.522 30.082-67.529 28.884-71.686 28.884z" fill="#525e63"/></g><g><path d="m496.984 376.146c-5.651 0-4.98-.448-42.052-23.448-2.561-1.589-4.585-3.913-5.806-6.669l-33.265-75.064-49.816-5.722c-8.23-.945-14.136-8.383-13.19-16.613s8.384-14.138 16.613-13.19l58.341 6.701c5.282.606 9.848 3.964 12.002 8.825l34.867 78.68 30.227 18.753c12.84 7.965 7.062 27.747-7.921 27.747z" fill="#525e63"/></g><g><path d="m496.986 511.999c-4.85 0-2.676.451-52.887-25.003-3.404-1.726-6.022-4.684-7.322-8.272l-22.495-62.129-52.1-20.857c-7.691-3.079-11.43-11.809-8.351-19.5s11.807-11.429 19.5-8.351l58.341 23.355c3.97 1.589 7.073 4.798 8.529 8.819l22.761 62.864 40.818 20.692c14.029 7.112 8.91 28.382-6.794 28.382z" fill="#525e63"/></g><g><path d="m138.429 184.763-65.877-27.708c-3.838-1.614-6.833-4.751-8.267-8.661l-24.481-66.74-27.411-4.844c-8.158-1.441-13.603-9.223-12.161-17.381 1.441-8.157 9.223-13.605 17.381-12.161l35.911 6.346c5.262.93 9.632 4.588 11.472 9.605l25.206 68.714 59.858 25.177c7.636 3.212 11.223 12.006 8.011 19.642-3.212 7.637-12.009 11.223-19.642 8.011z" fill="#5a7983"/></g><g><path d="m15.017 376.146c-14.988.001-20.759-19.784-7.922-27.748l30.227-18.753 34.867-78.68c2.154-4.861 6.72-8.218 12.002-8.825l58.341-6.701c8.229-.95 15.668 4.96 16.613 13.19s-4.96 15.668-13.19 16.613l-49.816 5.722c-36.367 82.064-33.686 78.393-39.071 81.733-37.08 23.006-36.395 23.449-42.051 23.449z" fill="#5a7983"/></g><g><path d="m1.624 503.778c-3.746-7.389-.792-16.415 6.597-20.161l40.818-20.692 22.761-62.864c1.456-4.021 4.559-7.23 8.529-8.819l58.341-23.355c7.692-3.078 16.421.661 19.5 8.351 3.079 7.691-.66 16.421-8.351 19.5l-52.101 20.857-22.495 62.129c-1.299 3.589-3.917 6.547-7.322 8.272l-46.117 23.378c-7.379 3.743-16.409.803-20.16-6.596z" fill="#5a7983"/></g><g><path d="m350.689 94.689v35.5c0 11.577-12.647 18.819-22.62 12.92-7.62-4.49-16.37-6.87-25.3-6.87h-93.539c-8.93 0-17.68 2.38-25.3 6.87-10.02 5.917-22.62-1.382-22.62-12.92v-35.5c.001-52.209 42.481-94.689 94.69-94.689 52.21 0 94.689 42.48 94.689 94.689z" fill="#70dd59"/></g><path d="m350.689 94.689v35.5c0 11.577-12.647 18.819-22.62 12.92-7.62-4.49-16.37-6.87-25.3-6.87h-46.769v-136.239c52.21 0 94.689 42.48 94.689 94.689z" fill="#2bb65e"/><g><path d="m382.759 187.909-13.151 15.483 13.151 14.517v19.058l-16.948 13.352 16.948 16.845v104.498l-11.742 9.094s11.297 16.748 10.437 22.698c-8.151 56.42-53.591 100.931-110.454 107.652-4.92.59-9.93-12.318-15-12.318s-10.08 12.908-15 12.318c-62.859-7.43-111.759-61.04-111.759-125.869v-167.329l16.167-14.289-16.167-15.711c0-31.781 16.28-57.012 39.46-70.649 12.23-7.21 26.25-11.02 40.53-11.02h93.539c14.28 0 28.3 3.81 40.54 11.03 23.52 13.834 39.449 39.246 39.449 70.64z" fill="#2bb65e"/></g><path d="m382.759 187.909-12.205 15.456 12.205 14.544v167.329c0 64.825-48.903 118.434-111.758 125.877-4.92.583-9.926-12.326-15.001-12.326v-392.55h46.77c14.28 0 28.3 3.81 40.54 11.03 23.324 13.719 39.449 39.032 39.449 70.64z" fill="#008f61"/><g><path d="m382.759 187.909v30h-111.759v293.198c-4.92.59-9.93.89-15 .89s-10.08-.3-15-.89v-293.199h-111.758v-30h253.517z" fill="#70dd59"/></g><path d="m382.759 187.909v30h-111.759v293.198c-4.92.59-9.93.89-15 .89v-324.088z" fill="#2bb65e"/></g></svg>