<svg id="Capa_1" enable-background="new 0 0 512 512" height="512" viewBox="0 0 512 512" width="512" xmlns="http://www.w3.org/2000/svg"><g><g><path d="m437.86 176.859c-.03.07-.06.13-.09.19l-14.87 32.486c-5.701 12.47-23.714 11.339-27.92-1.63-7.82-24.257-17.67-46.075-29.25-64.832-16.19-26.087-34.28-44.435-55.3-56.043-10.048-5.572-10.373-19.927-.55-25.937l96.61-58.903c3.5-2.13 7.72-2.74 11.68-1.68 7.311 1.952 9.273 7.259 12.77 13.648 13.47 24.637 21.22 52.484 22.41 80.54s-4.17 56.465-15.49 82.161z" fill="#9a4916"/></g><g><path d="m201.56 87.03c-21 11.599-39.09 29.946-55.3 56.083-11.59 18.808-21.41 40.555-29.19 64.612-4.16 12.94-22.148 14.068-27.89 1.68-13.919-30.119-32.746-62.453-30.53-114.706 1.442-33.999 10.968-59.632 25.89-86.899 4.104-7.5 13.656-10.06 20.97-5.61l96.61 58.903c9.841 6.021 9.484 20.401-.56 25.937z" fill="#d66823"/></g><g><path d="m353.16 456.956c-11.931 4.965-24.31-6.659-19.84-18.968 1.596-4.408 12.911-57.444-59.63-77.211-11.45-3.122-23.667-3.198-35.36 0-34.589 9.418-62.114 30.052-61.14 66.122 0 1.793-.344 6.026 1.49 11.089 4.441 12.227-7.816 23.939-19.84 18.968-52.14-21.607-109.06-74.511-84.16-203.836 8.37-43.567 22.494-87.547 46.06-125.775 19.01-30.656 40.7-52.424 66.32-66.572 42.857-23.681 94.209-24.135 137.88 0 64.884 35.868 98.192 118.745 112.38 192.347 24.9 129.325-32.02 182.229-84.16 203.836z" fill="#f09b00"/></g><g><path d="m164.584 458.099h-62.548c-56.263 0-102.036-45.767-102.036-102.023v-86.62c0-8.283 6.716-14.998 15-14.998s15 6.715 15 14.998v86.62c0 39.715 32.315 72.027 72.036 72.027h62.548c8.284 0 15 6.715 15 14.998s-6.716 14.998-15 14.998z" fill="#f2e4e4"/></g><path d="m353.16 456.956c-11.931 4.965-24.31-6.659-19.84-18.968 1.596-4.408 12.911-57.444-59.63-77.211-5.72-1.56-11.59-2.35-17.47-2.37v-315.602c24.477.049 48.25 6.655 68.72 17.968 64.884 35.868 98.192 118.745 112.38 192.347 24.9 129.325-32.02 182.229-84.16 203.836z" fill="#d66823"/><g><path d="m409.964 458.099h-62.548c-8.284 0-15-6.715-15-14.998s6.716-14.998 15-14.998h62.548c39.721 0 72.036-32.311 72.036-72.027v-86.62c0-8.283 6.716-14.998 15-14.998s15 6.715 15 14.998v86.62c0 56.256-45.773 102.023-102.036 102.023z" fill="#d8c5c5"/></g><g><g><circle cx="174.136" cy="238.857" fill="#525e63" r="14.999"/></g></g><g><g><circle cx="337.864" cy="238.857" fill="#414c51" r="14.999"/></g></g><g><path d="m310.31 500.641c-34.456 15.132-74.099 15.159-108.62 0-72.95-32.062-65.34-108.216-22-143.823 19.933-16.389 61.083-36.1 101.89-24.977 45.771 12.463 80.621 41.551 83.13 88.769 1.84 38.188-19.909 64.872-54.4 80.031z" fill="#ffd18b"/></g><path d="m310.31 500.641c-17.19 7.549-35.64 11.329-54.09 11.359v-183.588c37.007.086 104.995 26.413 108.49 92.199 1.84 38.187-19.909 64.871-54.4 80.03z" fill="#ffb22a"/><g><circle cx="221.965" cy="420.181" fill="#525e63" r="14.999"/></g><g><circle cx="290.035" cy="420.181" fill="#414c51" r="14.999"/></g></g></svg>