<svg id="Capa_1" enable-background="new 0 0 512 512" height="512" viewBox="0 0 512 512" width="512" xmlns="http://www.w3.org/2000/svg"><g><g><path d="m98.79 182.794c0 11.723-.528 17.533 2.58 26.128 3.514 9.768-3.722 20.119-14.13 20.119-9.439 0-63.529-22.443-80.09-75.866-11.13-35.918-9.14-69.806 5.77-98.015 16.12-30.478 44.02-48.127 64.75-54.477 11.831-3.632 22.691 7.85 18.51 19.439-.32.87-30.67 89.045 9.1 111.274 8.26 4.603 10.24 15.668 4.07 22.849-6.813 7.94-10.56 18-10.56 28.549z" fill="#f2e4e4"/></g><g><path d="m504.849 153.175c-16.238 52.384-69.584 75.866-80.11 75.866-10.417 0-17.622-10.355-14.11-20.119 1.71-4.73 2.58-9.729 2.58-14.849 0-11.541 1.742-25.491-10.56-39.828-2.93-3.41-4.17-7.96-3.38-12.389.79-4.43 3.52-8.269 7.45-10.459 39.92-22.309 9.42-110.394 9.1-111.274-4.184-11.598 6.687-23.068 18.51-19.439 20.73 6.35 48.63 23.999 64.75 54.477 14.91 28.208 16.91 62.096 5.77 98.014z" fill="#d8c5c5"/></g><g><path d="m112.2 356.184c-75.71-6.73-108.98-66.036-110.36-68.556-2.41-4.41-2.46-9.74-.11-14.189 30.42-57.777 89.03-53.757 91.51-53.547 6.66.54 12.17 5.42 13.49 11.979l21.5 106.395c1.99 9.821-6.037 18.808-16.03 17.918z" fill="#9a4916"/></g><g><path d="m510.159 287.628c-1.38 2.52-34.65 61.827-110.36 68.556-10.029.892-18.012-8.133-16.03-17.919 1.29-6.366 20.327-100.59 21.5-106.395 1.32-6.559 6.83-11.439 13.49-11.979 2.49-.21 61.09-4.23 91.51 53.547 2.35 4.451 2.301 9.78-.11 14.19z" fill="#6e310b"/></g><g><path d="m242.39 415.642c.25 6.38-3.56 12.209-9.5 14.549-4.14 1.63-8.12 3.7-11.82 6.15-3.67 2.43-5.37 6.96-4.13 10.999v.01c1.98 6.46 5.91 13.159 11.68 19.899 8.306 9.726 1.371 24.749-11.4 24.749h-13.1c-43.7 0-81.71-31.098-90.37-73.936l-40.03-198.1c-1.53-7.54 2.91-15.019 10.27-17.299 7.35-2.27 15.24 1.39 18.24 8.48 6.89 16.289 22.77 26.809 40.44 26.809h20.92c33.7 0 62.34 25.209 66.62 58.647 13.343 104.487 10.331 71.959 12.18 119.043z" fill="#d66823"/></g><g><path d="m438.28 219.962-40.03 198.1c-8.66 42.838-46.67 73.936-90.37 73.936h-12.95c-12.799 0-19.689-15.044-11.41-24.739 5.53-6.47 9.37-12.899 11.42-19.089 1.5-4.55-.41-9.609-4.64-12.329-3.5-2.25-7.25-4.16-11.14-5.67-5.96-2.32-9.8-8.169-9.55-14.569 1.737-44.174-.851-16.962 12.18-119.004 4.28-33.438 32.92-58.647 66.62-58.647h20.92c17.67 0 33.55-10.519 40.44-26.809 3-7.089 10.88-10.749 18.24-8.48 7.36 2.27 11.8 9.75 10.27 17.3z" fill="#9a4916"/></g><g><path d="m443.21 182.794v11.279c0 40.645-32.856 73.876-73.88 73.876h-20.92c-18.65 0-34.49 13.949-36.86 32.448-12.716 99.612-10.335 75.068-11.96 116.384-.2 5-2.88 9.57-7.14 12.189-10.685 6.555-14.552-3.15-36.45-3.15-21.54.027-25.799 9.657-36.41 3.22-4.29-2.62-6.98-7.2-7.18-12.219-1.624-41.354.843-16.128-11.96-116.424-2.37-18.499-18.21-32.448-36.86-32.448h-20.92c-40.957 0-73.88-33.199-73.88-73.876 0-12.197-2.254-35.971 17.78-59.347 14.07-16.399 34.52-25.809 56.1-25.809h226.66c40.715 0 73.88 33.011 73.88 73.877z" fill="#f09b00"/></g><circle cx="163.345" cy="313.327" fill="#525e63" r="15"/><circle cx="351.073" cy="313.327" fill="#414c51" r="15"/><path d="m443.21 182.794v11.279c0 40.645-32.856 73.876-73.88 73.876h-20.92c-18.65 0-34.49 13.949-36.86 32.448-12.716 99.612-10.335 75.068-11.96 116.384-.2 5-2.88 9.57-7.14 12.189-10.685 6.555-14.552-3.15-36.45-3.15v-316.903h113.33c40.715 0 73.88 33.011 73.88 73.877z" fill="#d66823"/><g><path d="m318.65 461.417c-12.196 36.811-49.556 61.229-85.198 45.961-18.599-7.971-34.969-29.525-40.406-47.299-4.749-15.472 1.459-32.589 15.092-41.63 29.323-19.403 66.607-18.807 94.798-.678 14.646 9.394 21.104 27.347 15.714 43.646z" fill="#9a4916"/></g><path d="m318.65 461.417c-6.49 19.588-27.917 50.579-62.672 50.579v-107.96c17.236 0 33.442 5.042 46.957 13.734 14.647 9.395 21.105 27.348 15.715 43.647z" fill="#6e310b"/></g></svg>