<svg id="Capa_1" enable-background="new 0 0 512 512" height="512" viewBox="0 0 512 512" width="512" xmlns="http://www.w3.org/2000/svg"><g><g><path d="m241 297.725c0 72.711.147 67.46-.35 69.67-12.568 55.316-55.239 75.206-111.27 75.206-21.75 0-38.4-3.26-39.91-3.559-5.83-1.177-10.38-5.574-11.6-11.187-.72-3.289-17-80.906 25.03-121.45 11.16-10.763 25.99-18.42 44.09-22.77 2.861-.673 79.333-.628 82.12-.068 6.92 1.418 11.89 7.311 11.89 14.158z" fill="#70dd59"/></g><g><path d="m434.13 427.855c-1.22 5.613-5.77 10.011-11.6 11.187-1.51.299-18.17 3.559-39.91 3.559-27.3 0-62.62-5.131-86.03-27.698-12.28-11.853-20.77-27.833-25.24-47.507-.23-1.022-.35-2.054-.35-3.096v-66.574c0-8.364 7.127-14.514 15.25-14.514h75.13c4.759 0 29.974 6.079 47.72 23.194 42.03 40.543 25.75 118.16 25.03 121.449z" fill="#2bb65e"/></g><g><path d="m223.839 117.93-11.31-49.569c-1.843-8.077 3.211-16.118 11.288-17.961 8.075-1.841 16.119 3.211 17.96 11.287l11.31 49.569c1.843 8.077-3.211 16.118-11.288 17.961-8.077 1.842-16.117-3.21-17.96-11.287z" fill="#d66823"/></g><g><path d="m270.201 129.217c-8.077-1.843-13.13-9.884-11.288-17.961l11.31-49.569c1.843-8.076 9.889-13.134 17.96-11.287 8.077 1.843 13.13 9.884 11.288 17.961l-11.31 49.569c-1.849 8.103-9.919 13.127-17.96 11.287z" fill="#9a4916"/></g><g><path d="m241 212.912v70.468c0 7.886-6.72 14.286-15 14.286h-111.96c-62.88 0-114.04-48.725-114.04-108.611v-70.468c0-7.895 6.72-14.286 15-14.286h111.96c62.88 0 114.04 48.724 114.04 108.611z" fill="#ff7b94"/></g><g><path d="m512 118.587v70.468c0 59.886-51.16 108.611-114.04 108.611h-111.96c-8.28 0-15-6.4-15-14.286v-70.468c0-59.886 51.16-108.611 114.04-108.611h111.96c8.28 0 15 6.391 15 14.286z" fill="#fe4566"/></g><g><circle cx="150.448" cy="367.685" fill="#2bb65e" r="15"/></g><g><circle cx="361.552" cy="367.685" fill="#008f61" r="15"/></g><g><path d="m179.48 235.311c-11.878 23.795-47.309 26.638-79.11 10.75-31.936-15.979-50.691-46.068-38.85-69.75 11.808-23.598 47.079-26.766 79.11-10.74 32.117 16.047 50.619 46.221 38.85 69.74z" fill="#ffc5ce"/></g><g><path d="m411.63 246.061c-32.748 16.361-67.545 12.38-79.11-10.75-5.97-11.93-4.26-26.7 4.68-40.51 15.58-24.044 49.705-40.995 78.05-39.04 16.42 1.13 29.26 8.62 35.23 20.55 11.714 23.429-6.563 53.595-38.85 69.75z" fill="#ffa1b2"/></g><path d="m290.76 121.701v129.72l-8.693 15 8.693 15v30l-7.756 15 7.756 15v85.8c0 19.199-15.559 34.76-34.76 34.76-19.2 0-34.76-15.56-34.76-34.76v-85.8l11.568-15-11.568-15v-30l8.366-15-8.366-15v-129.72c0-19.2 15.56-34.76 34.76-34.76s34.76 15.56 34.76 34.76z" fill="#f09b00"/><path d="m290.76 121.701v129.72l-8.693 15 8.693 15v30l-7.756 15 7.756 15v85.8c0 19.199-15.559 34.76-34.76 34.76v-375.04c19.2 0 34.76 15.56 34.76 34.76z" fill="#d66823"/><g><path d="m221.24 251.421h69.52v30h-69.52z" fill="#d66823"/></g><g><path d="m221.24 311.421h69.52v30h-69.52z" fill="#d66823"/></g><g fill="#9a4916"><path d="m256 251.421h34.76v30h-34.76z"/><path d="m256 311.421h34.76v30h-34.76z"/></g></g></svg>