<svg id="Capa_1" enable-background="new 0 0 512 512" height="512" viewBox="0 0 512 512" width="512" xmlns="http://www.w3.org/2000/svg"><g><g><path d="m157.18 98.89c-1.456 4.449.559.785-17.25 28.8-2.85 4.48-7.85 7.11-13.18 6.94-.29-.01-35.69-.7-52.86 21.44-2.86 3.7-7.26 5.81-11.85 5.81-.76 0-1.52-.06-2.29-.17-5.38-.83-9.9-4.52-11.78-9.63-9.32-25.24-14.89-54.98-16.54-88.4-1.91-39.036 40.358-60.955 69.55-36.76 20.78 17.24 39.02 36.99 54.23 58.69 2.72 3.87 3.45 8.79 1.97 13.28z" fill="#f09b00"/></g><g><path d="m480.57 63.67c-1.65 33.43-7.22 63.17-16.54 88.41-4.083 11.098-18.79 13.214-25.92 3.99-17.08-22.03-52.51-21.45-52.86-21.44-5.33.18-10.33-2.46-13.18-6.94-17.782-27.973-15.78-24.308-17.25-28.8-1.48-4.49-.75-9.41 1.97-13.28 15.21-21.7 33.45-41.45 54.22-58.68 29.15-24.163 71.474-2.355 69.56 36.74z" fill="#d66823"/></g><g><path d="m476.85 206.59c-.515 1.029-2.229 43.068-43.57 71.67-14.99 10.39-35.26 30.97-46.61 70.06-4.306 14.784-25.618 14.21-29.03-.86l-18.15-79.71c-8.848-38.903-43.467-66.62-83.49-66.62-39.752 0-74.581 27.45-83.49 66.62l-18.15 79.71c-3.385 14.951-24.679 15.802-29.03.86-11.35-39.09-31.62-59.67-46.62-70.06-26.44-18.301-38.627-42.04-43.55-71.59-3.09-23.45-.07-43.54 8.96-59.8 1.82-3.27 3.87-6.37 6.09-9.22 20.1-25.93 52.89-31.56 68.64-32.73l34.37-54.02c43.188-67.811 162.475-67.615 205.56-.01l34.37 54.03c17.47 1.29 55.91 8.06 74.73 41.96 9.03 16.25 12.05 36.34 8.97 59.71z" fill="#ffd18b"/></g><path d="m476.85 206.59c-.515 1.029-2.229 43.068-43.57 71.67-14.99 10.39-35.26 30.97-46.61 70.06-4.306 14.784-25.618 14.21-29.03-.86l-18.15-79.71c-8.848-38.903-43.467-66.62-83.49-66.62v-201.13c40.332 0 81.507 17.51 102.78 50.89l34.37 54.03c17.47 1.29 55.91 8.06 74.73 41.96 9.03 16.25 12.05 36.34 8.97 59.71z" fill="#ffb22a"/><g><path d="m396.13 394.58c0 64.868-52.756 117.42-117.42 117.42h-45.42c-75.44 0-131.154-70.147-114.48-143.52l24.45-107.39c6.753-29.639 24.767-55.164 49.98-71.44 19.06-12.32 40.91-18.48 62.76-18.48 53.318 0 100.596 36.526 112.74 89.92 26.517 116.476 27.39 115.934 27.39 133.49z" fill="#ffb22a"/></g><g><circle cx="148.913" cy="175.789" fill="#525e63" r="13.088"/></g><g><circle cx="363.086" cy="175.789" fill="#414c51" r="13.088"/></g><path d="m396.13 394.58c0 64.868-52.756 117.42-117.42 117.42h-22.71v-340.83c53.318 0 100.596 36.526 112.74 89.92 26.517 116.476 27.39 115.934 27.39 133.49z" fill="#f09b00"/><g><path d="m284.78 442.75c-11.01 0-21.09-4.09-28.78-10.81-25.478 22.264-65.537 8.263-71.79-24.8-.913-2.776-.76-4.589-.76-8.16 0-8.28 6.71-15 15-15 8.28 0 15 6.72 15 15 0 7.6 6.18 13.77 13.77 13.77 7.6 0 13.78-6.17 13.78-13.77v-99.84l-30.68-12.62c-7.66-3.15-11.31-11.92-8.16-19.58s11.91-11.32 19.58-8.17l34.26 14.09 34.26-14.09c7.66-3.15 16.43.51 19.58 8.17s-.5 16.43-8.16 19.58l-30.68 12.62v99.84c0 7.6 6.18 13.77 13.78 13.77 7.59 0 13.77-6.17 13.77-13.77 0-8.28 6.72-15 15-15 28.825 0 14.547 58.77-28.77 58.77z" fill="#d66823"/></g><path d="m284.78 442.75c-11.01 0-21.09-4.09-28.78-10.81v-159.08l34.26-14.09c7.66-3.15 16.43.51 19.58 8.17s-.5 16.43-8.16 19.58l-30.68 12.62v99.84c0 7.6 6.18 13.77 13.78 13.77 7.59 0 13.77-6.17 13.77-13.77 0-8.28 6.72-15 15-15 28.825 0 14.547 58.77-28.77 58.77z" fill="#9a4916"/></g></svg>