<svg id="Capa_1" enable-background="new 0 0 512 512" height="512" viewBox="0 0 512 512" width="512" xmlns="http://www.w3.org/2000/svg"><g><g><path d="m452.32 291.261-5.9 28.69c-8.34 40.66-30.24 78.49-61.97 106.1l-76.41 66.49c-14.91 12.97-33.48 19.45-52.04 19.44-18.57 0-37.13-6.48-52.03-19.44l-76.42-66.49c-31.58-27.48-53.58-65.22-61.97-106.1l-5.1-24.8-.8-3.89c-25.6-21.24-26.11-51.34-26.11-84.73 0-50 18.6-88.11 66.66-101.75 5.88-1.66 11.34-12.11 15.9-14.8 27.34-16.1 35.41-46.83 75.94-46.83 10.08 0 19.17-4.66 25.11-12.07l16.16-20.19c5.81-7.26 14.24-10.89 22.66-10.89 8.43 0 16.85 3.63 22.66 10.89l16.16 20.19c6.14 7.67 15.29 12.07 25.11 12.07 40.35 0 48.5 30.7 75.94 46.83 4.57 2.68 11.71 17.25 17.59 18.92 48.06 13.65 62.19 43.08 62.19 93.08 0 33.4 2.27 68.05-23.33 89.28z" fill="#2bb65e"/></g><path d="m452.32 291.261-5.9 28.69c-8.34 40.66-30.24 78.49-61.97 106.1l-76.41 66.49c-14.91 12.97-33.48 19.45-52.04 19.44v-511.98c8.43 0 16.85 3.63 22.66 10.89l16.16 20.19c6.14 7.67 15.29 12.07 25.11 12.07 40.35 0 48.5 30.7 75.94 46.83 4.57 2.68 11.71 17.25 17.59 18.92 48.06 13.65 62.19 43.08 62.19 93.08 0 33.4 2.27 68.05-23.33 89.28z" fill="#008f61"/><g><path d="m432.75 361.46c-11.32 24.58-27.79 46.74-48.3 64.59l-76.41 66.49c-29.82 25.942-74.283 25.913-104.07 0l-76.42-66.49c-20.26-17.63-36.59-39.49-47.9-63.72l100.87-29.27c24.7-7.69 50.08-11.57 75.48-11.64 25.86-.07 51.72 3.8 76.87 11.62z" fill="#70dd59"/></g><circle cx="181.176" cy="291.454" fill="#525e63" r="15"/><circle cx="330.824" cy="291.454" fill="#414c51" r="15"/><path d="m154.286 157.274c10.822 61.718-30.381 120.643-91.731 133.389l-2.875.597c-25.6-21.24-40.72-53.17-40.72-86.56 0-50 33.56-94.45 81.62-108.09 5.42-1.53 10.66-3.76 15.57-6.6 21.288 18.565 33.779 42.416 38.136 67.264z" fill="#f2e4e4"/><path d="m357.714 157.274c-10.239 58.392 25.999 119.733 94.606 133.986 25.6-21.24 40.72-53.17 40.72-86.56 0-50-33.56-94.45-81.62-108.09-5.42-1.53-10.66-3.76-15.57-6.6-21.288 18.565-33.779 42.416-38.136 67.264z" fill="#d8c5c5"/><g><path d="m371.97 69.531-25.8 29.3c-24.2 29.85-42.63 69.25-53.3 113.97-5.08 21.33-19.56 35.12-36.87 35.12s-31.79-13.79-36.87-35.12c-5.35-22.41-12.67-43.6-21.77-62.97-9.03-19.23-19.7-36.46-31.71-51.22-.04-.05-.08-.11-.12-.15l-24.06-30.38c6.084-6.15 21.316-24.93 50.6-24.93 10.076 0 19.167-4.661 25.11-12.07l16.16-20.19c11.62-14.515 33.688-14.529 45.32 0l16.16 20.19c6.14 7.67 15.29 12.07 25.11 12.07 28.849 0 43.621 17.872 52.04 26.38z" fill="#70dd59"/></g><circle cx="95.305" cy="206.53" fill="#525e63" r="15"/><circle cx="416.695" cy="206.53" fill="#414c51" r="15"/><path d="m256 247.921v-247.92c8.87 0 17.12 3.97 22.66 10.89l16.16 20.19c6.14 7.67 15.29 12.07 25.11 12.07 28.849 0 43.621 17.872 52.04 26.38l-25.8 29.3c-24.2 29.85-42.63 69.25-53.3 113.97-5.08 21.33-19.56 35.12-36.87 35.12z" fill="#2bb65e"/><path d="m432.75 361.46c-11.32 24.58-27.79 46.74-48.3 64.59l-76.41 66.49c-14.436 12.558-32.966 19.46-52.04 19.46v-190.58c25.86-.07 51.72 3.8 76.87 11.62z" fill="#2bb65e"/><g><path d="m271 399.06v111.5c-9.921 1.919-20.074 1.92-30 0v-111.5c0-8.28 6.72-15 15-15s15 6.72 15 15z" fill="#2bb65e"/></g><path d="m271 399.06v111.5c-4.91.95-9.93 1.44-15 1.44v-127.94c8.28 0 15 6.72 15 15z" fill="#008f61"/></g></svg>