<svg id="Capa_1" enable-background="new 0 0 512 512" height="512" viewBox="0 0 512 512" width="512" xmlns="http://www.w3.org/2000/svg"><g><g><path d="m422.1 224.296v250.266c0 30.196-39.332 40.151-53.9 17.54l-13.59-21.681-26.11 30.981c-12.309 14.606-34.686 13.693-45.76-.15-.475-.579-26.57-32.371-27.04-32.951l-27.66 31.961c-11.978 14.104-33.714 13.999-45.57-.09l-25.08-29.751c-14.598 23.288-13.856 22.212-14.83 23.381-17.928 21.263-52.66 8.558-52.66-19.24v-250.266c0-76.222 51.55-142.454 125.36-161.054 6.8-1.72 13.88 1.51 17.05 7.76 6.704 13.177 1.568 3.08 23.69 46.571l23.69-46.571c3.17-6.25 10.25-9.47 17.05-7.77 70.608 17.798 125.36 81.86 125.36 161.064z" fill="#f2e4e4"/></g><path d="m422.1 224.296v250.266c0 30.196-39.332 40.151-53.9 17.54l-13.59-21.681-26.11 30.981c-12.309 14.606-34.686 13.693-45.76-.15l-26.74-32.58v-351.099l23.69-46.571c3.17-6.25 10.25-9.47 17.05-7.77 70.608 17.798 125.36 81.86 125.36 161.064z" fill="#d8c5c5"/><g fill="#ff1200"><path d="m269.13 357.769-13.13-23.741-13.13 23.741c-3.23 5.85-2.2 13.14 2.52 17.87l10.61 10.6 10.61-10.6c4.72-4.73 5.75-12.02 2.52-17.87z"/><path d="m328.2 387.63c-18.072 18.072-49.352 21.458-72.2-1.39l10.61-10.6c4.72-4.73 5.75-12.02 2.52-17.87l-13.13-23.742 22.2-40.131c4.83-8.727 16.708-10.384 23.73-3.34l26.27 26.261c19.52 19.52 19.52 51.291 0 70.812z"/></g><g fill="#ff5600"><path d="m269.13 357.769-13.13-23.741-13.13 23.741c-3.23 5.85-2.2 13.14 2.52 17.87l10.61 10.6 10.61-10.6c4.72-4.73 5.75-12.02 2.52-17.87z"/><path d="m245.39 375.639 10.61 10.6c-10.21 10.21-22.038 16.03-36.79 16.03-12.83 0-25.65-4.88-35.41-14.64-19.52-19.521-19.52-51.291 0-70.812l26.27-26.261c3.33-3.34 8.03-4.91 12.7-4.25 4.66.66 8.75 3.47 11.03 7.59l22.2 40.131-13.13 23.741c-3.23 5.851-2.2 13.141 2.52 17.871z"/></g><g><path d="m316.56 293.517-47.33 88.583c-5.645 10.556-20.812 10.56-26.46 0l-47.33-88.582c-6.87-12.84-2.86-28.561 9.32-36.551l35.91-23.551c9.215-6.044 21.254-6.169 30.66 0l35.91 23.551c12.18 7.99 16.19 23.71 9.32 36.55z" fill="#ffb22a"/></g><g><path d="m307.09 83.312c0 .01-.01.02-.01.03-8.42 16.528-1.607 3.141-37.71 74.112-5.545 10.895-21.176 10.932-26.74 0l-37.71-74.112c-12.12-23.861-6.33-52.551 14.09-69.802 10.34-8.74 23.47-13.54 36.99-13.54s26.65 4.8 36.99 13.53c20.42 17.261 26.21 45.951 14.1 69.782z" fill="#ff5600"/></g><g><circle cx="191.205" cy="216.575" fill="#525e63" r="15"/></g><g><circle cx="320.795" cy="216.575" fill="#414c51" r="15"/></g><path d="m307.09 83.312c0 .01-.01.02-.01.03-8.42 16.528-1.607 3.141-37.71 74.112-2.56 5.03-7.73 8.2-13.37 8.2v-165.654c13.52 0 26.65 4.8 36.99 13.53 20.42 17.261 26.21 45.951 14.1 69.782z" fill="#ff1200"/><path d="m316.56 293.517-47.33 88.583c-2.61 4.88-7.69 7.93-13.23 7.93v-161.194c5.34 0 10.68 1.53 15.33 4.58l35.91 23.551c12.18 7.99 16.19 23.71 9.32 36.55z" fill="#f09b00"/></g></svg>