<svg id="Capa_1" enable-background="new 0 0 512 512" height="512" viewBox="0 0 512 512" width="512" xmlns="http://www.w3.org/2000/svg"><g><g><path d="m224.85 112.927c-79.971 44.093-75.776 42.589-81.11 42.589-3.6 0-7.17-1.3-9.99-3.81-1.98-1.77-48.52-44.159-55.32-122.878-1.04-12.06 5.9-22.97 17.27-27.15 11.34-4.18 23.68-.38 30.69 9.45 12.28 17.21 46.19 58.909 95.68 74.339 12.57 3.92 14.337 21.066 2.78 27.46z" fill="#f2e4e4"/></g><g><path d="m433.57 28.829c-6.79 78.719-53.34 121.108-55.32 122.878-4.777 4.251-11.674 5.009-17.23 1.95l-73.87-40.729c-11.562-6.396-9.785-23.541 2.78-27.459 49.49-15.43 83.4-57.129 95.68-74.339 7.01-9.83 19.35-13.63 30.69-9.45 11.37 4.179 18.31 15.089 17.27 27.149z" fill="#d8c5c5"/></g><g><path d="m395.47 226.115s-34.03 200.317-34.35 201.597c-13.15 53.639-51.28 84.288-105.12 84.288-53.85 0-91.97-30.649-105.12-84.289-.32-1.28-36.57-201.597-36.57-201.597s60.02-127.028 66.21-129.788c36.1-16.11 70.99-16.22 75.43-16.17h.05c4.64-.09 39.59-.16 75.7 15.89 6.2 2.761 63.77 130.069 63.77 130.069z" fill="#fff5f5"/></g><path d="m395.47 226.115s-34.03 200.317-34.35 201.597c-13.15 53.639-51.28 84.288-105.12 84.288v-431.843c4.64-.09 39.59-.16 75.7 15.89 6.2 2.76 63.77 130.068 63.77 130.068z" fill="#f2e4e4"/><g><path d="m512 161.506c0 12.44-6.04 24.12-16.17 31.259-20.322 14.323-43.666 22.91-68.54 22.91-11.15 0-23.1-1.72-35.75-5.81-5.05-1.63-8.86-5.81-10.02-11-4.27-19.069-12.39-35.389-24.16-48.499-6.266-7.004-4.623-17.92 3.33-22.809 61.11-37.44 110.9-14.38 135.14 2.7 10.13 7.14 16.17 18.819 16.17 31.249z" fill="#525e63"/></g><g><path d="m415.17 234.225c0 74.229-24.96 129.078-39.84 155.167-2.29 4.02-4.35 8.15-6.12 12.25-5.387 12.408-6.853 21.122-8.09 26.069-.76-.47-1.49-1.03-2.17-1.65-16.97-15.5-58.43-58.119-77.08-118.738-10.31-33.529-12.06-67.549-5.2-101.098 7.68-37.459 26.17-74.489 55.03-110.178 40.522 18.039 68.783 50.139 79.1 96.278 2.9 12.93 4.37 27.03 4.37 41.9z" fill="#5a7983"/></g><g><path d="m154.87 150.576c-11.85 13.1-20.03 29.349-24.33 48.309-1.17 5.16-4.97 9.32-10 10.95-12.68 4.11-24.66 5.83-35.84 5.83-28.8 0-52.26-11.44-68.53-22.899-10.13-7.14-16.17-18.82-16.17-31.26 0-12.43 6.04-24.109 16.17-31.249 24.3-17.12 74.2-40.209 135.43-2.51 7.957 4.879 9.575 15.849 3.27 22.829z" fill="#5a7983"/></g><g><path d="m230.13 307.324c-20.186 65.612-71.561 115.633-79.25 120.388-.32-1.28-.62-2.57-.9-3.87-1.64-7.52-4.06-14.99-7.18-22.2-1.78-4.1-3.84-8.23-6.14-12.27-14.87-26.069-39.83-80.919-39.83-155.147 0-38.605 10.001-75.249 35.78-103.768 12.37-13.698 28.328-25.398 47.91-34.129 28.74 35.599 47.16 72.539 54.81 109.898 6.86 33.549 5.11 67.568-5.2 101.098z" fill="#81a1b1"/></g><g><circle cx="166.145" cy="261.43" fill="#525e63" r="15"/></g><g><circle cx="345.855" cy="261.43" fill="#414c51" r="15"/></g><g><path d="m226.522 455.145c-8.184-1.286-13.776-8.963-12.49-17.146.769-4.894-2.588-9.502-7.483-10.271-8.184-1.286-13.776-8.963-12.49-17.146s8.963-13.775 17.147-12.489c21.236 3.337 35.799 23.328 32.462 44.564-1.286 8.182-8.963 13.774-17.146 12.488z" fill="#525e63"/></g><g><path d="m285.478 455.145c8.184-1.286 13.776-8.963 12.49-17.146-.769-4.894 2.588-9.502 7.483-10.271 8.184-1.286 13.776-8.963 12.49-17.146s-8.963-13.775-17.147-12.489c-21.236 3.337-35.799 23.328-32.462 44.564 1.286 8.182 8.963 13.774 17.146 12.488z" fill="#414c51"/></g></g></svg>