<svg id="Capa_1" enable-background="new 0 0 512 512" height="512" viewBox="0 0 512 512" width="512" xmlns="http://www.w3.org/2000/svg"><g><g><path d="m189.701 241.009v-49.928c0-8.28 6.71-14.999 15-14.999 8.28 0 15 6.72 15 14.999v49.928z" fill="#525e63"/></g><g><path d="m292.3 241.009v-49.928c0-8.28 6.72-14.999 15-14.999 8.29 0 15 6.72 15 14.999v49.928z" fill="#414c51"/></g><g><g><path d="m484.023 381.841-15.657-26.989c-9.44-16.271-26.991-26.379-45.802-26.379h-5.91c-8.284 0-15-6.716-15-15s6.716-15 15-15h5.91c29.469 0 56.962 15.834 71.751 41.325l15.657 26.99c4.157 7.165 1.718 16.344-5.448 20.5-7.167 4.16-16.345 1.719-20.501-5.447z" fill="#dc0c3e"/></g><g><path d="m425.663 459.293-4.06-21.954c-2.434-13.166-9.684-24.822-20.418-32.825l-19.43-14.486c-6.642-4.951-8.012-14.349-3.06-20.991 4.952-6.641 14.349-8.01 20.991-3.059l19.43 14.486c16.814 12.536 28.174 30.798 31.986 51.421l4.06 21.953c1.506 8.146-3.877 15.971-12.022 17.477-8.166 1.505-15.973-3.89-17.477-12.022z" fill="#dc0c3e"/></g><g><path d="m355.5 512c-8.284 0-15-6.716-15-15v-21.65c0-22.679-12.005-33.61-24.735-48.208-5.444-6.244-4.797-15.719 1.447-21.163 6.244-5.443 15.72-4.797 21.164 1.447 12.44 14.266 32.124 32.786 32.124 67.925v21.649c0 8.284-6.716 15-15 15z" fill="#dc0c3e"/></g><g><path d="m392.385 271.301c-6.011-5.702-6.261-15.196-.56-21.205l43.78-46.149c9.33-9.834 9.328-25.244-.002-35.085l-17.767-18.726c-5.702-6.01-5.452-15.503.558-21.205 6.011-5.701 15.505-5.451 21.206.558l17.77 18.73c20.311 21.422 20.31 54.968 0 76.375l-43.779 46.148c-5.699 6.006-15.192 6.263-21.206.559z" fill="#dc0c3e"/></g></g><g><g><path d="m7.476 387.289c-7.166-4.156-9.605-13.336-5.448-20.5l15.657-26.989c14.789-25.491 42.282-41.326 71.751-41.326h5.91c8.284 0 15 6.716 15 15s-6.716 15-15 15h-5.91c-18.811 0-36.362 10.108-45.802 26.38l-15.657 26.988c-4.156 7.164-13.335 9.606-20.501 5.447z" fill="#fe4566"/></g><g><path d="m68.859 471.315c-8.145-1.506-13.528-9.331-12.022-17.477l4.06-21.954c3.812-20.622 15.172-38.884 31.986-51.42l19.43-14.486c6.641-4.951 16.039-3.582 20.991 3.059s3.582 16.039-3.06 20.991l-19.43 14.486c-10.733 8.003-17.984 19.66-20.418 32.824l-4.06 21.955c-1.509 8.162-9.352 13.528-17.477 12.022z" fill="#fe4566"/></g><g><path d="m156.5 512c-8.284 0-15-6.716-15-15v-21.65c0-35.15 19.735-53.715 32.124-67.925 5.446-6.244 14.921-6.889 21.164-1.447 6.244 5.444 6.892 14.919 1.447 21.163-12.597 14.446-24.735 25.43-24.735 48.208v21.651c0 8.284-6.716 15-15 15z" fill="#fe4566"/></g><g><path d="m98.409 270.741-43.78-46.149c-20.309-21.407-20.31-54.952-.002-76.371l17.773-18.733c5.701-6.009 15.195-6.261 21.206-.558 6.01 5.702 6.26 15.196.558 21.205l-17.77 18.73c-9.327 9.837-9.329 25.247 0 35.08l43.781 46.15c5.701 6.01 5.451 15.503-.56 21.205-6.012 5.703-15.507 5.451-21.206-.559z" fill="#fe4566"/></g></g><g><path d="m392.539 397.821c-24.84 23.74-58.576 38.169-95.449 38.169h-82.18c-23.24 0-46.29-5.91-66.659-17.099-77.036-42.39-88.865-135.525-33.55-189.294 15.6-15.169 36.16-23.519 57.91-23.519h166.779c80.365 0 131.539 117.389 53.149 191.743z" fill="#ff7b94"/></g><path d="m379.589 408.733c-24.04 17.829-52.57 27.259-82.499 27.259h-41.09v-229.912h83.389c85.21 0 136.289 131.291 40.2 202.653z" fill="#fe4566"/><g><path d="m220.85 99.054c-6.12 43.628-43.397 75.758-87.449 75.758-77.064 0-116.808-92.745-63.72-148.675 12.71-13.4 28.99-22.339 47.09-25.849 11.949-2.32 21.553 9.867 16.5 20.949-18.845 41.405 25.544 83.388 65.799 62.428 10.786-5.632 23.494 3.326 21.78 15.389z" fill="#ff7b94"/></g><g><path d="m378.609 174.811c-23.69.01-47.13-9.47-64.129-27.399-12.7-13.39-20.77-30.109-23.33-48.358-1.712-12.046 10.979-21.028 21.78-15.39 40.345 21.007 84.601-21.119 65.799-62.428-5.04-11.054 4.507-23.256 16.5-20.949 18.1 3.51 34.38 12.45 47.09 25.839 12.51 13.19 20.54 29.629 23.22 47.548 7.983 53.301-33.283 101.137-86.93 101.137z" fill="#fe4566"/></g><path d="m392.539 397.821c-24.84 23.74-58.576 38.169-95.449 38.169h-82.18c-35.517 0-69.808-13.716-95.449-38.159 13.694-14.288 4.705-4.91 37.41-39.029l24.73-25.789c16.43-17.139 39.48-26.979 63.24-26.979h22.32c23.76 0 46.81 9.84 63.24 26.979 56.195 58.604 35.916 37.472 62.138 64.808z" fill="#ffa1b2"/><path d="m392.539 397.821c-24.84 23.74-58.576 38.169-95.449 38.169h-41.09v-129.956c11.821 0 45.973-2.674 74.399 26.979 56.197 58.604 35.918 37.472 62.14 64.808z" fill="#ff7b94"/></g></svg>