<svg id="Capa_1" enable-background="new 0 0 512 512" height="512" viewBox="0 0 512 512" width="512" xmlns="http://www.w3.org/2000/svg"><g><path d="m354.73 463.542c-60.669 33.147-133.92 34.007-195.92.83-7.3-3.91-10.05-13-6.14-20.3l20.41-34.391 82.92-11.23 73.39 10.74 26.4 28.661c1.99 1.31 3.69 3.1 4.91 5.33 3.98 7.28 1.3 16.39-5.97 20.36z" fill="#70dd59"/><path d="m360.7 443.182c3.98 7.28 1.3 16.391-5.97 20.361-30.445 16.634-64.312 25.291-98.73 25.291v-90.383l73.39 10.74 26.4 28.661c1.99 1.31 3.69 3.1 4.91 5.33z" fill="#2bb65e"/><path d="m189.679 395.682c-13.94-5.868-45.324-22.076-86.771-7.201-.002.001-13.127 4.711-13.128 4.712-7.443 3.637-10.528 12.619-6.891 20.063l44.146 90.343c5.428 11.108 21.269 11.23 26.859.189l44.147-87.208c4.022-7.939.308-17.808-8.362-20.898z" fill="#f2e4e4"/><path d="m322.321 395.682c13.94-5.868 45.324-22.076 86.771-7.201l10.075 3.616c1.034.252 2.058.609 3.053 1.096 7.443 3.637 10.528 12.619 6.891 20.063l-44.146 90.343c-5.428 11.108-21.269 11.23-26.859.189l-44.147-87.208c-4.021-7.939-.308-17.808 8.362-20.898z" fill="#d8c5c5"/><path d="m483.25 102.053c0 33.541-16.5 64.962-44.15 84.042-2.739 1.893-1.603-1.236-10.94 62.222-.79 5.39-4.44 9.92-9.53 11.85-8.153 3.082-13.647-1.754-15.44-2.95-26.35-22.541-64.31-26.171-94.45-9.05-29.779 16.929-36.535 22.611-52.74 22.611-16.113.019-22.807-5.594-52.74-22.611-28.949-16.438-66.812-14.574-95.07 9.58-8.969 7.633-22.914 2.403-24.58-9.3-9.083-63.583-7.948-60.458-10.73-62.372-27.63-19.061-44.13-50.482-44.13-84.022 0-56.272 45.78-102.053 102.06-102.053 45.931 0 69.209 28.331 75.81 32.391 29.935-19.735 68.821-19.738 98.76 0 6.606-4.063 29.832-32.391 75.81-32.391 56.28 0 102.06 45.781 102.06 102.053z" fill="#70dd59"/><path d="m483.25 102.053c0 33.541-16.5 64.962-44.15 84.042-2.739 1.893-1.603-1.236-10.94 62.222-.79 5.39-4.44 9.92-9.53 11.85-8.153 3.082-13.647-1.754-15.44-2.95-26.35-22.541-64.31-26.171-94.45-9.05-29.779 16.929-36.535 22.611-52.74 22.611v-253.188c17.96 0 35.03 5.34 49.38 14.801 6.606-4.063 29.832-32.391 75.81-32.391 56.28 0 102.06 45.781 102.06 102.053z" fill="#2bb65e"/><g><path d="m480.33 344.159-19.8 37.241c-19.36 36.428-59.661 55.995-99.99 49.111-123.251-21.05-88.52-20.593-209.08 0-40.228 6.879-80.584-12.596-99.99-49.111l-19.8-37.241c-12.883-24.2-7.253-54.261 13.67-72.142l44.01-37.631c35.88-30.691 87.63-35.651 128.73-12.3l28.62 16.27c5.753 3.267 12.848 3.267 18.6 0l28.62-16.27c39.548-22.461 91.094-19.673 129.04 12.56.06.045 43.643 37.322 43.7 37.371 10.11 8.64 17.04 20.6 19.52 33.671 2.47 13.071.4 26.731-5.85 38.471z" fill="#2bb65e"/></g><path d="m480.33 344.159-19.8 37.241c-19.36 36.428-59.661 55.995-99.99 49.111-85.952-14.679-87.928-15.661-104.54-15.661v-174.044c6.535 0 7.08-1.188 37.92-18.72 39.548-22.461 91.094-19.673 129.04 12.56.04.03.08.06.11.09l43.59 37.281c20.927 17.884 26.551 47.946 13.67 72.142z" fill="#008f61"/><g><circle cx="127.598" cy="97.446" fill="#525e63" r="15"/></g><g><circle cx="384.402" cy="97.446" fill="#414c51" r="15"/></g><g><path d="m188.853 308.656c-3.384 0-6.786-1.139-9.589-3.472-12.066-10.046-29.243-10.454-41.771-.996l-1.558 1.177c-6.609 4.993-16.016 3.681-21.01-2.932-4.992-6.611-3.68-16.017 2.932-21.01l1.56-1.178c23.708-17.899 56.211-17.124 79.042 1.882 10.784 8.98 4.352 26.529-9.606 26.529z" fill="#525e63"/></g><g><path d="m311.611 303.252c-5.3-6.366-4.436-15.825 1.931-21.126 21.768-18.121 53.705-21.007 80.602-.704 6.611 4.993 7.924 14.4 2.932 21.01-4.992 6.611-14.399 7.924-21.01 2.932l-1.56-1.178c-12.526-9.457-29.703-9.049-41.77.997-6.361 5.296-15.82 4.442-21.125-1.931z" fill="#414c51"/></g><g><path d="m319.87 151.774c-2.982 7.821-11.722 11.577-19.36 8.67l-26.47-10.1c-11.766-4.487-24.563-4.393-36.08 0l-26.47 10.1c-7.74 2.95-16.41-.93-19.36-8.67s.93-16.411 8.67-19.361c25.654-9.789 50.086-23.006 83.94-10.1l26.46 10.1c7.74 2.95 11.62 11.621 8.67 19.361z" fill="#2bb65e"/></g><g><path d="m293.4 198.295c-2.944 7.723-11.586 11.629-19.36 8.67-11.21-4.284-23.992-4.577-35.94-.05-7.15 2.82-15.4-.25-18.9-7.26-3.845-7.68-.543-17.351 8.07-20.721 18.945-7.214 39.323-6.918 57.47 0 7.74 2.951 11.62 11.621 8.66 19.361z" fill="#2bb65e"/></g><g fill="#008f61"><path d="m256 203.635v-30.001c9.74 0 19.48 1.77 28.74 5.3 15.568 5.934 11.105 29.021-5.35 29.021-6.008.001-9.964-4.32-23.39-4.32z"/><path d="m256 147.014v-30.001c18.236 0 27.79 4.938 55.2 15.4 7.74 2.95 11.62 11.62 8.67 19.361-2.982 7.821-11.722 11.577-19.36 8.67-28.091-10.719-32.782-13.43-44.51-13.43z"/></g></g></svg>