<svg id="Capa_1" enable-background="new 0 0 512 512" height="512" viewBox="0 0 512 512" width="512" xmlns="http://www.w3.org/2000/svg"><g><path d="m171.837 130.319c-2.589-6.467-7.323-19.854-9.957-36.868-.005-.03-.009-.06-.013-.09-4.075-26.434-1.652-50.899 7.203-72.716 3.115-7.676-.582-16.424-8.258-19.54s-16.424.582-19.54 8.258c-8.107 19.975-11.865 41.546-11.258 64.369l-25.744-9.158c-13.685-5.145-25.307-14.894-32.736-27.463l-17.58-29.74c-4.216-7.132-13.415-9.496-20.545-5.28-7.132 4.215-9.496 13.414-5.28 20.545l17.579 29.739c10.924 18.483 28.027 32.809 48.158 40.338.076.028.151.056.227.083l39.729 14.133c3.167 15.729 7.57 28.063 10.162 34.539 2.347 5.864 7.978 9.43 13.931 9.43 10.574-.001 17.869-10.717 13.922-20.579z" fill="#9a4916"/><path d="m478.668 2.092c-7.13-4.217-16.33-1.852-20.545 5.28l-17.58 29.74c-7.429 12.568-19.05 22.317-32.735 27.463l-25.744 9.158c.606-22.823-3.151-44.395-11.258-64.369-3.116-7.677-11.865-11.373-19.54-8.258-7.676 3.116-11.373 11.864-8.258 19.54 8.855 21.817 11.278 46.282 7.203 72.715-.005.031-.009.062-.014.093-2.634 17.014-7.368 30.4-9.957 36.866-3.079 7.691.66 16.421 8.352 19.5s16.421-.662 19.5-8.351c2.592-6.476 6.995-18.809 10.162-34.539l39.729-14.133c.076-.027.151-.055.227-.083 20.131-7.529 37.234-21.854 48.158-40.337l17.58-29.74c4.215-7.132 1.852-16.33-5.28-20.545z" fill="#6e310b"/><path d="m511.438 149.633c-.59 2.1-14.99 51.75-55.929 68.81-17.119 7.139-37.831 7.514-56.109 4.22-5.87-1.05-10.56-5.48-11.94-11.28-3.038-12.738-7.965-24.464-14.75-34.97-3.22-4.98-3.2-11.4.06-16.37 10.79-16.46 24.63-28.56 40.02-34.98 17.34-7.23 37.97-8.19 61.339-2.88 16.74 3.81 28.89 9.63 29.39 9.87 6.549 3.17 9.889 10.57 7.919 17.58z" fill="#d66823"/><path d="m139.561 177.053c-9.288 14.12-13.916 32.486-15.06 35.73-1.78 5.09-6.15 8.83-11.46 9.8-18.294 3.368-39.156 3.108-56.559-4.15-40.93-17.05-55.33-66.699-55.92-68.799-1.97-7.01 1.37-14.41 7.92-17.58.5-.24 12.65-6.06 29.39-9.87 23.37-5.31 44-4.35 61.329 2.87 15.57 6.5 29.54 18.8 40.43 35.58 3.24 4.999 3.21 11.439-.07 16.419z" fill="#f09b00"/><path d="m368.159 370.941c-22.803 31.738-21.644 32.691-23.58 45.6-2.7 17.99-6.06 40.38-17.8 59.29-12.2 19.66-30.91 31.39-55.739 35-4.68.68-15.01-8.1-15.01-8.1s-10.3 8.78-14.99 8.09c-24.82-3.6-43.52-15.34-55.72-35-11.74-18.91-15.1-41.3-17.8-59.29-1.932-12.834-.686-13.698-23.64-45.38-33.588-46.373-66.061-96.129-48.08-166.989 0 0 5.231-19.57 13.87-35.51.03-.04.05-.08.07-.11 28.45-51.42 87.964-79.464 146.259-79.529 54.914-.062 111.991 24.871 141.909 71.11 8.922 13.832 15.017 28.756 18.73 44.299 16.634 68.333-12.893 116.972-48.479 166.519z" fill="#ffd18b"/><path d="m368.159 370.941c-22.803 31.738-21.644 32.691-23.58 45.6-2.7 17.99-6.06 40.38-17.8 59.29-12.2 19.66-30.91 31.39-55.739 35-4.68.68-15.01-8.1-15.01-8.1l-.03-413.718c54.914-.062 111.991 24.871 141.909 71.11 8.922 13.832 15.017 28.756 18.73 44.299 16.633 68.333-12.894 116.972-48.48 166.519z" fill="#ffb22a"/><path d="m271.03 398.671v112.159c-4.68.68-9.58 1.07-14.7 1.17h-.58c-5.12-.1-10.03-.49-14.72-1.18v-112.149z" fill="#d66823"/><circle cx="179.066" cy="255.856" fill="#525e63" r="15"/><circle cx="332.934" cy="255.856" fill="#414c51" r="15"/><path d="m271.03 398.671v112.159c-4.68.68-9.58 1.07-14.7 1.17h-.33v-113.329z" fill="#9a4916"/><g><path d="m300.06 373.681c-5.022 15.161-20.565 35.03-44.02 35.03h-.04c-25.105-.023-40.115-22.401-44.28-35.99-3.72-12.11 1.13-25.49 11.77-32.54 9.66-6.4 20.89-9.78 32.51-9.79h.04c11.33 0 22.34 3.22 31.85 9.33 11.36 7.3 16.37 21.26 12.17 33.96z" fill="#9a4916"/></g><path d="m300.06 373.681c-5.022 15.161-20.565 35.03-44.02 35.03h-.04v-78.319h.04c11.33 0 22.34 3.22 31.85 9.33 11.36 7.299 16.37 21.259 12.17 33.959z" fill="#6e310b"/></g></svg>