<svg id="Capa_1" enable-background="new 0 0 512 512" height="512" viewBox="0 0 512 512" width="512" xmlns="http://www.w3.org/2000/svg"><g><g><path d="m315.75 420.43v31.82c0 32.95-26.8 59.75-59.75 59.75s-59.75-26.8-59.75-59.75v-31.83c0-8.282 6.713-15 15-15 55.018.012 34.607.01 89.5.01 8.29 0 15 6.72 15 15z" fill="#ffa1b2"/></g><path d="m315.75 420.43v31.82c0 32.95-26.8 59.75-59.75 59.75v-106.57h44.75c8.29 0 15 6.72 15 15z" fill="#ff7b94"/><g><path d="m207.53 100.518c-7.24 2.69-14.3 6.08-20.98 10.09-10.62 6.37-20.23 14.26-28.54 23.45-18.571 20.526-31.787 47.337-35.16 79.18-1.524 14.972-21.888 18.582-28.44 4.96-11.39-23.7-17.66-54.37-17.66-86.35 0-70.54 62.42-125.83 65.08-128.15 5.65-4.93 14.07-4.93 19.72 0 1.49 1.3 36.7 32.35 54.69 77.17 3.154 7.854-.844 16.752-8.71 19.65z" fill="#5a7983"/></g><g><path d="m435.25 131.848c0 31.98-6.27 62.65-17.66 86.35-6.569 13.658-26.899 10.057-28.45-4.96-1.235-12.131-4-24.126-8.57-35.99-6.15-15.96-15.09-30.49-26.57-43.18-8.32-9.2-17.92-17.09-28.55-23.46-6.68-4.01-13.74-7.4-20.98-10.09-7.812-2.878-11.874-11.718-8.71-19.65 17.99-44.82 53.2-75.87 54.69-77.17 5.65-4.93 14.07-4.93 19.72 0 2.66 2.32 65.08 57.609 65.08 128.15z" fill="#525e63"/></g><g><path d="m408.39 218.889s-12.09 116.2-24.8 138.82c-8.841 15.763-15.394 24.436-30.55 45.85-47.517 67.105-146.947 66.615-194.08 0-15.307-21.629-21.716-30.098-30.54-45.85-9.39-16.74-24.8-138.82-24.8-138.82s53.01-133.23 65.31-140.88c.73-.45 1.46-.9 2.2-1.34 24.056-14.434 51.717-22.22 80.18-22.22 14.131 0 47.485-1.441 85.64 19.96 2.06 1.16 4.1 2.36 6.11 3.61 12.19 7.59 65.33 140.87 65.33 140.87z" fill="#f2e4e4"/></g><path d="m408.39 218.889s-12.09 116.2-24.8 138.82c-8.841 15.763-15.394 24.436-30.55 45.85-23.038 32.535-59.792 50.21-97.04 50.21v-399.32c28.39 0 53.971 4.827 80.95 19.96 2.06 1.16 4.1 2.36 6.11 3.61 12.19 7.59 65.33 140.87 65.33 140.87z" fill="#d8c5c5"/><g><path d="m279.87 201.389c0 4.19.19 8.45.57 12.65 2.99 32.84 17.59 63.65 41.11 86.75.12.12.24.24.37.35l61.66 56.57c23.974-42.741 36.26-90.648 36.26-138.82 0-58.388-30.41-112.046-76.77-140.88l-25.06 27.6c-24.6 25.99-38.14 60-38.14 95.78z" fill="#5a7983"/></g><g><circle cx="340.907" cy="219.894" fill="#414c51" r="15"/></g><g><path d="m232.13 201.389c0 4.19-.19 8.45-.57 12.65-2.99 32.84-17.59 63.65-41.11 86.75-.12.12-.24.24-.37.35l-61.66 56.57c-9.39-16.74-17.07-34.41-22.91-52.79-2.05-6.47-3.88-13.03-5.44-19.51-16.045-66.44-9.775-129.428 35.69-179.68 9.72-10.75 20.87-20.07 33.17-27.72l25.06 27.6c24.6 25.99 38.14 60 38.14 95.78z" fill="#81a1b1"/></g><g><circle cx="171.193" cy="219.894" fill="#525e63" r="15"/></g><g><path d="m308.83 348.999c-4.972 15.026-19.325 34.072-37.83 40v63.81c-10.014 1.29-20.193 1.271-30 0v-63.84c-7.29-2.34-13.96-6.4-19.52-11.97-9.24-9.27-15.49-19.07-18.58-29.14-4.23-13.82 1.3-29.1 13.46-37.15 11.78-7.8 25.48-11.93 39.64-11.94h.05c13.82 0 27.24 3.94 38.83 11.38 13.02 8.36 18.76 24.34 13.95 38.85z" fill="#525e63"/></g><path d="m308.83 348.999c-4.972 15.026-19.325 34.072-37.83 40v63.81c-4.97.64-9.98.96-15 .96v-155h.05c13.82 0 27.24 3.94 38.83 11.38 13.02 8.36 18.76 24.34 13.95 38.85z" fill="#414c51"/></g></svg>