<svg id="Capa_1" enable-background="new 0 0 512 512" height="512" viewBox="0 0 512 512" width="512" xmlns="http://www.w3.org/2000/svg"><g><g><path d="m367.749 328.332c-24.842-4.272-45.801-20.561-56.067-43.572-3.375-7.565.022-16.435 7.588-19.81 7.57-3.376 16.435.023 19.81 7.588 6.18 13.851 18.797 23.655 33.753 26.227 8.165 1.404 13.646 9.161 12.242 17.325-1.404 8.166-9.164 13.645-17.326 12.242z" fill="#d8c5c5"/></g><g><path d="m127.483 315.66c-1.403-8.165 4.077-15.921 12.242-17.325 14.916-2.564 27.501-12.343 33.665-26.159 3.375-7.564 12.244-10.964 19.81-7.586 7.566 3.375 10.963 12.245 7.587 19.81-10.25 22.975-31.177 39.237-55.978 43.501-8.18 1.404-15.924-4.088-17.326-12.241z" fill="#f2e4e4"/></g><g><path d="m431.046 248.808c-31.081 19.902-70.919 21.942-106.363-2-3.44-2.33-5.76-5.98-6.41-10.08l-31.141-196.06c-1.01-6.38 2.17-12.69 7.9-15.66 16.1-8.36 58.552-24.63 105.173 4.7 16.651 10.48 47.791 40.23 101.633 122.46 26.46 40.412.689 103.853-70.792 96.64z" fill="#5a7983"/></g><g><path d="m224.89 40.668-31.141 196.06c-.65 4.1-2.97 7.75-6.41 10.08-35.153 23.745-74.976 22.098-106.363 2-41.384 4.151-69.601-15.3-78.362-44.71-5.26-17.62-2.5-36.55 7.57-51.93 53.842-82.23 84.982-111.98 101.633-122.46 46.621-29.33 89.073-13.06 105.173-4.7 5.73 2.97 8.91 9.28 7.9 15.66z" fill="#81a1b1"/></g><g><path d="m363.984 216.578-6.41 6.61c-13.931 14.334-13.254 30.645-13.6 33.17-2.714 19.99-4.835 52.802-33.811 69.3l-4.75 41.17c-.1 1.27-.21 2.92-.23 3.54-1.413 71.063-58.832 128.318-129.334 128.72h-.77c-34.571 0-67.112-13.44-91.703-37.89-24.781-24.63-38.421-57.38-38.421-92.23v-5.42c0-19.213 20.739-31.306 37.471-21.8l12.78 7.26 12.11-7.01c16.776-9.69 37.641 2.435 37.641 21.71 0 4.612-.989 16.525 9.4 26.74 12.329 12.116 30.961 11.051 42.191-.38 3.31-3.36 7.52-9.49 5.92-23.9-.02-.23-.04-.46-.06-.69l-2.64-41.32c-23.011-14.73-27.391-41.41-28.941-50.83-2.99-18.203-2.87-17.183-2.91-18.49-.691-20.557-12.778-30.937-19.9-38.28-32.939-33.906-40.593-87.453-13.45-127.94l25.591-38.16c13.67-20.41 38.111-30.65 62.252-26.09 36.457 6.911 30.605 6.946 67.192 0 24.151-4.56 48.591 5.68 62.262 26.09l25.591 38.17c5.36 7.99 9.49 16.7 12.27 25.88 10.196 33.512 1.994 73.561-25.741 102.07z" fill="#add3d8"/></g><path d="m363.984 216.578-6.41 6.61c-13.931 14.334-13.254 30.645-13.6 33.17-2.714 19.99-4.835 52.802-33.811 69.3l-4.75 41.17c-.1 1.27-.21 2.92-.23 3.54-.8 40.239-19.543 75.968-48.301 99.45v-440.34c7.886-.096 11.051-.996 32.721-5.11 24.151-4.56 48.591 5.68 62.262 26.09 26.659 39.763 32.536 46.467 37.861 64.05 10.195 33.512 1.993 73.561-25.742 102.07z" fill="#81a1b1"/><g><circle cx="195.07" cy="148.584" fill="#525e63" r="15"/></g><g><circle cx="314.491" cy="148.584" fill="#414c51" r="15"/></g></g></svg>