<svg id="Capa_1" enable-background="new 0 0 512 512" height="512" viewBox="0 0 512 512" width="512" xmlns="http://www.w3.org/2000/svg"><g><g><path d="m492.173 155.18-89.949-30.49c-5.69-1.94-9.69-7.09-10.14-13.09s2.73-11.69 8.08-14.45c14.711-7.599 22.065-23.011 19.01-38.22-1.13-5.56.98-11.28 5.45-14.78 4.46-3.5 10.52-4.18 15.65-1.76 60.519 28.56 71.129 93.56 71.549 96.31 1.688 11.071-8.941 20.072-19.65 16.48z" fill="#525e63"/></g><path d="m320.068 92.009c10.462 23.218 34.339 39.491 62.066 39.491 37.046 0 67.719-29.015 67.719-65.75 0-36.643-30.755-65.75-67.719-65.75-34.244 0-62.615 24.817-67.087 56.891l-.662.399c-16.79 10.1-27.73 27.06-30.02 46.52-2.3 19.46 4.4 38.5 18.38 52.23l54.549 53.6c6.25 6.15 9.84 14.7 9.84 23.47 0 17.3-13.42 31.53-30.4 32.8-1.58.133-14.155 14.868-14.155 14.868l14.075 15.182h.1c33.52-1.33 60.379-29.01 60.379-62.85 0-16.77-6.86-33.12-18.82-44.87l-54.539-53.59c-7.32-7.19-10.82-17.15-9.62-27.32.666-5.639 2.723-10.872 5.914-15.321z" fill="#ff7b94"/><g><path d="m280.846 364.47h-67.349v-83.46c0-13.764-17.046-20.181-26.16-10.03l-88.469 98.47c-8.644 9.604-1.818 25.02 11.16 25.02h73.469v102.53c0 8.28 6.71 15 15 15h47.709c8.29 0 15-6.72 15-15s-6.71-15-15-15h-32.71v-87.53h52.349v23.26c0 8.28 6.71 15 15 15 8.28 0 15-6.72 15-15v-38.26c.001-8.28-6.719-15-14.999-15zm-97.349 0h-39.829l39.829-44.32z" fill="#525e63"/></g><path d="m295.846 379.47v38.26c0 8.28-6.72 15-15 15-8.29 0-15-6.72-15-15v-23.26h-52.349v87.53h32.71c8.29 0 15 6.72 15 15s-6.71 15-15 15h-47.709v-245.99c8.243 0 15 6.673 15 15v83.46h67.349c8.279 0 14.999 6.72 14.999 15z" fill="#414c51"/><path d="m105.808 217.25c-10.63 19.01-20.195 59.805-20.195 59.805l-25.396 18.955c-33.924 0-60.217-32.234-60.217-66.86v-19.22c0-8.28 6.72-15 15-15h77.709c11.413 0 18.679 12.303 13.099 22.32z" fill="#ffa1b2"/><path d="m218.958 288.397s-13.379 7.611-20.461 7.613h-138.258c-2.96-32.98 3.91-65.71 19.37-93.4 24.88-44.55 69.729-72.58 118.878-72.58h.02c48.215 14.725 60.535 24.815 85.414 69.365 10.73 19.22 14.016 44.155 16.046 66.615.91 9.9-81.009 22.387-81.009 22.387z" fill="#ffc5ce"/><path d="m336.755 295.96h-.1l-15.32.01-122.838.04v-165.98h.01c49.149 0 93.999 28.03 118.878 72.58 10.73 19.22 17.32 40.84 19.35 63.3.91 9.9.93 19.96.02 30.05z" fill="#ffa1b2"/><circle cx="397.644" cy="50.716" fill="#414c51" r="15"/></g></svg>