<svg id="Capa_1" enable-background="new 0 0 512 512" height="512" viewBox="0 0 512 512" width="512" xmlns="http://www.w3.org/2000/svg"><g><g><path d="m194.859 123.63c-40.919 15.375-81.332 49.833-106.081 98.22-5.975 11.691-23.013 10.575-27.455-1.72-17.173-47.34-41.087-137.75-8.341-211.23 2.931-6.58 10.122-10.15 17.133-8.5 3.611.84 89.007 21.69 132.646 102.03 4.314 7.978.644 17.981-7.902 21.2z" fill="#f09b00"/></g><g><path d="m450.679 220.13c-4.433 12.27-21.479 13.437-27.455 1.72-24.436-47.777-64.451-82.523-106.081-98.22-8.535-3.216-12.218-13.217-7.901-21.2 43.638-80.34 129.035-101.18 132.645-102.03 7.011-1.65 14.203 1.92 17.133 8.5 28.467 63.878 15.465 145.617-8.341 211.23z" fill="#d66823"/></g><g><path d="m500.605 351.023-33.763 34.567c-2.731 2.36-6.221 3.66-9.822 3.66h-402.138c-3.601 0-7.091-1.3-9.822-3.66l-35.684-34.603c-6.498-5.619-11.171-15.532-5.244-21.687 17.263-17.97 30.086-41.55 38.107-70.1 23.12-82.085 79.038-139.903 142.048-163.65 23.265-8.76 47.569-13.07 71.724-13.07 103.532 0 185.703 77.258 213.651 176.72 8.022 28.55 20.844 52.13 38.107 70.1 5.902 6.128-.631 16.073-7.164 21.723z" fill="#ffd18b"/></g><path d="m500.605 351.023-33.763 34.567c-2.731 2.36-6.221 3.66-9.822 3.66h-201.009v-306.77c103.532 0 185.703 77.258 213.651 176.72 8.022 28.55 20.844 52.13 38.107 70.1 5.902 6.128-.631 16.073-7.164 21.723z" fill="#ffb22a"/><g><circle cx="352.607" cy="271" fill="#414c51" r="15"/></g><g><circle cx="159.395" cy="271" fill="#525e63" r="15"/></g><g><path d="m506.82 351.03-28.826 24.95 16.813 20.29c4.931 5.95 4.531 14.67-.92 20.15-.97.98-24.355 24.27-65.273 47.68-108.654 62.177-231.815 64.89-345.217 0-40.918-23.41-64.302-46.7-65.273-47.68-5.451-5.48-5.851-14.2-.92-20.15l16.813-20.29-28.834-24.95c-9.657-8.366-5.069-24.249 7.571-26.17 5.211-.8 124.974-18.17 212.291 33.8 0 0 12.658 7.886 30.966 19.2 21.727-13.385 31.006-19.18 31.006-19.18 86.577-51.46 206.91-34.62 212.131-33.85 12.644 1.847 17.391 17.789 7.672 26.2z" fill="#fff5f5"/></g><path d="m506.82 351.03-28.826 24.95 16.813 20.29c4.931 5.95 4.531 14.67-.92 20.15-.97.98-24.355 24.27-65.273 47.68-56.695 32.444-117.981 47.9-172.603 47.9v-134.14c21.727-13.385 31.006-19.18 31.006-19.18 86.577-51.46 206.91-34.62 212.131-33.85 12.644 1.847 17.391 17.789 7.672 26.2z" fill="#f2e4e4"/><g><path d="m308.781 401.9c-4.847 14.675-19.059 34.037-37.827 40v69.66c-10.845.578-19.117.58-30.006-.02v-69.67c-7.291-2.35-13.963-6.4-19.514-11.97-9.242-9.27-15.493-19.07-18.584-29.14-4.231-13.82 1.3-29.1 13.463-37.15 24.13-15.968 55.135-15.687 78.525-.56 13.013 8.36 18.754 24.33 13.943 38.85z" fill="#d66823"/></g><path d="m308.781 401.9c-4.847 14.675-19.059 34.037-37.827 40v69.66c-5.572.297-11.471.44-14.943.44v-160.33c14.241 0 27.712 4.191 38.828 11.38 13.012 8.36 18.753 24.33 13.942 38.85z" fill="#9a4916"/></g></svg>