<svg id="Capa_1" enable-background="new 0 0 512 512" height="512" viewBox="0 0 512 512" width="512" xmlns="http://www.w3.org/2000/svg"><g><g><path d="m233.611 496.848c0 8.287-6.72 14.995-15 14.995h-166.36c-33.827 0-47.473-43.611-19.64-62.87 7.44-5.148 16.03-9.747 25.56-13.676-35.73-50.294-41.95-91.381-17.48-115.854 23.21-23.223 47.8-22.813 64.34-18.384 16.42 4.389 27.84 13.556 29.96 15.345 2.88 2.439 4.74 5.878 5.21 9.617 3.94 31.92 12.86 79.745 33.02 126.28 7.77 17.954 25.59 29.551 45.39 29.551 8.28.001 15 6.719 15 14.996z" fill="#2bb65e"/></g><g><path d="m459.751 511.844h-166.36c-8.28 0-15-6.708-15-14.995 0-8.277 6.72-14.995 15-14.995 19.88 0 37.69-11.576 45.37-29.501 15.96-36.698 27.37-80.355 33.04-126.33.46-3.739 2.32-7.178 5.21-9.617 17.11-14.455 58.84-32.43 94.3 3.039 24.47 24.472 18.24 65.569-17.48 115.854 9.54 3.939 18.12 8.527 25.56 13.676 27.816 19.246 14.209 62.869-19.64 62.869z" fill="#008f61"/></g><g><path d="m366.331 464.189c-12.802 29.723-42.196 47.655-72.94 47.655h-74.78c-32.184 0-60.652-19.279-72.93-47.625-21.57-49.814-31.08-100.648-35.26-134.518-3.13-25.472-3.97-47.695-4.19-58.682-.239-12.232 13.558-19.611 23.6-12.586 33.48 23.403 78.29 36.299 126.17 36.299h.01c47.75 0 92.45-12.836 125.9-36.139 9.913-6.874 23.45.147 23.58 12.156.617 61.45-15.627 139.972-39.16 193.44z" fill="#70dd59"/></g><path d="m358.281 478.544c-15.487 21.747-40.354 33.3-64.89 33.3h-37.38v-217.112c47.75 0 92.45-12.836 125.9-36.139 9.913-6.874 23.45.147 23.58 12.156.837 83.384-28.968 182.067-47.21 207.795z" fill="#2bb65e"/><g><path d="m322.801 422.501v83.724c-18.465 7.246-23.867 5.618-104.19 5.618-10.387 0-20.393-2.022-29.41-5.618v-83.724c0-36.818 29.97-66.779 66.8-66.779h.01c36.83.01 66.79 29.961 66.79 66.779z" fill="#f2e4e4"/></g><path d="m322.801 422.501v83.724c-17.599 6.907-26.648 5.618-66.79 5.618v-156.12c36.83.009 66.79 29.96 66.79 66.778z" fill="#d8c5c5"/><path d="m469.238 105.452c-19.36 43.426.11 65.529-12.94 105.117-1.63 4.949-123.04 97.13-200.29 97.13h-.01c-87.75 0-198.96-93.141-200.62-98.459-12.41-39.638 6.62-60.751-12.59-103.717-22.07-49.426 14.41-104.478 67.02-105.508 21-.42 41.33 8.077 55.8 23.273 8.94 9.377 22.66 13.596 35.81 11.016 17.7-3.479 36.07-5.238 54.58-5.238h.01c18.51 0 36.87 1.759 54.57 5.238 13.15 2.579 26.86-1.629 35.78-11.006 14.51-15.225 34.88-23.683 55.91-23.283 40.45.84 73.39 34.439 73.43 74.896.01 10.617-2.16 20.894-6.46 30.541z" fill="#70dd59"/><path d="m469.238 105.452c-19.36 43.426.11 65.529-12.94 105.117-1.63 4.949-123.04 97.13-200.29 97.13v-278.633c18.51 0 36.87 1.759 54.57 5.238 13.15 2.579 26.86-1.629 35.78-11.006 14.51-15.225 34.88-23.683 55.91-23.283 40.45.84 73.39 34.439 73.43 74.896.01 10.617-2.16 20.894-6.46 30.541z" fill="#2bb65e"/><g><ellipse cx="115.731" cy="79.609" fill="#525e63" rx="15" ry="14.995"/></g><g><ellipse cx="396.271" cy="79.609" fill="#414c51" rx="15" ry="14.995"/></g><g><path d="m456.301 210.568c-1.63 4.948-3.77 10.157-6.55 15.725-31.93 65.43-116.49 98.429-193.74 98.429h-.17c-87.68-.05-164.87-39.578-193.6-98.429-2.97-6.088-5.2-11.736-6.86-17.055 40.86-8.527 94.66-23.453 115.16-32.43 27.11-11.876 56.2-17.814 85.3-17.834 29.21-.02 58.43 5.918 85.63 17.834 19.12 8.378 72.77 24.193 114.83 33.76z" fill="#2bb65e"/></g><path d="m456.301 210.568c-1.63 4.948-3.77 10.157-6.55 15.725-31.93 65.43-116.49 98.429-193.74 98.429h-.17v-165.748c29.21-.02 58.43 5.918 85.63 17.834 19.12 8.378 72.77 24.193 114.83 33.76z" fill="#008f61"/></g></svg>