<svg id="Capa_1" enable-background="new 0 0 512 512" height="512" viewBox="0 0 512 512" width="512" xmlns="http://www.w3.org/2000/svg"><g><g><g><path d="m512 90.63c0 62.84-51.13 113.97-113.97 113.97h-5.75c-6.49 0-12.25-4.18-14.26-10.35-12.125-37.13-37.621-55.478-40.33-58.11-8.14-8.05-11.51-19.53-9.02-30.73.78-3.65 2.92-6.93 6.04-9.12 19.23-13.52 41.86-20.66 65.44-20.66h96.85c8.28 0 15 6.72 15 15z" fill="#9a4916"/></g></g><g><g><path d="m175.25 135.28c-4.523 4.904-28.743 21.055-41.27 59.02-2.02 6.15-7.77 10.3-14.24 10.3h-5.77c-62.84 0-113.97-51.13-113.97-113.97 0-8.28 6.72-15 15-15h96.85c23.59 0 46.22 7.15 65.45 20.67 3.11 2.19 5.24 5.45 6.03 9.09 2.41 10.67-.61 21.83-8.08 29.89z" fill="#d66823"/></g></g><g><g><path d="m366.7 276.387s-16.45 107.951-19.59 119.121c-2.59 9.18-3.91 18.72-3.91 28.45 0 48.401-38.96 87.591-87.19 88.031h-.01c-.28.01-.56.01-.84.01-48.56 0-88.05-39.49-88.05-88.041v-.84c0-10.18-1.46-20.2-4.31-29.8-3.03-10.26-7.64-20.04-13.74-29.04l-40.61-59.941c-1.53-2.22-18.05-31.71-18.05-71.891 0-34.47 11.7-68.031 32.98-94.861 16.44-20.96 23.96-20.82 23.13-25.79l-17.6-77.521c-1.7-7.5 2.55-15.08 9.85-17.54l47.39-15.95c7.29-2.45 15.26 1.01 18.44 8.02l35.98 79.301h30.86l35.98-79.301c3.18-7.01 11.15-10.47 18.44-8.02l47.39 15.95c7.3 2.46 11.55 10.04 9.85 17.54-.11.47-17.62 77.601-17.62 77.601-.6 2.68.83 2.3 8.88 10.01 5.18 4.94 9.95 10.19 14.31 15.69 36.56 46.191-21.96 138.812-21.96 138.812z" fill="#ffd18b"/></g></g><path d="m366.7 276.387s-16.45 107.951-19.59 119.121c-2.59 9.18-3.91 18.72-3.91 28.45 0 48.401-38.96 87.591-87.19 88.031h-.01v-423.884h15.43l35.98-79.301c3.18-7.01 11.15-10.47 18.44-8.02l47.39 15.95c7.3 2.46 11.55 10.04 9.85 17.54-.11.47-17.62 77.601-17.62 77.601-.6 2.68.83 2.3 8.88 10.01 5.18 4.94 9.95 10.19 14.31 15.69 36.56 46.191-21.96 138.812-21.96 138.812z" fill="#ffb22a"/><g><path d="m236.44 211.15v40.92c0 45.16-17.54 87.68-49.4 119.7-.22.22-.44.43-.67.64l-23.57 20.91c-3.03-10.26-7.64-20.04-13.74-29.04l-40.61-59.94c-1.529-2.223-18.05-31.711-18.05-71.89 0-34.469 11.701-68.032 32.98-94.86h39.5c40.56 0 73.56 33 73.56 73.56z" fill="#f09b00"/></g><g><g><circle cx="163.854" cy="238.17" fill="#525e63" r="15"/></g></g><g><path d="m404.46 302.828c-.856 1.671-2.128 3.16-42.45 61.19-6.76 9.7-11.76 20.32-14.9 31.49l-26.03-23.1c-.23-.21-.46-.42-.68-.64-31.86-32.02-49.4-74.54-49.4-119.7v-40.92c0-40.56 33-73.56 73.56-73.56h44.09c37.15 47.079 43.582 111.565 15.81 165.24z" fill="#d66823"/></g><g><g><circle cx="343.2" cy="238.17" fill="#414c51" r="15"/></g></g><g><g><circle cx="231" cy="418.243" fill="#525e63" r="15"/></g></g><g><g><circle cx="281" cy="418.243" fill="#414c51" r="15"/></g></g></g></svg>