<svg id="Capa_1" enable-background="new 0 0 512 512" height="512" viewBox="0 0 512 512" width="512" xmlns="http://www.w3.org/2000/svg"><g><g><path d="m125.32 93.919c-26.945 30.526-43.91 67.44-54.19 106.288-2.325 8.837-11.973 13.56-20.42 9.959-43.101-18.512-60.28-70.314-36.94-110.828 21.943-38.112 69.588-49.752 107.63-28.426 8.322 4.644 10.249 15.835 3.92 23.007z" fill="#525e63"/></g><g><path d="m463.62 209.115c-8.458 3.955-18.461-.712-20.86-9.739-10.312-38.972-27.794-76.07-54.59-106.198-6.473-7.252-4.414-18.693 4.21-23.237 38.19-20.114 84.42-7.825 105.85 29.397 22.994 39.916 6.597 90.476-34.61 109.777z" fill="#414c51"/></g><g><path d="m444.96 431.909c-24.32 30.936-59.15 53.574-103.54 67.292-27.59 8.539-55.97 12.799-84.35 12.799h-1.07c-28.03-.11-56.05-4.37-83.29-12.799-71.41-22.067-154.3-79.111-143.66-225.504 7.63-104.323 46.403-201.201 137.99-250.86 27.19-14.768 57.94-22.657 88.96-22.827.35-.01.71-.01 1.06-.01 50.665 0 96.563 20.057 134.9 54.514.04.03.08.07.12.11.18.17.38.34.57.51.04.04.12.11.16.15 6.23 5.659 12.21 11.699 17.77 17.968 48.589 54.597 69.165 127.236 74.49 200.446 4.74 65.102-8.76 118.336-40.11 158.211z" fill="#5a7983"/></g><path d="m444.96 431.909c-24.32 30.936-59.15 53.574-103.54 67.292-27.59 8.539-55.97 12.799-84.35 12.799h-1.07v-511.99c.35-.01.71-.01 1.06-.01 50.665 0 96.563 20.057 134.9 54.514.04.03.08.07.12.11.18.17.38.34.57.51.04.04.12.11.16.15 6.23 5.659 12.21 11.699 17.77 17.968 48.589 54.597 69.165 127.236 74.49 200.446 4.74 65.102-8.76 118.336-40.11 158.211z" fill="#525e63"/><g><path d="m406.12 215.715c-1.77 25.627-15.46 46.545-27.53 65.002-3.38 5.159-6.57 10.039-9.5 14.948-15.48 26.017-18.59 54.514-19.59 78.971-.47 11.429-2.5 21.298-5.62 29.827-1.625 4.45-12.711 9.612-12.711 9.612s.694 12.28-2.929 16.215c-18.079 19.675-46.376 29.247-72.41 29.247-1.74 0-22.33-.23-43.33-10.049-9.01-4.219-18.85-10.519-27.26-19.898-3.229-3.595 2.676-16.158 2.676-16.158s-16.194-4.757-17.976-9.789c-2.95-8.339-4.87-17.948-5.32-29.017-1.78-43.565-10.91-64.362-19.59-78.961-13.672-22.907-34.796-47.601-37.03-79.951-1.86-26.947 8.27-50.784 28.52-67.132 25.47-20.558 65.92-27.637 100.66-17.598 17.811 5.161 21.975 5.173 39.76 0 60.222-17.384 133.99 15.038 129.18 84.731z" fill="#f2e4e4"/></g><path d="m406.12 215.715c-1.77 25.627-15.46 46.545-27.53 65.002-3.38 5.159-6.57 10.039-9.5 14.948-15.48 26.017-18.59 54.514-19.59 78.971-.466 11.43-2.498 21.303-5.617 29.828-1.727 4.721-12.714 9.611-12.714 9.611s.536 12.458-2.923 16.22c-18.236 19.833-46.737 29.242-72.245 29.242v-324.693c6.464.301 14.334-1.938 20.94-3.86 60.221-17.384 133.989 15.038 129.179 84.731z" fill="#d8c5c5"/><path d="m343.88 404.463c-3.85 10.539-9.37 19.018-15.64 25.827-14.63-6.819-36.37-18.228-45.42-24.517-7.88-5.459-17.45-8.069-26.82-7.849-9.37-.22-18.94 2.39-26.82 7.849-8.75 6.079-29.36 16.948-43.94 23.817-6.17-6.869-11.56-15.388-15.3-25.947 12.85-5.939 34.29-17.068 42.14-22.517 12.99-9.009 28.56-13.398 43.92-13.178 15.36-.22 30.93 4.169 43.92 13.178 8.24 5.709 31.42 17.677 43.96 23.337z" fill="#525e63"/><g><circle cx="189.496" cy="222.205" fill="#525e63" r="14.999"/></g><g><circle cx="322.503" cy="222.205" fill="#414c51" r="14.999"/></g><g><path d="m219.633 335.145-14.601-17.552c-5.297-6.368-4.429-15.825 1.94-21.122 6.368-5.297 15.826-4.428 21.125 1.94l14.601 17.552c5.297 6.368 4.429 15.825-1.94 21.122-6.372 5.298-15.828 4.427-21.125-1.94z" fill="#525e63"/></g><g><path d="m271.243 337.085c-6.369-5.297-7.238-14.754-1.94-21.122l14.601-17.552c5.299-6.369 14.756-7.235 21.124-1.94 6.369 5.297 7.238 14.754 1.94 21.122l-14.601 17.552c-5.296 6.365-14.751 7.24-21.124 1.94z" fill="#414c51"/></g><path d="m343.88 404.463c-3.85 10.539-9.37 19.018-15.64 25.827-14.63-6.819-36.37-18.228-45.42-24.517-7.88-5.459-17.45-8.069-26.82-7.849v-29.976c15.36-.22 30.93 4.169 43.92 13.178 8.24 5.709 31.42 17.677 43.96 23.337z" fill="#414c51"/></g></svg>