<svg id="Capa_1" enable-background="new 0 0 512 512" height="512" viewBox="0 0 512 512" width="512" xmlns="http://www.w3.org/2000/svg"><g><g><path d="m496.8 182.89-24.39 37.2c-4.04 6.17-11.98 8.48-18.7 5.45-14.141-6.36-30.238-5.421-43.15 1.73-5.84 3.24-13.11 2.23-17.85-2.47-7.97-7.92-18.1-14.76-30.09-20.35-18.86-8.79-41.12-8.29-59.54 1.35-17.01 8.9-28.55 24.33-31.65 42.33-.31 1.77-.39 2.8-.39 2.81-.88 14.864-20.749 19.652-28.07 6.48-1.986-3.507-1.699-5.707-2.32-9.26-3.1-18.03-14.64-33.46-31.65-42.36-18.42-9.64-40.67-10.14-59.53-1.35-12 5.59-22.13 12.43-30.1 20.35-4.74 4.7-12.01 5.71-17.85 2.47-12.992-7.195-29.103-8.053-43.14-1.73-6.73 3.03-14.67.72-18.71-5.45l-24.39-37.2c-4.817-7.33-2.308-17.181 5.32-21.37l41.91-23.01-2.37-42.86c-.45-8.26 5.87-15.34 14.14-15.8l53.02-2.97 13.38-41.58c2.529-7.875 11.01-12.255 18.94-9.66l53 17.31 32.46-34.75c5.967-6.368 15.991-6.325 21.92 0l32.46 34.75 53-17.31c7.926-2.593 16.41 1.78 18.94 9.66l13.38 41.58 53.02 2.97c8.27.46 14.59 7.54 14.14 15.8l-2.37 42.86 41.91 23.01c7.626 4.188 10.138 14.038 5.32 21.37z" fill="#d66823"/></g><path d="m496.8 182.89-24.39 37.2c-4.04 6.17-11.98 8.48-18.7 5.45-14.141-6.36-30.238-5.421-43.15 1.73-5.84 3.24-13.11 2.23-17.85-2.47-7.97-7.92-18.1-14.76-30.09-20.35-18.86-8.79-41.12-8.29-59.54 1.35-17.01 8.9-28.55 24.33-31.65 42.33-.31 1.77-.39 2.8-.39 2.81-.463 7.816-6.865 14.17-15.04 14.17v-261.67c4.286 0 8.21 1.784 11 4.76l32.46 34.75 53-17.31c7.926-2.593 16.41 1.78 18.94 9.66l13.38 41.58 53.02 2.97c8.27.46 14.59 7.54 14.14 15.8l-2.37 42.86 41.91 23.01c7.626 4.188 10.138 14.038 5.32 21.37z" fill="#9a4916"/><g><path d="m512 269.52c0 46.441-40.495 82.988-87 77.75-8.919-.982-15.03-9.591-12.93-18.37 10.82-45.58 4.28-80.6-19.43-104.09-7.075-7.011-5.471-18.906 3.28-23.77 20.918-11.595 46.963-13.227 70.01-2.87 28 12.67 46.07 40.67 46.07 71.35z" fill="#d66823"/></g><g><path d="m119.36 224.81c-23.71 23.49-30.25 58.51-19.43 104.1 2.064 8.716-3.931 17.357-12.94 18.37-46.671 5.168-86.99-31.444-86.99-77.76 0-30.68 18.07-58.67 46.03-71.32 22.909-10.339 48.958-8.851 70.05 2.84 8.744 4.849 10.371 16.743 3.28 23.77z" fill="#f09b00"/></g><g><path d="m441.3 335.62c0 .03-.01.07-.02.1-.14.64-.29 1.27-.45 1.91-21.65 89.46-78.58 162.53-169.83 170.28-4.91.43-14.33-9.98-14.96-10.69-.03-.03-.04-.04-.04-.04s-10.09 11.31-15.02 10.93c-83.3-6.38-142.12-71.25-166.83-159.08-20.88-74.66-8.51-138.66 62.65-171.77 27.27-12.71 59.46-11.98 86.1 1.96 13.59 7.11 24.85 17.08 33.1 29.01.01-.02.03-.04.04-.06 8.24-11.89 19.48-21.85 33.06-28.95 26.64-13.94 58.83-14.67 86.11-1.96 64.93 30.24 82.69 88.2 66.09 158.36z" fill="#ffd18b"/></g><path d="m271.04 104.44v20.18c0 8.28-6.72 15-15 15h-.04c-8.26-.02-14.96-6.73-14.96-15v-20.18c0-8.27 6.7-14.98 14.96-15h.04c8.28 0 15 6.72 15 15z" fill="#9a4916"/><g><path d="m326.115 151.614c-8.284 0-15-6.716-15-15v-20.174c0-8.284 6.716-15 15-15s15 6.716 15 15v20.173c0 8.285-6.716 15.001-15 15.001z" fill="#6e310b"/></g><g><path d="m185.957 151.614c-8.284 0-15-6.716-15-15v-20.174c0-8.284 6.716-15 15-15s15 6.716 15 15v20.173c0 8.285-6.716 15.001-15 15.001z" fill="#9a4916"/></g><path d="m271.04 104.44v20.18c0 8.28-6.72 15-15 15h-.04v-50.18h.04c8.28 0 15 6.72 15 15z" fill="#6e310b"/><path d="m441.3 335.62c0 .03-.01.07-.02.1-.14.64-.29 1.27-.45 1.91-21.65 89.46-78.58 162.53-169.83 170.28-4.91.43-14.33-9.98-14.96-10.69v-289.05c8.24-11.89 19.48-21.85 33.06-28.95 26.64-13.94 58.83-14.67 86.11-1.96 64.93 30.24 82.69 88.2 66.09 158.36z" fill="#ffb22a"/><g><circle cx="173.984" cy="329.201" fill="#525e63" r="15"/></g><g><circle cx="338.016" cy="329.201" fill="#414c51" r="15"/></g><g><path d="m303.76 384.32c-2.88 8.68-8.36 17.12-16.29 25.07-4.18 4.19-9.06 7.44-14.37 9.64-.69.29-1.39.56-2.1.81v88.07c-9.695.839-19.672.894-30 0v-88.13c-6.07-2.18-11.63-5.7-16.31-10.39-8.25-8.27-13.84-17.05-16.62-26.1-3.97-12.95.93-26.72 12.18-34.27 10.6-7.11 22.96-10.87 35.75-10.89h.08c12.48 0 24.59 3.58 35.02 10.35 11.88 7.72 17.09 22.45 12.66 35.84z" fill="#d66823"/></g><path d="m303.76 384.32c-2.88 8.68-8.36 17.12-16.29 25.07-4.18 4.19-9.06 7.44-14.37 9.64-.69.29-1.39.56-2.1.81v88.07c-4.97.43-9.98.65-15 .65v-170.43h.08c12.48 0 24.59 3.58 35.02 10.35 11.88 7.72 17.09 22.45 12.66 35.84z" fill="#9a4916"/></g></svg>