<svg id="Capa_1" enable-background="new 0 0 512 512" height="512" viewBox="0 0 512 512" width="512" xmlns="http://www.w3.org/2000/svg"><g><g><path d="m164.59 87.038c-28.98 18.884-46.036 46.854-52.17 79.642-2.114 10.896-14.83 15.71-23.61 9.25-51.399-37.742-65.547-98.65-56.86-162.574.91-6.73 6.23-12 12.96-12.86.83-.11 20.71-2.54 45.76 4.47 23.09 6.47 55.49 22.461 78.66 61.912 4.06 6.909 1.97 15.78-4.74 20.16z" fill="#5a7983"/></g><g fill="#525e63"><path d="m342.27 81.317c1.464-7.005 2.672-14.789 3.13-18.911-2.82 4.445-7.343 10.744-3.13 18.911z"/><path d="m423.19 175.93c-8.793 6.469-21.495 1.648-23.61-9.25-4.102-21.928-13.55-42.946-28.72-59.722-16.401-18.18-24.746-18.052-28.59-25.641 1.464-7.005 2.672-14.789 3.13-18.911 22.93-36.201 53.73-51.221 75.93-57.442 25.05-7.01 44.93-4.58 45.76-4.47 6.73.86 12.05 6.13 12.96 12.86 8.696 63.987-5.498 124.862-56.86 162.576z"/></g><g><path d="m388.33 375.316c-9.007 15.847-28.855 72.395-47.73 93.503-21.36 23.891-48.04 35.541-84.6 35.541h-.04c-36.54-.01-59.4-11.03-80.76-34.911-18.959-21.203-44.103-81.128-51.54-94.143-16.6-29.101-44.46-90.313-44.46-173.235 0-42.986 11.093-83.602 39.68-115.233 19.433-21.529 40.759-33.153 66.47-43.211 8.495-3.238 17.869 1.784 19.94 10.59 5.33 22.711 8.67 43.011 9.99 60.722 7.22-7.11 13.43-14.52 15.8-20.451 4.122-10.325 17.527-12.603 24.88-4.66.01.01.02.03.04.04 4.845 5.121 16.52 37.581 19.19 63.692 20.906-24.559 35.645-56.444 40.41-94.613 1.228-9.848 11.519-15.786 20.65-11.99 21.775 9.071 41.483 22.169 57.22 39.751 16.87 18.811 28.48 41.941 34.47 68.742 12.656 56.403 1.494 147.826-39.61 219.866z" fill="#f2e4e4"/></g><path d="m388.33 375.316c-9.007 15.847-28.855 72.395-47.73 93.503-21.36 23.891-48.04 35.541-84.6 35.541v-414.492c4.845 5.121 16.52 37.581 19.19 63.692 20.906-24.559 35.645-56.444 40.41-94.613 1.228-9.848 11.519-15.786 20.65-11.99 21.775 9.071 41.483 22.169 57.22 39.751 16.87 18.811 28.48 41.941 34.47 68.742 12.656 56.403 1.494 147.826-39.61 219.866z" fill="#d8c5c5"/><g><circle cx="166.379" cy="252.607" fill="#525e63" r="15"/></g><g><circle cx="345.621" cy="252.607" fill="#414c51" r="15"/></g><g fill="#81a1b1"><path d="m342.27 81.317c1.464-7.005 2.672-14.789 3.13-18.911-2.82 4.445-7.343 10.744-3.13 18.911z"/><path d="m347.25 31.546c.01 10.45-.61 20.84-1.85 30.861-2.82 4.444-7.343 10.743-3.13 18.911-17.32 83.052-73.86 119.704-76.43 121.323-11.577 7.295-26.409-3.666-22.38-17.001 4.84-16.12 1.69-36.861-2.91-53.651-13.55 14.35-29.15 25.671-31.75 27.521-10.554 7.51-25.066-1.046-23.6-13.91 3.658-32.391-7.122-79.71-16.02-111.163-2.08-7.35 1.7-15.09 8.78-17.97 49.022-20.101 107.309-21.455 160.22 1.31 5.5 2.369 9.06 7.779 9.07 13.769z"/></g><path d="m347.25 31.546c.104 108.189-72.694 175.693-91.29 173.295v-203.856c23.442-.413 55.5 5.294 82.22 16.791 5.5 2.37 9.06 7.78 9.07 13.77z" fill="#5a7983"/><path d="m385.34 380.842c-5.372 10.442-9.582 21.97-12.14 33.652-3.7 16.941-11.9 41.362-29.9 61.494-21.37 23.891-50.74 36.012-87.3 36.012h-.04c-36.54-.01-65.9-12.131-87.26-36.012-18-20.131-26.2-44.553-29.9-61.484-2.598-11.883-6.894-23.491-12.16-33.692 27.18-20.011 21.03-15.481 46.69-34.722 24.03-18.001 52.6-27.522 82.63-27.531h.04c30.04 0 58.63 9.52 82.67 27.531 29.16 21.862 24.53 18.462 46.67 34.752z" fill="#ffa1b2"/><path d="m385.34 380.842c-5.372 10.442-9.582 21.97-12.14 33.652-3.7 16.941-11.9 41.362-29.9 61.494-21.37 23.891-50.74 36.012-87.3 36.012v-193.441c30.04 0 58.63 9.52 82.67 27.531 29.16 21.862 24.53 18.462 46.67 34.752z" fill="#ff7b94"/><g><path d="m224.521 453.142c-8.184-1.286-13.776-8.963-12.49-17.147.769-4.895-2.588-9.503-7.483-10.272-8.184-1.286-13.776-8.963-12.49-17.147s8.963-13.776 17.147-12.49c21.236 3.337 35.799 23.33 32.462 44.566-1.285 8.184-8.962 13.776-17.146 12.49z" fill="#525e63"/></g><g><path d="m287.478 453.142c8.184-1.286 13.776-8.963 12.49-17.147-.769-4.895 2.588-9.503 7.483-10.272 8.184-1.286 13.776-8.963 12.49-17.147s-8.963-13.776-17.147-12.49c-21.237 3.337-35.799 23.33-32.462 44.566 1.286 8.184 8.963 13.776 17.146 12.49z" fill="#414c51"/></g></g></svg>