<svg id="Capa_1" enable-background="new 0 0 512 512" height="512" viewBox="0 0 512 512" width="512" xmlns="http://www.w3.org/2000/svg"><g><g><path d="m108.977 205.952-18.27-7.327c-17.326-6.948-31.164-20.115-38.962-37.075l-8.063-17.534c-3.461-7.526-.165-16.434 7.362-19.895 7.525-3.462 16.434-.167 19.895 7.361l8.063 17.534c4.578 9.956 12.701 17.686 22.872 21.765l18.27 7.327c7.689 3.084 11.422 11.816 8.338 19.506s-11.819 11.421-19.505 8.338z" fill="#525e63"/></g><g><path d="m57.301 485.284c-10.864 0-18.201-11.307-13.619-21.271 8.716-18.954 16.598-42.408 47.025-54.609.305-.124 27.835-10.178 28.146-10.292 7.783-2.846 16.394 1.16 19.237 8.941s-1.16 16.394-8.941 19.236l-27.477 10.039c-31.418 12.785-23.02 47.956-44.371 47.956z" fill="#525e63"/></g><g><path d="m383.498 197.614c-3.084-7.689.649-16.422 8.338-19.506l18.27-7.327c18.548-7.438 22.664-21.313 30.935-39.299 3.46-7.526 12.367-10.823 19.895-7.361 7.527 3.461 10.823 12.368 7.362 19.895-8.715 18.954-16.598 42.408-47.025 54.609l-18.269 7.327c-7.678 3.081-16.419-.64-19.506-8.338z" fill="#414c51"/></g><g><path d="m454.678 485.284c-21.657 0-12.693-35.065-44.372-47.955l-27.476-10.039c-7.781-2.843-11.784-11.455-8.941-19.236s11.453-11.786 19.237-8.941c.312.114 27.842 10.168 28.146 10.292 30.534 12.244 38.453 35.967 47.025 54.609 4.577 9.953-2.742 21.27-13.619 21.27z" fill="#414c51"/></g><g><path d="m184.596 90.811c-1.513-.363-37.221-9.28-51.807-43.16-3.276-7.609.237-16.434 7.846-19.709s16.433.237 19.709 7.846c8.554 19.869 31.122 25.817 31.349 25.875-4.418 17.886-2.799 11.238-7.097 29.148z" fill="#525e63"/></g><g><path d="m327.404 90.811-7-29.172-.097.023c.227-.058 22.794-6.006 31.349-25.875 3.276-7.608 12.1-11.121 19.709-7.846s11.122 12.1 7.846 19.709c-14.586 33.881-50.294 42.798-51.807 43.161z" fill="#414c51"/></g><g><path d="m497 319.014h-64.622c-8.284 0-15-6.716-15-15s6.716-15 15-15h64.622c8.284 0 15 6.716 15 15s-6.716 15-15 15z" fill="#414c51"/></g><g><path d="m79.622 319.014h-64.622c-8.284 0-15-6.716-15-15s6.716-15 15-15h64.622c8.284 0 15 6.716 15 15s-6.716 15-15 15z" fill="#525e63"/></g><g><path d="m353.37 144.11c-1.901 10.016-12.964 15.174-21.79 10.44-23.09-12.3-49.22-18.8-75.58-18.8s-52.49 6.5-75.58 18.8c-8.924 4.769-19.905-.505-21.79-10.44-11.519-60.756 35.375-117.39 97.37-117.39 62.077 0 108.874 56.712 97.37 117.39z" fill="#d66823"/></g><path d="m353.37 144.11c-1.901 10.016-12.964 15.174-21.79 10.44-23.09-12.3-49.22-18.8-75.58-18.8v-109.03c62.077 0 108.874 56.712 97.37 117.39z" fill="#9a4916"/><g><path d="m375.81 334.41c0 66.06-53.75 119.8-119.81 119.8s-119.81-53.74-119.81-119.8c0-66.07 53.75-119.81 119.81-119.81s119.81 53.74 119.81 119.81z" fill="#9a4916"/></g><path d="m375.81 334.41c0 66.06-53.75 119.8-119.81 119.8v-239.61c66.06 0 119.81 53.74 119.81 119.81z" fill="#6e310b"/><g><path d="m447.03 296.78c0 74.94-44.14 143.3-112.46 174.17-8.167 3.69-17.771-.571-20.48-9.14l-58.09-183.4-58.09 183.4c-2.7 8.538-12.268 12.836-20.48 9.14-143.689-64.925-151.588-268.187-11.1-342.87 126.748-67.608 280.7 24.641 280.7 168.7z" fill="#ff5600"/></g><path d="m447.03 296.78c0 74.94-44.14 143.3-112.46 174.17-8.167 3.69-17.771-.571-20.48-9.14l-58.09-183.4v-172.66c106.167 0 191.03 86.303 191.03 191.03z" fill="#ff1200"/><g><circle cx="178.96" cy="267.72" fill="#525e63" r="15"/></g><g><circle cx="163.96" cy="355.765" fill="#525e63" r="15"/></g><g><circle cx="133.96" cy="304.015" fill="#525e63" r="15"/></g><g><circle cx="333.04" cy="267.72" fill="#414c51" r="15"/></g><g><circle cx="348.04" cy="355.765" fill="#414c51" r="15"/></g><g><circle cx="378.04" cy="304.015" fill="#414c51" r="15"/></g><path d="m400.61 171.99c-72.488 96.074-216.63 96.193-289.23 0 76.283-88.519 213.633-88.024 289.23 0z" fill="#ffb22a"/><path d="m400.61 171.99c-33.945 44.99-86.983 72.1-144.62 72.1v-138.34c56.322 0 108.977 24.738 144.62 66.24z" fill="#f09b00"/></g></svg>