<svg id="Capa_1" enable-background="new 0 0 512 512" height="512" viewBox="0 0 512 512" width="512" xmlns="http://www.w3.org/2000/svg"><g><g><path d="m333.26 452.238c-2.77 14.328-9.93 27.816-20.29 38.184-23.349 23.326-49.479 21.507-62 21.507-3.37 0-6.7-.23-9.97-.69-30.92-4.269-56.58-28.096-62.35-59.021-80.342-1.904-120.845-98.516-62.68-156.657v-83.098c0-10.107 9.811-17.308 19.43-14.328 10.167 3.13 22.072 1.626 31.59-5.969 7.26-5.807 17.965-3.674 22.48 4.41 11.422 20.527 39.608 23.831 55.45 6.459 5.949-6.514 16.208-6.517 22.16 0 15.827 17.356 44.018 14.085 55.45-6.459 2.15-3.85 5.89-6.569 10.22-7.419 12.69-2.49 13.989 10.508 33.67 10.508 3.47 0 6.9-.52 10.18-1.53 9.632-2.984 19.43 4.239 19.43 14.328v83.108c58.419 57.111 17.671 155.694-62.77 156.667z" fill="#ffd18b"/></g><path d="m333.26 452.238c-2.77 14.328-9.93 27.816-20.29 38.184-13.875 13.861-32.307 21.507-51.94 21.507h-5.03v-313.784c4.22 0 8.24 1.78 11.08 4.889 15.827 17.356 44.018 14.085 55.45-6.459 2.15-3.85 5.89-6.569 10.22-7.419 12.69-2.49 13.989 10.508 33.67 10.508 3.47 0 6.9-.52 10.18-1.53 9.632-2.984 19.43 4.239 19.43 14.328v83.108c58.419 57.112 17.671 155.695-62.77 156.668z" fill="#ffb22a"/><g><path d="m186.11 91.391-71.59 57.352c-6.583 5.256-16.255 4.102-21.37-2.69-9.41-12.508-37.23-59.402.13-137.52 3.38-7.069 11.64-10.349 18.95-7.519 2.14.83 52.74 20.907 77.95 72.04 3.12 6.309 1.42 13.937-4.07 18.337z" fill="#ffb22a"/></g><g><path d="m418.85 146.053c-5.099 6.77-14.766 7.962-21.37 2.69l-71.59-57.352c-5.49-4.399-7.19-12.028-4.07-18.337 25.21-51.133 75.81-71.21 77.95-72.04 7.31-2.83 15.57.45 18.95 7.519 37.36 78.118 9.54 125.012.13 137.52z" fill="#f09b00"/></g><g><path d="m430.78 165.31c0 47.477-49.039 77.833-91.21 58.461-21.669 23.232-57.128 27.3-83.57 9.129-26.503 18.214-61.954 14.047-83.57-9.129-42.115 19.345-91.21-10.915-91.21-58.461 0-22.587 11.93-43.424 30.95-54.992 12.007-39.969 58.329-57.846 94.12-36.895 12-14.628 30.05-23.427 49.71-23.427s37.71 8.799 49.71 23.427c35.861-20.992 82.139-2.988 94.12 36.895 19.02 11.568 30.95 32.405 30.95 54.992z" fill="#fff5f5"/></g><g><ellipse cx="194.696" cy="292.107" fill="#525e63" rx="15" ry="14.998"/></g><g><ellipse cx="317.304" cy="292.107" fill="#414c51" rx="15" ry="14.998"/></g><path d="m291.95 387.368c-3.72 10.039-11.45 17.848-20.95 21.917v101.975c-7.004.961-22.609 1.02-30-.02v-101.956c-9.5-4.069-17.23-11.878-20.95-21.917-2.88-7.759 1.08-16.398 8.84-19.277 7.77-2.88 16.4 1.08 19.28 8.849 1.21 3.24 4.33 5.419 7.79 5.429h.08c3.46-.01 6.58-2.19 7.79-5.429 2.88-7.769 11.51-11.728 19.28-8.849 7.76 2.88 11.72 11.519 8.84 19.278z" fill="#d66823"/><path d="m291.95 387.368c-3.72 10.039-11.45 17.848-20.95 21.917v101.975c-5.677.779-9.459.67-15 .67v-129.562h.04c3.46-.01 6.58-2.19 7.79-5.429 2.88-7.769 11.51-11.728 19.28-8.849 7.76 2.88 11.72 11.519 8.84 19.278z" fill="#9a4916"/><path d="m430.78 165.31c0 47.477-49.039 77.833-91.21 58.461-21.669 23.232-57.128 27.3-83.57 9.129v-182.903c19.66 0 37.71 8.799 49.71 23.427 35.861-20.992 82.139-2.988 94.12 36.895 19.02 11.567 30.95 32.404 30.95 54.991z" fill="#f2e4e4"/></g></svg>