<svg id="Capa_1" enable-background="new 0 0 512 512" height="512" viewBox="0 0 512 512" width="512" xmlns="http://www.w3.org/2000/svg"><g><g><path d="m508.492 177.154c-5.48 6.52-12.14 5.35-21.36 5.35 12.67 32.371 30.06 94.874 5.5 152.237-2.79 6.52-9.75 10.19-16.71 8.81l-17.1-3.39c-2.37 27.181-13.21 76.563-59.18 104.135-4.19 2.51-9.33 2.83-13.8.85l-17.71-7.84c-22.54 35.141-67.61 59.163-106.911 73.753-3.44 1.277-7.175 1.224-10.44 0-39.3-14.581-84.371-38.612-106.911-73.753l-17.71 7.84c-4.47 1.98-9.61 1.66-13.8-.85-45.97-27.571-56.81-76.953-59.18-104.135l-17.1 3.39c-6.96 1.38-13.92-2.29-16.71-8.81-24.56-57.362-7.17-119.865 5.5-152.237-9.18 0-15.87 1.18-21.36-5.35-2.85-3.4-4.05-7.88-3.28-12.241 8.54-48.732 55.84-84.654 84.801-102.454l-.13-.09c-8.32-5.46-9.07-17.321-1.67-23.811 44.728-39.301 91.568-41.621 122.979-36.641 22.18 3.51 39.84 11.061 49.57 15.971.08.04.15.07.22.11.07-.04.14-.07.22-.11 9.73-4.91 27.39-12.461 49.57-15.971 31.41-4.98 78.251-2.66 122.981 36.642 6.86 6.02 7.33 17.581-1.8 23.901 28.96 17.801 76.261 53.722 84.801 102.454.77 4.36-.43 8.84-3.28 12.24z" fill="#ff5600"/></g><path d="m508.492 177.154c-5.48 6.52-12.14 5.35-21.36 5.35 12.67 32.371 30.06 94.874 5.5 152.237-2.79 6.52-9.75 10.19-16.71 8.81l-17.1-3.39c-2.37 27.181-13.21 76.563-59.18 104.135-4.19 2.51-9.33 2.83-13.8.85l-17.71-7.84c-22.54 35.141-67.61 59.163-106.911 73.753-1.75.65-3.6.96-5.44.94v-494.111c.08.04.15.07.22.11.07-.04.14-.07.22-.11 9.73-4.91 27.39-12.461 49.57-15.971 31.41-4.98 78.251-2.66 122.981 36.642 6.86 6.02 7.33 17.581-1.8 23.901 28.96 17.801 76.261 53.722 84.801 102.454.769 4.36-.431 8.84-3.281 12.24z" fill="#ff1200"/><g><path d="m189.86 144.901c-14.297 9.456-24.59 26.309-30.11 41.472-3.508 9.541-15.204 12.828-23.16 6.77l-20.07-15.271c-34.073-25.971-16.152-81.354 27.46-81.354 18.625 0 27.372 9.229 46.69 23.941 8.201 6.248 7.787 18.754-.81 24.442z" fill="#ffb22a"/></g><g><path d="m395.491 177.863-20.08 15.281c-8.263 6.292-20.145 2.301-23.2-6.87-7.43-19.171-17.55-33.082-30.07-41.372-8.598-5.689-9.011-18.195-.81-24.441 19.386-14.769 28.105-23.941 46.69-23.941 14.28 0 27.42 6.51 36.07 17.871 15.196 19.971 11.267 48.334-8.6 63.472z" fill="#f09b00"/></g><g><path d="m379.661 258.818c-8.06 23.671-20.44 42.902-28.63 55.622-4.63 7.19-5.6 8.401-5.6 11.131 0 45.064-33.028 81.361-74.646 88.448-4.893.833-15.004-10.247-15.004-10.247s-9.95 11.082-15 10.222c-42.31-7.15-74.65-44.072-74.65-88.404 0-2.77-.96-3.92-5.59-11.131-8.17-12.701-20.52-31.871-28.59-55.482-10.68-31.251-9.8-58.313-.37-83.504 23.93-61.703 73.871-81.134 124.211-64.483.07-.02.14-.04.21-.07 12.09-3.96 39.7-10.38 67.89 1.22 24.89 10.25 43.77 31.561 56.09 63.333 9.909 25.573 9.809 53.614-.321 83.345z" fill="#ffd18b"/></g><path d="m379.661 258.818c-8.06 23.671-20.44 42.902-28.63 55.622-4.63 7.19-5.6 8.401-5.6 11.131 0 45.064-33.028 81.361-74.646 88.448-4.893.833-15.004-10.247-15.004-10.247l.01-292.781c.07-.02.14-.04.21-.07 12.09-3.96 39.7-10.38 67.89 1.22 24.89 10.25 43.77 31.561 56.09 63.333 9.91 25.572 9.81 53.613-.32 83.344z" fill="#ffb22a"/><g><circle cx="201.346" cy="230.997" fill="#525e63" r="15"/></g><g><circle cx="310.214" cy="230.997" fill="#414c51" r="15"/></g><g><path d="m286.59 327.441c-4.56 4.55-9.94 7.96-15.81 10.111v76.443c-4.923.839-9.918 1.26-15 1.26-4.98 0-10-.41-15-1.26v-76.443c-5.87-2.15-11.25-5.56-15.81-10.111-5.86-5.86-5.87-15.351-.01-21.221 5.85-5.86 15.35-5.86 21.21-.01 2.66 2.66 6.14 3.99 9.61 3.97 3.676 0 7.095-1.455 9.61-3.97 5.86-5.85 15.36-5.85 21.21.01 5.86 5.87 5.85 15.361-.01 21.221z" fill="#d66823"/></g><path d="m286.59 327.441c-4.56 4.55-9.94 7.96-15.81 10.111v76.443c-4.923.839-9.918 1.26-15 1.26v-105.075c3.676 0 7.095-1.455 9.61-3.97 5.86-5.85 15.36-5.85 21.21.01 5.86 5.87 5.85 15.361-.01 21.221z" fill="#9a4916"/></g></svg>