<svg id="Capa_1" enable-background="new 0 0 512.014 512.014" height="512" viewBox="0 0 512.014 512.014" width="512" xmlns="http://www.w3.org/2000/svg"><g><g><g><path d="m220.175 477.246c-8.284 0-15-6.716-15-15v-14.303c0-22.339-18.174-40.513-40.513-40.513h-94.149c-38.881.001-70.513-31.631-70.513-70.512v-11.273c0-38.88 31.632-70.512 70.513-70.512 8.284 0 15 6.716 15 15s-6.716 15-15 15c-22.339 0-40.513 18.173-40.513 40.512v11.273c0 22.338 18.174 40.512 40.513 40.512h94.149c38.881 0 70.513 31.632 70.513 70.513v14.303c0 8.285-6.716 15-15 15z" fill="#81a1b1"/></g></g><path d="m512 240.578v1.39c-.12 7.56-2.24 15.08-6.32 21.86-8.02 13.34-22.1 21.31-37.67 21.31h-233.7v11.91c0 9.97 8.11 18.09 18.08 18.09h15.38c8.29 0 15 6.71 15 15 0 8.28-6.71 15-15 15h-137.46c-41.35 0-75-33.65-75-75 0-.56.04-1.11.1-1.66-.51-13.81-.1-74.33 42.17-119.97 31.99-34.54 79.49-52.06 141.17-52.06 15.14 0 29.84.59 44.02 1.74 3.67.3 7.3.64 10.89 1.01 2.74.28 5.45.58 8.14.91 5.64-36.94 37.62-65.34 76.12-65.34 42.47 0 77.02 34.55 77.02 77.01 0 13.84-3.68 27.19-10.54 38.89 26.83 18.99 47.8 42.47 62.43 69.98 3.35 6.31 5.07 13.12 5.17 19.93z" fill="#f2e4e4"/><path d="m506.83 220.648c-14.63-27.51-35.6-50.99-62.43-69.98 6.86-11.7 10.54-25.05 10.54-38.89 0-42.46-34.55-77.01-77.02-77.01-38.5 0-70.48 28.4-76.12 65.34-5.833-.715-13.021-1.429-19.03-1.92v186.95h40.001v11.909c0 26.515 21.572 48.087 48.088 48.087h25.379c8.284 0 15-6.716 15-15s-6.716-15-15-15h-25.379c-9.974 0-18.088-8.114-18.088-18.087v-11.909h115.239c33.117 0 54.349-35.238 38.82-64.49z" fill="#d8c5c5"/><circle cx="406.554" cy="210.133" fill="#525e63" r="15"/><path d="m267.771 315.134h-15.379c-9.974 0-18.087-8.114-18.087-18.087v-53.791c0-.066-.009-.13-.01-.196-.107-42.632-34.814-77.283-77.465-77.283-8.284 0-15 6.716-15 15s6.716 15 15 15c26.175 0 47.47 21.299 47.47 47.48 0 .033.005.064.005.097v53.692c0 26.515 21.571 48.087 48.087 48.087h15.379c8.284 0 15-6.716 15-15s-6.715-14.999-15-14.999z" fill="#d8c5c5"/></g></svg>