<svg id="Capa_1" enable-background="new 0 0 512 512" height="512" viewBox="0 0 512 512" width="512" xmlns="http://www.w3.org/2000/svg"><g><g><path d="m192.026 512c-27.398 0-49.688-22.29-49.688-49.688 0-8.284 6.716-15 15-15s15 6.716 15 15c0 10.856 8.832 19.688 19.688 19.688s19.688-8.832 19.688-19.688v-91.623c0-8.284 6.716-15 15-15s15 6.716 15 15v91.623c.001 27.398-22.289 49.688-49.688 49.688z" fill="#ff7b94"/></g><g><path d="m321.403 512c-27.398 0-49.688-22.29-49.688-49.688v-91.623c0-8.284 6.716-15 15-15s15 6.716 15 15v91.623c0 10.856 8.832 19.688 19.688 19.688s19.688-8.832 19.688-19.688c0-8.284 6.716-15 15-15s15 6.716 15 15c.001 27.398-22.289 49.688-49.688 49.688z" fill="#fe4566"/></g><g><path d="m433.121 330.292c-8.01 0-16.125-1.938-23.642-6.024l-68.081-37.031c-7.277-3.958-9.968-13.066-6.01-20.344s13.066-9.97 20.344-6.01l68.079 37.03c13.127 7.136 29.104-2.484 29.104-17.263 0-7.238-3.944-13.879-10.294-17.331-7.278-3.957-9.971-13.065-6.015-20.343 3.957-7.278 13.063-9.972 20.343-6.015 16.017 8.707 25.966 25.448 25.966 43.688 0 27.161-22.046 49.641-49.794 49.643z" fill="#fe4566"/></g><g><path d="m380.621 434.189c-21.987 0-42.14-14.72-48.035-36.948-.021-.081-.042-.162-.063-.244l-15.37-62.143c-1.989-8.042 2.918-16.174 10.96-18.163 8.042-1.991 16.174 2.917 18.163 10.959l15.336 62.005c2.825 10.425 13.59 16.643 24.048 13.869 5.078-1.347 9.329-4.593 11.97-9.141 2.643-4.548 3.354-9.849 2.008-14.927-2.123-8.007 2.646-16.22 10.653-18.344 8.014-2.124 16.221 2.646 18.345 10.653 3.401 12.824 1.603 26.208-5.063 37.685-9.305 16.024-26.005 24.739-42.952 24.739z" fill="#fe4566"/></g><g><path d="m78.877 330.292c-17.635.001-34.74-9.393-43.747-25.941-3.956-7.274-6.045-15.468-6.045-23.701 0-18.241 9.949-34.981 25.965-43.688 7.278-3.956 16.387-1.264 20.343 6.014 3.957 7.278 1.265 16.386-6.014 20.343-9.435 5.13-13.159 17.019-7.896 26.696 5.189 9.536 17.173 13.08 26.707 7.897l69.508-37.809c7.275-3.959 16.385-1.269 20.344 6.009 3.958 7.277 1.268 16.386-6.009 20.344l-69.51 37.81c-7.516 4.087-15.637 6.026-23.646 6.026z" fill="#ff7b94"/></g><g><path d="m132.809 434.189c-16.83 0-33.589-8.616-42.952-24.739-6.665-11.476-8.463-24.858-5.063-37.683 2.123-8.008 10.336-12.775 18.344-10.654 8.007 2.124 12.777 10.336 10.654 18.344-1.347 5.079-.634 10.38 2.007 14.927 2.642 4.548 6.893 7.794 11.971 9.142 10.459 2.774 21.224-3.445 24.049-13.871l15.336-62.003c1.989-8.042 10.122-12.947 18.163-10.959 8.042 1.989 12.949 10.121 10.959 18.163l-15.37 62.143c-.02.082-.041.163-.063.244-5.895 22.224-26.05 36.945-48.035 36.946z" fill="#ff7b94"/></g><g><g><path d="m392.85 196.51c0 30.63-20.31 55.89-30 66.21v15.5c0 58.92-47.94 106.85-106.85 106.85-58.89 0-106.85-47.91-106.85-106.85v-15.5c-9.7-10.32-30-35.58-30-66.21s20.3-55.9 30-66.21v-22.3c0-59.1 47.56-107.55 106.01-108 .28 0 .56 0 .84.01 29.5.2 55.51 11.4 75.26 31 20.37 20.21 31.59 47.15 31.59 75.84v23.45c9.69 10.31 30 35.58 30 66.21z" fill="#ffa1b2"/></g></g><path d="m392.85 196.51c0 30.63-20.31 55.89-30 66.21v15.5c0 58.92-47.94 106.85-106.85 106.85v-385.06c29.5.2 55.51 11.4 75.26 31 20.37 20.21 31.59 47.15 31.59 75.84v23.45c9.69 10.31 30 35.58 30 66.21z" fill="#ff7b94"/><g><g><circle cx="194.15" cy="196.507" fill="#525e63" r="15"/></g><g><circle cx="317.85" cy="196.507" fill="#414c51" r="15"/></g></g></g></svg>