<svg id="Capa_1" enable-background="new 0 0 512 512" height="512" viewBox="0 0 512 512" width="512" xmlns="http://www.w3.org/2000/svg"><g><g><path d="m430.59 480.535c-6.644 18.784-24.651 31.465-44.86 31.465h-259.47c-20.27 0-38.4-12.924-45.1-32.155-27.86-79.822 8.64-161.494 10.21-164.932 3.694-8.097 13.543-11.17 21.17-6.757 22.903 13.242 49.572 16.979 74.37 11.744 6.144-1.301 12.357 1.382 15.63 6.397-.01 0-.01 0-.01 0 24.286 35.355 78.451 37.487 105.6 1.829.91-1.189 1.36-1.869 1.37-1.879.14-.21.28-.41.44-.61 3.46-4.728 9.36-6.967 15.15-5.737 24.806 5.236 51.474 1.493 74.37-11.744 7.662-4.436 17.471-1.309 21.16 6.757 1.58 3.458 38.29 85.59 9.97 165.622z" fill="#d66823"/></g><path d="m430.59 480.535c-6.644 18.784-24.651 31.465-44.86 31.465h-129.75v-158.135c20.593 0 39.771-9.479 52.15-25.738.91-1.189 1.36-1.869 1.37-1.879.14-.21.28-.41.44-.61 3.46-4.728 9.36-6.967 15.15-5.737 24.806 5.236 51.474 1.493 74.37-11.744 7.662-4.436 17.471-1.309 21.16 6.757 1.58 3.457 38.29 85.589 9.97 165.621z" fill="#9a4916"/><g><path d="m373.16 493.489c0 .19 0 8.756-.01 18.511h-234.31c-.01-10.465-.01-18.281-.01-18.511 0-63.71 15.91-122.602 43.64-161.564 5.164-7.255 12.278-6.297 19.6-6.297.16.22.32.44.47.67-.01 0-.01 0-.01 0 24.088 35.067 78.258 37.741 105.6 1.829.91-1.189 1.36-1.869 1.37-1.879.14-.21.28-.41.44-.61h7.36c4.85 0 9.41 2.349 12.22 6.307 27.73 38.952 43.64 97.834 43.64 161.544z" fill="#ffd18b"/></g><path d="m329.52 331.945c27.73 38.952 43.64 97.834 43.64 161.544 0 .19 0 8.756-.01 18.511h-117.15v-158.135c20.576 0 39.758-9.488 52.13-25.738.91-1.189 1.36-1.869 1.37-1.879.14-.21.28-.41.44-.61h7.36c4.85 0 9.41 2.349 12.22 6.307z" fill="#ffb22a"/><g><path d="m481.99 217.229c0 80.89-71.602 145.07-153.71 133.647-18.13 21.02-44.15 32.964-72.28 32.964-28.12 0-54.15-11.935-72.28-32.964-29.66 4.128-59.96-1.699-85.84-16.562-.13-.07-.25-.14-.37-.21-41.64-24.069-67.5-68.858-67.5-116.875 0-52.285 29.96-98.683 75.31-121.053 5.68-2.799 12.5-1.739 17.05 2.649 33.08 31.895 77.62 61.081 118.68 81.882 9.197 4.684 20.351 4.853 29.88.01 41.57-21.26 85.26-49.666 118.69-81.891 4.55-4.388 11.37-5.447 17.05-2.649 45.32 22.359 75.32 68.717 75.32 121.052z" fill="#9a4916"/></g><path d="m481.99 217.229c0 80.89-71.602 145.07-153.71 133.647-18.13 21.02-44.15 32.964-72.28 32.964v-199.555c5.13 0 10.25-1.189 14.93-3.568 41.57-21.26 85.26-49.666 118.69-81.891 4.55-4.388 11.37-5.447 17.05-2.649 45.32 22.359 75.32 68.717 75.32 121.052z" fill="#6e310b"/><g><path d="m165.02 292.194c-41.36 0-75-33.624-75-74.965 0-41.33 33.64-74.965 75-74.965 8.885 0 12.491.847 15.68 2.999 36.934 24.874 42.089 23.57 46.47 30.006 33.46 49.352-1.951 116.925-62.15 116.925z" fill="#f2e4e4"/></g><g><path d="m272.34 311.245c-5.74 8.116-9.43 12.944-16.34 12.944-.01 0-.01 0-.02 0-6.91-.01-10.54-4.838-16.3-12.914-27.88-39.291-25.95-87.509-25.49-94.595l-.1-27.417c-.04-11.355 10.99-18.611 20.07-13.284 8.461 4.997 13.454 8.288 21.82 8.306 8.584 0 13.586-3.476 21.79-8.256 9.1-5.318 20.04 1.959 20.04 13.233v27.387c.46 6.967 2.43 55.254-25.47 94.596z" fill="#ffb22a"/></g><ellipse cx="165.02" cy="217.23" fill="#525e63" rx="15" ry="14.993"/><g><path d="m422 217.229c0 41.341-33.64 74.965-75 74.965-60.185 0-95.617-67.544-62.13-116.955 4.302-6.353 9.292-5.039 46.18-29.816 3.145-2.199 6.61-3.159 15.95-3.159 41.36 0 75 33.635 75 74.965z" fill="#d8c5c5"/></g><path d="m272.34 311.245c-5.74 8.116-9.43 12.944-16.34 12.944-.01 0-.01 0-.02 0v-139.904c8.584 0 13.586-3.476 21.79-8.256 9.1-5.318 20.04 1.959 20.04 13.233v27.387c.46 6.967 2.43 55.254-25.47 94.596z" fill="#f09b00"/><g><path d="m467.82 41.522c-12.72 29.706-33.92 56.323-57.39 78.903-30.42 29.316-68.43 55.494-105.84 76.324-21.056 11.743-31.333 17.512-48.6 17.512-17.59 0-28.03-6.097-48.55-17.492-37.28-20.76-75.29-46.858-105.89-76.354-26.65-25.658-45.95-52.205-57.37-78.893-10.35-24.208 14.04-47.677 35.51-40.061 45.259 16.215 61.623 24.119 92.74 24.119h167.14c16.88 0 33.48-2.879 49.33-8.566 47.16-16.892 43.87-15.773 45.31-16.092 23.52-5.068 43.04 18.541 33.61 40.6z" fill="#d66823"/></g><ellipse cx="347" cy="217.23" fill="#414c51" rx="15" ry="14.993"/><path d="m467.82 41.522c-12.72 29.706-33.92 56.323-57.39 78.903-30.42 29.316-68.43 55.494-105.84 76.324-21.04 11.734-31.33 17.512-48.59 17.512v-188.681h83.57c16.88 0 33.48-2.879 49.33-8.566 47.16-16.892 43.87-15.773 45.31-16.092 23.52-5.068 43.04 18.541 33.61 40.6z" fill="#9a4916"/></g></svg>