<svg id="Capa_1" enable-background="new 0 0 512 512" height="512" viewBox="0 0 512 512" width="512" xmlns="http://www.w3.org/2000/svg"><g><g><path d="m474.088 127.26-35.18 38.679c-3.031 3.329-7.509 5.219-12.29 4.86-13.287-1.062-10.531-12.524-40.9-43.879-12.656-13.132-27.588-24.622-44.35-33.599-7.02-3.78-9.87-12.39-6.47-19.61l14.13-30.019c20.039-42.564 72.754-56.426 111.06-30.859 38.664 25.852 45.292 80.053 14 114.427z" fill="#5a7983"/></g><g><path d="m170.568 93.321c-30.73 16.457-54.454 40.991-73.89 70.728-5.401 8.282-17.126 9.078-23.65 1.89l-35.18-38.679c-31.312-34.395-24.637-88.597 13.99-114.417 16.91-11.29 37.16-15.32 57.05-11.36 23.94 4.76 43.63 20.139 54.02 42.199l14.13 30.029c3.4 7.22.55 15.83-6.47 19.61z" fill="#81a1b1"/></g><g><path d="m270.968 511.6c-78.142 3.061-177.374-13.4-225.84-75.348-32-40.899-40.09-96.647-24.05-165.676 17.284-74.443 54.573-150.506 117.17-192.735 82.07-55.565 196.465-46.912 269.04 28.219 39.62 40.969 67.74 96.327 83.57 164.516 36.609 157.551-54.314 234.541-219.89 241.024z" fill="#f2e4e4"/></g><path d="m256.188 512v-470.048c55.43.044 110.184 21.751 151.1 64.108 39.62 40.969 67.74 96.327 83.57 164.516 38.607 166.148-64.86 239.046-234.67 241.424z" fill="#d8c5c5"/><g><path d="m205.498 196.978c-30.36-15.7-68.11-5.17-85.96 23.979l-29.11 47.549c-19.868 32.469-7.913 74.941 25.77 92.368l7.11 3.68c33.829 17.492 75.325 2.495 90.28-32.329l22-51.239c13.48-31.409.26-68.308-30.09-84.008zm-38.82 75.028c-7.36-3.8-10.24-12.85-6.43-20.209 3.81-7.36 12.86-10.24 20.21-6.43 7.36 3.8 10.24 12.85 6.43 20.21-3.8 7.359-12.85 10.239-20.21 6.429z" fill="#81a1b1"/></g><g><path d="m186.888 265.576c-3.8 7.36-12.85 10.24-20.21 6.43-7.36-3.8-10.24-12.85-6.43-20.209 3.81-7.36 12.86-10.24 20.21-6.43 7.36 3.8 10.24 12.85 6.43 20.209z" fill="#525e63"/></g><g><path d="m421.508 268.506-29.11-47.549c-17.85-29.149-55.6-39.679-85.96-23.979-30.35 15.7-43.57 52.599-30.09 84.008l22 51.239c10.087 23.49 33.435 39.639 60.15 39.639 17.749 0 28.723-6.583 37.25-10.99 33.673-17.433 45.627-59.9 25.76-92.368zm-76.25 3.5c-7.36 3.81-16.41.93-20.21-6.43-3.81-7.36-.93-16.41 6.43-20.21 7.35-3.81 16.4-.93 20.21 6.43 3.81 7.361.93 16.41-6.43 20.21z" fill="#5a7983"/></g><g><path d="m345.258 272.006c-7.36 3.81-16.41.93-20.21-6.43-3.81-7.36-.93-16.41 6.43-20.21 7.35-3.81 16.4-.93 20.21 6.43 3.81 7.361.93 16.41-6.43 20.21z" fill="#414c51"/></g><g><path d="m306.058 419.322c-4.679 14.16-18.252 32.044-35.09 37.599v54.679c-13.107.513-16.892.513-30 0v-54.709c-16.96-5.764-30.756-23.688-35.34-38.649-4.08-13.28 1.24-27.969 12.93-35.709 22.388-14.838 51.507-15.038 74.11-.53 12.5 8.03 18.01 23.38 13.39 37.319z" fill="#81a1b1"/></g><path d="m306.058 419.322c-4.679 14.16-18.252 32.044-35.09 37.599v54.679c-4.85.19-9.78.33-14.78.4v-140.736c12.98.03 25.59 3.75 36.48 10.74 12.5 8.029 18.01 23.379 13.39 37.318z" fill="#5a7983"/></g></svg>