<svg id="Capa_1" enable-background="new 0 0 512 512" height="512" viewBox="0 0 512 512" width="512" xmlns="http://www.w3.org/2000/svg"><g><g><path d="m441.57 152.002c0 8.29-6.72 15-15 15h-80.34c-8.28 0-15-6.71-15-15v-80.33c0-8.29 6.72-15 15-15h15c44.59 7.961 80.34 48.501 80.34 95.33z" fill="#414c51"/></g><g><path d="m189.295 112.453c-8.604 0-22.955-11.661-29.007-17.84-14.889-15.202-21.396-33.885-18.819-54.031 1.052-8.216 8.551-14.023 16.782-12.976 8.217 1.051 14.026 8.565 12.976 16.782-3.335 26.069 23.231 38.914 24.364 39.448 14.582 6.652 9.777 28.617-6.296 28.617z" fill="#ff7b94"/></g><g><path d="m221.811 93.602c-3.54 0-7.096-1.241-9.954-3.762-1.045-.922-10.424-9.398-17.724-22.931-10.473-19.417-11.546-39.51-3.103-58.107 3.425-7.543 12.315-10.881 19.859-7.457 7.543 3.425 10.882 12.316 7.457 19.859-10.861 23.923 12.416 45.29 13.412 46.188 10.357 9.133 3.78 26.21-9.947 26.21z" fill="#ff7b94"/></g><g><path d="m361.23 56.673v220.509c0 69.59-56.61 126.199-126.2 126.199h-85.76c-8.29 0-15-6.71-15-15v-205.509c0-60.67 43.02-111.469 100.16-123.499 8.41-1.77 17.12-2.7 26.04-2.7z" fill="#70dd59"/></g><path d="m361.23 56.673v220.509c0 68.256-55.049 126.199-126.8 126.199v-344.008c8.41-1.77 17.12-2.7 26.04-2.7z" fill="#2bb65e"/><g><circle cx="286.234" cy="131.672" fill="#414c51" r="14.903"/></g><g><path d="m301.14 206.572v107.939c0 37.86-27.74 70.25-66.71 83.029-21.822 7.185-34.037 5.84-82.67 5.84-9.66 0-17.49-6.71-17.49-15v-107.939c0-48 44.61-87.239 100.16-88.809 2.468-.085-.367-.06 49.21-.06 9.66 0 17.5 6.72 17.5 15z" fill="#2bb65e"/></g><path d="m301.14 206.572v107.939c0 37.86-27.74 70.25-66.71 83.029v-205.908c2.468-.085-.367-.06 49.21-.06 9.66 0 17.5 6.72 17.5 15z" fill="#008f61"/><g><path d="m134.27 393.748v103.252c0 8.28 6.71 15 15 15h24.42c33.49 0 60.74-27.25 60.74-60.75v-57.503h-100.16z" fill="#ff7b94"/></g><g><path d="m447.59 388.381c0 8.29-6.71 15-15 15h-353.18c-8.29 0-15-6.71-15-15 0-8.28 6.71-15 15-15h353.18c8.29 0 15 6.72 15 15z" fill="#d66823"/></g><path d="m447.59 388.381c0 8.29-6.786 15-15.17 15h-197.99v-30h197.99c8.384 0 15.17 6.72 15.17 15z" fill="#9a4916"/></g></svg>