<svg id="Capa_1" enable-background="new 0 0 512 512" height="512" viewBox="0 0 512 512" width="512" xmlns="http://www.w3.org/2000/svg"><g><g><path d="m420.319 509.65c-6.97 1.56-14.17 2.35-21.51 2.35h-285.62c-56.269 0-101.167-47.348-97.57-103.96.196-3.085 12.322-193.702 12.52-196.82 3.55-55.86 27.74-108.56 68.11-148.4 41.05-40.51 94.13-62.82 149.46-62.82h20.58c55.33 0 108.41 22.31 149.46 62.82 40.37 39.84 64.56 92.54 68.11 148.4l9.82 154.42 2.7 42.4c3.188 50.191-31.515 91.745-76.06 101.61z" fill="#81a1b1"/></g><path d="m420.319 509.65c-6.97 1.56-14.17 2.35-21.51 2.35h-142.81v-512h10.29c55.33 0 108.41 22.31 149.46 62.82 40.37 39.84 64.56 92.54 68.11 148.4l9.82 154.42 2.7 42.4c3.188 50.191-31.515 91.745-76.06 101.61z" fill="#5a7983"/><g><g><path d="m398.809 512h-285.62c-56.535 0-101.151-47.601-97.57-103.96l2.7-42.44c12.55-8.96 23.08-18.89 31.92-29.25 47.01-55.05 46.3-122.31 46.28-123.17v-.5l.28-23.84c.455-38.076 31.412-68.67 69.51-68.67h5.18c38.321 0 69.51 31.003 69.51 69.51v33.3h30v-33.3c0-38.491 31.161-69.51 69.51-69.51h5.18c38.077 0 69.055 30.573 69.51 68.67.273 23.212-1.23 49.107 11.91 86.69 13.818 39.453 36.972 69.071 66.57 90.11l2.7 42.4c3.583 56.41-41.084 103.96-97.57 103.96z" fill="#fff5f5"/></g></g><path d="m398.809 512h-142.81v-289.02h15v-33.3c0-38.491 31.161-69.51 69.51-69.51h5.18c18.41 0 35.76 7.13 48.86 20.06 13.09 12.94 20.43 30.2 20.65 48.61.273 23.212-1.23 49.107 11.91 86.69 13.818 39.453 36.972 69.071 66.57 90.11l2.7 42.4c3.583 56.41-41.084 103.96-97.57 103.96z" fill="#f2e4e4"/><g><path d="m420.319 509.65c-6.97 1.56-14.17 2.35-21.51 2.35h-285.62c-7.34 0-14.54-.79-21.51-2.35 24.71-150.45 92.46-212.33 95.49-215.02 2.74-2.45 6.29-3.8 9.97-3.8h117.72c3.68 0 7.23 1.35 9.97 3.8 3.03 2.69 70.78 64.57 95.49 215.02z" fill="#f2e4e4"/></g><path d="m420.319 509.65c-6.97 1.56-14.17 2.35-21.51 2.35h-142.81v-221.17h58.86c3.68 0 7.23 1.35 9.97 3.8 3.03 2.69 70.78 64.57 95.49 215.02z" fill="#d8c5c5"/><circle cx="169.265" cy="191.651" fill="#525e63" r="15"/><circle cx="342.734" cy="191.651" fill="#414c51" r="15"/><g><path d="m336.679 294.13-49.11 45.1c-8.64 7.92-19.85 12.29-31.57 12.29-11.71 0-22.92-4.37-31.56-12.29l-49.12-45.1c-6.31-5.8-9.45-14.02-8.59-22.55.87-8.53 5.57-15.97 12.91-20.39l60.06-36.18c5.03-3.03 10.66-4.55 16.3-4.55s11.28 1.52 16.31 4.55l60.05 36.18c15.386 9.286 17.614 30.74 4.32 42.94z" fill="#ffd18b"/></g><path d="m336.679 294.13-49.11 45.1c-8.64 7.92-19.85 12.29-31.57 12.29v-141.06c5.64 0 11.28 1.52 16.31 4.55l60.05 36.18c15.386 9.286 17.614 30.74 4.32 42.94z" fill="#ffb22a"/></g></svg>