<svg id="Capa_1" enable-background="new 0 0 512 512" height="512" viewBox="0 0 512 512" width="512" xmlns="http://www.w3.org/2000/svg"><g><g><path d="m186.949 119.979c-24.761 12.278-43.343 29.584-59.751 51.54-4.334 5.779-8.356 11.784-12.11 17.92-3.496 5.717-10.31 8.348-16.55 6.7-36.001-9.29-64.501-36.73-82.421-79.36-12.98-30.87-15.92-58.96-16.04-60.14-.64-6.35 2.8-12.41 8.59-15.11 2.6-1.21 64.391-29.43 120.232-7.88 29.3 11.31 51.231 33.87 65.211 67.07 3.069 7.3-.071 15.74-7.161 19.26z" fill="#ffa1b2"/></g><g><path d="m511.924 56.639c-.12 1.18-3.06 29.27-16.04 60.14-17.92 42.63-46.421 70.07-82.421 79.36-6.214 1.641-13.053-.959-16.56-6.72-17.993-29.511-41.035-54.16-71.851-69.44-7.09-3.52-10.23-11.96-7.16-19.26 13.98-33.2 35.911-55.76 65.211-67.07 55.841-21.56 117.632 6.67 120.232 7.88 5.789 2.7 9.229 8.76 8.589 15.11z" fill="#ff7b94"/></g><g><path d="m256.22 486.439c-65.645 0-144.479-14.714-185.083-66.62-28.2-36.05-35.361-85.07-21.27-145.7 17.139-73.839 55.877-147.34 123.742-181.02 26.164-12.994 54.47-19.338 82.611-19.295 48.748.075 188.14 200.325 188.14 200.325s-99.169 210.99-188.14 212.31z" fill="#ffc5ce"/></g><path d="m440.863 419.819c-33.55 42.89-95.671 65.3-184.643 66.62v-412.61c49.572.045 97.548 19.858 132.762 56.34 38.07 39.382 60.748 90.603 73.151 143.96 14.09 60.62 6.93 109.64-21.27 145.69z" fill="#ffa1b2"/><g><path d="m298.641 416.579c-26.206 12.423-57.368 13.225-85.281 0-28.98-13.71-44.141-37.58-42.681-67.22 2.751-56.05 57.692-77.4 85.541-77.32 26.8.079 82.327 20.787 85.101 77.32 1.46 29.64-13.7 53.51-42.68 67.22z" fill="#ffa1b2"/></g><path d="m298.641 416.579c-13.48 6.39-27.94 9.59-42.421 9.62v-154.16c26.8.079 82.327 20.787 85.101 77.32 1.46 29.64-13.7 53.51-42.68 67.22z" fill="#ff7b94"/><g><circle cx="230.457" cy="349.096" fill="#fe4566" r="15"/></g><g><circle cx="281.543" cy="349.096" fill="#dc0c3e" r="15"/></g><g><g><circle cx="154.456" cy="245.565" fill="#525e63" r="15"/></g></g><g><g><circle cx="357.544" cy="245.565" fill="#414c51" r="15"/></g></g></g></svg>