<svg id="Capa_1" enable-background="new 0 0 512 512" height="512" viewBox="0 0 512 512" width="512" xmlns="http://www.w3.org/2000/svg"><g><g><path d="m441.11 295.474c-14.28 31.689-41.24 54.939-80.13 69.109-8.487 3.118-17.932-2.022-19.81-11.01l-13.88-66.039c-1.89-9-6.08-17.42-12.11-24.34l-45.29-52.009c-3.55-4.08-8.49-6.33-13.89-6.33s-10.34 2.25-13.88 6.33l-45.3 51.999c-6.03 6.93-10.22 15.35-12.11 24.35l-13.88 66.039c-1.873 8.964-11.278 14.125-19.81 11.01-38.89-14.17-65.85-37.419-80.13-69.109-13.57-30.089-15.33-67.339-5.25-110.728 11.352-48.915 32.255-96.272 67.45-132.677 24.54-25.41 55.83-42.349 90.47-48.969l.09-.02c.47-.1.92-.19 1.39-.27 10.28-1.87 20.61-2.81 30.96-2.81 10.37 0 20.74.94 31.04 2.83 35.22 6.45 66.99 23.48 91.88 49.249 35.08 36.283 56.025 83.519 67.44 132.677 10.08 43.38 8.32 80.629-5.25 110.718z" fill="#ffd18b"/></g><path d="m441.11 295.474c-14.28 31.689-41.24 54.939-80.13 69.109-8.487 3.118-17.932-2.022-19.81-11.01l-13.88-66.039c-1.89-9-6.08-17.42-12.11-24.34l-45.29-52.009c-3.55-4.08-8.49-6.33-13.89-6.33v-204.855c10.37 0 20.74.94 31.04 2.83 35.22 6.45 66.99 23.48 91.88 49.249 35.08 36.283 56.025 83.519 67.44 132.677 10.08 43.38 8.32 80.629-5.25 110.718z" fill="#ffb22a"/><path d="m381.57 400.002-24.92-118.648c-.65-3.11-1.49-6.18-2.49-9.19-3.19-9.58-8.08-18.54-14.44-26.389-.62-.77-1.26-1.54-1.92-2.29l-45.29-51.999c-9.19-10.57-22.5-16.63-36.51-16.63s-27.32 6.06-36.51 16.63l-45.29 51.999c-.66.75-1.3 1.52-1.92 2.29-6.36 7.85-11.25 16.81-14.44 26.389-1 3.01-1.84 6.08-2.49 9.19l-24.92 118.648c-1.26 5.99-1.89 12.09-1.89 18.15 0 38.276 24.849 72.626 62.24 84.088 21.14 6.47 43.08 9.76 65.22 9.76s44.08-3.29 65.22-9.76c37.387-11.461 62.24-45.808 62.24-84.088 0-6.06-.63-12.16-1.89-18.15z" fill="#d66823"/><path d="m383.46 418.152c0 38.276-24.849 72.626-62.24 84.088-21.14 6.47-43.08 9.76-65.22 9.76v-337.143c14.01 0 27.32 6.06 36.51 16.63l45.29 51.999c.66.75 1.3 1.52 1.92 2.29 6.36 7.85 11.25 16.81 14.44 26.389 1 3.01 1.84 6.08 2.49 9.19l24.92 118.648c1.26 5.989 1.89 12.089 1.89 18.149z" fill="#9a4916"/><g><path d="m354.163 272.165c-26.35 12.06-68.73 29.069-98.16 29.069h-.09c-16.13-.02-36.35-4.29-60.09-12.7-14.91-5.29-28.44-11.24-38.16-15.83 3.12-9.58 7.94-18.56 14.23-26.439.74-.94 1.52-1.87 2.31-2.78l45.29-51.999c9.17-10.55 22.44-16.6 36.42-16.63h.09c14.01 0 27.32 6.06 36.51 16.63l45.29 51.999c.66.75 1.3 1.52 1.92 2.29 6.36 7.85 11.25 16.81 14.44 26.39z" fill="#9a4916"/></g><path d="m354.163 272.165c-26.35 12.06-68.73 29.069-98.16 29.069h-.09v-126.377h.09c14.01 0 27.32 6.06 36.51 16.63l45.29 51.999c.66.75 1.3 1.52 1.92 2.29 6.36 7.849 11.25 16.809 14.44 26.389z" fill="#6e310b"/><g><circle cx="163.669" cy="178.122" fill="#525e63" r="15"/></g><g><circle cx="209.955" cy="422.037" fill="#525e63" r="15"/></g><g><circle cx="302.045" cy="422.037" fill="#414c51" r="15"/></g><g><circle cx="348.331" cy="178.122" fill="#414c51" r="15"/></g></g></svg>