<svg id="Capa_1" enable-background="new 0 0 512 512" height="512" viewBox="0 0 512 512" width="512" xmlns="http://www.w3.org/2000/svg"><g><g><path d="m236.103 189.537c.19 6.361-4.27 11.927-10.527 13.119-20.795 3.967-39.576 14.13-54.312 29.393-15.162 15.648-15.144 23.862-26.543 22.151-4.866-.786-8.876-4.261-10.328-8.98-7.243-23.421-16.681-65.165-18.643-87.593-2.973-33.827-.666-66.263 6.508-91.352 8.323-29.125 22.878-46.039 40.985-47.629 27.778-2.437 43.267 28.866 48.357 39.151 21.62 43.619 23.173 86.732 24.503 131.74z" fill="#ffa1b2"/></g><g><path d="m398.935 158.584c-2.05 23.439-11.914 67.064-19.483 91.542-3.279 10.656-17.436 13.053-23.982 3.857-17.658-24.88-40.083-42.383-71.313-48.341-6.54-1.247-11.201-7.063-11.002-13.711 1.38-46.687 2.918-91.902 25.608-137.679 5.32-10.748 21.507-43.445 50.538-40.916 18.923 1.662 34.134 19.338 42.833 49.777 7.497 26.221 9.908 60.119 6.801 95.471z" fill="#ff7b94"/></g><g><path d="m127.968 262.305c-8.375-27.105-19.293-75.396-21.571-101.352-6.985-79.443 11.183-156.954 54.951-160.796 32.139-2.827 50.064 33.395 55.955 45.296 24.726 49.905 26.746 98.811 28.35 152.419.221 7.365-4.942 13.801-12.181 15.182-34.445 6.575-59.24 25.795-78.948 53.516-7.183 10.102-22.892 7.595-26.556-4.265zm36.002-232.264c-13.729 1.205-34.637 49.247-27.688 128.288 1.438 16.392 6.968 43.946 12.872 67.783 18.335-18.945 40.985-32.465 66.088-39.549-.574-14.803-1.294-28.76-1.333-29.504-3.548-71.489-33.117-128.522-49.939-127.018z" fill="#f2e4e4"/></g><g><path d="m357.478 266.572c-19.645-27.624-44.398-46.924-78.95-53.519-7.238-1.381-12.401-7.817-12.181-15.182 1.546-51.687 3.197-101.654 28.353-152.424 5.888-11.894 23.808-48.098 55.951-45.291 20.949 1.839 37.79 21.41 47.422 55.106 8.297 29.023 10.971 66.559 7.53 105.693-2.277 25.953-13.196 74.244-21.571 101.349-3.667 11.868-19.376 14.359-26.554 4.268zm-60.721-80.011c25.102 7.084 47.749 20.601 66.088 39.549 5.904-23.836 11.434-51.39 12.872-67.78 3.127-35.569.822-69.244-6.49-94.823-6.402-22.395-15.261-32.946-21.2-33.467-4.372-.383-13.632 2.839-26.444 28.72-22.479 45.369-23.42 91.52-24.826 127.801z" fill="#d8c5c5"/></g><g><path d="m404 458.352c-27.03 34.538-76.75 52.588-147.78 53.638-.07.01-.15.01-.22.01s-.15 0-.22-.01c-71.03-1.05-120.75-19.099-147.78-53.638-22.81-29.169-28.65-68.657-17.33-117.355 20.242-87.196 75.068-160.093 165.33-160.093 39.662 0 78.275 15.628 106.95 45.308 30.532 31.629 48.56 72.479 58.38 114.785 11.32 48.698 5.48 88.187-17.33 117.355z" fill="#fff5f5"/></g><path d="m404 458.352c-27.03 34.538-76.75 52.588-147.78 53.638-.07.01-.15.01-.22.01v-331.095c39.662 0 78.275 15.628 106.95 45.308 30.532 31.629 48.56 72.479 58.38 114.785 11.32 48.697 5.48 88.186-17.33 117.354z" fill="#f2e4e4"/><g><circle cx="182.958" cy="309.187" fill="#525e63" r="15"/></g><g><circle cx="329.042" cy="309.187" fill="#414c51" r="15"/></g><g><g fill="#ffc5ce"><path d="m321.83 424.084c-9.622 26.69-42.731 36.766-65.6 19.039.06-.04.12-.08.17-.13-.11.01-.22.01-.33.01.05.04.1.08.16.12-8.24 6.172-16.938 8.88-25.86 8.88-17.75 0-33.72-11.219-39.74-27.919-2.81-7.79 1.23-16.379 9.03-19.189 7.79-2.81 16.39 1.23 19.19 9.02 3.54 9.791 16.973 10.972 22.15 1.92v-37.008c0-8.29 6.72-14.999 15-14.999s15 6.71 15 14.999v36.118c4.63 9.884 18.91 9.202 22.61-1.03 2.81-7.79 11.4-11.829 19.2-9.02 7.79 2.81 11.83 11.399 9.02 19.189z"/><path d="m256.4 442.993c-.05.05-.11.09-.17.13-.06-.04-.11-.08-.16-.12.11 0 .22 0 .33-.01z"/></g><g><path d="m256.4 442.993c-.05.05-.11.09-.17.13-.06-.04-.11-.08-.16-.12.11 0 .22 0 .33-.01z" fill="#ffc5ce"/></g></g><path d="m321.83 424.084c-9.622 26.69-42.731 36.766-65.6 19.039-.08.06-.15.12-.23.17v-79.466c8.28 0 15 6.71 15 14.999v36.118c4.63 9.884 18.91 9.202 22.61-1.03 2.81-7.79 11.4-11.829 19.2-9.02 7.79 2.811 11.83 11.4 9.02 19.19z" fill="#ffa1b2"/><g><path d="m300.09 358.787c-2.64 7.98-7.65 15.709-14.9 22.969-16.015 16.077-42.191 16.089-58.24 0-7.54-7.56-12.65-15.609-15.2-23.919-3.71-12.11 1.13-25.499 11.77-32.549 36.037-23.862 87.9-.734 76.57 33.499z" fill="#ffa1b2"/></g><path d="m300.09 358.787c-4.257 12.868-18.907 35.028-44.09 35.028v-78.317c11.649 0 22.602 3.353 31.92 9.33 11.36 7.3 16.37 21.269 12.17 33.959z" fill="#ff7b94"/></g></svg>