<svg id="Capa_1" enable-background="new 0 0 512 512" height="512" viewBox="0 0 512 512" width="512" xmlns="http://www.w3.org/2000/svg"><g><path d="m338.83 104.084h-114.45c-13.839 0-20.287-17.266-9.83-26.33 27.57-23.93 21.14-59.579 21.08-59.939-1.953-10.231 6.904-19.344 17.22-17.6 1.03.17 9.91 1.75 22.18 6.44 24.26 9.27 61.77 30.71 77.98 77.519 3.37 9.769-3.906 19.91-14.18 19.91z" fill="#81a1b1"/><path d="m338.95 260.913c-13.35 38.56-45.14 55.139-63.92 61.769-3.95 1.395-12.924 4.21-17.1 4.21-9.649 0-16.467-8.767-14.64-17.77.29-1.71 3.9-25.66-14.68-41.79-4.73-4.11-6.41-10.71-4.22-16.58 2.19-5.86 7.79-9.75 14.05-9.75h86.33c10.311.001 17.55 10.182 14.18 19.911z" fill="#5a7983"/><g fill="#add3d8"><path d="m160.37 357.46c-2.56-4.35-4.52-9-5.85-13.84-23.33 10.6-40.45 30.61-47.71 54 4.51 2.26 9.14 4.34 13.87 6.21 7.17 2.85 15.36-.22 18.88-7.13.14-.27.29-.54.44-.8 3.45-6.51 9.2-13.46 16.36-18.76 0 0 .01 0 .01-.01 6.17-4.56 7.9-13.05 4-19.67z"/><path d="m499.32 89.08c0 27.7-6.23 53.98-17.36 77.5-26.706 56.436-81.867 97.039-146.679 103.448-5.93.586-41.48-15.557-47.562-15.557l-55.456 16.429h-22.373c-15.34 0-29.77 5.97-40.62 16.82-10.84 10.85-16.81 25.28-16.81 40.62 0 5.19.7 10.33 2.06 15.28-23.33 10.6-40.45 30.61-47.71 54-25.53-12.82-47.4-31.81-63.84-55.56-19.81-28.62-30.29-62.21-30.29-97.14 0-28.25 6.84-54.88 18.95-78.34 28.37-54.97 85.7-92.5 151.9-92.5h300.79c8.28 0 15 6.71 15 15z"/></g><path d="m481.96 166.58c-29.15 61.6-91.92 104.32-164.47 104.32h-107.6c-15.34 0-29.77 5.97-40.62 16.82-10.84 10.85-16.81 25.28-16.81 40.62 0 5.19.7 10.33 2.06 15.28 1.33 4.84 3.29 9.49 5.85 13.84 3.9 6.62 2.17 15.11-4 19.67 0 .01-.01.01-.01.01-7.16 5.3-12.91 12.25-16.36 18.76-.15.26-.3.53-.44.8-3.52 6.91-11.71 9.98-18.88 7.13-4.73-1.87-9.36-3.95-13.87-6.21-25.53-12.82-47.4-31.81-63.84-55.56-19.81-28.62-30.29-62.21-30.29-97.14 0-28.25 6.84-54.88 18.95-78.34z" fill="#81a1b1"/><g><circle cx="399.44" cy="166.58" fill="#525e63" r="15"/></g><path d="m251.03 181.42c9.48 9.48 2.63 25.61-10.61 25.61-7.04 0-10.3-4.09-14.07-7.87-8.98-8.97-13.4-20.8-13.27-32.58.13-11.44 4.55-22.84 13.26-31.55l4.5-4.5c5.86-5.85 15.36-5.85 21.22 0 5.85 5.86 5.85 15.36 0 21.22l-4.5 4.49c-2.87 2.87-4.36 6.59-4.48 10.34-.14 4.1 1.35 8.25 4.48 11.37z" fill="#81a1b1"/><path d="m191.03 181.42c9.48 9.48 2.63 25.61-10.61 25.61-7.04 0-10.3-4.09-14.07-7.87-8.98-8.97-13.4-20.8-13.27-32.58.13-11.44 4.55-22.84 13.26-31.55l4.5-4.5c5.86-5.85 15.36-5.85 21.22 0 5.85 5.86 5.85 15.36 0 21.22l-4.5 4.49c-2.87 2.87-4.36 6.59-4.48 10.34-.14 4.1 1.35 8.25 4.48 11.37z" fill="#81a1b1"/><g fill="#5a7983"><g><path d="m160.37 357.462c-2.56-4.35-4.52-9-5.85-13.84-23.327 10.603-40.451 30.608-47.71 53.999 4.51 2.26 9.14 4.34 13.87 6.21 7.166 2.851 15.357-.218 18.88-7.13.14-.27.29-.54.44-.8 3.449-6.514 9.2-13.458 16.36-18.76 0 0 .01 0 .01-.01 6.17-4.559 7.9-13.049 4-19.669z"/><path d="m255.2 411.101c-19.88-4.78-40.63 3.6-51.63 20.85-11.01 17.26-9.87 39.61 2.85 55.619 3.5 4.4 4.24 10.38 1.93 15.5-4.022 8.916-12.406 8.93-17.52 8.93-16.77 0-33.03-4.74-47.29-13.83-32.908-20.986-48.666-62.169-36.73-100.549 4.51 2.26 9.14 4.34 13.87 6.21 7.166 2.851 15.357-.218 18.88-7.13.14-.27.29-.54.44-.8 3.449-6.514 9.2-13.458 16.36-18.76 0 0 .01 0 .01-.01 6.17-4.56 7.9-13.05 4-19.67-2.56-4.35-4.52-9-5.85-13.84 10.22-4.64 21.28-7.29 32.69-7.78 18.11-.77 35.77 3.98 51.09 13.76 15.57 9.93 27.44 24.22 34.32 41.31 4.54 11.262-5.548 23.038-17.42 20.19z"/></g><path d="m191.03 181.42c9.48 9.48 2.63 25.61-10.61 25.61-7.04 0-10.3-4.09-14.07-7.87-8.98-8.97-13.4-20.8-13.27-32.58h30c-.14 4.1 1.35 8.25 4.48 11.37z"/><path d="m240.42 207.03c-7.04 0-10.3-4.09-14.07-7.87-8.98-8.97-13.4-20.8-13.27-32.58h30c-.14 4.1 1.35 8.25 4.48 11.37l3.47 3.47c9.48 9.48 2.63 25.61-10.61 25.61z"/></g><path d="m414.44 166.58c0 8.29-6.72 15-15 15-8.29 0-15-6.71-15-15z" fill="#414c51"/></g></svg>