<svg id="Capa_1" enable-background="new 0 0 512 512" height="512" viewBox="0 0 512 512" width="512" xmlns="http://www.w3.org/2000/svg"><g><g><path d="m492.83 223.046c8.36 13.513 12.86 29.152 12.86 45.19 0 26.827-12.55 51.887-33.44 68.064 2.35 7.894 3.54 16.088 3.54 24.471 0 46.777-37.56 84.961-84.17 86.089-4 15.978-12.55 30.539-24.82 41.986-16.03 14.93-36.93 23.154-58.86 23.154-18.78 0-37.07-6.218-51.94-17.385-14.87 11.167-33.16 17.385-51.94 17.385-21.93 0-42.83-8.224-58.86-23.154-12.27-11.447-20.82-26.008-24.82-41.986-46.61-1.128-84.17-39.312-84.17-86.089 0-8.383 1.19-16.577 3.54-24.471-20.89-16.178-33.44-41.238-33.44-68.064 0-16.038 4.5-31.677 12.86-45.19-12.3-15.22-19.17-34.322-19.17-54.103 0-41.767 29.99-76.977 70.07-84.591 11.38-35.04 44.29-59.462 82.06-59.462 12.6 0 24.86 2.705 36.11 7.894 16.21-20.518 41.02-32.784 67.76-32.784s51.55 12.266 67.76 32.785c11.25-5.19 23.51-7.894 36.11-7.894 37.77 0 70.68 24.421 82.06 59.462 40.08 7.615 70.07 42.825 70.07 84.591 0 19.78-6.87 38.882-19.17 54.102z" fill="#f2e4e4"/></g><path d="m492.83 223.046c8.36 13.513 12.86 29.152 12.86 45.19 0 26.827-12.55 51.887-33.44 68.064 2.35 7.894 3.54 16.088 3.54 24.471 0 46.777-37.56 84.961-84.17 86.089-4 15.978-12.55 30.539-24.82 41.986-16.03 14.93-36.93 23.154-58.86 23.154-18.78 0-37.07-6.218-51.94-17.385v-494.615c26.74 0 51.55 12.266 67.76 32.785 11.25-5.19 23.51-7.894 36.11-7.894 37.77 0 70.68 24.421 82.06 59.462 40.08 7.615 70.07 42.825 70.07 84.591 0 19.78-6.87 38.882-19.17 54.102z" fill="#d8c5c5"/><g><path d="m163.21 189.862c-1.042 4.494-1.828 9.456-2.27 14.711-.54 6.627-5.4 12.106-11.93 13.443-28.694 5.924-56.142-1.385-79.49-17.784-9.23-6.497-14.73-17.116-14.73-28.404.01-11.287 5.51-21.896 14.72-28.373 28.013-19.679 60.439-25.446 94.37-13.583 2.95 1.128 7.21 3.054 11.35 4.88 3.38 2.096 5.82 5.469 6.71 9.401 3.084 13.585-11.603 14.33-18.73 45.709z" fill="#ffb22a"/></g><g><path d="m350.52 199.503c.22 1.707.4 3.403.54 5.07.54 6.627 5.4 12.106 11.93 13.443 6.34 1.309 13.023 2.036 19.78 2.036 25.45 0 45.97-10.17 59.71-19.82 9.23-6.497 14.73-17.116 14.73-28.404-.01-11.287-5.51-21.896-14.72-28.373-28.013-19.679-60.439-25.446-94.37-13.583-2.95 1.128-7.21 3.054-11.35 4.88-3.38 2.096-5.82 5.469-6.71 9.401-3.389 14.926 15.183 15.483 20.46 55.35z" fill="#f09b00"/></g><path d="m350.55 336.619c-4.59 8.024-7.91 16.627-9.83 25.379-8.62 39.382-33.67 63.933-69.72 69.162-4.81.699-15-7.056-15-7.056s-10.19 7.755-15 7.056c-36.05-5.23-61.1-29.781-69.72-69.162-1.92-8.753-5.24-17.355-9.83-25.379-28.724-50.193-36.511-114.381-27.49-153.434 6.7-29.511 19.91-42.615 28.8-53.713 5.14 1.757 16.41 7.335 22.33 9.282 13.7 4.461 38.6 8.274 60.81-11.218 2.86-2.605 6.48-3.902 10.1-3.902s7.24 1.297 10.1 3.902c22.21 19.491 47.11 15.679 60.81 11.218 5.92-1.946 17.19-7.525 22.33-9.282 8.89 11.098 22.1 24.202 28.8 53.713 8.85 38.317 1.67 102.48-27.49 153.434z" fill="#ffd18b"/><path d="m350.55 336.619c-4.59 8.024-7.91 16.627-9.83 25.379-8.62 39.382-33.67 63.933-69.72 69.162-4.81.699-15-7.056-15-7.056v-300.47c3.62 0 7.24 1.297 10.1 3.902 22.21 19.491 47.11 15.679 60.81 11.218 5.92-1.946 17.19-7.525 22.33-9.282 8.89 11.098 22.1 24.202 28.8 53.713 8.85 38.317 1.67 102.48-27.49 153.434z" fill="#ffb22a"/><g><ellipse cx="203.45" cy="252.054" fill="#525e63" rx="15" ry="14.97"/></g><g><ellipse cx="308.55" cy="252.054" fill="#414c51" rx="15" ry="14.97"/></g><g><path d="m286.81 364.475c-4.55 4.541-9.94 7.944-15.81 10.09v56.527c-4.54.659-9.25 1.008-14.13 1.048-.29.01-.58.01-.87.01-5.19 0-10.19-.359-15-1.058v-56.527c-5.87-2.146-11.26-5.549-15.81-10.09-5.86-5.848-5.87-15.32-.01-21.178 5.85-5.848 15.35-5.848 21.21-.01 2.57 2.565 5.98 3.972 9.61 3.972.29 0 .58-.01.87-.03 3.3-.2 6.38-1.587 8.74-3.942 5.86-5.838 15.36-5.838 21.21.01 5.86 5.858 5.85 15.33-.01 21.178z" fill="#d66823"/></g><path d="m286.81 364.544c-4.55 4.541-9.94 7.944-15.81 10.09v56.527c-4.54.659-9.25 1.008-14.13 1.048-.29.01-.58.01-.87.01v-84.891c.29 0 .58-.01.87-.03 3.3-.2 6.38-1.587 8.74-3.942 5.86-5.838 15.36-5.838 21.21.01 5.86 5.858 5.85 15.329-.01 21.178z" fill="#9a4916"/></g></svg>