<svg id="Capa_1" enable-background="new 0 0 512 512" height="512" viewBox="0 0 512 512" width="512" xmlns="http://www.w3.org/2000/svg"><g><g><path d="m461.102 262.33s14.34 111.34 10.95 117.88c-42.5 82.02-126.36 131.79-216.33 131.79-91.42 0-174.79-51.25-216.38-131.77-17.08-32.83 3-112.32 3-112.32s-28.55-56.09-25.56-71.36c1.9-9.72 4.39-19.27 7.43-28.6 13.54-41.52 52.92-72.17 85.94-101.1 44.22-38.77 86.8-56.37 145.57-56.49h.58c65.04 0 117.63 21.67 163.62 67.65 27.55 27.55 55.66 53.75 67.38 89.99 3.02 9.3 5.48 18.83 7.36 28.55 9.56 48.76-33.56 65.78-33.56 65.78z" fill="#ffd18b"/></g><path d="m461.102 262.33s14.34 111.34 10.95 117.88c-42.5 82.02-126.36 131.79-216.33 131.79v-501.64h.58c65.04 0 117.63 21.67 163.62 67.65 27.55 27.55 55.66 53.75 67.38 89.99 3.02 9.3 5.48 18.83 7.36 28.55 9.56 48.76-33.56 65.78-33.56 65.78z" fill="#ffb22a"/><path d="m318.762 404.69c-5.86-5.86-15.36-5.87-21.22-.01-7.55 7.54-16.77 12.79-26.82 15.41v-39.91c.71-.25 1.41-.52 2.1-.81 5.31-2.2 10.19-5.45 14.37-9.64 7.93-7.96 13.41-16.39 16.29-25.08 4.43-13.38-.78-28.12-12.66-35.83-10.44-6.77-22.55-10.35-35.02-10.35h-.08c-12.79.02-25.15 3.77-35.75 10.89-11.25 7.54-16.15 21.31-12.18 34.26 2.78 9.05 8.37 17.84 16.62 26.11 4.68 4.69 10.24 8.21 16.31 10.39v39.97c-10.05-2.62-19.27-7.87-26.82-15.41-5.86-5.86-15.36-5.85-21.22.01-5.85 5.86-5.85 15.36.02 21.21 16.85 16.83 39.23 26.1 63.02 26.1s46.17-9.27 63.02-26.1c5.87-5.85 5.87-15.35.02-21.21z" fill="#525e63"/><g><path d="m169.202 312.57c-.03.02-.06.04-.1.05l-129.76 67.61c-17.084-32.825-27.1-70.888-27.1-111.71v-25.04c0-15.955 1.574-31.926 4.54-46.93l102.71-20.07c36.65-7.9 73.12 12.96 84.88 48.59 11.117 33.851-3.582 70.73-35.17 87.5z" fill="#d66823"/></g><g><circle cx="136.512" cy="247.328" fill="#525e63" r="15"/></g><g><path d="m481.422 359.96v.01c-2.999 7.317-5.989 13.822-9.33 20.26l-129.75-67.61c-.04-.01-.07-.03-.1-.05-31.705-16.832-46.251-53.795-35.17-87.49 11.76-35.64 48.24-56.51 84.88-48.6l102.71 20.07c9.559 48.762 5.958 116.733-13.24 163.41z" fill="#9a4916"/></g><g><circle cx="374.932" cy="247.328" fill="#414c51" r="15"/></g><g><path d="m487.302 168c-49.02-34.34-100.55-43.49-153.24-27.2-41.17 12.73-67.91 36.97-68.18 37.21-5.756 5.295-14.632 5.269-20.33-.01-.64-.57-27.29-24.55-68.17-37.2-52.66-16.28-104.18-7.15-153.17 27.15 13.47-41.29 37.92-78.56 71.09-107.63 44.37-38.9 101.35-60.32 160.42-60.32 65.04 0 126.18 25.33 172.17 71.31 27.55 27.55 47.69 60.45 59.41 96.69z" fill="#d66823"/></g><path d="m487.302 168c-49.02-34.34-100.55-43.49-153.24-27.2-41.17 12.73-67.91 36.97-68.18 37.21-2.87 2.64-6.51 3.96-10.16 3.96v-181.97c65.04 0 126.18 25.33 172.17 71.31 27.55 27.55 47.69 60.45 59.41 96.69z" fill="#9a4916"/><path d="m318.742 425.9c-16.85 16.83-39.23 26.1-63.02 26.1v-153.53h.08c12.47 0 24.58 3.58 35.02 10.35 11.88 7.71 17.09 22.45 12.66 35.83-2.88 8.69-8.36 17.12-16.29 25.08-4.18 4.19-9.06 7.44-14.37 9.64-.69.29-1.39.56-2.1.81v39.91c10.05-2.62 19.27-7.87 26.82-15.41 5.86-5.86 15.36-5.85 21.22.01 5.85 5.86 5.85 15.36-.02 21.21z" fill="#414c51"/></g></svg>