<svg id="Capa_1" enable-background="new 0 0 512 512" height="512" viewBox="0 0 512 512" width="512" xmlns="http://www.w3.org/2000/svg"><g><g><path d="m271 15.002v50.89c0 8.28-6.72 15-15 15s-15-6.72-15-15v-50.89c0-8.28 6.72-15 15-15 8.28 0 15 6.72 15 15z" fill="#525e63"/></g><path d="m271 15.002v50.89c0 8.28-6.72 15-15 15v-80.89c8.28 0 15 6.72 15 15z" fill="#414c51"/><g><path d="m324.716 508.932c-6.59-5.02-7.864-14.431-2.844-21.021l27.378-35.945v-53.38l-42.477-42.117c-5.882-5.833-5.923-15.33-.09-21.213 5.833-5.882 15.331-5.923 21.213-.09l46.915 46.517c2.84 2.816 4.438 6.651 4.438 10.651v64.692c0 3.283-1.078 6.477-3.067 9.089l-30.446 39.972c-5.011 6.582-14.422 7.871-21.02 2.845z" fill="#414c51"/></g><g><path d="m438.569 466.743c-8.284 0-15-6.716-15-15v-63.003l-52.784-61.451h-44.895c-8.284 0-15-6.716-15-15s6.716-15 15-15h51.785c4.374 0 8.529 1.909 11.379 5.227l60.894 70.893c2.337 2.72 3.622 6.187 3.622 9.773v68.56c-.001 8.286-6.716 15.001-15.001 15.001z" fill="#414c51"/></g><g><path d="m479.909 343.31c-8.061.001-14.722-6.401-14.983-14.517l-1.249-38.756-61.334-31.509-86.082 26.154c-7.927 2.409-16.304-2.065-18.713-9.992-2.409-7.926 2.065-16.305 9.991-18.713l91.894-27.92c3.727-1.131 7.75-.77 11.215 1.01l74.591 38.319c4.847 2.49 7.962 7.413 8.138 12.859l1.533 47.58c.267 8.28-6.229 15.209-14.509 15.475-.165.007-.329.01-.492.01z" fill="#414c51"/></g><g><path d="m344.688 192.858c-2.901-7.76 1.038-16.402 8.798-19.303l76.049-28.431v-80.723l-25.247-41.619c-4.297-7.083-2.038-16.309 5.045-20.605 7.083-4.295 16.308-2.038 20.604 5.045l27.422 45.206c1.423 2.345 2.175 5.036 2.175 7.779v95.325c0 6.258-3.885 11.858-9.748 14.05l-85.796 32.075c-7.759 2.898-16.4-1.038-19.302-8.799z" fill="#414c51"/></g><g><path d="m178.207 512c-4.522 0-8.993-2.037-11.944-5.912l-30.446-39.972c-1.989-2.612-3.067-5.806-3.067-9.089v-64.692c0-4 1.598-7.835 4.438-10.651l46.915-46.517c5.883-5.834 15.38-5.793 21.213.09s5.792 15.38-.09 21.213l-42.477 42.117v53.38l27.378 35.945c7.556 9.918.36 24.088-11.92 24.088z" fill="#525e63"/></g><g><path d="m73.431 466.743c-8.284 0-15-6.716-15-15v-68.56c0-3.586 1.285-7.054 3.622-9.773l60.894-70.893c2.85-3.317 7.005-5.227 11.379-5.227h51.785c8.284 0 15 6.716 15 15s-6.716 15-15 15h-44.896l-52.784 61.451v63.003c0 8.284-6.716 14.999-15 14.999z" fill="#525e63"/></g><g><path d="m32.091 343.31c-.164 0-.327-.003-.492-.008-8.28-.267-14.776-7.195-14.509-15.475l1.533-47.58c.175-5.446 3.291-10.369 8.138-12.859l74.591-38.319c3.466-1.779 7.487-2.141 11.215-1.01l91.894 27.92c7.926 2.408 12.4 10.787 9.991 18.713-2.408 7.926-10.783 12.398-18.713 9.992l-86.082-26.154-61.334 31.509-1.249 38.756c-.261 8.113-6.922 14.515-14.983 14.515z" fill="#525e63"/></g><g><path d="m148.009 201.656-85.796-32.075c-5.862-2.191-9.748-7.792-9.748-14.05v-95.324c0-2.743.752-5.435 2.175-7.779l27.423-45.206c4.296-7.081 13.522-9.34 20.604-5.045 7.083 4.297 9.342 13.522 5.045 20.605l-25.247 41.619v80.724l76.049 28.431c7.76 2.9 11.699 11.543 8.798 19.303-2.9 7.753-11.536 11.698-19.303 8.797z" fill="#525e63"/></g><g><path d="m226 432.089c-8.284 0-15-6.716-15-15v-41.66c0-8.284 6.716-15 15-15s15 6.716 15 15v41.66c0 8.285-6.716 15-15 15z" fill="#525e63"/></g><g><path d="m286 432.089c-8.284 0-15-6.716-15-15v-41.66c0-8.284 6.716-15 15-15s15 6.716 15 15v41.66c0 8.285-6.716 15-15 15z" fill="#414c51"/></g><g><path d="m320.46 282.65c-6.621 4.592-15.691 3.149-20.54-3.3-10.5-13.94-26.51-21.94-43.92-21.94s-33.42 8-43.92 21.94c-4.84 6.44-13.91 7.9-20.54 3.3-33.65-23.37-53.75-62.89-53.75-105.699 0-24.15 6.4-46.74 17.5-65.93 20.82-36.05 58.18-43.382 100.71-43.382 15 0 57.036 59.235 57.036 59.235s62.27 117.686 7.424 155.776z" fill="#add3d8"/></g><path d="m320.46 282.65c-6.621 4.592-15.691 3.149-20.54-3.3-10.5-13.94-26.51-21.94-43.92-21.94v-193.829c41.96 0 78.88 10.741 99.86 45.98 34.29 57.573 19.446 134.999-35.4 173.089z" fill="#81a1b1"/><g><path d="m319.244 312.29c0 46.81-37.683 84.89-63.244 84.89-46.81 0-84.89-38.08-84.89-84.89 0-46.335 37.325-84.88 84.89-84.88 20.602.001 63.244 38.511 63.244 84.88z" fill="#5a7983"/></g><g><path d="m332.003 111.58c-22.51 30.91-35.003 49.101-76.003 49.411-.33.01-.65.01-.98.01-40.74 0-76.98-19.65-99.73-49.98 20.82-36.05 58.18-60.13 100.71-60.13 31.525 10.038 55.023 25.449 76.003 60.689z" fill="#81a1b1"/></g><path d="m355.86 109.561c-22.51 30.91-58.86 51.12-99.86 51.43v-110.099c41.96 0 78.88 23.429 99.86 58.669z" fill="#5a7983"/><path d="m340.89 312.29c0 46.81-38.08 84.89-84.89 84.89v-169.769c47.532 0 84.89 38.51 84.89 84.879z" fill="#525e63"/></g></svg>