<svg id="Capa_1" enable-background="new 0 0 512 512" height="512" viewBox="0 0 512 512" width="512" xmlns="http://www.w3.org/2000/svg"><g><g><path d="m270.989 376.29v83.62c0 13.76-5.369 26.3-14.128 35.62-.29.31-.58.61-.87.91-9.449 9.6-22.578 15.56-37.086 15.56-28.717 0-52.084-23.37-52.084-52.09v-29.24c0-12.18-9.909-22.09-22.088-22.09h-28.807c-8.289 0-14.998-6.71-14.998-15 0-8.28 6.709-15 14.998-15h28.807c28.717 0 52.084 23.37 52.084 52.09v29.24c0 12.18 9.909 22.09 22.087 22.09 12.179 0 22.088-9.91 22.088-22.09v-83.62c0-8.855 7.582-15.542 15.868-14.97 7.879.45 14.129 6.98 14.129 14.97z" fill="#525e63"/></g><path d="m270.989 376.29v83.62c0 13.76-5.369 26.3-14.128 35.62-.29.31-.58.61-.87.91v-135.15c8.225 0 14.998 6.669 14.998 15z" fill="#414c51"/><g><path d="m285.987 61.899c-8.283 0-14.998-6.716-14.998-15v-31.899c0-8.284 6.715-15 14.998-15s14.998 6.716 14.998 15v31.899c0 8.284-6.715 15-14.998 15z" fill="#5a7983"/></g><g><path d="m225.93 61.899c-8.283 0-14.998-6.716-14.998-15v-31.899c0-8.284 6.715-15 14.998-15s14.998 6.716 14.998 15v31.899c.001 8.284-6.715 15-14.998 15z" fill="#81a1b1"/></g><g><path d="m232.593 238.54v96.34c0 6.74-4.489 12.65-10.979 14.45l-20.428 5.68c-24.106 6.685-49.385-5.732-58.793-28.93l-27.687-68.29c-3.658-9.039 2.134-19.014 11.629-20.46l89-13.61c9.07-1.407 17.258 5.639 17.258 14.82z" fill="#81a1b1"/></g><g><path d="m279.388 238.54v96.34c0 6.74 4.489 12.65 10.979 14.45l20.428 5.68c24.106 6.685 49.385-5.732 58.793-28.93l27.687-68.29c3.658-9.039-2.134-19.014-11.629-20.46l-89-13.61c-9.07-1.407-17.258 5.639-17.258 14.82z" fill="#5a7983"/></g><g><path d="m494.874 263.18c-29.057-3.91-84.57-7.68-130.655 10.83-30.387 12.2-52.174 40.04-56.874 72.67-2.513 22.608-23.112 44.127-50.484 44.6-.29.01-.58.01-.87.01-.01 0-.01 0-.02 0-25.899 0-47.713-19.06-51.364-44.54-4.68-32.67-26.467-60.55-56.874-72.76-57.688-23.152-128.313-10.66-132.736-10.66-11.68 0-18.796-12.773-12.859-22.7 17.739-30.122 59.292-76.155 101.419-100.23.08-.05.15-.09.23-.13 13.968-7.66 30.297-16.11 48.155-22.55 6.849-51.462 50.881-90.97 104.049-90.97.29 0 .58 0 .87.01 52.966.41 96.398 39.96 103.189 90.96 17.798 6.42 34.146 14.88 48.135 22.55.08.04.16.08.24.13 33.176 18.96 57.424 44.24 74.832 64.14.11.13.22.25.32.38 9.219 11.26 18.738 22.9 26.327 35.81 6.381 10.86-2.71 24.191-15.03 22.45z" fill="#add3d8"/></g><path d="m494.874 263.18c-29.057-3.91-84.57-7.68-130.655 10.83-30.387 12.2-52.174 40.04-56.874 72.67-2.513 22.608-23.112 44.127-50.484 44.6-.29.01-.58.01-.87.01v-364.54c.29 0 .58 0 .87.01 52.966.41 96.398 39.96 103.189 90.96 17.798 6.42 34.146 14.88 48.135 22.55.08.04.16.08.24.13 33.176 18.96 57.424 44.24 74.832 64.14.11.13.22.25.32.38 9.219 11.26 18.738 22.9 26.327 35.81 6.381 10.86-2.71 24.191-15.03 22.45z" fill="#81a1b1"/><g><g><circle cx="225.994" cy="111.844" fill="#525e63" r="14.999"/></g><g><circle cx="285.987" cy="111.844" fill="#414c51" r="14.999"/></g></g></g></svg>