<svg id="Capa_1" enable-background="new 0 0 512 512" height="512" viewBox="0 0 512 512" width="512" xmlns="http://www.w3.org/2000/svg"><g><g><path d="m213.871 423.59c-8.84 13.2-20.35 23.95-34.2 31.94l-51.05 29.47c-7.171 4.132-16.339 1.693-20.49-5.49-27.75-48.07-12.87-109.09 33.88-138.92 7.215-4.609 16.83-2.247 21.08 5.17 4.08 7.11 8.65 14.13 13.58 20.87 10.23 13.95 21.82 26.46 34.44 37.17 5.82 4.93 7.01 13.45 2.76 19.79z" fill="#70dd59"/></g><g><path d="m271.001 446.15v50.85c0 8.28-6.72 15-15 15s-15-6.72-15-15v-50.85c0-8.28 6.72-15 15-15s15 6.72 15 15z" fill="#70dd59"/></g><path d="m271.001 446.15v50.85c0 8.28-6.72 15-15 15v-80.85c8.28 0 15 6.72 15 15z" fill="#2bb65e"/><g><path d="m403.871 479.51c-4.146 7.174-13.311 9.627-20.49 5.49l-51.05-29.47c-13.85-7.99-25.36-18.74-34.2-31.94-4.25-6.34-3.06-14.86 2.76-19.79 18.871-16.015 35.4-36.078 48.02-58.04 4.265-7.443 13.891-9.762 21.08-5.17 46.75 29.83 61.63 90.85 33.88 138.92z" fill="#2bb65e"/></g><g><path d="m485.351 147.14c-7.28 7.27-16.91 11.25-27.13 11.25h-18.57c-10.72 0-20.95 5.13-27.37 13.72l-15.7 21.04c-5.712 7.665-17.091 8.108-23.38.83l-49.12-56.95c-4.32-5.01-4.85-12.26-1.3-17.85l8.72-13.72c15.57-24.5 44.16-37.39 72.84-32.82l59.89 9.52c31.349 4.968 42.94 43.13 21.12 64.98z" fill="#2bb65e"/></g><g><path d="m187.921 137.03-49.12 56.95c-6.276 7.264-17.656 6.851-23.38-.83l-15.7-21.04c-6.42-8.59-16.65-13.72-27.37-13.72h-18.57c-10.22 0-19.85-3.98-27.1-11.22-7.26-7.28-11.25-16.91-11.25-27.14 0-18.97 13.6-34.9 32.34-37.87l59.9-9.52c28.67-4.57 57.26 8.32 72.83 32.83l8.72 13.71c3.55 5.59 3.02 12.84-1.3 17.85z" fill="#70dd59"/></g><g><path d="m317.771 61.77v51.63c0 10.043-9.72 17.244-19.27 14.38-23.01-6.84-42.31-6.93-42.5-6.93s-19.49.09-42.49 6.93c-9.635 2.865-19.28-4.384-19.28-14.38v-51.63c0-34.06 27.71-61.77 61.77-61.77 34.054 0 61.77 27.535 61.77 61.77z" fill="#70dd59"/></g><path d="m317.771 61.77v51.63c0 10.043-9.72 17.244-19.27 14.38-23.01-6.84-42.31-6.93-42.5-6.93v-120.85c34.054 0 61.77 27.535 61.77 61.77z" fill="#2bb65e"/><g><path d="m259.531 460.73c-1.04.25-2.23.34-3.53.28-10.58-.38-28.68-9.77-36.2-14.2-44.6-26.24-92.84-81.12-109.41-154.49v-.01c-2.22-9.74-3.83-19.62-4.84-29.61-1.46-14.41-1.67-29.02-.6-43.7 2.94-40.09 19.37-70.49 45.31-91.81 31.32-25.84 76.73-36.34 105.74-36.34 2.41 0 24.33.23 51.04 8.17 25.51 7.6 46.73 19.61 63.07 35.7 22 21.67 34.43 50.03 36.94 84.28 9.874 134.825-88.885 227.52-147.52 241.73z" fill="#f09b00"/></g><path d="m259.531 460.73c-1.04.25-2.23.34-3.53.28v-370.16c2.41 0 24.33.23 51.04 8.17 25.51 7.6 46.73 19.61 63.07 35.7 22 21.67 34.43 50.03 36.94 84.28 9.874 134.825-88.885 227.52-147.52 241.73z" fill="#d66823"/><path d="m330.881 258.5-30.71-53.18c-2.53-4.71-7.5-7.92-13.23-7.92h-53.857l-57.703-86.62c-9.19 4.72-17.58 10.19-25.12 16.41l57.154 85.786-22.601 39.13-79.263 10.594c1.01 9.99 2.62 19.87 4.84 29.61l75.754-10.111 21.88 37.89-41.264 82.051c7.04 8 14.51 15.45 22.36 22.31l45.186-89.85h52.634c5.36 0 10.31-2.86 12.99-7.5l30.95-53.6c2.68-4.64 2.68-10.36 0-15z" fill="#d66823"/><path d="m402.131 290.58c2.06-9.42 3.63-19.31 4.57-29.67l-79.606-8.966-22.497-38.957 57.313-85.666c-7.53-6.22-15.91-11.71-25.09-16.44l-57.881 86.519h-22.939v137.2h21.734l45.456 89.52c7.72-6.79 15.23-14.29 22.3-22.32l-41.495-81.74 21.975-38.057z" fill="#9a4916"/></g></svg>