<svg id="Capa_1" enable-background="new 0 0 512 512" height="512" viewBox="0 0 512 512" width="512" xmlns="http://www.w3.org/2000/svg"><g><g><path d="m344.04 418.45c-52.606 31.124-123.86 31.156-176.52 0-12.008-7.093-8.571-25.357 5.16-27.654 9.17-1.548 18.23-5.353 26.21-11.016 32.939-23.37 80.896-23.336 113.78 0 7.98 5.663 17.04 9.468 26.21 11.016 13.76 2.302 17.143 20.575 5.16 27.654z" fill="#525e63"/></g><path d="m344.04 418.45c-23.376 13.83-55.195 23.336-88.04 23.379v-79.566c20.69.04 40.81 6.262 56.67 17.517 7.98 5.663 17.04 9.468 26.21 11.016 13.76 2.302 17.143 20.575 5.16 27.654z" fill="#414c51"/><g><path d="m431.54 382.727c-13.9 100.188-74.39 126.973-76.96 128.062-9.917 4.215-20.87-3.098-20.87-13.782v-90.391c0-8.269 6.72-14.98 15-14.98 23.233 0 42.597-7.936 57.78-21.961 10.361-9.549 26.974-.819 25.05 13.052z" fill="#d8c5c5"/></g><g><path d="m177.85 406.616v90.391c0 10.703-10.972 17.988-20.87 13.782-2.57-1.089-63.06-27.873-76.96-128.062-1.927-13.891 14.704-22.587 25.05-13.053 15.13 13.976 34.475 21.961 57.78 21.961 8.28 0 15 6.711 15 14.981z" fill="#f2e4e4"/></g><g><path d="m442.3 262.24c-1.29 13.5-17.3 19.01-26.02 9.01-15.85-18.2-39.9-28.64-65.97-28.64h-189.06c-27.58 0-51.16 11.61-65.97 28.64-8.73 10.03-24.73 4.47-26.02-9.01-.15-1.58-.28-3.17-.38-4.77-1.37-20.11.54-42.43 5.67-66.42 5.033-23.505 11.801-44.114 13.99-49.59 34.02-94.629 100.77-141.649 167.46-141.459 65.61.19 131.17 46.06 165.47 137.23 6 16.111 11.181 33.518 15.54 53.82 4.982 23.298 7.5 47.659 5.29 71.189z" fill="#add3d8"/></g><path d="m442.3 262.24c-1.29 13.5-17.3 19.01-26.02 9.01-15.85-18.2-39.9-28.64-65.97-28.64h-94.31v-242.609c65.61.19 131.17 46.06 165.47 137.23 6 16.111 11.181 33.518 15.54 53.82 4.982 23.298 7.5 47.659 5.29 71.189z" fill="#81a1b1"/><g><path d="m463.34 321.697c0 90.354-101.951 141.963-167.82 95.265-7.332-5.192-15.835-8.684-24.741-10.5-4.848-.988-9.816-10.987-14.779-10.986-5.124.001-10.243 10.034-15.219 11.082-8.79 1.85-17.138 5.326-24.291 10.403-65.577 46.45-167.83-4.56-167.83-95.265 0-31.65 13.249-61.426 33.88-79.186 21.2-18.166 49.23-28.183 78.93-28.183h189.06c34.49 0 66.62 13.532 88.15 37.121.25.27.49.559.72.849 15.66 19.975 23.94 43.974 23.94 69.4z" fill="#81a1b1"/></g><path d="m463.34 321.697c0 90.354-101.951 141.963-167.82 95.265-6.94-4.919-15.392-8.591-24.741-10.502-4.724-.966-9.677-10.983-14.779-10.983v-181.149h94.53c34.49 0 66.62 13.532 88.15 37.121.25.27.49.559.72.849 15.66 19.974 23.94 43.973 23.94 69.399z" fill="#5a7983"/><g><ellipse cx="161.447" cy="156.514" fill="#525e63" rx="15" ry="14.98"/></g><g><ellipse cx="350.228" cy="156.514" fill="#414c51" rx="15" ry="14.98"/></g><g><path d="m316.28 214.328c-.69 9.61-6.692 24.574-22.19 40.097-6.418 6.422-14.38 11.207-23.31 13.742v138.288c-10.119-2.055-20.437-1.919-30 .1v-138.418c-8.69-2.497-16.65-7.161-23.19-13.712-15.458-15.468-21.527-30.539-22.29-40.097-1-12.713 5-25.457 16.02-32.737 26.695-17.666 61.322-17.785 88.08-.629 11.54 7.41 17.81 20.313 16.88 33.366z" fill="#5a7983"/></g><path d="m316.28 214.328c-.69 9.61-6.692 24.574-22.19 40.097-6.418 6.422-14.38 11.207-23.31 13.742v138.288c-4.709-.957-9.614-1.478-14.78-1.478v-236.758c15.44.03 30.44 4.434 43.4 12.743 11.54 7.41 17.81 20.313 16.88 33.366z" fill="#525e63"/></g></svg>