<svg id="Capa_1" enable-background="new 0 0 512 512" height="512" viewBox="0 0 512 512" width="512" xmlns="http://www.w3.org/2000/svg"><g><g><path d="m374.233 464.719c-48.982-28.597-38.334-22.38-53.176-31.05-16.769-9.79-28.588-26.33-32.408-45.39l-2.56-12.72c-1.85-9.272 5.24-17.96 14.709-17.96h74.365c4.98 0 9.629 2.47 12.419 6.59l33.898 50.01c21.178 31.278-14.676 69.52-47.247 50.52z" fill="#81a1b1"/></g><path d="m374.233 464.719-41.707-24.35v-82.77h42.637c4.98 0 9.629 2.47 12.419 6.59l33.898 50.01c21.178 31.278-14.676 69.52-47.247 50.52z" fill="#5a7983"/><g><path d="m511.964 230.519c0 38.289.037 62.049.036 77.08 0 5.894-7.94 13.875-7.94 13.875s7.667 12.889 7.143 16.125c-4.54 28.31-29.138 50-58.716 50h-197.545c-46.007 0-90.493-16.55-125.261-46.62-42.167-36.45-66.345-89.3-66.345-145v-65.42c0-9.528 8.828-16.715 18.229-14.64 12.352 2.731 24.896 1.86 35.627-1.82 7.429-2.53 15.549 1.09 18.639 8.31 11.829 27.72 40.957 48.63 67.745 48.63h248.912c32.798 0 59.476 26.69 59.476 59.48z" fill="#add3d8"/></g><path d="m511.964 230.519c0 38.289.037 62.049.036 77.08 0 6.072-7.94 13.875-7.94 13.875s7.662 12.917 7.143 16.125c-4.54 28.31-29.138 50-58.716 50h-119.961v-216.56h119.961c32.799 0 59.477 26.69 59.477 59.48z" fill="#81a1b1"/><g><path d="m192.266 51.379c0 41.168-26.216 77.939-65.455 91.13-62.317 21.112-126.811-25.763-126.811-91.13 0-8.28 6.719-15 14.999-15h162.268c8.28 0 14.999 6.72 14.999 15z" fill="#81a1b1"/></g><g><path d="m511.964 307.599c0 21.983.209 24.011-.76 30h-87.424c-21.059 0-41.377-7.64-57.226-21.52-6.23-5.46-6.85-14.94-1.39-21.17s14.939-6.86 21.169-1.4c10.369 9.09 23.668 14.09 37.447 14.09z" fill="#525e63"/></g><g><circle cx="372.244" cy="245.053" fill="#525e63" r="14.999"/></g><g><path d="m407.521 84.189c0 8.29-6.72 15-14.999 15s-14.999-6.71-14.999-15c0-8.361-6.808-15-14.999-15-8.269 0-14.999 6.73-14.999 15v53.3c0 8.29-6.719 15-14.999 15-8.279 0-14.999-6.71-14.999-15v-53.3c0-8.27-6.729-15-14.999-15-8.223 0-14.999 6.671-14.999 15 0 8.29-6.719 15-14.999 15s-14.999-6.71-14.999-15c0-25.072 20.35-45 44.997-45 11.519 0 22.028 4.35 29.998 11.5 7.969-7.15 18.479-11.5 29.998-11.5 24.646 0 44.997 19.927 44.997 45z" fill="#81a1b1"/></g><g><path d="m283.43 343.269-53.716 112.15c-7.421 15.49-23.582 22.968-39.837 19.27-16.509-3.76-27.608-17.65-27.608-34.59v-61.58c0-19.43 8.329-37.97 22.838-50.87l35.577-31.63c32.697-29.064 81.623 7.821 62.746 47.25z" fill="#81a1b1"/></g><path d="m407.521 84.189c0 8.29-6.72 15-14.999 15s-14.999-6.71-14.999-15c0-8.361-6.808-15-14.999-15-8.269 0-14.999 6.73-14.999 15v53.3c0 8.29-6.719 15-14.999 15v-101.8c7.969-7.15 18.479-11.5 29.998-11.5 24.646 0 44.997 19.927 44.997 45z" fill="#5a7983"/></g></svg>