<svg id="Capa_1" enable-background="new 0 0 512 512" height="512" viewBox="0 0 512 512" width="512" xmlns="http://www.w3.org/2000/svg"><g><g><path d="m164.59 87.038c-8.84 5.76-16.72 12.46-23.44 19.91-13.52 14.95-22.85 33.461-27.75 55.052-.4 1.8-.72 3.29-.98 4.68-.98 5.05-4.47 9.25-9.26 11.13-1.77.69-3.62 1.03-5.47 1.03-3.15 0-6.27-.99-8.88-2.91-20.02-14.7-35.29-33.761-45.37-56.652-13.12-29.81-16.99-65.451-11.49-105.922.91-6.73 6.23-12 12.96-12.86.83-.11 20.71-2.54 45.76 4.47 23.09 6.47 55.49 22.461 78.66 61.912 4.06 6.909 1.97 15.78-4.74 20.16z" fill="#5a7983"/></g><g><path d="m468.56 119.279c-10.08 22.891-25.35 41.951-45.37 56.652-2.61 1.92-5.73 2.91-8.88 2.91-1.85 0-3.7-.34-5.47-1.03-4.79-1.88-8.28-6.08-9.26-11.13-.26-1.39-.58-2.88-.99-4.7-4.89-21.571-14.22-40.081-27.73-55.022-6.73-7.46-14.61-14.16-23.45-19.92-6.71-4.38-8.8-13.25-4.74-20.161 23.17-39.451 55.57-55.442 78.66-61.912 25.05-7.01 44.93-4.58 45.76-4.47 6.73.86 12.05 6.13 12.96 12.86 5.5 40.471 1.63 76.112-11.49 105.923z" fill="#525e63"/></g><g><path d="m432.38 219.651c-1.78 37.271-9.03 69.632-17.77 96.033-1.55 4.69-14.86 9.11-14.86 9.11s5.92 15.03 3.83 19.87c-6.83 15.78-12.83 25.951-17.92 35.811-5.09 9.87-21.85 19.441-25.04 34.021-13.16 60.242-41.69 81.092-104.39 81.152h-.27c-64.64-.01-92.86-22.011-105.61-80.362-3.24-14.79-18.81-24.801-23.8-34.421-5.02-9.68-11.01-19.741-18.15-36.231-.46-1.06 3.51-19.411 3.51-19.411s-11.45-.21-14.54-9.56c-9.9-29.981-16.12-62.192-17.74-95.953 0-.79 11.89-20.371 11.89-20.371s-12.28-6.6-11.98-11.49c4.29-69.182 39.58-116.263 93.38-139.244 3.64-1.61 15.19 4.54 15.19 4.54s4.26-12.46 13.74-15.17c9.93-2.83 23.39-5.83 39.15-7.22 4.73-.42 14.77 8.6 14.77 8.6s.16-.14.46-.39c2.07-1.71 10.63-8.58 14.77-8.21 15.76 1.39 29.22 4.39 39.15 7.22 9.48 2.71 13.55 18.561 13.55 18.561 3.23-2.6 11.56-8.85 15.6-7.84 54.92 24.201 89.07 71.072 93.08 139.154.28 4.66-7.41 13.87-7.41 13.87s7.69 12.191 7.41 17.931z" fill="#f2e4e4"/></g><path d="m432.38 219.651c-1.78 37.271-9.03 69.632-17.77 96.033-1.55 4.69-14.86 9.11-14.86 9.11s5.92 15.03 3.83 19.87c-6.83 15.78-12.83 25.951-17.92 35.811-5.09 9.87-21.85 19.441-25.04 34.021-13.16 60.242-41.69 81.092-104.39 81.152v-456.682c2.07-1.71 10.63-8.58 14.77-8.21 15.76 1.39 29.22 4.39 39.15 7.22 9.48 2.71 13.55 18.561 13.55 18.561 3.23-2.6 11.56-8.85 15.6-7.84 54.92 24.201 89.07 71.072 93.08 139.154.28 4.66-7.41 13.87-7.41 13.87s7.69 12.19 7.41 17.93z" fill="#d8c5c5"/><g><path d="m271 271.973v61.592c0 8.28-6.72 15-15 15h-.04c-8.26-.02-14.96-6.73-14.96-15v-61.592c0-8.27 6.7-14.98 14.96-15h.04c8.28 0 15 6.72 15 15z" fill="#5a7983"/></g><path d="m271 271.973v61.592c0 8.28-6.72 15-15 15h-.04v-91.593h.04c8.28.001 15 6.721 15 15.001z" fill="#525e63"/><path d="m385.34 380.846c-1.42 2.76-2.74 5.55-3.94 8.33l-.35.82c-.19.46-.38.91-.57 1.37-.02.04-.04.09-.05.13-3.09 7.45-5.52 15.19-7.23 23.001-3.7 16.94-11.9 41.361-29.9 61.492-21.37 23.891-50.74 36.011-87.3 36.011h-.04c-36.54-.01-65.9-12.13-87.26-36.011-18-20.131-26.2-44.551-29.9-61.482-1.71-7.82-4.14-15.561-7.23-23.011-.01-.04-.03-.09-.05-.13-.19-.46-.38-.91-.57-1.37l-.35-.82c-1.21-2.79-2.53-5.59-3.96-8.36 27.18-20.011 21.03-15.481 46.69-34.721 24.03-18.001 52.6-27.521 82.63-27.531h.04c30.04 0 58.63 9.52 82.67 27.531 29.16 21.861 24.53 18.461 46.67 34.751z" fill="#81a1b1"/><path d="m385.34 380.846c-1.42 2.76-2.74 5.55-3.94 8.33l-.35.82c-.19.46-.38.91-.57 1.37-.02.04-.04.09-.05.13-3.09 7.45-5.52 15.19-7.23 23.001-3.7 16.94-11.9 41.361-29.9 61.492-21.37 23.891-50.74 36.011-87.3 36.011v-193.436c30.04 0 58.63 9.52 82.67 27.531 29.16 21.861 24.53 18.461 46.67 34.751z" fill="#5a7983"/><g><circle cx="166.379" cy="241.606" fill="#525e63" r="15"/></g><g><circle cx="345.621" cy="241.606" fill="#414c51" r="15"/></g><g><path d="m432.8 202.071c0 5.97-.14 11.84-.42 17.58-37.95-14.83-105.45-21.021-105.92-21.001-8.25.35-15.26-6.08-15.62-14.35-.35-8.27 6.05-15.26 14.32-15.631 1.97-.09 63.08 4.91 107.22 19.181.28 4.661.42 9.401.42 14.221z" fill="#525e63"/></g><g><path d="m414.61 315.684c-3.52 10.66-7.29 20.341-11.03 28.981-30.37-23.331-88.51-40.351-88.91-40.421-8.15-1.49-13.55-9.3-12.07-17.45 1.49-8.15 9.3-13.55 17.45-12.07 1.83.339 57.75 16.169 94.56 40.96z" fill="#525e63"/></g><g><path d="m79.12 202.071c0 5.97.14 11.84.42 17.58 37.95-14.83 105.45-21.021 105.92-21.001 8.25.35 15.26-6.08 15.62-14.35.35-8.27-6.05-15.26-14.32-15.631-1.97-.09-63.08 4.91-107.22 19.181-.28 4.661-.42 9.401-.42 14.221z" fill="#5a7983"/></g><g><path d="m97.31 315.684c3.52 10.66 7.29 20.341 11.03 28.981 30.37-23.331 88.51-40.351 88.91-40.421 8.15-1.49 13.55-9.3 12.07-17.45-1.49-8.15-9.3-13.55-17.45-12.07-1.83.339-57.75 16.169-94.56 40.96z" fill="#5a7983"/></g><g><path d="m271 30.756v57.272c0 8.29-6.72 15-15 15h-.04c-8.26-.02-14.96-6.72-14.96-15v-57.272c4.73-.42 9.66-.69 14.77-.77h.46c5.11.08 10.04.35 14.77.77z" fill="#5a7983"/></g><path d="m339.3 48.7-6.32 69.36c-.43 4.68-3.02 8.88-7 11.37l-35 21.82c-.18.3-22.45 38-22.7 38.25 0 .01-.01.01-.01.02-.02.02-.03.05-.05.07-1.36 2.22-6.11 6.19-11.99 6.3-3.92.07-8.35-1.56-12.64-6.57-.15-.15-22.46-37.89-22.57-38.07l-35-21.82c-3.98-2.49-6.57-6.69-7-11.37l-6.31-69.35c.07-.04.14-.07.21-.1 3.64-1.61 7.37-3.12 11.18-4.52 2-.86 8.27-3.4 17.75-6.11l6.37 69.94 31.78 19.81c2.04 1.27 3.74 3.02 4.97 5.09l10.99 18.56.04.07.23-.39 10.8-18.24c1.23-2.07 2.93-3.82 4.97-5.09l31.78-19.81 6.37-69.94c9.48 2.71 15.75 5.25 17.75 6.11 3.84 1.42 7.61 2.94 11.28 4.56.04.02.08.04.12.05z" fill="#5a7983"/><path d="m271 30.756v57.272c0 8.29-6.72 15-15 15v-73.042h.23c5.11.08 10.04.35 14.77.77z" fill="#525e63"/><g><path d="m224.522 453.144c-8.184-1.286-13.776-8.963-12.49-17.147.769-4.895-2.588-9.502-7.483-10.271-8.184-1.286-13.776-8.963-12.49-17.147s8.963-13.776 17.147-12.49c21.236 3.337 35.799 23.329 32.462 44.565-1.286 8.184-8.963 13.776-17.146 12.49z" fill="#525e63"/></g><g><path d="m287.478 453.144c8.184-1.286 13.776-8.963 12.49-17.147-.769-4.895 2.588-9.502 7.483-10.271 8.184-1.286 13.776-8.963 12.49-17.147s-8.963-13.776-17.147-12.49c-21.236 3.337-35.799 23.329-32.462 44.565 1.286 8.184 8.963 13.776 17.146 12.49z" fill="#414c51"/></g><path d="m339.3 48.7-6.32 69.36c-.43 4.68-3.02 8.88-7 11.37l-35 21.82c-.18.3-22.45 38-22.7 38.25 0 .01-.01.01-.01.02-.02.02-.03.05-.05.07-1.36 2.22-6.11 6.19-11.99 6.3v-44.83l10.8-18.24c1.23-2.07 2.93-3.82 4.97-5.09l31.78-19.81 6.37-69.94c10.39 2.97 22.841 7.938 29.03 10.67.04.02.08.04.12.05z" fill="#525e63"/></g></svg>