<svg version="1.1" id="Layer_1" xmlns="http://www.w3.org/2000/svg" xmlns:xlink="http://www.w3.org/1999/xlink" x="0px" y="0px"	 viewBox="0 0 511.998 511.998" style="enable-background:new 0 0 511.998 511.998;" xml:space="preserve"><path style="fill:#FFF2DC;" d="M63.633,347.427c27.612-32.409,88.358-57.422,136.009-70.026c2.44-0.647,4.841-1.255,7.177-1.827	c3.319-0.806,6.784,0.353,8.943,2.996l47.082,57.768c1.513,1.863,2.207,4.254,1.918,6.638	c-2.698,22.306-14.022,98.047-46.505,136.177c-17.198,20.19-42.142,30.392-68.129,30.392c-23.871,0-48.62-8.612-69.031-25.999	c-20.518-17.483-33.689-41.164-37.09-66.69C40.564,390.983,47.534,366.323,63.633,347.427z"/><path style="fill:#FFEBD7;" d="M137.672,115.858c38.45,18.286,78.328,70.492,102.831,113.259c1.256,2.189,2.464,4.351,3.623,6.46	c1.638,2.997,1.414,6.645-0.579,9.415l-43.618,60.425c-1.407,1.943-3.539,3.232-5.916,3.571	c-22.244,3.165-98.337,11.825-143.572-9.687c-23.951-11.389-40.262-32.844-46.985-57.945c-6.176-23.058-4.262-49.193,7.254-73.407	c11.578-24.342,31.046-43.193,54.823-53.082C89.63,104.845,115.253,105.197,137.672,115.858z"/><g>	<path style="fill:#FFF7EB;" d="M255.999,1.679c-56.004,0-101.565,41.401-101.565,92.289c0,42.508,29.961,100.879,57.999,141.327		c1.646,2.379,4.358,3.797,7.254,3.797h72.621c2.897,0,5.608-1.418,7.254-3.797c28.039-40.448,57.999-98.819,57.999-141.327		C357.564,43.08,312.003,1.679,255.999,1.679z"/>	<path style="fill:#FFF7EB;" d="M451.047,348.201c-27.612-32.409-88.358-57.422-136.009-70.026c-2.44-0.647-4.841-1.255-7.177-1.827		c-3.319-0.806-6.784,0.353-8.943,2.996l-47.082,57.768c-1.513,1.863-2.207,4.254-1.918,6.638		c2.698,22.306,14.022,98.047,46.505,136.177c17.198,20.19,42.142,30.392,68.129,30.392c23.871,0,48.621-8.612,69.031-26.001		c20.518-17.483,33.689-41.164,37.09-66.69C474.115,391.757,467.146,367.098,451.047,348.201z"/></g><path style="fill:#FFF2DC;" d="M374.326,115.858c-38.45,18.286-78.328,70.492-102.831,113.259c-1.256,2.189-2.464,4.351-3.623,6.46	c-1.638,2.997-1.414,6.645,0.579,9.415l43.618,60.425c1.407,1.943,3.539,3.232,5.916,3.571	c22.244,3.165,98.337,11.825,143.572-9.687c23.951-11.389,40.262-32.844,46.985-57.945c6.176-23.058,4.262-49.193-7.254-73.407	c-11.578-24.342-31.046-43.193-54.823-53.082C422.368,104.845,396.745,105.197,374.326,115.858z"/><path style="fill:#FFCAFF;" d="M290.334,356.379c-10.955,0-21.465-4.648-28.838-12.747l-5.497-6.048l-5.482,6.034	c-7.386,8.114-17.897,12.761-28.852,12.761c-9.73,0-19.054-3.608-26.25-10.164c-14.973-13.625-16.867-36.38-4.906-52.26	c-8.958-4.174-15.925-11.517-19.645-20.787c-3.886-9.671-3.764-20.279,0.337-29.863c4.125-9.618,11.726-17.023,21.417-20.879	c7.943-3.164,16.505-3.637,24.605-1.42c2.046-19.591,18.654-34.915,38.777-34.915c20.124,0,36.732,15.325,38.777,34.911	c8.094-2.207,16.672-1.742,24.629,1.436c9.681,3.862,17.272,11.263,21.383,20.841l0.01,0.03c4.1,9.583,4.223,20.192,0.337,29.863	c-3.71,9.251-10.663,16.589-19.65,20.787c11.96,15.901,10.061,38.641-4.911,52.27C309.387,352.772,300.063,356.379,290.334,356.379z	 M194.838,287.144c0.049,0.02,0.093,0.039,0.141,0.059L194.838,287.144z M317.208,287.12l-0.078,0.034	C317.16,287.144,317.184,287.134,317.208,287.12z"/><path style="fill:#B9E196;" d="M278.62,325.662c-6.227,0-12.201-2.642-16.385-7.25l-6.236-6.86l-6.241,6.865	c-7.869,8.673-22.526,9.391-31.236,1.514c-4.394-3.989-6.964-9.434-7.245-15.347c-0.281-5.917,1.761-11.582,5.75-15.956l1.699-1.87	l-3.694-1.586c-11.201-4.803-16.423-17.827-11.634-29.037c2.337-5.45,6.636-9.649,12.115-11.843	c5.484-2.204,11.51-2.137,16.961,0.205l1.395,0.595v-2.376c0-12.201,9.93-22.131,22.131-22.131s22.131,9.93,22.131,22.131v2.376	l1.405-0.6c5.412-2.323,11.43-2.404,16.918-0.214c5.493,2.195,9.806,6.398,12.139,11.839l0.01,0.019	c4.789,11.21-0.434,24.234-11.634,29.037l-3.694,1.586l1.718,1.89c3.97,4.355,6.013,10.02,5.731,15.937	c-0.281,5.912-2.851,11.358-7.235,15.338C289.392,323.624,284.118,325.662,278.62,325.662z M266.124,314.866	c0.01,0.01,0.019,0.019,0.029,0.029L266.124,314.866z M245.888,314.846l-0.024,0.029	C245.874,314.866,245.878,314.856,245.888,314.846z M294.923,280.321l-0.052,0.024C294.89,280.335,294.904,280.331,294.923,280.321z	"/><polygon style="fill:#FF8CFF;" points="367.667,240.727 360.71,224.503 264.827,265.595 264.827,158.425 247.171,158.425 	247.171,265.595 151.287,224.503 144.331,240.727 241.131,282.212 173.593,356.503 186.654,368.382 255.999,292.104 	325.344,368.382 338.405,356.503 270.867,282.212 "/><g>	<circle style="fill:#FFBE64;" cx="255.999" cy="143.8" r="18.547"/>	<circle style="fill:#FFBE64;" cx="140.347" cy="230.288" r="18.547"/>	<circle style="fill:#FFBE64;" cx="371.651" cy="230.288" r="18.547"/>	<circle style="fill:#FFBE64;" cx="336.341" cy="371.53" r="18.547"/>	<circle style="fill:#FFBE64;" cx="175.657" cy="371.53" r="18.547"/></g><g></g><g></g><g></g><g></g><g></g><g></g><g></g><g></g><g></g><g></g><g></g><g></g><g></g><g></g><g></g></svg>