<svg version="1.1" id="Layer_1" xmlns="http://www.w3.org/2000/svg" xmlns:xlink="http://www.w3.org/1999/xlink" x="0px" y="0px"	 viewBox="0 0 512 512" style="enable-background:new 0 0 512 512;" xml:space="preserve"><path style="fill:#FF87A5;" d="M500.832,252.474c-13.332-24.285-37.759-41.19-67.012-46.379	c-70.078-12.483-98.646,17.508-119.513,39.353c-17.173,17.974-26.323,26.336-46.763,19.81c-0.004-0.009-0.009-0.009-0.013-0.009	h-0.013c-4.681-1.517-9.612,1.078-11.095,5.707c-1.487,4.647,1.065,9.612,5.703,11.104c19.901,6.397,20.5,16.905,20.025,42.189	l-0.09,5.181c-0.009,0.733,0.07,1.449,0.237,2.155l14.94,63.009c0.228,0.966,0.617,1.879,1.146,2.707	c9.233,14.492,22.354,27.534,40.108,39.862c16.983,11.794,36.298,17.913,55.435,17.913c8.375,0,16.715-1.173,24.806-3.561	c21.72-6.397,39.026-20.724,46.284-38.336c8.776-21.276,6.405-34.854,4.672-44.776c-1.035-5.922-1.513-9.164-0.185-12.396	c1.332-3.224,3.957-5.181,8.871-8.655c8.224-5.811,19.487-13.768,28.263-35.052C513.902,294.689,511.733,272.328,500.832,252.474z"	/><path style="fill:#FF6991;" d="M386.013,62.673C373.811,31.043,335.647,0,308.966,0c-23.147,0-34.246,7.448-42.349,12.888	c-4.793,3.224-7.245,4.767-10.616,4.767c-3.371,0-5.823-1.543-10.616-4.767C237.28,7.448,226.182,0,203.035,0	c-26.681,0-64.845,31.043-77.047,62.673c-7.616,19.758-4.306,37.448,9.327,49.802c0.401,0.362,0.836,0.69,1.302,0.974	l114.759,70.621c1.418,0.871,3.021,1.311,4.625,1.311c1.603,0,3.207-0.439,4.625-1.311l114.759-70.621	c0.466-0.285,0.9-0.612,1.302-0.974C390.32,100.12,393.63,82.431,386.013,62.673z"/><polygon style="fill:#F5557D;" points="256,17.655 211.862,97.103 256,150.069 300.138,97.103 "/><path style="fill:#FF87A5;" d="M255.578,270.957c-1.483-4.638-6.465-7.233-11.095-5.707c-20.423,6.526-29.608-1.818-46.788-19.801	c-20.871-21.854-49.465-51.758-119.513-39.353c-29.255,5.19-53.681,22.094-67.012,46.379C0.267,272.328-1.901,294.69,5.362,312.311	c8.776,21.276,20.039,29.233,28.263,35.043c4.914,3.474,7.539,5.431,8.871,8.655c1.327,3.233,0.85,6.474-0.185,12.396	c-1.732,9.922-4.104,23.5,4.672,44.776c7.258,17.612,24.565,31.939,46.284,38.336c8.09,2.388,16.431,3.561,24.806,3.561	c19.134,0,38.453-6.121,55.435-17.913c17.44-12.113,30.397-24.897,39.616-39.086c0.526-0.819,0.918-1.707,1.155-2.646l15.423-61.138	c0.181-0.724,0.271-1.465,0.267-2.216c-0.018-2.664-0.07-5.276-0.116-7.828c-0.479-25.267,0.116-35.785,19.987-42.182	c0.009,0,0.013,0,0.022-0.009h0.009C254.513,280.569,257.065,275.604,255.578,270.957z"/><g>	<circle style="fill:#FF6991;" cx="128" cy="313.379" r="57.379"/>	<circle style="fill:#FF6991;" cx="384" cy="313.379" r="57.379"/></g><g>	<path style="fill:#FFEB78;" d="M244.483,265.25c-20.423,6.526-29.608-1.818-46.788-19.801c-8.52-8.92-18.39-19.147-31.778-27.326		c-9.985,16.16-15.847,35.139-15.847,55.532c0,45.807,29.131,84.71,69.834,99.486l9.8-38.848c0.181-0.724,0.271-1.465,0.267-2.216		c-0.018-2.664-0.07-5.276-0.116-7.828c-0.479-25.267,0.116-35.785,19.987-42.182c0.009,0,0.013,0,0.022-0.009h0.009		c4.642-1.492,7.194-6.457,5.707-11.104C254.095,266.319,249.113,263.724,244.483,265.25z"/>	<path style="fill:#FFEB78;" d="M314.307,245.448c-17.173,17.974-26.323,26.336-46.763,19.81c-0.004-0.009-0.009-0.009-0.013-0.009		h-0.013c-4.681-1.517-9.612,1.078-11.095,5.707c-1.487,4.647,1.065,9.612,5.703,11.104c19.901,6.397,20.5,16.905,20.025,42.189		l-0.09,5.181c-0.009,0.733,0.07,1.449,0.237,2.155l9.848,41.537c40.679-14.79,69.786-53.678,69.786-99.467		c0-20.401-5.866-39.386-15.859-55.552C332.689,226.293,322.824,236.531,314.307,245.448z"/></g><path style="fill:#FF87A5;" d="M284.487,310.146c-10.108-12.862-19.659-25.017-19.659-35.569c0-4.879-3.953-8.828-8.828-8.828	s-8.828,3.948-8.828,8.828c0,10.552-9.551,22.707-19.663,35.569c-13.746,17.483-29.323,37.302-29.323,62.406	c0,0.81,0.211,81.551,18.34,103.577c5.547,6.733,12.431,10.319,18.5,13.492c9.025,4.706,12.146,6.68,12.146,13.551	c0,4.879,3.953,8.828,8.828,8.828s8.828-3.948,8.828-8.828c0-6.871,3.121-8.845,12.142-13.551c6.073-3.172,12.952-6.759,18.5-13.492	c18.13-22.026,18.34-102.767,18.34-103.577C313.811,347.448,298.233,327.629,284.487,310.146z"/><path style="fill:#FFDC37;" d="M264.828,274.578c0-4.879-3.953-8.828-8.828-8.828s-8.828,3.948-8.828,8.828	c0,10.552-9.551,22.707-19.663,35.569c-13.746,17.483-29.323,37.302-29.323,62.406c0,0.241,0.03,7.615,0.531,18.318	c17.257,8.2,36.484,12.922,56.862,12.922c20.715,0,40.245-4.878,57.72-13.336c0.481-10.47,0.513-17.667,0.513-17.906	c0-25.103-15.577-44.922-29.323-62.406C274.379,297.284,264.828,285.129,264.828,274.578z"/><path style="fill:#FFC832;" d="M256,326.621c12.292,0,23.575-4.225,32.563-11.251c-1.364-1.759-2.731-3.512-4.076-5.223	c-10.108-12.863-19.659-25.018-19.659-35.57c0-4.879-3.953-8.828-8.828-8.828s-8.828,3.948-8.828,8.828	c0,10.552-9.551,22.707-19.663,35.569c-1.345,1.71-2.711,3.464-4.074,5.22C232.422,322.395,243.707,326.621,256,326.621z"/><path style="fill:#FF6991;" d="M247.173,397.241v105.931c0,4.879,3.953,8.828,8.828,8.828s8.828-3.948,8.828-8.828V397.241H247.173z	"/><path style="fill:#FF87A5;" d="M246.07,161.224c0.353-0.733,35.663-73.354,61.569-85.302c7.923-3.656,15.681-3.887,22.53-4.104	c10.168-0.31,13.836-0.733,16.823-6.914c2.121-4.388,7.41-6.216,11.789-4.113c3.15,1.517,4.988,4.672,4.988,7.948	c0.004,1.293-0.28,2.603-0.879,3.837c-2.987,6.189-1.035,9.327,5.038,17.483c4.09,5.492,8.724,11.715,10.793,20.199	c6.75,27.715-28.181,100.509-28.534,101.241c-10.919,22.612-33.565,33.681-53.543,43.439c-14.698,7.19-28.586,13.974-33.176,23.474	c-1.522,3.155-4.672,4.991-7.953,4.991c-1.289,0-2.599-0.285-3.837-0.879c-3.15-1.526-4.988-4.672-4.988-7.948	c-0.004-1.293,0.28-2.603,0.879-3.837c4.59-9.508,1.276-24.604-2.237-40.586C240.561,208.439,235.156,183.828,246.07,161.224z"/><path style="fill:#FFD232;" d="M261.941,131.734c40.606,1.731,76.738,20.668,101.128,49.881	c-6.614,16.777-12.736,29.58-12.883,29.885c-10.919,22.612-33.565,33.681-53.543,43.439c-14.698,7.19-28.586,13.974-33.176,23.474	c-1.522,3.155-4.672,4.991-7.953,4.991c-1.289,0-2.599-0.285-3.837-0.879c-3.15-1.526-4.988-4.672-4.988-7.948	c-0.004-1.293,0.28-2.603,0.879-3.837c4.59-9.508,1.276-24.604-2.237-40.586c-4.771-21.716-10.177-46.327,0.737-68.931	C246.219,160.915,252.65,147.722,261.941,131.734z"/><path style="fill:#FF6991;" d="M358.781,60.793c-4.38-2.103-9.668-0.276-11.789,4.113l-37.495,77.632l15.731,8.015l37.661-77.975	C365.009,68.19,363.169,62.914,358.781,60.793z"/><g>	<path style="fill:#FFC832;" d="M282.734,197.949l27.191-56.298c2.12-4.388,7.394-6.228,11.784-4.11l0,0		c4.391,2.119,6.231,7.396,4.111,11.787l-27.189,56.294c-1.522,3.155-4.672,4.991-7.953,4.991c-1.289,0-2.599-0.285-3.837-0.879		C282.453,207.612,280.613,202.336,282.734,197.949z"/>	<path style="fill:#FFC832;" d="M243.977,223.88c3.732-0.851,7.602-1.341,11.591-1.341c20.671,0,38.474,12.083,46.872,29.543		c-1.943,0.964-3.889,1.927-5.796,2.858c-14.698,7.19-28.586,13.974-33.176,23.474c-1.522,3.155-4.672,4.991-7.953,4.991		c-1.289,0-2.599-0.285-3.837-0.879c-3.15-1.526-4.988-4.672-4.988-7.948c-0.004-1.293,0.28-2.603,0.879-3.837		c4.59-9.508,1.276-24.604-2.237-40.586C244.881,228.095,244.426,225.987,243.977,223.88z"/></g><path style="fill:#FF87A5;" d="M265.93,161.224c-0.353-0.733-35.663-73.354-61.569-85.302c-7.923-3.656-15.681-3.887-22.53-4.104	c-10.168-0.31-13.836-0.733-16.823-6.914c-2.121-4.388-7.41-6.216-11.789-4.113c-3.15,1.517-4.988,4.672-4.988,7.948	c-0.004,1.293,0.28,2.603,0.879,3.837c2.987,6.189,1.035,9.327-5.038,17.483c-4.09,5.492-8.724,11.715-10.793,20.199	c-6.75,27.715,28.181,100.509,28.534,101.241c10.919,22.612,33.565,33.681,53.543,43.439c14.698,7.19,28.586,13.974,33.176,23.474	c1.522,3.155,4.672,4.991,7.953,4.991c1.289,0,2.599-0.285,3.837-0.879c3.15-1.526,4.988-4.672,4.988-7.948	c0.004-1.293-0.28-2.603-0.879-3.837c-4.59-9.508-1.276-24.604,2.237-40.586C271.439,208.439,276.845,183.828,265.93,161.224z"/><path style="fill:#FFDC37;" d="M250.059,131.734c-40.606,1.731-76.738,20.668-101.128,49.881	c6.614,16.777,12.736,29.58,12.883,29.885c10.919,22.612,33.565,33.681,53.543,43.439c14.698,7.19,28.586,13.974,33.176,23.474	c1.522,3.155,4.672,4.991,7.953,4.991c1.289,0,2.599-0.285,3.837-0.879c3.15-1.526,4.988-4.672,4.988-7.948	c0.004-1.293-0.28-2.603-0.879-3.837c-4.59-9.508-1.276-24.604,2.237-40.586c4.771-21.716,10.177-46.327-0.737-68.931	C265.781,160.915,259.35,147.722,250.059,131.734z"/><path style="fill:#FF6991;" d="M165.009,64.905c-2.121-4.388-7.41-6.216-11.789-4.113c-4.388,2.121-6.229,7.396-4.108,11.785	l37.426,77.487l15.548-8.395L165.009,64.905z"/><g>	<path style="fill:#FFC832;" d="M229.267,197.949l-27.191-56.298c-2.12-4.388-7.394-6.228-11.784-4.11l0,0		c-4.391,2.119-6.231,7.396-4.111,11.787l27.189,56.294c1.522,3.155,4.672,4.991,7.953,4.991c1.289,0,2.599-0.285,3.837-0.879		C229.547,207.612,231.388,202.336,229.267,197.949z"/>	<path style="fill:#FFC832;" d="M268.024,223.88c-3.732-0.851-7.602-1.341-11.591-1.341c-20.671,0-38.474,12.083-46.872,29.543		c1.943,0.964,3.889,1.927,5.796,2.858c14.698,7.19,28.586,13.974,33.176,23.474c1.522,3.155,4.672,4.991,7.953,4.991		c1.289,0,2.599-0.285,3.837-0.879c3.15-1.526,4.988-4.672,4.988-7.948c0.004-1.293-0.28-2.603-0.879-3.837		c-4.59-9.508-1.276-24.604,2.237-40.586C267.12,228.095,267.574,225.987,268.024,223.88z"/>	<path style="fill:#FFC832;" d="M256,414.897c-4.875,0-8.828-3.948-8.828-8.828v-52.966c0-4.879,3.953-8.828,8.828-8.828		s8.828,3.948,8.828,8.828v52.966C264.828,410.948,260.875,414.897,256,414.897z"/></g><path style="fill:#FF6991;" d="M328.763,282.75l-70.621-17.655c-0.134-0.033-0.263,0.009-0.396-0.018	c-0.569-0.116-1.15-0.077-1.742-0.079c-0.59,0.001-1.169-0.038-1.737,0.078c-0.138,0.028-0.271-0.017-0.409,0.019l-70.621,17.655	c-4.728,1.181-7.604,5.974-6.422,10.698c1.004,4.018,4.604,6.69,8.556,6.69c0.712,0,1.431-0.086,2.151-0.267L256,282.751	l68.479,17.12c0.719,0.181,1.44,0.267,2.151,0.267c3.953,0,7.552-2.673,8.556-6.69C336.367,288.724,333.492,283.93,328.763,282.75z"	/><g>	<circle style="fill:#FFC832;" cx="185.38" cy="291.31" r="17.655"/>	<circle style="fill:#FFC832;" cx="326.621" cy="291.31" r="17.655"/></g><g></g><g></g><g></g><g></g><g></g><g></g><g></g><g></g><g></g><g></g><g></g><g></g><g></g><g></g><g></g></svg>