<svg version="1.1" id="Layer_1" xmlns="http://www.w3.org/2000/svg" xmlns:xlink="http://www.w3.org/1999/xlink" x="0px" y="0px"	 viewBox="0 0 512 512" style="enable-background:new 0 0 512 512;" xml:space="preserve"><path style="fill:#FFFAEB;" d="M482.19,336.767L279.814,256l202.376-80.767c1.965-0.785,3.582-2.25,4.561-4.12	c17.185-33.035,4.728-80.561-30.284-115.577c-35.017-35.017-82.548-47.482-115.569-30.284c-1.879,0.974-3.34,2.595-4.125,4.552	l-80.772,202.379l-80.771-202.38c-0.785-1.956-2.246-3.577-4.125-4.552C138.074,8.043,90.553,20.518,55.536,55.534	c-35.012,35.017-47.47,82.543-30.284,115.577c0.979,1.87,2.595,3.336,4.561,4.12L232.187,256L29.811,336.767	c-1.965,0.785-3.582,2.25-4.561,4.12c-17.185,33.034-4.728,80.561,30.284,115.577c24.491,24.491,55.095,37.94,82.582,37.94	c11.815,0,23.06-2.483,32.988-7.656c1.879-0.974,3.34-2.595,4.125-4.552l80.771-202.38l80.771,202.381	c0.785,1.956,2.246,3.577,4.125,4.552c9.931,5.173,21.169,7.656,32.988,7.656c27.487,0,58.094-13.449,82.582-37.94	c35.012-35.017,47.47-82.543,30.284-115.577C485.772,339.017,484.156,337.551,482.19,336.767z"/><path style="fill:#FFF5DC;" d="M432.552,132.414c-1.707,0-3.38,0.491-4.81,1.422l-141.657,92.077l92.076-141.655	c0.93-1.431,1.426-3.103,1.426-4.81C379.587,34.897,325.303,0,256.001,0S132.414,34.897,132.414,79.448	c0,1.707,0.495,3.38,1.427,4.81l92.076,141.655L84.259,133.836c-1.431-0.931-3.103-1.422-4.81-1.422	c-44.552,0-79.448,54.284-79.448,123.586s34.897,123.586,79.448,123.586c1.707,0,3.38-0.491,4.81-1.422l141.657-92.077	L133.84,427.742c-0.93,1.43-1.426,3.103-1.426,4.81c0,44.552,54.284,79.448,123.586,79.448s123.586-34.897,123.586-79.448	c0-1.707-0.495-3.38-1.427-4.81l-92.076-141.655l141.657,92.077c1.431,0.931,3.104,1.422,4.81,1.422	c44.552,0,79.448-54.284,79.448-123.586S477.104,132.414,432.552,132.414z"/><path style="fill:#F8EBC8;" d="M431.569,281.759c-1.526-1.526-3.254-3.052-5.16-4.552c-1.16-0.905-2.521-1.517-3.975-1.759	L309.1,256.109l112.162-18.669c1.405-0.233,2.733-0.802,3.866-1.655c2.418-1.827,4.574-3.681,6.426-5.535	c15.198-15.198,21.28-37.413,17.117-62.551c-3.982-24.052-16.988-48.12-36.621-67.75c-41.306-41.31-99.763-50.051-130.302-19.509	c-1.685,1.681-3.362,3.604-5.017,5.759c-0.879,1.146-1.465,2.483-1.703,3.914l-18.972,112.478L237.442,90.743	c-0.233-1.405-0.802-2.733-1.66-3.871c-1.823-2.414-3.668-4.561-5.535-6.431c-30.548-30.56-89-21.793-130.302,19.509	c-19.63,19.627-32.635,43.697-36.617,67.748c-4.163,25.138,1.918,47.353,17.126,62.56c1.732,1.732,3.72,3.466,5.944,5.164	c1.142,0.871,2.478,1.449,3.896,1.689l112.186,18.849L90.737,274.56c-1.405,0.233-2.733,0.802-3.866,1.655	c-2.418,1.827-4.574,3.681-6.426,5.535c-15.198,15.198-21.28,37.414-17.117,62.552c3.983,24.051,16.988,48.12,36.621,67.749	c24.672,24.672,55.47,37.732,82.781,37.732c18.406,0,35.229-5.931,47.53-18.232c1.703-1.707,3.392-3.656,5.065-5.819	c0.884-1.146,1.47-2.492,1.711-3.923l18.916-112.343l18.605,111.791c0.233,1.405,0.802,2.733,1.66,3.871	c1.823,2.414,3.668,4.561,5.535,6.431c12.298,12.301,29.112,18.225,47.518,18.225c27.31,0,58.112-13.06,82.784-37.732	c19.634-19.629,32.638-43.699,36.621-67.75C452.837,319.164,446.755,296.948,431.569,281.759z"/><path style="fill:#FFFAEB;" d="M370.759,176.552c-14.983,0-34.232,8.341-44.371,13.31c-0.113,0.056-0.233,0.116-0.345,0.177	l-9.033,4.932l5.266-9.652c6.009-12.301,13.173-29.94,13.173-44.077c0-34.069-35.642-61.793-79.448-61.793	s-79.448,27.724-79.448,61.793c0,14.983,8.341,34.232,13.31,44.371c0.056,0.113,0.116,0.233,0.177,0.345l4.932,9.033l-9.652-5.266	c-12.301-6.009-29.94-13.173-44.077-13.173c-34.069,0-61.793,35.642-61.793,79.448s27.724,79.448,61.793,79.448	c14.983,0,34.232-8.341,44.371-13.311c0.113-0.056,0.233-0.116,0.345-0.177l9.033-4.932l-5.266,9.652	c-6.009,12.302-13.173,29.94-13.173,44.078c0,34.069,35.642,61.793,79.448,61.793s79.448-27.724,79.448-61.793	c0-14.983-8.341-34.232-13.311-44.371c-0.056-0.113-0.116-0.233-0.177-0.345l-4.932-9.033l9.652,5.266	c12.302,6.009,29.94,13.173,44.078,13.173c34.069,0,61.793-35.642,61.793-79.448S404.828,176.552,370.759,176.552z"/><circle style="fill:#F8EBC8;" cx="256.001" cy="256" r="71.062"/><g>			<line style="fill:none;stroke:#646464;stroke-width:2;stroke-linecap:round;stroke-linejoin:round;stroke-miterlimit:10;" x1="256.001" y1="194.207" x2="256.001" y2="220.69"/>			<line style="fill:none;stroke:#646464;stroke-width:2;stroke-linecap:round;stroke-linejoin:round;stroke-miterlimit:10;" x1="256.001" y1="317.793" x2="256.001" y2="291.31"/>			<line style="fill:none;stroke:#646464;stroke-width:2;stroke-linecap:round;stroke-linejoin:round;stroke-miterlimit:10;" x1="299.697" y1="212.303" x2="280.972" y2="231.029"/>			<line style="fill:none;stroke:#646464;stroke-width:2;stroke-linecap:round;stroke-linejoin:round;stroke-miterlimit:10;" x1="212.304" y1="299.697" x2="231.029" y2="280.971"/>			<line style="fill:none;stroke:#646464;stroke-width:2;stroke-linecap:round;stroke-linejoin:round;stroke-miterlimit:10;" x1="212.304" y1="212.303" x2="231.029" y2="231.029"/>			<line style="fill:none;stroke:#646464;stroke-width:2;stroke-linecap:round;stroke-linejoin:round;stroke-miterlimit:10;" x1="299.697" y1="299.697" x2="280.972" y2="280.971"/></g><g>	<rect id="SVGCleanerId_0" x="185.358" y="247.161" style="fill:#AF9678;" width="141.263" height="17.655"/></g><rect x="247.162" y="185.357" style="fill:#AF9678;" width="17.655" height="141.263"/><g transform="matrix(0.7071 -0.7071 0.7071 0.7071 -96.09 231.99)">			<rect id="SVGCleanerId_0_1_" x="185.359" y="247.161" transform="matrix(-0.7071 0.7071 -0.7071 -0.7071 618.0134 255.9884)" style="fill:#AF9678;" width="141.262" height="17.655"/></g><g transform="matrix(-0.7071 -0.7071 0.7071 -0.7071 231.99 560.08)">			<rect id="SVGCleanerId_0_2_" x="185.358" y="247.172" transform="matrix(0.7071 0.7071 -0.7071 0.7071 255.9967 -106.0313)" style="fill:#AF9678;" width="141.262" height="17.655"/></g><circle style="fill:#8282FF;" cx="256.001" cy="256" r="44.138"/><g>	<circle style="fill:#5A5FDC;" cx="256.001" cy="326.621" r="17.655"/>	<circle style="fill:#5A5FDC;" cx="256.001" cy="185.379" r="17.655"/></g><path style="fill:#6E70ED;" d="M238.345,256c0-19.731,13.035-36.241,30.897-41.892c-4.205-1.331-8.596-2.246-13.241-2.246	c-24.376,0-44.138,19.762-44.138,44.138s19.762,44.138,44.138,44.138c4.646,0,9.036-0.916,13.241-2.246	C251.379,292.241,238.345,275.731,238.345,256z"/><g>	<circle style="fill:#5A5FDC;" cx="185.38" cy="256" r="17.655"/>	<circle style="fill:#5A5FDC;" cx="326.621" cy="256" r="17.655"/>	<circle style="fill:#5A5FDC;" cx="206.07" cy="206.069" r="17.655"/>	<circle style="fill:#5A5FDC;" cx="305.932" cy="305.931" r="17.655"/>	<circle style="fill:#5A5FDC;" cx="305.932" cy="206.069" r="17.655"/>	<circle style="fill:#5A5FDC;" cx="206.07" cy="305.931" r="17.655"/></g><g></g><g></g><g></g><g></g><g></g><g></g><g></g><g></g><g></g><g></g><g></g><g></g><g></g><g></g><g></g></svg>