<svg version="1.1" id="Layer_1" xmlns="http://www.w3.org/2000/svg" xmlns:xlink="http://www.w3.org/1999/xlink" x="0px" y="0px"	 viewBox="0 0 512 512" style="enable-background:new 0 0 512 512;" xml:space="preserve"><path style="fill:#FF5064;" d="M397.241,0c-65.987,0-93.965,54.974-114.392,95.121c-9.332,18.336-18.978,37.293-26.849,37.293	c-7.871,0-17.517-18.957-26.849-37.293C208.724,54.974,180.746,0,114.759,0C41.827,0,0,45.043,0,123.586	c0,45.845,9.815,69.026,17.698,87.655c4.306,10.182,7.711,18.216,8.841,28.104c6.978,61.069,21.999,105.818,45.922,136.81	c38.268,49.569,91.651,77.293,130.63,97.543c19.638,10.199,44.082,22.889,44.082,29.475c0,4.879,3.953,8.828,8.828,8.828	s8.828-3.948,8.828-8.828c0-6.586,24.444-19.276,44.082-29.474c38.978-20.25,92.362-47.975,130.63-97.543	c23.923-30.991,38.944-75.742,45.922-136.81c1.129-9.888,4.534-17.922,8.841-28.104c7.883-18.63,17.698-41.811,17.698-87.656	C512,45.043,470.173,0,397.241,0z"/><path style="fill:#D24150;" d="M271.556,185.379c14.368,7.988,139.377,85.218,67.681,272.138	c7.737-4.322,15.694-8.999,23.721-14.069c56.002-173.35-51.694-260.59-85.837-275.027c-0.929-0.396-1.929-0.536-2.93-0.595h0.297	c0.431,0,0.857-0.034,1.28-0.095c35.957-5.284,106.733,14.362,146.134,64.957c30.106,38.652,35.727,88.376,16.74,144.569	c0.293-0.376,0.605-0.726,0.897-1.103c11.139-14.432,20.269-31.986,27.636-52.642c2.106-45.908-13.981-79.374-31.347-101.668	c-44.704-57.401-121.123-76.559-160.472-71.812c10.623-2.575,22.822-6.618,36.136-11.059	c45.754-15.258,102.702-34.225,140.172-9.827c22.132,14.408,35.7,43.805,40.534,87.145c0.684-1.654,1.358-3.288,2.104-5.05	c3.354-7.926,7.052-16.696,10.201-27.665c-8.001-32.505-22.466-55.724-43.21-69.223c-44.595-29.034-108.629-7.706-155.383,7.871	c-20.056,6.69-39,13-49.909,13c-10.883,0-29.827-6.311-49.884-13C159.36,106.646,95.335,85.31,50.736,114.353	c-20.754,13.505-35.221,36.743-43.22,69.274c3.145,10.943,6.837,19.701,10.185,27.613c0.753,1.779,1.434,3.428,2.124,5.098	c4.83-43.367,18.4-72.78,40.54-87.192c37.474-24.388,94.418-5.405,140.172,9.827c13.315,4.441,25.515,8.484,36.143,11.059	c-39.335-4.751-115.774,14.406-160.48,71.811c-17.376,22.307-33.472,55.796-31.345,101.743	c7.361,20.623,16.482,38.154,27.608,52.567c0.307,0.397,0.632,0.765,0.941,1.159c-19.009-56.215-13.393-105.96,16.723-144.623	c39.401-50.586,110.146-70.232,146.134-64.957c0.423,0.061,0.85,0.095,1.28,0.095h0.297c-1.002,0.058-2.001,0.199-2.93,0.595	c-13.711,5.793-70.099,41.474-95.41,110.103c-18.301,49.611-16.064,104.306,6.425,162.959c8.67,5.583,17.288,10.678,25.656,15.377	c-29.218-62.919-34.477-120.817-15.517-172.224c21.992-59.629,70.275-92.474,84.203-99.258h6.905v317.793	c0,4.879,3.953,8.828,8.828,8.828s8.828-3.948,8.828-8.828V185.379H271.556z"/><path style="fill:#FFE646;" d="M256.022,141.241h-0.044c-14.424,0-25.938,12.025-25.311,26.435l6.911,158.961	c0.429,9.863,8.549,17.639,18.422,17.639l0,0c9.873,0,17.993-7.776,18.422-17.639l6.911-158.961	C281.96,153.267,270.446,141.241,256.022,141.241z"/><path style="fill:#FFD237;" d="M256.359,326.637l-6.912-158.961c-0.482-11.089,6.253-20.703,15.944-24.575	c-2.902-1.16-6.044-1.862-9.368-1.862h-0.044c-14.424,0-25.938,12.024-25.311,26.435l6.912,158.961	c0.428,9.864,8.548,17.64,18.421,17.64c3.435,0,6.63-0.989,9.39-2.632C260.216,338.564,256.638,333.068,256.359,326.637z"/><g></g><g></g><g></g><g></g><g></g><g></g><g></g><g></g><g></g><g></g><g></g><g></g><g></g><g></g><g></g></svg>