<svg version="1.1" id="Layer_1" xmlns="http://www.w3.org/2000/svg" xmlns:xlink="http://www.w3.org/1999/xlink" x="0px" y="0px"	 viewBox="0 0 512 512" style="enable-background:new 0 0 512 512;" xml:space="preserve"><g>	<path style="fill:#C8A5FF;" d="M256,0c-9.233,0-18.035,3.97-24.147,10.892c-6.108,6.922-8.957,16.151-7.81,25.31l12.436,99.478		c0.552,4.427,4.314,7.733,8.755,7.733c0.065,0,0.134,0,0.199,0l21.587-0.479c4.375-0.095,8.022-3.383,8.565-7.729l12.375-99.005		c1.146-9.16-1.703-18.388-7.81-25.31C274.035,3.97,265.233,0,256,0z"/>	<path style="fill:#C8A5FF;" d="M275.47,375.91c-0.565-4.543-4.746-7.944-9.074-7.729l-21.522,0.771		c-4.332,0.156-7.91,3.431-8.444,7.729l-12.388,99.116c-1.146,9.16,1.703,18.388,7.81,25.311C237.965,508.03,246.767,512,256,512		c9.233,0,18.035-3.97,24.147-10.892c6.108-6.922,8.957-16.151,7.81-25.311L275.47,375.91z"/>	<path style="fill:#C8A5FF;" d="M142.37,266.892v-21.784c0-4.452-3.315-8.207-7.733-8.759l-98.435-12.306		c-9.146-1.164-18.383,1.703-25.31,7.81C3.97,237.965,0,246.767,0,256c0,9.233,3.97,18.035,10.892,24.147		c5.918,5.219,13.513,8.061,21.319,8.061c1.327,0,2.659-0.082,3.991-0.25l98.435-12.306		C139.057,275.1,142.37,271.345,142.37,266.892z"/>	<path style="fill:#C8A5FF;" d="M501.108,231.853c-6.922-6.108-16.116-8.97-25.311-7.81l-99.005,12.375		c-4.427,0.552-7.746,4.323-7.733,8.789l0.07,21.655c0.013,4.439,3.328,8.177,7.733,8.728l98.935,12.366		c1.332,0.168,2.664,0.25,3.991,0.25c7.806,0,15.401-2.84,21.319-8.061C508.03,274.035,512,265.233,512,256		C512,246.767,508.03,237.965,501.108,231.853z"/>	<path style="fill:#C8A5FF;" d="M343.168,183.478c1.737,1.922,4.138,2.91,6.556,2.91c1.901,0,3.81-0.612,5.414-1.858l78.879-61.354		c7.288-5.673,11.797-14.207,12.371-23.423s-2.84-18.241-9.37-24.771c-6.53-6.53-15.548-9.94-24.771-9.37		c-9.216,0.574-17.75,5.081-23.423,12.371l-60.668,77.999c-2.625,3.38-2.453,8.156,0.418,11.336L343.168,183.478z"/>	<path style="fill:#C8A5FF;" d="M168.19,328.491c-3.138-3.155-8.16-3.482-11.681-0.746l-78.526,61.078		c-7.288,5.673-11.797,14.207-12.371,23.423c-0.574,9.216,2.84,18.241,9.37,24.771c6.056,6.056,14.263,9.436,22.772,9.436		c0.668,0,1.332-0.022,2.001-0.065c9.216-0.574,17.75-5.081,23.423-12.371l61.034-78.474c2.724-3.505,2.422-8.491-0.707-11.642		L168.19,328.491z"/>	<path style="fill:#C8A5FF;" d="M123.177,77.983c-5.673-7.288-14.207-11.797-23.423-12.371c-9.194-0.582-18.241,2.84-24.771,9.37		c-6.53,6.53-9.944,15.556-9.37,24.771c0.574,9.215,5.081,17.75,12.371,23.423l78.733,61.237c1.599,1.246,3.513,1.858,5.414,1.858		c2.284,0,4.552-0.879,6.268-2.607l15.267-15.367c3.129-3.147,3.431-8.134,0.707-11.638L123.177,77.983z"/>	<path style="fill:#C8A5FF;" d="M434.017,388.823l-78.84-61.319c-3.608-2.797-8.776-2.392-11.887,0.966l-14.784,15.932		c-2.944,3.172-3.155,8.009-0.5,11.423l60.819,78.194c5.673,7.288,14.207,11.797,23.423,12.371c0.668,0.043,1.332,0.065,2.001,0.065		c8.509,0,16.715-3.38,22.772-9.436c6.53-6.53,9.944-15.556,9.37-24.771S441.306,394.496,434.017,388.823z"/></g><path style="fill:#B4A0FF;" d="M458.922,314.091c-4.147-8.22-11.647-14.211-20.586-16.431l-130.231-32.395	c0.533-3.014,0.861-6.099,0.861-9.265s-0.328-6.252-0.861-9.265l130.231-32.394h0.004c8.936-2.225,16.436-8.211,20.582-16.436	c4.151-8.22,4.509-17.818,0.952-26.392c-3.521-8.504-10.56-15.039-19.306-17.922c-8.746-2.892-18.297-1.811-26.182,2.935	l-114.984,69.172c-3.566-5.099-8.002-9.535-13.101-13.101l69.171-114.984c4.746-7.892,5.815-17.436,2.935-26.182	c-2.883-8.746-9.418-15.785-17.992-19.336c-8.509-3.53-18.112-3.168-26.323,0.983c-8.224,4.147-14.211,11.647-16.436,20.586	l-32.393,130.23c-3.014-0.533-6.099-0.861-9.265-0.861s-6.252,0.328-9.265,0.861L214.34,73.664V73.66	c-2.225-8.936-8.211-16.436-16.436-20.582c-8.22-4.147-17.811-4.5-26.392-0.952c-8.504,3.521-15.039,10.56-17.922,19.306	c-2.879,8.746-1.811,18.289,2.935,26.182l69.172,114.984c-5.099,3.566-9.535,8.002-13.101,13.101L97.612,156.526	c-7.896-4.746-17.436-5.818-26.182-2.935s-15.785,9.418-19.336,17.992c-3.526,8.504-3.168,18.103,0.983,26.323	c4.147,8.224,11.647,14.211,20.586,16.436l130.231,32.394c-0.533,3.014-0.861,6.099-0.861,9.265s0.328,6.252,0.861,9.265	L73.664,297.66H73.66c-8.936,2.225-16.436,8.211-20.582,16.436c-4.151,8.22-4.509,17.819-0.952,26.392	c3.521,8.504,10.56,15.039,19.306,17.922c3.229,1.065,6.569,1.59,9.892,1.59c5.677,0,11.31-1.535,16.289-4.526l114.984-69.171	c3.566,5.099,8.002,9.535,13.101,13.101l-69.172,114.984c-4.746,7.892-5.815,17.436-2.935,26.182	c2.883,8.746,9.418,15.785,17.992,19.336c3.88,1.608,7.991,2.41,12.09,2.41c4.888,0,9.763-1.138,14.232-3.392	c8.224-4.147,14.211-11.647,16.436-20.586l32.394-130.231c3.014,0.533,6.099,0.861,9.265,0.861s6.252-0.328,9.265-0.861	l32.394,130.231v0.004c2.225,8.936,8.211,16.436,16.436,20.582c4.461,2.25,9.323,3.388,14.211,3.388c4.12,0,8.258-0.81,12.181-2.435	c8.504-3.521,15.039-10.56,17.922-19.306c2.879-8.746,1.811-18.289-2.935-26.182l-69.171-114.984	c5.099-3.566,9.535-8.002,13.101-13.101l114.984,69.171C419.367,358.465,425,360,430.677,360c3.324,0,6.664-0.526,9.892-1.59	c8.746-2.883,15.785-9.418,19.336-17.992C463.431,331.91,463.073,322.315,458.922,314.091z"/><path style="fill:#A08CFF;" d="M377.19,232.487c-7.134-5.768-16.38-7.975-25.35-6.056l-46.654,10.001	c-5.376-13.498-16.121-24.244-29.62-29.62l10.002-46.653c1.918-8.974-0.289-18.211-6.056-25.35	c-5.771-7.133-14.34-11.223-23.512-11.223c-9.172,0-17.741,4.09-23.513,11.224c-5.768,7.138-7.975,16.375-6.056,25.35l10.001,46.654	c-13.497,5.376-24.245,16.122-29.62,29.621l-46.653-10.003c-8.983-1.913-18.211,0.285-25.35,6.056	c-7.133,5.771-11.223,14.339-11.223,23.512s4.09,17.741,11.224,23.513c7.134,5.768,16.375,7.97,25.35,6.056l46.654-10.001	c5.376,13.497,16.121,24.243,29.62,29.619l-10.002,46.654c-1.918,8.974,0.289,18.211,6.056,25.349	c5.771,7.133,14.339,11.223,23.512,11.223s17.741-4.09,23.513-11.224c5.768-7.138,7.975-16.375,6.056-25.35l-10.003-46.653	c13.498-5.375,24.246-16.121,29.621-29.62l46.654,10.001c8.988,1.927,18.216-0.285,25.349-6.056	c7.134-5.771,11.223-14.34,11.223-23.512C388.414,246.828,384.323,238.259,377.19,232.487z"/><path style="fill:#9178F5;" d="M344.676,302.867l-40.038-25.908c2.775-6.431,4.327-13.512,4.327-20.959	c0-7.447-1.553-14.528-4.327-20.958l40.038-25.909c7.702-4.983,12.676-13.074,13.642-22.198c0.966-9.124-2.202-18.078-8.69-24.565	c-6.487-6.487-15.414-9.621-24.565-8.69c-9.126,0.966-17.216,5.94-22.198,13.642l-25.909,40.038	c-6.43-2.773-13.51-4.326-20.957-4.326c-7.447,0-14.528,1.553-20.958,4.327l-25.909-40.038	c-4.983-7.702-13.074-12.676-22.198-13.642c-9.142-0.966-18.078,2.198-24.565,8.69c-6.487,6.487-9.655,15.439-8.69,24.565	c0.966,9.126,5.94,17.216,13.642,22.198l40.038,25.908c-2.774,6.43-4.326,13.51-4.326,20.958s1.553,14.528,4.327,20.958	l-40.038,25.909c-7.702,4.983-12.676,13.074-13.642,22.198s2.202,18.078,8.69,24.565c6.492,6.492,15.457,9.638,24.565,8.69	c9.126-0.966,17.216-5.94,22.198-13.642l25.91-40.038c6.43,2.774,13.508,4.326,20.956,4.326c7.447,0,14.527-1.551,20.957-4.326	l25.91,40.038c4.983,7.702,13.074,12.676,22.198,13.642c1.081,0.113,2.155,0.168,3.229,0.168c7.978,0,15.616-3.138,21.336-8.857	c6.487-6.487,9.655-15.439,8.69-24.565C357.354,315.939,352.38,307.849,344.676,302.867z"/><circle style="fill:#FFD728;" cx="256" cy="256" r="52.966"/><circle style="fill:#B4D246;" cx="256" cy="256" r="17.655"/><g></g><g></g><g></g><g></g><g></g><g></g><g></g><g></g><g></g><g></g><g></g><g></g><g></g><g></g><g></g></svg>