<svg version="1.1" id="Layer_1" xmlns="http://www.w3.org/2000/svg" xmlns:xlink="http://www.w3.org/1999/xlink" x="0px" y="0px"	 viewBox="0 0 512 512" style="enable-background:new 0 0 512 512;" xml:space="preserve"><path style="fill:#EBEBF0;" d="M395.792,256.358c-0.211-0.088-0.426-0.177-0.637-0.265c29.155-11.957,73.43-35.42,97.433-90.992	c0.941-2.186,0.965-4.67,0.053-6.869c-0.894-2.164-2.61-3.886-4.772-4.783c-0.035-0.015-0.075-0.031-0.115-0.047	c-56.217-22.441-104.142-7.824-133.247,4.276c12.159-29.075,26.881-76.972,4.554-133.24c-1.755-4.427-7.313-6.736-11.689-4.856	c-55.625,23.882-79.178,68.11-91.201,97.241c-11.964-29.162-35.423-73.436-90.991-97.437c-2.502-1.17-4.675-0.962-6.872-0.054	c-2.202,0.906-3.944,2.674-4.83,4.884c-22.442,56.22-7.827,104.15,4.271,133.246c-0.211-0.087-0.426-0.177-0.637-0.265	c-29.139-12.106-76.751-26.444-132.602-4.279c-2.215,0.882-3.983,2.621-4.897,4.819c-0.916,2.206-0.897,4.678,0.041,6.87	c23.886,55.627,68.14,79.186,97.237,91.199c-29.155,11.958-73.43,35.421-97.434,90.993c-0.941,2.185-0.965,4.668-0.052,6.869	c0.912,2.2,2.496,4.025,4.888,4.832c56.22,22.442,104.142,7.824,133.244-4.268c-12.159,29.075-26.877,76.963-4.551,133.232	c0.877,2.213,2.618,3.982,4.82,4.897c2.202,0.915,4.682,0.899,6.87-0.04c55.625-23.882,79.175-68.103,91.198-97.234	c11.967,29.154,35.422,73.426,90.994,97.429c2.451,0.663,4.671,0.96,6.874,0.054c2.202-0.906,3.944-2.674,4.83-4.884	c22.442-56.22,7.827-104.15-4.271-133.246c29.252,12.359,76.975,26.873,133.235,4.553c2.215-0.882,3.98-2.613,4.897-4.82	c0.913-2.197,0.897-4.678-0.041-6.87C468.685,292.076,424.93,268.464,395.792,256.358z"/><path style="fill:#FAF0F0;" d="M512,255.948c0-2.379-0.966-4.665-2.673-6.328c-43.077-41.905-92.543-46.923-124.096-46.923	c-0.228,0-0.461,0-0.69,0c22.336-22.229,54.221-60.882,55.067-121.411c0.03-2.379-0.901-4.682-2.587-6.364	c-1.655-1.655-3.901-2.587-6.242-2.587c-0.039,0-0.082,0-0.125,0c-60.524,0.845-99.173,32.73-121.411,55.07	c0.073-31.515-4.708-81.394-46.914-124.79c-3.32-3.415-9.338-3.415-12.658,0c-42.206,43.396-46.987,93.276-46.914,124.79	c-22.236-22.34-60.886-54.226-121.411-55.07c-2.759-0.12-4.686,0.905-6.368,2.587c-1.685,1.681-2.617,3.983-2.587,6.364	c0.845,60.529,32.73,99.182,55.067,121.411c-0.228,0-0.461,0-0.69,0c-31.553,0-81.024,5.027-124.096,46.923	C0.966,251.284,0,253.569,0,255.948c0,2.388,0.966,4.665,2.673,6.328c43.4,42.206,93.306,46.982,124.786,46.914	c-22.336,22.229-54.221,60.882-55.066,121.411c-0.03,2.379,0.901,4.682,2.587,6.364c1.686,1.682,3.85,2.759,6.368,2.587	c60.529-0.845,99.173-32.73,121.411-55.062c-0.073,31.515,4.708,81.386,46.914,124.782c1.66,1.707,3.944,2.673,6.328,2.673	s4.668-0.966,6.328-2.673c42.206-43.396,46.987-93.267,46.914-124.782c22.236,22.331,60.882,54.217,121.411,55.062	c2.517-0.328,4.682-0.905,6.368-2.587c1.686-1.682,2.617-3.983,2.587-6.364c-0.845-60.529-32.73-99.182-55.067-121.411	c31.755,0.19,81.394-4.716,124.786-46.914C511.034,260.614,512,258.337,512,255.948z"/><path style="fill:#C855B9;" d="M297.862,333.735l-25.957-61.97l62.145,25.454c2.737-5.171,4.955-10.648,6.632-16.364l-62.083-25.428	l61.672-25.832c-1.778-5.682-4.131-11.104-6.962-16.227l-61.532,25.774l25.129-61.353c-5.182-2.716-10.667-4.913-16.39-6.566	l-25.078,61.227l-25.48-60.834c-5.688,1.754-11.129,4.067-16.263,6.875l25.458,60.779l-60.973-24.975	c-2.767,5.154-5.018,10.622-6.728,16.325l61.009,24.989l-61.055,25.574c1.697,5.708,3.937,11.179,6.693,16.34l61.183-25.627	l-25.298,61.766c5.144,2.788,10.603,5.059,16.299,6.792l25.339-61.865l25.931,61.909	C287.249,338.774,292.713,336.513,297.862,333.735z"/><g>	<path style="fill:#E1CDFF;" d="M159.514,276.844l-24.471,10.136l14.915,12.936l-1.399,19.694l24.471-10.136		c9.01-3.733,13.289-14.062,9.557-23.072C178.854,277.39,168.523,273.112,159.514,276.844z"/>	<path style="fill:#E1CDFF;" d="M352.486,235.139l24.471-10.136l-14.915-12.936l1.399-19.694L338.97,202.51		c-9.01,3.733-13.289,14.062-9.557,23.072C333.146,234.593,343.477,238.872,352.486,235.139z"/>	<path style="fill:#E1CDFF;" d="M276.852,352.478l10.136,24.471l12.936-14.915l19.694,1.399l-10.136-24.471		c-3.733-9.01-14.062-13.289-23.072-9.557C277.399,333.138,273.121,343.468,276.852,352.478z"/>	<path style="fill:#E1CDFF;" d="M235.148,159.506l-10.136-24.471l-12.936,14.915l-19.694-1.399l10.136,24.471		c3.733,9.01,14.062,13.289,23.072,9.557C234.601,178.845,238.879,168.516,235.148,159.506z"/>	<path style="fill:#E1CDFF;" d="M173.03,202.511l-24.471-10.136l1.399,19.694l-14.915,12.936l24.471,10.136		c9.01,3.733,19.339-0.546,23.072-9.557C186.318,216.572,182.039,206.243,173.03,202.511z"/>	<path style="fill:#E1CDFF;" d="M338.97,309.472l24.471,10.136l-1.399-19.694l14.915-12.936l-24.471-10.136		c-9.01-3.733-19.339,0.546-23.072,9.557C325.682,295.412,329.961,305.741,338.97,309.472z"/>	<path style="fill:#E1CDFF;" d="M202.519,338.963l-10.136,24.471l19.694-1.399l12.936,14.915l10.136-24.471		c3.733-9.01-0.546-19.339-9.557-23.072C216.581,325.674,206.251,329.953,202.519,338.963z"/>	<path style="fill:#E1CDFF;" d="M309.481,173.021l10.136-24.471l-19.694,1.399l-12.936-14.915l-10.136,24.471		c-3.733,9.01,0.546,19.339,9.557,23.072C295.419,186.31,305.749,182.031,309.481,173.021z"/></g><polygon style="fill:#D764BE;" points="394.647,246.688 276.841,246.689 360.142,163.386 347.657,150.902 264.356,234.204 	264.355,116.397 246.698,116.397 246.7,234.204 163.397,150.903 150.911,163.388 234.214,246.689 116.408,246.69 116.408,264.347 	234.215,264.346 150.913,347.649 163.399,360.133 246.7,276.831 246.702,394.638 264.358,394.638 264.356,276.831 347.659,360.132 	360.144,347.646 276.841,264.346 394.647,264.344 "/><g>	<path style="fill:#F0CDFF;" d="M105.903,238.333H79.416l8.829,17.658l-8.829,17.658h26.488c9.752,0,17.658-7.907,17.658-17.658		C123.562,246.238,115.655,238.333,105.903,238.333z"/>	<path style="fill:#F0CDFF;" d="M406.097,273.65h26.488l-8.829-17.658l8.829-17.658h-26.488c-9.752,0-17.658,7.907-17.658,17.658		C388.438,265.744,396.345,273.65,406.097,273.65z"/>	<path style="fill:#F0CDFF;" d="M238.342,406.088v26.488L256,423.747l17.658,8.829v-26.488c0-9.752-7.907-17.658-17.658-17.658		C246.247,388.43,238.342,396.336,238.342,406.088z"/>	<path style="fill:#F0CDFF;" d="M273.658,105.895V79.407L256,88.236l-17.658-8.829v26.488c0,9.752,7.907,17.658,17.658,17.658		C265.753,123.553,273.658,115.648,273.658,105.895z"/>	<path style="fill:#F0CDFF;" d="M162.352,137.371l-18.73-18.73l-6.243,18.73l-18.73,6.243l18.73,18.73		c6.896,6.896,18.077,6.896,24.972,0C169.248,155.448,169.247,144.266,162.352,137.371z"/>	<path style="fill:#F0CDFF;" d="M349.648,374.612l18.729,18.73l6.243-18.73l18.73-6.243l-18.73-18.73		c-6.896-6.896-18.077-6.896-24.972,0C342.752,356.536,342.752,367.716,349.648,374.612z"/>	<path style="fill:#F0CDFF;" d="M137.379,349.64l-18.73,18.73l18.73,6.243l6.243,18.73l18.73-18.73		c6.896-6.896,6.896-18.077,0-24.972C155.456,342.743,144.275,342.744,137.379,349.64z"/>	<path style="fill:#F0CDFF;" d="M374.621,162.343l18.73-18.73l-18.73-6.243l-6.243-18.73l-18.73,18.73		c-6.896,6.896-6.896,18.077,0,24.972C356.544,169.24,367.725,169.24,374.621,162.343z"/></g><g></g><g></g><g></g><g></g><g></g><g></g><g></g><g></g><g></g><g></g><g></g><g></g><g></g><g></g><g></g></svg>