<svg version="1.1" id="Layer_1" xmlns="http://www.w3.org/2000/svg" xmlns:xlink="http://www.w3.org/1999/xlink" x="0px" y="0px"	 viewBox="0 0 512 512" style="enable-background:new 0 0 512 512;" xml:space="preserve"><path style="fill:#A08CFF;" d="M29.845,178.548c7.81,18.595,83.939,72.423,113.901,87.543c12.043,6.082,25.271,9.289,38.28,9.289	c0.181,0,0.38,0.009,0.552,0c5.526,0,10.75,3.513,13.323,8.966c1.164,2.461,2.474,4.841,3.918,7.125	c2.919,4.617,3.112,10.573,0.491,15.181c-7.073,12.436-10.81,26.879-10.81,41.771c0,33.565,13.746,125.78,26.824,141.129	C227.047,502.137,244.473,512,256,512c11.526,0,28.952-9.863,39.677-22.449c13.078-15.349,26.824-107.564,26.824-141.129	c0-14.892-3.737-29.336-10.81-41.775c-2.621-4.604-2.427-10.56,0.491-15.172c1.444-2.289,2.754-4.668,3.918-7.134	c2.573-5.452,7.797-8.961,13.323-8.961c0.022,0,0.047,0,0.073,0c13.129-0.113,26.569-3.129,38.759-9.289	c29.961-15.121,106.091-68.948,113.901-87.543c6.406-15.245,7.358-35.245,2.164-45.53c-5.19-10.289-21.849-21.405-37.922-25.306	c-19.595-4.755-108.113,24.526-138.078,39.647c-15.25,7.699-27.518,19.263-35.474,33.448c-3.181,5.668-8.685,8.957-14.612,8.728	L256,189.5l-2.241,0.034c-6.004,0.28-11.426-3.06-14.603-8.733c-7.957-14.182-20.224-25.746-35.474-33.444	C175.926,133.35,97.931,107.19,71.008,107.194c-2.138,0-3.961,0.163-5.405,0.518c-16.073,3.901-32.733,15.017-37.918,25.302	C22.487,143.302,23.439,163.302,29.845,178.548z"/><g>	<path style="fill:#B4A0FF;" d="M239.155,180.802c-7.957-14.182-20.224-25.746-35.474-33.444		c-27.755-14.008-105.75-40.168-132.673-40.163c-2.138,0-3.961,0.163-5.405,0.518c-16.073,3.901-32.733,15.017-37.918,25.302		L256,256v-66.5l-2.241,0.034C247.754,189.815,242.332,186.474,239.155,180.802z"/>	<path style="fill:#B4A0FF;" d="M316.917,283.074c2.752-4.671,7.452-7.695,12.505-7.695c0.022,0,0.047,0,0.073,0		c13.129-0.113,26.569-3.129,38.759-9.289c29.961-15.121,106.091-68.948,113.901-87.543c5.105-12.149,6.68-27.241,4.508-38.106		l-2.344-7.424L256,256L316.917,283.074z"/>	<path style="fill:#B4A0FF;" d="M195.901,284.344c1.164,2.461,2.474,4.841,3.918,7.125c2.919,4.617,3.112,10.573,0.491,15.181		c-7.073,12.436-10.81,26.879-10.81,41.771c0,33.565,13.746,125.78,26.824,141.129C227.047,502.137,244.473,512,256,512V256		L195.901,284.344z"/></g><path style="fill:#A08CFF;" d="M482.155,333.452c-7.81-18.595-83.939-72.423-113.901-87.543c-12.043-6.082-25.271-9.289-38.28-9.289	c-0.181,0-0.38-0.009-0.552,0c-5.526,0-10.75-3.513-13.323-8.966c-1.164-2.461-2.474-4.841-3.918-7.125	c-2.919-4.617-3.112-10.573-0.491-15.181c7.073-12.436,10.81-26.879,10.81-41.771c0-33.565-13.746-125.78-26.824-141.129	C284.953,9.862,267.527,0,256,0s-28.952,9.862-39.677,22.449C203.245,37.798,189.5,130.013,189.5,163.577	c0,14.892,3.737,29.336,10.81,41.775c2.621,4.604,2.426,10.56-0.491,15.172c-1.444,2.289-2.754,4.668-3.918,7.134	c-2.573,5.452-7.797,8.961-13.323,8.961c-0.022,0-0.047,0-0.073,0c-13.129,0.113-26.569,3.129-38.759,9.289	c-29.961,15.121-106.091,68.948-113.901,87.543c-6.406,15.245-7.358,35.245-2.164,45.53c5.19,10.289,21.849,21.405,37.922,25.306	c19.595,4.755,108.113-24.526,138.078-39.647c15.25-7.699,27.517-19.263,35.474-33.448c3.181-5.668,8.685-8.957,14.612-8.728	l2.232,0.034l2.241-0.034c6.004-0.28,11.426,3.06,14.603,8.733c7.957,14.182,20.224,25.746,35.474,33.444	c27.754,14.008,105.75,40.168,132.672,40.163c2.138,0,3.961-0.163,5.405-0.518c16.073-3.901,32.733-15.017,37.918-25.302	C489.513,368.698,488.561,348.698,482.155,333.452z"/><path style="fill:#9178F5;" d="M325.905,293.655c6.063-11.204,9.544-24.012,9.544-37.655c0-6.631-0.901-13.036-2.432-19.194	c-1.014-0.039-2.03-0.185-3.042-0.185c-0.181,0-0.38-0.009-0.552,0c-5.526,0-10.75-3.513-13.323-8.966	c-1.164-2.461-2.474-4.841-3.918-7.125c-2.919-4.617-3.112-10.573-0.491-15.181c7.073-12.436,10.81-26.879,10.81-41.771	c0-33.565-13.746-125.78-26.824-141.129C284.953,9.862,267.527,0,256,0v176.552c-22.701,0-43.125,9.57-57.603,24.838	c0.653,1.313,1.19,2.69,1.913,3.965c2.621,4.604,2.426,10.56-0.491,15.172c-1.444,2.289-2.754,4.668-3.918,7.134	c-0.221,0.467-0.561,0.829-0.818,1.266l0,0c-1.359,2.307-3.2,4.204-5.319,5.54c-0.264,0.161-0.554,0.257-0.826,0.401	c-0.825,0.451-1.661,0.883-2.55,1.158c-1.236,0.367-2.511,0.596-3.811,0.596c-0.022,0-0.047,0-0.073,0	c-13.129,0.113-26.569,3.129-38.759,9.289c-29.961,15.121-106.091,68.948-113.901,87.543c-5.105,12.149-6.68,27.241-4.508,38.106	l2.344,7.424l158.413-85.329c10.645,19.672,29.331,34.355,51.68,39.611c0.429-0.712,0.974-1.346,1.38-2.071	c3.181-5.668,8.685-8.957,14.612-8.728l2.232,0.034l2.241-0.034c6.004-0.28,11.426,3.06,14.603,8.733	c7.957,14.182,20.224,25.746,35.474,33.444c27.754,14.008,105.75,40.168,132.672,40.163c2.138,0,3.961-0.163,5.405-0.517	c16.073-3.901,32.733-15.017,37.918-25.302L325.905,293.655z"/><circle style="fill:#A08CFF;" cx="256" cy="256" r="52.966"/><g>	<path style="fill:#FFBE64;" d="M256,251.586c-7.315,0-13.241-5.927-13.241-13.241v-8.828c0-7.315,5.927-13.241,13.241-13.241		s13.241,5.927,13.241,13.241v8.828C269.241,245.66,263.315,251.586,256,251.586z"/>	<path style="fill:#FFBE64;" d="M281.074,286.897c-2.449,0-4.922-0.676-7.138-2.094l-7.431-4.767		c-6.155-3.948-7.944-12.142-3.996-18.297c3.957-6.151,12.151-7.932,18.297-3.996l7.431,4.767		c6.155,3.948,7.944,12.142,3.996,18.297C289.703,284.746,285.431,286.897,281.074,286.897z"/>	<path style="fill:#FFBE64;" d="M230.927,286.897c-4.362,0-8.629-2.151-11.159-6.091c-3.948-6.155-2.159-14.349,3.996-18.297		l7.431-4.767c6.159-3.948,14.349-2.151,18.297,3.996c3.948,6.155,2.159,14.349-3.996,18.297l-7.431,4.767		C235.85,286.22,233.375,286.897,230.927,286.897z"/></g><g></g><g></g><g></g><g></g><g></g><g></g><g></g><g></g><g></g><g></g><g></g><g></g><g></g><g></g><g></g></svg>