<svg version="1.1" id="Layer_1" xmlns="http://www.w3.org/2000/svg" xmlns:xlink="http://www.w3.org/1999/xlink" x="0px" y="0px"	 viewBox="0 0 511.999 511.999" style="enable-background:new 0 0 511.999 511.999;" xml:space="preserve"><path style="fill:#FF64B4;" d="M503.105,71.847c-45.548,0-76.746-5.222-109.781-10.747c-37.071-6.205-75.406-12.618-137.325-12.618	S155.746,54.894,118.675,61.1C85.641,66.624,54.442,71.847,8.894,71.847c-4.874,0-8.873,3.947-8.873,8.825	c0,4.697,3.628,8.541,8.265,8.808c0.177,0.009,0.357,0.018,0.543,0.018c8.748,1.646,28.368,43.419,44.139,76.979	c16.789,35.732,37.679,80.202,63.151,121.295c29.794,48.073,67.831,91.2,95.608,122.691c15.931,18.064,33.969,38.515,35.456,44.341	c0.19,4.723,4.046,8.713,8.795,8.713c4.727,0,8.567-3.482,8.795-8.127c0.022-0.199,0.034-0.388,0.043-0.586	c1.487-5.826,19.525-26.277,35.456-44.341c27.777-31.492,65.814-74.618,95.608-122.691c25.472-41.092,46.362-85.564,63.151-121.295	c15.789-33.603,35.439-75.428,44.074-76.979c4.874,0,8.825-3.947,8.825-8.825S507.979,71.847,503.105,71.847z"/><path style="fill:#D250A5;" d="M503.175,71.847c-43.089,0-211.295,109.94-247.174,133.715	C220.121,181.787,51.914,71.847,8.825,71.847C3.951,71.847,0,75.794,0,80.672c0,4.878,3.951,8.825,8.825,8.825	c29.973,0,157.394,77.593,238.349,131.397v233.797c0,4.878,3.951,8.825,8.825,8.825c4.874,0,8.825-3.947,8.825-8.825V220.894	C345.779,167.09,473.198,89.497,503.174,89.497c4.874,0,8.825-3.947,8.825-8.825S508.049,71.847,503.175,71.847z"/><circle style="fill:none;stroke:#646464;stroke-width:2;stroke-linecap:round;stroke-linejoin:round;stroke-miterlimit:10;" cx="255.997" cy="216.162" r="17.65"/><path style="fill:#D250A5;" d="M345.316,234.725l-62.841-34.28v-70.881c0-14.626-11.854-26.476-26.476-26.476	s-26.476,11.85-26.476,26.476v70.881l-62.841,34.28c-12.837,7.007-17.569,23.089-10.566,35.922	c4.809,8.808,13.893,13.807,23.265,13.807c4.288,0,8.631-1.042,12.656-3.241l63.961-34.892l63.961,34.892	c4.024,2.197,8.368,3.241,12.656,3.241c9.372,0,18.456-4.998,23.265-13.807C362.885,257.814,358.153,241.732,345.316,234.725z"/><path style="fill:#FFF2DC;" d="M300.363,209.3c7.562-12.187,4.576-28.027-7.166-36.654c-11.631-8.506-28.022-6.429-37.197,4.421	c-9.205-10.842-25.592-12.91-37.245-4.387c-11.703,8.592-14.686,24.45-7.119,36.619c-13.152,5.403-20.162,20.348-15.702,33.965	c4.521,13.85,18.688,21.606,32.647,18.184c1.06,14.366,12.846,25.424,27.419,25.424c14.569,0,26.355-11.049,27.415-25.424	c13.992,3.404,28.135-4.344,32.638-18.159C320.526,229.649,313.514,214.705,300.363,209.3z"/><path style="fill:#D2EBAA;" d="M316.825,214.762l-32.632,11.486c-5.746,2.023-7.998,8.954-4.538,13.968l19.659,28.489	c2.842,4.118,1.891,9.75-2.146,12.706l0,0c-4.059,2.973-9.75,2.153-12.805-1.843l-21.019-27.5c-3.699-4.84-10.987-4.84-14.686,0	l-21.019,27.5c-3.056,3.997-8.747,4.816-12.805,1.843l0,0c-4.036-2.956-4.987-8.588-2.146-12.706l19.659-28.489	c3.459-5.014,1.208-11.945-4.538-13.968l-32.632-11.486c-4.738-1.668-7.276-6.814-5.717-11.589v-0.001	c1.557-4.763,6.626-7.42,11.428-5.987l33.151,9.888c5.838,1.741,11.734-2.543,11.882-8.632l0.841-34.575	c0.121-5.016,4.223-9.018,9.24-9.018h0.002c5.017,0,9.119,4.002,9.24,9.018l0.841,34.575c0.148,6.09,6.044,10.374,11.882,8.632	l33.151-9.888c4.802-1.432,9.871,1.223,11.428,5.987v0.001C324.101,207.948,321.563,213.095,316.825,214.762z"/><circle style="fill:#9BC887;" cx="255.997" cy="224.987" r="13.238"/><g></g><g></g><g></g><g></g><g></g><g></g><g></g><g></g><g></g><g></g><g></g><g></g><g></g><g></g><g></g></svg>