<svg version="1.1" id="Layer_1" xmlns="http://www.w3.org/2000/svg" xmlns:xlink="http://www.w3.org/1999/xlink" x="0px" y="0px"	 viewBox="0 0 512.001 512.001" style="enable-background:new 0 0 512.001 512.001;" xml:space="preserve"><path style="fill:#FFCD32;" d="M286.772,19.272c-8.69-4.142-19.392-9.241-22.082-12.013C263.949,3.134,260.342,0,256.001,0	c-4.341,0-7.948,3.134-8.69,7.258c-2.69,2.772-13.393,7.871-22.082,12.013c-41.694,19.875-119.297,56.866-119.297,157.28	c0,34.776,5.431,55.569,17.608,67.431c13.728,13.37,33.022,12.836,55.371,12.285c4.871-0.129,9.978-0.267,15.297-0.267h123.586	c5.319,0,10.426,0.138,15.297,0.267c4.487,0.113,8.845,0.233,13.065,0.233c16.798,0,31.332-1.827,42.306-12.518	c12.177-11.862,17.608-32.654,17.608-67.431C406.069,76.138,328.466,39.147,286.772,19.272z"/><g>	<path style="fill:#FFC32D;" d="M256.001,211.862c-4.875,0-8.828-3.948-8.828-8.828V52.966c0-4.879,3.953-8.828,8.828-8.828		c4.875,0,8.828,3.948,8.828,8.828v150.069C264.828,207.914,260.876,211.862,256.001,211.862z"/>	<path style="fill:#FFC32D;" d="M292.29,220.233c-8.047-10.767-21.284-17.198-35.405-17.198h-0.884		c-14.121,0-27.358,6.431-35.405,17.198c-28.569,38.241-95.978,139.88-104.866,257.569c-0.638,8.439,2.289,16.629,8.246,23.052		C130.54,507.939,140.052,512,150.07,512c4.875,0,8.806-3.853,8.81-8.724c0.78-2.181,8.776-6.483,14.065-9.319		c15.043-8.086,37.185-19.982,45.716-46.69h75.564c8.526,26.707,30.668,38.603,45.716,46.69c5.289,2.836,13.28,7.138,14.047,9.216		c0,4.871,3.953,8.828,8.828,8.828c10.017,0,19.53-4.061,26.094-11.147c5.956-6.422,8.884-14.612,8.246-23.052		C388.268,360.113,320.858,258.474,292.29,220.233z"/></g><path style="fill:#FFAF23;" d="M256.884,203.034h-0.884c-14.121,0-27.358,6.431-35.405,17.198	c-15.125,20.246-41.1,58.374-63.551,107.134c-2.82,41.51,1.964,82.167,6.006,107.069c1.788,11.014,14.898,15.837,23.369,8.575	l22.5-19.286h94.161l22.496,19.283c8.431,7.227,21.572,2.482,23.35-8.48c4.114-25.362,9.007-67.136,5.837-109.504	c-22.2-47.639-47.592-84.868-62.475-104.79C284.242,209.465,271.005,203.034,256.884,203.034z"/><g>	<path style="fill:#FFDC37;" d="M305.194,412.819L264.656,210.13c-0.823-4.12-4.448-7.095-8.655-7.095		c-4.207,0-7.832,2.974-8.655,7.095l-40.538,202.689c-2.505,12.526-3.772,25.336-3.772,38.087v16.957		c0,24.337,19.801,44.138,44.138,44.138h17.655c24.337,0,44.138-19.801,44.138-44.138v-16.957		C308.966,438.155,307.699,425.345,305.194,412.819z"/>	<path style="fill:#FFDC37;" d="M225.229,63.41c8.69-4.142,19.392-9.241,22.082-12.013c0.742-4.125,4.349-7.258,8.69-7.258		c4.341,0,7.948,3.134,8.69,7.258c2.69,2.772,13.393,7.871,22.082,12.013c38.819,18.505,108.694,51.911,118.155,137.464		c0.756-7.236,1.142-15.286,1.142-24.322c0-100.414-77.603-137.405-119.297-157.28c-8.69-4.142-19.392-9.241-22.082-12.013		C263.949,3.134,260.342,0,256.001,0c-4.341,0-7.948,3.134-8.69,7.258c-2.69,2.772-13.393,7.871-22.082,12.013		c-41.694,19.875-119.297,56.866-119.297,157.28c0,9.036,0.386,17.086,1.143,24.322C116.535,115.32,186.409,81.914,225.229,63.41z"		/></g><path style="fill:#E1D232;" d="M233.932,364.94c0,43.804,5.592,85.111,15.41,121.905c1.8,6.744,11.519,6.744,13.319,0	c9.817-36.792,15.41-78.101,15.41-121.905s-5.592-85.111-15.41-121.905c-1.8-6.744-11.519-6.744-13.319,0	C239.524,279.829,233.932,321.138,233.932,364.94z"/><path style="fill:#FFEB50;" d="M256.001,300.138c-4.875,0-8.828-3.948-8.828-8.828v-88.276c0-4.879,3.953-8.828,8.828-8.828	c4.875,0,8.828,3.948,8.828,8.828v88.276C264.828,296.19,260.876,300.138,256.001,300.138z"/><circle style="fill:#FF9119;" cx="256.001" cy="291.31" r="13.241"/><g></g><g></g><g></g><g></g><g></g><g></g><g></g><g></g><g></g><g></g><g></g><g></g><g></g><g></g><g></g></svg>