<svg version="1.1" id="Layer_1" xmlns="http://www.w3.org/2000/svg" xmlns:xlink="http://www.w3.org/1999/xlink" x="0px" y="0px"	 viewBox="0 0 512 512" style="enable-background:new 0 0 512 512;" xml:space="preserve"><path style="fill:#FFF5DC;" d="M363.432,58.897C328.271,21.467,281.413,0,234.873,0c-55.756,0-107.874,26.117-129.689,65.001	c-11.698,20.842-20.146,54.595,5.506,97.232c-14.53,25.643-21.953,59.638-21.953,101.865c0,94.412,78.632,154.857,125.61,190.973	c14.138,10.867,31.731,24.389,32.849,29.109v19.016c0,4.857,3.942,8.803,8.803,8.803c4.862,0,8.803-3.946,8.803-8.803v-9.955	c0.061-1.062,1.216-16.967,17.366-28.257c1.414-0.98,141.093-102.613,141.093-244.902	C423.263,157.212,402.016,99.966,363.432,58.897z"/><g>	<path style="fill:#F8EBC8;" d="M141.726,127.089c34.091-24.312,76.294-31.517,105.472-21.449		c27.127,9.353,49.588,37.362,49.588,62.947c0,69.102-56.28,67.865-58.391,69.102c26.41,44.016,93.643,36.967,123.246,17.607		c30.511-19.945,66.236-81.181,34.572-149.622c-8.162-17.641-19.771-32.93-32.78-46.776C328.271,21.467,281.413,0,234.873,0		c-55.756,0-107.874,26.117-129.689,65.001c-11.698,20.842-20.146,54.595,5.506,97.232		C118.821,147.887,129.112,136.079,141.726,127.089z"/>	<circle style="fill:#F8EBC8;" cx="238.393" cy="184.869" r="44.016"/></g><path style="fill:#FFDC37;" d="M238.43,246.492h-0.072c-10.003,0-18.407-7.521-19.511-17.464l-3.946-35.518	c-1.556-14.003,9.405-26.248,23.494-26.248l0,0c14.089,0,25.049,12.246,23.494,26.248l-3.946,35.518	C256.836,238.971,248.432,246.492,238.43,246.492z"/><g></g><g></g><g></g><g></g><g></g><g></g><g></g><g></g><g></g><g></g><g></g><g></g><g></g><g></g><g></g></svg>