<svg version="1.1" id="Layer_1" xmlns="http://www.w3.org/2000/svg" xmlns:xlink="http://www.w3.org/1999/xlink" x="0px" y="0px"	 viewBox="0 0 511.999 511.999" style="enable-background:new 0 0 511.999 511.999;" xml:space="preserve"><path style="fill:#F8EBC8;" d="M469.313,398.498l-31.652-42.664c-0.172-0.228-0.349-0.448-0.543-0.66	c-15.962-17.665-76.386,1.07-179.553,55.686c-31.807,16.842-24.356,33.614-23.404,35.473c0.181,0.349,0.389,0.69,0.613,1.013	c5.777,8.301,21.226,33.299,23.261,49.067c0.625,4.842,3.337,8.994,7.641,11.68c4.471,2.794,11.081,3.906,18.769,3.906	c24.037,0,58.587-10.866,71.014-15.057c3.212-1.086,5.523-3.945,5.942-7.308c0.022-0.185,2.699-18.278,11.62-18.04l7.507,0.233	c32.924,1.082,54.69,1.755,56.78-25.413c0.401-5.221,14.759-22.046,30.725-36.007C471.495,407.375,472.055,402.193,469.313,398.498z	"/><path style="fill:#FF5064;" d="M262.662,436.791c-3.883,26.447,20.375,43.687,31.413,42.216	c27.804-3.708,33.114-10.302,57.397-22.812c24.284-12.509,54.454,4.415,62.549-20.605c8.094-25.02,32.378-50.775-2.944-62.549	C375.756,361.268,265.836,415.179,262.662,436.791z"/><path style="fill:#FFFAEB;" d="M208.183,446.302c-0.539-42.505-81.794-116.114-113.531-131.718	c-5.73-2.82-14.078-6.023-20.929-0.837c-16.256,14.578-43.975,40.603-46.98,51.119c-2.691,9.412,4.7,21.585,15.436,37.749	c1.742,2.626,4.015,6.046,5.071,7.903c-0.077,0.591-0.177,1.285-0.285,2.061c-1.531,11.068-4.092,29.596,7.114,37.063	c5.632,3.755,22.015,11.194,44.544,21.296c8.973,4.019,17.281,7.744,22.115,9.99c1.5,1.362,3.687,7.503,4.859,10.801	c2.303,6.451,4.117,11.547,8.304,14.341c1.518,1.013,3.475,2.32,16.001,2.32c9.464,0,24.973-0.751,50.883-2.932	c4.618-0.392,8.154-4.286,8.089-8.921L208.183,446.302z"/><path style="fill:#FF7D91;" d="M104.222,332.936c-27.227-3.311-51.879,32.01-39.369,53.35c12.509,21.34,6.373,22.46,18.028,40.473	c20.236,31.274,52.299,7.296,58.869,25.755c7.727,21.708,32.378,28.699,42.681,16.189c10.302-12.509,4.783-32.746,0-41.208	C169.691,401.418,131.289,336.229,104.222,332.936z"/><path style="fill:#FFFAEB;" d="M127.158,88.744c0-0.004,0-0.004,0-0.004l-3.329-1.461c-14.268-6.313-38.154-16.897-49.895-1.229	c-3.906,5.2-7.912,6.227-13.974,7.778c-3.013,0.772-6.433,1.647-9.968,3.165c-8.075,3.458-12.388,13.582-17.376,25.301	c-2.311,5.424-6.179,14.505-8.084,15.987C7.616,145.529,7.4,175.048,14.359,199.4c1.28,4.485-2.501,18.156-6.829,28.113	c-1.129,2.592-0.953,5.571,0.483,8.003l20.644,35.093c1.608,2.737,4.523,4.354,7.611,4.354c0.604,0,1.212-0.061,1.819-0.19	l39.97-8.446c21.791-6.618,63.261-101.584,65.468-140.73C144.878,101.555,135.371,92.284,127.158,88.744z"/><path style="fill:#FF7D91;" d="M119.675,119.168c-5.688-9.345-35.322-16.925-49.303-0.736s-7.805,48.37-22.076,64.388	c-18.028,20.236-19.132,80.577,30.906,63.653S129.977,136.093,119.675,119.168z"/><path style="fill:#FFF5DC;" d="M427.934,325.199c-5.044,0-8.529-1.867-10.685-3.617c-7.799-6.321-8.421-18.161-9.279-34.546	c-0.914-17.484-2.056-39.246-11.62-61.342c-21.809-50.378-13.682-87.127-2.897-99.536c4.682-5.39,26.241-18.061,44.497-17.402	c9.779,0.401,17.781,4.476,23.132,11.775c3.92,5.338,5.109,10.124,6.157,14.345c1.35,5.428,2.513,10.115,11.072,17.894	c5.635,5.123,5.596,12.172,5.562,18.398c-0.043,7.494-0.095,15.987,7.511,26.469c8.249,11.366,16.855,45.394,12.771,56.604	c-0.914,2.513-2.506,4.519-4.536,5.799c-2.346,5.304-5.001,24.033-5.001,36.029c0,17.704-26.982,23.288-59.575,28.289l-3.622,0.561	l0,0C430.184,325.113,429.024,325.199,427.934,325.199z M430.051,316.196h0.086H430.051z M427.714,307.534L427.714,307.534	L427.714,307.534z M492.389,244.156h-0.009H492.389z M492.42,244.147c-0.004,0.004-0.013,0.004-0.013,0.004	S492.416,244.151,492.42,244.147z"/><path style="fill:#FF6478;" d="M423.587,297.247c8.879,10.245,63.101-5.887,53.534-39c-9.567-33.114-16.004-34.601-15.269-52.246	c1.471-35.322-8.83-68.435-34.585-67.699c-25.755,0.736-25.02,31.643-20.605,55.19S404.455,275.171,423.587,297.247z"/><path style="fill:#F8EBC8;" d="M414.878,64.556c-6.942-7.554-9.192-15.768-11.366-23.71c-2.708-9.882-5.773-21.085-18.273-26.849	c-37.771-17.423-55.621-7.248-64.24-2.237C305.003,1.356,286.04-2.447,269.517,1.567c-15.026,3.665-24.62,3.42-37.882,3.07	c-4.212-0.108-8.697-0.224-13.703-0.224c-3.195,0-6.196,1.384-8.455,3.898c-6.093,6.77-5.618,20.809-4.799,28.57	c1.979,18.674,61.951,52.422,93.62,66.34c20.769,9.128,46.222,17.967,66.892,17.967c9.822,0,18.57-2.001,25.215-6.916	c0.389-0.289,0.751-0.608,1.086-0.953C426.48,77.185,418.348,68.337,414.878,64.556z"/><path style="fill:#FF5064;" d="M378.883,103.715c15.203-1.382,17.661-41.944,1.656-52.43s-26.491-27.595-48.567-16.557	s-19.316,1.104-41.944-7.175c-22.628-8.278-60.157-1.656-60.709,11.59C228.767,52.389,342.458,107.027,378.883,103.715z"/><path style="fill:#F8EBC8;" d="M171.111,200.452c-2.932-22.615-12.547-40.94-27.082-51.598	c-11.232-8.231-24.741-11.461-38.094-9.084c-15.268,2.725-26.543,9.455-33.51,20.002c-10.323,15.63-7.899,35.145-5.541,45.38	c2.303,9.977,1.302,19.701,0.337,29.099l-0.527,5.273c-1.134,12.448,0.199,16.423,4.609,29.592l0.97,2.906	c3.381,10.137,1.988,12.172-1.065,16.634l-1,1.479c-7.756,11.637,4.001,37.787,9.357,43.134c1.638,1.642,3.601,3.605,13.832,3.605	c9.124,0,24.818-1.561,52.728-6.299c1.164-0.199,2.28-0.629,3.277-1.267C180.579,309.375,178.26,255.594,171.111,200.452z"/><path style="fill:#FF5064;" d="M129.977,170.678c-16.578-12.433-50.038,2.944-37.529,26.491s12.509,37.529,8.83,55.19	c-3.679,17.661-13.982,46.36,19.868,53.719c33.85,7.359,50.775-14.717,39.737-47.831S153.525,188.339,129.977,170.678z"/><path style="fill:#FFF5DC;" d="M280.163,363.038c-0.108-0.423-0.246-0.837-0.414-1.237c-12.164-28.893-70.1-72.277-110.35-67.431	c-8.955,1.074-16.311,1.276-22.796,1.453c-19.588,0.539-33.739,0.927-41.759,29.138c-0.156,0.552-0.258,1.117-0.306,1.69	c-2.194,26.604-5.804,71.932-5.316,76.637c1.177,11.396,5.433,19.769,12.651,24.896c6.912,4.902,16.156,6.313,26.047,3.949	c10.219-2.418,12.392-0.337,20.442,7.485c1.405,1.371,2.902,2.825,4.544,4.342c6.234,5.77,16.682,9.96,29.402,9.96	c7.256,0,15.259-1.367,23.637-4.587c5.571-2.142,17.118-2.927,27.301-3.617c22.015-1.488,41.035-2.777,44.634-16.281	C292.378,412.576,282.241,371.167,280.163,363.038z"/><path style="fill:#FF6478;" d="M264.64,365.683c0.736,2.944,3.679,54.454-26.491,54.454s-56.661-27.227-77.266-20.605	c-20.605,6.623-39-13.246-36.058-38.265s16.925-45.623,34.585-45.623S252.131,315.644,264.64,365.683z"/><path style="fill:#FFFAEB;" d="M262.662,436.791c11.826,13.014,27.181,38.88,48.17,27.525c17.44-9.434,22.708-37.159,39.223-37.159	c16.515,0,45.501-6.889,44.385-18.236c-2.064-20.988,12.387-12.042,18.579-22.364c6.193-10.322,2.064-21.332,2.064-21.332	s-43.744-58.411-70.235-51.788c-26.491,6.623-80.945,24.284-83.889,39.737C258.017,368.627,243.023,415.179,262.662,436.791z"/><path style="fill:#FF6478;" d="M274.574,348.39c0,0-8.463,92.351,16.557,87.2c25.02-5.151,24.284-25.755,41.208-25.755	c16.925,0,44.888,0.736,46.359-19.868s3.679-41.208-16.925-53.719C341.171,323.739,289.66,314.908,274.574,348.39z"/><path style="fill:#F8EBC8;" d="M437.277,316.3c-3.16-2.311-3.743-14.217,0.936-29.63c7.416-24.435-7.175-33.39-5.506-41.789	c0.459-2.311,2.518-5.808,3.743-8.373c2.583-5.406,5.256-10.999,6.351-15.94c4.713-21.196-47.477-37.09-48.002-37.24	c-16.824-4.807-62.822-11.413-73.265,15.428c-9.231,23.74-36.093,103.787,5.713,137.513c1.289,1.078,15.613,12.97,35.516,26.021	c12.448,8.163,23.917,10.74,34.83,10.74c9.477,0,18.536-1.945,27.453-3.859l2.203-0.47c8.451-1.802,14.733-9.511,17.234-21.158	C446.879,336.379,445.651,322.444,437.277,316.3z"/><path style="fill:#FF5064;" d="M365.086,200.849c16.15-2.512,49.119,1.656,42.496,28.147c-6.623,26.491-1.546,33.97,6.623,56.846	c4.139,11.59,13.246,65.124-21.524,61.261s-61.261-20.972-60.709-35.322S340.25,204.713,365.086,200.849z"/><path style="fill:#FFFAEB;" d="M405.172,124.475c-3.135-3.101-6.093-6.028-7.968-8.365c-7.989-9.99-12.513-16.247-12.513-28.548	c0-21.209-17.096-23.184-30.833-24.775c-2.139-0.246-4.385-0.504-6.718-0.832c-5.73-0.798-10.314-0.108-14.008,0.444	c-5.415,0.81-8.123,1.216-13.836-2.742c-8.951-6.196-34.14-15.501-54.862-4.7c-3.018,1.57-4.863,4.739-4.747,8.141l1.453,41.431	c0.918,26.146,11.719,50.632,30.42,68.94l38.9,38.077c1.678,1.638,3.902,2.518,6.179,2.518c0.845,0,1.694-0.12,2.522-0.366	c25.089-7.485,53.663-15.397,59.644-16.152c9.084,1.319,12.759-9.007,16.548-19.894c1.906-5.472,4.066-11.672,6.274-15.358	C429.741,148.772,416.115,135.298,405.172,124.475z"/><path style="fill:#FF7D91;" d="M273.471,91.573c3.094-10.949,23.18-28.699,40.841-12.694s28.699-11.038,48.567,18.765	s55.19,65.124,33.666,75.61c-21.524,10.486-61.813,29.251-87.752,6.623C282.853,157.249,266.296,116.961,273.471,91.573z"/><path style="fill:#FFF5DC;" d="M257.63,35.75c-8.921-2.673-15.341-2.052-20.493-1.552c-4.071,0.41-6.321,0.556-9.098-0.401	c-21.847-7.537-43.949-12.616-57.635,1.07c-3.289,3.289-5.342,6.666-7.153,9.649c-3.341,5.497-5.549,9.132-15.69,11.797	c-23.292,6.132-27.228,13.698-27.228,33.317c0,13.121-2.268,19.432-10.115,28.156c-11.642,12.931-9.253,49.028-2.785,55.496	c1.307,1.307,3.277,3.282,38.927,18.407c0.38,0.16,0.767,0.294,1.16,0.401c1.371,0.366,19.541,5.118,41.966,5.118	c19.011,0,41.078-3.415,58.558-15.806c17.717-12.565,27.685-31.988,29.622-57.734v-0.004	C278.279,115.464,282.948,43.346,257.63,35.75z"/><path style="fill:#FF6478;" d="M253.05,133.518c0.861-13.782,3.91-68.181-19.868-71.747c-22.076-3.311-46.36,5.519-66.228,12.694	c-27.556,9.951-20.972,35.873-31.458,63.468c-6.7,17.632,6.071,44.704,49.671,50.223	C204.266,190.573,251.395,160.009,253.05,133.518z"/><path style="fill:#F8EBC8;" d="M351.186,171.585c-5.08-10.961-13.737-15.022-20.696-18.286c-4.04-1.897-7.532-3.535-9.641-6.191	c-0.47-0.595-0.897-3.053-1.177-4.682c-1.229-7.127-3.574-22.058-27.634-21.368c-3.949,0.129-4.992-0.733-7.118-2.38	c-3.083-2.38-8.244-6.351-17.889-4.316c-6.433,1.362-10.219,6.101-12.983,9.559c-0.763,0.953-1.854,2.316-2.549,2.941	c-2.371-0.392-4.148-1.789-6.933-4.105c-3.841-3.195-9.641-8.041-18.321-6.36c-8.525,1.638-12.064,4.087-15.806,7.118	c-2.07,1.681-4.031,3.268-9.805,5.239c-5.406,1.841-9.443,5.618-11.667,10.913c-4.601,10.965-1.121,28.638,10.344,52.53	c0,0,0,0,0,0.004c3.316,6.903,33.601,46.644,61.231,58.022c3.574,1.47,7.304,2.126,11.111,2.126	c28.125,0,60.381-35.688,64.491-40.366C342.708,204.247,357.325,184.831,351.186,171.585z"/><path style="fill:#FF5064;" d="M311,212.622c6.179-9.982,29.803-35.689,13.246-41.577c-16.557-5.888-15.453-8.83-20.972-19.501	c-5.519-10.67-29.803-1.104-52.982-3.679c-23.18-2.575-31.643-4.048-38.633,4.783c-6.99,8.83-12.878,30.539,2.575,48.567	s39.769,37.003,73.218,28.331C297.387,226.972,306.217,220.349,311,212.622z"/><path style="fill:#FFF5DC;" d="M365.086,235.619c-1.747-17.468-6.856-26.88-20.683-33.015c-10.025-4.437-31.058-7.429-59.126,22.671	c-0.565,0.608-1.043,1.294-1.418,2.035l-51.094,100.894c-0.884,1.742-1.165,3.725-0.798,5.639	c1.259,6.614,9.71,32.489,28.027,38.244c2.035,0.642,4.42,1.099,7.075,1.099c5.933,0,13.228-2.285,21.033-9.904	c8.9-8.688,23.999-16.125,36.132-22.098c16.208-7.98,25.152-12.882,26.491-21.87c1.945-13.056-5.782-21.61,5.877-32.868	c6.581-6.355,0.082-17.508,1.384-27.068C359.567,247.761,365.638,241.138,365.086,235.619z"/><path style="fill:#FF6478;" d="M247.716,322.635c0.43,9.898,10.302,39.369,26.859,25.755c16.557-13.613,29.152-17.885,39.737-25.755	c14.349-10.67,11.038-27.963,16.925-41.208s17.017-32.838,13.154-46.36c-4.559-15.955-21.248-26.124-57.306,0.736	C251.026,262.663,246.979,305.71,247.716,322.635z"/><path style="fill:#FFFAEB;" d="M257.268,304.606l-37.606-111.725c-0.629-1.867-1.863-3.471-3.506-4.553	c-4.334-2.863-43.113-27.53-70.582-12.517c-22.119,12.077-16.268,32.415-12.767,44.561c1.837,6.385,3.734,12.983,1.708,15.652	c-9.889,13.036-3.722,30.167,3.872,42.987c3.826,6.458,3.851,14.299,0.199,20.856c-2.268,4.073-3.858,8.678-3.79,13.543	c0.065,4.834,1.819,11.818,9.805,17.656c9.077,6.632,15.668,14.143,21.481,20.769c10.124,11.538,19.73,22.49,37.141,22.49	c1.733,0,3.544-0.108,5.442-0.337c30.76-3.687,46.984-57.984,48.735-64.163C257.879,308.112,257.836,306.292,257.268,304.606z"/><path style="fill:#FF7D91;" d="M216.625,205.816c-7.659-7.833-49.119-24.835-56.846-12.142c-7.727,12.694,9.382,31.458,3.863,44.704	c-5.519,13.246-15.453,18.765-2.759,35.322s4.691,24.56,10.762,42.772c6.071,18.213,30.63,33.942,48.291,17.937	c17.661-16.005,33.01-38.012,30.579-55.708S240.909,230.652,216.625,205.816z"/><path style="fill:#FFFAEB;" d="M274.298,226.513c-3.898-0.586-7.606-1.997-10.37-3.282c-7.015-3.801-2.416-34.156-28.819-40.888	c-11.255-2.87-23.245,1.134-31.208,10.244c-8.912,10.188-10.87,24.801-5.265,39.029c3.359,8.722,20.006,48.49,44.044,48.49	c2.531,0,5.144-0.444,7.835-1.405c26.228-9.417,31.019-40.87,31.208-42.207C282.414,231.691,279.098,227.232,274.298,226.513z"/><path style="fill:#FF7D91;" d="M267.584,235.435c-6.318-3.79-18.397-11.038-20.605-22.444c-2.208-11.406-17.293-22.812-30.17-13.982	c-12.878,8.83-9.198,25.755-2.208,37.897c6.99,12.142,22.812,29.435,39.737,23.18C271.263,253.832,274.943,239.85,267.584,235.435z"	/><path style="fill:#FFF5DC;" d="M262.188,300.691l-8.865-36.676c-1.004-4.148-4.804-6.885-9.084-6.743	c-4.152,0.251-10.02-6.584-12.918-19.692c-0.832-3.773-4.031-10.568-16.109-13.737c-10.723-2.798-30.463-2.583-38.857,6.799	c-3.838,4.286-4.838,9.869-2.742,15.32c4.562,11.857,10.982,23.205,19.106,37.577c2.16,3.816,4.433,7.835,6.808,12.112	c8.351,15.03,19.855,18.592,31.225,18.592c5.494,0,10.956-0.832,16.018-1.599c2.57-0.392,5.196-0.794,7.865-1.108	c2.509-0.294,4.773-1.651,6.218-3.725C262.29,305.74,262.778,303.145,262.188,300.691z"/><path style="fill:#FF6478;" d="M253.211,263.558L253.211,263.558c-1.014-4.197-5.021-6.124-9.336-6.283	c-4.125-0.151-9.742-6.964-12.556-19.695c-0.493-2.235-1.872-5.526-5.382-8.5c-15.508,0.21-25.014,10.125-17.039,31.925	c8.278,22.628,18.765,30.906,31.458,29.803c0,0,3.069-3.008,7.159-7.079C252.805,278.466,254.965,270.813,253.211,263.558z"/><path style="fill:#F8EBC8;" d="M312.626,239.815c-5.989-11.154-18.045-16.277-31.389-13.392c-0.961,0.181-4.528,0.418-7.071,0.07	c-3.135-0.423-6.213,0.846-8.141,3.32l-28.578,36.615c-1.362,1.742-2.018,3.928-1.846,6.127c2.074,26.233,12.983,36.33,21.77,40.18	c3.936,1.725,8.011,2.466,11.999,2.466c8.197,0,16.001-3.144,21.33-7.33c8.206-6.446,10.249-14.225,11.746-19.903	c1.095-4.169,1.755-6.433,3.682-8.313C316.735,269.31,319.468,252.556,312.626,239.815z"/><path style="fill:#FF5064;" d="M296.283,249.416c-2.613-8.624-17.241-15.345-36.995-10.974l-18.263,23.401	c1.443,11.637,5.76,33.934,17.729,33.934c16.189,0,14.926-14.162,22.812-20.972C289.66,267.812,299.962,261.558,296.283,249.416z"/><g></g><g></g><g></g><g></g><g></g><g></g><g></g><g></g><g></g><g></g><g></g><g></g><g></g><g></g><g></g></svg>