<svg version="1.1" id="Layer_1" xmlns="http://www.w3.org/2000/svg" xmlns:xlink="http://www.w3.org/1999/xlink" x="0px" y="0px"	 viewBox="0 0 511.999 511.999" style="enable-background:new 0 0 511.999 511.999;" xml:space="preserve"><path style="fill:#DEA0F2;" d="M436.909,287.424l1.086-63.425c28.786-15.176,83.238-47.905,72.645-73.477	c-10.495-25.334-71.326-10.412-102.185-0.94l-45.785-46.875c9.297-30.536,23.994-90.911-1.194-101.349	c-25.373-10.482-57.836,43.074-73.196,72.118l-68.985-8.189c-16.576-29.804-45.556-73.567-68.765-63.929	c-23.654,9.797-12.555,62.658-2.65,96.487l-45.043,51.517c-30.838-9.401-91.035-24.016-101.47,1.16	c-9.719,23.455,34.894,52.771,65.292,69.52l7.31,67.972c-29.179,15.382-83.166,47.953-72.603,73.455	c10.559,25.493,72.007,10.245,102.931,0.712l46.216,43.293c-9.991,31.786-25.877,94.436,0.018,105.159	c2.245,0.931,4.538,1.366,6.874,1.366c24.929-0.004,54.064-49.694,68.347-77.355l62.982,4.732	c14.947,28.113,47.401,81.725,72.744,71.257c25.476-10.555,10.31-71.831,0.719-102.91l46.587-45.215	c30.674,9.379,91.372,24.248,101.857-1.038C521.315,335.687,466.182,302.751,436.909,287.424z"/><path style="fill:#E18AD4;" d="M508.98,255.996c0-20.532-29.549-36.79-79.36-43.876l-19.843-47.84	c30.222-40.247,39.63-72.645,25.11-87.169c-14.563-14.551-47.048-5.081-87.384,25.278l-47.75-20.891	c-7.159-49.259-23.373-78.48-43.75-78.48c-20.67,0-36.971,29.856-43.992,80.178l-47.139,19.464	c-40.526-30.588-73.153-40.164-87.755-25.549c-14.533,14.538-5.094,46.983,25.196,87.281l-20.287,47.776	c-49.586,7.12-79.002,23.36-79.002,43.828c0,20.593,29.704,36.876,79.769,43.936l20.032,46.987	C72.108,387.54,62.48,420.24,77.116,434.882c14.477,14.473,46.768,5.15,86.85-24.873l48.091,19.123	c7.047,50.117,23.33,79.842,43.944,79.842c20.584,0,36.859-29.67,43.923-79.687l48.078-19.304	c40.105,30.041,72.408,39.375,86.885,24.898c14.547-14.55,5.085-47.03-25.265-87.371l20.114-47.655	C479.469,292.756,508.98,276.499,508.98,255.996z"/><path style="fill:#E478BD;" d="M392.702,262.646l-0.983-12.779c39.187-20.589,72.627-51.211,62.391-75.933	c-10.271-24.782-55.745-22.722-98.099-9.473l-8.309-8.987c13.05-42.07,15.003-87.376-9.641-97.586	c-24.369-10.111-54.745,22.657-75.184,60.986l-13.857-0.199c-20.412-38.186-50.784-70.886-75.08-60.788	c-24.545,10.172-22.671,55.344-9.749,97.215l-7.982,9.422c-42.492-13.331-88.022-15.434-98.314,9.408	c-10.188,24.61,23.222,55.292,62.102,75.778l1.25,11.917c-39.768,20.67-73.692,51.457-63.352,76.429	c10.231,24.71,55.697,22.688,97.884,9.542l8.822,7.974c-13.391,42.556-15.542,88.221,9.34,98.531	c24.713,10.236,55.414-23.322,75.95-62.43l11.926-0.565c18.076,34.64,43.944,64.865,66.8,64.865c3.22,0,6.379-0.599,9.448-1.87	c24.778-10.271,22.718-55.754,9.469-98.117l8.935-8.314c42.104,13.08,87.423,15.033,97.642-9.616	C464.234,313.616,431.202,283.088,392.702,262.646z"/><path style="fill:#E168AB;" d="M352.597,290.807l0.448-70.416c13.507-24.02,13.593-47.97,0.061-61.499	c-13.658-13.667-37.82-13.464-62.042,0.366l-68.714,0.819c-24.735-14.685-49.443-15.214-63.452-1.185	c-14.068,14.059-13.491,38.841,1.293,63.637l-0.574,67.912c-14.188,24.437-14.538,48.841-0.719,62.658	c13.688,13.688,37.894,13.455,62.141-0.423l69.304-0.357c12.494,7.276,24.968,10.934,36.04,10.934	c10.62,0,19.942-3.371,26.722-10.154C366.837,339.368,366.57,315.116,352.597,290.807z"/><path style="fill:#D3559F;" d="M320.251,208.62c-6.263,0-12.408,0.491-18.33,1.456c0.965-5.922,1.456-12.068,1.456-18.33	c0-40.98-20.808-73.079-47.375-73.079c-26.567,0-47.376,32.101-47.376,73.079c0,6.263,0.491,12.408,1.456,18.33	c-5.922-0.965-12.067-1.456-18.33-1.456c-40.98,0-73.079,20.808-73.079,47.375s32.101,47.376,73.079,47.376	c6.263,0,12.408-0.491,18.33-1.456c-0.965,5.922-1.456,12.068-1.456,18.33c0,40.98,20.808,73.079,47.376,73.079	c26.568,0,47.375-32.101,47.375-73.079c0-6.263-0.491-12.408-1.456-18.33c5.922,0.965,12.068,1.456,18.33,1.456	c40.98,0,73.079-20.808,73.079-47.376S361.23,208.62,320.251,208.62z"/><circle style="fill:#C84696;" cx="256" cy="256" r="65.031"/><circle style="fill:#AF3282;" cx="256" cy="256" r="29.723"/><g></g><g></g><g></g><g></g><g></g><g></g><g></g><g></g><g></g><g></g><g></g><g></g><g></g><g></g><g></g></svg>