<svg version="1.1" id="Layer_1" xmlns="http://www.w3.org/2000/svg" xmlns:xlink="http://www.w3.org/1999/xlink" x="0px" y="0px"	 viewBox="0 0 512 512" style="enable-background:new 0 0 512 512;" xml:space="preserve"><path style="fill:#D2D2FF;" d="M362.145,256c9.075-5.07,17.471-11.26,24.938-18.727c53.24-53.24,46.562-146.557,46.252-150.502	c-0.171-2.164-1.112-4.106-2.557-5.55c-1.446-1.444-3.387-2.387-5.55-2.557c-3.944-0.311-97.261-6.988-150.502,46.252	c-7.467,7.466-13.655,15.863-18.727,24.938c-5.07-9.075-11.26-17.472-18.727-24.938c-53.24-53.24-146.557-46.562-150.5-46.251	c-2.164,0.171-4.105,1.112-5.55,2.557c-1.444,1.444-2.387,3.386-2.557,5.55c-0.311,3.944-6.988,97.261,46.252,150.502	c7.467,7.467,15.863,13.655,24.938,18.727c-9.075,5.07-17.471,11.26-24.938,18.726c-53.24,53.24-46.562,146.557-46.252,150.502	c0.171,2.164,1.112,4.106,2.557,5.55c1.446,1.446,3.386,2.387,5.55,2.558c3.944,0.31,97.261,6.988,150.501-46.252	c7.467-7.467,13.655-15.863,18.727-24.939c5.07,9.075,11.26,17.472,18.727,24.939c53.24,53.24,146.557,46.562,150.501,46.252	c2.164-0.171,4.105-1.112,5.55-2.558c1.444-1.444,2.387-3.385,2.557-5.55c0.311-3.944,6.988-97.261-46.252-150.502	C379.616,267.26,371.22,261.07,362.145,256z"/><g>	<path style="fill:#C3C3FF;" d="M268.484,255.999L437.02,87.465c3.447-3.447,3.447-9.036,0-12.483s-9.037-3.447-12.484,0		L256,243.516L87.465,74.98c-3.447-3.447-9.037-3.447-12.484,0s-3.447,9.036,0,12.483L243.516,256l-12.483,12.483L74.98,424.535		c-3.447,3.447-3.447,9.037,0,12.484s9.037,3.447,12.484,0l156.051-156.052L256,268.483l168.535,168.535		c3.447,3.447,9.037,3.447,12.484,0c3.447-3.447,3.447-9.037,0-12.484L268.484,255.999z"/>	<path style="fill:#C3C3FF;" d="M501.056,250.268c-2.569-3.009-63.832-73.716-139.125-73.716c-10.559,0-20.873,1.561-30.876,4.393		c2.831-10.003,4.393-20.317,4.393-30.876c0-75.293-70.707-136.556-73.716-139.125c-1.651-1.409-3.689-2.116-5.732-2.116		c-2.044,0-4.082,0.707-5.732,2.116c-3.009,2.569-73.716,63.832-73.716,139.125c0,10.559,1.561,20.873,4.393,30.876		c-10.003-2.831-20.317-4.393-30.876-4.393c-75.293,0-136.556,70.707-139.125,73.716c-1.409,1.651-2.116,3.689-2.116,5.732		c0,2.044,0.707,4.082,2.116,5.732c2.569,3.009,63.832,73.716,139.125,73.716c10.559,0,20.874-1.561,30.876-4.393		c-2.831,10.002-4.393,20.317-4.393,30.876c0,75.293,70.707,136.556,73.716,139.125c1.651,1.409,3.69,2.116,5.732,2.116		c2.043,0,4.082-0.707,5.732-2.116c3.009-2.569,73.716-63.832,73.716-139.125c0-10.559-1.561-20.873-4.393-30.876		c10.003,2.831,20.317,4.393,30.876,4.393c75.293,0,136.556-70.707,139.125-73.716c1.409-1.651,2.116-3.69,2.116-5.732		C503.172,253.958,502.465,251.918,501.056,250.268z"/></g><path style="fill:#AFAFFF;" d="M503.172,247.172H264.828V8.828C264.828,3.953,260.875,0,256,0s-8.828,3.953-8.828,8.828v238.345	H8.828C3.953,247.172,0,251.125,0,256s3.953,8.828,8.828,8.828h238.345v238.345c0,4.875,3.953,8.828,8.828,8.828	s8.828-3.953,8.828-8.828V264.828h238.345c4.875,0,8.828-3.953,8.828-8.828S508.047,247.172,503.172,247.172z"/><path style="fill:#FFDC87;" d="M330.569,283.414l-54.822-27.412l54.822-27.412c3.095-1.547,4.879-4.664,4.879-7.905	c0-1.323-0.298-2.673-0.931-3.939c-2.181-4.362-7.482-6.13-11.844-3.948l-46.929,23.465l23.464-46.93	c0.633-1.267,0.931-2.616,0.931-3.939c0-3.242-1.784-6.358-4.879-7.905c-4.362-2.182-9.664-0.414-11.844,3.948L256,236.258	l-27.414-54.828c-2.177-4.358-7.466-6.137-11.844-3.948c-4.362,2.182-6.13,7.482-3.948,11.844l23.467,46.933l-46.932-23.468	c-4.371-2.189-9.664-0.405-11.844,3.948c-2.182,4.362-0.414,9.664,3.948,11.844L236.255,256l-54.825,27.414	c-4.362,2.182-6.13,7.482-3.948,11.844c1.547,3.095,4.664,4.879,7.905,4.879c1.323,0,2.673-0.298,3.939-0.931l46.93-23.467	l-23.465,46.932c-2.182,4.362-0.414,9.66,3.948,11.84c1.267,0.633,2.612,0.936,3.939,0.936c3.238,0,6.358-1.789,7.905-4.884	l27.412-54.824l27.416,54.828c1.547,3.095,4.664,4.879,7.905,4.879c1.323,0,2.673-0.298,3.939-0.931	c4.362-2.182,6.13-7.482,3.948-11.844l-23.465-46.929l46.93,23.464c1.267,0.633,2.616,0.931,3.939,0.931	c3.242,0,6.358-1.784,7.905-4.879C336.698,290.897,334.931,285.594,330.569,283.414z"/><path style="fill:#FFF064;" d="M256,220.69c-19.501,0-35.31,15.809-35.31,35.31s15.809,35.31,35.31,35.31s35.31-15.809,35.31-35.31	S275.501,220.69,256,220.69z M256,273.655c-9.75,0-17.655-7.905-17.655-17.655c0-9.751,7.905-17.655,17.655-17.655	s17.655,7.904,17.655,17.655C273.655,265.75,265.75,273.655,256,273.655z"/><g></g><g></g><g></g><g></g><g></g><g></g><g></g><g></g><g></g><g></g><g></g><g></g><g></g><g></g><g></g></svg>