<svg version="1.1" id="Layer_1" xmlns="http://www.w3.org/2000/svg" xmlns:xlink="http://www.w3.org/1999/xlink" x="0px" y="0px"	 viewBox="0 0 512 512" style="enable-background:new 0 0 512 512;" xml:space="preserve"><path style="fill:#D082ED;" d="M512,256c0-33.841-41.987-61.73-96.387-66.113c35.367-41.565,45.335-90.977,21.406-114.906	c-23.928-23.928-73.341-13.96-114.905,21.407C317.73,41.987,289.841,0,256,0s-61.73,41.987-66.113,96.387	C148.321,61.021,98.91,51.052,74.98,74.98c-23.928,23.928-13.96,73.341,21.407,114.906C41.987,194.27,0,222.159,0,256	s41.987,61.73,96.386,66.113C61.02,363.68,51.051,413.09,74.98,437.018c23.928,23.928,73.34,13.96,114.905-21.407	C194.269,470.012,222.159,512,256,512s61.731-41.988,66.114-96.388c41.565,35.367,90.976,45.335,114.905,21.407	c23.929-23.928,13.961-73.338-21.406-114.905C470.013,317.73,512,289.841,512,256z"/><path style="fill:#CE77DF;" d="M476.438,164.599c-12.082-29.14-58.195-38.164-106.602-22.516	c15.614-48.418,6.556-94.526-22.593-106.586c-29.148-12.061-68.137,14.164-91.3,59.458C232.746,49.677,193.739,23.48,164.6,35.562	s-38.164,58.195-22.516,106.602c-48.418-15.614-94.525-6.556-106.586,22.592c-12.062,29.149,14.164,68.137,59.458,91.302	c-45.278,23.197-71.475,62.204-59.393,91.342c12.082,29.14,58.195,38.164,106.602,22.516	c-15.613,48.419-6.556,94.525,22.593,106.586c29.148,12.061,68.136-14.164,91.299-59.458c23.197,45.278,62.205,71.475,91.343,59.393	c29.14-12.082,38.164-58.196,22.516-106.603c48.418,15.614,94.525,6.556,106.585-22.592c12.062-29.149-14.164-68.136-59.457-91.3	C462.323,232.745,488.52,193.738,476.438,164.599z"/><path style="fill:#CC6FD4;" d="M459.034,256c0-26.839-33.301-48.959-76.445-52.435c28.05-32.966,35.956-72.154,16.978-91.133	s-58.166-11.072-91.132,16.978C304.959,86.265,282.839,52.966,256,52.966s-48.959,33.3-52.435,76.445	c-32.966-28.05-72.154-35.956-91.132-16.978c-18.978,18.978-11.072,58.167,16.978,91.133C86.266,207.041,52.966,229.161,52.966,256	s33.301,48.959,76.445,52.435c-28.049,32.967-35.955,72.154-16.977,91.132c18.978,18.978,58.166,11.072,91.132-16.978	c3.476,43.145,25.596,76.446,52.435,76.446s48.959-33.301,52.436-76.446c32.966,28.05,72.153,35.956,91.132,16.978	c18.978-18.978,11.072-58.165-16.977-91.132C425.734,304.959,459.034,282.839,459.034,256z"/><path style="fill:#CB68C9;" d="M427.384,184.938c-9.394-22.655-45.245-29.672-82.88-17.505	c12.139-37.644,5.097-73.491-17.566-82.868c-22.661-9.377-52.974,11.012-70.984,46.227c-18.035-35.202-48.362-55.57-71.017-46.176	s-29.672,45.245-17.505,82.88c-37.644-12.139-73.491-5.097-82.868,17.565c-9.378,22.662,11.012,52.974,46.227,70.984	c-35.202,18.035-55.57,48.362-46.176,71.017s45.245,29.672,82.88,17.505c-12.138,37.644-5.097,73.491,17.566,82.868	c22.662,9.377,52.973-11.012,70.983-46.227c18.035,35.202,48.362,55.57,71.017,46.176s29.672-45.246,17.505-82.881	c37.644,12.139,73.49,5.097,82.868-17.565s-11.011-52.973-46.227-70.984C416.409,237.92,436.778,207.593,427.384,184.938z"/><g>	<path style="fill:#C95EBD;" d="M190.283,256c0,18.147-14.711,32.858-32.858,32.858S108.138,256,108.138,256		s31.14-32.858,49.288-32.858S190.283,237.853,190.283,256z"/>	<path style="fill:#C95EBD;" d="M321.716,256c0-18.147,14.711-32.858,32.858-32.858c18.147,0,49.288,32.858,49.288,32.858		s-31.14,32.858-49.288,32.858C336.427,288.858,321.716,274.147,321.716,256z"/>	<path style="fill:#C95EBD;" d="M256,321.716c18.147,0,32.858,14.711,32.858,32.858c0,18.147-32.858,49.288-32.858,49.288		s-32.858-31.14-32.858-49.288C223.142,336.427,237.853,321.716,256,321.716z"/>	<path style="fill:#C95EBD;" d="M256,190.283c-18.147,0-32.858-14.711-32.858-32.858c0-18.146,32.858-49.287,32.858-49.287		s32.858,31.14,32.858,49.288C288.858,175.573,274.147,190.283,256,190.283z"/>	<path style="fill:#C95EBD;" d="M209.532,302.468c12.832,12.832,12.832,33.636,0,46.468s-58.086,11.617-58.086,11.617		s-1.215-45.254,11.617-58.086S196.7,289.636,209.532,302.468z"/>	<path style="fill:#C95EBD;" d="M302.468,209.532c-12.832-12.832-12.832-33.636,0-46.468s58.086-11.617,58.086-11.617		s1.215,45.254-11.617,58.086S315.3,222.364,302.468,209.532z"/>	<path style="fill:#C95EBD;" d="M302.468,302.468c12.832-12.832,33.636-12.832,46.468,0s11.617,58.086,11.617,58.086		s-45.254,1.215-58.086-11.617S289.636,315.3,302.468,302.468z"/>	<path style="fill:#C95EBD;" d="M209.532,209.532c-12.832,12.832-33.636,12.832-46.468,0s-11.617-58.086-11.617-58.086		s45.254-1.215,58.086,11.617S222.364,196.7,209.532,209.532z"/></g><path style="fill:#C756B1;" d="M362.024,299.915c0,0-12.93-33.688-27.255-43.915c14.324-10.228,27.254-43.917,27.254-43.917	s-32.964-14.678-50.326-11.78c2.897-17.362-11.782-50.325-11.782-50.325s-33.688,12.93-43.916,27.254	c-10.228-14.324-43.916-27.253-43.916-27.253s-14.678,32.964-11.782,50.325c-17.361-2.897-50.325,11.782-50.325,11.782	s12.93,33.688,27.255,43.916c-14.325,10.228-27.254,43.916-27.254,43.916s32.964,14.678,50.325,11.78	c-2.897,17.361,11.782,50.325,11.782,50.325s33.688-12.93,43.916-27.254c10.228,14.324,43.916,27.254,43.916,27.254	s14.678-32.964,11.78-50.326C329.058,314.594,362.024,299.915,362.024,299.915z M270.552,291.132	c-6.371,2.639-11.287,7.227-14.552,12.735c-3.265-5.508-8.181-10.095-14.552-12.735c-6.371-2.639-13.091-2.871-19.295-1.286	c1.587-6.204,1.354-12.922-1.286-19.295c-2.639-6.371-7.226-11.287-12.736-14.552c5.51-3.265,10.095-8.18,12.736-14.552	c2.639-6.371,2.871-13.091,1.284-19.295c6.205,1.587,12.924,1.354,19.295-1.286c6.371-2.639,11.287-7.226,14.552-12.735	c3.265,5.508,8.181,10.095,14.552,12.735s13.09,2.871,19.295,1.286c-1.587,6.205-1.354,12.922,1.286,19.295	c2.639,6.371,7.227,11.287,12.735,14.552c-5.508,3.265-10.095,8.181-12.735,14.552c-2.639,6.371-2.871,13.091-1.286,19.295	C283.644,288.26,276.924,288.493,270.552,291.132z"/><g>	<path style="fill:#C54DA6;" d="M217.973,256c0,10.5-8.512,19.014-19.014,19.014c-10.502,0-28.52-19.014-28.52-19.014		s18.019-19.014,28.52-19.014C209.46,236.986,217.973,245.5,217.973,256z"/>	<path style="fill:#C54DA6;" d="M294.026,256c0-10.5,8.512-19.014,19.013-19.014S341.559,256,341.559,256		s-18.019,19.014-28.52,19.014S294.026,266.5,294.026,256z"/>	<path style="fill:#C54DA6;" d="M256,294.026c10.5,0,19.014,8.512,19.014,19.013S256,341.559,256,341.559		s-19.014-18.019-19.014-28.52S245.5,294.026,256,294.026z"/>	<path style="fill:#C54DA6;" d="M256,217.973c-10.5,0-19.014-8.512-19.014-19.014c0-10.5,19.014-28.52,19.014-28.52		s19.014,18.019,19.014,28.52C275.014,209.461,266.5,217.973,256,217.973z"/>	<path style="fill:#C54DA6;" d="M229.111,282.889c7.425,7.425,7.425,19.464,0,26.889S195.5,316.5,195.5,316.5		s-0.703-26.186,6.722-33.611S221.686,275.464,229.111,282.889z"/>	<path style="fill:#C54DA6;" d="M282.889,229.111c-7.425-7.425-7.425-19.464,0-26.889c7.425-7.425,33.611-6.722,33.611-6.722		s0.703,26.186-6.722,33.611S290.314,236.536,282.889,229.111z"/>	<path style="fill:#C54DA6;" d="M282.889,282.889c7.425-7.425,19.464-7.425,26.889,0c7.425,7.425,6.722,33.611,6.722,33.611		s-26.186,0.703-33.611-6.722S275.464,290.314,282.889,282.889z"/>	<path style="fill:#C54DA6;" d="M229.111,229.111c-7.425,7.425-19.464,7.425-26.889,0S195.5,195.5,195.5,195.5		s26.186-0.703,33.611,6.722C236.536,209.647,236.536,221.686,229.111,229.111z"/></g><circle style="fill:#CC6FD4;" cx="256" cy="256" r="29.199"/><path style="fill:#C34196;" d="M308.849,277.889c0,0-6.445-16.792-13.586-21.89c7.14-5.098,13.586-21.89,13.586-21.89	s-16.431-7.317-25.085-5.873c1.444-8.653-5.874-25.085-5.874-25.085s-16.792,6.444-21.89,13.586	c-5.098-7.14-21.89-13.585-21.89-13.585s-7.317,16.431-5.873,25.085c-8.653-1.444-25.085,5.873-25.085,5.873	s6.445,16.792,13.586,21.89c-7.14,5.098-13.585,21.89-13.585,21.89s16.431,7.317,25.085,5.873	c-1.444,8.654,5.874,25.085,5.874,25.085s16.792-6.445,21.89-13.586c5.098,7.14,21.89,13.586,21.89,13.586	s7.317-16.431,5.873-25.086C292.417,285.207,308.849,277.889,308.849,277.889z M263.254,273.512	c-3.176,1.315-5.626,3.602-7.253,6.348c-1.628-2.746-4.078-5.033-7.254-6.348c-3.176-1.315-6.525-1.431-9.618-0.64	c0.791-3.093,0.675-6.442-0.64-9.618c-1.315-3.176-3.602-5.626-6.348-7.253c2.745-1.628,5.032-4.077,6.348-7.253	c1.316-3.176,1.431-6.526,0.64-9.618c3.092,0.791,6.442,0.675,9.618-0.64c3.176-1.315,5.626-3.602,7.253-6.348	c1.628,2.746,4.078,5.033,7.254,6.348c3.176,1.315,6.525,1.431,9.618,0.64c-0.791,3.093-0.675,6.442,0.64,9.618	c1.315,3.176,3.602,5.626,6.348,7.253c-2.745,1.628-5.032,4.078-6.348,7.254c-1.316,3.176-1.431,6.525-0.64,9.618	C269.779,272.081,266.43,272.196,263.254,273.512z"/><g></g><g></g><g></g><g></g><g></g><g></g><g></g><g></g><g></g><g></g><g></g><g></g><g></g><g></g><g></g></svg>