<svg version="1.1" id="Layer_1" xmlns="http://www.w3.org/2000/svg" xmlns:xlink="http://www.w3.org/1999/xlink" x="0px" y="0px"	 viewBox="0 0 511.998 511.998" style="enable-background:new 0 0 511.998 511.998;" xml:space="preserve"><path style="fill:#FFF5DC;" d="M511.938,253.257c-0.875-9.176-10.603-11.19-24.068-13.973c-1.551-0.319-3.453-0.712-5.37-1.138	c1.074-0.681,2.121-1.336,3.052-1.922c12.029-7.53,21.529-13.478,19.154-22.925c-2.263-9.008-12.357-9.741-26.33-10.754	c-1.224-0.086-2.668-0.194-4.163-0.314c0.94-0.746,1.845-1.452,2.629-2.064c10.982-8.577,19.658-15.353,16.456-24.348	c-3.202-9.008-14.232-8.802-28.141-8.495c-0.991,0.018-2.134,0.043-3.332,0.061c1.081-1.038,2.134-2.03,3.026-2.871	c10.198-9.612,17.568-16.555,13.637-24.969c-4.12-8.814-15.224-7.423-29.322-5.677c-1.081,0.138-2.302,0.289-3.556,0.439	c1.216-1.535,2.431-3.025,3.43-4.25c8.689-10.659,14.973-18.362,9.853-26.025c-5.94-8.9-17.865-4.728-31.671,0.108	c-2.319,0.81-5.34,1.866-7.789,2.612c-0.504-2.629-0.805-6.155-0.384-9.069c0.552-3.767-1.375-7.461-4.775-9.168	c-3.409-1.711-7.525-1.038-10.202,1.655l-92.071,92.185L367.41,65.994c1.522-3.194,0.988-6.991-1.357-9.641	c-2.34-2.65-6.047-3.642-9.404-2.526c-4.672,1.56-7.848,2.41-9.987,2.867c-0.104-2.483-0.116-5.478-0.125-7.801	c-0.069-14.642-0.125-27.284-10.491-29.891c-8.983-2.28-14.107,6.236-21.24,17.995c-0.823,1.357-1.827,3.012-2.871,4.676	c-0.28-1.241-0.547-2.448-0.789-3.521c-3.064-13.858-5.483-24.801-15.181-25.727c-9.293-0.943-13.318,8.384-18.952,21.211	c-0.495,1.125-1.078,2.453-1.694,3.823c-0.388-1.142-0.755-2.232-1.069-3.181c-4.4-13.219-7.879-23.658-17.426-23.658	c-9.551,0-13.026,10.444-17.426,23.662c-0.314,0.943-0.681,2.035-1.065,3.172c-0.617-1.37-1.198-2.693-1.694-3.819	c-5.637-12.827-9.728-22.158-18.952-21.211c-9.693,0.931-12.112,11.87-15.167,25.722c-0.237,1.069-0.504,2.272-0.785,3.5	c-1.038-1.655-2.039-3.306-2.858-4.655c-7.129-11.758-12.258-20.236-21.218-18.003c-10.37,2.607-10.435,15.245-10.508,29.878	c-0.013,2.457-0.03,5.655-0.147,8.215c-2.646-0.409-6.064-1.302-8.667-2.681c-3.366-1.78-7.491-1.203-10.236,1.427	c-2.75,2.634-3.5,6.733-1.863,10.168l56.914,119.525l-95.231-95.351c-2.69-2.693-6.806-3.358-10.206-1.651	c-3.401,1.707-5.327,5.404-4.771,9.168c0.436,2.962,0.116,6.555-0.31,9.085c-2.465-0.75-5.517-1.818-7.857-2.634	c-13.806-4.827-25.727-9.004-31.675-0.108c-5.112,7.667,1.164,15.366,9.853,26.02c1,1.224,2.216,2.72,3.43,4.254	c-1.255-0.151-2.469-0.301-3.556-0.439c-14.073-1.754-25.193-3.147-29.322,5.68c-3.927,8.413,3.439,15.353,13.637,24.964	c0.893,0.841,1.944,1.832,3.03,2.871c-1.198-0.018-2.345-0.043-3.336-0.061c-13.908-0.285-24.939-0.504-28.141,8.495	c-3.198,8.999,5.478,15.771,16.46,24.348c0.785,0.612,1.685,1.319,2.629,2.064c-1.5,0.12-2.939,0.224-4.168,0.314	c-13.973,1.013-24.067,1.746-26.33,10.754c-2.375,9.448,7.125,15.396,19.154,22.925c0.931,0.586,1.978,1.241,3.052,1.922	c-1.918,0.427-3.819,0.819-5.37,1.138c-13.465,2.784-23.193,4.798-24.067,13.978c-1.009,10.646,10.878,14.93,24.645,19.895	c2.189,0.793,5.008,1.811,7.314,2.736c-1.146,1.863-3.012,4.574-6.047,8.452c-2.177,2.788-2.483,6.607-0.767,9.707	c1.565,2.831,4.534,4.556,7.719,4.556c0.301,0,0.608-0.018,0.909-0.047l142.496-14.703L54.305,354.213	c-3.297,1.901-5.004,5.702-4.237,9.426c0.767,3.728,3.84,6.543,7.62,6.987c2.974,0.349,6.367,1.587,8.698,2.65	c-1.362,2.185-3.181,4.862-4.577,6.909c-8.241,12.09-15.357,22.534-8.305,30.563c6.086,6.935,15.142,2.849,27.689-2.781	c1.444-0.647,3.202-1.436,4.999-2.211c-0.47,1.173-0.931,2.311-1.345,3.323c-5.34,13.141-9.56,23.52-2.107,29.787	c7.12,5.974,15.732,0.66,27.65-6.715c1.043-0.642,2.272-1.401,3.556-2.177c-0.328,1.155-0.647,2.259-0.927,3.215	c-3.875,13.383-6.935,23.951,0.927,29.374c7.879,5.413,16.659-1.207,27.779-9.598c0.793-0.599,1.711-1.289,2.677-2.008	c-0.271,1.479-0.543,2.896-0.771,4.104c-2.638,13.763-4.543,23.705,3.573,28.223c8.483,4.724,16.707-2.896,27.094-12.569	c0.805-0.75,1.711-1.594,2.65-2.453c-0.086,1.961-0.199,3.896-0.289,5.483c-0.798,13.724-1.37,23.641,7.271,26.861	c1.413,0.526,2.767,0.771,4.081,0.771c8,0,14.34-9.107,21.516-19.425c1.332-1.909,3.043-4.371,4.534-6.358	c1.5,1.59,3.633,4.09,6.598,8.025c2.134,2.824,5.741,4.099,9.18,3.258c3.435-0.853,6.026-3.677,6.586-7.172l20.398-127.27	l20.402,127.27c0.561,3.496,3.155,6.319,6.586,7.172c3.43,0.841,7.047-0.436,9.18-3.258c2.961-3.931,5.094-6.435,6.598-8.025	c1.492,1.992,3.202,4.448,4.534,6.362c7.176,10.315,13.512,19.422,21.512,19.422c1.314,0,2.672-0.246,4.086-0.771	c8.637-3.22,8.065-13.137,7.271-26.865c-0.09-1.582-0.203-3.518-0.289-5.478c0.936,0.857,1.836,1.698,2.643,2.448	c10.383,9.672,18.577,17.292,27.106,12.573c8.112-4.517,6.207-14.46,3.568-28.218c-0.233-1.207-0.504-2.629-0.771-4.108	c0.965,0.719,1.879,1.409,2.677,2.008c11.124,8.391,19.904,15.021,27.779,9.594c7.862-5.418,4.802-15.99,0.922-29.374	c-0.276-0.957-0.595-2.056-0.922-3.211c1.284,0.776,2.512,1.535,3.556,2.181c11.918,7.366,20.525,12.693,27.641,6.711	c7.461-6.263,3.242-16.646-2.103-29.796c-0.414-1.013-0.875-2.146-1.341-3.315c1.797,0.776,3.556,1.565,4.995,2.211	c12.538,5.63,21.598,9.689,27.693,2.784c7.052-8.034-0.065-18.473-8.301-30.563c-1.384-2.03-3.19-4.676-4.543-6.849	c2.41-1.173,5.732-2.37,8.655-2.715c3.78-0.444,6.853-3.258,7.62-6.987s-0.94-7.525-4.237-9.426l-121.664-70.147l140.485,14.495	c0.301,0.03,0.608,0.047,0.909,0.047c3.185,0,6.155-1.725,7.719-4.556c1.716-3.099,1.409-6.918-0.767-9.707	c-3.034-3.884-4.9-6.591-6.047-8.452c2.306-0.927,5.125-1.944,7.319-2.736C501.06,268.191,512.947,263.907,511.938,253.257z"/><path style="fill:#E66EAF;" d="M418.796,330.835l-81.117-46.77l97.777,10.088c-5.153-5.861-35.936-9.799-37.5-17.067	c-1.474-6.851,30.478-20.522,28.446-28.067c-1.86-6.905-37.064-5.386-39.37-12.725c-2.174-6.917,27.985-24.564,25.432-31.746	c-2.553-7.18-37.083-1.826-39.763-8.561c-2.845-7.148,25.419-28.192,22.503-34.721c-3.182-7.125-36.59,2.45-39.767-3.788	c-3.382-6.639,18.166-29.242,18.335-36.969l-61.769,61.846l36.607-76.878c-7.61,5.287-20.595,29.805-27.61,28.899	c-7.025-0.907-9.225-35.591-17.1-36.205c-7.206-0.562-17.682,33.118-25.453,32.833c-7.324-0.269-13.919-34.597-21.625-34.597	c-7.703,0-14.298,34.328-21.619,34.597c-7.771,0.286-18.245-33.394-25.451-32.834c-7.864,0.612-10.057,35.297-17.074,36.201	c-7.033,0.906-20.067-23.774-27.662-28.953l38.141,80.1l-62.09-62.168c5.147,10.138,19.006,26.616,16.169,32.239	c-3.251,6.444-36.681-3.066-39.946,4.29c-2.991,6.741,25.162,28.094,22.236,35.47c-2.756,6.95-37.354,1.791-39.988,9.197	c-2.634,7.408,27.456,25.25,25.206,32.382c-2.388,7.568-37.702,6.358-39.637,13.475c-2.114,7.777,29.815,21.512,28.267,28.57	c-1.344,6.133-22.338,10.164-32.775,14.761l95.733-9.878l-69.272,39.941c8.836-2.627,17.416-4.855,20.434-2.192	c5.685,5.016-12.057,34.911-5.456,40.203c6.048,4.848,34.411-16.508,41.114-11.543c6.316,4.678-7.336,36.96-0.531,41.65	c6.807,4.691,32.112-19.561,38.736-15.324c7.028,4.496-2.828,38.606,3.857,42.53c7.304,4.289,28.93-22.933,35.65-19.402	c3.544,1.863,4.533,10.583,5.228,19.718l10.738-67.002l12.975,80.94c1.765-11.238,0.195-32.688,5.787-35.582	c6.414-3.319,27.944,23.968,34.905,19.915c6.371-3.709-3.941-37.504,2.749-41.767c6.305-4.017,31.322,20.433,37.794,15.974	c6.47-4.459-7.47-36.542-1.473-41.001c6.366-4.732,34.271,16.939,40.006,12.306c6.257-5.056-11.58-34.885-6.201-39.69	C388.078,319.322,407.695,328.526,418.796,330.835z"/><path style="fill:#FFE1E1;" d="M255.865,187.781c-1.138,0-2.272,0.353-3.237,1.056l-64.117,46.584	c-1.94,1.409-2.745,3.887-2.004,6.168l24.49,75.363v0.004c0.741,2.28,2.849,3.81,5.246,3.81h79.246c2.397,0,4.504-1.535,5.246-3.814	l24.485-75.367c0.741-2.28-0.061-4.755-2-6.164l-64.113-46.58C258.136,188.134,256.998,187.781,255.865,187.781z"/><path style="fill:#E66EAF;" d="M256.861,213.37c-0.747,0-1.492,0.232-2.125,0.693l-42.103,30.589	c-1.273,0.926-1.803,2.553-1.316,4.051l16.082,49.487v0.003c0.487,1.497,1.87,2.503,3.445,2.503h52.037	c1.573,0,2.957-1.007,3.445-2.505l16.079-49.491c0.487-1.497-0.04-3.122-1.313-4.047l-42.1-30.587	C258.352,213.602,257.605,213.37,256.861,213.37z"/><path style="fill:#C859A0;" d="M368.067,226.581c-1.362-4.681-6.258-7.375-10.935-6.021l-18.658,5.408	c-1.361-1.804-2.977-3.448-4.879-4.83l-64.11-46.58c-1.216-0.883-2.506-1.59-3.828-2.21l-0.004-18.198	c0-4.875-3.952-8.823-8.832-8.823c-4.875,0-8.823,3.952-8.823,8.832l0.004,17.393c-2.01,0.73-3.959,1.699-5.759,3.007l-64.113,46.58	c-1.737,1.263-3.209,2.763-4.495,4.383l-17.116-4.961c-4.664-1.357-9.577,1.332-10.935,6.021c-1.357,4.681,1.341,9.577,6.021,10.935	l17.171,4.977c0.174,1.523,0.448,3.045,0.936,4.548l24.49,75.363c0.611,1.884,1.501,3.603,2.521,5.218l-10.56,14.725	c-2.84,3.966-1.935,9.478,2.026,12.318c1.56,1.117,3.358,1.655,5.137,1.655c2.75,0,5.456-1.28,7.181-3.681l10.648-14.847	c1.651,0.37,3.338,0.628,5.084,0.628h79.246c2.323,0,4.568-0.378,6.706-1.023l9.681,13.5c1.725,2.405,4.431,3.685,7.181,3.685	c1.78,0,3.577-0.538,5.133-1.655c3.966-2.84,4.87-8.353,2.03-12.314l-10.339-14.417c0.643-1.202,1.212-2.456,1.645-3.789	l24.485-75.363c0.428-1.316,0.707-2.648,0.895-3.982l19.14-5.547C366.726,236.158,369.424,231.262,368.067,226.581z	 M318.268,231.824l-52.592,15.242l-0.013-53.462L318.268,231.824z M248.008,192.194l0.013,54.886l-54.012-15.655L248.008,192.194z	 M188.673,248.259l53.787,15.589L208.933,310.6L188.673,248.259z M223.367,320.766l33.451-46.645l33.448,46.645H223.367z	 M303.389,308.777l-32.215-44.924l51.675-14.978L303.389,308.777z"/><circle style="fill:#FFF5DC;" cx="256.847" cy="258.976" r="22.068"/><g></g><g></g><g></g><g></g><g></g><g></g><g></g><g></g><g></g><g></g><g></g><g></g><g></g><g></g><g></g></svg>