<svg version="1.1" id="Layer_1" xmlns="http://www.w3.org/2000/svg" xmlns:xlink="http://www.w3.org/1999/xlink" x="0px" y="0px"	 viewBox="0 0 512.001 512.001" style="enable-background:new 0 0 512.001 512.001;" xml:space="preserve"><path style="fill:#BE8CE1;" d="M461.261,266.862c-6.767-4.409-13.626-7.967-20.567-11.054c7.467-3.316,14.254-6.947,20.567-11.058	c17.603-11.474,26.306-34.001,24.504-63.439c-1.522-24.823-9.935-47.97-17.103-58.974c-15.616-23.961-75.25-68.59-114.987-42.681	c-0.113,0.073-0.215,0.157-0.327,0.23c0.111-2.28,0.236-4.552,0.236-6.89C353.584,25.578,284.674,0,256.498,0	c-28.181,0-97.103,25.578-97.103,72.995c0,2.748,0.126,5.43,0.278,8.1c-0.504-0.339-0.981-0.726-1.49-1.057	c-17.59-11.466-41.724-10.327-67.923,3.207c-22.094,11.418-39.875,28.461-47.048,39.466C27.6,146.668,10.855,219.233,50.6,245.138	c6.325,4.124,13.124,7.745,20.576,11.054c-6.944,3.087-13.805,6.646-20.576,11.058c-39.737,25.897-22.996,98.474-7.388,122.431	c0.043,0.061,0.086,0.129,0.129,0.19c7.258,11.017,24.961,27.923,46.919,39.267c14.237,7.362,27.858,11.052,40.156,11.052	c10.332,0,19.733-2.603,27.767-7.844c0.148-0.096,0.279-0.203,0.426-0.299c-0.115,2.316-0.331,4.657-0.331,6.955	c0,47.423,68.914,73,97.09,73c28.181,0,97.103-25.578,97.103-73c0-2.698-0.248-5.448-0.407-8.177	c0.551,0.37,1.054,0.768,1.613,1.133c8.461,5.517,17.827,7.837,27.478,7.837c35.53-0.009,74.926-31.431,87.371-50.311	c0.039-0.061,0.082-0.129,0.125-0.19C484.26,365.336,501.002,292.758,461.261,266.862z"/><path style="fill:#CAA1EA;" d="M135.212,204.604l22.163,15.949c48.406,34.835,77.098,90.83,77.098,150.467v16.138	c0,11.544,8.308,22.062,19.795,23.211c13.21,1.321,24.343-9.015,24.343-21.955v-17.437c0-59.637,28.692-115.634,77.098-150.467	l22.102-15.905c9.12-6.563,12.822-18.979,7.507-28.878c-4.102-7.639-11.752-11.743-19.53-11.743c-4.466,0-8.974,1.345-12.875,4.156	l0,0c-57.587,41.441-135.215,41.441-192.801,0l0,0c-3.901-2.81-8.409-4.156-12.875-4.156c-7.778,0-15.427,4.103-19.53,11.743	C122.39,185.624,126.092,198.04,135.212,204.604z"/><g>	<path style="fill:#A573CD;" d="M95.032,264.586c-0.888,0-1.784-0.129-2.673-0.414c-16.664-5.284-29.935-11.328-41.759-19.034		c-39.746-25.906-23-98.47-7.388-122.426c7.172-11.005,24.952-28.047,47.048-39.466c26.198-13.535,50.332-14.673,67.923-3.207		c6.173,4.025,11.991,8.513,17.789,13.716c3.629,3.258,3.932,8.836,0.672,12.466c-3.258,3.625-8.845,3.927-12.466,0.672		c-5.117-4.59-10.229-8.538-15.638-12.061c-15.448-10.069-35.815-3.332-50.177,4.099c-18.392,9.504-34.229,24.013-40.366,33.431		c-12.733,19.539-25.66,79.793,2.241,97.983c10.453,6.81,22.354,12.207,37.457,17c4.647,1.474,7.22,6.431,5.746,11.078		C102.252,262.189,98.774,264.586,95.032,264.586z"/>	<path style="fill:#A573CD;" d="M415.532,264.604c-3.758,0-7.245-2.422-8.423-6.198c-1.452-4.655,1.146-9.603,5.802-11.06		c15.927-4.957,27.866-10.319,38.711-17.388c15.444-10.069,17.508-31.423,16.517-47.569c-1.267-20.664-8.142-41.009-14.28-50.426		c-12.733-19.539-62.621-55.724-90.543-37.517c-4.798,3.129-9.327,6.56-13.854,10.492c-3.69,3.198-9.255,2.802-12.452-0.875		c-3.198-3.681-2.806-9.255,0.875-12.452c5.138-4.466,10.306-8.375,15.789-11.953c39.737-25.909,99.371,18.72,114.987,42.681		c7.168,11.005,15.582,34.151,17.103,58.974c1.802,29.44-6.901,51.966-24.504,63.439c-12.099,7.88-25.793,14.06-43.1,19.457		C417.287,264.474,416.403,264.604,415.532,264.604z"/>	<path style="fill:#A573CD;" d="M255.369,512c-28.177,0-97.09-25.578-97.09-73c0-8.871,0.845-17.811,2.582-27.31		c0.879-4.793,5.513-8.025,10.272-7.095c4.798,0.871,7.975,5.474,7.1,10.268c-1.547,8.448-2.297,16.345-2.297,24.138		c0,33.284,56.534,55.345,79.448,55.345c22.91,0,79.435-22.06,79.435-55.345c0-8.104-0.814-16.353-2.496-25.207		c-0.909-4.793,2.237-9.414,7.026-10.319c4.81-0.905,9.409,2.241,10.319,7.026c1.888,9.956,2.806,19.276,2.806,28.5		C352.472,486.422,283.55,512,255.369,512z"/></g><g>	<path style="fill:#9664B4;" d="M381.157,439.793c-9.651,0-19.017-2.319-27.478-7.837c-22.276-14.508-37.112-33.25-52.823-53.086		c-6.138-7.75-12.483-15.767-19.293-23.474c-17.775-20.095-8.595-37.87-5.357-42.845c2.659-4.077,8.134-5.216,12.215-2.578		c4.086,2.664,5.237,8.129,2.578,12.215c-2.948,4.526-4.685,11.932,3.789,21.517c7.129,8.061,13.625,16.267,19.91,24.199		c14.788,18.681,28.759,36.319,48.621,49.259c27.892,18.173,77.815-17.974,90.552-37.526c0.03-0.052,0.065-0.095,0.095-0.147		c12.698-19.715,25.483-79.706-2.34-97.836c-19.858-12.94-41.638-18.595-64.694-24.586c-9.798-2.543-19.932-5.173-30.185-8.439		c-12.22-3.88-18.268,0.707-21.216,5.224c-2.655,4.086-8.129,5.233-12.215,2.578c-4.082-2.664-5.237-8.129-2.578-12.215		c3.233-4.974,15.794-20.534,41.362-12.414c9.806,3.121,19.699,5.698,29.271,8.181c24.487,6.362,47.62,12.371,69.892,26.879		c39.742,25.897,23,98.474,7.392,122.431c-0.043,0.061-0.086,0.129-0.125,0.19C456.084,408.362,416.687,439.785,381.157,439.793z"/>	<path style="fill:#9664B4;" d="M130.416,440.19c-12.298,0-25.918-3.69-40.156-11.052c-21.956-11.345-39.659-28.25-46.919-39.267		c-0.043-0.061-0.086-0.129-0.129-0.19c-15.608-23.957-32.349-96.534,7.388-122.431c22.268-14.508,45.397-20.509,69.879-26.871		c9.578-2.483,19.478-5.052,29.289-8.181c25.535-8.163,38.116,7.431,41.357,12.405c2.659,4.086,1.504,9.551-2.578,12.215		c-4.09,2.655-9.556,1.5-12.215-2.578c-2.944-4.526-9.013-9.112-21.207-5.216c-10.268,3.267-20.405,5.897-30.207,8.448		c-23.052,5.983-44.828,11.638-64.681,24.569c-27.819,18.13-15.034,78.121-2.336,97.836c0.03,0.052,0.065,0.095,0.095,0.147		c6.137,9.414,21.974,23.923,40.366,33.431c14.367,7.431,34.741,14.164,50.182,4.095c19.858-12.94,33.827-30.578,48.617-49.25		c6.284-7.939,12.785-16.147,19.918-24.206c8.47-9.587,6.737-16.991,3.789-21.517c-2.659-4.086-1.508-9.551,2.578-12.215		c4.09-2.655,9.56-1.492,12.215,2.578c3.238,4.974,12.418,22.75-5.357,42.845c-6.815,7.706-13.164,15.724-19.302,23.482		c-15.711,19.837-30.548,38.569-52.819,53.078C150.148,437.586,140.748,440.19,130.416,440.19z"/>	<path style="fill:#9664B4;" d="M296.623,203.034c-4.875,0-8.828-3.948-8.828-8.828s3.953-8.828,8.828-8.828		c5.255,0,12.215-2.578,15.556-14.871c2.819-10.379,6.091-20.301,9.259-29.897c7.453-22.582,14.492-43.91,14.492-67.616		c0-33.284-56.534-55.34-79.448-55.34c-22.91,0-79.431,22.056-79.431,55.34c0,23.706,7.039,45.034,14.492,67.616		c3.168,9.594,6.44,19.518,9.259,29.897c3.338,12.294,10.3,14.871,15.553,14.871c4.875,0,8.828,3.948,8.828,8.828		s-3.953,8.828-8.828,8.828c-5.866,0-25.56-2.008-32.59-27.905c-2.698-9.913-5.897-19.608-8.991-28.983		c-7.91-23.966-15.38-46.603-15.38-73.151C159.394,25.578,228.317,0,256.498,0c28.177,0,97.086,25.578,97.086,72.995		c0,26.548-7.47,49.185-15.38,73.151c-3.095,9.375-6.293,19.069-8.991,28.983C322.184,201.026,302.489,203.034,296.623,203.034z"/></g><path style="fill:#D2AFF0;" d="M377.81,307.396l-55.204-39.727c-27.66-19.905-44.055-51.903-44.055-85.982v-56.846	c0-11.544-8.308-22.062-19.795-23.211c-13.21-1.321-24.343,9.015-24.343,21.955v58.145c0,34.079-16.395,66.076-44.056,85.982	l-55.144,39.683c-9.12,6.563-12.822,18.979-7.507,28.878c4.102,7.639,11.752,11.743,19.53,11.743c4.466,0,8.974-1.345,12.875-4.156	l44.839-32.267c30.802-22.166,72.323-22.166,103.125,0l44.839,32.267c3.901,2.81,8.409,4.156,12.875,4.156	c7.778,0,15.427-4.103,19.53-11.743C390.632,326.376,386.93,313.96,377.81,307.396z"/><path style="fill:#A573CD;" d="M270.793,244.152c-0.036,0-0.071,0.011-0.107,0.011c1.334-2.372,2.157-5.071,2.157-7.987	c0-9.062-7.346-16.407-16.407-16.407c-9.062,0-16.407,7.346-16.407,16.407c0,2.925,0.829,5.632,2.17,8.01	c-8.902,0.183-16.071,7.427-16.071,16.373c0,9.062,7.346,16.407,16.406,16.407c6.055,0,11.285-3.317,14.129-8.198	c2.844,4.881,8.073,8.198,14.127,8.198c9.062,0,16.407-7.346,16.407-16.407C287.198,251.498,279.853,244.152,270.793,244.152z"/><g></g><g></g><g></g><g></g><g></g><g></g><g></g><g></g><g></g><g></g><g></g><g></g><g></g><g></g><g></g></svg>