<svg version="1.1" id="Layer_1" xmlns="http://www.w3.org/2000/svg" xmlns:xlink="http://www.w3.org/1999/xlink" x="0px" y="0px"	 viewBox="0 0 512 512" style="enable-background:new 0 0 512 512;" xml:space="preserve"><path style="fill:#F064C3;" d="M241.138,177.457L209.526,74.594c-6.621-15.982-14.698-30.367-22.741-40.5	c-10.508-13.237-20.177-18.159-28.755-14.607c-23.767,9.854-0.207,68.698,2.919,76.138l50.03,94.34	c1.095,2.069,2.969,3.612,5.212,4.301c0.845,0.258,1.716,0.388,2.586,0.388c1.431,0,2.854-0.345,4.142-1.035	c4.009-2.13,8.163-3.853,12.358-5.138c2.241-0.681,4.116-2.225,5.219-4.301C241.594,182.112,241.823,179.69,241.138,177.457z"/><g>	<path style="fill:#F569D2;" d="M226.099,181.854L175.03,87.147c-9.617-14.389-20.341-26.919-30.207-35.285		c-12.897-10.935-23.336-13.866-31.052-8.719c-21.393,14.297,13.203,67.423,17.716,74.108l67.474,82.767		c1.479,1.818,3.62,2.966,5.949,3.207c0.298,0.025,0.595,0.043,0.893,0.043c2.026,0,4-0.698,5.582-1.992		c3.482-2.836,7.233-5.354,11.143-7.466C226.81,191.491,228.409,186.146,226.099,181.854z"/>	<path style="fill:#F569D2;" d="M187.69,228.991c-1.112-2.06-2.996-3.595-5.237-4.267L79.349,193.862		c-7.082-1.405-69.405-13.052-74.431,12.19c-1.811,9.095,4.9,17.63,19.939,25.354c11.505,5.913,27.186,11.026,44.16,14.397		c0.271,0.061,0.547,0.095,0.823,0.129l106.22,10.819c0.301,0.025,0.599,0.043,0.897,0.043c2.026,0,4-0.698,5.582-1.992		c1.815-1.474,2.966-3.62,3.202-5.949c0.436-4.353,1.323-8.767,2.634-13.138C189.047,233.474,188.802,231.052,187.69,228.991z"/></g><path style="fill:#DC5FC0;" d="M200.018,198.957l-83.439-67.97c-6.013-4.013-59.138-38.603-73.436-17.212	c-14.293,21.401,37.996,57.241,44.004,61.25c0.233,0.156,0.474,0.301,0.719,0.439l93.996,50.638	c1.332,0.715,2.763,1.052,4.177,1.052c3.143,0,6.182-1.681,7.776-4.638c2.108-3.896,4.617-7.647,7.466-11.138	c1.479-1.811,2.177-4.138,1.944-6.465C202.987,202.578,201.832,200.439,200.018,198.957z"/><path style="fill:#F064C3;" d="M194.268,216.19c-0.685-2.241-2.232-4.113-4.306-5.216l-95.095-50.379	C78.88,153.97,63,149.508,50.147,148.034c-16.785-1.931-27.107,1.436-30.659,10.001c-3.548,8.569,1.366,18.241,14.612,28.75	c10.13,8.043,24.513,16.12,40.495,22.741c0.258,0.104,0.522,0.199,0.789,0.285l102.065,31.328c0.85,0.258,1.72,0.388,2.591,0.388	c1.431,0,2.849-0.345,4.138-1.026c2.069-1.103,3.616-2.974,4.301-5.216c1.293-4.215,3.026-8.371,5.146-12.371	C194.724,220.845,194.953,218.431,194.268,216.19z"/><path style="fill:#DC5FC0;" d="M245.811,69.013c-3.38-16.97-8.491-32.651-14.406-44.156C223.677,9.814,215.116,3.15,206.06,4.918	c-9.095,1.811-14.41,11.272-15.794,28.12c-1.056,12.893,0.215,29.341,3.794,47.125l30.664,102.284	c1.146,3.828,4.655,6.293,8.452,6.293c0.836,0,1.689-0.12,2.535-0.371c4.396-1.311,8.814-2.198,13.133-2.63	c2.332-0.233,4.474-1.388,5.956-3.198c1.483-1.818,2.185-4.147,1.944-6.483L245.811,69.013z"/><path style="fill:#F064C3;" d="M492.513,158.035c-3.552-8.565-13.87-11.932-30.659-10.001c-12.853,1.474-28.733,5.935-45.474,12.914	l-94.34,50.026c-2.073,1.103-3.62,2.974-4.306,5.216s-0.457,4.655,0.642,6.724c2.121,4,3.853,8.156,5.146,12.371	c0.685,2.241,2.232,4.113,4.301,5.216c1.289,0.681,2.707,1.026,4.138,1.026c0.871,0,1.741-0.129,2.591-0.388l102.853-31.612	c15.987-6.621,30.367-14.698,40.5-22.741C491.147,176.276,496.061,166.603,492.513,158.035z"/><path style="fill:#F569D2;" d="M468.857,113.771c-14.302-21.393-67.423,13.203-74.108,17.716l-82.767,67.47	c-1.815,1.483-2.969,3.62-3.207,5.956c-0.233,2.327,0.466,4.655,1.944,6.465c2.849,3.491,5.357,7.242,7.466,11.138	c1.594,2.957,4.633,4.638,7.776,4.638c1.414,0,2.845-0.337,4.177-1.052l94.716-51.078c14.388-9.612,26.919-20.337,35.285-30.202	C471.073,131.927,474.008,121.479,468.857,113.771z"/><path style="fill:#DC5FC0;" d="M507.082,206.051c-5.031-25.224-67.345-13.603-74.431-12.19c-0.276,0.052-0.547,0.12-0.814,0.199	l-102.289,30.664c-2.241,0.672-4.125,2.207-5.237,4.267c-1.112,2.06-1.357,4.483-0.685,6.724c1.311,4.371,2.198,8.785,2.634,13.138	c0.237,2.327,1.388,4.474,3.202,5.949c1.582,1.293,3.556,1.992,5.582,1.992c0.298,0,0.595-0.018,0.897-0.043l107.043-10.948	c16.974-3.371,32.655-8.483,44.16-14.397C502.182,223.681,508.893,215.147,507.082,206.051z"/><path style="fill:#F064C3;" d="M353.97,19.487c-8.561-3.561-18.246,1.37-28.755,14.607c-8.043,10.134-16.12,24.518-23.026,41.289	l-31.328,102.073c-0.685,2.232-0.457,4.655,0.642,6.724c1.103,2.078,2.978,3.62,5.219,4.301c4.194,1.284,8.349,3.009,12.358,5.138	c1.289,0.69,2.711,1.035,4.142,1.035c0.871,0,1.741-0.129,2.586-0.388c2.241-0.69,4.116-2.232,5.212-4.301l50.388-95.1	C354.177,88.19,377.746,29.341,353.97,19.487z"/><path style="fill:#F569D2;" d="M321.732,33.038c-1.384-16.85-6.698-26.311-15.789-28.12c-9.047-1.768-17.621,4.896-25.349,19.939	c-5.913,11.505-11.026,27.186-14.526,44.988l-10.815,106.216c-0.242,2.336,0.461,4.664,1.944,6.483	c1.483,1.811,3.625,2.966,5.956,3.198c4.319,0.431,8.737,1.319,13.133,2.63c0.845,0.25,1.698,0.371,2.535,0.371	c3.797,0,7.306-2.465,8.452-6.293l30.867-103.1C321.517,62.379,322.788,45.931,321.732,33.038z"/><path style="fill:#DC5FC0;" d="M398.228,43.143c-7.706-5.138-18.151-2.216-31.052,8.719c-9.866,8.366-20.59,20.897-30.638,36.004	l-50.638,93.987c-2.311,4.294-0.712,9.637,3.573,11.957c3.91,2.112,7.659,4.629,11.143,7.466c1.582,1.293,3.556,1.992,5.582,1.992	c0.298,0,0.595-0.018,0.893-0.043c2.327-0.242,4.47-1.388,5.949-3.207l67.975-83.439C385.026,110.564,419.62,57.44,398.228,43.143z"	/><path style="fill:#F569D2;" d="M402.051,436.836c-3.957-12.319-11.426-27.026-21.539-42.087l-67.474-82.767	c-1.479-1.819-3.62-2.966-5.949-3.207c-2.297-0.207-4.66,0.466-6.474,1.949c-3.483,2.836-7.233,5.354-11.143,7.466	c-4.285,2.319-5.884,7.663-3.573,11.957l51.069,94.707c3.539,5.293,31.75,46.465,53.052,46.465c2.888,0,5.651-0.759,8.203-2.457	C405.935,463.706,407.224,452.94,402.051,436.836z"/><path style="fill:#DC5FC0;" d="M317.94,431.837l-30.664-102.284c-1.397-4.672-6.315-7.31-10.987-5.922	c-4.396,1.311-8.814,2.198-13.133,2.63c-2.332,0.233-4.474,1.388-5.956,3.198c-1.483,1.818-2.185,4.147-1.944,6.483l10.935,107.043	c3.38,16.966,8.491,32.655,14.406,44.156c6.905,13.449,14.453,20.233,22.465,20.233c0.952,0,1.918-0.095,2.883-0.294	C331.181,502.051,319.552,439.742,317.94,431.837z"/><path style="fill:#F064C3;" d="M363.97,461.854c-1.479-12.853-5.94-28.733-12.918-45.483l-50.03-94.336	c-1.095-2.069-2.969-3.612-5.212-4.301c-2.241-0.681-4.655-0.466-6.729,0.647c-4.009,2.13-8.163,3.853-12.358,5.138	c-2.241,0.681-4.116,2.225-5.219,4.301c-1.099,2.069-1.327,4.491-0.642,6.724l31.612,102.862	c6.621,15.982,14.698,30.362,22.741,40.5c8.306,10.457,16.09,15.724,23.211,15.724c1.892,0,3.742-0.371,5.535-1.121	C362.535,488.966,365.897,478.655,363.97,461.854z"/><path style="fill:#DC5FC0;" d="M460.138,367.181c-8.366-9.87-20.897-20.595-35.285-30.207c-0.233-0.156-0.474-0.301-0.719-0.439	l-93.996-50.638c-4.294-2.311-9.642-0.698-11.953,3.586c-2.108,3.896-4.617,7.647-7.466,11.138	c-1.479,1.811-2.177,4.138-1.944,6.465c0.237,2.336,1.393,4.474,3.207,5.956l83.439,67.975	c14.392,9.612,29.099,17.078,41.409,21.035c6.453,2.069,12.052,3.104,16.771,3.104c7.06,0,12.168-2.311,15.254-6.931	C474.008,390.517,471.073,380.068,460.138,367.181z"/><path style="fill:#F064C3;" d="M477.906,325.216c-10.134-8.043-24.513-16.12-40.5-22.741c-0.258-0.104-0.522-0.199-0.789-0.285	l-102.065-31.328c-2.254-0.69-4.655-0.466-6.729,0.638c-2.069,1.103-3.616,2.974-4.301,5.216c-1.293,4.215-3.026,8.371-5.146,12.371	c-1.099,2.069-1.327,4.483-0.642,6.724c0.685,2.241,2.232,4.113,4.306,5.216l95.095,50.379c4.483,1.854,32.452,13.078,53.349,13.078	c10.246,0,18.788-2.698,22.03-10.517C496.061,345.397,491.147,335.724,477.906,325.216z"/><path style="fill:#F569D2;" d="M487.143,280.595c-11.505-5.913-27.186-11.026-44.16-14.397c-0.271-0.061-0.547-0.095-0.823-0.129	l-106.22-10.819c-2.362-0.181-4.664,0.466-6.478,1.949c-1.815,1.474-2.966,3.62-3.202,5.949c-0.436,4.345-1.323,8.767-2.63,13.146	c-1.397,4.664,1.255,9.587,5.922,10.983l103.1,30.862c3.505,0.698,20.53,3.896,37.449,3.896c17.276,0,34.444-3.336,36.983-16.086	C508.893,296.853,502.182,288.319,487.143,280.595z"/><path style="fill:#F064C3;" d="M193.625,289.086c-2.121-4-3.853-8.156-5.146-12.371c-0.685-2.241-2.232-4.113-4.301-5.216	c-2.078-1.103-4.487-1.327-6.729-0.638L74.595,302.473c-15.982,6.621-30.367,14.698-40.495,22.741	c-13.246,10.508-18.159,20.181-14.612,28.75c3.233,7.801,11.746,10.508,21.983,10.508c20.961,0,49.16-11.328,54.151-13.422	l94.34-50.026c2.073-1.103,3.62-2.974,4.306-5.216S194.724,291.155,193.625,289.086z"/><path style="fill:#F569D2;" d="M201.28,300.62c-2.849-3.491-5.357-7.242-7.466-11.138c-2.315-4.285-7.668-5.897-11.953-3.586	l-94.716,51.078c-6.008,4.018-58.297,39.853-44.004,61.25c3.086,4.621,8.194,6.931,15.254,6.931c4.724,0,10.319-1.035,16.771-3.104	c12.314-3.957,27.021-11.431,42.082-21.535l82.767-67.474c1.815-1.483,2.969-3.62,3.207-5.956	C203.457,304.758,202.759,302.431,201.28,300.62z"/><path style="fill:#DC5FC0;" d="M188.371,276.294c-1.306-4.38-2.194-8.802-2.63-13.146c-0.237-2.327-1.388-4.474-3.202-5.949	c-1.811-1.483-4.113-2.13-6.478-1.949L69.017,266.198c-16.974,3.371-32.655,8.483-44.16,14.397	c-15.039,7.724-21.75,16.258-19.939,25.354c2.539,12.75,19.702,16.086,36.988,16.086c16.914,0,33.94-3.198,37.444-3.896	c0.276-0.052,0.547-0.12,0.814-0.199l102.284-30.664C187.116,285.879,189.768,280.957,188.371,276.294z"/><path style="fill:#F064C3;" d="M240.495,327.819c-1.103-2.078-2.978-3.62-5.219-4.301c-4.194-1.284-8.349-3.009-12.358-5.138	c-2.078-1.112-4.5-1.327-6.729-0.647c-2.241,0.69-4.116,2.232-5.212,4.301L160.59,417.13c-6.621,15.991-11.078,31.871-12.556,44.724	c-1.931,16.802,1.436,27.112,9.996,30.655c1.798,0.742,3.647,1.121,5.539,1.121c7.125,0,14.91-5.267,23.215-15.724	c8.043-10.138,16.12-24.518,23.026-41.293l31.328-102.069C241.823,332.31,241.594,329.888,240.495,327.819z"/><path style="fill:#DC5FC0;" d="M222.526,318.189c-3.91-2.112-7.659-4.629-11.143-7.466c-1.815-1.483-4.138-2.155-6.474-1.949	c-2.327,0.242-4.47,1.388-5.949,3.207l-67.975,83.439c-9.612,14.388-17.081,29.095-21.038,41.414	c-5.173,16.104-3.884,26.871,3.828,32.025c2.552,1.698,5.311,2.457,8.199,2.457c21.306,0,49.569-41.259,53.487-47.181l50.638-93.992	C228.409,325.854,226.81,320.509,222.526,318.189z"/><path style="fill:#F569D2;" d="M254.802,329.457c-1.483-1.811-3.625-2.966-5.956-3.198c-4.319-0.431-8.737-1.319-13.133-2.63	c-4.69-1.388-9.59,1.25-10.987,5.922l-30.867,103.095c-1.409,7.095-13.038,69.405,12.199,74.431	c0.966,0.199,1.931,0.294,2.883,0.294c8.018,0,15.561-6.784,22.465-20.233c5.913-11.5,11.026-27.181,14.526-44.983l10.815-106.216	C256.988,333.603,256.285,331.276,254.802,329.457z"/><g>	<path style="fill:#D255BE;" d="M212.211,189.121l-68.569-82.931c-12.237-12.237-25.203-22.431-36.509-28.715		c-14.788-8.215-25.608-9.038-32.151-2.496c-6.556,6.556-5.72,17.375,2.492,32.156c6.284,11.306,16.479,24.271,29.336,37.074		l82.315,68c1.642,1.362,3.634,2.026,5.617,2.026c2.539,0,5.06-1.086,6.806-3.198c2.849-3.439,6.044-6.638,9.492-9.5		C214.788,198.431,215.31,192.871,212.211,189.121z"/>	<path style="fill:#D255BE;" d="M185.72,249.293c0.457-4.853-3.104-9.155-7.953-9.612L70.621,229.517		C63.392,229.517,0,230.259,0,256c0,25.241,60.948,26.449,70.922,26.449c0.199,0,0.38-0.009,0.534-0.009l106.311-10.121		c4.85-0.457,8.409-4.759,7.953-9.612c-0.207-2.207-0.341-4.439-0.341-6.707C185.378,253.732,185.513,251.5,185.72,249.293z"/>	<path style="fill:#D255BE;" d="M437.022,74.983c-6.556-6.552-17.366-5.711-32.156,2.492c-11.306,6.284-24.271,16.479-37.074,29.336		l-68.004,82.311c-3.1,3.75-2.578,9.311,1.173,12.414c3.448,2.862,6.643,6.06,9.492,9.5c1.746,2.112,4.267,3.198,6.806,3.198		c1.978,0,3.975-0.664,5.617-2.026l82.935-68.565c12.237-12.237,22.431-25.203,28.715-36.509		C442.737,92.353,443.573,81.535,437.022,74.983z"/>	<path style="fill:#D255BE;" d="M256,0c-25.741,0-26.483,63.392-26.444,71.457l10.116,106.311c0.466,4.845,4.672,8.405,9.612,7.957		c4.431-0.431,9-0.431,13.431,0c0.28,0.025,0.556,0.034,0.832,0.034c4.5,0,8.345-3.423,8.78-7.991l10.155-107.147		C282.483,63.392,281.741,0,256,0z"/>	<path style="fill:#D255BE;" d="M405.19,367.793l-82.315-68c-3.746-3.104-9.311-2.586-12.423,1.173		c-2.849,3.439-6.044,6.638-9.492,9.5c-3.75,3.104-4.271,8.664-1.173,12.414l68.569,82.931		c12.237,12.233,25.203,22.431,36.509,28.715c8.224,4.569,15.22,6.854,20.94,6.854c4.561,0,8.306-1.457,11.211-4.362		C455.211,418.819,410.922,373.465,405.19,367.793z"/>	<path style="fill:#D255BE;" d="M441.379,229.517c-0.28,0-0.561,0.018-0.836,0.043l-106.311,10.121		c-4.85,0.457-8.409,4.759-7.953,9.612c0.207,2.207,0.341,4.439,0.341,6.707c0,2.268-0.134,4.5-0.341,6.707		c-0.457,4.853,3.104,9.155,7.953,9.612l107.147,10.164c7.229,0,70.621-0.742,70.621-26.483S448.608,229.517,441.379,229.517z"/>	<path style="fill:#D255BE;" d="M211.039,310.465c-3.448-2.862-6.643-6.06-9.492-9.5c-3.107-3.758-8.676-4.285-12.423-1.173		l-82.935,68.561c-5.112,5.112-49.401,50.465-31.211,68.664c2.91,2.905,6.655,4.362,11.215,4.362c5.72,0,12.715-2.284,20.94-6.854		c11.306-6.284,24.271-16.483,37.074-29.336l68.004-82.311C215.31,319.129,214.788,313.569,211.039,310.465z"/>	<path style="fill:#D255BE;" d="M272.328,334.232c-0.466-4.853-4.755-8.414-9.612-7.957c-4.423,0.431-9.009,0.431-13.431,0		c-4.828-0.439-9.151,3.112-9.612,7.957l-10.155,107.147c0,7.224,0.742,70.621,26.483,70.621s26.483-63.396,26.444-71.457		L272.328,334.232z"/></g><path style="fill:#FFA5F0;" d="M259.378,181.379l7.047-2.918c3.298-1.366,7.094-0.61,9.619,1.913l5.394,5.393	c1.655,1.655,3.9,2.584,6.24,2.585l7.627,0.001c3.57,0,6.788,2.151,8.155,5.449l2.92,7.046c0.896,2.163,2.614,3.881,4.776,4.776	l7.046,2.92c3.298,1.366,5.448,4.585,5.449,8.154l0.001,7.627c0,2.34,0.93,4.585,2.585,6.24l5.393,5.394	c2.524,2.525,3.279,6.321,1.913,9.619l-2.918,7.047c-0.896,2.163-0.896,4.593,0,6.754l2.918,7.047	c1.366,3.298,0.61,7.094-1.913,9.619l-5.393,5.394c-1.655,1.655-2.584,3.9-2.585,6.24l-0.001,7.627c0,3.57-2.151,6.788-5.449,8.155	l-7.046,2.92c-2.163,0.896-3.881,2.614-4.776,4.776l-2.92,7.046c-1.366,3.298-4.585,5.448-8.155,5.449l-7.627,0.001	c-2.34,0-4.585,0.93-6.24,2.585l-5.394,5.393c-2.525,2.524-6.321,3.279-9.619,1.913l-7.047-2.918c-2.163-0.896-4.593-0.896-6.754,0	l-7.047,2.918c-3.298,1.366-7.094,0.61-9.619-1.913l-5.394-5.393c-1.655-1.655-3.9-2.584-6.24-2.585l-7.627-0.001	c-3.57,0-6.788-2.151-8.154-5.449l-2.92-7.046c-0.896-2.163-2.614-3.881-4.776-4.776l-7.046-2.92	c-3.298-1.366-5.448-4.585-5.449-8.155l-0.001-7.627c0-2.34-0.93-4.585-2.585-6.24l-5.393-5.394	c-2.524-2.525-3.279-6.321-1.913-9.619l2.918-7.047c0.896-2.163,0.896-4.593,0-6.754l-2.918-7.047	c-1.366-3.298-0.61-7.094,1.913-9.619l5.393-5.394c1.655-1.655,2.584-3.9,2.585-6.24l0.001-7.627c0-3.57,2.151-6.788,5.449-8.154	l7.046-2.92c2.163-0.896,3.881-2.614,4.776-4.776l2.92-7.046c1.366-3.298,4.585-5.448,8.154-5.449l7.627-0.001	c2.34,0,4.585-0.93,6.24-2.585l5.394-5.393c2.525-2.524,6.321-3.279,9.619-1.913l7.047,2.918	C254.785,182.274,257.215,182.274,259.378,181.379z"/><path style="fill:#BE3C91;" d="M258.719,205.161l14.023-4.54c4.125-1.335,8.608,0.522,10.58,4.382l6.706,13.124	c0.845,1.654,2.19,2.999,3.844,3.844l13.124,6.706c3.86,1.972,5.717,6.455,4.382,10.58l-4.54,14.023	c-0.572,1.768-0.572,3.67,0,5.438l4.54,14.023c1.335,4.125-0.522,8.608-4.382,10.58l-13.124,6.706	c-1.654,0.845-2.999,2.19-3.844,3.844l-6.706,13.124c-1.972,3.86-6.455,5.717-10.58,4.382l-14.023-4.54	c-1.768-0.572-3.67-0.572-5.438,0l-14.023,4.54c-4.125,1.335-8.608-0.522-10.58-4.382l-6.706-13.124	c-0.845-1.654-2.19-2.999-3.844-3.844l-13.124-6.706c-3.86-1.972-5.717-6.455-4.382-10.58l4.54-14.023	c0.572-1.768,0.572-3.67,0-5.438l-4.54-14.023c-1.335-4.125,0.522-8.608,4.382-10.58l13.124-6.706	c1.654-0.845,2.999-2.19,3.844-3.844l6.706-13.124c1.972-3.86,6.455-5.717,10.58-4.382l14.023,4.54	C255.049,205.734,256.951,205.734,258.719,205.161z"/><circle style="fill:#732D7D;" cx="256" cy="256" r="37.87"/><g></g><g></g><g></g><g></g><g></g><g></g><g></g><g></g><g></g><g></g><g></g><g></g><g></g><g></g><g></g></svg>