<svg version="1.1" id="Layer_1" xmlns="http://www.w3.org/2000/svg" xmlns:xlink="http://www.w3.org/1999/xlink" x="0px" y="0px"	 viewBox="0 0 512 512" style="enable-background:new 0 0 512 512;" xml:space="preserve"><path style="fill:#FF6E6E;" d="M494.41,348.344c-28.396-32.276-86.022-70.094-130.664-96.828l-10.962-53.19	c29.949-41.069,67.349-97.052,80.742-137.034c1.133-3.38,0.12-7.104-2.564-9.449c-2.69-2.354-6.508-2.845-9.711-1.267	c-43.681,21.526-104.375,77.956-138.345,111.439l-53.832-0.018c-33.956-33.474-94.638-89.888-138.323-111.423	c-3.198-1.587-7.03-1.095-9.711,1.267c-2.686,2.345-3.699,6.069-2.564,9.449c13.47,40.215,51.147,96.518,81.314,137.818	l-10.539,51.81c-44.991,26.888-103.069,64.931-131.659,97.414c-2.358,2.681-2.871,6.508-1.306,9.707	c1.565,3.198,4.948,5.095,8.457,4.94c39.754-2.37,99.211-21.913,143.34-38.431l50.137,22.449c4.452,52,13.146,119.991,29.63,159.569	c1.37,3.286,4.587,5.432,8.151,5.432c3.564,0,6.776-2.146,8.147-5.431c16.461-39.509,25.155-107.371,29.608-159.276l50.268-22.716	c44.073,16.509,103.47,36.025,143.237,38.406c3.47,0.138,6.888-1.741,8.457-4.94C497.28,354.845,496.767,351.017,494.41,348.344z"/><path style="fill:#FF5050;" d="M495.715,153.956c-1.569-3.198-4.97-5.121-8.457-4.94c-48.991,2.922-128.03,31.982-170.781,49.052	c-2.018,0.806-3.478,2.327-4.424,4.105l-17.636-9.394c0.755-1.414,1.269-2.967,1.151-4.685	c-3.315-48.018-11.81-135.595-31.423-182.664C262.776,2.146,259.564,0,256,0c-3.564,0-6.776,2.146-8.147,5.431	c-18.962,45.5-27.526,128.896-31.064,177.638l-23.887,13.965c-43.896-17.422-120.289-45.164-168.16-48.018	c-3.526-0.199-6.892,1.732-8.457,4.94c-1.565,3.198-1.052,7.026,1.302,9.698c35.663,40.534,118.035,89.983,156.034,111.655	l1.271,17.293c-30.001,39.526-80.328,110.06-96.418,158.103c-1.133,3.38-0.12,7.104,2.564,9.449c2.69,2.354,6.517,2.845,9.711,1.267	c52.298-25.775,129.086-101.664,155.569-128.724l20.306,0.966c25.987,26.483,102.664,102.146,154.625,127.758	c1.241,0.612,2.578,0.914,3.905,0.914c2.091,0,4.163-0.742,5.806-2.182c2.686-2.345,3.699-6.069,2.564-9.449	c-16.608-49.587-71.423-125.146-96.47-158.173l1.655-17.414c37.854-21.603,120.104-71.009,155.702-111.466	C496.767,160.983,497.28,157.155,495.715,153.956z"/><path style="fill:#DC4141;" d="M351.021,288.785c-6.862-15.052-20.621-31.371-40.952-48.577	c15.03-24.129,23.548-45.069,25.332-62.293c0.271-2.638-0.651-5.259-2.521-7.138c-1.866-1.879-4.495-2.81-7.116-2.56	c-23.224,2.268-49.913,16.62-69.72,29.483c-19.81-12.862-46.505-27.215-69.725-29.483c-2.621-0.242-5.25,0.681-7.116,2.56	c-1.87,1.879-2.797,4.5-2.521,7.138c1.789,17.224,10.293,38.138,25.306,62.25c-20.358,17.224-34.137,33.551-41.009,48.621	c-1.095,2.414-1.056,5.19,0.116,7.569c1.173,2.37,3.345,4.095,5.927,4.698c15.069,3.474,34.784,2.845,58.694-1.931	c6.207,22.232,14.078,39.267,23.448,50.741c1.677,2.051,4.185,3.242,6.836,3.242s5.16-1.19,6.836-3.242	c9.366-11.466,17.237-28.509,23.444-50.741c23.918,4.776,43.638,5.405,58.698,1.931c2.582-0.604,4.755-2.327,5.927-4.698	C352.077,293.974,352.116,291.198,351.021,288.785z"/><circle style="fill:#FF5050;" cx="256" cy="256" r="30.897"/><g></g><g></g><g></g><g></g><g></g><g></g><g></g><g></g><g></g><g></g><g></g><g></g><g></g><g></g><g></g></svg>