<svg version="1.1" id="Layer_1" xmlns="http://www.w3.org/2000/svg" xmlns:xlink="http://www.w3.org/1999/xlink" x="0px" y="0px"	 viewBox="0 0 512.001 512.001" style="enable-background:new 0 0 512.001 512.001;" xml:space="preserve"><path style="fill:#A07DF0;" d="M34.299,384c7.134,12.353,19.647,28.836,38.75,37.19c21.052,9.207,44.534,6.465,69.78-8.113	c41.302-23.844,68.694-56.914,78.56-70.044c0.062-0.083,0.124-0.166,0.184-0.249c7.244-9.866,18.046-16.483,30.286-16.483h8.285	c12.234,0,23.039,6.605,30.275,16.469c0.067,0.092,0.134,0.182,0.202,0.273c9.858,13.121,37.25,46.189,78.551,70.035	c25.263,14.595,48.742,17.311,69.78,8.113c19.104-8.353,31.616-24.836,38.75-37.19s15.147-31.431,12.832-52.147	c-2.556-22.828-16.655-41.793-41.913-56.38c-41.263-23.828-83.629-31.026-99.939-33.017c-0.057-0.007-0.115-0.013-0.173-0.02	c-12.213-1.354-23.41-7.36-29.554-18.002l-4.146-7.18c-6.121-10.603-5.77-23.265-0.861-34.482c0.041-0.094,0.082-0.188,0.121-0.282	c6.428-15.085,21.379-55.336,21.379-103.042C335.449,7.742,279.888,0,256.001,0s-79.448,7.742-79.448,79.448	c0,47.706,14.953,87.957,21.379,103.043c0.043,0.099,0.085,0.2,0.129,0.299c4.906,11.211,5.25,23.868-0.868,34.465l-4.149,7.187	c-6.111,10.584-17.225,16.612-29.369,17.98c-0.122,0.014-0.245,0.029-0.367,0.044c-16.298,1.983-58.664,9.181-99.927,33.009	c-25.259,14.586-39.362,33.551-41.913,56.38C19.148,352.561,27.165,371.647,34.299,384z"/><path style="fill:#9164EB;" d="M67.941,367.998c5.558,6.814,15.619,7.95,23.235,3.553l118.279-68.288	c28.803-16.629,64.29-16.629,93.094,0l118.279,68.288c7.615,4.397,17.677,3.261,23.235-3.553c7.085-8.686,4.513-21.202-4.771-26.567	l-119.086-68.754c-28.803-16.63-46.548-47.362-46.548-80.622V53.912c0-8.794-6.008-16.947-14.689-18.36	c-11.061-1.8-20.621,6.691-20.621,17.414v139.09c0,33.259-17.743,63.992-46.548,80.622L72.712,341.431	C63.428,346.796,60.856,359.311,67.941,367.998z"/><path style="fill:#C3B4F0;" d="M413.521,408.863c-10.85,0-22.799-3.725-35.521-11.075c-38.519-22.238-64.067-53.109-73.345-65.46	c-11.04-15.05-27.264-23.681-44.511-23.681h-8.285c-17.236,0-33.462,8.635-44.585,23.782c-9.202,12.245-34.762,43.125-73.274,65.359	c-12.725,7.348-24.678,11.074-35.527,11.074c-6.428,0-12.43-1.259-18.351-3.849c-14.708-6.432-24.723-19.778-30.535-29.842	c-5.811-10.062-12.362-25.404-10.575-41.356c1.92-17.178,12.779-31.261,33.197-43.051c38.473-22.217,78.015-28.92,93.44-30.797	c18.537-2.088,34.094-11.818,42.684-26.697l4.15-7.187c8.601-14.9,9.24-33.259,1.692-50.51	c-6.004-14.092-19.967-51.67-19.967-96.124c0-41.003,20.79-61.793,61.793-61.793s61.793,20.79,61.793,61.793	c0,44.455-13.963,82.031-20.02,96.247c-7.493,17.121-6.858,35.486,1.746,50.389l4.146,7.179	c8.611,14.915,24.247,24.655,42.878,26.719c15.231,1.859,54.806,8.582,93.25,30.781c20.415,11.789,31.274,25.873,33.197,43.051	c1.783,15.958-4.767,31.298-10.574,41.357c-5.812,10.065-15.827,23.411-30.533,29.842	C425.955,407.604,419.95,408.863,413.521,408.863 M413.521,426.518c8.818,0,17.305-1.774,25.433-5.329	c19.104-8.353,31.616-24.836,38.75-37.19s15.147-31.431,12.832-52.147c-2.556-22.828-16.655-41.793-41.913-56.38	c-41.263-23.828-83.629-31.026-99.939-33.017c-0.057-0.007-0.115-0.013-0.173-0.02c-12.213-1.354-23.41-7.36-29.554-18.002	l-4.146-7.18c-6.121-10.603-5.77-23.265-0.861-34.482c0.041-0.094,0.082-0.188,0.121-0.282	c6.425-15.085,21.377-55.336,21.377-103.042C335.449,7.742,279.888,0,256.001,0s-79.448,7.742-79.448,79.448	c0,47.706,14.953,87.957,21.379,103.043c0.043,0.099,0.085,0.2,0.129,0.299c4.906,11.211,5.25,23.868-0.868,34.465l-4.149,7.187	c-6.111,10.584-17.225,16.612-29.369,17.98c-0.122,0.014-0.245,0.029-0.367,0.044c-16.298,1.983-58.664,9.181-99.927,33.009	c-25.259,14.586-39.362,33.551-41.913,56.38c-2.319,20.707,5.698,39.793,12.832,52.147s19.647,28.836,38.75,37.19	c8.125,3.553,16.615,5.327,25.425,5.327c14.018,0,28.853-4.488,44.355-13.439c41.302-23.844,68.694-56.914,78.56-70.044	c0.062-0.083,0.124-0.165,0.184-0.249c7.244-9.866,18.046-16.483,30.286-16.483h8.285c12.234,0,23.039,6.605,30.275,16.469	c0.067,0.092,0.134,0.182,0.202,0.273c9.858,13.121,37.25,46.189,78.551,70.035C384.678,422.035,399.513,426.517,413.521,426.518	L413.521,426.518z"/><path style="fill:#A07DF0;" d="M477.702,128c-7.134-12.353-19.647-28.836-38.75-37.19c-21.052-9.207-44.534-6.465-69.78,8.113	c-41.302,23.844-68.694,56.914-78.56,70.044c-0.062,0.083-0.124,0.166-0.184,0.249c-7.244,9.866-18.046,16.483-30.286,16.483h-8.285	c-12.234,0-23.039-6.605-30.275-16.469c-0.067-0.092-0.134-0.182-0.202-0.273c-9.858-13.121-37.25-46.189-78.551-70.035	c-25.263-14.595-48.742-17.31-69.78-8.113C53.944,99.164,41.431,115.647,34.297,128s-15.147,31.431-12.832,52.147	c2.556,22.828,16.655,41.793,41.913,56.38c41.263,23.828,83.629,31.026,99.939,33.017c0.057,0.007,0.115,0.013,0.173,0.02	c12.213,1.354,23.41,7.36,29.554,18.002l4.146,7.18c6.121,10.603,5.77,23.265,0.861,34.482c-0.041,0.094-0.082,0.188-0.121,0.283	c-6.426,15.086-21.379,55.336-21.379,103.043c0,71.706,55.561,79.448,79.448,79.448s79.448-7.742,79.448-79.448	c0-47.706-14.953-87.957-21.379-103.043c-0.043-0.099-0.085-0.2-0.129-0.299c-4.906-11.211-5.25-23.868,0.868-34.465l4.149-7.187	c6.111-10.584,17.225-16.612,29.369-17.98c0.122-0.014,0.245-0.029,0.367-0.044c16.298-1.983,58.664-9.181,99.927-33.009	c25.259-14.586,39.362-33.551,41.913-56.38C492.854,159.439,484.836,140.353,477.702,128z"/><path style="fill:#9164EB;" d="M444.06,144.002c-5.558-6.814-15.619-7.95-23.235-3.553l-118.279,68.288	c-28.803,16.629-64.29,16.629-93.094,0L91.174,140.449c-7.615-4.397-17.677-3.261-23.235,3.553	c-7.085,8.686-4.513,21.202,4.771,26.567l119.086,68.754c28.803,16.63,46.548,47.362,46.548,80.622v138.143	c0,8.794,6.008,16.947,14.689,18.36c11.061,1.8,20.621-6.691,20.621-17.414v-139.09c0-33.259,17.743-63.992,46.548-80.622	l119.086-68.754C448.573,165.204,451.145,152.689,444.06,144.002z"/><path style="fill:#C3B4F0;" d="M98.48,103.137c10.85,0,22.799,3.725,35.521,11.075c38.519,22.238,64.067,53.109,73.345,65.46	c11.04,15.05,27.264,23.681,44.511,23.681h8.285c17.236,0,33.462-8.634,44.585-23.782c9.202-12.245,34.762-43.125,73.274-65.359	c12.725-7.348,24.678-11.074,35.527-11.074c6.428,0,12.43,1.259,18.351,3.849c14.708,6.432,24.723,19.778,30.535,29.842	c5.811,10.062,12.362,25.404,10.575,41.356c-1.92,17.178-12.779,31.261-33.197,43.051c-38.473,22.217-78.015,28.92-93.44,30.797	c-18.537,2.088-34.094,11.818-42.684,26.697l-4.15,7.187c-8.601,14.9-9.24,33.259-1.692,50.51	c6.004,14.092,19.967,51.67,19.967,96.124c0,41.003-20.79,61.793-61.793,61.793s-61.793-20.79-61.793-61.793	c0-44.455,13.963-82.031,20.02-96.247c7.494-17.121,6.858-35.486-1.746-50.389l-4.146-7.179	c-8.611-14.915-24.247-24.655-42.878-26.719c-15.231-1.859-54.806-8.582-93.25-30.781c-20.415-11.789-31.274-25.873-33.197-43.051	c-1.783-15.958,4.767-31.298,10.574-41.357c5.812-10.065,15.827-23.411,30.534-29.842C86.045,104.396,92.051,103.137,98.48,103.137	 M98.48,85.482c-8.818,0-17.305,1.774-25.433,5.329c-19.103,8.353-31.616,24.836-38.75,37.19s-15.147,31.431-12.832,52.147	c2.556,22.828,16.655,41.793,41.913,56.38c41.263,23.828,83.629,31.026,99.939,33.017c0.057,0.007,0.115,0.013,0.173,0.02	c12.213,1.354,23.41,7.36,29.554,18.002l4.146,7.18c6.121,10.603,5.77,23.265,0.861,34.482c-0.041,0.094-0.082,0.188-0.121,0.283	c-6.426,15.086-21.379,55.336-21.379,103.043c0,71.706,55.561,79.448,79.448,79.448s79.448-7.742,79.448-79.448	c0-47.706-14.953-87.957-21.379-103.043c-0.043-0.099-0.085-0.2-0.129-0.299c-4.906-11.211-5.25-23.868,0.868-34.465l4.149-7.187	c6.111-10.584,17.225-16.612,29.369-17.98c0.122-0.014,0.245-0.029,0.367-0.044c16.298-1.983,58.664-9.181,99.927-33.009	c25.259-14.586,39.362-33.551,41.913-56.38c2.319-20.707-5.698-39.793-12.832-52.147s-19.645-28.836-38.749-37.189	c-8.125-3.553-16.615-5.327-25.425-5.327c-14.018,0-28.853,4.488-44.355,13.439c-41.302,23.844-68.694,56.914-78.56,70.044	c-0.062,0.083-0.124,0.166-0.184,0.249c-7.244,9.866-18.046,16.483-30.286,16.483h-8.285c-12.234,0-23.039-6.605-30.275-16.469	c-0.067-0.092-0.134-0.182-0.202-0.273c-9.858-13.121-37.25-46.189-78.551-70.035C127.323,89.965,112.488,85.483,98.48,85.482	L98.48,85.482z"/><circle style="fill:#8250D2;" cx="256.067" cy="254.323" r="26.483"/><g>	<path style="fill:#B9B964;" d="M256.071,250.183c-5.943,0-10.759-4.815-10.759-10.759v-7.172c0-5.943,4.815-10.759,10.759-10.759		c5.943,0,10.759,4.815,10.759,10.759v7.172C266.83,245.367,262.014,250.183,256.071,250.183z"/>	<path style="fill:#B9B964;" d="M276.443,278.872c-1.99,0-4-0.55-5.8-1.702l-6.038-3.873c-5.001-3.208-6.454-9.866-3.246-14.867		c3.215-4.998,9.873-6.444,14.867-3.246l6.038,3.873c5.001,3.208,6.454,9.866,3.246,14.867		C283.454,277.126,279.984,278.872,276.443,278.872z"/>	<path style="fill:#B9B964;" d="M235.699,278.872c-3.544,0-7.011-1.748-9.067-4.949c-3.208-5.001-1.754-11.659,3.246-14.867		l6.038-3.873c5.004-3.208,11.659-1.748,14.867,3.246c3.208,5.001,1.754,11.659-3.246,14.867l-6.038,3.873		C239.698,278.323,237.689,278.872,235.699,278.872z"/></g><g></g><g></g><g></g><g></g><g></g><g></g><g></g><g></g><g></g><g></g><g></g><g></g><g></g><g></g><g></g></svg>