<svg version="1.1" id="Layer_1" xmlns="http://www.w3.org/2000/svg" xmlns:xlink="http://www.w3.org/1999/xlink" x="0px" y="0px"	 viewBox="0 0 511.999 511.999" style="enable-background:new 0 0 511.999 511.999;" xml:space="preserve"><path style="fill:#FFDC37;" d="M505.779,187.329c-6.987-20.155-19.064-37.317-34.003-48.317	c-15.931-11.724-33.262-15.215-48.796-9.827c-26.749,9.275-52.291,31.103-81.859,56.386c-16.828,14.391-34.127,29.125-52.992,42.768	c6.784-22.854,15.199-44.541,23.463-65.62c14.197-36.223,26.456-67.497,26.456-95.815c0-32.628-36.813-59.179-82.061-59.179	c-45.253,0-82.066,26.55-82.066,59.179c0,28.309,12.262,59.593,26.456,95.806c8.261,21.075,16.679,42.76,23.462,65.611	c-18.854-13.637-36.145-28.366-52.964-42.749c-29.568-25.283-55.109-47.11-81.858-56.386c-15.529-5.388-32.86-1.897-48.796,9.827	c-14.939,11-27.016,28.162-34.002,48.308c-6.991,20.155-8.129,41.111-3.206,58.998c5.25,19.077,16.693,32.542,32.232,37.929	c16.96,5.888,36.663,7.5,58.722,7.5c12.728,0,26.249-0.534,40.473-1.103c22.005-0.874,44.585-1.738,67.718-0.799	c-18.117,13.198-36.734,24.729-54.899,35.961c-33.098,20.465-61.682,38.137-78.669,60.8c-19.577,26.093-6.055,69.42,30.141,96.573	c17.064,12.802,36.67,20.266,55.209,21.034c1.065,0.043,2.112,0.061,3.155,0.061c18.344,0,33.455-6.75,42.791-19.206	c16.99-22.645,25.952-55.032,36.326-92.53c5.85-21.142,11.877-42.835,19.78-64.495c7.903,21.66,13.929,43.354,19.78,64.495	c10.374,37.498,19.335,69.885,36.322,92.53c9.336,12.456,24.447,19.206,42.791,19.206c1.043,0,2.094-0.018,3.155-0.061	c18.538-0.767,38.145-8.232,55.213-21.034c36.197-27.154,49.718-70.48,30.145-96.573c-16.99-22.663-45.576-40.335-78.674-60.8	c-18.164-11.233-36.781-22.763-54.898-35.96c23.137-0.939,45.729-0.076,67.738,0.798c14.228,0.569,27.741,1.103,40.473,1.103	c22.059,0,41.762-1.612,58.722-7.5c15.538-5.388,26.982-18.853,32.232-37.929C513.909,228.431,512.771,207.475,505.779,187.329z"/><g>	<path style="fill:#FFEB78;" d="M263.307,250.214c0.341-0.519,0.567-1.092,0.794-1.686c0.173-0.448,0.367-0.866,0.466-1.343		c0.031-0.148,0.121-0.267,0.145-0.418l18.311-119.012c0.741-4.819-2.564-9.327-7.383-10.069c-4.771-0.759-9.323,2.56-10.064,7.378		l-9.586,62.308l-9.586-62.308c-0.746-4.819-5.327-8.146-10.064-7.378c-4.819,0.741-8.124,5.25-7.383,10.069l18.31,119.012		c0.023,0.151,0.115,0.27,0.145,0.418c0.098,0.477,0.292,0.895,0.466,1.343c0.228,0.594,0.453,1.167,0.794,1.686		c0.247,0.377,0.546,0.689,0.847,1.024c0.428,0.476,0.866,0.909,1.385,1.28c0.364,0.263,0.743,0.469,1.149,0.675		c0.596,0.303,1.205,0.522,1.863,0.684c0.259,0.064,0.466,0.228,0.735,0.27c0.437,0.067,0.875,0.098,1.309,0.1		c0.007,0,0.012,0.003,0.019,0.003l0.013-0.001l0.013,0.001c0.007,0,0.012-0.003,0.019-0.003c0.434-0.002,0.872-0.033,1.309-0.1		c0.269-0.042,0.476-0.206,0.735-0.27c0.658-0.162,1.267-0.381,1.863-0.684c0.406-0.206,0.785-0.413,1.149-0.675		c0.519-0.371,0.957-0.804,1.385-1.28C262.761,250.901,263.06,250.591,263.307,250.214z"/>	<path style="fill:#FFEB78;" d="M411.081,235.836c-1.06-4.767-5.75-7.749-10.525-6.715l-61.546,13.605l54.611-31.475		c4.224-2.431,5.673-7.828,3.237-12.051c-2.444-4.224-7.84-5.68-12.056-3.242l-104.323,60.127c-0.124,0.071-0.19,0.195-0.309,0.271		c-0.532,0.341-0.945,0.78-1.386,1.219c-0.384,0.382-0.796,0.718-1.098,1.155c-0.32,0.46-0.5,0.975-0.727,1.487		c-0.232,0.524-0.495,1.015-0.621,1.573c-0.118,0.516-0.089,1.047-0.111,1.587c-0.025,0.618-0.073,1.215,0.033,1.834		c0.024,0.143-0.024,0.28,0.008,0.424c0.143,0.646,0.46,1.193,0.728,1.769c0.11,0.238,0.111,0.499,0.246,0.732		c0.033,0.058,0.085,0.097,0.119,0.154c0.14,0.231,0.326,0.414,0.484,0.629c0.392,0.53,0.81,1.018,1.293,1.437		c0.229,0.199,0.467,0.365,0.714,0.54c0.513,0.36,1.05,0.655,1.622,0.897c0.26,0.111,0.505,0.23,0.777,0.316		c0.834,0.263,1.694,0.435,2.574,0.441c0.019,0,0.035,0.009,0.053,0.009l0.009-0.001l0.008,0.001c0.029,0,0.059-0.011,0.088-0.011		c0.596-0.007,1.202-0.065,1.809-0.195l117.573-25.991C409.125,245.31,412.132,240.595,411.081,235.836z"/>	<path style="fill:#FFEB78;" d="M226.988,272.547c0.029,0,0.058,0.011,0.087,0.011c0,0,0.006-0.001,0.008-0.001		c0,0,0.006,0.001,0.009,0.001c0.019,0,0.035-0.009,0.053-0.009c0.881-0.008,1.739-0.179,2.574-0.441		c0.271-0.086,0.517-0.205,0.779-0.317c0.57-0.241,1.107-0.536,1.62-0.896c0.248-0.173,0.487-0.341,0.715-0.54		c0.482-0.417,0.899-0.904,1.29-1.433c0.161-0.217,0.348-0.401,0.489-0.633c0.034-0.056,0.085-0.096,0.118-0.153		c0.134-0.231,0.135-0.489,0.244-0.726c0.27-0.577,0.586-1.127,0.73-1.773c0.032-0.143-0.017-0.28,0.008-0.424		c0.106-0.619,0.06-1.216,0.033-1.834c-0.023-0.54,0.007-1.07-0.111-1.587c-0.126-0.557-0.389-1.049-0.621-1.573		c-0.227-0.512-0.408-1.027-0.727-1.487c-0.302-0.437-0.714-0.773-1.098-1.155c-0.441-0.439-0.854-0.878-1.386-1.219		c-0.119-0.076-0.184-0.201-0.309-0.271l-104.319-60.127c-4.241-2.44-9.625-0.983-12.056,3.242		c-2.435,4.224-0.988,9.621,3.237,12.051l54.609,31.475l-61.543-13.605c-4.746-1.017-9.474,1.949-10.525,6.715		c-1.052,4.759,1.956,9.474,6.715,10.525l117.569,25.991C225.786,272.482,226.389,272.541,226.988,272.547z"/>	<path style="fill:#FFEB78;" d="M247.18,294.516c-0.096-0.562-0.147-1.116-0.348-1.648c-0.184-0.488-0.497-0.908-0.769-1.364		c-0.323-0.542-0.622-1.076-1.06-1.543c-0.095-0.102-0.128-0.236-0.229-0.334c-0.327-0.318-0.74-0.451-1.1-0.707		c-0.378-0.273-0.66-0.637-1.089-0.853c-0.131-0.065-0.276-0.052-0.408-0.11c-0.594-0.263-1.203-0.367-1.829-0.492		c-0.499-0.098-0.977-0.252-1.476-0.264c-0.621-0.018-1.213,0.124-1.825,0.236c-0.502,0.094-0.997,0.135-1.475,0.312		c-0.531,0.197-0.99,0.531-1.483,0.833c-0.504,0.308-1.003,0.583-1.441,0.991c-0.108,0.1-0.25,0.137-0.354,0.244l-83.781,86.479		c-3.392,3.509-3.301,9.094,0.199,12.483c1.716,1.664,3.931,2.491,6.142,2.491c2.306,0,4.608-0.897,6.34-2.681l43.849-45.262		l-28.212,56.339c-2.185,4.362-0.418,9.664,3.939,11.853c1.267,0.629,2.616,0.931,3.944,0.931c3.237,0,6.353-1.784,7.9-4.879		l53.911-107.659c0.063-0.126,0.05-0.263,0.106-0.391c0.259-0.584,0.364-1.184,0.49-1.801c0.108-0.524,0.265-1.026,0.276-1.55		C247.409,295.606,247.274,295.072,247.18,294.516z"/>	<path style="fill:#FFEB78;" d="M279.057,289.817c-0.105-0.108-0.248-0.143-0.356-0.245c-0.439-0.41-0.943-0.687-1.45-0.995		c-0.487-0.298-0.939-0.629-1.464-0.824c-0.502-0.188-1.024-0.232-1.554-0.327c-0.584-0.103-1.143-0.241-1.735-0.225		c-0.53,0.011-1.036,0.171-1.564,0.28c-0.599,0.126-1.186,0.223-1.754,0.474c-0.136,0.06-0.281,0.046-0.415,0.113		c-0.433,0.217-0.715,0.584-1.096,0.857c-0.358,0.255-0.769,0.388-1.095,0.703c-0.102,0.098-0.135,0.232-0.229,0.334		c-0.438,0.467-0.737,1.001-1.06,1.543c-0.273,0.456-0.585,0.876-0.769,1.364c-0.202,0.532-0.253,1.086-0.348,1.648		c-0.094,0.556-0.228,1.09-0.215,1.654c0.011,0.525,0.169,1.027,0.276,1.55c0.126,0.617,0.231,1.217,0.49,1.801		c0.056,0.127,0.043,0.265,0.106,0.391l53.911,107.659c1.547,3.095,4.664,4.879,7.9,4.879c1.327,0,2.677-0.301,3.944-0.931		c4.357-2.189,6.125-7.491,3.939-11.853l-28.212-56.339l43.849,45.262c1.732,1.784,4.034,2.681,6.34,2.681		c2.211,0,4.427-0.828,6.142-2.491c3.5-3.387,3.59-8.974,0.199-12.483L279.057,289.817z"/></g><circle style="fill:#FFE55E;" cx="255.989" cy="272.882" r="35.309"/><g>	<circle style="fill:#F0A500;" cx="123.58" cy="204.151" r="11.034"/>	<circle style="fill:#F0A500;" cx="109.512" cy="237.805" r="11.034"/>	<circle style="fill:#F0A500;" cx="154.387" cy="382.902" r="11.034"/>	<circle style="fill:#F0A500;" cx="184.731" cy="404.043" r="11.034"/>	<circle style="fill:#F0A500;" cx="357.038" cy="382.902" r="11.034"/>	<circle style="fill:#F0A500;" cx="326.695" cy="404.043" r="11.034"/>	<circle style="fill:#F0A500;" cx="388.949" cy="204.151" r="11.034"/>	<circle style="fill:#F0A500;" cx="237.672" cy="126.14" r="11.034"/>	<circle style="fill:#F0A500;" cx="274.537" cy="126.14" r="11.034"/>	<circle style="fill:#F0A500;" cx="403.017" cy="237.805" r="11.034"/></g><g></g><g></g><g></g><g></g><g></g><g></g><g></g><g></g><g></g><g></g><g></g><g></g><g></g><g></g><g></g></svg>