<svg version="1.1" id="Layer_1" xmlns="http://www.w3.org/2000/svg" xmlns:xlink="http://www.w3.org/1999/xlink" x="0px" y="0px"	 viewBox="0 0 512 512" style="enable-background:new 0 0 512 512;" xml:space="preserve"><path style="fill:#FFF5DC;" d="M474.469,371.939l-0.094-0.054c-5.366-3.098-9.124-8.529-9.654-14.701	c-2.419-28.164-22.634-75.773-44.225-105.586c-2.039-2.816-5.601-4.057-8.992-3.292l-113.31,25.565	c-2.069,0.47-3.901,1.664-5.16,3.371l-38.247,49.483c-1.594,2.164-0.633,5.293,0.065,7.887c6.845,25.448,19.53,44.129,36.69,54.035	c18.168,10.487,44.349,13.125,66.082,13.125c12.574,0,23.659-0.884,30.836-1.638c7.936-0.836,39.841-4.679,59.563-13.879	c5.638-2.631,12.228-2.134,17.617,0.977l0.002,0.001c1.388,0.802,2.91,1.181,4.405,1.181c3.052,0,6.017-1.582,7.656-4.414	C480.138,379.78,478.693,374.379,474.469,371.939z"/><path style="fill:#FFFCF0;" d="M370.664,331.034c-1.495,0-3.012-0.38-4.405-1.181l-50.673-29.255	c-4.224-2.44-5.668-7.837-3.233-12.061s7.828-5.677,12.061-3.233l50.673,29.255c4.224,2.44,5.668,7.837,3.233,12.061	C376.681,329.452,373.716,331.034,370.664,331.034z"/><path style="fill:#F8EBC8;" d="M477.702,128c-2.444-4.224-7.849-5.673-12.061-3.233l-0.183,0.106	c-5.355,3.092-11.911,3.622-17.522,1.023c-25.318-11.72-75.722-18.132-111.742-14.727c-3.328,0.314-6.102,2.551-7.256,5.688	c-6.995,19.008-31.464,85.505-37.103,100.832c-0.761,2.069-0.703,4.3,0.13,6.342l27.616,67.584c1.042,2.55,3.261,4.531,5.933,5.201	c9.551,2.396,18.677,3.593,27.253,3.593c13.526,0,25.668-2.974,35.88-8.866c28.681-16.561,50.401-60.199,58.406-78.194	c3.244-7.289,15.872-36.843,17.766-58.524c0.542-6.197,4.266-11.656,9.652-14.765l0,0C478.693,137.621,480.138,132.22,477.702,128z"	/><g>	<path style="fill:#FFF5DC;" d="M319.939,227.918c-3.052,0-6.017-1.582-7.656-4.414c-2.435-4.22-0.991-9.621,3.233-12.061		l50.741-29.298c4.22-2.444,9.612-0.988,12.061,3.233c2.435,4.22,0.991,9.621-3.233,12.061l-50.741,29.298		C322.957,227.539,321.435,227.918,319.939,227.918z"/>	<path style="fill:#FFF5DC;" d="M314.591,69.216c-4.692-6.453-23.974-32.163-41.801-44.643c-5.097-3.567-7.962-9.523-7.962-15.744		V8.828C264.827,3.953,260.875,0,256,0c-4.875,0-8.828,3.953-8.828,8.828v0.128c0,6.193-2.822,12.158-7.897,15.706		c-23.118,16.16-54.183,57.33-69.212,90.818c-1.426,3.177-0.712,6.879,1.652,9.434l77.806,84.116		c1.587,1.716,3.789,2.733,6.125,2.824c0,0,66.306,6.767,66.422,6.767c2.53,0,6.616-5.121,8.298-7.026		c14.875-16.894,22.737-35.117,22.737-52.7C353.103,125.775,326.173,85.146,314.591,69.216z"/></g><path style="fill:#FFFCF0;" d="M256,195.229c-4.875,0-8.828-3.953-8.828-8.828v-62.815c0-4.875,3.953-8.828,8.828-8.828	c4.875,0,8.828,3.953,8.828,8.828v62.815C264.827,191.276,260.875,195.229,256,195.229z"/><path style="fill:#F8EBC8;" d="M256.629,175.53c-6.948-24.487-19.457-42.526-36.172-52.177	c-28.681-16.552-77.332-13.535-96.918-11.487c-7.936,0.836-39.841,4.679-59.565,13.879c-5.638,2.63-12.227,2.134-17.614-0.977	l-0.001-0.001c-4.224-2.44-9.621-0.991-12.061,3.233c-2.435,4.22-0.991,9.621,3.233,12.061l0.075,0.043	c5.411,3.125,9.119,8.609,9.656,14.836c2.435,28.265,22.752,75.917,44.484,105.794c1.685,2.315,4.353,3.634,7.138,3.634	c0.66,0,1.323-0.073,1.983-0.224l112.979-26.022c2.121-0.491,3.987-1.746,5.237-3.526l38.753-48.489	C259.364,183.929,257.357,178.091,256.629,175.53z"/><g>	<path style="fill:#FFF5DC;" d="M191.448,227.564c-1.495,0-3.017-0.38-4.405-1.181l-50.13-28.943		c-4.224-2.44-5.668-7.84-3.233-12.061c2.435-4.221,7.84-5.677,12.061-3.233l50.13,28.943c4.224,2.44,5.668,7.84,3.233,12.061		C197.465,225.983,194.5,227.564,191.448,227.564z"/>	<path style="fill:#FFF5DC;" d="M219.835,278.694l-27.953-58.845c-1.112-2.342-3.238-4.131-5.754-4.755		c-24.471-6.073-46.193-4.21-62.775,5.363c-28.681,16.561-50.401,60.199-58.406,78.194c-3.244,7.289-15.872,36.843-17.766,58.524		c-0.542,6.197-4.266,11.656-9.652,14.765l0,0c-4.224,2.44-5.668,7.84-3.233,12.061c1.638,2.831,4.604,4.414,7.656,4.414		c1.495,0,3.017-0.38,4.405-1.181l0.124-0.072c5.384-3.108,11.975-3.622,17.606-0.985c20.562,9.626,57.668,15.582,90.474,15.582		c8.049,0,15.842-0.36,23.055-1.109c3.423-0.355,6.247-2.728,7.305-6.003c6.583-20.388,30.078-93.149,35.36-109.507		C220.972,282.999,220.802,280.727,219.835,278.694z"/></g><path style="fill:#FFFCF0;" d="M141.336,331.034c-3.052,0-6.017-1.582-7.656-4.414c-2.435-4.224-0.991-9.621,3.233-12.061	l53.038-30.621c4.224-2.44,9.617-0.991,12.061,3.233c2.435,4.224,0.991,9.621-3.233,12.061l-53.038,30.621	C144.349,330.655,142.831,331.034,141.336,331.034z"/><path style="fill:#F8EBC8;" d="M291.543,388.647c-17.178-9.917-29.874-28.628-36.713-54.121c-0.684-2.548-0.12-5.325,1.446-7.448	l12.659-17.162l-6.473-6.963c-1.556-1.674-3.701-2.678-5.983-2.802l-67.849-3.668c0,0-5.535,2.098-8.888,6.121	c-13.647,16.267-20.845,33.681-20.845,50.499c0,33.121,26.931,73.75,38.513,89.681c4.692,6.453,23.974,32.163,41.801,44.643	c5.096,3.567,7.961,9.523,7.961,15.743v0.002c0,4.875,3.953,8.828,8.828,8.828c4.875,0,8.828-3.953,8.828-8.828v-0.061	c0-6.205,2.813-12.206,7.901-15.757c22.073-15.405,51.322-53.604,67.037-86.244C322.662,399.82,304.929,396.373,291.543,388.647z"/><path style="fill:#FFF5DC;" d="M256,397.241c-4.875,0-8.828-3.953-8.828-8.828v-60.5c0-4.875,3.953-8.828,8.828-8.828	c4.875,0,8.828,3.953,8.828,8.828v60.5C264.827,393.289,260.875,397.241,256,397.241z"/><path style="fill:#FFEB6E;" d="M339.862,256c0,8.572-9.97,15.463-12.481,23.197c-2.603,8.015,1.322,19.432-3.533,26.103	c-4.904,6.738-17.007,6.509-23.745,11.412c-6.671,4.855-10.166,16.463-18.18,19.065c-7.734,2.511-17.351-4.743-25.922-4.743	c-8.572,0-18.189,7.254-25.923,4.743c-8.015-2.603-11.511-14.211-18.182-19.066c-6.738-4.904-18.841-4.675-23.744-11.413	c-4.855-6.671-0.93-18.088-3.532-26.102c-2.513-7.733-12.481-14.624-12.481-23.196s9.97-15.463,12.481-23.197	c2.603-8.015-1.322-19.432,3.533-26.103c4.904-6.738,17.007-6.509,23.745-11.412c6.671-4.855,10.166-16.463,18.18-19.065	c7.734-2.511,17.351,4.743,25.922,4.743c8.572,0,18.189-7.254,25.923-4.743c8.015,2.603,11.511,14.211,18.182,19.066	c6.738,4.904,18.841,4.675,23.744,11.413c4.855,6.671,0.93,18.088,3.532,26.102C329.892,240.537,339.862,247.428,339.862,256z"/><circle style="fill:#FFD73C;" cx="256" cy="256" r="52.966"/><g>	<path style="fill:#FFA04B;" d="M256.29,251.586c-7.315,0-13.241-5.927-13.241-13.241v-8.828c0-7.315,5.927-13.241,13.241-13.241		s13.241,5.927,13.241,13.241v8.828C269.531,245.66,263.605,251.586,256.29,251.586z"/>	<path style="fill:#FFA04B;" d="M281.364,286.897c-2.449,0-4.922-0.676-7.138-2.094l-7.431-4.767		c-6.155-3.948-7.944-12.142-3.996-18.297c3.957-6.151,12.151-7.932,18.297-3.996l7.431,4.767		c6.155,3.948,7.944,12.142,3.996,18.297C289.993,284.746,285.721,286.897,281.364,286.897z"/>	<path style="fill:#FFA04B;" d="M231.216,286.897c-4.362,0-8.629-2.151-11.159-6.091c-3.948-6.155-2.159-14.349,3.996-18.297		l7.431-4.767c6.159-3.948,14.349-2.151,18.297,3.996c3.948,6.155,2.159,14.349-3.996,18.297l-7.431,4.767		C236.139,286.22,233.665,286.897,231.216,286.897z"/></g><g></g><g></g><g></g><g></g><g></g><g></g><g></g><g></g><g></g><g></g><g></g><g></g><g></g><g></g><g></g></svg>