<svg version="1.1" id="Layer_1" xmlns="http://www.w3.org/2000/svg" xmlns:xlink="http://www.w3.org/1999/xlink" x="0px" y="0px"	 viewBox="0 0 512 512" style="enable-background:new 0 0 512 512;" xml:space="preserve"><path style="fill:#9BBEFF;" d="M255.927,185.379c-4.875,0-8.828-3.948-8.828-8.828V8.828c0-4.879,3.953-8.828,8.828-8.828	c4.875,0,8.828,3.948,8.828,8.828v167.724C264.755,181.431,260.802,185.379,255.927,185.379z"/><g>	<path style="fill:#82A0FF;" d="M255.927,185.379c-4.875,0-8.828-3.948-8.828-8.828c0-3.966,0.034-8.034,0.073-12.163		c0.353-40.595,0.755-86.612-32.134-113.405c-3.78-3.078-4.345-8.638-1.267-12.423c3.086-3.767,8.647-4.345,12.423-1.267		c39.462,32.156,39,84.879,38.63,127.25c-0.034,4.077-0.07,8.086-0.07,12.009C264.755,181.431,260.802,185.379,255.927,185.379z"/>	<path style="fill:#82A0FF;" d="M256.073,185.379c-4.875,0-8.828-3.948-8.828-8.828c0-3.923-0.034-7.932-0.07-12.009		c-0.371-42.37-0.832-95.095,38.63-127.25c3.78-3.078,9.349-2.5,12.423,1.267c3.078,3.785,2.513,9.345-1.267,12.423		c-32.888,26.793-32.487,72.81-32.133,113.406c0.039,4.129,0.073,8.199,0.073,12.163C264.9,181.431,260.948,185.379,256.073,185.379		z"/></g><path style="fill:#9BBEFF;" d="M256.073,512c-4.875,0-8.828-3.948-8.828-8.828V335.448c0-4.879,3.953-8.828,8.828-8.828	s8.828,3.948,8.828,8.828v167.724C264.9,508.052,260.948,512,256.073,512z"/><g>	<path style="fill:#82A0FF;" d="M291.379,476.69c-1.961,0-3.935-0.647-5.574-1.983c-39.462-32.156-39-84.879-38.63-127.25		c0.034-4.077,0.07-8.086,0.07-12.009c0-4.879,3.953-8.828,8.828-8.828s8.828,3.948,8.828,8.828c0,3.966-0.034,8.034-0.073,12.163		c-0.353,40.595-0.755,86.612,32.134,113.405c3.78,3.078,4.345,8.638,1.267,12.423C296.482,475.577,293.94,476.69,291.379,476.69z"		/>	<path style="fill:#82A0FF;" d="M220.62,476.69c-2.56,0-5.103-1.112-6.849-3.25c-3.078-3.785-2.513-9.345,1.267-12.423		c32.888-26.793,32.487-72.81,32.134-113.405c-0.039-4.129-0.073-8.199-0.073-12.163c0-4.879,3.953-8.828,8.828-8.828		c4.875,0,8.828,3.948,8.828,8.828c0,3.923,0.034,7.932,0.07,12.009c0.371,42.37,0.832,95.095-38.63,127.25		C224.556,476.043,222.582,476.69,220.62,476.69z"/></g><path style="fill:#9BBEFF;" d="M176.552,264.896H8.828c-4.875,0-8.828-3.948-8.828-8.828c0-4.879,3.953-8.828,8.828-8.828h167.724	c4.875,0,8.828,3.948,8.828,8.828C185.379,260.948,181.427,264.896,176.552,264.896z"/><g>	<path style="fill:#82A0FF;" d="M44.134,300.206c-1.961,0-3.935-0.647-5.574-1.983c-3.776-3.078-4.345-8.638-1.267-12.423		c32.156-39.466,84.905-38.966,127.245-38.63c4.082,0.034,8.095,0.07,12.013,0.07c4.875,0,8.828,3.948,8.828,8.828		c0,4.879-3.953,8.828-8.828,8.828c-3.97,0-8.034-0.034-12.168-0.07c-40.582-0.388-86.607-0.75-113.401,32.129		C49.237,299.095,46.694,300.206,44.134,300.206z"/>	<path style="fill:#82A0FF;" d="M151.758,264.905c-39.763,0-85.474-3.129-114.465-38.707c-3.078-3.785-2.508-9.345,1.267-12.423		c3.78-3.069,9.341-2.508,12.423,1.267c26.793,32.888,72.866,32.569,113.401,32.129c4.134-0.034,8.199-0.07,12.168-0.07		c4.875,0,8.828,3.948,8.828,8.828c0,4.879-3.953,8.828-8.828,8.828c-3.918,0-7.932,0.034-12.013,0.07		C160.371,264.862,156.099,264.905,151.758,264.905z"/></g><path style="fill:#9BBEFF;" d="M503.172,264.758H335.448c-4.875,0-8.828-3.948-8.828-8.828s3.953-8.828,8.828-8.828h167.724	c4.875,0,8.828,3.948,8.828,8.828S508.047,264.758,503.172,264.758z"/><g>	<path style="fill:#82A0FF;" d="M360.242,264.905c-4.345,0-8.608-0.043-12.78-0.077c-4.082-0.034-8.095-0.07-12.013-0.07		c-4.875,0-8.828-3.948-8.828-8.828s3.953-8.828,8.828-8.828c3.97,0,8.034,0.034,12.168,0.07		c40.604,0.439,86.603,0.759,113.401-32.129c3.086-3.776,8.655-4.337,12.423-1.267c3.776,3.078,4.345,8.638,1.267,12.423		C445.72,261.775,400.004,264.905,360.242,264.905z"/>	<path style="fill:#82A0FF;" d="M467.866,300.206c-2.56,0-5.103-1.112-6.849-3.25c-26.793-32.888-72.819-32.534-113.401-32.129		c-4.134,0.034-8.199,0.07-12.168,0.07c-4.875,0-8.828-3.948-8.828-8.828c0-4.879,3.953-8.828,8.828-8.828		c3.918,0,7.932-0.034,12.013-0.07c42.379-0.328,95.091-0.828,127.245,38.63c3.078,3.785,2.508,9.345-1.267,12.423		C471.801,299.561,469.827,300.206,467.866,300.206z"/></g><path style="fill:#9BBEFF;" d="M187.15,225.164c-1.495,0-3.012-0.38-4.405-1.181L37.491,140.121	c-4.224-2.44-5.668-7.837-3.233-12.061c2.44-4.215,7.823-5.673,12.061-3.233l145.255,83.862c4.224,2.44,5.668,7.837,3.233,12.061	C193.169,223.577,190.202,225.164,187.15,225.164z"/><g>	<path style="fill:#82A0FF;" d="M187.15,225.164c-1.495,0-3.012-0.38-4.405-1.181c-3.435-1.983-6.935-4.052-10.496-6.146		c-34.987-20.604-74.616-43.939-114.28-28.871c-4.53,1.75-9.651-0.552-11.388-5.112c-1.732-4.552,0.556-9.655,5.112-11.388		c47.569-18.121,93.009,8.655,129.513,30.164c3.518,2.069,6.974,4.104,10.367,6.06c4.224,2.44,5.668,7.837,3.233,12.061		C193.169,223.586,190.202,225.164,187.15,225.164z"/>	<path style="fill:#82A0FF;" d="M187.224,225.043c-1.495,0-3.012-0.38-4.405-1.181c-3.392-1.956-6.879-3.932-10.426-5.94		c-36.879-20.871-82.776-46.836-90.892-97.095c-0.776-4.81,2.496-9.345,7.31-10.121c4.814-0.819,9.341,2.5,10.121,7.31		c6.763,41.879,46.815,64.543,82.155,84.534c3.591,2.035,7.125,4.034,10.56,6.017c4.224,2.44,5.668,7.837,3.233,12.061		C193.241,223.466,190.275,225.043,187.224,225.043z"/>	<path style="fill:#82A0FF;" d="M427.655,345.517c-35.509,0-68.819-19.62-96.862-36.147c-3.518-2.069-6.974-4.104-10.367-6.06		c-4.224-2.44-5.668-7.837-3.233-12.061c2.435-4.224,7.823-5.681,12.061-3.233c3.435,1.983,6.935,4.052,10.496,6.146		c34.987,20.604,74.643,43.957,114.28,28.871c4.552-1.741,9.655,0.552,11.388,5.112c1.732,4.552-0.556,9.655-5.112,11.388		C449.28,343.733,438.366,345.517,427.655,345.517z"/>	<path style="fill:#82A0FF;" d="M421.775,401.405c-4.258,0-8.004-3.086-8.707-7.423c-6.763-41.879-46.815-64.543-82.155-84.534		c-3.591-2.035-7.125-4.034-10.56-6.017c-4.224-2.44-5.668-7.837-3.233-12.061c2.435-4.233,7.819-5.681,12.061-3.233		c3.392,1.956,6.879,3.932,10.426,5.94c36.879,20.871,82.776,46.836,90.892,97.095c0.776,4.81-2.496,9.345-7.31,10.121		C422.716,401.37,422.241,401.405,421.775,401.405z"/></g><g>	<path style="fill:#9BBEFF;" d="M470.087,388.353c-1.495,0-3.012-0.38-4.405-1.181L320.427,303.31		c-4.224-2.44-5.668-7.837-3.233-12.061c2.435-4.215,7.823-5.681,12.061-3.233l145.255,83.862c4.224,2.44,5.668,7.837,3.233,12.061		C476.104,386.767,473.138,388.353,470.087,388.353z"/>	<path style="fill:#9BBEFF;" d="M132.47,478.922c-1.495,0-3.012-0.38-4.405-1.181c-4.224-2.44-5.668-7.837-3.233-12.061		l83.862-145.25c2.44-4.233,7.815-5.673,12.061-3.233c4.224,2.44,5.668,7.837,3.233,12.061l-83.862,145.25		C138.487,477.345,135.521,478.922,132.47,478.922z"/></g><g>	<path style="fill:#82A0FF;" d="M180.712,465.999c-3.556,0-6.91-2.164-8.25-5.689c-18.099-47.577,8.66-93,30.164-129.5		c2.069-3.526,4.108-6.983,6.069-10.379c2.44-4.215,7.815-5.673,12.061-3.233c4.224,2.44,5.668,7.837,3.233,12.061		c-1.987,3.439-4.052,6.948-6.151,10.508c-20.604,34.974-43.957,74.621-28.875,114.268c1.732,4.561-0.556,9.655-5.112,11.388		C182.819,465.818,181.754,465.999,180.712,465.999z"/>	<path style="fill:#82A0FF;" d="M119.414,430.612c-4.254,0-8-3.086-8.703-7.423c-0.776-4.81,2.496-9.345,7.31-10.121		c41.875-6.759,64.53-46.802,84.518-82.137c2.039-3.595,4.043-7.138,6.026-10.578c2.435-4.215,7.828-5.673,12.061-3.233		c4.224,2.44,5.668,7.837,3.233,12.061c-1.961,3.396-3.939,6.888-5.953,10.449c-20.857,36.871-46.824,82.759-97.074,90.871		C120.358,430.578,119.884,430.612,119.414,430.612z"/></g><path style="fill:#9BBEFF;" d="M295.651,195.982c-1.495,0-3.012-0.38-4.405-1.181c-4.224-2.44-5.668-7.837-3.233-12.061	l83.862-145.25c2.44-4.224,7.815-5.673,12.061-3.233c4.224,2.44,5.668,7.837,3.233,12.061l-83.862,145.25	C301.668,194.406,298.702,195.982,295.651,195.982z"/><g>	<path style="fill:#82A0FF;" d="M295.651,195.982c-1.495,0-3.012-0.38-4.405-1.181c-4.224-2.44-5.668-7.837-3.233-12.061		c1.987-3.439,4.052-6.94,6.146-10.5c20.604-34.983,43.957-74.621,28.879-114.275c-1.732-4.561,0.556-9.655,5.112-11.388		c4.561-1.741,9.655,0.552,11.388,5.112c18.094,47.577-8.664,93.009-30.164,129.508c-2.073,3.518-4.113,6.974-6.069,10.37		C301.668,194.397,298.702,195.982,295.651,195.982z"/>	<path style="fill:#82A0FF;" d="M295.78,196.061c-1.495,0-3.012-0.38-4.405-1.181c-4.224-2.44-5.668-7.837-3.233-12.061		c1.961-3.396,3.939-6.888,5.953-10.449c20.857-36.871,46.824-82.759,97.074-90.871c4.78-0.776,9.341,2.492,10.121,7.31		c0.776,4.81-2.496,9.345-7.31,10.121c-41.875,6.759-64.53,46.802-84.518,82.137c-2.039,3.595-4.043,7.138-6.026,10.578		C301.798,194.474,298.831,196.061,295.78,196.061z"/></g><path style="fill:#9BBEFF;" d="M324.85,225.164c-3.052,0-6.017-1.578-7.656-4.414c-2.435-4.224-0.991-9.621,3.233-12.061	l145.255-83.862c4.211-2.44,9.617-1,12.061,3.233c2.435,4.224,0.991,9.621-3.233,12.061l-145.255,83.862	C327.866,224.785,326.345,225.164,324.85,225.164z"/><g>	<path style="fill:#82A0FF;" d="M324.85,225.164c-3.052,0-6.017-1.578-7.656-4.414c-2.435-4.224-0.991-9.621,3.233-12.061		c3.392-1.956,6.849-3.991,10.367-6.06c36.504-21.508,81.944-48.267,129.513-30.164c4.556,1.732,6.845,6.836,5.112,11.388		c-1.741,4.561-6.867,6.854-11.388,5.112c-39.651-15.086-79.302,8.267-114.28,28.871c-3.561,2.094-7.06,4.163-10.496,6.146		C327.866,224.785,326.345,225.164,324.85,225.164z"/>	<path style="fill:#82A0FF;" d="M324.776,225.043c-3.052,0-6.017-1.578-7.656-4.414c-2.435-4.224-0.991-9.621,3.233-12.061		c3.435-1.983,6.969-3.982,10.56-6.017c35.34-19.991,75.392-42.655,82.155-84.534c0.776-4.81,5.298-8.129,10.121-7.31		c4.814,0.776,8.086,5.311,7.31,10.121c-8.116,50.259-54.013,76.224-90.892,97.095c-3.548,2.008-7.034,3.982-10.426,5.94		C327.793,224.664,326.272,225.043,324.776,225.043z"/></g><path style="fill:#9BBEFF;" d="M41.913,388.353c-3.052,0-6.017-1.578-7.656-4.414c-2.435-4.224-0.991-9.621,3.233-12.061	l145.255-83.862c4.211-2.449,9.617-0.991,12.061,3.233c2.435,4.224,0.991,9.621-3.233,12.061L46.318,387.172	C44.931,387.975,43.41,388.353,41.913,388.353z"/><g>	<path style="fill:#82A0FF;" d="M84.344,345.517c-10.716,0-21.625-1.784-32.651-5.983c-4.556-1.732-6.845-6.836-5.112-11.388		c1.737-4.569,6.849-6.854,11.388-5.112c39.655,15.086,79.302-8.267,114.28-28.871c3.561-2.094,7.06-4.163,10.496-6.146		c4.211-2.449,9.617-0.991,12.061,3.233c2.435,4.224,0.991,9.621-3.233,12.061c-3.392,1.956-6.849,3.991-10.367,6.06		C153.164,325.897,119.849,345.517,84.344,345.517z"/>	<path style="fill:#82A0FF;" d="M90.225,401.405c-0.466,0-0.94-0.034-1.414-0.113c-4.814-0.776-8.086-5.311-7.31-10.121		c8.116-50.259,54.013-76.224,90.892-97.095c3.548-2.008,7.034-3.982,10.426-5.94c4.215-2.449,9.612-1,12.061,3.233		c2.435,4.224,0.991,9.621-3.233,12.061c-3.435,1.983-6.969,3.982-10.56,6.017c-35.34,19.991-75.392,42.655-82.155,84.534		C98.229,398.319,94.483,401.405,90.225,401.405z"/>	<path style="fill:#82A0FF;" d="M331.288,465.999c-1.043,0-2.103-0.181-3.138-0.577c-4.556-1.732-6.845-6.828-5.112-11.388		c15.078-39.656-8.276-79.293-28.879-114.275c-2.094-3.561-4.16-7.06-6.146-10.5c-2.435-4.224-0.991-9.621,3.233-12.061		c4.207-2.44,9.617-1,12.061,3.233c1.956,3.396,3.996,6.854,6.069,10.37c21.5,36.5,48.258,81.931,30.164,129.508		C338.198,463.837,334.845,465.999,331.288,465.999z"/>	<path style="fill:#82A0FF;" d="M392.586,430.612c-0.47,0-0.943-0.034-1.418-0.113c-50.25-8.113-76.215-54.001-97.074-90.871		c-2.013-3.561-3.991-7.052-5.953-10.449c-2.435-4.224-0.991-9.621,3.233-12.061c4.211-2.44,9.617-1,12.061,3.233		c1.983,3.439,3.987,6.983,6.026,10.578c19.987,35.336,42.643,75.379,84.518,82.137c4.814,0.776,8.086,5.311,7.31,10.121		C400.586,427.526,396.841,430.612,392.586,430.612z"/></g><g>	<path style="fill:#9BBEFF;" d="M379.53,478.922c-3.052,0-6.017-1.578-7.656-4.414l-83.862-145.25		c-2.435-4.224-0.991-9.621,3.233-12.061c4.207-2.44,9.617-1,12.061,3.233l83.862,145.25c2.435,4.224,0.991,9.621-3.233,12.061		C382.548,478.543,381.026,478.922,379.53,478.922z"/>	<path style="fill:#9BBEFF;" d="M216.349,195.982c-3.052,0-6.017-1.578-7.656-4.414l-83.862-145.25		c-2.435-4.224-0.991-9.621,3.233-12.061c4.22-2.44,9.621-0.991,12.061,3.233l83.862,145.25c2.435,4.224,0.991,9.621-3.233,12.061		C219.367,195.604,217.845,195.982,216.349,195.982z"/></g><g>	<path style="fill:#82A0FF;" d="M216.349,195.982c-3.052,0-6.017-1.578-7.656-4.414c-1.961-3.396-4-6.854-6.069-10.379		c-21.504-36.5-48.263-81.922-30.164-129.5c1.732-4.561,6.84-6.862,11.388-5.112c4.556,1.732,6.845,6.828,5.112,11.388		c-15.082,39.647,8.271,79.293,28.875,114.268c2.099,3.561,4.163,7.069,6.151,10.508c2.435,4.224,0.991,9.621-3.233,12.061		C219.367,195.604,217.845,195.982,216.349,195.982z"/>	<path style="fill:#82A0FF;" d="M216.22,196.061c-3.052,0-6.017-1.578-7.656-4.414c-1.983-3.439-3.987-6.983-6.026-10.578		c-19.987-35.336-42.643-75.379-84.518-82.137c-4.814-0.776-8.086-5.311-7.31-10.121c0.78-4.819,5.336-8.095,10.121-7.31		c50.25,8.113,76.215,53.999,97.074,90.871c2.013,3.561,3.991,7.052,5.953,10.449c2.435,4.224,0.991,9.621-3.233,12.061		C219.238,195.681,217.716,196.061,216.22,196.061z"/></g><path style="fill:#9B69E1;" d="M344.203,256c0,7.026-20.207,11.304-21.94,17.783c-1.792,6.705,13.515,20.501,10.119,26.371	c-3.445,5.954-23.075-0.436-27.907,4.396c-4.832,4.832,1.556,24.461-4.397,27.906c-5.869,3.395-19.663-11.913-26.367-10.121	c-6.479,1.732-10.756,21.94-17.782,21.94s-11.304-20.207-17.783-21.94c-6.705-1.792-20.501,13.515-26.371,10.119	c-5.954-3.445,0.436-23.075-4.396-27.907c-4.832-4.832-24.461,1.556-27.906-4.397c-3.395-5.869,11.913-19.663,10.121-26.367	c-1.732-6.479-21.94-10.756-21.94-17.782c0-7.026,20.207-11.304,21.94-17.783c1.792-6.705-13.515-20.501-10.119-26.371	c3.445-5.954,23.075,0.436,27.907-4.396c4.832-4.832-1.556-24.461,4.397-27.906c5.869-3.395,19.663,11.913,26.367,10.121	c6.479-1.732,10.756-21.94,17.782-21.94s11.304,20.207,17.783,21.94c6.705,1.792,20.501-13.515,26.371-10.119	c5.954,3.445-0.436,23.075,4.396,27.907c4.832,4.832,24.461-1.556,27.906,4.397c3.395,5.869-11.913,19.663-10.121,26.367	C323.994,244.697,344.203,248.974,344.203,256z"/><path style="fill:#BE64E6;" d="M259.214,211.085l16.873-5.602c5.93-1.969,12.248,1.679,13.508,7.799l3.584,17.414	c0.454,2.204,1.607,4.201,3.288,5.695l13.289,11.811c4.67,4.151,4.67,11.447,0,15.597l-13.289,11.811	c-1.682,1.494-2.835,3.492-3.288,5.695l-3.584,17.414c-1.26,6.12-7.578,9.768-13.508,7.799l-16.873-5.602	c-2.135-0.708-4.441-0.708-6.577,0l-16.873,5.602c-5.93,1.969-12.248-1.679-13.508-7.799l-3.584-17.414	c-0.454-2.204-1.607-4.201-3.288-5.695l-13.289-11.811c-4.67-4.151-4.67-11.447,0-15.597l13.289-11.811	c1.682-1.494,2.835-3.492,3.288-5.695l3.584-17.414c1.26-6.12,7.578-9.768,13.508-7.799l16.873,5.602	C254.773,211.794,257.08,211.794,259.214,211.085z"/><path style="fill:#D791F0;" d="M282.091,260.914l-8.51-4.914l8.509-4.914c4.224-2.44,5.668-7.837,3.233-12.061	c-2.444-4.233-7.849-5.681-12.061-3.233l-8.509,4.914v-9.827c0-4.879-3.953-8.828-8.828-8.828s-8.828,3.948-8.828,8.828v9.827	l-8.509-4.914c-4.233-2.449-9.625-1-12.061,3.233c-2.435,4.224-0.991,9.621,3.233,12.061l8.509,4.914l-8.509,4.914	c-4.224,2.44-5.668,7.837-3.233,12.061c1.638,2.836,4.604,4.414,7.656,4.414c1.495,0,3.017-0.38,4.405-1.181l8.509-4.914v9.827	c0,4.879,3.953,8.828,8.828,8.828c4.875,0,8.828-3.948,8.828-8.828v-9.827l8.509,4.914c1.388,0.802,2.91,1.181,4.405,1.181	c3.052,0,6.017-1.578,7.656-4.414C287.758,268.75,286.315,263.353,282.091,260.914z"/><g></g><g></g><g></g><g></g><g></g><g></g><g></g><g></g><g></g><g></g><g></g><g></g><g></g><g></g><g></g></svg>