<svg version="1.1" id="Layer_1" xmlns="http://www.w3.org/2000/svg" xmlns:xlink="http://www.w3.org/1999/xlink" x="0px" y="0px"	 viewBox="0 0 511.999 511.999" style="enable-background:new 0 0 511.999 511.999;" xml:space="preserve"><path style="fill:#EBD0F7;" d="M509.646,348.314c-8.289-12.47-36.487-44.047-68.755-66.625v-51.38	c32.267-22.578,60.466-54.155,68.75-66.625c2.612-3.923,3.082-8.884,1.267-13.271c-1.818-4.388-5.66-7.561-10.276-8.491	c-14.694-2.957-56.952-5.345-95.729,1.504l-36.332-36.332c6.849-38.781,4.461-81.047,1.504-95.724	c-0.931-4.62-4.104-8.461-8.491-10.28c-4.392-1.818-9.354-1.336-13.271,1.263c-12.47,8.289-44.047,36.487-66.625,68.755h-51.38	c-22.575-32.268-54.153-60.467-66.623-68.751c-3.918-2.607-8.871-3.078-13.271-1.267c-4.388,1.818-7.561,5.66-8.491,10.275	c-2.957,14.681-5.345,56.948,1.504,95.729l-36.332,36.332c-38.788-6.849-81.056-4.466-95.724-1.504	c-4.621,0.931-8.461,4.104-10.28,8.491c-1.815,4.388-1.345,9.35,1.263,13.271c8.289,12.47,36.487,44.047,68.755,66.625v51.38	c-32.269,22.578-60.468,54.155-68.751,66.625c-2.612,3.923-3.082,8.884-1.267,13.271c1.818,4.388,5.66,7.561,10.275,8.491	c14.677,2.948,56.94,5.336,95.729-1.504l36.332,36.332c-6.849,38.781-4.461,81.047-1.504,95.724	c0.931,4.621,4.104,8.461,8.491,10.28c1.768,0.733,3.625,1.09,5.47,1.09c2.741,0,5.457-0.798,7.801-2.354	c12.47-8.289,44.047-36.487,66.625-68.755h51.38c22.578,32.267,54.155,60.466,66.625,68.75c3.923,2.607,8.871,3.077,13.271,1.267	c4.388-1.818,7.561-5.66,8.491-10.276c2.957-14.681,5.345-56.948-1.504-95.729l36.332-36.332c38.776,6.84,81.043,4.452,95.724,1.504	c4.621-0.931,8.461-4.104,10.28-8.491C512.723,357.198,512.253,352.236,509.646,348.314z"/><path style="fill:#EAB7E7;" d="M495.276,244.732c-12.703-8.534-45.798-23.892-78.63-31.229l-17-41.052	c18.017-28.396,30.564-62.659,33.517-77.689c0.862-4.423-0.534-8.974-3.742-12.185c-3.215-3.207-7.776-4.608-12.194-3.742	c-15.021,2.953-49.284,15.5-77.681,33.517l-41.052-17c-7.336-32.832-22.694-65.927-31.229-78.634	c-5.035-7.482-17.5-7.487-22.535,0.004c-8.534,12.703-23.892,45.798-31.229,78.63l-41.052,17	c-28.396-18.017-62.659-30.564-77.689-33.517c-4.448-0.875-8.974,0.538-12.185,3.742c-3.207,3.211-4.604,7.763-3.742,12.194	c2.953,15.021,15.5,49.284,33.517,77.681l-17,41.052c-32.832,7.336-65.927,22.694-78.634,31.229	c-3.742,2.517-5.974,6.729-5.974,11.267c0,4.538,2.232,8.75,5.978,11.267c12.703,8.534,45.798,23.892,78.63,31.229l17,41.052	c-18.017,28.396-30.564,62.659-33.517,77.689c-0.862,4.423,0.534,8.974,3.742,12.185c3.211,3.207,7.763,4.599,12.194,3.742	c15.021-2.953,49.284-15.5,77.681-33.517l41.052,17c7.336,32.832,22.694,65.927,31.229,78.634c2.517,3.742,6.729,5.974,11.267,5.974	s8.75-2.232,11.267-5.978c8.534-12.703,23.892-45.798,31.229-78.629l41.052-17c28.396,18.017,62.659,30.564,77.689,33.517	c4.448,0.875,8.974-0.538,12.185-3.742c3.207-3.211,4.604-7.763,3.742-12.194c-2.953-15.021-15.5-49.284-33.517-77.681l17-41.052	c32.832-7.336,65.927-22.694,78.634-31.229c3.742-2.517,5.974-6.729,5.974-11.267C501.254,251.461,499.021,247.249,495.276,244.732z	"/><path style="fill:#E890CE;" d="M378.439,262.533l0.341-13.504c24.414-14.449,69.888-45.203,60.12-68.789	c-10.134-24.452-58.354-15.935-83.392-9.621l-14.091-14.099c6.323-25.038,14.867-73.259-9.66-83.423	c-20.358-8.414-50.724,20.767-71.444,55.129l-9.112,0.28c-20.802-34.431-50.974-63.706-70.962-55.41	c-24.526,10.164-15.982,58.383-9.66,83.423l-14.073,14.073c-25.038-6.311-73.25-14.854-83.41,9.651	c-10.293,24.853,41.53,58.612,60.285,69.832l0.211,11.561c-19,11.38-70.806,45.216-60.495,70.121	c10.151,24.491,58.362,15.957,83.41,9.646l14.051,14.056c-6.332,25.043-14.883,73.267,9.681,83.435	c24.66,10.232,56.893-38.612,69.599-59.991h12.319c11.53,19.401,39.194,61.379,62.591,61.375c2.388,0,4.733-0.436,7.009-1.379	c24.561-10.177,16.009-58.401,9.677-83.439l14.073-14.082c25.038,6.311,73.263,14.831,83.392-9.621	C448.861,307.711,399.973,275.358,378.439,262.533z"/><path style="fill:#E777BD;" d="M319.71,275.589l0.526-39.758c55.543-61.379,52.254-82.289,45.237-89.306	c-7.034-7.03-28.018-10.311-89.586,45.492l-40.061-0.254c-61.379-55.556-82.297-52.254-89.302-45.237	c-7.048,7.048-10.319,28.065,45.668,89.775l0.418,38.926c-56.418,62.047-53.169,83.168-46.087,90.246	c2.082,2.082,5.375,3.832,10.564,3.832c12.452,0,35.81-10.065,79.5-49.759l39.121,0.271c61.707,55.978,82.72,52.712,89.763,45.655	C372.533,358.417,375.805,337.375,319.71,275.589z"/><path style="fill:#E559A9;" d="M290.421,224.15l-2.573-2.573c-0.28-19.944-3.224-97.345-31.849-97.345s-31.569,77.401-31.849,97.345	l-2.573,2.573c-19.944,0.28-97.345,3.224-97.345,31.849s77.401,31.569,97.345,31.849l2.573,2.573	c0.28,19.944,3.224,97.345,31.849,97.345s31.569-77.401,31.849-97.345l2.573-2.573c19.944-0.28,97.345-3.224,97.345-31.849	S310.365,224.43,290.421,224.15z"/><path style="fill:#CE4696;" d="M295.206,258.965l0.082-6.026c10.788-12.254,29.37-36.009,14.573-50.802	c-14.772-14.781-38.492,3.737-50.806,14.582l-6.159-0.043c-12.267-10.788-35.982-29.336-50.772-14.535	c-14.815,14.84,3.892,38.686,14.75,50.987l0.061,5.673c-10.948,12.392-29.638,36.254-14.781,51.091	c3.509,3.487,8.349,5.409,13.638,5.409c9.716,0,21.341-6.263,37.319-20.19l5.789,0.039c9.065,7.996,24.358,20.228,37.703,20.224	c4.798,0,9.341-1.578,13.255-5.5C324.667,295.085,306.107,271.322,295.206,258.965z"/><circle style="fill:#BE3C8C;" cx="255.999" cy="256" r="35.31"/><g>	<circle style="fill:#FFC337;" cx="255.999" cy="220.689" r="8.828"/>	<circle style="fill:#FFC337;" cx="255.999" cy="291.31" r="8.828"/>	<circle style="fill:#FFC337;" cx="291.31" cy="256" r="8.828"/>	<circle style="fill:#FFC337;" cx="220.689" cy="256" r="8.828"/></g><circle style="fill:#FFAF32;" cx="255.999" cy="256" r="13.241"/><g>	<circle style="fill:#FFC337;" cx="280.97" cy="231.029" r="8.828"/>	<circle style="fill:#FFC337;" cx="231.028" cy="280.971" r="8.828"/>	<circle style="fill:#FFC337;" cx="280.97" cy="280.971" r="8.828"/>	<circle style="fill:#FFC337;" cx="231.028" cy="231.029" r="8.828"/></g><g></g><g></g><g></g><g></g><g></g><g></g><g></g><g></g><g></g><g></g><g></g><g></g><g></g><g></g><g></g></svg>