<svg version="1.1" id="Layer_1" xmlns="http://www.w3.org/2000/svg" xmlns:xlink="http://www.w3.org/1999/xlink" x="0px" y="0px"	 viewBox="0 0 512 512" style="enable-background:new 0 0 512 512;" xml:space="preserve"><path style="fill:#FFF7EB;" d="M467.862,211.862c-7.742,0-24.918,3.082-54.603,8.53c-36.323,6.667-84.457,15.503-117.96,17.527	c-5.747,0.348-11.331-1.745-15.402-5.816l0,0c-4.072-4.072-6.164-9.655-5.816-15.402c2.024-33.503,10.86-81.636,17.527-117.96	c5.448-29.685,8.53-46.861,8.53-54.603C300.138,19.801,280.337,0,256,0s-44.138,19.801-44.138,44.138	c0,7.742,3.082,24.918,8.53,54.603c6.667,36.323,15.503,84.457,17.527,117.96c0.348,5.747-1.745,11.331-5.816,15.402l0,0	c-4.072,4.072-9.655,6.164-15.402,5.816c-33.503-2.024-81.636-10.86-117.96-17.527c-29.685-5.448-46.861-8.53-54.603-8.53	C19.801,211.862,0,231.663,0,256s19.801,44.138,44.138,44.138c7.742,0,24.918-3.082,54.603-8.53	c36.323-6.667,84.457-15.503,117.96-17.527c5.747-0.348,11.331,1.745,15.402,5.816l0,0c4.072,4.072,6.164,9.655,5.816,15.402	c-2.024,33.503-10.86,81.636-17.527,117.96c-5.448,29.685-8.53,46.861-8.53,54.603C211.862,492.199,231.663,512,256,512	s44.138-19.801,44.138-44.138c0-7.742-3.082-24.918-8.53-54.603c-6.667-36.323-15.503-84.457-17.527-117.96	c-0.348-5.747,1.745-11.331,5.816-15.402l0,0c4.072-4.072,9.655-6.164,15.402-5.816c33.503,2.024,81.636,10.86,117.96,17.527	c29.685,5.448,46.861,8.53,54.603,8.53C492.199,300.138,512,280.337,512,256S492.199,211.862,467.862,211.862z"/><path style="fill:#FFF2DC;" d="M437.02,374.599c-5.474-5.474-19.799-15.441-44.642-32.578	c-30.399-20.97-70.682-48.757-95.804-71.016c-4.309-3.818-6.779-9.246-6.779-15.004l0,0c0-5.758,2.47-11.186,6.779-15.004	c25.121-22.259,65.405-50.047,95.804-71.016c24.843-17.138,39.168-27.105,44.642-32.578c17.208-17.208,17.208-45.213,0-62.421	s-45.213-17.208-62.421,0c-5.474,5.474-15.441,19.799-32.578,44.642c-20.97,30.399-48.757,70.682-71.016,95.804	c-3.818,4.309-9.246,6.778-15.004,6.778l0,0c-5.758,0-11.186-2.47-15.004-6.778c-22.259-25.121-50.047-65.405-71.016-95.804	c-17.138-24.843-27.105-39.168-32.578-44.642c-17.208-17.208-45.213-17.208-62.421,0s-17.208,45.213,0,62.421	c5.474,5.474,19.799,15.441,44.642,32.578c30.399,20.97,70.682,48.757,95.804,71.016c4.309,3.818,6.778,9.246,6.778,15.004l0,0	c0,5.758-2.47,11.186-6.778,15.004c-25.121,22.259-65.405,50.047-95.804,71.016c-24.843,17.138-39.168,27.105-44.642,32.578	c-17.208,17.208-17.208,45.213,0,62.421s45.213,17.208,62.421,0c5.474-5.474,15.441-19.799,32.578-44.642	c20.97-30.399,48.757-70.682,71.016-95.804c3.818-4.309,9.246-6.779,15.004-6.779l0,0c5.758,0,11.186,2.47,15.004,6.779	c22.259,25.121,50.047,65.405,71.016,95.804c17.138,24.843,27.105,39.168,32.578,44.642c17.208,17.208,45.213,17.208,62.421,0	S454.228,391.807,437.02,374.599z"/><path style="fill:#EBCDA5;" d="M291.31,247.172h-13.999l9.899-9.899c3.447-3.447,3.447-9.037,0-12.483	c-3.447-3.447-9.036-3.447-12.483,0l-9.899,9.898V220.69c0-4.875-3.953-8.828-8.828-8.828s-8.828,3.953-8.828,8.828v13.999	l-9.899-9.899c-3.447-3.447-9.036-3.447-12.483,0c-3.447,3.447-3.447,9.036,0,12.483l9.899,9.899H220.69	c-4.875,0-8.828,3.953-8.828,8.828s3.953,8.828,8.828,8.828h13.998l-9.898,9.898c-3.447,3.447-3.447,9.037,0,12.484	c3.447,3.447,9.036,3.447,12.483,0l9.899-9.899v13.999c0,4.875,3.953,8.828,8.828,8.828s8.828-3.953,8.828-8.828v-13.999	l9.899,9.899c3.447,3.447,9.036,3.447,12.483,0s3.447-9.037,0-12.484l-9.898-9.898h13.998c4.875,0,8.828-3.953,8.828-8.828	S296.185,247.172,291.31,247.172z"/><circle style="fill:#9BC887;" cx="256" cy="256" r="13.241"/><g></g><g></g><g></g><g></g><g></g><g></g><g></g><g></g><g></g><g></g><g></g><g></g><g></g><g></g><g></g></svg>