<svg version="1.1" id="Layer_1" xmlns="http://www.w3.org/2000/svg" xmlns:xlink="http://www.w3.org/1999/xlink" x="0px" y="0px"	 viewBox="0 0 512 512" style="enable-background:new 0 0 512 512;" xml:space="preserve"><path style="fill:#FFF5DC;" d="M486.255,139.172c-18.315-37.784-64.22-29.638-117.388-20.207	c-10.815,1.913-22.151,3.932-33.879,5.698c-2.358,0.353-4.707,0.879-7.009,1.578l-143.84,0.034c-2.358-0.715-4.746-1.25-7.112-1.612	c-11.742-1.768-23.078-3.785-33.892-5.698c-53.164-9.431-99.064-17.578-117.388,20.207c-18.315,37.775,16.5,68.767,56.81,104.647	c6.151,5.474,12.518,11.147,18.969,17.06l75.754,122.397c3.396,10.974,6.431,21.689,9.332,31.932	C201.316,467.147,214.019,512,256.001,512s54.686-44.853,69.388-96.793c2.901-10.232,5.931-20.948,9.327-31.914l77.207-123.733	c5.956-5.44,11.837-10.673,17.526-15.742C469.759,207.93,504.566,176.94,486.255,139.172z"/><g>	<path style="fill:#FFFAEB;" d="M335.053,129.793c-3.53-11.345-6.668-22.431-9.664-33C310.686,44.853,297.984,0,256.001,0		s-54.686,44.853-69.388,96.793c-2.996,10.569-6.134,21.655-9.664,33c-8.685,27.932,8.298,59.258,28.988,77.922		c1.625,1.465,3.729,2.276,5.913,2.276c0.034,0,0.07,0,0.104,0l89.461-1.069c2.198-0.025,4.31-0.871,5.918-2.37		C331.63,183.896,342.514,153.768,335.053,129.793z"/>	<path style="fill:#FFFAEB;" d="M429.423,268.156c-8.207-7.302-16.806-14.957-25.474-23.077		c-18.263-17.121-50.035-20.491-80.94-8.638c-2.017,0.776-3.677,2.259-4.668,4.172l-40.685,78.327		c-1.022,1.956-1.267,4.233-0.694,6.362c7.431,27.647,28.254,57.543,58.013,62.035c11.742,1.768,23.078,3.785,33.892,5.698		c22.948,4.069,44.547,7.905,63.155,7.905c24.5,0,43.819-6.638,54.232-28.113C504.57,335.052,469.746,304.052,429.423,268.156z"/>	<path style="fill:#FFFAEB;" d="M234.445,318.681l-39.996-77.741c-0.979-1.897-2.621-3.388-4.612-4.172		c-25.543-10.06-60.742-11.414-81.789,8.31c-8.664,8.12-17.263,15.776-25.47,23.078c-40.323,35.896-75.147,66.897-56.832,104.672		c10.413,21.474,29.728,28.113,54.232,28.113c18.607,0,40.207-3.837,63.155-7.905c10.815-1.913,22.151-3.932,33.892-5.698		c29.906-4.518,50.729-34.569,58.103-62.354C235.691,322.871,235.444,320.62,234.445,318.681z"/></g><path style="fill:#FFF5DC;" d="M427.928,339.095l-163.1-88.345V70.621c0-4.879-3.953-8.828-8.828-8.828s-8.828,3.948-8.828,8.828	v180.126L84.075,339.095c-4.289,2.319-5.884,7.672-3.561,11.966c1.599,2.948,4.633,4.62,7.772,4.62c1.418,0,2.858-0.344,4.194-1.069	l163.519-88.575l163.524,88.575c1.336,0.724,2.776,1.069,4.194,1.069c3.138,0,6.173-1.673,7.772-4.62	C433.807,346.767,432.217,341.414,427.928,339.095z"/><circle style="fill:none;stroke:#646464;stroke-width:2;stroke-linecap:round;stroke-linejoin:round;stroke-miterlimit:10;" cx="256.001" cy="256" r="17.655"/><path style="fill:#F8EBC8;" d="M383.023,184.482c-2.323-4.285-7.677-5.888-11.966-3.552l-115.051,62.322L140.945,180.93	c-4.285-2.327-9.642-0.733-11.966,3.552c-2.323,4.294-0.728,9.646,3.561,11.966l114.633,62.09v124.359	c0,4.879,3.953,8.828,8.828,8.828s8.828-3.948,8.828-8.828V258.545l114.634-62.095C383.751,194.13,385.346,188.776,383.023,184.482z	"/><path style="fill:#FFD732;" d="M331.035,256c0,6.324-9.51,11.313-11.068,17.145c-1.613,6.035,4.079,15.101,1.022,20.384	c-3.101,5.358-13.826,4.94-18.175,9.289c-4.349,4.349-3.93,15.074-9.289,18.174c-5.282,3.057-14.347-2.637-20.381-1.024	c-5.832,1.558-10.82,11.066-17.144,11.066c-6.324,0-11.313-9.51-17.145-11.068c-6.035-1.613-15.101,4.079-20.384,1.022	c-5.358-3.101-4.94-13.826-9.289-18.175s-15.074-3.931-18.174-9.289c-3.057-5.282,2.637-14.347,1.024-20.381	c-1.557-5.832-11.066-10.822-11.066-17.144c0-6.324,9.51-11.313,11.068-17.145c1.613-6.035-4.079-15.101-1.022-20.384	c3.101-5.358,13.826-4.94,18.175-9.289s3.93-15.074,9.289-18.174c5.282-3.057,14.347,2.637,20.381,1.024	c5.833-1.558,10.822-11.066,17.144-11.066c6.324,0,11.313,9.51,17.145,11.068c6.035,1.613,15.101-4.079,20.384-1.022	c5.358,3.101,4.94,13.826,9.289,18.175c4.349,4.349,15.074,3.93,18.174,9.289c3.057,5.282-2.637,14.347-1.024,20.381	C321.527,244.687,331.035,249.677,331.035,256z"/><path style="fill:#FFE632;" d="M260.684,209.626l11.467-3.808c8.444-2.804,17.441,2.391,19.234,11.105l2.436,11.834	c0.646,3.137,2.289,5.982,4.682,8.109l9.031,8.026c6.649,5.91,6.649,16.3,0,22.21l-9.031,8.026	c-2.395,2.127-4.036,4.972-4.682,8.109l-2.436,11.835c-1.793,8.714-10.792,13.909-19.234,11.105l-11.467-3.808	c-3.04-1.01-6.325-1.01-9.364,0l-11.467,3.808c-8.444,2.804-17.441-2.391-19.234-11.105l-2.436-11.835	c-0.646-3.137-2.289-5.982-4.682-8.109l-9.031-8.026c-6.649-5.91-6.649-16.3,0-22.21l9.031-8.026	c2.394-2.127,4.036-4.972,4.682-8.109l2.436-11.834c1.794-8.714,10.792-13.909,19.234-11.105l11.467,3.808	C254.359,210.635,257.644,210.635,260.684,209.626z"/><circle style="fill:#FFC323;" cx="256.001" cy="256" r="26.483"/><g>	<path style="fill:#FFD732;" d="M255.981,250.621c-5.943,0-10.759-4.815-10.759-10.759v-7.172c0-5.943,4.815-10.759,10.759-10.759		s10.759,4.815,10.759,10.759v7.172C266.739,245.805,261.924,250.621,255.981,250.621z"/>	<path style="fill:#FFD732;" d="M276.353,279.31c-1.99,0-4-0.549-5.8-1.702l-6.038-3.873c-5.001-3.208-6.454-9.866-3.246-14.867		c3.215-4.998,9.873-6.444,14.867-3.246l6.038,3.873c5.001,3.208,6.454,9.866,3.246,14.867		C283.364,277.562,279.894,279.31,276.353,279.31z"/>	<path style="fill:#FFD732;" d="M235.609,279.31c-3.544,0-7.011-1.748-9.067-4.949c-3.208-5.001-1.754-11.659,3.246-14.867		l6.038-3.873c5.004-3.208,11.659-1.748,14.867,3.246c3.208,5.001,1.754,11.659-3.246,14.867l-6.038,3.873		C239.608,278.761,237.598,279.31,235.609,279.31z"/></g><g></g><g></g><g></g><g></g><g></g><g></g><g></g><g></g><g></g><g></g><g></g><g></g><g></g><g></g><g></g></svg>