<svg version="1.1" id="Layer_1" xmlns="http://www.w3.org/2000/svg" xmlns:xlink="http://www.w3.org/1999/xlink" x="0px" y="0px"	 viewBox="0 0 512 512" style="enable-background:new 0 0 512 512;" xml:space="preserve"><path style="fill:#F2C5EE;" d="M444.718,281.406L375.081,89.744c5.855-29.524,11.126-77.686-13.761-87.997	c-28.296-11.77-63.826,38.848-79.377,64.078L88.744,136.859c-29.206-5.735-76.789-10.834-86.997,13.822	c-11.779,28.442,39.409,64.113,64.916,79.721l70.462,190.717c-6.048,29.927-11.577,78.725,13.565,89.138	c2.871,1.193,5.821,1.743,8.813,1.743c26.536,0,56.636-43.174,70.599-65.839l191.168-71.574	c29.919,6.096,78.647,11.719,88.992-13.264C522.057,332.83,470.443,297.065,444.718,281.406z"/><path style="fill:#F4D7FC;" d="M475.294,165.164c-6.125-14.783-27.407-20.492-61.594-16.501l-104.952-15.736L226.932,77.15	c-17.114-23.703-41.204-48.986-61.761-40.436c-14.672,6.069-20.424,27.017-16.681,60.637l-15.565,114.696l-55.064,72.535	c-24.06,17.265-49.725,41.56-41.152,62.259c6.147,14.835,27.485,20.544,61.804,16.509l113.533,15.728l72.934,55.708	c14.81,20.518,34.834,42.204,53.296,42.195c2.898,0,5.76-0.532,8.555-1.691c14.912-6.172,20.613-27.635,16.535-62.121	l15.711-113.211l56.039-73.281C458.664,209.61,483.763,185.614,475.294,165.164z"/><path style="fill:#EFAEDD;" d="M372.565,295.778l-0.176-78.776c29.666-30.048,54.271-61.538,69.475-88.976	c17.587-31.722,20.609-54.755,8.739-66.62c-11.869-11.881-34.903-8.859-66.629,8.731c-27.438,15.204-58.932,39.809-88.976,69.479	l-78.455-0.155c-29.962-29.593-61.362-54.129-88.713-69.307C96.2,52.606,73.238,49.584,61.404,61.406	c-11.831,11.831-8.804,34.795,8.748,66.431c15.178,27.344,39.715,58.739,69.298,88.701l-0.115,78.759	c-29.593,29.97-54.125,61.392-69.282,88.778c-17.522,31.662-20.514,54.661-8.649,66.526c4.859,4.859,11.47,7.082,19.402,7.082	c32.915,0,88.551-38.281,135.902-85.018l79.081-0.094c29.915,29.541,61.25,54.052,88.533,69.221	c31.575,17.557,54.485,20.587,66.28,8.809c11.791-11.788,8.744-34.709-8.809-66.277	C426.621,357.032,402.107,325.687,372.565,295.778z"/><path style="fill:#ED9ED2;" d="M338.096,204.372l-30.46-31.095c-0.532-77.446-18.244-154.634-51.635-154.634	c-33.387,0-51.098,77.172-51.634,154.608l-30.884,31.113c-77.557,0.549-154.84,18.26-154.84,51.639s77.262,51.089,154.814,51.63	l30.911,31.464c0.536,77.266,18.247,154.265,51.635,154.265c33.392,0,51.107-77.025,51.634-154.299l30.485-31.43	c77.764-0.549,155.24-18.26,155.24-51.63C493.361,222.624,415.868,204.913,338.096,204.372z"/><path style="fill:#E986C0;" d="M327.579,278.917l0.61-46.497c28.163-31.104,69.84-83.034,52.132-100.746	c-17.749-17.762-69.831,24.115-101.064,52.438l-46.844-0.292c-31.116-28.184-83.047-69.865-100.733-52.137	c-17.792,17.771,24.232,69.994,52.622,101.278l0.489,45.543c-28.644,31.481-70.982,83.962-53.12,101.818	c2.949,2.954,6.843,4.258,11.426,4.258c23.154,0,63.98-33.353,90.194-57.185l45.771,0.318c31.28,28.4,83.477,70.38,101.26,52.609	C398.131,362.526,356.06,310.269,327.579,278.917z"/><path style="fill:#E671B1;" d="M294.828,220.856l-3.679-3.675c-0.416-42.788-8.173-110.627-35.147-110.627	s-34.731,67.84-35.148,110.627l-3.679,3.675c-42.78,0.421-110.623,8.172-110.623,35.147s67.843,34.727,110.623,35.147l3.679,3.675	c0.416,42.788,8.172,110.627,35.147,110.627c26.974,0,34.73-67.839,35.147-110.627l3.679-3.675	c42.78-0.421,110.623-8.174,110.623-35.147C405.449,229.029,337.606,221.277,294.828,220.856z"/><circle style="fill:#FFF04B;" cx="256.007" cy="256.008" r="52.747"/><circle style="fill:#FFCD28;" cx="256.007" cy="256.008" r="26.373"/><g></g><g></g><g></g><g></g><g></g><g></g><g></g><g></g><g></g><g></g><g></g><g></g><g></g><g></g><g></g></svg>