<svg version="1.1" id="Layer_1" xmlns="http://www.w3.org/2000/svg" xmlns:xlink="http://www.w3.org/1999/xlink" x="0px" y="0px"	 viewBox="0 0 512 512" style="enable-background:new 0 0 512 512;" xml:space="preserve"><path style="fill:#D266CA;" d="M483.837,352.709c-1.103-1.522-2.664-2.655-4.457-3.229L258.69,278.86	c-0.222-0.071-0.453,0.002-0.678-0.05c-0.67-0.161-1.321-0.147-2.012-0.148c-0.691,0.001-1.342-0.013-2.012,0.148	c-0.225,0.052-0.456-0.021-0.678,0.05L32.622,349.48c-1.793,0.574-3.353,1.707-4.457,3.229c-0.388,0.53-38.039,53.854,9.323,108.09	c16.694,19.112,38.5,28.759,64.366,28.759c15.134,0,31.651-3.302,49.345-9.94c43.123-16.177,86.67-50.43,104.802-75.502	c18.132,25.074,61.679,59.326,104.802,75.502c17.694,6.638,34.211,9.94,49.345,9.94c25.866,0,47.672-9.646,64.366-28.759	C521.875,406.562,484.224,353.239,483.837,352.709z"/><path style="fill:#E68CDC;" d="M256,384.372c49.293,0,91.721-28.93,111.56-70.675L258.69,278.86	c-0.222-0.071-0.453,0.002-0.677-0.05c-0.67-0.161-1.321-0.147-2.012-0.148c-0.691,0.001-1.342-0.013-2.012,0.148	c-0.225,0.052-0.456-0.021-0.678,0.05l-108.87,34.838C164.279,355.442,206.707,384.372,256,384.372z"/><path style="fill:#F087E6;" d="M351.923,79.825C326.969,36.567,272.099,22.441,256,22.441s-70.969,14.125-95.923,57.384	c-1.284,2.225-1.535,4.9-0.685,7.328l61.793,176.552c1.237,3.539,4.582,5.909,8.332,5.909h52.966c3.75,0,7.095-2.37,8.332-5.909	l61.793-176.552C353.457,84.726,353.207,82.049,351.923,79.825z"/><path style="fill:#FFAAF0;" d="M256,172.51c-22.63,0-43.203,8.588-58.827,22.589l24.012,68.605c1.237,3.539,4.582,5.909,8.332,5.909	h52.966c3.75,0,7.095-2.37,8.332-5.909l24.012-68.605C299.203,181.099,278.63,172.51,256,172.51z"/><path style="fill:#E673D2;" d="M372.271,75.536c-23.241-4.025-44.746,1.074-60.586,14.397c-12.375,10.41-20.375,25.5-20.375,38.44	c0,69.001-11.894,110.156-35.31,122.601c-23.416-12.446-35.31-53.6-35.31-122.601c0-12.94-8-28.03-20.375-38.44	c-15.84-13.323-37.345-18.422-60.586-14.397C84.104,85.213,0,156.988,0,243.131c0,79.186,44.707,194.207,114.759,194.207	c49.427,0,85.978-58.831,112.668-101.789c9.681-15.586,22.803-36.655,28.574-39.213c5.77,2.558,18.892,23.627,28.574,39.213	c26.69,42.957,63.242,101.789,112.668,101.789C467.293,437.338,512,322.317,512,243.131C512,156.988,427.896,85.213,372.271,75.536z	"/><path style="fill:#F59BEB;" d="M290.28,160.635c-3.309,49.653-14.787,79.978-34.28,90.339c-19.492-10.36-30.971-40.686-34.28-90.339	c-41.657,14.26-71.651,53.661-71.651,100.151c0,43.338,26.057,80.543,63.332,96.948c4.942-7.599,9.632-15.113,14.026-22.185	c9.681-15.586,22.803-36.655,28.574-39.213c5.77,2.558,18.892,23.627,28.574,39.213c4.394,7.072,9.084,14.585,14.026,22.185	c37.273-16.405,63.33-53.61,63.33-96.948C361.931,214.296,331.937,174.895,290.28,160.635z"/><path style="fill:#D266CA;" d="M291.31,362.231c-0.062,0.055-0.124,0.11-0.186,0.165c-8.472,7.47-21.882,0.862-21.882-10.434	v-91.176h-26.483v91.176c0,11.296-13.41,17.905-21.882,10.434l-0.186-0.165v24.479c8.893,3.495,18.404,5.762,28.366,6.47	c0.211,0.013,0.423,0.022,0.633,0.022c0.008,0,0.014-0.004,0.022-0.004c0.008,0,0.013,0.004,0.021,0.004h12.534	c0.008,0,0.013-0.004,0.021-0.004s0.014,0.004,0.022,0.004c0.211,0,0.423-0.009,0.633-0.022c9.962-0.707,19.474-2.975,28.366-6.47	v-24.479H291.31z"/><path style="fill:#BE5AC3;" d="M337.621,243.92c-1.449-2.246-3.832-3.715-6.483-3.996c-2.681-0.323-5.298,0.647-7.181,2.535	l-30.505,30.505c-3.448,3.448-3.448,9.035,0,12.483c10.004,10.004,15.513,23.306,15.513,37.452c0,27.213-20.329,49.794-47.32,52.647	h-11.29c-26.991-2.854-47.32-25.434-47.32-52.648c0-14.146,5.508-27.448,15.513-37.452c3.448-3.448,3.448-9.035,0-12.483	l-30.505-30.505c-1.884-1.888-4.518-2.849-7.181-2.535c-2.65,0.28-5.034,1.75-6.483,3.996	c-10.129,15.721-15.482,33.876-15.482,52.497c0,50.673,39.604,93.172,90.159,96.762c0.211,0.013,0.423,0.022,0.633,0.022	c0.008,0,0.014-0.004,0.022-0.004c0.008,0,0.013,0.004,0.021,0.004h12.534c0.008,0,0.013-0.004,0.021-0.004s0.014,0.004,0.022,0.004	c0.211,0,0.423-0.009,0.633-0.022c50.556-3.591,90.159-46.091,90.159-96.762C353.103,277.795,347.75,259.64,337.621,243.92z"/><circle style="fill:#E673D2;" cx="256" cy="260.788" r="26.483"/><g></g><g></g><g></g><g></g><g></g><g></g><g></g><g></g><g></g><g></g><g></g><g></g><g></g><g></g><g></g></svg>