<svg version="1.1" id="Layer_1" xmlns="http://www.w3.org/2000/svg" xmlns:xlink="http://www.w3.org/1999/xlink" x="0px" y="0px"	 viewBox="0 0 512 512" style="enable-background:new 0 0 512 512;" xml:space="preserve"><path style="fill:#AA5FE6;" d="M188.483,152.039c4.148-24.755,35.268-107.043,93.705-139.068	c29.485-16.165,61.179-17.222,94.23-3.165c53.694,22.838,87.935,52.649,101.78,88.601c14.286,37.107,0.948,66.701,0.37,67.94	c-0.635,1.376-1.605,2.565-2.817,3.464c-1.825,1.348-45.186,33.338-95.187,59.821c-43.031,22.794-77.391,34.21-102.79,34.21	c-16.106,0-28.612-4.593-37.433-13.788c-49.013-51.097-51.874-94.23-51.971-96.041C188.338,153.352,188.373,152.691,188.483,152.039	z"/><path style="fill:#B672DE;" d="M216.132,166.656c2.729-16.285,23.201-70.418,61.644-91.484c19.397-10.633,40.246-11.33,61.988-2.082	c35.323,15.024,57.848,34.634,66.955,58.285c9.398,24.411,0.623,43.88,0.244,44.694c-0.418,0.905-1.055,1.688-1.853,2.279	c-1.201,0.887-29.726,21.931-62.617,39.352c-28.307,14.995-50.911,22.505-67.62,22.505c-10.596,0-18.822-3.022-24.625-9.07	c-32.242-33.614-34.124-61.988-34.189-63.181C216.036,167.52,216.058,167.084,216.132,166.656z"/><path style="fill:#AF69F0;" d="M323.389,152.039c-4.148-24.755-35.268-107.043-93.705-139.068	c-29.485-16.165-61.179-17.222-94.23-3.165c-53.694,22.838-87.935,52.649-101.78,88.6c-14.286,37.107-0.948,66.701-0.37,67.94	c0.635,1.376,1.605,2.565,2.817,3.464c1.825,1.348,45.186,33.338,95.187,59.821c43.031,22.794,77.391,34.21,102.79,34.21	c16.106,0,28.612-4.593,37.433-13.788c49.013-51.097,51.874-94.23,51.971-96.041C323.535,153.352,323.5,152.691,323.389,152.039z"/><path style="fill:#BE7FD8;" d="M306.461,190.353c-2.729-16.285-23.201-70.418-61.644-91.484	c-19.397-10.633-40.246-11.33-61.988-2.082c-35.322,15.024-57.848,34.634-66.955,58.285c-9.398,24.411-0.623,43.88-0.244,44.694	c0.418,0.905,1.055,1.688,1.853,2.279c1.201,0.887,29.726,21.931,62.618,39.352c28.307,14.995,50.911,22.505,67.62,22.505	c10.596,0,18.822-3.022,24.625-9.07c32.242-33.614,34.124-61.988,34.189-63.181C306.557,191.217,306.535,190.782,306.461,190.353z"	/><path style="fill:#B478FA;" d="M374.262,322.729c12.815,0,25.578-1.013,38.181-3.337c10.497-1.935,21.293-4.359,32.283-7.251	c27.008-7.11,48.237-25.138,58.252-49.467c9.182-22.3,7.361-47.122-4.994-68.095l-27.802-47.192	c-12.484-21.189-34.219-35.956-59.627-40.509c-26.695-4.805-53.8,2.09-74.38,18.853c-40.304,32.846-67.119,66.038-80.174,99	c-13.054-32.963-39.87-66.155-80.174-99c-20.581-16.763-47.686-23.658-74.38-18.853c-25.408,4.553-47.143,19.32-59.627,40.509	l-27.802,47.192c-12.355,20.973-14.176,45.795-4.995,68.095c10.015,24.328,31.243,42.356,58.252,49.467	c10.99,2.892,21.786,5.316,32.283,7.251c12.602,2.323,25.366,3.337,38.181,3.337H374.262z"/><g>	<path style="fill:#D09ABA;" d="M252.834,270.527c-4.28-25.193-22.147-50.761-53.106-75.992		c-12.452-10.142-28.852-14.314-45.004-11.406c-15.373,2.755-28.524,11.69-36.076,24.51l-16.821,28.553		c-7.476,12.689-8.577,27.708-3.022,41.201c6.06,14.719,18.904,25.627,35.245,29.93c11.3,2.973,22.259,5.129,32.573,6.406		c0.221,0.027,0.446,0.039,0.669,0.039c0.784,0,1.563-0.17,2.283-0.499l80.157-36.864		C251.976,275.373,253.247,272.962,252.834,270.527z"/>	<path style="fill:#D09ABA;" d="M259.168,270.527c4.28-25.193,22.147-50.761,53.106-75.992		c12.452-10.142,28.852-14.314,45.004-11.406c15.373,2.755,28.524,11.69,36.076,24.51l16.821,28.553		c7.476,12.689,8.577,27.708,3.022,41.201c-6.06,14.719-18.904,25.627-35.245,29.93c-11.3,2.973-22.259,5.129-32.573,6.406		c-0.221,0.027-0.446,0.039-0.669,0.039c-0.784,0-1.563-0.17-2.283-0.499l-80.157-36.864		C260.027,275.373,258.755,272.962,259.168,270.527z"/></g><path style="fill:#C387FF;" d="M466.306,384.608c-2.768-25.311-17.667-47.602-40.876-61.165	c-53.337-31.173-98.924-48.114-140.184-51.82l-58.503-0.018c-0.005,0-0.005,0-0.005,0c-0.269,0-0.534,0.014-0.798,0.035	c-53.844,4.782-105.721,32.077-140.059,52.191c-22.874,13.396-37.56,35.472-40.298,60.57c-2.676,24.539,6.551,48.581,25.316,65.952	l41.052,38.011c19.02,17.609,45.221,26.016,71.841,23.05c25.734-2.865,48.488-16.147,62.417-36.418	c1.376-1.993,2.738-4.021,4.1-6.079c2.319-3.517,9.032-3.526,11.359,0.009c1.358,2.049,2.72,4.077,4.086,6.061	c13.939,20.282,36.693,33.562,62.426,36.427c3.522,0.393,7.03,0.587,10.517,0.587c22.913,0,44.816-8.348,61.324-23.635	l41.056-38.011C459.786,433.025,468.986,409.059,466.306,384.608z"/><path style="fill:#E1AF93;" d="M231.32,271.606l48.911,0.02c30.984,4.243,66.604,22.887,108.835,56.955	c11.646,9.393,19.087,24.409,20.418,41.207c1.268,15.98-3.066,31.216-12.201,42.896l-36.135,46.175	c-8.592,10.982-20.091,17.031-32.376,17.031c-1.898,0-3.829-0.149-5.739-0.442c-13.467-2.07-25.226-11.363-32.285-25.539	c-1.095-2.193-2.185-4.435-3.223-6.598c-6.858-14.379-18.65-22.962-31.545-22.962c-12.886,0-24.672,8.573-31.498,22.867	c-1.082,2.258-2.164,4.484-3.297,6.747c-7.032,14.126-18.789,23.415-32.259,25.485c-1.901,0.292-3.83,0.441-5.73,0.441	c-12.289,0-23.789-6.05-32.383-17.032l-36.129-46.174c-9.188-11.74-13.547-27.073-12.276-43.17	c1.307-16.543,8.573-31.297,19.935-40.482C149.727,306.889,190.751,276.932,231.32,271.606"/><g>	<path style="fill:#9664A0;" d="M228.278,283.004c-0.626,0-1.26-0.067-1.896-0.199l-98.673-21.145		c-4.875-1.045-7.983-5.845-6.938-10.72c1.045-4.87,5.832-7.987,10.72-6.938l77.272,16.56l-56.929-36.225		c-4.206-2.676-5.444-8.256-2.768-12.466c2.68-4.206,8.26-5.453,12.466-2.768l75.412,47.989c3.69,2.349,5.166,7.013,3.496,11.06		l-3.822,9.266C235.203,280.853,231.871,283.004,228.278,283.004z"/>	<path style="fill:#9664A0;" d="M391.202,250.94c-1.045-4.879-5.858-7.987-10.72-6.938l-77.265,16.558l56.922-36.222		c4.206-2.676,5.444-8.256,2.768-12.461c-2.68-4.209-8.26-5.457-12.461-2.773l-74.103,47.152c-3.068,1.957-4.664,5.563-4.047,9.151		l1.767,10.262c0.011,0.064,0.052,0.113,0.064,0.176c0.012,0.062-0.011,0.12,0.002,0.182c0.121,0.564,0.41,1.034,0.626,1.547		c0.172,0.408,0.27,0.853,0.495,1.225c0.324,0.536,0.77,0.955,1.191,1.405c0.279,0.299,0.495,0.65,0.811,0.908		c0.512,0.418,1.114,0.687,1.703,0.985c0.324,0.164,0.6,0.399,0.942,0.524c0.965,0.349,1.993,0.543,3.052,0.543		c0.507,0,1.022-0.039,1.543-0.132c0.037-0.007,0.064-0.033,0.102-0.04c0.086-0.016,0.169-0.008,0.255-0.026l99.414-21.304		C389.139,260.616,392.247,255.815,391.202,250.94z"/></g><path style="fill:#F6CB48;" d="M242.203,271.606l27.297,0.011c17.291,2.367,37.171,12.773,60.74,31.786	c6.499,5.243,10.653,13.623,11.395,22.998c0.709,8.918-1.711,17.422-6.809,23.939l-20.166,25.77	c-4.795,6.129-11.212,9.505-18.069,9.505c-1.06,0-2.136-0.083-3.204-0.247c-7.515-1.154-14.078-6.342-18.018-14.253	c-0.61-1.224-1.22-2.476-1.799-3.682c-3.828-8.024-10.409-12.815-17.605-12.815c-7.192,0-13.769,4.785-17.579,12.762	c-0.604,1.26-1.209,2.503-1.84,3.766c-3.925,7.883-10.486,13.067-18.003,14.223c-1.062,0.164-2.137,0.246-3.198,0.246	c-6.858,0-13.276-3.376-18.073-9.505l-20.163-25.769c-5.128-6.552-7.561-15.109-6.851-24.092	c0.729-9.232,4.785-17.467,11.125-22.593C196.667,291.297,219.561,274.578,242.203,271.606"/><path style="fill:#9664A0;" d="M352.645,363.808l-69.682-69.682c-1.631-1.631-3.822-2.574-6.127-2.641l-40.06-1.128	c-2.676-0.146-4.888,0.886-6.639,2.641l-70.81,70.81c-3.526,3.526-3.526,9.24,0,12.766s9.24,3.526,12.766,0l54.481-54.481	l-32.953,71.399c-2.085,4.527-0.111,9.892,4.417,11.981c1.225,0.564,2.509,0.828,3.778,0.828c3.411,0,6.678-1.944,8.204-5.245	l42.549-92.192l6.994,0.196c0.043,0.1,0.027,0.209,0.073,0.309l42.317,91.686c1.526,3.302,4.791,5.245,8.204,5.245	c1.265,0,2.553-0.264,3.778-0.833c4.527-2.085,6.502-7.45,4.417-11.976l-32.954-71.4l54.483,54.483	c1.764,1.764,4.073,2.645,6.383,2.645s4.62-0.881,6.383-2.645C356.172,373.046,356.172,367.334,352.645,363.808z"/><circle style="fill:#FFD728;" cx="255.989" cy="279.922" r="36.11"/><g></g><g></g><g></g><g></g><g></g><g></g><g></g><g></g><g></g><g></g><g></g><g></g><g></g><g></g><g></g></svg>