<svg version="1.1" id="Layer_1" xmlns="http://www.w3.org/2000/svg" xmlns:xlink="http://www.w3.org/1999/xlink" x="0px" y="0px"	 viewBox="0 0 512 512" style="enable-background:new 0 0 512 512;" xml:space="preserve"><path style="fill:#F8EBC8;" d="M458.263,212.039c-40.596-17.425-113.079-11.484-160.681,2.94c-2.565,0.776-4.638,2.682-5.638,5.174	l-17.657,44.144c-1.022,2.56-0.789,5.457,0.633,7.829l55.033,91.546c0.396,0.664,0.884,1.267,1.445,1.811	c16.394,15.778,32.12,26.97,46.747,33.246c10.83,4.647,22.154,6.846,33.44,6.846c37.454,0,74.467-24.245,91.438-63.784	C525.108,290.316,505.033,232.11,458.263,212.039z"/><path style="fill:#FFF5DC;" d="M289.19,261.83c-1.677-1.957-4.125-3.087-6.703-3.087h-44.144c-2.901,0-5.613,1.423-7.264,3.811	l-62.508,90.425c-0.388,0.561-0.712,1.173-0.961,1.811c-8.751,22.451-13.187,42.255-13.187,58.852	c0,50.894,45.566,92.305,101.578,92.305s101.578-41.41,101.578-92.305C357.578,370.551,322.216,300.352,289.19,261.83z"/><path style="fill:#F8EBC8;" d="M246.84,274.003l-14.631-51.921c-0.918-3.268-3.63-5.717-6.97-6.303l-81.959-14.364	c-0.345-0.061-0.694-0.095-1.043-0.113l-2.91-0.156c-36.077-1.647-64.875,2.001-85.589,10.889	C6.968,232.109-13.108,290.314,8.976,341.786c16.972,39.548,53.981,63.784,91.438,63.784c11.286,0,22.615-2.198,33.444-6.846	c42.428-18.218,90.291-80.476,112.109-117.877C247.176,278.78,247.491,276.314,246.84,274.003z"/><g>	<path style="fill:#FFF5DC;" d="M468.028,98.756c-3.401-25.521-16.576-49.214-37.095-66.69		C388.294-4.266,326.764-2.301,293.756,36.455c-27.771,32.599-46.428,104.729-46.428,151.658c0,2.612,1.16,5.095,3.168,6.777		l52.817,44.144c1.612,1.345,3.621,2.052,5.66,2.052c1.047,0,2.103-0.19,3.117-0.569l59.271-22.365		c24.546-10.355,57.839-27.426,77.036-49.955C464.498,149.298,471.472,124.639,468.028,98.756z"/>	<path style="fill:#FFF5DC;" d="M215.573,36.455c-33.013-38.746-94.56-40.72-137.177-4.388C57.875,49.544,44.702,73.237,41.3,98.758		c-3.444,25.883,3.526,50.541,19.627,69.44c27.615,32.418,88.369,57.43,136.026,70.035c2.431,0.638,4.819,1.25,7.148,1.828		c0.703,0.172,1.418,0.258,2.13,0.258c1.785,0,3.544-0.543,5.036-1.578l49.77-34.548c2.375-1.647,3.794-4.354,3.794-7.251		C264.829,150.435,242.857,68.477,215.573,36.455z"/></g><path style="fill:#F5E196;" d="M363.398,250.034l-55.568-9.264c-1.854-5.718-5.981-10.667-11.922-13.214l-3.599-1.544l1.655-1.822	c2.593-2.844,4.253-6.274,5.049-9.936l51.18-46.066l-11.812-13.123l-44.545,40.095c-0.447-0.486-0.832-1.014-1.328-1.463	c-0.122-0.11-0.27-0.18-0.395-0.287l26.553-48.677l-15.502-8.449l-28.607,52.444c-4.716,0.735-9.206,2.837-12.477,6.443l-6.08,6.687	l-6.074-6.682c-3.304-3.639-7.77-5.933-12.568-6.704l-26.579-48.726l-15.502,8.449l24.646,45.181c-0.14,0.12-0.302,0.206-0.44,0.33	c-0.491,0.446-0.874,0.971-1.318,1.453l-44.545-40.093l-11.814,13.123l51.179,46.065c0.793,3.662,2.45,7.087,5.031,9.919	l1.674,1.841l-3.599,1.544c-5.941,2.548-10.069,7.497-11.922,13.214l-55.568,9.264l2.906,17.416l54.32-9.056l-51.172,27.911	l8.458,15.502l60.466-32.981c3.221,0.153,6.455-0.338,9.495-1.642l1.367-0.584v2.314c0,5.143,1.886,9.808,4.904,13.518	l-9.728,63.251l17.451,2.691l8.906-57.904c0.009,0,0.017,0.002,0.025,0.002c0.023,0,0.045-0.007,0.07-0.007l8.863,57.9l17.45-2.673	l-9.691-63.306c2.995-3.703,4.867-8.35,4.867-13.473v-2.314l1.359,0.579c3.056,1.313,6.294,1.804,9.514,1.65l60.457,32.978	l8.458-15.502l-51.167-27.911l54.314,9.055L363.398,250.034z"/><path style="fill:#C3EB6E;" d="M233.964,188.113c6.065,0,11.885,2.574,15.961,7.062l6.074,6.682l6.08-6.687	c7.666-8.449,21.943-9.149,30.429-1.474c4.28,3.886,6.784,9.191,7.057,14.95c0.274,5.764-1.716,11.282-5.602,15.544l-1.655,1.822	l3.599,1.544c10.911,4.679,15.998,17.366,11.333,28.287c-2.277,5.309-6.464,9.399-11.802,11.537	c-5.342,2.147-11.212,2.082-16.522-0.2l-1.359-0.579v2.314c0,11.885-9.673,21.559-21.559,21.559	c-11.885,0-21.559-9.673-21.559-21.559v-2.314l-1.368,0.584c-5.273,2.263-11.134,2.342-16.481,0.209	c-5.351-2.138-9.553-6.232-11.825-11.533l-0.009-0.019c-4.665-10.92,0.422-23.608,11.333-28.287l3.599-1.544l-1.674-1.841	c-3.867-4.243-5.857-9.761-5.583-15.525c0.274-5.76,2.778-11.065,7.049-14.94C223.471,190.097,228.608,188.113,233.964,188.113z	 M246.137,198.63c-0.009-0.009-0.019-0.019-0.028-0.028L246.137,198.63z M265.85,198.649l0.023-0.028	C265.863,198.63,265.859,198.639,265.85,198.649z M218.082,232.282l0.051-0.023C218.114,232.268,218.101,232.273,218.082,232.282z"	/><g>	<circle style="fill:#735A4B;" cx="150.056" cy="258.748" r="13.243"/>	<circle style="fill:#735A4B;" cx="158.885" cy="294.052" r="13.243"/>	<circle style="fill:#735A4B;" cx="238.343" cy="347.025" r="13.243"/>	<circle style="fill:#735A4B;" cx="273.658" cy="347.025" r="13.243"/>	<circle style="fill:#735A4B;" cx="361.945" cy="258.748" r="13.243"/>	<circle style="fill:#735A4B;" cx="353.117" cy="294.052" r="13.243"/>	<circle style="fill:#735A4B;" cx="308.973" cy="143.975" r="13.243"/>	<circle style="fill:#735A4B;" cx="344.288" cy="161.632" r="13.243"/>	<circle style="fill:#735A4B;" cx="203.028" cy="143.975" r="13.243"/>	<circle style="fill:#735A4B;" cx="167.713" cy="161.632" r="13.243"/></g><path style="fill:#FF6991;" d="M267.588,232.624c-0.03,0-0.056,0.009-0.086,0.009c1.077-1.915,1.741-4.093,1.741-6.446	c0-7.313-5.93-13.243-13.243-13.243c-7.314,0-13.243,5.93-13.243,13.243c0,2.361,0.669,4.546,1.751,6.465	c-7.185,0.148-12.972,5.995-12.972,13.216c0,7.313,5.93,13.243,13.243,13.243c4.888,0,9.109-2.677,11.403-6.617	c2.295,3.939,6.516,6.617,11.403,6.617c7.314,0,13.243-5.93,13.243-13.243C280.831,238.554,274.902,232.624,267.588,232.624z"/><g></g><g></g><g></g><g></g><g></g><g></g><g></g><g></g><g></g><g></g><g></g><g></g><g></g><g></g><g></g></svg>