<svg version="1.1" id="Layer_1" xmlns="http://www.w3.org/2000/svg" xmlns:xlink="http://www.w3.org/1999/xlink" x="0px" y="0px"	 viewBox="0 0 512 512" style="enable-background:new 0 0 512 512;" xml:space="preserve"><g>	<path style="fill:#FF8C8C;" d="M106.716,61.775c-21.612-4.199-40.276-7.828-50.461-18.008c-3.448-3.448-9.035-3.448-12.482,0		c-3.448,3.448-3.448,9.034,0,12.482c0.009,0.009,0.022,0.018,0.03,0.034c10.155,10.189,13.775,28.836,17.97,50.422		c5.992,30.871,13.449,69.293,43.418,104.509c1.703,2.001,4.177,3.104,6.724,3.104c0.776,0,1.56-0.104,2.332-0.31l73.465-20.113		c2.962-0.81,5.289-3.104,6.146-6.051l21.112-72.604c0.961-3.31-0.095-6.879-2.702-9.138		C176.771,75.371,137.927,67.837,106.716,61.775z"/>	<path style="fill:#FF8C8C;" d="M450.228,405.293c-5.94-30.603-13.336-68.698-42.729-103.69c-2.194-2.612-5.703-3.715-8.988-2.862		l-74.121,19.336c-3.073,0.802-5.479,3.19-6.297,6.259l-19.75,73.775c-0.884,3.302,0.215,6.819,2.824,9.026		c35.107,29.698,73.371,37.121,104.113,43.086c21.59,4.199,40.242,7.819,50.431,17.974c0.013,0.018,0.022,0.025,0.034,0.034		c1.725,1.725,3.982,2.586,6.241,2.586s4.517-0.862,6.241-2.586c3.448-3.448,3.448-9.035,0-12.483		C458.047,445.569,454.426,426.905,450.228,405.293z"/>	<path style="fill:#FF8C8C;" d="M193.897,324.301c-0.823-3.017-3.186-5.379-6.211-6.198l-73.608-19.939		c-3.293-0.879-6.824,0.207-9.035,2.802c-29.845,35.164-37.289,73.508-43.272,104.328c-4.199,21.612-7.819,40.276-17.999,50.457		c-3.448,3.448-3.448,9.035,0,12.483c1.724,1.725,3.982,2.586,6.241,2.586c2.259,0,4.518-0.862,6.241-2.586		c0.013-0.009,0.022-0.018,0.03-0.034c10.189-10.155,28.841-13.775,50.431-17.965c30.831-5.992,69.207-13.44,104.388-43.336		c2.607-2.216,3.702-5.741,2.802-9.043L193.897,324.301z"/>	<path style="fill:#FF8C8C;" d="M324.323,193.906l73.681,19.862c0.759,0.199,1.53,0.301,2.297,0.301		c2.556,0,5.035-1.112,6.733-3.121c29.78-35.147,37.219-73.457,43.194-104.233c4.199-21.612,7.819-40.285,18.001-50.465		c3.448-3.448,3.448-9.035,0-12.482c-3.448-3.448-9.035-3.448-12.483,0c-10.181,10.182-28.85,13.811-50.461,17.999		c-30.94,6.008-69.44,13.483-104.712,43.604c-2.607,2.232-3.69,5.768-2.776,9.078l20.314,73.293		C318.948,190.75,321.31,193.086,324.323,193.906z"/></g><g>	<path style="fill:#FF7D7D;" d="M465.103,282.991c14.638-10.151,26.207-18.164,38.069-18.164c4.879,0,8.828-3.953,8.828-8.828		s-3.948-8.828-8.828-8.828c-11.862,0-23.431-8.013-38.069-18.164c-22.37-15.505-50.216-34.802-94.345-34.802		c-34.069,0-61.793,27.72-61.793,61.793s27.724,61.793,61.793,61.793C414.888,317.793,442.733,298.496,465.103,282.991z"/>	<path style="fill:#FF7D7D;" d="M46.897,229.009c-14.638,10.151-26.207,18.164-38.069,18.164C3.948,247.172,0,251.125,0,256		s3.948,8.828,8.828,8.828c11.862,0,23.431,8.013,38.069,18.164c22.37,15.505,50.216,34.802,94.345,34.802		c34.069,0,61.793-27.72,61.793-61.793s-27.724-61.793-61.793-61.793C97.112,194.207,69.267,213.504,46.897,229.009z"/>	<path style="fill:#FF7D7D;" d="M282.991,46.897c-10.151-14.638-18.164-26.207-18.164-38.069C264.828,3.948,260.875,0,256,0		s-8.828,3.948-8.828,8.828c0,11.862-8.013,23.431-18.164,38.069c-15.505,22.37-34.802,50.216-34.802,94.345		c0,34.069,27.72,61.793,61.793,61.793s61.793-27.724,61.793-61.793C317.793,97.112,298.496,69.267,282.991,46.897z"/>	<path style="fill:#FF7D7D;" d="M229.009,465.103c10.151,14.638,18.164,26.207,18.164,38.069c0,4.879,3.953,8.828,8.828,8.828		s8.828-3.948,8.828-8.828c0-11.862,8.013-23.431,18.164-38.069c15.505-22.37,34.802-50.216,34.802-94.345		c0-34.069-27.72-61.793-61.793-61.793s-61.793,27.724-61.793,61.793C194.207,414.888,213.504,442.733,229.009,465.103z"/></g><g>	<path style="fill:#FF6E6E;" d="M320.918,233.811c11.414,0,22.142-4.448,30.211-12.518c20.172-20.163,24.509-42.526,27.996-60.491		c2.001-10.284,3.724-19.172,7.957-23.405c1.725-1.725,2.586-3.982,2.586-6.241s-0.862-4.518-2.586-6.241		c-3.448-3.448-9.035-3.448-12.483,0c-4.237,4.242-13.121,5.965-23.41,7.966c-17.961,3.482-40.315,7.828-60.483,27.991		c-16.655,16.655-16.655,43.767,0,60.423C298.776,229.362,309.504,233.811,320.918,233.811z"/>	<path style="fill:#FF6E6E;" d="M191.082,278.189c-11.414,0-22.142,4.448-30.211,12.518c-20.172,20.163-24.509,42.526-27.996,60.491		c-2.001,10.284-3.724,19.172-7.957,23.405c-1.725,1.725-2.586,3.982-2.586,6.241s0.862,4.518,2.586,6.241s3.982,2.586,6.241,2.586		c2.259,0,4.518-0.862,6.241-2.586c4.237-4.242,13.121-5.965,23.41-7.966c17.961-3.482,40.314-7.828,60.482-27.991		c16.655-16.655,16.655-43.767,0-60.423C213.224,282.638,202.496,278.189,191.082,278.189z"/>	<path style="fill:#FF6E6E;" d="M160.81,132.879c-10.289-2.001-19.172-3.724-23.41-7.966c-3.448-3.448-9.035-3.448-12.483,0		c-1.725,1.725-2.586,3.982-2.586,6.241s0.862,4.518,2.586,6.241c4.233,4.233,5.956,13.121,7.957,23.405		c3.487,17.965,7.823,40.328,27.996,60.491c8.07,8.07,18.797,12.518,30.211,12.518s22.142-4.448,30.211-12.518		c16.655-16.655,16.655-43.767,0-60.423C201.126,140.707,178.772,136.362,160.81,132.879z"/>	<path style="fill:#FF6E6E;" d="M379.125,351.198c-3.487-17.965-7.823-40.328-27.996-60.491		c-8.069-8.069-18.797-12.518-30.211-12.518s-22.142,4.448-30.211,12.518c-16.655,16.655-16.655,43.767,0,60.423		c20.168,20.163,42.521,24.509,60.483,27.991c10.289,2.001,19.172,3.724,23.41,7.966c1.725,1.725,3.982,2.586,6.241,2.586		s4.518-0.862,6.241-2.586s2.586-3.982,2.586-6.241c0-2.259-0.862-4.518-2.586-6.241		C382.849,370.37,381.124,361.483,379.125,351.198z"/></g><path style="fill:#E15555;" d="M397.241,247.172H277.312l53.724-53.724c3.447-3.447,3.447-9.036,0-12.483	c-3.447-3.447-9.036-3.447-12.483,0l-53.725,53.724v-119.93c0-4.875-3.953-8.828-8.828-8.828s-8.828,3.953-8.828,8.828v119.93	l-53.724-53.724c-3.447-3.447-9.036-3.447-12.483,0c-3.447,3.447-3.447,9.036,0,12.483l53.722,53.724H114.759	c-4.875,0-8.828,3.953-8.828,8.828s3.953,8.828,8.828,8.828h119.93l-53.724,53.724c-3.447,3.448-3.447,9.036,0,12.484	c3.447,3.447,9.036,3.447,12.483,0l53.724-53.724v119.929c0,4.875,3.953,8.828,8.828,8.828s8.828-3.953,8.828-8.828v-119.93	l53.725,53.725c3.447,3.447,9.036,3.447,12.483,0c3.447-3.448,3.447-9.036,0-12.484l-53.724-53.724h119.929	c4.875,0,8.828-3.953,8.828-8.828S402.116,247.172,397.241,247.172z"/><g>	<circle style="fill:#B4E66E;" cx="256" cy="229.517" r="17.655"/>	<circle style="fill:#B4E66E;" cx="256" cy="282.483" r="17.655"/>	<circle style="fill:#B4E66E;" cx="282.483" cy="256" r="17.655"/>	<circle style="fill:#B4E66E;" cx="229.517" cy="256" r="17.655"/></g><circle style="fill:#E15555;" cx="256" cy="256" r="17.655"/><g></g><g></g><g></g><g></g><g></g><g></g><g></g><g></g><g></g><g></g><g></g><g></g><g></g><g></g><g></g></svg>