<svg version="1.1" id="Layer_1" xmlns="http://www.w3.org/2000/svg" xmlns:xlink="http://www.w3.org/1999/xlink" x="0px" y="0px"	 viewBox="0 0 512 512" style="enable-background:new 0 0 512 512;" xml:space="preserve"><path style="fill:#FF5A5A;" d="M185.379,512L185.379,512C224.382,512,256,480.382,256,441.379V256H70.621	C31.618,256,0,287.618,0,326.621l0,0C0,429.003,82.997,512,185.379,512z"/><path style="fill:#FF464B;" d="M326.621,512L326.621,512C287.618,512,256,480.382,256,441.379V256h185.379	C480.382,256,512,287.618,512,326.621l0,0C512,429.003,429.003,512,326.621,512z"/><path style="fill:#FF5A5A;" d="M326.621,0L326.621,0C287.618,0,256,31.618,256,70.621V256h185.379	C480.382,256,512,224.382,512,185.379l0,0C512,82.997,429.003,0,326.621,0z"/><path style="fill:#FF464B;" d="M185.379,0L185.379,0C224.382,0,256,31.618,256,70.621V256H70.621C31.618,256,0,224.382,0,185.379	l0,0C0,82.997,82.997,0,185.379,0z"/><path style="fill:#FF8C4E;" d="M256,150.069c-58.505,0-105.931,47.426-105.931,105.931H256V150.069z"/><path style="fill:#FFA555;" d="M361.931,256c0-58.505-47.426-105.931-105.931-105.931V256H361.931z"/><path style="fill:#FF8C4E;" d="M256,361.931c58.505,0,105.931-47.426,105.931-105.931H256V361.931z"/><path style="fill:#FFA555;" d="M150.069,256c0,58.505,47.426,105.931,105.931,105.931V256H150.069z"/><path style="fill:#D7464B;" d="M401.849,144.47c-2.962-3.866-8.504-4.625-12.375-1.651l-86.243,65.951l65.951-86.243	c2.962-3.871,2.225-9.414-1.651-12.375c-3.866-2.957-9.409-2.22-12.375,1.651L249.704,249.704L111.801,355.155	c-3.875,2.962-4.612,8.504-1.651,12.375c1.737,2.272,4.362,3.466,7.021,3.466c1.866,0,3.754-0.59,5.354-1.815l86.243-65.951	l-65.951,86.243c-2.962,3.871-2.225,9.414,1.651,12.375c1.599,1.224,3.487,1.815,5.357,1.815c2.655,0,5.28-1.194,7.017-3.466	l105.452-137.901l137.901-105.452C404.073,153.884,404.81,148.341,401.849,144.47z"/><path style="fill:#CD4146;" d="M400.199,355.155L262.297,249.703L156.845,111.801c-2.962-3.871-8.504-4.608-12.375-1.651	c-3.875,2.962-4.612,8.504-1.651,12.375l65.951,86.243l-86.243-65.951c-3.88-2.974-9.422-2.216-12.375,1.651	c-2.962,3.871-2.225,9.414,1.651,12.375l137.901,105.452l105.452,137.901c1.737,2.272,4.362,3.466,7.017,3.466	c1.87,0,3.758-0.59,5.357-1.815c3.875-2.962,4.612-8.504,1.651-12.375L303.23,303.23l86.243,65.951	c1.599,1.224,3.487,1.815,5.354,1.815c2.659,0,5.284-1.194,7.021-3.466C404.81,363.659,404.073,358.116,400.199,355.155z"/><path style="fill:#91323C;" d="M335.448,256c0-11.886-7.884-21.825-18.669-25.175c5.258-9.995,3.805-22.598-4.6-31.003	c-8.405-8.405-21.009-9.858-31.003-4.6c-3.351-10.786-13.29-18.67-25.176-18.67s-21.825,7.884-25.175,18.669	c-9.995-5.258-22.598-3.805-31.003,4.6c-8.405,8.405-9.858,21.009-4.6,31.002c-10.786,3.351-18.67,13.29-18.67,25.176	s7.884,21.825,18.668,25.175c-5.257,9.995-3.804,22.598,4.601,31.003s21.009,9.858,31.002,4.6	c3.351,10.786,13.29,18.67,25.176,18.67s21.825-7.884,25.175-18.669c9.995,5.258,22.598,3.805,31.003-4.6s9.858-21.007,4.601-31.003	C327.564,277.825,335.448,267.886,335.448,256z"/><path style="fill:#AF3A41;" d="M256,308.966c-29.207,0-52.966-23.758-52.966-52.966s23.758-52.966,52.966-52.966	s52.966,23.758,52.966,52.966S285.207,308.966,256,308.966z M256,220.69c-19.47,0-35.31,15.84-35.31,35.31s15.84,35.31,35.31,35.31	s35.31-15.84,35.31-35.31S275.47,220.69,256,220.69z"/><g></g><g></g><g></g><g></g><g></g><g></g><g></g><g></g><g></g><g></g><g></g><g></g><g></g><g></g><g></g></svg>