<svg version="1.1" id="Layer_1" xmlns="http://www.w3.org/2000/svg" xmlns:xlink="http://www.w3.org/1999/xlink" x="0px" y="0px"	 viewBox="0 0 512.008 512.008" style="enable-background:new 0 0 512.008 512.008;" xml:space="preserve"><path style="fill:#D24150;" d="M422.599,267.624v-23.586c20.905-6.914,36.418-14.508,46.159-22.621	c2.487-2.069,3.642-5.336,3.012-8.509c-0.633-3.172-2.948-5.741-6.039-6.707c-12.018-3.733-29.259-4.785-51.306-3.181l-9.009-21.845	c16.668-14.397,28.086-27.353,33.978-38.551c1.504-2.871,1.323-6.327-0.474-9.017s-4.927-4.181-8.142-3.887	c-12.547,1.146-28.888,6.767-48.642,16.707l-16.733-16.733c9.944-19.767,15.561-36.113,16.707-48.647	c0.293-3.224-1.198-6.345-3.892-8.147c-2.694-1.793-6.146-1.974-9.013-0.466c-11.215,5.897-24.163,17.319-38.548,33.983	l-21.854-9.009c1.621-22.051,0.556-39.293-3.177-51.31c-0.961-3.086-3.534-5.405-6.707-6.035c-3.159-0.664-6.44,0.518-8.509,3.009	c-8.099,9.724-15.699,25.241-22.621,46.155h-23.586c-6.922-20.914-14.521-36.431-22.621-46.155	c-2.069-2.492-5.354-3.681-8.509-3.009c-3.172,0.629-5.746,2.948-6.707,6.035c-3.733,12.018-4.798,29.259-3.177,51.31l-21.854,9.009	c-14.383-16.664-27.332-28.086-38.548-33.983c-2.867-1.508-6.319-1.327-9.013,0.466c-2.694,1.802-4.185,4.922-3.892,8.147	c1.146,12.534,6.763,28.879,16.707,48.647l-16.733,16.733c-19.754-9.94-36.095-15.561-48.642-16.707	c-3.155-0.294-6.34,1.198-8.142,3.887c-1.798,2.69-1.978,6.146-0.474,9.017c5.892,11.198,17.31,24.156,33.978,38.551l-9.009,21.845	c-22.044-1.603-39.297-0.552-51.306,3.181c-3.091,0.966-5.405,3.534-6.039,6.707c-0.629,3.172,0.526,6.44,3.012,8.509	c9.741,8.113,25.255,15.706,46.159,22.621v23.586c-20.905,6.914-36.418,14.508-46.159,22.621c-2.487,2.069-3.642,5.336-3.012,8.509	c0.633,3.172,2.948,5.741,6.039,6.707c12.013,3.733,29.246,4.776,51.306,3.181l9.011,21.845	c-16.668,14.397-28.086,27.353-33.978,38.551c-1.504,2.871-1.323,6.327,0.474,9.017c1.798,2.69,4.979,4.19,8.142,3.887	c12.547-1.146,28.888-6.767,48.642-16.707l16.733,16.733c-9.944,19.767-15.561,36.104-16.703,48.638	c-0.298,3.215,1.194,6.345,3.884,8.138c2.69,1.802,6.155,1.983,9.013,0.474c11.215-5.888,24.163-17.311,38.551-33.974l21.854,9.009	c-1.621,22.051-0.556,39.293,3.177,51.31c0.961,3.086,3.534,5.405,6.707,6.035c3.164,0.672,6.44-0.526,8.509-3.009	c8.099-9.725,15.699-25.241,22.621-46.155h23.586c6.922,20.914,14.521,36.431,22.621,46.155c1.694,2.035,4.194,3.181,6.784,3.181	c0.574,0,1.151-0.052,1.725-0.172c3.172-0.629,5.746-2.948,6.707-6.035c3.733-12.018,4.798-29.259,3.177-51.31l21.854-9.009	c14.388,16.664,27.336,28.086,38.551,33.974c2.867,1.508,6.323,1.327,9.013-0.474c2.69-1.793,4.181-4.922,3.884-8.138	c-1.142-12.534-6.759-28.871-16.703-48.638l16.733-16.733c19.754,9.94,36.095,15.561,48.642,16.707	c3.22,0.301,6.349-1.198,8.142-3.887c1.798-2.69,1.978-6.146,0.474-9.017c-5.892-11.198-17.311-24.156-33.978-38.551l9.009-21.845	c22.035,1.594,39.293,0.543,51.306-3.181c3.091-0.966,5.405-3.534,6.039-6.707c0.629-3.172-0.526-6.44-3.012-8.509	C459.017,282.133,443.505,274.538,422.599,267.624z"/><path style="fill:#FF5064;" d="M507.388,248.072c-28.452-15.457-83.155-18.302-111.72-18.673l-0.518-2.595	c26.25-11.276,75.699-34.828,96.07-60.009c2.035-2.517,2.53-5.94,1.293-8.931c-1.237-2.991-4.009-5.06-7.229-5.397	c-32.242-3.414-83.832,14.905-110.367,25.492l-1.465-2.198c19.935-20.466,56.612-61.164,65.789-92.206	c0.918-3.104,0.065-6.457-2.225-8.742c-2.289-2.293-5.633-3.121-8.746-2.225c-31.043,9.181-71.737,45.854-92.203,65.793	l-2.198-1.474c10.586-26.535,28.896-78.155,25.5-110.354c-0.341-3.224-2.414-5.992-5.401-7.233	c-2.987-1.224-6.414-0.742-8.931,1.293c-25.173,20.362-48.737,69.811-60.013,96.061l-2.591-0.518	c-0.371-28.561-3.215-83.267-18.681-111.715c-3.086-5.689-12.423-5.689-15.509,0c-15.466,28.448-18.311,83.155-18.681,111.715	l-2.591,0.518c-11.276-26.25-34.84-75.699-60.013-96.061c-2.521-2.035-5.944-2.517-8.931-1.293c-2.987,1.241-5.06,4.009-5.401,7.233	c-3.396,32.199,14.914,83.819,25.5,110.354l-2.198,1.474c-20.466-19.939-61.16-56.612-92.203-65.793	c-3.107-0.914-6.465-0.07-8.746,2.225c-2.289,2.284-3.143,5.638-2.225,8.742c9.176,31.043,45.854,71.742,65.789,92.206l-1.465,2.198	c-26.53-10.595-78.125-28.888-110.367-25.492c-3.22,0.337-5.992,2.406-7.229,5.397c-1.237,2.991-0.742,6.414,1.293,8.931	c20.371,25.181,69.818,48.733,96.068,60.009l-0.518,2.595c-28.565,0.371-83.267,3.215-111.72,18.673	C1.771,249.616,0,252.599,0,255.832s1.771,6.216,4.612,7.758c28.452,15.457,83.155,18.302,111.72,18.673l0.518,2.595	c-26.25,11.276-75.699,34.828-96.068,60.009c-2.035,2.517-2.53,5.94-1.293,8.931c1.237,2.991,4.009,5.06,7.229,5.397	c32.228,3.414,83.832-14.905,110.367-25.492l1.465,2.198c-19.935,20.466-56.612,61.164-65.789,92.206	c-0.918,3.104-0.065,6.457,2.225,8.742c2.293,2.293,5.638,3.138,8.746,2.225c31.043-9.181,71.737-45.854,92.203-65.793l2.198,1.474	c-10.586,26.535-28.896,78.155-25.5,110.354c0.341,3.224,2.414,5.992,5.401,7.233c2.987,1.233,6.41,0.742,8.931-1.293	c25.172-20.362,48.737-69.811,60.013-96.061l2.591,0.517c0.371,28.561,3.215,83.267,18.681,111.715	c1.543,2.845,4.518,4.612,7.754,4.612c3.236,0,6.211-1.768,7.754-4.612c15.466-28.448,18.311-83.155,18.681-111.715l2.591-0.517	c11.276,26.25,34.84,75.699,60.013,96.061c2.517,2.035,5.944,2.526,8.931,1.293c2.987-1.241,5.06-4.009,5.401-7.233	c3.396-32.199-14.914-83.819-25.5-110.354l2.198-1.474c20.466,19.939,61.16,56.612,92.203,65.793	c3.095,0.897,6.457,0.061,8.746-2.225c2.289-2.285,3.143-5.638,2.225-8.742c-9.176-31.043-45.854-71.742-65.789-92.206l1.465-2.198	c26.535,10.595,78.151,28.948,110.367,25.492c3.22-0.337,5.992-2.406,7.229-5.397c1.237-2.991,0.742-6.414-1.293-8.931	c-20.371-25.181-69.819-48.733-96.07-60.009l0.518-2.595c28.565-0.371,83.267-3.215,111.72-18.673	c2.84-1.543,4.612-4.526,4.612-7.758S510.228,249.616,507.388,248.072z"/><path style="fill:#DCE6A0;" d="M397.241,255.832c0-7.097-5.749-12.84-12.84-12.84h-63.855l58.996-24.439	c6.552-2.709,9.662-10.219,6.946-16.778c-2.721-6.546-10.226-9.667-16.778-6.946l-58.979,24.431l45.142-45.146	c5.015-5.015,5.015-13.141,0-18.157c-5.015-5.015-13.141-5.015-18.157,0l-45.158,45.162l24.437-59.006	c2.714-6.558-0.395-14.069-6.946-16.778c-6.595-2.709-14.076,0.402-16.778,6.946l-24.433,58.995V127.43	c0-7.097-5.749-12.84-12.84-12.84c-7.091,0-12.84,5.743-12.84,12.84v63.842l-24.433-58.99c-2.714-6.546-10.207-9.655-16.778-6.946	c-6.552,2.709-9.662,10.219-6.946,16.778l24.44,59.009l-45.162-45.166c-5.015-5.015-13.141-5.015-18.157,0s-5.015,13.141,0,18.157	l45.135,45.14l-58.973-24.426c-6.577-2.721-14.062,0.402-16.778,6.946c-2.714,6.558,0.395,14.069,6.946,16.778l59.006,24.439	h-63.864c-7.091,0-12.84,5.743-12.84,12.84c0,7.097,5.749,12.84,12.84,12.84h63.855l-58.996,24.439	c-6.552,2.709-9.662,10.219-6.946,16.778c2.05,4.94,6.828,7.925,11.869,7.925c1.636,0,3.304-0.313,4.909-0.978l58.979-24.431	l-45.142,45.146c-5.015,5.015-5.015,13.141,0,18.157c2.508,2.508,5.793,3.762,9.078,3.762s6.571-1.254,9.078-3.762l45.158-45.162	l-24.437,59.006c-2.714,6.558,0.395,14.069,6.946,16.778c1.611,0.664,3.273,0.978,4.909,0.978c5.041,0,9.824-2.985,11.869-7.925	l24.433-58.995v63.848c0,7.097,5.749,12.84,12.84,12.84s12.84-5.743,12.84-12.84v-63.841l24.433,58.988	c2.05,4.94,6.828,7.925,11.869,7.925c1.636,0,3.298-0.313,4.909-0.978c6.552-2.709,9.662-10.219,6.946-16.778l-24.442-59.011	l45.163,45.167c2.508,2.508,5.793,3.762,9.078,3.762c3.285,0,6.571-1.254,9.078-3.762c5.015-5.015,5.015-13.141,0-18.157	l-45.14-45.145l58.977,24.43c1.611,0.664,3.273,0.978,4.909,0.978c5.041,0,9.818-2.985,11.869-7.925	c2.714-6.558-0.395-14.069-6.946-16.778l-58.998-24.439H384.4C391.492,268.671,397.241,262.929,397.241,255.832z M256,294.352	c-21.274,0-38.52-17.246-38.52-38.52s17.246-38.52,38.52-38.52s38.52,17.246,38.52,38.52S277.274,294.352,256,294.352z"/><path style="fill:#CDE67D;" d="M384.451,268.145l-62.635-12.385l62.61-12.518c6.953-1.391,11.46-8.15,10.069-15.11	c-1.386-6.959-8.138-11.537-15.109-10.069l-62.59,12.514l53.042-35.523c5.887-3.95,7.467-11.925,3.523-17.818	c-3.95-5.906-11.932-7.474-17.819-3.523l-53.048,35.528l35.412-53.12c3.932-5.906,2.338-13.868-3.561-17.805	c-5.912-3.925-13.875-2.345-17.805,3.561l-35.42,53.132l12.392-62.637c1.379-6.959-3.147-13.718-10.106-15.097	c-6.927-1.33-13.705,3.16-15.084,10.106l-12.393,62.642l-12.523-62.616c-1.386-6.959-8.15-11.511-15.11-10.069	c-6.953,1.391-11.46,8.15-10.069,15.11l12.516,62.586l-35.52-53.032c-3.944-5.894-11.937-7.474-17.818-3.523	c-5.887,3.95-7.467,11.925-3.523,17.818l35.523,53.037l-53.116-35.407c-5.906-3.925-13.875-2.345-17.805,3.561	c-3.93,5.906-2.338,13.868,3.561,17.805l53.121,35.411l-62.638-12.388c-6.915-1.367-13.705,3.16-15.084,10.106	c-1.379,6.959,3.147,13.718,10.106,15.097l62.627,12.386l-62.602,12.516c-6.953,1.391-11.46,8.15-10.069,15.11	c1.216,6.106,6.577,10.319,12.577,10.319c0.834,0,1.681-0.075,2.532-0.25l62.59-12.514l-53.042,35.523	c-5.887,3.95-7.467,11.925-3.523,17.818c2.476,3.699,6.546,5.693,10.684,5.693c2.457,0,4.94-0.702,7.135-2.169l53.048-35.528	l-35.412,53.12c-3.932,5.906-2.338,13.868,3.561,17.805c2.188,1.454,4.664,2.157,7.109,2.157c4.15,0,8.22-2.006,10.696-5.718	l35.42-53.132l-12.392,62.637c-1.379,6.959,3.147,13.718,10.106,15.097c0.84,0.163,1.674,0.238,2.502,0.238	c6.006,0,11.373-4.238,12.583-10.345l12.388-62.622l12.521,62.596c1.223,6.107,6.583,10.319,12.577,10.319	c0.834,0,1.681-0.075,2.532-0.25c6.953-1.391,11.46-8.15,10.069-15.109l-12.522-62.607l35.531,53.053	c2.476,3.699,6.546,5.693,10.684,5.693c2.457,0,4.94-0.702,7.135-2.169c5.887-3.95,7.467-11.925,3.523-17.818l-35.521-53.036	l53.113,35.406c2.188,1.454,4.664,2.157,7.109,2.157c4.15,0,8.22-2.006,10.696-5.718c3.932-5.906,2.338-13.868-3.561-17.805	l-53.115-35.406l62.632,12.385c0.84,0.163,1.674,0.238,2.502,0.238c6.006,0,11.373-4.238,12.583-10.345	C395.937,276.283,391.411,269.524,384.451,268.145z M256,294.352c-21.274,0-38.52-17.246-38.52-38.52s17.246-38.52,38.52-38.52	s38.52,17.246,38.52,38.52S277.274,294.352,256,294.352z"/><path style="fill:#FFEBA0;" d="M353.103,255.832c0-4.879-3.953-8.828-8.828-8.828h-43.901l40.559-16.802	c4.504-1.863,6.643-7.026,4.776-11.534c-1.87-4.5-7.03-6.646-11.534-4.776l-40.548,16.797l31.034-31.038	c3.448-3.448,3.448-9.035,0-12.483s-9.035-3.448-12.483,0l-31.046,31.049l16.8-40.566c1.866-4.509-0.271-9.673-4.776-11.534	c-4.534-1.863-9.677,0.276-11.534,4.776l-16.796,40.559v-43.895c0-4.879-3.953-8.828-8.828-8.828s-8.828,3.948-8.828,8.828v43.892	l-16.798-40.555c-1.866-4.5-7.017-6.638-11.534-4.776c-4.504,1.863-6.643,7.026-4.776,11.534l16.803,40.569l-31.049-31.052	c-3.448-3.448-9.035-3.448-12.483,0c-3.448,3.448-3.448,9.035,0,12.483l31.031,31.034l-40.544-16.792	c-4.522-1.87-9.668,0.276-11.534,4.776c-1.866,4.509,0.271,9.673,4.776,11.534l40.566,16.802h-43.906	c-4.875,0-8.828,3.948-8.828,8.828s3.953,8.828,8.828,8.828h43.901l-40.559,16.802c-4.504,1.863-6.643,7.026-4.776,11.534	c1.409,3.396,4.694,5.449,8.16,5.449c1.126,0,2.272-0.215,3.375-0.672l40.548-16.797l-31.034,31.038	c-3.448,3.448-3.448,9.035,0,12.483c1.725,1.725,3.982,2.586,6.241,2.586s4.518-0.862,6.241-2.586l31.046-31.049l-16.8,40.566	c-1.866,4.509,0.271,9.673,4.776,11.534c1.108,0.457,2.25,0.672,3.375,0.672c3.466,0,6.754-2.051,8.16-5.449l16.794-40.563v43.895	c0,4.879,3.953,8.828,8.828,8.828s8.828-3.948,8.828-8.828v-43.891l16.798,40.554c1.409,3.396,4.694,5.449,8.16,5.449	c1.125,0,2.268-0.215,3.375-0.672c4.504-1.863,6.643-7.026,4.776-11.534l-16.804-40.57l31.05,31.053	c1.725,1.725,3.982,2.586,6.241,2.586s4.518-0.862,6.241-2.586c3.448-3.448,3.448-9.035,0-12.483l-31.034-31.037l40.547,16.796	c1.108,0.457,2.25,0.672,3.375,0.672c3.466,0,6.75-2.051,8.16-5.449c1.866-4.509-0.271-9.673-4.776-11.534l-40.562-16.802h43.901	C349.151,264.659,353.103,260.711,353.103,255.832z M256,282.314c-14.626,0-26.483-11.857-26.483-26.483	s11.857-26.483,26.483-26.483s26.483,11.857,26.483,26.483S270.626,282.314,256,282.314z"/><path style="fill:#FFF5BE;" d="M344.31,264.297l-43.061-8.515l43.044-8.606c4.78-0.957,7.88-5.603,6.922-10.388	c-0.952-4.785-5.594-7.932-10.388-6.922l-43.031,8.604l36.466-24.423c4.047-2.716,5.133-8.199,2.422-12.25	c-2.716-4.061-8.203-5.138-12.25-2.422L287.962,223.8l24.345-36.52c2.702-4.061,1.608-9.535-2.449-12.242	c-4.065-2.698-9.539-1.612-12.242,2.449l-24.351,36.529l8.52-43.063c0.948-4.785-2.164-9.431-6.948-10.379	c-4.762-0.914-9.422,2.173-10.37,6.948l-8.52,43.066l-8.609-43.049c-0.952-4.785-5.603-7.914-10.388-6.922	c-4.78,0.957-7.88,5.603-6.922,10.388l8.605,43.029l-24.419-36.459c-2.711-4.052-8.207-5.138-12.25-2.422	c-4.047,2.716-5.133,8.199-2.422,12.25l24.423,36.463l-36.518-24.343c-4.061-2.698-9.539-1.612-12.242,2.449	c-2.702,4.061-1.608,9.535,2.449,12.242l36.521,24.345l-43.063-8.518c-4.755-0.94-9.422,2.173-10.37,6.948	c-0.948,4.785,2.164,9.431,6.948,10.379l43.057,8.515l-43.039,8.605c-4.78,0.957-7.88,5.603-6.922,10.388	c0.836,4.199,4.522,7.095,8.647,7.095c0.574,0,1.155-0.052,1.741-0.172l43.031-8.604l-36.466,24.423	c-4.047,2.716-5.133,8.199-2.422,12.25c1.703,2.543,4.5,3.914,7.345,3.914c1.689,0,3.396-0.483,4.905-1.492l36.471-24.425	l-24.345,36.52c-2.702,4.061-1.608,9.535,2.449,12.242c1.504,1,3.207,1.483,4.888,1.483c2.854,0,5.651-1.379,7.353-3.932	l24.351-36.529l-8.52,43.063c-0.948,4.785,2.164,9.431,6.948,10.379c0.577,0.113,1.151,0.163,1.72,0.163	c4.129,0,7.819-2.914,8.651-7.112l8.518-43.052l8.608,43.034c0.841,4.199,4.526,7.095,8.647,7.095c0.574,0,1.155-0.052,1.741-0.172	c4.78-0.957,7.88-5.603,6.922-10.388l-8.609-43.042l24.428,36.473c1.703,2.543,4.5,3.914,7.345,3.914	c1.689,0,3.396-0.483,4.905-1.492c4.047-2.716,5.133-8.199,2.422-12.25l-24.42-36.462l36.515,24.342	c1.504,1,3.207,1.483,4.888,1.483c2.854,0,5.651-1.379,7.353-3.932c2.702-4.061,1.608-9.535-2.449-12.242l-36.516-24.342	l43.059,8.514c0.577,0.113,1.151,0.163,1.72,0.163c4.129,0,7.819-2.914,8.651-7.112C352.206,269.892,349.095,265.245,344.31,264.297	z M256,282.314c-14.626,0-26.483-11.857-26.483-26.483s11.857-26.483,26.483-26.483s26.483,11.857,26.483,26.483	S270.626,282.314,256,282.314z"/><circle style="fill:#FFFADC;" cx="256" cy="255.827" r="32.033"/><g></g><g></g><g></g><g></g><g></g><g></g><g></g><g></g><g></g><g></g><g></g><g></g><g></g><g></g><g></g></svg>