<svg version="1.1" id="Layer_1" xmlns="http://www.w3.org/2000/svg" xmlns:xlink="http://www.w3.org/1999/xlink" x="0px" y="0px"	 viewBox="0 0 512.002 512.002" style="enable-background:new 0 0 512.002 512.002;" xml:space="preserve"><path style="fill:#F0DC5A;" d="M56.259,179.286c15.793,16.629,37.522,34.026,55.353,44.319l68.798,39.715	c2.434,1.412,4.878,2.733,7.319,3.96c5.603,2.816,10.328,7.108,14.104,12.116l0.813,1.078c6.388,8.469,10.005,18.867,9.427,29.459	c-0.14,2.57-0.211,5.193-0.211,7.862v79.448c0,32.664,13.129,114.759,44.138,114.759s44.138-82.094,44.138-114.759v-79.448	c0-2.667-0.069-5.287-0.21-7.853c-0.536-9.874,1.938-19.674,7.763-27.666l1.475-2.023c4.136-5.674,9.612-10.167,15.865-13.359	c2.179-1.112,4.365-2.302,6.551-3.564l68.806-39.724c17.832-10.293,39.561-27.69,55.353-44.319	c21.582-22.724,28.767-39.5,21.961-51.285c-6.81-11.785-24.922-13.94-55.396-6.621c-22.293,5.362-48.224,15.482-66.056,25.775	l-68.806,39.724c-2.225,1.284-4.381,2.605-6.462,3.958c-7.449,4.84-16.019,7.659-24.903,7.595l-0.794-0.006	c-8.651-0.062-16.973-2.85-24.227-7.565c-2.095-1.362-4.265-2.691-6.503-3.982l-68.806-39.724	c-17.832-10.293-43.763-20.414-66.056-25.775c-11.733-2.819-21.633-4.242-29.763-4.242c-12.983,0.009-21.448,3.612-25.63,10.862	C27.491,139.786,34.676,156.562,56.259,179.286z"/><path style="fill:#C8D755;" d="M247.172,261.099V509.42c2.778,1.547,5.687,2.581,8.828,2.581c3.14,0,6.049-1.034,8.828-2.581	V261.099l215.242-124.27c-0.1-3.194-0.824-6.157-2.367-8.828c-1.544-2.67-3.75-4.779-6.467-6.462L255.999,245.806L40.91,121.623	c-2.728,1.686-5.064,3.698-6.609,6.378c-1.543,2.67-2.268,5.634-2.368,8.829L247.172,261.099z"/><path style="fill:#F5E664;" d="M455.742,332.716c-15.794-16.629-37.522-34.026-55.353-44.319l-68.798-39.715	c-2.434-1.412-4.878-2.733-7.319-3.96c-5.603-2.816-10.328-7.108-14.104-12.116l-0.813-1.078	c-6.388-8.469-10.005-18.867-9.427-29.459c0.14-2.57,0.211-5.193,0.211-7.862v-79.448C300.138,82.094,287.01,0,256,0	s-44.138,82.094-44.138,114.759v79.448c0,2.667,0.07,5.287,0.21,7.853c0.536,9.874-1.938,19.674-7.763,27.666l-1.475,2.023	c-4.136,5.674-9.612,10.167-15.865,13.359c-2.179,1.112-4.365,2.302-6.551,3.564l-68.806,39.724	c-17.832,10.293-39.561,27.69-55.353,44.319c-21.58,22.726-28.766,39.501-21.96,51.286c6.81,11.785,24.922,13.94,55.396,6.621	c22.293-5.362,48.224-15.482,66.056-25.775l68.806-39.724c2.225-1.284,4.381-2.605,6.462-3.958	c7.449-4.84,16.019-7.659,24.903-7.595l0.794,0.006c8.651,0.062,16.973,2.85,24.227,7.565c2.095,1.362,4.265,2.691,6.503,3.982	l68.806,39.724c17.832,10.293,43.763,20.414,66.056,25.775c11.733,2.819,21.633,4.242,29.763,4.242	c12.983-0.009,21.449-3.612,25.63-10.862C484.51,372.216,477.325,355.441,455.742,332.716z"/><path style="fill:#D2DC5A;" d="M264.829,250.903V2.582c-2.778-1.547-5.687-2.581-8.828-2.581s-6.049,1.034-8.828,2.581v248.321	L31.932,375.174c0.1,3.194,0.824,6.157,2.367,8.828c1.544,2.67,3.75,4.779,6.467,6.462l215.235-124.267l215.09,124.182	c2.728-1.686,5.064-3.698,6.609-6.378c1.543-2.67,2.268-5.634,2.368-8.829L264.829,250.903z"/><path style="fill:#F0CD55;" d="M288.015,239.139c-2.177-4.362-7.466-6.121-11.844-3.948l-20.168,10.08l-20.168-10.08	c-4.366-2.173-9.664-0.414-11.844,3.948c-2.18,4.362-0.409,9.664,3.953,11.844l19.233,9.611v30.717c0,4.879,3.953,8.828,8.828,8.828	s8.828-3.948,8.828-8.828v-30.717l19.233-9.611C288.424,248.803,290.195,243.501,288.015,239.139z"/><g>	<path style="fill:#F0AF4B;" d="M256.002,326.622L256.002,326.622c-9.751,0-17.655-7.904-17.655-17.655v-8.828		c0-9.751,7.904-17.655,17.655-17.655l0,0c9.751,0,17.655,7.904,17.655,17.655v8.828		C273.657,318.718,265.752,326.622,256.002,326.622z"/>	<path style="fill:#F0AF4B;" d="M235.978,247.17L235.978,247.17c-4.875,8.445-15.673,11.338-24.117,6.462l-7.645-4.414		c-8.445-4.875-11.338-15.673-6.462-24.117l0,0c4.875-8.445,15.673-11.338,24.117-6.462l7.645,4.414		C237.96,227.928,240.853,238.727,235.978,247.17z"/>	<path style="fill:#F0AF4B;" d="M276.025,247.17L276.025,247.17c4.875,8.445,15.673,11.338,24.117,6.462l7.645-4.414		c8.445-4.875,11.338-15.673,6.462-24.117l0,0c-4.875-8.445-15.673-11.338-24.117-6.462l-7.645,4.414		C274.043,227.928,271.15,238.727,276.025,247.17z"/></g><g></g><g></g><g></g><g></g><g></g><g></g><g></g><g></g><g></g><g></g><g></g><g></g><g></g><g></g><g></g></svg>