<svg version="1.1" id="Layer_1" xmlns="http://www.w3.org/2000/svg" xmlns:xlink="http://www.w3.org/1999/xlink" x="0px" y="0px"	 viewBox="0 0 512.001 512.001" style="enable-background:new 0 0 512.001 512.001;" xml:space="preserve"><path style="fill:#FFF064;" d="M118.536,43.595C105.02,42.638,92.162,53.64,91.04,67.101C79.403,70.219,70.219,79.403,67.101,91.04	c-13.336,1.12-24.469,13.888-23.505,27.496c0.531,7.438,4.256,14.27,10.221,18.739l134.398,100.8	c3.515,2.636,8.439,2.289,11.549-0.821l37.491-37.491c3.109-3.109,3.457-8.034,0.821-11.549L137.275,53.816	C132.805,47.853,125.974,44.127,118.536,43.595z"/><path style="fill:#FFEB37;" d="M211.654,225.364l13.71-13.71L91.093,66.824c-0.009,0.095-0.045,0.182-0.054,0.277	C79.403,70.219,70.219,79.403,67.101,91.04c-0.095,0.008-0.182,0.044-0.277,0.054L211.654,225.364z"/><path style="fill:#FFF064;" d="M393.465,468.405c13.516,0.958,26.373-10.044,27.496-23.506	c11.637-3.118,20.821-12.302,23.939-23.939c13.336-1.12,24.469-13.888,23.506-27.496c-0.531-7.438-4.256-14.27-10.221-18.739	l-134.398-100.8c-3.515-2.636-8.439-2.289-11.549,0.821l-37.491,37.491c-3.109,3.109-3.457,8.034-0.821,11.549l100.8,134.398	C379.195,464.148,386.027,467.874,393.465,468.405z"/><path style="fill:#FFEB37;" d="M300.347,286.636l-13.71,13.71l134.271,144.83c0.009-0.095,0.045-0.182,0.054-0.277	c11.637-3.118,20.821-12.302,23.939-23.939c0.095-0.008,0.182-0.044,0.277-0.054L300.347,286.636z"/><path style="fill:#FFF064;" d="M43.595,393.465c-0.958,13.516,10.044,26.373,23.505,27.496	c3.118,11.637,12.302,20.821,23.939,23.939c1.12,13.336,13.888,24.469,27.496,23.506c7.438-0.531,14.27-4.256,18.739-10.221	l100.8-134.398c2.636-3.515,2.289-8.439-0.821-11.549l-37.491-37.491c-3.109-3.109-8.034-3.457-11.549-0.821l-134.397,100.8	C47.853,379.195,44.127,386.027,43.595,393.465z"/><path style="fill:#FFEB37;" d="M225.364,300.347l-13.71-13.71L66.824,420.908c0.095,0.009,0.182,0.045,0.277,0.054	c3.118,11.637,12.302,20.821,23.939,23.939c0.008,0.095,0.044,0.182,0.054,0.277L225.364,300.347z"/><path style="fill:#FFF064;" d="M468.405,118.536c0.958-13.516-10.044-26.373-23.506-27.496	c-3.118-11.637-12.302-20.821-23.939-23.939c-1.12-13.336-13.888-24.469-27.496-23.505c-7.438,0.531-14.27,4.256-18.739,10.221	l-100.8,134.398c-2.636,3.515-2.289,8.439,0.821,11.549l37.491,37.491c3.109,3.109,8.034,3.457,11.549,0.821l134.398-100.8	C464.148,132.805,467.874,125.974,468.405,118.536z"/><g>	<path style="fill:#FFEB37;" d="M286.636,211.654l13.71,13.71l144.83-134.271c-0.095-0.009-0.182-0.045-0.277-0.054		c-3.118-11.637-12.302-20.821-23.939-23.939c-0.008-0.095-0.044-0.182-0.054-0.277L286.636,211.654z"/>	<path style="fill:#FFEB37;" d="M308.991,8.605c-8.88-10.235-25.751-11.546-36.063-2.822c-10.433-6.023-23.421-6.023-33.854,0		c-10.222-8.638-27.123-7.481-36.063,2.822c-4.885,5.636-7.08,13.099-6.023,20.478l23.758,166.31		c0.622,4.349,4.35,7.585,8.746,7.585h53.021c4.396,0,8.124-3.236,8.746-7.585l23.758-166.31		C316.072,21.706,313.875,14.241,308.991,8.605z"/></g><path style="fill:#FFDC2D;" d="M246.305,202.98h19.39l7.466-197.354c-0.073,0.061-0.161,0.096-0.234,0.158	c-10.433-6.023-23.421-6.023-33.854,0c-0.073-0.062-0.161-0.097-0.234-0.158L246.305,202.98z"/><path style="fill:#FFEB37;" d="M203.01,503.396c8.88,10.235,25.751,11.546,36.063,2.822c10.433,6.023,23.421,6.023,33.854,0	c10.222,8.638,27.123,7.481,36.063-2.822c4.884-5.636,7.08-13.099,6.023-20.478l-23.758-166.31c-0.622-4.35-4.35-7.585-8.746-7.585	h-53.021c-4.396,0-8.124,3.236-8.746,7.585l-23.758,166.31C195.929,490.295,198.125,497.76,203.01,503.396z"/><path style="fill:#FFDC2D;" d="M265.695,309.021h-19.39l-7.466,197.354c0.073-0.061,0.161-0.096,0.234-0.158	c10.433,6.023,23.421,6.023,33.854,0c0.073,0.062,0.161,0.097,0.234,0.158L265.695,309.021z"/><path style="fill:#FFEB37;" d="M8.605,203.01c-10.235,8.88-11.546,25.751-2.822,36.063c-6.023,10.433-6.023,23.421,0,33.854	c-8.638,10.222-7.481,27.123,2.822,36.063c5.636,4.884,13.099,7.08,20.478,6.023l166.31-23.758c4.349-0.622,7.585-4.35,7.585-8.746	v-53.021c0-4.396-3.236-8.124-7.585-8.746l-166.31-23.755C21.706,195.929,14.241,198.125,8.605,203.01z"/><path style="fill:#FFDC2D;" d="M202.98,265.695v-19.39L5.625,238.839c0.061,0.073,0.096,0.161,0.158,0.234	c-6.023,10.433-6.023,23.421,0,33.854c-0.062,0.073-0.097,0.161-0.158,0.234L202.98,265.695z"/><path style="fill:#FFEB37;" d="M503.396,308.991c10.235-8.88,11.546-25.751,2.822-36.063c6.023-10.433,6.023-23.421,0-33.854	c8.638-10.222,7.481-27.123-2.822-36.063c-5.636-4.885-13.099-7.08-20.478-6.023l-166.31,23.758c-4.35,0.622-7.585,4.35-7.585,8.746	v53.021c0,4.396,3.236,8.124,7.585,8.746l166.31,23.758C490.295,316.072,497.76,313.875,503.396,308.991z"/><g>	<path style="fill:#FFDC2D;" d="M309.021,246.305v19.39l197.354,7.466c-0.061-0.073-0.096-0.161-0.158-0.234		c6.023-10.433,6.023-23.421,0-33.854c0.062-0.073,0.097-0.161,0.158-0.234L309.021,246.305z"/>	<path style="fill:#FFDC2D;" d="M258.999,189.733l6.258-2.591c2.929-1.213,6.301-0.542,8.542,1.699l4.79,4.788		c1.47,1.469,3.463,2.295,5.542,2.295l6.773,0.001c3.17,0,6.028,1.91,7.242,4.838l2.592,6.258c0.795,1.92,2.321,3.446,4.242,4.242		l6.258,2.592c2.928,1.214,4.838,4.072,4.838,7.242l0.001,6.773c0,2.079,0.826,4.072,2.295,5.542l4.788,4.79		c2.241,2.242,2.912,5.612,1.699,8.542l-2.591,6.258c-0.795,1.921-0.795,4.078,0,5.998l2.591,6.258		c1.213,2.929,0.542,6.301-1.699,8.542l-4.788,4.79c-1.469,1.47-2.295,3.463-2.295,5.542l-0.001,6.773		c0,3.17-1.91,6.028-4.838,7.242l-6.258,2.592c-1.92,0.795-3.446,2.321-4.242,4.242l-2.592,6.258		c-1.214,2.928-4.072,4.838-7.242,4.838l-6.773,0.001c-2.079,0-4.072,0.826-5.542,2.295l-4.79,4.788		c-2.242,2.241-5.612,2.912-8.542,1.699l-6.258-2.591c-1.921-0.795-4.078-0.795-5.998,0l-6.258,2.591		c-2.929,1.213-6.301,0.542-8.542-1.699l-4.79-4.788c-1.47-1.469-3.463-2.295-5.542-2.295l-6.773-0.001		c-3.17,0-6.028-1.91-7.242-4.838l-2.592-6.258c-0.795-1.92-2.322-3.446-4.242-4.242l-6.258-2.592		c-2.928-1.214-4.838-4.072-4.838-7.242l-0.001-6.773c0-2.079-0.826-4.072-2.295-5.542l-4.788-4.79		c-2.241-2.242-2.912-5.612-1.699-8.542l2.591-6.258c0.795-1.921,0.795-4.078,0-5.998l-2.591-6.258		c-1.213-2.929-0.542-6.301,1.699-8.542l4.788-4.79c1.469-1.47,2.295-3.463,2.295-5.542l0.001-6.773c0-3.17,1.91-6.028,4.838-7.242		l6.258-2.592c1.92-0.795,3.446-2.322,4.242-4.242l2.592-6.258c1.214-2.928,4.072-4.838,7.242-4.838l6.773-0.001		c2.079,0,4.072-0.826,5.542-2.295l4.79-4.788c2.242-2.241,5.612-2.912,8.542-1.699l6.258,2.591		C254.921,190.529,257.08,190.529,258.999,189.733z"/></g><path style="fill:#FFEB37;" d="M258.095,216.84l10.801-3.496c3.177-1.028,6.63,0.402,8.15,3.376l5.165,10.109	c0.651,1.275,1.688,2.311,2.961,2.961l10.109,5.165c2.974,1.519,4.404,4.973,3.376,8.15l-3.496,10.801	c-0.441,1.361-0.441,2.827,0,4.189l3.496,10.801c1.028,3.177-0.402,6.63-3.376,8.15l-10.109,5.165	c-1.275,0.651-2.311,1.688-2.961,2.961l-5.165,10.109c-1.519,2.974-4.973,4.404-8.15,3.376l-10.801-3.496	c-1.361-0.441-2.827-0.441-4.189,0l-10.801,3.496c-3.177,1.028-6.63-0.402-8.15-3.376l-5.165-10.109	c-0.651-1.275-1.688-2.311-2.961-2.961l-10.109-5.165c-2.974-1.519-4.404-4.973-3.376-8.15l3.496-10.801	c0.441-1.361,0.441-2.827,0-4.189l-3.496-10.801c-1.028-3.177,0.402-6.63,3.376-8.15l10.109-5.165	c1.275-0.651,2.311-1.688,2.961-2.961l5.165-10.109c1.519-2.974,4.973-4.404,8.15-3.376l10.801,3.496	C255.267,217.281,256.733,217.281,258.095,216.84z"/><circle style="fill:#FFBE19;" cx="256.001" cy="256.001" r="26.21"/><g></g><g></g><g></g><g></g><g></g><g></g><g></g><g></g><g></g><g></g><g></g><g></g><g></g><g></g><g></g></svg>