<svg version="1.1" id="Layer_1" xmlns="http://www.w3.org/2000/svg" xmlns:xlink="http://www.w3.org/1999/xlink" x="0px" y="0px"	 viewBox="0 0 512.002 512.002" style="enable-background:new 0 0 512.002 512.002;" xml:space="preserve"><g>	<path style="fill:#FA91C8;" d="M227.097,183.57c-22.794-22.835-28.327-39.025-34.18-56.162		c-5.505-16.108-11.193-32.768-30.894-52.505c-28.8-28.846-58.041-28.86-86.892-0.068c-28.846,28.8-28.873,58.036-0.068,86.892		c19.699,19.732,36.349,25.447,52.451,30.975c17.13,5.884,33.309,11.441,56.109,34.279c3.016,3.017,7.448,3.766,11.164,2.23		c1.206-0.499,2.338-1.242,3.318-2.221l28.984-28.938C231.088,194.055,231.092,187.572,227.097,183.57z"/>	<path style="fill:#FA91C8;" d="M436.941,350.274c-19.699-19.732-36.349-25.447-52.451-30.975		c-17.13-5.884-33.309-11.441-56.109-34.279c-3.994-3.998-10.493-4.012-14.482-0.01l-28.984,28.938		c-4.002,3.997-4.007,10.479-0.01,14.482c22.794,22.835,28.327,39.025,34.18,56.162c5.504,16.108,11.193,32.768,30.894,52.505		c20.406,20.435,41.024,26.403,61.568,17.913c8.461-3.497,16.909-9.444,25.324-17.845		C465.72,408.366,465.745,379.131,436.941,350.274z"/>	<path style="fill:#FA91C8;" d="M226.99,313.899l-28.938-28.984c-3.997-4.002-10.475-4.008-14.482-0.01		c-22.828,22.797-39.015,28.322-56.162,34.18c-16.108,5.504-32.768,11.193-52.505,30.894c-28.845,28.806-28.866,58.039-0.068,86.892		c20.402,20.437,41.018,26.406,61.568,17.913c8.457-3.495,16.909-9.444,25.324-17.845c19.732-19.699,25.447-36.349,30.975-52.451		c5.884-17.13,11.441-33.309,34.279-56.109C230.982,324.384,230.987,317.9,226.99,313.899z"/>	<path style="fill:#FA91C8;" d="M437.167,75.128c-28.791-28.851-58.018-28.881-86.892-0.068		c-19.732,19.699-25.447,36.349-30.975,52.451c-5.884,17.13-11.441,33.309-34.279,56.109c-4.002,3.997-4.007,10.479-0.01,14.482		l28.938,28.984c3.016,3.017,7.448,3.766,11.164,2.23c1.206-0.499,2.333-1.24,3.318-2.221c22.837-22.79,39.042-28.323,56.162-34.18		c16.104-5.503,32.773-11.196,52.505-30.894C465.944,133.215,465.965,103.981,437.167,75.128z"/></g><g>	<path style="fill:#F087C3;" d="M184.35,225.223c-32.271-0.026-47.628-7.563-63.889-15.542		c-15.284-7.501-31.084-15.26-58.966-15.283c-40.797-0.036-61.465,20.629-61.495,61.389c-0.028,40.766,20.625,61.455,61.389,61.494		c27.875,0.02,43.694-7.691,58.998-15.183c16.267-7.95,31.638-15.46,63.907-15.438c1.39-0.001,2.712-0.271,3.918-0.77		c3.715-1.535,6.325-5.195,6.332-9.46l0.034-40.958C194.585,229.816,190.006,225.228,184.35,225.223z"/>	<path style="fill:#F087C3;" d="M450.611,194.718c-27.873-0.026-43.681,7.697-58.998,15.183		c-16.271,7.953-31.631,15.463-63.907,15.438c-5.67,0-10.244,4.575-10.25,10.23l-0.034,40.958		c-0.006,5.656,4.575,10.244,10.23,10.25c32.271,0.026,47.628,7.563,63.889,15.542c15.284,7.501,31.084,15.26,58.966,15.283		c11.894,0.008,22.072-1.742,30.534-5.239c20.549-8.492,30.936-27.278,30.962-56.151		C512.028,215.447,491.375,194.756,450.611,194.718z"/>	<path style="fill:#F087C3;" d="M276.431,317.455l-40.958-0.034c-5.678-0.007-10.242,4.579-10.25,10.23		c-0.026,32.271-7.564,47.624-15.544,63.884c-7.501,15.284-15.253,31.086-15.276,58.969c-0.011,11.127,1.073,27.43,10.552,40.511		c10.079,13.905,27.183,20.967,50.834,20.987c11.894,0.008,22.072-1.742,30.529-5.237c20.545-8.49,30.936-27.278,30.966-56.153		c0.021-27.886-7.711-43.702-15.183-58.998c-7.953-16.271-15.463-31.642-15.438-63.907		C286.665,322.049,282.086,317.461,276.431,317.455z"/>	<path style="fill:#F087C3;" d="M256.214,0c-40.799-0.03-61.448,20.632-61.494,61.389c-0.021,27.886,7.711,43.702,15.183,58.998		c7.953,16.271,15.463,31.642,15.438,63.907c-0.006,5.655,4.575,10.244,10.23,10.25l40.958,0.034c1.39-0.001,2.712-0.271,3.918-0.77		c3.715-1.535,6.325-5.195,6.332-9.46c0.026-32.271,7.563-47.628,15.542-63.889c7.501-15.284,15.26-31.084,15.283-58.966		C317.633,20.723,296.976,0.034,256.214,0z"/></g><g>	<path style="fill:#E66EAF;" d="M256.819,188.776c-10.643-25.698-9.72-40.418-8.742-56c0.918-14.646,1.87-29.793-7.328-52.004		c-13.448-32.466-36.742-42.103-69.207-28.664c-32.466,13.448-42.112,36.733-28.664,69.207		c9.198,22.207,20.581,32.242,31.591,41.949c11.711,10.327,22.772,20.082,33.418,45.784c1.409,3.396,4.694,5.452,8.16,5.452		c1.126,0,2.272-0.22,3.375-0.676l32.62-13.513C256.547,198.444,258.685,193.28,256.819,188.776z"/>	<path style="fill:#E66EAF;" d="M369.121,390.685c-9.198-22.207-20.582-32.242-31.591-41.949		c-11.711-10.327-22.772-20.082-33.418-45.784c-1.866-4.5-7.039-6.651-11.534-4.776l-32.621,13.513		c-4.504,1.866-6.643,7.03-4.776,11.534c10.643,25.698,9.72,40.418,8.742,56c-0.918,14.646-1.87,29.793,7.328,52.004		c9.53,23,23.991,34.543,43.155,34.543c7.892,0,16.582-1.956,26.051-5.879C372.922,446.444,382.568,423.159,369.121,390.685z"/>	<path style="fill:#E66EAF;" d="M213.824,292.577l-13.513-32.621c-1.866-4.504-7.026-6.643-11.534-4.776		c-25.694,10.646-40.409,9.72-56,8.742c-14.646-0.918-29.793-1.87-52.004,7.328c-32.466,13.452-42.108,36.737-28.664,69.207		c9.526,23,23.987,34.543,43.155,34.543c7.887,0,16.582-1.956,26.051-5.879c22.207-9.198,32.242-20.582,41.949-31.591		c10.327-11.711,20.082-22.772,45.784-33.418C213.552,302.246,215.689,297.081,213.824,292.577z"/>	<path style="fill:#E66EAF;" d="M459.893,171.543c-13.44-32.466-36.715-42.112-69.207-28.664		c-22.207,9.198-32.242,20.582-41.949,31.591c-10.327,11.711-20.082,22.772-45.784,33.418c-4.504,1.866-6.643,7.03-4.776,11.534		l13.513,32.621c1.409,3.396,4.694,5.452,8.16,5.452c1.126,0,2.268-0.22,3.375-0.676c25.698-10.638,40.431-9.711,56-8.742		c14.643,0.918,29.798,1.87,52.004-7.328C463.694,227.297,473.336,204.013,459.893,171.543z"/></g><g>	<path style="fill:#C859A0;" d="M209.048,207.887c-25.703-10.646-35.457-21.707-45.784-33.418		c-9.707-11.009-19.742-22.392-41.949-31.591c-32.491-13.461-55.763-3.801-69.207,28.664c-13.444,32.47-3.801,55.754,28.664,69.207		c22.202,9.194,37.345,8.258,52.004,7.328c15.577-0.979,30.297-1.901,56,8.742c1.108,0.457,2.25,0.676,3.375,0.676		c3.466,0,6.75-2.056,8.16-5.452l13.513-32.621C215.689,214.918,213.552,209.755,209.048,207.887z"/>	<path style="fill:#C859A0;" d="M431.228,271.25c-22.198-9.198-37.336-8.25-52.004-7.328c-15.582,0.979-30.293,1.906-56-8.742		c-4.517-1.866-9.668,0.271-11.534,4.776l-13.513,32.621c-1.866,4.504,0.271,9.668,4.776,11.534		c25.703,10.646,35.457,21.707,45.784,33.418c9.707,11.009,19.742,22.392,41.949,31.591c9.474,3.923,18.159,5.879,26.051,5.879		c19.168,0,33.63-11.548,43.155-34.543C473.336,307.987,463.694,284.703,431.228,271.25z"/>	<path style="fill:#C859A0;" d="M252.043,311.69l-32.62-13.513c-4.522-1.875-9.668,0.276-11.534,4.776		c-10.646,25.703-21.707,35.453-33.418,45.78c-11.009,9.707-22.388,19.746-31.586,41.953c-3.672,8.862-8.177,22.207-4.931,35.75		c3.453,14.397,14.754,25.655,33.59,33.457c9.474,3.923,18.159,5.879,26.047,5.879c19.164,0,33.63-11.548,43.159-34.543		c9.198-22.211,8.246-37.357,7.328-52.004c-0.979-15.582-1.901-30.302,8.742-56C258.685,318.72,256.547,313.556,252.043,311.69z"/>	<path style="fill:#C859A0;" d="M340.456,52.108c-32.495-13.457-55.75-3.794-69.207,28.664c-9.198,22.211-8.246,37.357-7.328,52.004		c0.979,15.582,1.901,30.302-8.742,56c-1.866,4.504,0.271,9.668,4.776,11.534l32.621,13.513c1.108,0.457,2.25,0.676,3.375,0.676		c3.466,0,6.75-2.056,8.16-5.452c10.646-25.703,21.707-35.457,33.418-45.784c11.009-9.707,22.392-19.742,31.591-41.949		C382.568,88.841,372.922,65.556,340.456,52.108z"/></g><circle style="fill:#B54987;" cx="256.001" cy="256" r="44.126"/><path style="fill:#FFC850;" d="M256.09,322.521c-26.116,0-50.944-15.474-61.547-41.065c-14.035-33.888,2.116-72.875,36-86.914	c33.888-14.026,72.871,2.116,86.914,36c0,0,0,0,0,0.004c14.035,33.884-2.116,72.871-36,86.91	C273.159,320.892,264.556,322.521,256.09,322.521z M255.938,211.861c-5.617,0-11.324,1.079-16.831,3.36	c-22.481,9.313-33.196,35.187-23.887,57.673c9.309,22.472,35.154,33.196,57.673,23.887c22.481-9.313,33.196-35.187,23.887-57.673	C289.747,222.134,273.268,211.861,255.938,211.861z"/><path style="fill:#A53C73;" d="M241.715,272.886c-9.326-22.515,1.365-48.328,23.881-57.654c1.209-0.501,2.453-0.719,3.678-1.106	c-9.569-3.039-20.159-3.037-30.161,1.106c-22.515,9.326-33.207,35.139-23.881,57.654c8.825,21.306,32.388,31.8,53.976,24.988	C257.236,294.071,246.898,285.399,241.715,272.886z"/><g></g><g></g><g></g><g></g><g></g><g></g><g></g><g></g><g></g><g></g><g></g><g></g><g></g><g></g><g></g></svg>