<svg id="Capa_1" enable-background="new 0 0 512 512" height="512" viewBox="0 0 512 512" width="512" xmlns="http://www.w3.org/2000/svg"><g><g><path d="m485.644 241.466c-.027 141.681-106.499 256.536-237.872 256.536s-237.9-114.855-237.873-256.536c.025-132.578 475.77-132.586 475.745 0z" fill="#a07575"/><path d="m222.935 142.52c87.303 3.84 168.253 30.239 168.243 79.202-.022 113.548-85.352 205.598-190.64 205.598-101.163 0-183.927-84.984-190.238-192.361-.26 2.133-.401 4.301-.402 6.508-.026 141.68 106.5 256.535 237.873 256.535s237.845-114.855 237.872-256.536c.014-70.918-136.091-103.896-262.708-98.946z" fill="#925873"/><ellipse cx="247.771" cy="222.341" fill="#fff" rx="225.867" ry="75.846"/><ellipse cx="268.812" cy="232.625" fill="#e1bdfc" rx="137.985" ry="32.076"/><path d="m99.876 6.597 8.385 23.576c.359 1.009 1.07 1.809 1.966 2.213l20.946 9.437c2.959 1.333 2.959 6.048 0 7.381l-20.946 9.437c-.897.404-1.607 1.204-1.966 2.213l-8.385 23.576c-1.185 3.331-5.374 3.331-6.558 0l-8.385-23.576c-.359-1.01-1.07-1.809-1.966-2.213l-20.946-9.437c-2.959-1.333-2.959-6.048 0-7.381l20.946-9.437c.897-.404 1.607-1.204 1.966-2.213l8.385-23.576c1.185-3.331 5.374-3.331 6.558 0z" fill="#c3b3ec"/><path d="m448.803 65.852 6.219 17.488c.266.749.793 1.342 1.459 1.642l15.538 7c2.195.989 2.195 4.486 0 5.475l-15.538 7c-.665.3-1.192.893-1.459 1.642l-6.219 17.488c-.879 2.471-3.986 2.471-4.865 0l-6.219-17.488c-.266-.749-.794-1.342-1.459-1.642l-15.538-7c-2.195-.989-2.195-4.486 0-5.475l15.538-7c.665-.3 1.193-.893 1.459-1.642l6.219-17.488c.879-2.47 3.987-2.47 4.865 0z" fill="#c3b3ec"/><ellipse cx="200.5" cy="85.654" fill="#9882de" rx="14.062" ry="14.062" transform="matrix(.099 -.995 .995 .099 95.506 276.738)"/></g><g><g fill="#3c122c"><path d="m247.772 270.64c-49.114 0-95.352-4.461-130.197-12.561-38.464-8.941-57.968-20.965-57.968-35.738s19.503-26.797 57.968-35.738c34.845-8.1 81.084-12.561 130.197-12.561s95.351 4.461 130.198 12.561c38.464 8.941 57.967 20.965 57.967 35.738s-19.502 26.797-57.967 35.738c-34.847 8.1-81.085 12.561-130.198 12.561zm0-84.719c-48.235 0-93.519 4.351-127.508 12.253-38.505 8.951-48.778 19.402-48.778 24.167s10.273 15.217 48.778 24.167c33.99 7.901 79.273 12.253 127.508 12.253s93.518-4.351 127.508-12.253c38.504-8.951 48.777-19.402 48.777-24.167s-10.273-15.216-48.777-24.167c-33.991-7.902-79.273-12.253-127.508-12.253z"/><path d="m306.451 447.682c-8.335 0-15.943-3.689-19.903-10.545-6.372-11.037-.909-26.163 12.178-33.718 13.086-7.554 28.916-4.724 35.29 6.313v.001c6.372 11.036.909 26.162-12.178 33.717-4.955 2.86-10.307 4.232-15.387 4.232zm7.739-36.63c-3.07 0-6.427.866-9.524 2.654-7.288 4.208-10.874 12.218-7.829 17.491 3.044 5.273 11.773 6.173 19.063 1.965 7.288-4.208 10.874-12.218 7.829-17.491v.001c-1.752-3.034-5.384-4.62-9.539-4.62z"/><path d="m369.486 399.874c-5.859 0-11.124-2.083-15.045-6.004-4.544-4.545-6.621-10.897-5.844-17.888.721-6.495 3.876-12.829 8.88-17.833 10.683-10.684 26.707-12.048 35.72-3.036h.001c9.011 9.012 7.649 25.036-3.037 35.721-5.004 5.004-11.337 8.158-17.832 8.88-.961.107-1.909.16-2.843.16zm8.638-38.866c-4.028 0-8.637 1.931-12.246 5.542-3.06 3.06-5.055 6.976-5.473 10.745-.37 3.331.495 6.234 2.437 8.176 1.941 1.942 4.846 2.808 8.177 2.438 3.769-.419 7.685-2.414 10.744-5.473 5.951-5.951 7.342-14.615 3.037-18.921-1.695-1.695-4.064-2.507-6.676-2.507z"/><path d="m116.71 362.128c-3.28 0-5.939-2.659-5.939-5.94v-14.997c0-3.28 2.659-5.939 5.939-5.939s5.939 2.659 5.939 5.939v14.997c0 3.281-2.659 5.94-5.939 5.94z"/><path d="m194.816 377.625c-3.28 0-5.939-2.659-5.939-5.94v-14.997c0-3.28 2.659-5.94 5.939-5.94s5.939 2.659 5.939 5.94v14.997c.001 3.281-2.659 5.94-5.939 5.94z"/><path d="m156.383 410.479c-3.28 0-5.94-2.659-5.94-5.939v-14.998c0-3.28 2.659-5.939 5.94-5.939 3.28 0 5.939 2.659 5.939 5.939v14.998c0 3.28-2.659 5.939-5.939 5.939z"/><path d="m506.448 334.779-22.866-11.185c7.86-26.188 11.955-53.819 11.961-82.126.005-26.793-16.674-50.591-48.233-68.821-43.918-25.367-118.493-40.514-199.487-40.517-.01 0-.017 0-.027 0-80.979 0-155.557 15.138-199.497 40.495-31.592 18.232-48.294 42.037-48.299 68.84-.014 71.025 25.663 137.838 72.301 188.131 46.826 50.497 109.143 78.306 175.47 78.306 66.321 0 128.63-27.81 175.449-78.306 10.853-11.706 20.556-24.317 29.081-37.659l12.518 9.875c1.816 1.433 3.977 2.128 6.124 2.128 2.926 0 5.825-1.292 7.778-3.768 3.386-4.293 2.652-10.517-1.641-13.903l-14.654-11.561c5.595-10.386 10.521-21.141 14.736-32.213l20.586 10.07c1.4.685 2.882 1.009 4.341 1.009 3.662 0 7.183-2.041 8.9-5.552 2.404-4.912.371-10.841-4.541-13.243zm-38.749-112.438c0 17.251-22.637 34.747-62.106 48.001-42.067 14.126-98.116 21.906-157.821 21.906-59.706 0-115.755-7.78-157.822-21.906-39.47-13.254-62.106-30.75-62.106-48.001 0-3.1.743-6.208 2.172-9.298 6.408-8.354 15.809-16.13 28.18-23.27 23.08-13.319 55.574-23.62 93.396-30.089 29.629-4.744 62.315-7.25 96.18-7.25 34.063 0 66.931 2.536 96.697 7.335 37.634 6.477 69.963 16.752 92.938 30.023 12.33 7.122 21.705 14.878 28.102 23.208 1.441 3.104 2.19 6.226 2.19 9.341zm-21.192 139.807-12.067-9.52c-4.292-3.385-10.517-2.652-13.902 1.641-3.386 4.293-2.652 10.517 1.641 13.903l14.394 11.355c-41.035 65.47-110.356 108.576-188.8 108.576-60.755 0-117.916-25.559-160.953-71.97-43.231-46.62-67.033-108.651-67.02-174.665 0-1.174.05-2.338.142-3.496 8.688 16.82 31.447 31.951 66.228 43.63 43.254 14.525 100.646 22.524 161.603 22.524s118.349-7.999 161.603-22.524c34.782-11.68 57.542-26.812 66.229-43.633.092 1.157.141 2.322.141 3.495-.005 25.501-3.605 50.112-10.28 73.268l-7.805-3.818c-4.913-2.404-10.84-.368-13.242 4.543-2.401 4.911-.368 10.84 4.544 13.242l10.218 4.998c-3.674 9.812-7.913 19.31-12.674 28.451z"/></g><path d="m80.711 358.054c-2.534 0-5.067-.967-7.001-2.901-5.541-5.544-10.681-11.814-15.712-19.17-3.087-4.513-1.931-10.673 2.582-13.759 4.514-3.087 10.672-1.93 13.759 2.582 4.332 6.334 8.706 11.682 13.373 16.35 3.865 3.866 3.864 10.135-.003 14-1.933 1.932-4.466 2.898-6.998 2.898z" fill="#fff"/><path d="m50.1 311.619c-3.753 0-7.341-2.145-9.006-5.78-1.661-3.627-2.872-6.475-3.928-9.233-1.954-5.107.602-10.83 5.708-12.783 5.107-1.954 10.83.602 12.783 5.708.899 2.35 1.958 4.837 3.437 8.065 2.277 4.971.092 10.846-4.879 13.122-1.335.612-2.736.901-4.115.901z" fill="#fff"/></g></g></svg>