<svg id="Capa_1" enable-background="new 0 0 512 512" height="512" viewBox="0 0 512 512" width="512" xmlns="http://www.w3.org/2000/svg"><g><g><path d="m299.81 111.275 10.071-68.482-34.822 18.135-23.294-50.921-25.933 51.236-32.8-18.45 11.299 68.322c-132.949 16.521-149.674 106.209-149.674 204.327 0 108.689 118.899 186.549 196.799 186.549s196.799-77.86 196.799-186.549c.001-97.813-16.627-187.245-148.445-204.167z" fill="#e8c2d8"/><path d="m302.64 111.668c86.946 22.1 98.67 91.426 98.67 166.664 0 91.33-99.91 156.755-165.368 156.755s-165.368-65.425-165.368-156.755c0-43.923 3.992-85.835 24.612-117.512-34.383 38.859-40.529 95.191-40.529 154.622 0 108.689 118.899 186.549 196.799 186.549s196.799-77.86 196.799-186.549c.001-97.103-16.408-185.934-145.615-203.774z" fill="#d392d8"/><path d="m295.228 145.497s-37.207-4.961-43.407 1.851c-12.395 13.618-2.32 227.482-.854 300.133.268 13.298 12.573 23.168 25.576 20.365 62.089-13.386 137.749-72.634 137.749-151.5-.001-80.932-11.163-153.485-119.064-170.849z" fill="#efc5b4"/><path d="m386.386 299.907c0-10.797-5.023-20.416-12.853-26.665 7.83-6.249 12.853-15.868 12.853-26.665 0-18.837-15.27-34.107-34.107-34.107-4.384 0-8.571.836-12.421 2.343-.404-18.485-15.505-33.349-34.087-33.349-18.837 0-34.107 15.27-34.107 34.107 0 11.673 5.867 21.971 14.81 28.12-9.636 6.027-16.05 16.728-16.05 28.931 0 12.346 6.56 23.159 16.385 29.146-9.824 5.986-16.385 16.799-16.385 29.146 0 11.54 5.737 21.734 14.508 27.905-8.771 6.172-14.508 16.366-14.508 27.906 0 18.836 15.27 34.106 34.107 34.106 18.836 0 34.106-15.27 34.106-34.106 0-.006 0-.012 0-.018 3.499 1.212 7.252 1.879 11.163 1.879 18.837 0 34.107-15.27 34.107-34.107 0-10.618-4.853-20.102-12.461-26.357 9.016-6.139 14.94-16.484 14.94-28.215z" fill="#da95b3"/><path d="m51.123 9.348 8.788 24.709c.376 1.058 1.121 1.896 2.061 2.32l21.953 9.891c3.102 1.397 3.102 6.339 0 7.736l-21.953 9.891c-.94.424-1.685 1.262-2.061 2.32l-8.788 24.709c-1.241 3.491-5.632 3.491-6.873 0l-8.787-24.709c-.376-1.058-1.121-1.896-2.061-2.32l-21.953-9.891c-3.101-1.397-3.101-6.339 0-7.736l21.953-9.891c.94-.424 1.685-1.262 2.061-2.32l8.787-24.709c1.241-3.49 5.631-3.49 6.873 0z" fill="#e9c3d9"/><path d="m476.821 82.675 6.519 18.329c.279.785.832 1.407 1.529 1.721l16.284 7.337c2.301 1.036 2.301 4.702 0 5.739l-16.284 7.337c-.697.314-1.25.936-1.529 1.721l-6.519 18.329c-.921 2.59-4.177 2.59-5.098 0l-6.518-18.329c-.279-.785-.832-1.407-1.529-1.721l-16.284-7.337c-2.301-1.036-2.301-4.702 0-5.739l16.284-7.337c.697-.314 1.25-.936 1.529-1.721l6.518-18.329c.921-2.59 4.178-2.59 5.098 0z" fill="#e9c3d9"/><circle cx="392.105" cy="52.939" fill="#d88aba" r="8.277"/></g><g><g fill="#3c122c"><path d="m251.457 512c-42.281 0-93.641-21.018-134.038-54.852-46.926-39.303-72.769-89.628-72.769-141.706 0-45.127 3.122-96.775 26.279-137.692 23.296-41.162 63.22-65.795 121.857-75.11l-9.628-58.214c-.628-3.799.978-7.62 4.132-9.829 3.153-2.209 7.293-2.416 10.649-.527l23.686 13.324 21.211-41.907c1.736-3.431 5.28-5.544 9.128-5.487 3.844.076 7.304 2.347 8.903 5.843l18.912 41.343 25.48-13.27c3.335-1.737 7.361-1.458 10.425.721 3.064 2.18 4.647 5.892 4.1 9.611l-8.612 58.564c58.241 9.471 97.888 34.167 121.017 75.307 22.978 40.868 26.076 92.35 26.076 137.322 0 52.078-25.844 102.404-72.769 141.706-40.398 33.835-91.759 54.853-134.039 54.853zm-45.147-450.255 7.895 47.737c.444 2.688-.226 5.441-1.857 7.623-1.631 2.183-4.08 3.606-6.784 3.942-117.328 14.579-140.899 85.19-140.899 194.395 0 46.052 23.299 90.928 65.605 126.361 36.957 30.953 83.392 50.181 121.186 50.181 37.793 0 84.229-19.228 121.186-50.181 42.306-35.432 65.605-80.308 65.605-126.361 0-108.845-23.372-179.305-139.711-194.24-2.664-.342-5.079-1.741-6.702-3.882-1.622-2.14-2.316-4.844-1.925-7.501l7.221-49.101-17.448 9.087c-2.433 1.267-5.279 1.481-7.874.589-2.594-.891-4.71-2.808-5.85-5.302l-14.649-32.022-16.548 32.694c-1.233 2.437-3.408 4.263-6.021 5.057-2.614.794-5.436.484-7.816-.853z"/><path d="m272.097 474.326c-6.026 0-11.922-2.022-16.767-5.853-6.423-5.079-10.202-12.686-10.367-20.87-.298-14.774-.949-35.301-1.704-59.067-1.468-46.25-3.296-103.81-3.523-151.237-.376-78.566 3.749-89.712 7.645-93.993 2.847-3.127 8.488-6.219 28.701-5.437 10.241.395 19.55 1.625 19.941 1.677l.16.023c51.341 8.262 85.469 29.419 104.335 64.681 17.383 32.49 19.779 73.076 19.779 112.095 0 47.766-25.764 83.234-47.376 104.578-26.19 25.863-61.746 45.599-95.112 52.792-1.898.409-3.812.611-5.712.611zm-15.8-322.914c-1.607 3.024-4.951 17.771-4.539 88.154.274 46.817 2.065 103.246 3.505 148.588.756 23.805 1.409 44.363 1.708 59.206.093 4.584 2.21 8.845 5.809 11.691 3.548 2.806 8.101 3.872 12.497 2.924 63.968-13.791 133.01-73.39 133.01-145.63 0-37.456-2.224-76.273-18.359-106.429-16.968-31.715-48.229-50.843-95.573-58.477-16.888-2.24-34.41-2.239-38.058-.027z"/><path d="m304.53 426.835c-22.118 0-40.112-17.994-40.112-40.112 0-10.491 4.131-20.486 11.314-27.906-7.182-7.419-11.314-17.414-11.314-27.905 0-11.241 4.57-21.657 12.528-29.145-7.958-7.49-12.528-17.906-12.528-29.146 0-11.212 4.582-21.65 12.545-29.146-7.18-7.414-11.304-17.391-11.304-27.905 0-22.118 17.994-40.112 40.112-40.112 19.052 0 35.274 13.646 39.197 31.675 2.401-.446 4.844-.67 7.312-.67 22.118 0 40.112 17.994 40.112 40.112 0 9.962-3.634 19.373-10.148 26.664 6.514 7.291 10.148 16.702 10.148 26.665 0 10.864-4.391 21.137-12.005 28.616 6.117 7.191 9.524 16.336 9.524 25.954 0 22.118-17.994 40.112-40.112 40.112-1.964 0-3.918-.144-5.849-.428-3.497 18.58-19.843 32.677-39.42 32.677zm1.24-239.366c-15.495 0-28.102 12.607-28.102 28.102 0 9.254 4.563 17.916 12.207 23.171 1.667 1.146 2.645 3.056 2.601 5.078-.044 2.023-1.104 3.888-2.82 4.961-8.284 5.181-13.229 14.093-13.229 23.84 0 9.886 5.049 18.865 13.505 24.019 1.789 1.09 2.88 3.033 2.88 5.127 0 2.095-1.092 4.038-2.88 5.128-8.456 5.153-13.505 14.131-13.505 24.017 0 9.13 4.471 17.725 11.958 22.993 1.598 1.125 2.549 2.956 2.549 4.911 0 1.954-.951 3.786-2.549 4.911-7.488 5.269-11.958 13.865-11.958 22.995 0 15.495 12.607 28.102 28.102 28.102 15.477 0 28.072-12.578 28.101-28.049 0-.023 0-.047 0-.07 0-1.942.94-3.765 2.522-4.892s3.611-1.418 5.447-.783c2.968 1.027 6.064 1.548 9.199 1.548 15.495 0 28.102-12.607 28.102-28.102 0-8.436-3.743-16.352-10.27-21.718-1.461-1.201-2.271-3.021-2.185-4.91.085-1.889 1.056-3.628 2.62-4.692 7.711-5.248 12.315-13.94 12.315-23.25 0-8.59-3.862-16.599-10.594-21.972-1.428-1.14-2.259-2.867-2.259-4.693 0-1.827.831-3.554 2.259-4.693 6.733-5.374 10.594-13.382 10.594-21.971 0-15.495-12.607-28.102-28.102-28.102-3.517 0-6.96.65-10.234 1.93-1.826.716-3.887.494-5.519-.595-1.632-1.088-2.63-2.904-2.673-4.865-.329-15.151-12.927-27.476-28.082-27.476z"/><path d="m327.552 266.513c-3.455 0-6.256-2.801-6.256-6.256v-12.617c0-3.455 2.801-6.256 6.256-6.256s6.256 2.801 6.256 6.256v12.617c0 3.455-2.801 6.256-6.256 6.256z"/><path d="m314.185 337.108c-3.455 0-6.256-2.801-6.256-6.256v-12.617c0-3.455 2.801-6.256 6.256-6.256s6.256 2.801 6.256 6.256v12.617c0 3.455-2.801 6.256-6.256 6.256z"/><path d="m347.603 304.943c-3.455 0-6.256-2.801-6.256-6.256v-12.616c0-3.455 2.801-6.256 6.256-6.256s6.256 2.801 6.256 6.256v12.616c0 3.455-2.801 6.256-6.256 6.256z"/></g><path d="m110.656 318.804c-5.759 0-10.427-4.668-10.427-10.426-.001-32.532.914-67.095 11.857-100.571 1.789-5.472 7.676-8.459 13.15-6.671 5.473 1.79 8.46 7.677 6.671 13.15-9.991 30.562-10.826 63.24-10.825 94.091.001 5.759-4.667 10.427-10.426 10.427z" fill="#fff"/><path d="m140.668 187.814c-2.429 0-4.869-.844-6.844-2.565-4.342-3.783-4.795-10.369-1.013-14.71l1.159-1.341c4.853-5.629 10.893-12.633 20.487-15.244 5.559-1.51 11.287 1.768 12.799 7.323 1.512 5.556-1.767 11.287-7.323 12.799-3.44.936-6.708 4.727-10.168 8.74l-1.23 1.42c-2.062 2.367-4.958 3.578-7.867 3.578z" fill="#fff"/></g></g></svg>