<svg id="Capa_1" enable-background="new 0 0 512 512" height="512" viewBox="0 0 512 512" width="512" xmlns="http://www.w3.org/2000/svg"><g><g><path d="m184.866 168.798h-3.135c-11.819 0-21.401-9.581-21.401-21.401v-114.695c0-11.819 9.581-21.401 21.401-21.401h3.135c11.819 0 21.401 9.581 21.401 21.401v114.695c-.001 11.819-9.582 21.401-21.401 21.401z" fill="#c49a8b"/><ellipse cx="183.298" cy="301.113" fill="#9781dd" rx="173.249" ry="200.378"/><path d="m274.418 130.673c-26.473-18.973-57.687-29.936-91.12-29.936-8.08 0-16.025.654-23.811 1.892.507.094 1.014.191 1.519.292 35.724 7.125 66.971 42.143 40.848 67.531-35.059 34.073-68.428 91.831-68.428 144.583 0 27.837 25.385 82.776 4.415 99.332-20.97 16.555-47.436-5.506-47.458-5.518-30.903-17.659-68.859-64.231-78.697-135.273-1.07 9.004-1.636 18.194-1.636 27.539 0 110.665 77.567 200.377 173.25 200.377 21.708 0 42.478-4.631 61.627-13.064 65.254-28.735 111.623-101.756 111.623-187.314-.002-71.999-32.84-135.116-82.132-170.441z" fill="#8962de"/><circle cx="341.801" cy="341.812" fill="#d789b9" r="159.753"/><ellipse cx="341.801" cy="341.812" fill="#fff" rx="127.917" ry="127.917" transform="matrix(.707 -.707 .707 .707 -141.586 341.805)"/><ellipse cx="339.54" cy="341.529" fill="#f6e06e" rx="100.882" ry="100.882" transform="matrix(.707 -.707 .707 .707 -142.049 340.123)"/><path d="m469.719 341.811c0-41.756-20.011-78.835-50.962-102.182 18.858 22.51 30.217 51.515 30.217 83.177 0 71.579-58.027 129.605-129.606 129.605-23.958 0-46.393-6.508-65.647-17.842 22.938 21.788 53.947 35.159 88.081 35.159 70.646.001 127.917-57.269 127.917-127.917z" fill="#e1bdfc"/><path d="m341.802 182.059c-88.229 0-159.753 71.523-159.753 159.752 0 88.23 71.524 159.753 159.753 159.753s159.753-71.523 159.753-159.753c-.001-88.228-71.525-159.752-159.753-159.752zm0 287.67c-34.134 0-65.143-13.372-88.081-35.159-38.271-22.527-63.959-64.143-63.959-111.764 0-71.579 58.027-129.607 129.606-129.607 39.917 0 75.614 18.052 99.389 46.43 30.951 23.347 50.962 60.427 50.962 102.182 0 70.648-57.271 127.918-127.917 127.918z" fill="#c668b9"/><path d="m492.005 64.155c0 4.294-3.481 7.775-7.775 7.775s-7.775-3.481-7.775-7.775 3.481-7.775 7.775-7.775 7.775 3.481 7.775 7.775z" fill="#9882de"/><path d="m329.987 2.846 8.255 23.21c.353.994 1.053 1.781 1.936 2.179l20.622 9.291c2.913 1.312 2.913 5.954 0 7.267l-20.622 9.291c-.883.398-1.583 1.185-1.936 2.179l-8.255 23.21c-1.166 3.279-5.29 3.279-6.456 0l-8.255-23.21c-.353-.994-1.053-1.781-1.936-2.179l-20.621-9.291c-2.913-1.313-2.913-5.954 0-7.267l20.621-9.291c.883-.398 1.583-1.185 1.936-2.179l8.255-23.21c1.166-3.279 5.29-3.279 6.456 0z" fill="#c3b3ec"/><path d="m487.523 120.258 6.123 17.217c.262.737.781 1.321 1.436 1.616l15.297 6.892c2.161.974 2.161 4.417 0 5.391l-15.297 6.892c-.655.295-1.174.879-1.436 1.616l-6.123 17.217c-.865 2.432-3.924 2.432-4.789 0l-6.123-17.217c-.262-.737-.781-1.321-1.436-1.616l-15.297-6.892c-2.161-.974-2.161-4.417 0-5.391l15.297-6.892c.655-.295 1.174-.879 1.436-1.616l6.123-17.217c.865-2.433 3.924-2.433 4.789 0z" fill="#c3b3ec"/><path d="m404.195 122.346c0 7.646-6.198 13.843-13.844 13.843s-13.844-6.198-13.844-13.843c0-7.646 6.198-13.844 13.844-13.844s13.844 6.198 13.844 13.844z" fill="#9882de"/></g><g><g fill="#3c122c"><path d="m341.801 172.011c-4.498 0-8.955.18-13.367.525-4.621-6.856-9.627-13.434-15.029-19.683-26.779-30.973-60.453-51.181-97.09-58.776v-61.27c0-17.399-14.155-31.554-31.554-31.554h-2.926c-17.399 0-31.554 14.155-31.554 31.554v61.27c-36.637 7.595-70.311 27.803-97.09 58.776-34.3 39.671-53.191 92.325-53.191 148.261s18.891 108.588 53.191 148.261c34.661 40.087 80.867 62.166 130.107 62.166 27.566 0 54.168-6.951 78.338-20.078 23.891 12.85 51.19 20.152 80.165 20.152 93.629 0 169.802-76.173 169.802-169.802 0-93.63-76.173-169.802-169.802-169.802zm-171.422-139.204c0-6.317 5.139-11.456 11.456-11.456h2.926c6.317 0 11.456 5.139 11.456 11.456v58.4c-4.28-.339-8.587-.519-12.919-.519s-8.64.181-12.919.519zm12.919 458.635c-89.989 0-163.201-85.381-163.201-190.328s73.211-190.329 163.201-190.329c48.877 0 92.795 25.198 122.73 65.029-76.507 16.472-134.028 84.638-134.028 165.997 0 56.204 27.455 106.109 69.65 137.031-18.129 8.126-37.798 12.6-58.352 12.6zm158.503.074c-82.547 0-149.703-67.158-149.703-149.704 0-82.547 67.157-149.703 149.703-149.703s149.704 67.156 149.704 149.703c0 82.546-67.157 149.704-149.704 149.704z"/><path d="m341.801 475.758c-73.858 0-133.946-60.088-133.946-133.947 0-73.858 60.088-133.946 133.946-133.946 73.859 0 133.947 60.088 133.947 133.946 0 73.859-60.088 133.947-133.947 133.947zm0-255.834c-67.208 0-121.887 54.679-121.887 121.887 0 67.21 54.679 121.888 121.887 121.888 67.21 0 121.888-54.679 121.888-121.888.001-67.208-54.678-121.887-121.888-121.887z"/><path d="m341.801 448.724c-58.951 0-106.911-47.961-106.911-106.912s47.961-106.911 106.911-106.911 106.911 47.961 106.911 106.911c0 58.951-47.96 106.912-106.911 106.912zm0-201.765c-52.302 0-94.853 42.55-94.853 94.853s42.551 94.854 94.853 94.854 94.853-42.552 94.853-94.854-42.551-94.853-94.853-94.853z"/><path d="m303.139 320.108c-3.469 0-6.282-2.812-6.282-6.281v-12.667c0-3.469 2.812-6.281 6.282-6.281 3.469 0 6.281 2.812 6.281 6.281v12.667c0 3.469-2.812 6.281-6.281 6.281z"/><path d="m345.827 292.687c-3.469 0-6.281-2.812-6.281-6.281v-12.667c0-3.469 2.812-6.281 6.281-6.281s6.281 2.812 6.281 6.281v12.667c0 3.468-2.812 6.281-6.281 6.281z"/><path d="m373.813 335.091c-3.469 0-6.282-2.812-6.282-6.282v-12.667c0-3.469 2.812-6.281 6.282-6.281 3.469 0 6.282 2.812 6.282 6.281v12.667c0 3.47-2.813 6.282-6.282 6.282z"/><path d="m406.889 369.015c-3.469 0-6.282-2.812-6.282-6.282v-12.667c0-3.469 2.812-6.281 6.282-6.281 3.469 0 6.281 2.812 6.281 6.281v12.667c.001 3.469-2.812 6.282-6.281 6.282z"/><path d="m338.194 373.821c-3.469 0-6.281-2.812-6.281-6.282v-12.667c0-3.469 2.812-6.281 6.281-6.281s6.281 2.812 6.281 6.281v12.667c0 3.469-2.812 6.282-6.281 6.282z"/><path d="m287.025 384.846c-3.469 0-6.281-2.812-6.281-6.282v-12.667c0-3.469 2.812-6.282 6.281-6.282s6.282 2.812 6.282 6.282v12.667c0 3.469-2.813 6.282-6.282 6.282z"/><path d="m366.18 415.094c-3.469 0-6.281-2.812-6.281-6.281v-12.667c0-3.469 2.812-6.281 6.281-6.281s6.281 2.812 6.281 6.281v12.667c.001 3.469-2.812 6.281-6.281 6.281z"/></g><path d="m131.657 176.5c-3.162 0-6.275-1.489-8.23-4.272-3.191-4.541-2.097-10.808 2.443-14 8.515-5.984 17.598-10.643 26.997-13.848 5.251-1.788 10.963 1.015 12.754 6.268 1.791 5.252-1.015 10.962-6.268 12.754-7.594 2.59-14.972 6.382-21.928 11.27-1.757 1.234-3.772 1.828-5.768 1.828z" fill="#fff"/><path d="m60.972 299.499c-.432 0-.868-.027-1.308-.084-5.503-.716-9.385-5.758-8.67-11.261 4.625-35.57 24.782-80.339 45.889-101.92 3.88-3.967 10.242-4.038 14.211-.158 3.968 3.881 4.038 10.243.158 14.211-18.166 18.574-36.257 59.154-40.327 90.458-.659 5.064-4.979 8.754-9.953 8.754z" fill="#fff"/></g></g></svg>