<svg id="Capa_1" enable-background="new 0 0 512 512" height="512" viewBox="0 0 512 512" width="512" xmlns="http://www.w3.org/2000/svg"><g><g><path d="m354.923 192.78c-10.8-14.303-21.922-25.059-30.929-32.595 3.246-35.151 3.305-84.295 3.019-85.482l-51.526 5.153s7.811 57.509.832 94.363c-9.249 48.833-35.92 91.5-79.272 126.812-9.701 7.903-11.16 22.173-3.258 31.875 4.479 5.498 11.001 8.348 17.58 8.348 5.029 0 10.091-1.667 14.295-5.091 50.498-41.135 75.524-86.724 87.76-124.551 2.913 3.308 5.874 6.938 8.804 10.902 24.981 33.806 36.123 74.877 33.114 122.07-.673 10.561 7.342 19.668 17.903 20.341 5.986.382 11.503-2.027 15.284-6.109 2.89-3.12 12.003-7.283 12.294-11.86 4.548-71.353-24.317-125.596-45.9-154.176z" fill="#c49a8b"/><path d="m471.278 96.601h-326.752c-16.929 0-30.653-13.724-30.653-30.653v-.425c0-16.929 13.724-30.653 30.653-30.653h326.752c16.929 0 30.652 13.724 30.652 30.653v.425c.001 16.93-13.723 30.653-30.652 30.653z" fill="#a07575"/><path d="m471.066 34.871h-44.002c8.611 0 15.591 6.982 15.591 15.593 0 8.612-6.981 15.593-15.593 15.593h-297.596c-6.371 0-11.842-3.826-14.261-9.302-.864 2.843-1.332 5.857-1.332 8.982 0 17.047 13.819 30.865 30.865 30.865h326.327c17.046 0 30.865-13.818 30.865-30.865.001-17.047-13.818-30.866-30.864-30.866z" fill="#925873"/><ellipse cx="154.455" cy="363.798" fill="#ccf3e2" rx="101.775" ry="85.284" transform="matrix(.707 -.707 .707 .707 -212.005 215.77)"/><path d="m226.421 291.832c-23.746-23.745-60.662-27.891-94.304-13.919 20.44-6.264 41.792-2.654 56.017 11.57 22.084 22.085 18.622 61.351-7.732 87.705s-65.621 29.816-87.705 7.732c-21.297-21.296-18.828-58.568 5.009-84.834-1.2 1.108-2.387 2.24-3.555 3.407-39.746 39.745-44.966 98.965-11.661 132.271 33.305 33.305 92.525 28.084 132.27-11.661 39.746-39.746 44.967-98.966 11.661-132.271z" fill="#b1b6e1"/><ellipse cx="387.102" cy="375.625" fill="#a1e8c3" rx="85.284" ry="101.775" transform="matrix(.991 -.135 .135 .991 -47.244 55.803)"/><path d="m471.602 364.092c-7.602-55.693-51.596-95.677-98.264-89.307-4.802.656-9.442 1.784-13.9 3.328 28.66.405 54.283 26.029 59.014 60.69 5.13 37.584-16.242 71.535-47.735 75.834s-61.183-22.683-66.312-60.267c-.31-2.27-.518-4.526-.639-6.764-2.523 12.476-3.034 25.852-1.164 39.554 7.602 55.692 51.596 95.676 98.264 89.306 46.669-6.37 78.338-56.682 70.736-112.374z" fill="#85adc2"/><path d="m39.534 102.516 8.271 23.258c.354.996 1.055 1.785 1.94 2.184l20.664 9.31c2.919 1.315 2.919 5.966 0 7.282l-20.664 9.31c-.885.399-1.586 1.188-1.94 2.184l-8.271 23.256c-1.168 3.286-5.301 3.286-6.47 0l-8.271-23.258c-.354-.996-1.055-1.785-1.94-2.184l-20.664-9.31c-2.919-1.315-2.919-5.967 0-7.282l20.664-9.31c.885-.399 1.586-1.188 1.94-2.184l8.271-23.258c1.169-3.284 5.301-3.284 6.47.002z" fill="#cdf4e3"/><g fill="#a2e9c4"><circle cx="465.784" cy="172.35" r="14.295"/><circle cx="145.614" cy="191.157" r="7.791"/></g></g><g><g fill="#3c122c"><path d="m471.066 106.67c22.571 0 40.934-18.363 40.934-40.934s-18.363-40.934-40.934-40.934h-326.327c-22.571 0-40.934 18.363-40.934 40.934s18.363 40.934 40.934 40.934h123.26c1.388 19.344 2.172 45.9-1.574 65.675-6.926 36.571-24.219 69.557-51.501 98.422-37.904-20.773-90.868-11.419-127.893 25.606-20.892 20.892-33.725 47.452-36.135 74.786-2.468 28.001 6.224 53.474 24.474 71.725 16.652 16.651 39.026 24.795 62.578 24.795 29.034 0 59.855-12.379 83.933-36.456 30.945-30.944 42.557-73.024 33.411-108.14 27.266-26.997 47.835-57.466 61.402-91.009 9.63 13.812 16.875 28.895 21.725 45.157-32.81 21.011-52.18 64.507-45.795 111.29 7.747 56.749 50.697 98.677 98.512 98.677 3.67 0 7.378-.249 11.092-.755 52.094-7.11 87.691-62.608 79.351-123.713-6.942-50.852-42.152-89.8-83.806-97.343 1.355-.135 2.712-.267 4.079-.378-1.416-4.89-2.971-9.755-4.703-14.581-10.413-29.032-24.341-50.674-34.19-63.717-8.519-11.281-18.087-21.622-28.492-30.803 1.172-14.717 1.973-33.303 2.39-49.238zm-347.123-40.934c0-11.467 9.329-20.796 20.796-20.796h326.327c11.467 0 20.796 9.329 20.796 20.796s-9.329 20.795-20.796 20.795h-326.327c-11.467.001-20.796-9.328-20.796-20.795zm83.697 351.246c-35.755 35.757-88.703 40.988-118.03 11.661-13.965-13.965-20.59-33.752-18.654-55.716 1.995-22.631 12.762-44.761 30.315-62.315 20.189-20.19 45.859-30.647 69.662-30.647 18.355 0 35.6 6.218 48.367 18.985 29.328 29.328 24.096 82.276-11.66 118.032zm253.986-51.528c6.838 50.102-21.029 95.426-62.121 101.035-41.074 5.618-80.087-30.589-86.927-80.692-6.838-50.102 21.03-95.425 62.122-101.034 2.821-.385 5.632-.573 8.424-.573 37.871-.001 72.133 34.602 78.502 81.264zm-144.093-197.546c10.795 9.032 20.672 19.441 29.354 30.939 8.522 11.285 23.382 33.889 33.531 65.259-2.802.09-5.617.317-8.442.702-5.24.715-10.31 1.928-15.188 3.579-5.936-18.691-14.758-36.017-26.463-51.858-2.933-3.969-6.077-7.863-9.346-11.573-1.932-2.195-4.696-3.414-7.556-3.414-.68 0-1.365.069-2.046.21-3.544.736-6.42 3.316-7.534 6.759-11.24 34.75-30.291 66.274-56.745 94.116-3.629-6.473-8.139-12.5-13.557-17.917-.702-.702-1.417-1.383-2.139-2.054 28.903-31.205 47.299-66.916 54.809-106.564 4.068-21.477 3.406-49.051 2.002-69.422h28.498c-.393 16.104-1.194 35.816-2.743 52.588-.304 3.295 1.028 6.527 3.565 8.65z"/><path d="m196.525 382.235c-1.059 0-2.132-.278-3.105-.864-2.861-1.718-3.786-5.43-2.067-8.289 2.754-4.585 5.375-9.601 7.787-14.908 1.38-3.037 4.964-4.382 7.999-3 3.038 1.381 4.381 4.962 3 7.999-2.602 5.726-5.438 11.153-8.43 16.132-1.133 1.885-3.133 2.93-5.184 2.93z"/><path d="m131.248 425.727c-3.935 0-7.813-.385-11.579-1.175-3.266-.685-5.358-3.888-4.673-7.153.685-3.267 3.884-5.355 7.154-4.673 15.848 3.331 35.259-2.758 49.448-15.496 2.485-2.227 6.302-2.023 8.532.459 2.229 2.483 2.024 6.303-.459 8.532-13.942 12.518-31.674 19.506-48.423 19.506z"/><path d="m439.377 388.203c-.414 0-.835-.042-1.257-.132-3.264-.69-5.35-3.897-4.66-7.162 1.107-5.235 1.946-10.831 2.493-16.632.314-3.321 3.269-5.751 6.581-5.449 3.323.313 5.761 3.26 5.449 6.581-.59 6.259-1.499 12.314-2.701 18.001-.602 2.844-3.11 4.793-5.905 4.793z"/><path d="m381.745 453.014c-2.999 0-5.6-2.231-5.986-5.284-.419-3.31 1.924-6.334 5.235-6.752 16.068-2.034 32.428-14.12 41.68-30.793 1.618-2.918 5.295-3.973 8.214-2.351 2.918 1.618 3.971 5.296 2.351 8.214-11.227 20.233-30.665 34.379-50.729 36.917-.256.034-.512.049-.765.049z"/></g><path d="m159.585 315.755c-4.721 0-9.01-3.211-10.181-8.002-1.376-5.628 2.071-11.305 7.699-12.681 4.347-1.063 8.851-1.815 13.383-2.236 5.782-.543 10.88 3.708 11.415 9.476.535 5.769-3.708 10.88-9.476 11.415-3.511.326-6.99.906-10.341 1.725-.836.205-1.674.303-2.499.303z" fill="#fff"/><path d="m104.496 364.206c-1.261 0-2.542-.228-3.788-.711-5.403-2.094-8.085-8.169-5.993-13.572 5.359-13.831 15.235-27.147 27.808-37.497 4.472-3.684 11.084-3.041 14.767 1.433 3.682 4.473 3.04 11.084-1.433 14.767-9.836 8.097-17.499 18.353-21.577 28.878-1.611 4.155-5.579 6.702-9.784 6.702z" fill="#fff"/><path d="m371.273 325.616c-3.246 0-6.447-1.501-8.5-4.331-3.402-4.688-2.359-11.248 2.331-14.652 3.622-2.628 7.506-5.028 11.544-7.131 5.137-2.676 11.474-.682 14.15 4.456 2.677 5.138.682 11.474-4.457 14.15-3.126 1.629-6.126 3.482-8.917 5.507-1.86 1.351-4.016 2.001-6.151 2.001z" fill="#fff"/><path d="m338.582 391.305c-5.704 0-10.38-4.571-10.484-10.298-.271-14.829 3.834-30.891 11.559-45.228 2.749-5.102 9.116-7.005 14.211-4.26 5.1 2.748 7.007 9.112 4.26 14.211-6.045 11.217-9.259 23.609-9.053 34.893.106 5.793-4.504 10.575-10.297 10.68-.066.002-.131.002-.196.002z" fill="#fff"/></g></g></svg>