<svg id="Capa_1" enable-background="new 0 0 512 512" height="512" viewBox="0 0 512 512" width="512" xmlns="http://www.w3.org/2000/svg"><g><g><path d="m473.328 322.284c0 96.562-88.467 177.567-166.104 179.66-18.648.503-37.139-2.093-56.751-2.093-19.869 0-38.586 2.563-57.465 1.917-56.005-1.917-165.39-83.163-165.39-179.484 0-96.337 48.824-196.79 165.436-198.824 18.872-.329 57.419 16.42 57.419 16.42s37.269-16.882 55.518-16.883c117.713-.007 167.337 102.311 167.337 199.287z" fill="#d789b9"/><g fill="#c668b9"><path d="m117.303 146.147c.5.89 1.19 1.72 2.136 2.417l26.298 19.388c1.577-2.187 2.859-4.503 3.689-6.974-9.269-8.022-16.95-18.5-26.68-25.958-3.992.57-6.484 4.143-6.393 7.746-.118.065-.233.133-.35.198.743.852 1.198 1.994 1.3 3.183z"/><path d="m395.647 148.799c-.133-5.113-6.342-11.57-11.994-11.238 0 0-3.12-.079-8.091-.122-4.133-1.916-8.416-3.649-12.833-5.21-6.021 6.972-9.467 15.757-12.758 24.317 5.89 4.863 11.55 9.99 17.23 15.096l16.374-11.502c33.76 33.466 48.965 84.928 48.965 134.768 0 83.297-76.314 153.175-143.286 154.98-16.087.433-32.037-1.806-48.955-1.806-17.14 0-33.285 2.211-49.571 1.654-48.312-1.654-142.67-71.739-142.67-154.828 0-37.273 8.499-75.239 26.928-105.953-5.616 4.198-11.358 8.236-17.168 12.173-20.668 35.306-30.197 78.625-30.197 121.156 0 96.321 109.385 177.568 165.39 179.484 18.879.646 37.595-1.917 57.465-1.917 19.612 0 38.103 2.595 56.751 2.093 77.637-2.093 166.104-83.099 166.104-179.66-.003-67.217-23.854-136.988-77.684-173.485z"/><path d="m251.914 248.305c-1.866 1.942-4.178 1.858-5.932.762-.701-.261-1.381-.753-1.987-1.534-6.305-8.123-12.504-16.336-19.255-24.098-6.171-7.094-12.798-14.371-20.978-19.184-.059.002-.115.009-.175.009-23.32.084-46.533 2.963-69.84 3.15l-14.308 10.548c-6.049 4.46-2.579 14.055 4.923 13.615l84.433-4.955c2.418-.142 4.757.885 6.289 2.76l37.854 46.333c3.021 3.698 8.673 3.698 11.694 0l37.854-46.333c1.532-1.876 3.872-2.902 6.289-2.76l84.433 4.955c7.502.44 10.972-9.156 4.923-13.615l-13.37-9.857c-28.848-.124-57.649-2.135-86.496-2.277-14.632 15.048-31.803 27.342-46.351 42.481z"/></g><path d="m270.066 63.984c5.502 6.342 1.982 63.318 1.982 63.318 1.533 1.876 17.678-8.396 38.5-12.251s74.348-5.356 74.348-5.356c7.502-.44 10.971 9.156 4.923 13.615l-38.821 28.62c-4.093 3.018-4.093 9.137 0 12.155l38.821 28.62c6.049 4.459 2.579 14.055-4.923 13.615l-84.433-4.955c-2.418-.142-4.757.885-6.289 2.76l-37.854 46.333c-3.021 3.698-8.673 3.698-11.694 0l-37.854-46.333c-1.532-1.876-3.872-2.902-6.289-2.76l-84.433 4.955c-7.502.44-10.971-9.156-4.923-13.615l38.821-28.62c4.093-3.018 4.093-9.137 0-12.155l-38.821-28.62c-6.049-4.459-2.579-14.055 4.923-13.615 0 0 50.265 3.873 71.771 6.786 23.407 3.171 42.676 13.39 44.208 11.515 0 0-5.187-53.794-.014-63.307s32.55-7.047 38.051-.705z" fill="#a1e8c3"/><path d="m473.503 31.647 6.584 18.513c.282.793.84 1.421 1.544 1.738l16.448 7.411c2.324 1.047 2.324 4.749 0 5.796l-16.448 7.41c-.704.317-1.262.945-1.544 1.738l-6.584 18.513c-.93 2.616-4.219 2.616-5.15 0l-6.584-18.513c-.282-.793-.84-1.421-1.544-1.738l-16.448-7.41c-2.324-1.047-2.324-4.749 0-5.796l16.448-7.411c.704-.317 1.262-.945 1.544-1.738l6.584-18.513c.93-2.616 4.219-2.616 5.15 0z" fill="#e9c3d9"/><path d="m392.438 18.365c0 4.617-3.743 8.36-8.361 8.36s-8.36-3.743-8.36-8.36 3.743-8.36 8.36-8.36 8.361 3.743 8.361 8.36z" fill="#d88aba"/><path d="m54.602 2.644 8.876 24.957c.38 1.069 1.132 1.915 2.082 2.343l22.174 9.99c3.133 1.411 3.133 6.403 0 7.814l-22.174 9.99c-.949.428-1.702 1.275-2.082 2.343l-8.876 24.957c-1.254 3.526-5.688 3.526-6.942 0l-8.876-24.957c-.38-1.069-1.132-1.915-2.082-2.343l-22.174-9.99c-3.133-1.411-3.133-6.403 0-7.814l22.174-9.99c.949-.428 1.702-1.274 2.082-2.343l8.876-24.957c1.253-3.525 5.688-3.525 6.942 0z" fill="#e9c3d9"/></g><g><g fill="#3c122c"><path d="m442.008 180.369c-13.953-19.397-30.864-34.76-50.284-45.904 17.705-8.461 13.157-35.507-7.239-34.871-11.108.415-80.276 1.417-101.633 13.313 1.573-47.104 3.305-66.932-39.143-64.334-32.793 4.807-22.988 29.952-22.922 65.784-21.17-9.872-93.733-13.658-104.145-14.753-21.189-.385-25.071 26.497-6.839 35.288-64.423 37.857-91.367 108.756-92.295 187.392 6.65 106.163 96.217 177.34 175.149 189.594 28.073.469 55.814-3.725 83.757-.837 177.976 17.123 263.382-198.941 165.594-330.672zm-255.544-53.871c18.171.113 43.66 19.15 53.394 7.895 2.916-3.344 2.795-2.993 2.233-7.367-2.176-22.589-3.149-50.219-1.27-57.13 2.185-2.101 18.289-1.419 21.042.621 1.798 7.878 1.34 39.053-.147 60.114 5.393 9.125 13.735 7.897 23.104 3.331 6.579-2.757 16.522-6.925 27.569-8.971 15.115-2.799 49.229-4.34 64.788-4.921-7.964 8.109-41.215 23.688-39.358 37.934-1.945 14.119 31.22 29.778 39.059 37.717-93.725-.926-69.148-26.152-126.405 45.914-57.221-72.073-32.808-46.834-126.405-45.914 7.961-8.089 40.903-23.49 39.058-37.714 1.931-14.097-30.942-29.59-38.779-37.511 15.435 1.256 46.621 3.903 62.117 6.002zm225.694 313.979c-64.684 65.691-111.434 47.673-188.52 50.31-80.538 10.737-179.818-69.338-185.916-168.499.005-66.883 24.757-142.925 90.021-174.17l13.413 9.889-36.027 26.561c-6.347 4.679-8.809 12.804-6.128 20.219s9.767 12.07 17.641 11.624l83.129-4.879c8.755 7.123 36.827 54.383 50.701 51.808 13.695 2.723 42.204-44.8 50.707-51.807-.002-.001 83.126 4.877 83.126 4.877 7.867.448 14.96-4.209 17.641-11.624 9.072-19.167-32.51-36.676-42.155-46.779l13.799-10.173c98.305 51.06 122.924 211.152 38.568 292.643z"/><path d="m299.749 338.077c-3.35 0-6.065-2.716-6.065-6.065v-12.231c0-3.35 2.716-6.065 6.065-6.065s6.065 2.716 6.065 6.065v12.231c0 3.349-2.715 6.065-6.065 6.065z"/><path d="m339.261 360.59c-3.349 0-6.065-2.716-6.065-6.065v-12.231c0-3.349 2.716-6.065 6.065-6.065 3.35 0 6.065 2.716 6.065 6.065v12.231c.001 3.349-2.715 6.065-6.065 6.065z"/><path d="m370.69 317.636c-3.35 0-6.065-2.716-6.065-6.065v-12.231c0-3.349 2.716-6.065 6.065-6.065s6.065 2.716 6.065 6.065v12.231c0 3.35-2.716 6.065-6.065 6.065z"/></g><path d="m70.525 354.658c-4.707 0-8.921-3.305-9.895-8.096-4.166-20.489-4.134-42.64.095-65.837 1.103-6.048 2.506-12.185 4.17-18.242 1.48-5.383 7.045-8.546 12.426-7.069 5.384 1.48 8.548 7.043 7.069 12.426-1.508 5.488-2.778 11.043-3.776 16.511-3.766 20.651-3.824 40.227-.173 58.181 1.112 5.471-2.421 10.808-7.892 11.92-.679.139-1.356.206-2.024.206z" fill="#fff"/><path d="m84.437 247.168c-1.369 0-2.76-.279-4.092-.87-5.104-2.263-7.407-8.235-5.144-13.338 1.441-3.251 2.988-6.47 4.595-9.568 2.573-4.956 8.675-6.888 13.629-4.316 4.956 2.572 6.888 8.674 4.316 13.629-1.419 2.733-2.784 5.576-4.058 8.45-1.672 3.771-5.37 6.013-9.246 6.013z" fill="#fff"/></g></g></svg>