<svg id="Capa_1" enable-background="new 0 0 512 512" height="512" viewBox="0 0 512 512" width="512" xmlns="http://www.w3.org/2000/svg"><g><g><path d="m218.579 63.061c-25.008-5.339-53.114 27.024-62.776 72.284-.893 4.185-1.377 8.378-1.532 12.544l-27.097-41.808c-3.728-5.751-11.412-7.392-17.163-3.664l-2.908 1.884c-5.751 3.728-7.392 11.412-3.664 17.163l27.097 41.807c-3.866-1.56-7.891-2.83-12.076-3.724-45.261-9.663-86.279 2.778-91.618 27.786-5.339 25.007 27.024 53.113 72.285 62.776 37.968 8.106 76.701-16.936 88.2-25.218 12.256-7.114 50.932-32.245 59.037-70.212 9.662-45.26-2.778-86.279-27.785-91.618z" fill="#a1e8c3"/><path d="m346.171 230.398c8.904-17.756 8.443-39.624-3.141-57.497-15.769-24.329-46.709-32.892-72.348-21.321-18.398-22.739-51.373-28.379-76.465-12.115-18.214 11.806-27.579 32.116-26.286 52.339-17.932-9.438-40.296-9.184-58.51 2.621-24.973 16.186-33.323 48.357-20.346 74.373-23.296 18.289-29.211 51.656-12.789 76.993 11.584 17.873 31.358 27.223 51.201 26.346-8.904 17.756-8.443 39.624 3.141 57.497 17.394 26.836 53.249 34.491 80.085 17.097.892-.578 1.759-1.18 2.609-1.798.15 10.521 3.155 21.129 9.3 30.61 17.394 26.836 53.249 34.491 80.085 17.097 18.214-11.806 27.579-32.116 26.286-52.339 17.932 9.439 40.296 9.184 58.51-2.621 26.836-17.394 34.491-53.249 17.097-80.085-6.127-9.453-14.549-16.513-24.056-20.949 26.613-17.46 34.162-53.157 16.828-79.901-11.584-17.874-31.357-27.224-51.201-26.347z" fill="#e8c2d8"/><path d="m346.171 230.398c8.904-17.756 8.443-39.624-3.141-57.497-15.768-24.328-46.709-32.892-72.348-21.321-18.398-22.739-51.373-28.379-76.466-12.116-6.66 4.317-12.131 9.774-16.336 15.945 13.543-1.773 27.439 2.522 37.628 12.032 2.813 2.626 6.774 3.538 10.468 2.464 19.118-5.559 40.395 1.73 51.781 19.298 6.902 10.65 8.867 23.073 6.475 34.588-1.168 5.624 2.447 11.203 8.059 12.433 11.488 2.519 22.026 9.386 28.929 20.036 11.483 17.716 9.313 40.346-3.866 55.53-3.89 4.482-3.596 11.277.912 15.136 3.525 3.018 6.656 6.623 9.239 10.788 13.039 21.023 6.992 49.061-13.552 62.844-10.887 7.303-23.708 9.366-35.54 6.82-5.791-1.246-11.559 2.343-12.767 8.142-2.432 11.674-9.341 22.409-20.138 29.407-5.277 3.42-16.733 6.873-31.206 9.818 1.616 8.645 5.242 17.09 11.043 24.653 17.602 22.945 49.984 29.279 74.967 14.714 19.786-11.534 30.03-32.72 28.681-53.811 18.188 9.573 40.936 9.175 59.289-3.135 25.626-17.188 33.235-52.035 17.098-78.335-6.182-10.075-14.919-17.558-24.835-22.186 26.614-17.46 34.162-53.157 16.828-79.901-11.585-17.873-31.358-27.223-51.202-26.346z" fill="#d392d8"/><path d="m336.689 2.633 8.837 24.85c.378 1.064 1.128 1.907 2.073 2.333l22.078 9.947c3.119 1.405 3.119 6.375 0 7.78l-22.078 9.947c-.945.426-1.694 1.269-2.073 2.333l-8.837 24.849c-1.249 3.511-5.664 3.511-6.912 0l-8.837-24.849c-.378-1.064-1.127-1.907-2.073-2.333l-22.078-9.947c-3.119-1.405-3.119-6.375 0-7.78l22.078-9.947c.945-.426 1.694-1.269 2.073-2.333l8.837-24.85c1.248-3.511 5.664-3.511 6.912 0z" fill="#e9c3d9"/><path d="m469.609 170.868 6.555 18.433c.281.789.836 1.415 1.538 1.73l16.377 7.379c2.314 1.042 2.314 4.729 0 5.771l-16.377 7.379c-.701.316-1.257.941-1.538 1.73l-6.555 18.433c-.926 2.604-4.201 2.604-5.128 0l-6.555-18.433c-.281-.789-.836-1.415-1.538-1.73l-16.377-7.379c-2.314-1.042-2.314-4.729 0-5.771l16.377-7.379c.701-.316 1.257-.941 1.538-1.73l6.555-18.433c.926-2.604 4.202-2.604 5.128 0z" fill="#e9c3d9"/><circle cx="443.248" cy="78.076" fill="#d88aba" r="14.289"/></g><g><g fill="#3c122c"><path d="m413.046 352.12c-4.168-6.431-9.357-12.067-15.336-16.711 21.412-22.238 25.571-57.198 8.109-84.139-10.385-16.022-27.081-26.798-45.567-30 4.626-18.181 1.608-37.822-8.776-53.844-8.893-13.721-22.432-23.778-38.121-28.317-13.111-3.793-27.007-3.548-39.843.605-4.223-4.197-8.897-7.744-13.884-10.622.443-13.698-1.068-26.718-4.524-38.115-6.359-20.969-18.584-34.379-34.424-37.761-28.44-6.069-58.503 23.21-71.684 68.03l-13.377-20.639c-3.265-5.038-8.296-8.503-14.167-9.756-5.873-1.255-11.88-.145-16.916 3.12l-2.908 1.884c-5.037 3.265-8.502 8.296-9.756 14.167-1.253 5.871-.146 11.879 3.12 16.917l13.388 20.656c-46.297-6.275-85.309 9.192-91.382 37.636-3.382 15.84 3.867 32.476 20.411 46.843 9.767 8.483 22.23 15.64 36.269 20.99.659 4.38 1.742 8.739 3.293 13.013-10.021 9.937-16.719 22.786-19.109 36.89-2.851 16.819.692 33.971 9.977 48.296 10.384 16.022 27.081 26.797 45.566 29.999-4.626 18.181-1.608 37.823 8.777 53.844 9.875 15.235 25.091 25.713 42.846 29.504 13.711 2.927 27.671 1.596 40.334-3.711 1.815 7.098 4.779 13.891 8.814 20.116 13 20.056 34.856 30.983 57.144 30.983 12.663 0 25.467-3.529 36.861-10.914 16.332-10.586 27.147-27.572 30.147-46.382 18.395 4.941 38.317 2.007 54.649-8.578 15.235-9.875 25.713-25.091 29.504-42.846 3.791-17.754.44-35.922-9.435-51.158zm-247.4-214.673c8.509-39.857 31.028-64.875 47.62-64.875 1.098 0 2.17.11 3.211.332 8.229 1.757 15.287 10.473 19.363 23.916 2.251 7.421 3.469 15.768 3.692 24.635-16.956-3.515-35.196-.545-50.79 9.562-10.547 6.836-18.775 16.351-24.101 27.293-.679-6.875-.48-13.906 1.005-20.863zm-54.087-23.221c.092-.433.344-1.041 1.017-1.478l2.908-1.884c.448-.291.888-.379 1.261-.379.188 0 .359.023.504.054.433.092 1.041.344 1.477 1.017l25.424 39.226c-.002 2.695.121 5.369.344 8.017-2.326-1.285-4.723-2.479-7.183-3.577l-25.428-39.231c-.435-.673-.417-1.331-.324-1.765zm-74.874 75.21c2.743-12.851 23.131-23.11 51.649-23.11 8.677 0 18.111.951 28.023 3.067 5.915 1.263 11.505 3.409 16.741 6.141-10.233 1.179-20.23 4.661-29.153 10.445-16.456 10.666-26.871 27.337-30.014 45.41-8.961-4.042-16.904-8.937-23.323-14.511-10.605-9.211-15.68-19.213-13.923-27.442zm366.11 209.641c-2.668 12.497-10.043 23.207-20.766 30.156-14.5 9.397-33.025 10.225-48.347 2.161-3.221-1.695-7.107-1.519-10.162.461s-4.802 5.455-4.57 9.089c1.105 17.28-7.217 33.852-21.716 43.25-10.722 6.95-23.51 9.309-36.007 6.641s-23.207-10.042-30.157-20.766c-4.897-7.557-7.554-16.298-7.683-25.28-.053-3.76-2.199-7.176-5.561-8.858-1.424-.713-2.966-1.064-4.502-1.064-2.09 0-4.169.651-5.922 1.926-.762.555-1.469 1.042-2.162 1.491-10.722 6.95-23.51 9.311-36.007 6.641-12.497-2.668-23.207-10.042-30.157-20.766-9.186-14.173-10.179-32.378-2.59-47.511 1.6-3.19 1.39-6.991-.551-9.986s-5.322-4.736-8.891-4.581c-16.914.746-33.125-7.593-42.311-21.766-13.546-20.899-9.006-48.242 10.559-63.602 3.757-2.95 4.923-8.135 2.791-12.41-10.86-21.771-3.632-48.182 16.814-61.433 14.5-9.398 33.025-10.226 48.348-2.161 3.222 1.697 7.107 1.52 10.162-.46s4.803-5.456 4.57-9.089c-1.105-17.28 7.216-33.853 21.716-43.25 20.596-13.35 47.753-9.051 63.167 10 2.878 3.557 7.794 4.725 11.965 2.843 21.325-9.623 47.015-2.047 59.762 17.622 9.186 14.173 10.178 32.377 2.59 47.51-1.6 3.191-1.39 6.991.551 9.986 1.942 2.995 5.336 4.738 8.891 4.581 16.91-.748 33.125 7.593 42.312 21.766 14.266 22.01 8.029 51.622-13.903 66.01-3.052 2.002-4.78 5.5-4.518 9.14.263 3.641 2.475 6.853 5.783 8.397 8.113 3.786 14.983 9.769 19.866 17.303 6.945 10.724 9.303 23.512 6.636 36.009z"/><path d="m247.258 303.383c-1.979 0-3.917-.971-5.074-2.755l-6.624-10.22c-1.814-2.799-1.015-6.538 1.784-8.352 2.798-1.814 6.538-1.015 8.352 1.784l6.624 10.22c1.814 2.799 1.015 6.538-1.783 8.352-1.015.657-2.154.971-3.279.971z"/><path d="m292.485 274.069c-1.979 0-3.917-.971-5.074-2.755l-6.623-10.219c-1.814-2.799-1.015-6.538 1.784-8.352 2.8-1.814 6.539-1.014 8.352 1.784l6.623 10.219c1.814 2.799 1.015 6.538-1.784 8.352-1.014.657-2.153.971-3.278.971z"/><path d="m301.938 325.085c-1.979 0-3.918-.971-5.073-2.755l-6.624-10.219c-1.814-2.799-1.016-6.538 1.783-8.352 2.799-1.815 6.539-1.015 8.352 1.783l6.624 10.219c1.815 2.799 1.016 6.538-1.783 8.352-1.015.658-2.153.972-3.279.972z"/><path d="m297.59 372.296c-1.979 0-3.917-.971-5.073-2.755l-6.624-10.219c-1.815-2.799-1.016-6.538 1.783-8.352 2.799-1.815 6.539-1.015 8.352 1.783l6.624 10.219c1.814 2.799 1.016 6.538-1.783 8.352-1.014.658-2.153.972-3.279.972z"/><path d="m351.871 305.945c-1.979 0-3.917-.971-5.073-2.755l-6.624-10.219c-1.815-2.799-1.016-6.538 1.783-8.352 2.799-1.815 6.539-1.015 8.352 1.783l6.624 10.219c1.815 2.799 1.016 6.538-1.783 8.352-1.015.658-2.153.972-3.279.972z"/><path d="m212.728 347.015c-1.979 0-3.918-.971-5.073-2.755l-6.624-10.22c-1.814-2.799-1.016-6.538 1.783-8.352s6.539-1.016 8.352 1.783l6.624 10.219c1.815 2.799 1.016 6.538-1.782 8.352-1.016.659-2.155.973-3.28.973z"/><path d="m180.858 264.324c-1.979 0-3.917-.971-5.074-2.755l-6.624-10.22c-1.814-2.799-1.015-6.538 1.784-8.352s6.538-1.015 8.352 1.784l6.624 10.219c1.814 2.799 1.015 6.538-1.784 8.352-1.014.658-2.153.972-3.278.972z"/></g><path d="m146.148 353.438c-2.295 0-4.601-.78-6.49-2.376-27.84-23.519-22.946-67.539-22.724-69.401.658-5.52 5.672-9.458 11.186-8.803 5.512.657 9.45 5.652 8.805 11.163-.04.35-3.784 35.185 15.723 51.664 4.247 3.588 4.781 9.938 1.194 14.184-1.991 2.355-4.833 3.569-7.694 3.569z" fill="#fff"/><path d="m122.772 254.702c-5.119 0-9.495-3.88-10.002-9.078-.028-.28-.271-2.889-.394-8.141-.13-5.557 4.269-10.168 9.826-10.298 5.561-.152 10.168 4.269 10.298 9.826.105 4.486.304 6.658.306 6.68.516 5.527-3.539 10.438-9.064 10.965-.325.031-.649.046-.97.046z" fill="#fff"/></g></g></svg>