<svg id="Capa_1" enable-background="new 0 0 512 512" height="512" viewBox="0 0 512 512" width="512" xmlns="http://www.w3.org/2000/svg"><g><g><path d="m186.925 179.648c26.829-15.836 62.876-96.741 75.848-111.425 45.514-51.52 55.932-72.257 133.497-18.39 45.022 31.266 57.577 94.804 33.778 167.788-5.39 16.529-16.659 61.085-21.914 91.071-5.883 33.569-.876 69.132-19.039 100.815-43.484 75.852-162.909 118.116-235.119 74.666-134.36-80.844-100.985-140.101-43.547-234.417 18.995-31.191 47.147-52.784 76.496-70.108z" fill="#a1e8c3"/><path d="m132.095 139.122c26.829-15.836 54.035-43.759 67.007-58.442 45.515-51.52 100.833-84.953 148.388-57.692 47.554 27.262 51.528 81.122 27.729 154.107-5.39 16.529-16.66 61.085-21.915 91.071-5.883 33.569-.876 69.132-19.039 100.815-43.484 75.852-164.514 120.678-235.119 74.666-70.605-46.011-87.031-158.565-43.547-234.417 18.163-31.683 47.147-52.784 76.496-70.108z" fill="#f6e06e"/><path d="m396.27 49.833c-9.692-6.73-18.329-12.288-26.122-16.772.082.29.162.581.243.872 2.148 5.009 4.066 10.096 5.745 15.255 5.054 10.767 9.43 21.848 11.919 33.472 3.667 17.13 2.199 33.454-1.514 50.415-3.895 17.789-8.702 35.371-14.232 52.719-4.481 14.057-9.437 27.946-14.708 41.717-.391 1.561-.798 3.118-1.202 4.676-2.781 16.864-5.499 33.738-8.174 50.619-.305 11.68-1.245 23.33-3.105 34.872-1.675 10.391-4.43 20.497-8.125 30.207-4.092 13.398-11.485 25.92-19.815 37.136-.998 1.485-2.013 2.956-3.064 4.393-5.938 8.117-12.981 15.95-21.01 22.422-7.678 6.961-16.066 13.148-25.072 17.91-.997.597-2 1.184-3.011 1.76-21.383 12.194-45.655 20.991-69.543 26.694-15.34 3.662-31.367 6.034-47.235 5.603-8.564.539-17.399.557-26.014-.572 9.344 6.839 19.884 13.806 31.745 20.942 72.21 43.449 191.635 1.185 235.119-74.666 18.163-31.683 13.156-67.246 19.039-100.815 5.255-29.986 16.524-74.542 21.914-91.071 23.799-72.985 11.244-136.522-33.778-167.788z" fill="#85adc2"/><path d="m96.334 441.751c3.595 3.452 7.494 6.929 11.705 10.435 10.129 2.249 20.335 4.107 30.624 5.408 24.204 3.061 48.961 3.047 72.842-2.337 24.747-5.579 47.654-16.715 68.097-31.642 20.228-14.769 41.637-33.495 50.65-57.573 2.973-7.943 4.492-16.104 4.988-24.345-.822 1.722-1.714 3.433-2.687 5.13-36.605 63.853-137.139 99.432-197.927 62.855-20.628-12.412-36.555-24.219-48.523-35.712-30.208-20.874-48.109-56.519-53.043-94.788-7.382 62.434 14.384 128.785 63.274 162.569z" fill="#dda86a"/><path d="m338.593 44.048c30.184 20.962 43.011 59.163 36.871 104.881 4.538-13.969 7.343-28.43 7.416-43.342.132-26.97-8.591-52.632-20.259-76.656-7.142-3.718-13.533-6.427-19.348-8.188-17.899-8.849-36.805-9.424-55.808-3.95 2.187.786 4.36 1.7 6.514 2.766 11.523 3.49 25.692 11.348 44.614 24.489z" fill="#dda86a"/><path d="m150.352 162.818c21.183-12.999 43.254-35.625 53.846-47.504 37.162-41.678 78.335-70.613 113.135-49.61 34.799 21.003 36.135 65.134 14.416 123.58-4.919 13.237-15.7 48.869-21.185 72.815-6.14 26.808-11.493 62.101-26.876 87.587-36.827 61.017-122.122 91.612-173.514 56.021s-58.289-124.944-21.462-185.961c15.383-25.485 38.467-42.707 61.64-56.928z" fill="#e8a284"/><ellipse cx="196.535" cy="262.453" fill="#a07575" rx="95.665" ry="60.392" transform="matrix(.548 -.837 .837 .548 -130.703 283.023)"/><path d="m481.257 312.332 6.267 17.623c.268.755.8 1.352 1.47 1.655l15.657 7.054c2.212.997 2.212 4.521 0 5.517l-15.657 7.054c-.67.302-1.202.9-1.47 1.654l-6.267 17.623c-.885 2.49-4.017 2.49-4.902 0l-6.267-17.623c-.268-.754-.799-1.352-1.47-1.654l-15.657-7.054c-2.212-.997-2.212-4.521 0-5.517l15.657-7.054c.67-.302 1.202-.9 1.47-1.655l6.267-17.623c.885-2.49 4.016-2.49 4.902 0z" fill="#f0c6b5"/><ellipse cx="158.219" cy="36.997" fill="#e9a385" rx="18.449" ry="18.449" transform="matrix(.122 -.993 .993 .122 102.168 189.51)"/><circle cx="64.041" cy="7.958" fill="#e9a385" r="7.958"/><path d="m46.073 71.733 8.449 23.757c.362 1.017 1.078 1.823 1.982 2.23l21.107 9.51c2.982 1.343 2.982 6.095 0 7.438l-21.107 9.51c-.904.407-1.62 1.213-1.982 2.23l-8.449 23.757c-1.194 3.356-5.415 3.356-6.609 0l-8.449-23.757c-.362-1.017-1.078-1.823-1.982-2.23l-21.107-9.51c-2.982-1.344-2.982-6.095 0-7.438l21.107-9.51c.904-.407 1.62-1.213 1.982-2.23l8.449-23.757c1.194-3.356 5.415-3.356 6.609 0z" fill="#f0c6b5"/></g><g><g fill="#3c122c"><path d="m449.052 116.063c-6.407-31.99-22.63-57.813-46.915-74.677-22.984-15.961-40.505-25.711-55.232-30.313-23.806-11.461-50.205-10.86-78.574 1.83-25.317 11.325-51.202 31.838-76.937 60.967-7.929 8.975-36.014 39.564-64.527 56.395-26.639 15.724-59.827 38.328-80.192 73.85-22.267 38.842-30.366 88.145-22.222 135.266 8.242 47.677 31.442 86.726 65.516 110.48 15.018 14.289 34.464 28.541 58.704 43.127 20.953 12.607 46.094 19.012 73.402 19.012 16.004 0 32.752-2.2 49.839-6.641 25.862-6.722 51.014-18.373 72.738-33.694 22.693-16.004 41.147-35.729 53.365-57.043 13.523-23.59 15.269-48.488 16.957-72.567.771-10.991 1.499-21.371 3.289-31.588 5.36-30.582 16.528-74.217 21.563-89.658 12.242-37.54 15.433-73.761 9.226-104.746zm-384.53 98.283c17.862-31.158 46.826-51.033 72.802-66.366 31.115-18.367 61.053-50.943 69.487-60.49 23.203-26.264 63.606-63.969 104.286-63.969 10.503 0 21.03 2.516 31.278 8.391 39.872 22.857 47.201 67.977 23.065 141.995-5.215 15.991-16.755 61.033-22.267 92.484-1.975 11.266-2.774 22.67-3.548 33.699-1.596 22.769-3.105 44.276-14.284 63.776-22.429 39.126-67.756 70.994-118.29 83.165-39.492 9.512-75.819 5.25-102.289-12-63.536-41.406-82.715-146.592-40.24-220.685zm355.747.086c-5.214 15.994-16.755 61.038-22.267 92.484-1.975 11.266-2.774 22.671-3.548 33.7-1.596 22.769-3.105 44.275-14.283 63.775-21.43 37.383-64.895 68.442-113.432 81.058-40.843 10.616-79.006 7.033-107.461-10.089-1.878-1.13-3.712-2.255-5.526-3.378 4.411.368 8.89.571 13.444.571 14.335 0 29.328-1.829 44.671-5.524 55.851-13.452 106.17-49.062 131.321-92.933 13.524-23.591 15.27-48.489 16.958-72.569.77-10.99 1.499-21.37 3.289-31.587 5.361-30.586 16.528-74.219 21.561-89.658 13.007-39.886 17.352-72.249 13.283-98.938-1.158-7.596-3.018-14.72-5.565-21.369 39.327 29.205 49.668 86.645 27.555 154.457z"/><path d="m161.879 427.01c-20.713.001-39.742-5.51-55.218-16.227-25.96-17.978-42.452-49.19-46.438-87.887-3.797-36.853 4.662-75.611 23.206-106.337 16.92-28.033 42.928-46.256 63.696-59h-.001c22.828-14.009 45.931-39.019 52.467-46.351 47.61-53.394 88.297-70.482 120.93-50.785 35.608 21.491 41.332 65.571 17.012 131.013-4.621 12.438-15.336 47.515-20.954 72.043-1.07 4.669-2.107 9.563-3.206 14.744-5.244 24.731-11.189 52.762-24.402 74.655-21.258 35.222-59.705 62.509-100.337 71.214-9.119 1.952-18.087 2.917-26.755 2.918zm130.593-362.076c-23.308 0-51.333 18.224-83.668 54.487-6.82 7.649-30.96 33.766-55.224 48.657 0 0 0 0-.001 0-20.791 12.759-44.13 29.254-59.584 54.859-36.546 60.554-27.16 145.252 19.692 177.699 19.122 13.242 44.819 17.288 72.361 11.385 37.411-8.014 72.8-33.121 92.356-65.522 12.138-20.111 17.853-47.06 22.896-70.837 1.109-5.231 2.156-10.173 3.248-14.939 5.726-25.002 16.682-60.849 21.416-73.587 21.956-59.084 17.979-98.161-11.821-116.147-6.689-4.038-13.921-6.055-21.671-6.055zm-142.119 97.884h.01z"/><path d="m157.324 351.29c-7.062 0-12.854-1.202-16.597-3.654-8.889-5.824-15.939-25.074-17.539-47.901-1.108-15.785-.284-46.358 17.667-73.76 17.779-27.138 46.033-39.99 61.293-45.236 21.428-7.366 42.067-8.794 50.192-3.471s15.06 24.815 16.864 47.402c1.286 16.085.788 47.121-16.992 74.258-17.952 27.401-45.651 40.366-60.565 45.656-12.488 4.431-24.606 6.706-34.323 6.706zm80.159-164.841c-7.016 0-17.987 1.38-31.321 5.964-13.768 4.732-39.217 16.265-54.982 40.328-15.968 24.374-16.678 51.896-15.679 66.133 1.589 22.654 8.594 36.214 11.991 38.439 3.399 2.227 18.626 3.232 40.03-4.359 13.45-4.771 38.398-16.413 54.367-40.787 15.764-24.063 16.173-52 15.014-66.512-1.815-22.716-8.837-36.43-11.325-38.06-.949-.623-3.772-1.146-8.095-1.146z"/><path d="m190.716 232.695c-1.265 0-2.54-.387-3.639-1.191-2.751-2.013-3.349-5.874-1.336-8.625l9.202-12.576c2.011-2.751 5.873-3.35 8.624-1.336 2.751 2.013 3.349 5.874 1.336 8.625l-9.202 12.576c-1.208 1.651-3.083 2.527-4.985 2.527z"/><path d="m215.178 261.669c-1.265 0-2.54-.387-3.639-1.191-2.751-2.013-3.349-5.874-1.336-8.625l9.203-12.576c2.012-2.75 5.872-3.349 8.624-1.336 2.751 2.013 3.349 5.874 1.336 8.625l-9.203 12.576c-1.208 1.651-3.084 2.527-4.985 2.527z"/><path d="m154.617 268.794c-1.265 0-2.54-.387-3.639-1.191-2.751-2.013-3.349-5.874-1.336-8.625l9.202-12.576c2.012-2.751 5.873-3.35 8.624-1.336 2.751 2.013 3.349 5.874 1.336 8.625l-9.202 12.576c-1.208 1.651-3.083 2.527-4.985 2.527z"/><path d="m181.691 285.181c-1.265 0-2.54-.387-3.639-1.191-2.751-2.013-3.349-5.874-1.336-8.625l9.202-12.576c2.011-2.751 5.872-3.35 8.624-1.336 2.751 2.013 3.349 5.874 1.336 8.625l-9.202 12.576c-1.208 1.651-3.083 2.527-4.985 2.527z"/><path d="m149.392 308.218c-1.265 0-2.54-.387-3.639-1.191-2.75-2.012-3.349-5.874-1.336-8.625l9.202-12.576c2.011-2.751 5.873-3.35 8.624-1.336 2.75 2.012 3.349 5.874 1.336 8.625l-9.202 12.576c-1.208 1.651-3.083 2.527-4.985 2.527z"/><path d="m225.201 223.792c-1.265 0-2.54-.387-3.639-1.191-2.75-2.012-3.349-5.874-1.336-8.625l9.202-12.576c2.011-2.751 5.872-3.35 8.624-1.336 2.75 2.012 3.349 5.874 1.336 8.625l-9.202 12.576c-1.208 1.651-3.083 2.527-4.985 2.527z"/><path d="m219.739 292.903c-1.265 0-2.54-.387-3.639-1.191-2.75-2.012-3.349-5.874-1.336-8.625l9.202-12.576c2.011-2.751 5.873-3.35 8.624-1.336 2.75 2.012 3.349 5.874 1.336 8.625l-9.202 12.576c-1.208 1.651-3.084 2.527-4.985 2.527z"/><path d="m184.827 320.452c-1.265 0-2.54-.387-3.639-1.191-2.75-2.012-3.349-5.874-1.336-8.625l9.202-12.576c2.011-2.751 5.872-3.35 8.624-1.336 2.75 2.012 3.349 5.874 1.336 8.625l-9.202 12.576c-1.208 1.651-3.083 2.527-4.985 2.527z"/></g><path d="m206.133 160.124c-2.433 0-4.875-.858-6.835-2.603-4.243-3.777-4.62-10.279-.844-14.521 17.708-19.894 35.895-36.178 54.054-48.4 4.712-3.171 11.105-1.924 14.276 2.789 3.172 4.713 1.923 11.104-2.789 14.276-16.731 11.261-33.612 26.405-50.175 45.012-2.032 2.284-4.854 3.447-7.687 3.447z" fill="#fff"/><path d="m285.236 99.605c-4.393 0-8.46-2.836-9.824-7.253-1.677-5.428 1.365-11.187 6.792-12.863 2.513-.776 5.529-1.603 8.857-1.85 5.645-.416 10.599 3.829 11.02 9.495.421 5.665-3.83 10.598-9.495 11.02-1.282.095-2.899.554-4.311.99-1.011.313-2.034.461-3.039.461z" fill="#fff"/></g></g></svg>