<svg id="Capa_1" enable-background="new 0 0 512 512" height="512" viewBox="0 0 512 512" width="512" xmlns="http://www.w3.org/2000/svg"><g><g><path d="m376.001 442.773c-117.112 78.665-267.574 68.853-318.28 1.792s-17.472-214.794 88.45-305.748c106.828-91.733 180.214-29.32 243.68 54.616 63.466 83.934 103.037 170.827-13.85 249.34z" fill="#e8c2d8"/><path d="m389.851 193.432c-2.705-3.577-5.429-7.111-8.171-10.6 50.245 69.38 76.881 140.671-19.45 205.377-101.208 67.982-231.235 59.502-275.056 1.548-43.82-57.954-15.099-185.623 76.438-264.226 1.393-1.196 2.779-2.359 4.159-3.494-7.048 4.899-14.242 10.46-21.6 16.778-105.922 90.956-139.157 238.689-88.45 305.75s201.168 76.873 318.28-1.792c116.887-78.513 77.316-165.406 13.85-249.341z" fill="#d392d8"/><path d="m228.413 139.965c4.455-32.456 106.203-8.245 106.203-8.245s-16.42-58.787 11.523-66.037 57.379 116.48 57.379 116.48 103.206 57.57 98.258 84.55-69.442-7.082-69.442-7.082-2.14 106.762-35.365 102.53-51.738-135.782-51.738-135.782-121.274-53.959-116.818-86.414z" fill="#ccf3e2"/><path d="m435.058 250.293c-16.309-7.797-15.937 15.784-34.136 11.142-22.211-5.665-31.402-53.254-40.342-58.03-48.794-26.062-86.156-47.878-134.521-74.294-.908 1.543-1.541 3.258-1.831 5.178-5.047 33.456 119.453 90.844 119.453 90.844s17.313 136.108 51.566 140.935c34.254 4.827 45.968-112.831 39.811-115.775z" fill="#b1b6e1"/><path d="m41.242 50.564 8.629 24.263c.369 1.039 1.101 1.862 2.024 2.278l21.556 9.712c3.046 1.372 3.046 6.224 0 7.596l-21.556 9.712c-.923.416-1.654 1.239-2.024 2.278l-8.629 24.263c-1.219 3.428-5.53 3.428-6.749 0l-8.629-24.263c-.369-1.039-1.101-1.862-2.024-2.278l-21.556-9.711c-3.045-1.372-3.045-6.224 0-7.596l21.556-9.712c.923-.416 1.654-1.239 2.024-2.278l8.629-24.263c1.219-3.428 5.53-3.428 6.749-.001z" fill="#e9c3d9"/><path d="m141.661 5.51 6.401 17.998c.274.771.817 1.381 1.501 1.69l15.99 7.204c2.259 1.018 2.259 4.617 0 5.635l-15.99 7.204c-.685.308-1.227.919-1.501 1.69l-6.401 17.998c-.904 2.543-4.102 2.543-5.006 0l-6.401-17.998c-.274-.771-.817-1.381-1.501-1.69l-15.99-7.204c-2.259-1.018-2.259-4.617 0-5.635l15.99-7.204c.685-.308 1.227-.919 1.501-1.69l6.401-17.998c.904-2.543 4.102-2.543 5.006 0z" fill="#e9c3d9"/><path d="m74.106 27.091c0 4.489-3.639 8.128-8.128 8.128s-8.128-3.639-8.128-8.128 3.639-8.128 8.128-8.128c4.489.001 8.128 3.64 8.128 8.128z" fill="#d88aba"/></g><g><g fill="#3c122c"><path d="m495.689 235.104c-8.371-8.569-20.282-18.321-35.402-28.987-19.888-14.031-39.875-25.836-48.059-30.547-2.103-8.336-7.207-27.695-14.208-48.405-19.319-57.158-33.492-65.686-38.149-68.488-6.648-4.001-12.508-3.681-16.254-2.711-7.577 1.966-13.721 6.722-17.768 13.752-6.099 10.595-6.71 25.333-5.616 38.112-23.06-15.648-46.048-23.66-69.732-24.359-35.971-1.054-72.23 14.55-110.869 47.73-26.308 22.59-49.059 49.18-67.622 79.029-17.426 28.021-30.377 57.568-38.495 87.82-16.507 61.515-10.603 117.124 16.199 152.569 26.923 35.607 78.706 56.649 142.073 57.733 1.73.03 3.456.045 5.188.045 64.113-.001 129.478-20.251 184.622-57.291 43.067-28.928 68.039-60.301 76.344-95.91 5.513-23.639 3.452-48.676-6.319-75.988.757.288 1.511.576 2.284.859 20.995 7.683 36.014 9.082 45.917 4.276 6.316-3.064 10.515-8.683 11.824-15.82 1.801-9.814-3.27-20.433-15.958-33.419zm-125.285 199.336c-51.865 34.838-113.256 53.882-173.417 53.881-1.617 0-3.241-.014-4.857-.042-56.314-.963-103.568-19.568-126.403-49.769-22.7-30.021-27.493-80.585-12.823-135.258 15.759-58.729 52.137-115.888 99.806-156.82 50.436-43.31 94.658-53.902 139.048-32.058-30.365-3.192-50.778-.883-62.349 7.04-6.197 4.243-9.98 10.185-10.941 17.185-2.519 18.355 17.05 39.133 61.585 65.39 23.059 13.595 46.128 24.652 56.063 29.262 1.703 10.83 6.008 36.077 12.816 61.982 13.156 50.065 28.017 74.496 46.768 76.884 1.064.135 2.12.203 3.168.203 5.967 0 11.628-2.187 16.53-6.417 10.83-9.346 18.348-28.995 22.961-60.018 10.353 49.972-11.64 90.729-67.955 128.555zm121.498-169.539c-.195 1.066-.411 1.171-.841 1.379-7.655 3.722-34.125-5.027-54.041-15.527-3.079-1.626-6.78-1.539-9.782.228-3.001 1.767-4.871 4.964-4.942 8.445-.639 31.282-7.272 80.283-20.018 91.279-1.785 1.54-2.999 1.629-4.042 1.496-5.209-.663-17.357-14.451-29.849-61.921-8.545-32.472-13.172-64.979-13.218-65.303-.483-3.427-2.697-6.364-5.859-7.771-.298-.133-30.129-13.454-59.062-30.512-53.153-31.337-51.968-44.806-51.891-45.366.134-.981.518-2.065 2.392-3.349 13.637-9.34 61.742-3.574 91.544 3.505 3.456.82 7.087-.249 9.55-2.807s3.392-6.23 2.442-9.652c-3.701-13.334-7.255-38.51-1.031-49.303 1.349-2.339 2.985-3.669 5.294-4.296.895.274 11.68 4.628 28.615 52.831 9.817 27.942 16.521 55.948 16.587 56.228.651 2.734 2.42 5.072 4.875 6.442.254.142 25.74 14.406 50.204 31.675 43.78 30.905 43.092 42.194 43.073 42.299z"/><path d="m148.979 317.71c-1.82 0-3.618-.821-4.803-2.383-2.01-2.65-1.492-6.428 1.158-8.439l9.676-7.341c2.651-2.009 6.428-1.492 8.439 1.158 2.01 2.65 1.492 6.428-1.158 8.439l-9.676 7.341c-1.089.826-2.368 1.225-3.636 1.225z"/><path d="m233.642 324.133c-1.82 0-3.618-.821-4.803-2.384-2.01-2.65-1.492-6.428 1.159-8.438l9.676-7.34c2.649-2.009 6.428-1.492 8.438 1.159 2.01 2.65 1.491 6.428-1.159 8.438l-9.676 7.34c-1.088.825-2.367 1.225-3.635 1.225z"/><path d="m230.419 372.812c-1.82 0-3.618-.822-4.803-2.383-2.01-2.65-1.492-6.428 1.159-8.438l9.676-7.34c2.649-2.01 6.428-1.492 8.438 1.159 2.01 2.65 1.491 6.428-1.159 8.438l-9.676 7.34c-1.088.825-2.367 1.224-3.635 1.224z"/><path d="m293.727 365.199c-1.82 0-3.618-.821-4.803-2.383-2.01-2.65-1.492-6.428 1.159-8.438l9.677-7.34c2.651-2.01 6.428-1.491 8.438 1.159s1.491 6.428-1.159 8.438l-9.677 7.34c-1.088.825-2.367 1.224-3.635 1.224z"/></g><path d="m191.63 168.021c-3.47 0-6.844-1.801-8.703-5.021-2.772-4.801-1.126-10.94 3.675-13.711 1.525-.88 3.069-1.736 4.59-2.544 4.898-2.601 10.974-.74 13.574 4.155 2.601 4.895.741 10.973-4.155 13.574-1.313.698-2.65 1.439-3.972 2.202-1.581.912-3.306 1.345-5.009 1.345z" fill="#fff"/><path d="m138.819 212.156c-2.45 0-4.906-.891-6.84-2.693-4.056-3.779-4.281-10.13-.502-14.187 6.34-6.805 17.331-17.69 25.216-24.46.699-.601 1.595-1.385 1.89-1.707 1.103-1.205 1.912-1.817 4.304-3.57 4.473-3.278 10.753-2.31 14.031 2.161s2.311 10.752-2.16 14.03c-.907.665-1.368 1.01-1.602 1.19-.608.647-1.426 1.447-3.383 3.127-7.067 6.069-17.552 16.416-23.606 22.914-1.978 2.121-4.66 3.195-7.348 3.195z" fill="#fff"/></g></g></svg>