<svg id="Capa_1" enable-background="new 0 0 512 512" height="512" viewBox="0 0 512 512" width="512" xmlns="http://www.w3.org/2000/svg"><g><g><path d="m433.632 181.184c-46.92 16.303-89.085 17.635-94.179 2.976s28.814-39.759 75.734-56.062c23.46-8.151 76.464-11.435 81.075 1.836 4.612 13.272-39.17 43.099-62.63 51.25z" fill="#a1e8c3"/><path d="m329.194 76.34c-16.484 46.857-17.98 89.016-3.341 94.167 14.639 5.15 39.87-28.659 56.355-75.516 8.502-24.167 13.768-80.18-.158-84.223-13.074-3.796-44.874 42.882-52.856 65.572z" fill="#a1e8c3"/><path d="m409.614 164.29c-4.321-12.437 52.493-52.494 5.573-36.192-46.92 16.303-80.827 41.402-75.734 56.062 5.093 14.659 47.259 13.327 94.179-2.976 6.996-2.431 13.469-4.982 19.424-7.61-21.557 4.609-39.821 1.135-43.442-9.284z" fill="#85adc2"/><path d="m346.315 93.107c-9.16-3.222-12.281-19.118-8.512-38.201-2.976 6.495-5.866 13.639-8.609 21.434-16.484 46.857-17.98 89.016-3.341 94.166s39.87-28.659 56.355-75.516c16.484-46.856-24.58 2.097-35.893-1.883z" fill="#85adc2"/><path d="m423.006 136.963c-35.322 35.185-75.743 51.875-90.284 37.277-14.541-14.597 2.306-54.954 37.627-90.139s68.247-44.408 82.788-29.811c14.542 14.599 5.191 47.488-30.131 82.673z" fill="#ccf3e2"/><path d="m360.534 144.152c-12.991-13.042 2.818-47.976 21.005-70.399-3.691 3.163-7.425 6.6-11.19 10.35-35.322 35.185-52.168 75.542-37.627 90.139s54.962-2.092 90.284-37.277c3.764-3.75 7.216-7.471 10.393-11.15-22.493 18.099-59.874 31.378-72.865 18.337z" fill="#b1b6e1"/><path d="m371.296 210.725c17.614 38.048 12.422 79.984-65.622 151.138-107.879 98.355-252.876 165.74-285.645 130.921-32.77-34.82 37.788-178.556 131.943-285.196 68.788-77.909 115.925-82.439 151.574-64.995 26.78 12.884 58.826 45.473 67.75 68.132z" fill="#e8a284"/><path d="m371.296 210.725c-8.923-22.659-40.97-55.248-67.75-68.132-32.921-16.109-75.64-13.474-136.159 48.379 47.11-45.765 79.726-48.43 104.589-36.971 21.041 9.519 45.717 34.64 52.191 52.498 12.974 29.909 7.594 63.595-56.907 122.777-89.158 81.806-207.097 139.934-232.287 113.05-14.018-14.961-1.447-57.836 25.969-108.09-41.27 71.71-61.517 136.656-40.914 158.548 32.77 34.82 177.767-32.566 285.645-130.921 78.045-71.154 83.236-113.091 65.623-151.138z" fill="#d57b84"/><path d="m179.7 23.26 8.237 23.16c.353.991 1.051 1.777 1.932 2.174l20.577 9.271c2.907 1.31 2.907 5.941 0 7.251l-20.577 9.271c-.881.397-1.579 1.183-1.932 2.174l-8.237 23.16c-1.164 3.272-5.279 3.272-6.443 0l-8.237-23.16c-.353-.992-1.051-1.777-1.932-2.174l-20.577-9.271c-2.907-1.31-2.907-5.941 0-7.251l20.577-9.271c.881-.397 1.579-1.183 1.932-2.174l8.237-23.16c1.165-3.272 5.28-3.272 6.443 0z" fill="#f0c6b5"/><path d="m60.602 161.474 6.11 17.18c.262.736.78 1.318 1.433 1.613l15.264 6.877c2.156.971 2.156 4.407 0 5.379l-15.264 6.877c-.653.294-1.171.877-1.433 1.613l-6.11 17.18c-.863 2.427-3.916 2.427-4.779 0l-6.11-17.18c-.262-.736-.779-1.318-1.433-1.613l-15.264-6.877c-2.156-.971-2.156-4.407 0-5.379l15.264-6.877c.654-.294 1.171-.877 1.433-1.613l6.11-17.18c.864-2.428 3.916-2.428 4.779 0z" fill="#f0c6b5"/><ellipse cx="454.844" cy="269.55" fill="#e9a385" rx="17.985" ry="17.985" transform="matrix(.19 -.982 .982 .19 103.894 664.993)"/><path d="m79.957 92.836c0 4.285-3.474 7.758-7.758 7.758s-7.758-3.474-7.758-7.758c0-4.285 3.473-7.758 7.758-7.758s7.758 3.474 7.758 7.758z" fill="#e9a385"/><path d="m401.294 336.282 8.237 23.16c.353.992 1.051 1.777 1.932 2.174l20.577 9.271c2.907 1.31 2.907 5.941 0 7.251l-20.577 9.271c-.881.397-1.579 1.183-1.932 2.174l-8.237 23.16c-1.164 3.272-5.279 3.272-6.443 0l-8.237-23.16c-.353-.992-1.051-1.777-1.932-2.174l-20.577-9.271c-2.907-1.31-2.907-5.941 0-7.251l20.577-9.271c.881-.397 1.579-1.183 1.932-2.174l8.237-23.16c1.164-3.272 5.279-3.272 6.443 0z" fill="#f0c6b5"/></g><g><path d="m262.097 181.844c-4.184 0-8.087-2.639-9.499-6.823-1.771-5.247 1.046-10.936 6.293-12.708 1.857-.627 3.737-1.209 5.587-1.73 5.33-1.501 10.868 1.605 12.369 6.935 1.501 5.331-1.604 10.868-6.935 12.369-1.523.428-3.072.908-4.606 1.426-1.064.361-2.146.531-3.209.531z" fill="#fff"/><path d="m182.566 238.875c-2.547 0-5.095-.964-7.049-2.897-3.938-3.893-3.974-10.242-.08-14.18 12.307-12.447 31.088-30.521 52.013-43.717 4.684-2.954 10.876-1.552 13.83 3.132s1.552 10.876-3.132 13.83c-19.181 12.097-36.838 29.11-48.451 40.854-1.961 1.984-4.545 2.978-7.131 2.978z" fill="#fff"/><g fill="#3c122c"><path d="m508.88 125.291c-5.119-14.732-23.201-20.803-49.991-17.948 3.099-5.511 5.572-10.93 7.37-16.195 6.216-18.195 4.079-33.798-6.017-43.934-12.83-12.879-33.494-12.533-56.704-.623.244-3.322.344-6.509.288-9.538-.475-25.621-11.762-33.392-18.448-35.744-22.189-7.803-47.338 19.672-65.643 71.703-7.444 21.159-12.172 42.095-13.551 59.732-22.35-10.427-45.043-11.367-69.309-2.876-28.878 10.104-59.109 33.355-92.419 71.083-46.399 52.551-88.358 115.201-115.12 171.886-20.72 43.889-40.421 101.517-16.609 126.818 8.388 8.914 20.945 12.345 35.311 12.345 29.473 0 66.554-14.444 90.842-25.629 57.927-26.675 121.184-69.356 173.55-117.099 38.031-34.674 61.367-64.748 71.34-91.941 8.838-24.096 7.804-46.525-3.255-70.56-.39-.975-.827-1.967-1.285-2.967 17.196-1.51 37.337-6.077 57.694-13.149 52.102-18.103 79.675-43.149 71.956-65.364zm-73.508-67.598c4.599 0 8.245 1.248 10.662 3.675 5.966 5.988 3.342 17.166 1.248 23.297-4.663 13.65-15.798 29.7-31.352 45.194-16.174 16.111-33.819 28.592-49.685 35.143-4.402 1.817-8.541 3.076-12.23 3.788-4.995-5.248-10.369-10.323-15.922-15.011.694-3.883 2.03-8.31 3.998-13.025 6.613-15.84 19.162-33.437 35.335-49.548 23.003-22.914 44.538-33.513 57.946-33.513zm-96.72 21.975c15.535-44.157 33.096-59.582 39.168-59.582.337 0 .638.048.903.14 1.915.674 4.841 5.81 5.052 17.199.126 6.769-.727 14.763-2.469 23.575-5.982 4.67-12.019 10.007-18.033 15.998-15.441 15.382-27.998 32.216-36.057 48.191 1.686-12.389 5.165-27.694 11.436-45.521zm26.29 190.758c-8.836 24.092-30.433 51.578-66.024 84.027-50.905 46.411-112.295 87.854-168.427 113.702-61.727 28.425-94.151 27.33-103.161 17.756-9.401-9.989-9.046-42.69 20.14-104.512 8.06-17.072 17.549-34.71 28.151-52.448l50.297 41.578c1.87 1.546 4.133 2.299 6.383 2.299 2.886 0 5.751-1.24 7.734-3.639 3.528-4.268 2.928-10.589-1.339-14.117l-52.443-43.352c10.394-16.343 21.648-32.641 33.517-48.535l62.338 52.948c1.886 1.602 4.192 2.385 6.486 2.385 2.841 0 5.664-1.201 7.647-3.536 3.585-4.221 3.07-10.548-1.151-14.133l-63.104-53.598c8.918-11.334 18.114-22.392 27.503-33.026 30.548-34.598 58.813-56.611 84.009-65.427 8.618-3.015 16.966-4.526 25.141-4.526 10.405 0 20.527 2.448 30.56 7.357 24.129 11.609 54.633 42.114 62.767 62.77l.231.538c8.912 19.253 9.759 36.366 2.745 55.489zm65.399-98.713c-24.309 8.447-43.921 11.734-57.846 12.383.468-.186.932-.362 1.404-.557 18.239-7.531 38.192-21.548 56.184-39.471 4.514-4.497 8.682-9.02 12.487-13.538 30.568-7.088 45.954-2.724 47.368 1.343 1.745 5.024-12.925 23.623-59.597 39.84z"/><path d="m258.616 362.976c-.426 0-.859-.046-1.292-.141-3.246-.711-5.301-3.917-4.591-7.163l2.301-10.516c.71-3.246 3.915-5.304 7.163-4.591 3.246.71 5.301 3.917 4.591 7.163l-2.301 10.516c-.615 2.813-3.105 4.732-5.871 4.732z"/><path d="m224.746 386.535c-.426 0-.859-.046-1.292-.141-3.246-.71-5.301-3.917-4.591-7.163l2.301-10.516c.71-3.245 3.916-5.302 7.163-4.591 3.246.71 5.301 3.917 4.591 7.163l-2.301 10.516c-.615 2.813-3.105 4.732-5.871 4.732z"/><path d="m137.328 435.787c-.426 0-.859-.046-1.292-.141-3.246-.71-5.301-3.917-4.591-7.163l2.301-10.516c.71-3.245 3.915-5.303 7.163-4.591 3.246.71 5.301 3.917 4.591 7.163l-2.301 10.516c-.615 2.813-3.106 4.732-5.871 4.732z"/></g></g></g></svg>