<svg id="Capa_1" enable-background="new 0 0 512 512" height="512" viewBox="0 0 512 512" width="512" xmlns="http://www.w3.org/2000/svg"><g><g><path d="m244.811 155.033h-9.581c-13.605 0-24.634-11.029-24.634-24.634v-91.97c0-13.605 11.029-24.634 24.634-24.634h9.581c13.605 0 24.634 11.029 24.634 24.634v91.97c0 13.605-11.029 24.634-24.634 24.634z" fill="#ccf3e2"/><path d="m373.684 139.09-43.129-9.631c-.199-.044-.397-.081-.595-.124-15.024-16.436-35.464-26.612-58.129-26.612h-48.384c-22.766 0-43.289 10.266-58.331 26.831l-41.886 8.277c-43.627 8.621-71.603 57.536-60.801 106.309l40.846 184.429c9.726 43.914 47.629 71.875 86.91 64.113l8.108-1.602c11.632 6.912 24.841 10.82 38.809 10.82h21.075c13.747 0 26.764-3.774 38.261-10.482l3.474.776c39.122 8.737 77.554-18.276 88.124-61.939l44.388-183.37c11.737-48.494-15.29-98.093-58.74-107.795z" fill="#d789b9"/><path d="m373.684 139.09-42.707-9.537c.439.79.852 1.591 1.273 2.388-15.203-17.959-36.58-29.219-60.42-29.219h-27.729c38.522 0 68.92 37.185 66.067 80.814l-10.791 164.98c-2.569 39.283-31.383 69.667-66.067 69.667h-16.654c-27.132 0-50.669-18.594-60.864-45.494v-49.064c-6.594-33.663-14.267-67.534-15.018-101.968-.589-26.973 4.003-53.42 15.018-77.637v-12.468l-33.756 7.538c-21.361 4.77-23.16 12.871-23.16 12.871 11.896-3.155 19.314 58.585 20.601 77.899 1.288 19.314 12.046 136.217 12.046 136.217 5.034 31.311.644 57.725-10.067 60.566l-5.143 1.364c-3.193.847-6.626-.501-10.046-3.608l1.418 5.856c9.801 40.488 43.563 66.637 79.614 63.262v-7.258c-2.042-2.83-4.041-5.69-6.015-8.565 14.869 15.081 34.456 24.206 55.817 24.206h21.075c20.432 0 39.249-8.34 53.86-22.262-2.697 4.528-5.566 8.954-8.664 13.23 37.905 6.447 74.405-20.24 84.663-62.614l1.418-5.856c-3.421 3.107-6.853 4.456-10.046 3.608l-5.143-1.364c-10.711-2.841-15.101-29.255-10.067-60.566 0 0 10.758-116.903 12.046-136.217 1.287-19.314 8.706-81.054 20.601-77.899 0 .001-1.799-8.101-23.16-12.87zm-217.893 294.831v-4.119c.304 1.386.635 2.759.991 4.119z" fill="#c668b9"/><path d="m479.473 79.11 6.578 18.497c.282.792.839 1.42 1.543 1.736l16.434 7.404c2.322 1.046 2.322 4.745 0 5.791l-16.434 7.404c-.703.317-1.261.944-1.543 1.736l-6.578 18.497c-.929 2.613-4.216 2.613-5.145 0l-6.578-18.497c-.282-.792-.839-1.42-1.543-1.736l-16.434-7.404c-2.322-1.046-2.322-4.745 0-5.791l16.434-7.404c.704-.317 1.261-.945 1.543-1.736l6.578-18.497c.929-2.613 4.216-2.613 5.145 0z" fill="#e9c3d9"/><circle cx="398.039" cy="42.974" fill="#d88aba" r="8.353"/><path d="m48.617 2.642 8.868 24.936c.38 1.068 1.131 1.914 2.08 2.341l22.155 9.981c3.13 1.41 3.13 6.397 0 7.807l-22.155 9.981c-.949.427-1.7 1.273-2.08 2.341l-8.868 24.936c-1.253 3.523-5.683 3.523-6.936 0l-8.868-24.935c-.38-1.068-1.131-1.914-2.08-2.341l-22.155-9.981c-3.13-1.41-3.13-6.397 0-7.807l22.155-9.981c.949-.427 1.7-1.273 2.08-2.341l8.868-24.936c1.253-3.524 5.684-3.524 6.936-.001z" fill="#e9c3d9"/></g><g><g fill="#3c122c"><path d="m429.732 168.656c-12.774-20.522-31.897-34.523-53.846-39.424l-40.717-9.092c-15.43-15.812-34.889-25.274-55.623-27.161v-54.304c0-19.288-15.693-34.98-34.98-34.98h-9.088c-19.288 0-34.98 15.693-34.98 34.98v57.11c-15.011 4.212-28.907 12.548-40.514 24.485l-38.711 7.65c-22.016 4.351-41.398 17.851-54.574 38.012-15.158 23.194-20.309 52.495-14.13 80.39l40.845 184.429c5.232 23.623 18.101 44 36.238 57.379 14.216 10.488 30.626 15.945 47.372 15.945 5.025 0 10.084-.491 15.119-1.487l4.404-.87c12.528 6.723 26.337 10.28 40.555 10.28h21.075c13.938 0 27.48-3.423 39.811-9.891 5.562 1.221 11.156 1.828 16.72 1.828 16.089 0 31.906-5.049 45.781-14.8 18.404-12.937 31.673-33.004 37.363-56.506l44.388-183.37c6.701-27.687 2.143-57.066-12.508-80.603zm-209.036-129.981c0-8.15 6.63-14.78 14.78-14.78h9.088c8.15 0 14.78 6.63 14.78 14.78v53.947h-35.899c-.919 0-1.835.02-2.75.049v-53.996zm-107.561 387.71-40.845-184.429c-5.01-22.62-.885-46.301 11.316-64.971 10.177-15.571 24.944-25.958 41.581-29.246l17.381-3.434c-9.661 18.285-14.224 39.586-12.801 61.337l13.655 208.762c1.726 26.39 12.136 50.898 29.311 69.009.079.084.161.164.24.247-27.866-2.13-52.655-24.844-59.838-57.275zm123.966 65.415c-38.339 0-70.633-34.575-73.521-78.714l-13.655-208.762c-1.701-26.019 6.866-51.131 23.507-68.895 13.656-14.578 31.418-22.607 50.014-22.607h48.385c18.596 0 36.358 8.029 50.013 22.606 16.642 17.765 25.209 42.876 23.507 68.896l-13.655 208.762c-2.887 44.138-35.181 78.714-73.521 78.714zm185.504-247.292-44.388 183.37c-7.277 30.063-29.713 51.291-55.335 55.16 16.968-18.074 27.257-42.422 28.971-68.634l13.655-208.762c1.41-21.551-3.059-42.657-12.537-60.828l18.511 4.134c16.617 3.711 31.213 14.501 41.101 30.384 11.806 18.964 15.459 42.72 10.022 65.176z"/><path d="m269.985 463.953c-2.223 0-4.363-1.227-5.425-3.351-1.497-2.994-.284-6.634 2.709-8.13.09-.048 13.7-7.364 22.924-30.425 8.14-20.352 11.308-103.328 11.842-133.583.059-3.347 2.862-6.04 6.166-5.953 3.347.059 6.012 2.82 5.953 6.166-.08 4.532-2.08 111.303-12.706 137.871-11.066 27.662-28.041 36.405-28.758 36.763-.869.435-1.794.642-2.705.642z"/><path d="m308.101 264.885c-.12 0-.241-.003-.362-.011-3.341-.196-5.891-3.065-5.693-6.405l1.586-26.949c.196-3.342 3.085-5.913 6.405-5.693 3.341.196 5.89 3.064 5.693 6.405l-1.586 26.949c-.189 3.219-2.859 5.704-6.043 5.704z"/></g><path d="m191.467 296.352c-4.912 0-9.218-3.588-9.974-8.593-4.484-29.692-5.427-58.484-2.803-85.577.538-5.551 5.458-9.62 11.026-9.079 5.552.537 9.617 5.474 9.079 11.026-2.463 25.441-1.564 52.563 2.671 80.613.833 5.516-2.963 10.662-8.479 11.495-.51.078-1.018.115-1.52.115z" fill="#fff"/><path d="m198.25 173.928c-1.648 0-3.32-.404-4.866-1.256-4.885-2.693-6.664-8.836-3.972-13.721 3.2-5.805 7.203-12.388 14.26-17.015 4.664-3.062 10.926-1.759 13.984 2.906 3.06 4.664 1.759 10.926-2.906 13.984-3.194 2.095-5.352 5.711-7.645 9.874-1.84 3.34-5.293 5.228-8.855 5.228z" fill="#fff"/></g></g></svg>