<svg id="Capa_1" enable-background="new 0 0 512 512" height="512" viewBox="0 0 512 512" width="512" xmlns="http://www.w3.org/2000/svg"><g><g><path d="m289.498 198.116-2.269-.144c-9.945-.63-17.495-9.203-16.864-19.148l5.835-92.033c.631-9.945 9.203-17.495 19.148-16.865l2.269.144c9.945.631 17.495 9.203 16.864 19.148l-5.835 92.033c-.631 9.945-9.204 17.495-19.148 16.865z" fill="#c49a8b"/><path d="m455.89 341.538c-31.315 99.759-84.676 160.397-171.464 160.397-86.789 0-147.936-74.44-165.623-178.065-8.142-47.705-18.048-147.887 46.783-179.691s120.976 4.386 120.976 4.386 79.363-36.829 129.953-2.259c63.796 43.593 50.468 159.895 39.375 195.232z" fill="#c2b2eb"/><path d="m416.515 146.305c-26.054-17.803-59.739-16.67-86.285-11.383 5.764 1.792 11.334 4.351 16.511 7.888 49.135 33.576 38.87 123.151 30.327 150.368-24.119 76.834-65.217 123.537-132.062 123.537s-113.94-57.334-127.563-137.146c-1.631-9.555-3.351-21.846-4.129-35.231-1.711 29.801 2.046 59.358 5.489 79.53 17.687 103.626 78.834 178.066 165.622 178.066 86.789 0 140.149-60.637 171.465-160.397 11.093-35.336 24.421-151.638-39.375-195.232z" fill="#ae85ea"/><circle cx="208.865" cy="72.49" fill="#9882de" r="7.788"/><path d="m86.063 2.463 8.268 23.249c.354.995 1.055 1.784 1.939 2.183l20.656 9.306c2.918 1.315 2.918 5.964 0 7.279l-20.656 9.306c-.884.398-1.585 1.187-1.939 2.183l-8.268 23.249c-1.168 3.285-5.299 3.285-6.467 0l-8.268-23.249c-.354-.996-1.055-1.784-1.939-2.183l-20.656-9.306c-2.918-1.315-2.918-5.964 0-7.279l20.656-9.306c.884-.399 1.585-1.187 1.939-2.183l8.268-23.249c1.168-3.284 5.299-3.284 6.467 0z" fill="#c3b3ec"/><path d="m428.191 40.058 6.133 17.246c.263.738.783 1.324 1.438 1.619l15.322 6.903c2.165.975 2.165 4.424 0 5.399l-15.322 6.903c-.656.296-1.176.881-1.438 1.619l-6.133 17.246c-.866 2.437-3.931 2.437-4.797 0l-6.133-17.246c-.263-.738-.782-1.323-1.439-1.619l-15.322-6.903c-2.165-.975-2.165-4.424 0-5.399l15.322-6.903c.656-.296 1.176-.881 1.439-1.619l6.133-17.246c.867-2.436 3.931-2.436 4.797 0z" fill="#c3b3ec"/><circle cx="50.621" cy="175.576" fill="#9882de" r="13.867"/></g><g><path d="m474.317 246.179c-4.21-50.351-22.233-87.76-52.123-108.185-32.512-22.216-74.577-18.073-104.074-10.724l2.381-37.552c.409-6.451-1.718-12.675-5.991-17.526s-10.178-7.748-16.63-8.157l-2.033-.129c-6.45-.397-12.675 1.719-17.526 5.991s-7.748 10.178-8.158 16.629l-2.679 42.27c-24.06-8.288-63.272-14.776-106.331 6.346-31.379 15.393-50.321 46.213-56.303 91.603-3.711 28.161-2.354 61.408 4.031 98.817 9.217 54.003 29.733 99.967 59.331 132.924 31.441 35.01 71.627 53.514 116.214 53.514 44.544 0 82.763-15.367 113.591-45.677 28.074-27.6 50.776-68.57 67.477-121.771 6.484-20.654 12.01-60.248 8.823-98.373zm-192.098-158.888c.204-3.231 1.655-6.19 4.085-8.33 2.431-2.139 5.551-3.199 8.78-3l2.034.129c3.231.204 6.189 1.655 8.328 4.085 2.14 2.429 3.206 5.547 3 8.778l-2.647 41.75c-8.05 2.485-14.487 4.943-18.589 6.625-2.048-1.099-4.712-2.439-7.918-3.874zm164.068 251.231c-32.391 103.187-85.337 153.347-161.861 153.347-78.175 0-137.836-65.022-155.701-169.693-8.747-51.245-15.014-141.338 41.294-168.961 16.412-8.051 33.498-12.088 51.047-12.088 8.674 0 17.464.987 26.335 2.964 17.898 3.987 30.284 10.901 33.097 12.565-9.468 15.137-15.083 38.265-16.743 69.203-1.869 34.823 1.997 66.584 2.164 67.919.379 3.058 2.981 5.296 5.985 5.296.248 0 .498-.015.75-.046 3.31-.41 5.661-3.426 5.251-6.735-3.915-31.656-7.121-112.362 19.273-137.232 19.018-7.372 76.24-26.014 113.659-.444 31.227 21.338 40.847 62.483 43.419 93.241 3.409 40.776-3.722 77.136-7.969 90.664z" fill="#3c122c"/><path d="m160.782 286.413c-5.107 0-9.582-3.736-10.358-8.94-.645-4.316-1.183-8.562-1.6-12.621-.593-5.761 3.597-10.912 9.358-11.505 5.762-.59 10.911 3.596 11.505 9.358.385 3.743.884 7.67 1.48 11.672.855 5.728-3.095 11.065-8.823 11.919-.526.079-1.048.117-1.562.117z" fill="#fff"/><path d="m159.693 233.227c-.398 0-.8-.023-1.205-.069-5.754-.658-9.885-5.857-9.226-11.611 2.973-25.97 17.674-46.236 39.325-54.213.102-.038.205-.075.309-.109 11.94-3.979 25.04-4.551 35.045-1.529 5.545 1.675 8.682 7.526 7.007 13.07s-7.524 8.676-13.07 7.007c-5.795-1.751-14.488-1.24-22.193 1.297-13.98 5.224-23.541 18.991-25.586 36.862-.613 5.349-5.148 9.295-10.406 9.295z" fill="#fff"/><g fill="#3c122c"><path d="m330.852 343.161c-3.475 0-6.292-2.817-6.292-6.292v-12.688c0-3.475 2.817-6.292 6.292-6.292s6.292 2.817 6.292 6.292v12.688c0 3.475-2.817 6.292-6.292 6.292z"/><path d="m373.192 312.515c-3.475 0-6.292-2.817-6.292-6.292v-12.689c0-3.475 2.817-6.292 6.292-6.292s6.292 2.817 6.292 6.292v12.689c0 3.475-2.817 6.292-6.292 6.292z"/><path d="m388.112 371.791c-3.475 0-6.292-2.817-6.292-6.292v-12.688c0-3.475 2.817-6.292 6.292-6.292s6.292 2.817 6.292 6.292v12.689c0 3.474-2.817 6.291-6.292 6.291z"/><path d="m306.555 421.771c-3.475 0-6.292-2.817-6.292-6.292v-12.688c0-3.475 2.817-6.292 6.292-6.292s6.292 2.817 6.292 6.292v12.688c0 3.475-2.817 6.292-6.292 6.292z"/></g></g></g></svg>