<svg id="Capa_1" enable-background="new 0 0 512 512" height="512" viewBox="0 0 512 512" width="512" xmlns="http://www.w3.org/2000/svg"><g><g><path d="m259.46 70c1.517-1.315 17.235-2.018 22.53-4.287 4.418-1.893 4.274-37.302-1.73-40.039-5.077-2.315-174.494-.802-179.661 6.156-4.388 5.909-.405 36.259 4.617 40.017 4.56 3.412 96.963 1.539 96.963 1.539-73.877 67.72-107.737 220.091-107.737 220.091l41.556 7.695c22.27-115.4 65.901-173.193 95.822-203.961 13.573 36.947 90.486 167.821 111.798 179.777l43.153-10.464c-37.999-25.926-106.298-149.104-127.311-196.524z" fill="#a2e9c4"/><path d="m232.088 388.174c-6.734 61.126-61.745 105.219-122.871 98.485s-105.219-61.746-98.485-122.871c6.734-61.126 59.606-85.802 120.732-79.068s107.358 42.328 100.624 103.454z" fill="#d789b9"/><path d="m143.848 283.128c19.296 17.471 43.628 47.374 42.151 78.897-3.242 69.17-58.628 95.167-119.967 90.786-15.131-1.081-35.057-16.646-41.07-18.374 16.614 14.686 60.539 49.607 84.256 52.22 61.126 6.734 116.137-37.359 122.871-98.485 5.514-50.064-43.611-91.063-88.241-105.044z" fill="#c668b9"/><path d="m487.756 277.722c30.069 53.643 10.958 121.505-42.685 151.574s-121.505 10.958-151.574-42.685-1.406-104.465 52.237-134.533c53.643-30.07 111.954-27.999 142.022 25.644z" fill="#d789b9"/><path d="m487.756 277.721c-20.165-35.974-68.332-43.458-103.974-38.905 16.156 6.948 42.441 21.058 52.959 39.989 27.02 48.635 1.081 110.24-48.636 131.856-21.738 9.451-51.003 9.372-65.928 10.808 29.167 10.298 93.791 24.139 122.893 7.826 53.644-30.069 72.755-97.93 42.686-151.574z" fill="#c668b9"/><path d="m473.506 118.044 8.822 24.805c.378 1.062 1.125 1.903 2.069 2.329l22.038 9.929c3.113 1.403 3.113 6.363 0 7.766l-22.038 9.929c-.944.425-1.691 1.267-2.069 2.329l-8.822 24.804c-1.246 3.504-5.654 3.504-6.9 0l-8.822-24.804c-.378-1.062-1.125-1.904-2.069-2.329l-22.038-9.929c-3.113-1.403-3.113-6.363 0-7.766l22.038-9.929c.944-.425 1.691-1.267 2.069-2.329l8.822-24.805c1.246-3.504 5.654-3.504 6.9 0z" fill="#e9c3d9"/><path d="m45.941 84.017 6.544 18.399c.28.788.835 1.412 1.535 1.727l16.347 7.365c2.31 1.041 2.31 4.72 0 5.761l-16.347 7.365c-.7.315-1.255.94-1.535 1.727l-6.544 18.4c-.924 2.6-4.194 2.6-5.118 0l-6.544-18.4c-.28-.788-.835-1.412-1.535-1.727l-16.347-7.365c-2.309-1.041-2.309-4.72 0-5.761l16.347-7.365c.7-.315 1.255-.94 1.535-1.727l6.544-18.399c.924-2.599 4.194-2.599 5.118 0z" fill="#e9c3d9"/><g fill="#d88aba"><ellipse cx="383.829" cy="105.469" rx="14.263" ry="14.263" transform="matrix(.993 -.122 .122 .993 -10.011 47.688)"/><path d="m451.605 38.569c0 4.589-3.72 8.309-8.309 8.309s-8.309-3.72-8.309-8.309 3.72-8.309 8.309-8.309 8.309 3.72 8.309 8.309z"/></g></g><g><path d="m496.52 272.809c-26.208-46.755-75.572-61.69-130.121-41.415-31.691-40.119-71.608-110.203-92.327-153.691 4.975-.715 8.896-1.479 11.875-2.756 6.331-2.713 8.984-9.992 9.156-25.122.324-28.278-7.956-32.052-10.676-33.293-2.247-1.025-3.871-1.765-33.61-1.899-17.644-.079-39.72.138-60.576.596-16.931.372-41.216 1.082-60.757 2.351-29.453 1.914-33.705 3.885-36.953 8.26-3.733 5.027-4.785 14.456-3.126 28.023 2.516 20.582 7.991 24.68 9.791 26.027 3.213 2.404 5.518 4.132 56.229 4.052 7.932-.014 15.833-.076 22.831-.153-24.91 29.075-47.398 69.798-67.04 121.466-11.011 28.963-18.449 54.474-22.597 70.061-16.038 2.427-30.575 7.396-43.071 14.864-25.782 15.408-41.274 40.48-44.803 72.506-3.551 32.231 5.662 63.915 25.942 89.216 20.28 25.302 49.198 41.191 81.429 44.742 4.5.495 8.958.737 13.384.737 61.025 0 113.74-46.073 120.574-108.108 3.528-32.027-6.135-59.87-27.943-80.52-15.833-14.991-37.316-25.548-62.827-31.008 16.028-67.71 41.498-121.137 77.404-162.328 10.038 21.415 27.918 53.998 47.522 86.269 11.94 19.656 26.212 42.045 38.89 58.975-43.983 35.812-56.172 84.86-30.387 130.861 22.234 39.665 63.567 62.019 106.098 62.016 20.077-.001 40.427-4.984 59.152-15.479 58.39-32.729 79.266-106.86 46.537-165.25zm-274.419 114.264c-6.117 55.522-56.257 95.721-111.785 89.599-26.896-2.963-51.028-16.223-67.951-37.336-16.923-21.114-24.611-47.553-21.647-74.449 2.853-25.898 14.674-45.23 35.136-57.457 15.22-9.096 34.408-13.758 56.212-13.758 5.915 0 12.025.343 18.297 1.035 29.395 3.238 53.585 13.141 69.952 28.639 17.31 16.388 24.64 37.829 21.786 63.727zm71.302-195.819c-23.942-39.413-45.876-80.421-52.153-97.508-1.191-3.241-3.962-5.644-7.339-6.362-3.378-.719-6.887.347-9.294 2.822-44.27 45.525-74.87 106.039-93.211 184.418-7.343-.765-14.504-1.094-21.458-1.006 12.311-44.067 44.752-143.081 99.02-192.826 3.081-2.825 4.092-7.262 2.537-11.143-1.555-3.88-5.374-6.391-9.53-6.308-36.865.747-78.053.75-90.363-.418-1.825-5.543-3.214-17.118-2.826-23.194 8.617-1.387 32.704-3.369 83.861-4.452 38.599-.817 70.035-.645 81.317-.142 1.147 5.689 1.339 16.423.603 22.153-2.525.443-5.708.854-7.78 1.122-7.505.971-10.93 1.414-13.912 4-3.335 2.893-4.391 7.624-2.602 11.66 14.83 33.468 58.729 115.725 97.19 165.687-2.21 1.131-4.424 2.312-6.643 3.556-3.237 1.815-6.361 3.688-9.383 5.611-9.585-12.876-22.479-32.063-38.034-57.67zm146.755 229.277c-15.628 8.76-32.604 12.918-49.361 12.918-35.489-.001-69.985-18.655-88.537-51.752-29.477-52.588 5.667-96.912 48.385-120.857 19.216-10.771 41.144-18.082 62.145-18.082 25.686 0 49.983 10.943 66.2 39.875 27.314 48.726 9.893 110.586-38.832 137.898z" fill="#3c122c"/><g fill="#fff"><path d="m93.148 330.354c-4.396 0-8.432-2.907-9.672-7.349-1.491-5.345 1.632-10.886 6.976-12.378 1.853-.517 3.772-.981 5.704-1.377 5.436-1.115 10.746 2.386 11.861 7.822 1.116 5.436-2.387 10.746-7.822 11.862-1.476.303-2.938.655-4.342 1.047-.902.253-1.811.373-2.705.373z"/><path d="m48.52 387.49c-.05 0-.1-.001-.15-.001-5.548-.081-9.98-4.645-9.899-10.193.185-12.665 6.51-35.838 19.993-47.699 4.165-3.665 10.514-3.259 14.179.908 3.665 4.166 3.259 10.514-.908 14.179-7.849 6.905-13.044 24.101-13.173 32.905-.08 5.499-4.562 9.901-10.042 9.901z"/><path d="m339.335 316.882c-2.215 0-4.445-.729-6.304-2.23-4.318-3.485-4.993-9.81-1.507-14.128 1.207-1.496 2.5-2.987 3.842-4.432 3.775-4.065 10.132-4.301 14.199-.523 4.065 3.776 4.3 10.133.523 14.199-1.027 1.105-2.012 2.242-2.929 3.377-1.985 2.459-4.892 3.737-7.824 3.737z"/><path d="m336.204 389.321c-3.187 0-6.321-1.513-8.272-4.332-7.206-10.417-15.517-32.954-11.431-50.44 1.262-5.403 6.669-8.759 12.069-7.497 5.404 1.262 8.76 6.666 7.498 12.07-2.378 10.179 3.381 27.195 8.39 34.437 3.157 4.563 2.016 10.822-2.547 13.978-1.744 1.205-3.736 1.784-5.707 1.784z"/></g><path d="m432.898 361.349c-3.329 0-6.028-2.699-6.028-6.028v-12.156c0-3.329 2.699-6.028 6.028-6.028s6.028 2.699 6.028 6.028v12.156c0 3.329-2.699 6.028-6.028 6.028z" fill="#3c122c"/><path d="m459.57 342.797c-3.329 0-6.028-2.699-6.028-6.028v-12.156c0-3.329 2.699-6.028 6.028-6.028s6.028 2.699 6.028 6.028v12.156c0 3.329-2.699 6.028-6.028 6.028z" fill="#3c122c"/><path d="m164.529 403.924c-3.329 0-6.028-2.699-6.028-6.028v-12.156c0-3.329 2.699-6.028 6.028-6.028s6.028 2.699 6.028 6.028v12.156c0 3.329-2.699 6.028-6.028 6.028z" fill="#3c122c"/></g></g></svg>