<svg id="Capa_1" enable-background="new 0 0 512 512" height="512" viewBox="0 0 512 512" width="512" xmlns="http://www.w3.org/2000/svg"><g><g><path d="m494.052 254.653c-9.935-12.778-29.92-17.336-29.92-17.336s16.518-16.09 18.544-24.973-31.773-90.549-52.548-100.937c-11.694-5.846-27.107 2.231-41.941 14.798-4.549-4.965-9.999-9.27-16.312-12.618l-17.736-9.407c3.234-14.114 2.989-26.44-3.729-33.77-25.054-27.331-108.188-23.915-148.047-20.499-19.645 1.684-24.348 31.031-24.069 60.364l-.506.039c-19.835 1.525-36.001 16.519-39.014 36.183l-53.071 260.851-34.471 37.633c-8.439 9.214-8.153 23.431.65 32.298l17.383 17.507c9.529 9.528 24.978 9.528 34.506 0l49.922-49.922 79.973-23.044c92.944-1.451 221.406-4.889 228.365-12.842 6.937-7.928 12.577-52.806 12.814-86.502 8.016-1.991 14.309-4.47 17.145-7.555 12.425-13.518 11.996-47.49 2.062-60.268z" fill="#a1e8c3"/><path d="m494.052 254.653c-6.932-8.916-18.751-13.826-25.265-15.982l-33.445 11.386c-4.438-12.012-13.636-21.461-25.013-26.447l3.425 47.566c1.259 17.485-9.349 33.646-25.892 39.447l-190.255 68.11c-12.242 4.382-24.022 9.959-35.171 16.65l-31.706 19.027c-7.962 7.963-20.872 7.963-28.835 0l-14.526-14.63c-.036-.037-.067-.078-.104-.115l-1.563 7.683-34.471 37.634c-8.439 9.213-8.153 23.431.651 32.298l17.383 17.507c9.528 9.529 24.977 9.529 34.506 0l49.922-49.922 79.973-23.043c92.944-1.451 221.406-4.889 228.365-12.842 6.937-7.928 12.577-52.807 12.814-86.502 8.016-1.991 14.309-4.47 17.145-7.555 12.425-13.52 11.996-47.492 2.062-60.27z" fill="#85adc2"/><path d="m29.739 88.576 6.134 17.248c.263.739.783 1.324 1.439 1.619l15.324 6.904c2.165.975 2.165 4.425 0 5.4l-15.324 6.904c-.656.296-1.176.881-1.439 1.619l-6.134 17.248c-.867 2.437-3.931 2.437-4.798 0l-6.134-17.248c-.263-.739-.782-1.324-1.439-1.619l-15.324-6.904c-2.165-.975-2.165-4.425 0-5.4l15.324-6.904c.656-.296 1.176-.881 1.439-1.619l6.134-17.248c.866-2.437 3.931-2.437 4.798 0z" fill="#cdf4e3"/><g fill="#a2e9c4"><ellipse cx="137.44" cy="14.291" rx="14.291" ry="14.291" transform="matrix(.924 -.383 .383 .924 4.993 53.684)"/><ellipse cx="70.212" cy="196.741" rx="7.789" ry="7.789" transform="matrix(.16 -.987 .987 .16 -135.235 234.531)"/></g></g><g><g fill="#3c122c"><path d="m501.999 248.474c-5.601-7.204-13.37-12.171-20.245-15.46 4.751-5.801 9.418-12.65 10.736-18.431.684-3.002.938-7.553-4.759-23.655-3.502-9.898-8.36-21.543-13.679-32.792-10.177-21.521-25.277-48.66-39.424-55.734-12.701-6.35-27.845-2.918-45.88 10.474-3.735-3.122-7.804-5.874-12.158-8.183l-11.174-5.927c2.296-15.503-.238-27.144-7.586-35.159-12.878-14.049-37.46-22.231-75.151-25.017-29.347-2.167-60.342-.495-81.176 1.29-8.254.707-15.433 4.774-20.759 11.76-8.634 11.323-11.853 30.351-12.447 50.036-20.397 5.021-36.06 21.7-39.434 43.041l-52.47 257.89-32.585 35.576c-12.089 13.199-11.681 33.488.93 46.19l17.408 17.532c6.51 6.51 15.165 10.095 24.371 10.095 9.207 0 17.862-3.585 24.372-10.095l48.085-48.086 76.198-21.956c19.408-.305 40.276-.696 61.18-1.194 163.488-3.9 168.903-10.089 173.254-15.062 9.22-10.536 14.283-52.151 15.105-85.501 8.389-2.813 12.283-5.756 14.689-8.372 16.314-17.747 15.279-56.952 2.599-73.26zm-298.775-188.532c71.949-6.166 124.199.29 139.764 17.271 1.133 1.236 3.062 4.374 3.088 11.295l-.821-.436c-15.661-8.308-33.737-10.433-50.899-5.984-17.161 4.45-31.928 15.089-41.582 29.96l-4.668 7.19c-10.626-14.007-27.929-22.282-46.223-20.876l-13.354 1.027c.621-15.453 3.013-28.709 8.227-35.545 2.424-3.175 4.73-3.754 6.468-3.902zm-52.319 375.249c-1.637.471-3.127 1.35-4.332 2.555l-49.921 49.922c-2.707 2.707-6.307 4.198-10.135 4.198s-7.427-1.491-10.109-4.173l-17.382-17.506c-5.025-5.062-5.188-13.146-.371-18.405l34.471-37.634c1.234-1.346 2.077-3.003 2.441-4.793l53.072-260.851c.033-.16.062-.321.087-.482 2.316-15.119 14.585-26.498 29.836-27.67l24.866-1.913c.837-.064 1.667-.096 2.496-.096 14.455 0 27.455 9.656 31.478 23.733 1.084 3.794 4.285 6.605 8.188 7.19 3.901.584 7.786-1.165 9.935-4.475l14.137-21.779c14.383-22.156 42.825-29.529 66.159-17.152l31.336 16.621c12.544 6.654 21.479 17.871 25.161 31.585s1.564 27.899-5.962 39.94l-13.462 21.539c-2.154 3.447-2.024 7.853.331 11.167s6.477 4.885 10.437 3.985c10.368-2.357 21.212-.078 29.754 6.252 8.541 6.329 13.878 16.041 14.641 26.645l4.356 60.512c1.172 16.262-8.694 31.392-24.019 36.892zm312.85-87.888c-2.072 28.975-6.187 48.181-8.761 53.954-6.416 1.819-33.228 5.978-144.55 8.918l103.816-29.913c.183-.053.365-.111.544-.174 19.504-6.838 33.389-23.693 36.944-43.381 4.69-.582 8.915-1.199 12.72-1.843-.166 3.912-.4 8.061-.713 12.439zm20.842-39.216c-.212.208-5.016 4.609-32.553 8.281l-3.903-54.22c-1.187-16.466-9.473-31.547-22.737-41.376-7.586-5.621-16.339-9.185-25.457-10.522l3.484-5.574c10.367-16.589 13.405-36.938 8.333-55.831-2.011-7.491-5.257-14.529-9.499-20.883 10.173-7.269 18.371-10.045 23.36-7.55 3.861 1.93 14.309 13.314 28.988 43.738 10.975 22.751 17.278 41.617 18.016 46.662-1.492 3.683-8.504 12.447-15.52 19.294-2.642 2.573-3.665 6.385-2.667 9.935.998 3.551 3.858 6.271 7.453 7.091 4.276.975 17.902 5.585 24.211 13.7 7.127 9.169 7.423 37.537-1.509 47.255z"/><path d="m200.427 399.149c-2.403 0-4.675-1.443-5.615-3.812-1.232-3.1.284-6.612 3.384-7.843 9.289-3.689 39.623-17.393 66.386-29.484 20.22-9.135 39.318-17.763 47.212-21.114 3.075-1.305 6.616.129 7.921 3.2 1.303 3.071-.13 6.617-3.2 7.92-7.767 3.297-26.804 11.898-46.959 21.003-28.197 12.738-57.352 25.91-66.9 29.702-.733.29-1.488.428-2.229.428z"/><path d="m347.149 332.12c-2.119 0-4.173-1.115-5.279-3.096-1.627-2.913-.584-6.592 2.328-8.219 5.448-3.043 11.037-5.406 16.441-7.691 3.609-1.526 7.342-3.104 11.055-4.891 3.006-1.445 6.615-.182 8.061 2.824 1.447 3.006.183 6.616-2.823 8.062-3.978 1.914-7.846 3.549-11.588 5.132-5.34 2.258-10.385 4.391-15.256 7.111-.932.521-1.943.768-2.939.768z"/><path d="m265.608 311.226c-1.863 0-3.701-.859-4.884-2.48-1.966-2.695-1.376-6.473 1.318-8.44l80.611-58.831c2.697-1.967 6.474-1.377 8.44 1.318s1.376 6.473-1.318 8.44l-80.611 58.831c-1.075.784-2.321 1.162-3.556 1.162z"/><path d="m225.422 342.737c-1.811 0-3.602-.811-4.792-2.358-2.034-2.644-1.54-6.436 1.105-8.471l18.418-14.167c2.643-2.033 6.436-1.541 8.47 1.105 2.034 2.644 1.54 6.436-1.105 8.47l-18.418 14.167c-1.096.845-2.392 1.254-3.678 1.254z"/></g><path d="m147.417 303.858c-.598 0-1.204-.054-1.813-.164-5.47-.995-9.099-6.236-8.104-11.706 5.753-31.635 17.283-70.515 30.091-101.468 2.126-5.138 8.017-7.579 13.151-5.453 5.138 2.126 7.579 8.014 5.453 13.152-12.302 29.728-23.37 67.039-28.886 97.371-.883 4.862-5.121 8.268-9.892 8.268z" fill="#fff"/><path d="m195.814 172.609c-3.253 0-6.445-1.574-8.385-4.484-3.084-4.626-1.835-10.876 2.792-13.96 2.427-1.618 8.874-5.916 14.919-9.376 4.827-2.762 10.977-1.089 13.738 3.736 2.762 4.825 1.089 10.976-3.736 13.738-5.449 3.119-11.482 7.141-13.753 8.655-1.715 1.143-3.656 1.691-5.575 1.691z" fill="#fff"/></g></g></svg>