<svg id="Capa_1" enable-background="new 0 0 512 512" height="512" viewBox="0 0 512 512" width="512" xmlns="http://www.w3.org/2000/svg"><g><g><path d="m499.066 122.98-3.75-6.496c-5.548-9.609-17.835-12.901-27.443-7.354l-64.335 28.468 77.788-76.802c6.689-8.853 4.934-21.451-3.919-28.14l-19.137-14.457c-8.853-6.688-21.451-4.934-28.14 3.919l-150.053 148.459c-9.642 13.224-20.298 25.679-31.87 37.251l-228.325 228.325c-12.844 12.844-12.844 33.668 0 46.512l9.69 9.69c12.844 12.844 33.668 12.844 46.512 0l259.183-259.183c17.746-17.746 42.65-28.546 63.937-39.19 23.351-11.676 92.508-43.56 92.508-43.56 9.609-5.547 12.901-17.834 7.354-27.442z" fill="#faf1a9"/><path d="m499.066 122.979-3.75-6.495c-5.548-9.609-17.835-12.901-27.443-7.354l-64.335 28.468 77.788-76.802c6.689-8.853 4.934-21.451-3.919-28.14l-19.137-14.457c-8.853-6.689-21.451-4.934-28.14 3.919l-81.082 80.22 32.716-72.623c1.094-5.549-2.076-11.055-7.425-12.894l-22.587-7.171c-6.444-2.215-13.371 1.725-14.76 8.395l-84.394 185.302c-1.449 1.508-2.912 3.002-4.391 4.481l1.644 1.551-.889 1.953 36.097 33.055.563-1.25 20.415 19.266 29.231-29.231c17.746-17.746 42.65-28.546 63.937-39.19 23.352-11.676 92.508-43.559 92.508-43.559 9.608-5.548 12.9-17.834 7.353-27.444z" fill="#ccf3e2"/><path d="m271.375 238.665-224.49 224.49c-9.359 9.359-22.954 11.89-34.612 7.61 1.594 4.341 4.125 8.415 7.61 11.9l9.69 9.69c12.844 12.844 33.668 12.844 46.513 0l224.688-224.688c-10.049-9.427-20.183-18.763-29.399-29.002z" fill="#dfb5a7"/><path d="m499.066 122.979-3.75-6.495c-4.733-8.198-14.367-11.775-23.062-9.212-.989 5.658-4.378 10.854-9.741 13.951 0 0-69.156 31.884-92.508 43.559-21.287 10.644-46.191 21.444-63.937 39.19l-27.599 27.599c9.216 10.239 19.351 19.575 29.398 29.002l27.401-27.401c17.746-17.746 42.65-28.546 63.937-39.19 23.352-11.676 92.508-43.559 92.508-43.559 9.608-5.548 12.9-17.834 7.353-27.444z" fill="#b1b6e1"/><path d="m41.862 165.637 8.241 23.173c.353.992 1.051 1.778 1.933 2.175l20.588 9.276c2.909 1.311 2.909 5.945 0 7.255l-20.588 9.276c-.881.397-1.58 1.183-1.933 2.176l-8.241 23.173c-1.164 3.274-5.282 3.274-6.446 0l-8.241-23.173c-.353-.992-1.051-1.778-1.933-2.176l-20.588-9.276c-2.909-1.311-2.909-5.945 0-7.255l20.588-9.276c.882-.397 1.58-1.183 1.933-2.175l8.241-23.173c1.164-3.274 5.282-3.274 6.446 0z" fill="#fbf2aa"/><path d="m206.737 69.376 6.113 17.189c.262.736.78 1.319 1.434 1.614l15.272 6.881c2.158.972 2.158 4.41 0 5.382l-15.272 6.881c-.654.295-1.172.878-1.434 1.614l-6.113 17.189c-.864 2.428-3.918 2.428-4.782 0l-6.113-17.189c-.262-.736-.78-1.319-1.434-1.614l-15.272-6.881c-2.158-.972-2.158-4.41 0-5.382l15.272-6.881c.654-.295 1.172-.878 1.434-1.614l6.113-17.189c.864-2.429 3.918-2.429 4.782 0z" fill="#fbf2aa"/><circle cx="92.847" cy="65.826" fill="#f7e16e" r="12.227"/><path d="m403.092 350.544c0 5.245-4.252 9.497-9.497 9.497s-9.497-4.252-9.497-9.497 4.252-9.496 9.497-9.496 9.497 4.252 9.497 9.496z" fill="#f7e16e"/><path d="m360.826 369.611 8.241 23.173c.353.992 1.051 1.778 1.933 2.176l20.588 9.276c2.909 1.31 2.909 5.945 0 7.255l-20.588 9.276c-.882.397-1.58 1.183-1.933 2.176l-8.241 23.173c-1.164 3.274-5.282 3.274-6.446 0l-8.241-23.173c-.353-.992-1.051-1.778-1.933-2.176l-20.588-9.276c-2.909-1.31-2.909-5.945 0-7.255l20.588-9.276c.882-.397 1.58-1.183 1.933-2.176l8.241-23.173c1.164-3.273 5.282-3.273 6.446 0z" fill="#fbf2aa"/></g><g><g fill="#3c122c"><path d="m507.754 117.963-3.749-6.495c-4.023-6.968-10.519-11.953-18.291-14.035-7.581-2.033-15.492-1.066-22.344 2.719l-13.818 6.115 38.823-38.331c.344-.34.664-.705.956-1.091 10.012-13.253 7.376-32.18-5.877-42.193l-19.135-14.457c-6.42-4.851-14.343-6.911-22.314-5.801-7.707 1.074-14.564 4.988-19.393 11.051l-41.359 40.92 7.501-16.558c2.633-5.832 2.746-12.57.311-18.487s-7.259-10.624-13.233-12.912l-17.915-6.863c-11.491-4.406-24.486.921-29.583 12.104l-84.107 183.914c-1.032 1.064-2.066 2.125-3.113 3.171l-228.326 228.324c-8.107 8.106-12.572 18.886-12.572 30.351 0 11.464 4.465 22.243 12.571 30.35l9.691 9.691c8.368 8.366 19.359 12.55 30.35 12.55s21.983-4.184 30.351-12.551l259.183-259.183c14.191-14.191 33.689-23.741 52.545-32.977 2.976-1.458 5.913-2.897 8.785-4.332 22.942-11.471 91.531-43.104 92.221-43.423.278-.128.551-.269.816-.422 14.383-8.306 19.33-26.764 11.025-41.149zm-161.168-95.982c.715-1.57 2.541-2.314 4.151-1.7l17.915 6.863c1.148.44 1.656 1.324 1.857 1.812s.462 1.474-.038 2.582l-90.353 199.442-19.975-19.975zm-277.595 463.28c-8.911 8.911-23.412 8.914-32.324 0l-9.691-9.691c-4.317-4.317-6.694-10.056-6.694-16.161 0-6.106 2.377-11.845 6.695-16.162l224.191-224.192 42.014 42.014zm418.031-343.723c-6.725 3.102-69.849 32.244-92.305 43.471-2.824 1.412-5.711 2.827-8.637 4.26-19.384 9.495-41.353 20.256-57.907 36.808l-26.479 26.479-6.416-6.416 62.8-138.623 79.109-78.268c.342-.338.659-.701.949-1.084 1.62-2.144 3.976-3.528 6.637-3.899 2.661-.365 5.307.317 7.451 1.937l19.135 14.457c4.263 3.221 5.235 9.205 2.312 13.595l-77.182 76.203c-3.447 3.403-3.97 8.782-1.244 12.786s7.923 5.489 12.352 3.528l64.335-28.468c.327-.145.647-.307.956-.486 2.327-1.343 5.038-1.699 7.632-1.004 2.595.695 4.764 2.359 6.107 4.686l3.75 6.495c2.709 4.693 1.195 10.684-3.355 13.543z"/><path d="m197.621 332.124c-1.541 0-3.081-.588-4.257-1.763-2.351-2.35-2.351-6.162 0-8.512l83.14-83.14c2.351-2.352 6.162-2.35 8.513 0s2.351 6.162 0 8.512l-83.14 83.14c-1.175 1.175-2.716 1.763-4.256 1.763z"/><path d="m172.386 357.81c-1.541 0-3.081-.588-4.257-1.763-2.351-2.35-2.351-6.162 0-8.513l12.129-12.128c2.35-2.349 6.162-2.35 8.513.001 2.351 2.35 2.351 6.162 0 8.513l-12.129 12.128c-1.175 1.174-2.716 1.762-4.256 1.762z"/></g><path d="m221.811 275.24c-2.021 0-4.06-.608-5.829-1.873-4.507-3.224-5.547-9.491-2.323-13.998 2.33-3.258 5.054-5.459 7.243-7.229 1.301-1.051 2.647-2.139 3.046-2.812 2.829-4.765 8.985-6.333 13.749-3.505s6.333 8.984 3.505 13.749c-2.238 3.769-5.259 6.211-7.686 8.173-1.499 1.211-2.792 2.256-3.537 3.298-1.959 2.738-5.04 4.197-8.168 4.197z" fill="#fff"/><path d="m118.08 378.978c-2.55 0-5.101-.966-7.058-2.903-3.938-3.897-3.97-10.25-.072-14.188 26.714-26.986 53.809-54.082 80.533-80.534 3.938-3.897 10.29-3.865 14.188.073 3.897 3.939 3.865 10.29-.073 14.189-26.676 26.403-53.722 53.45-80.389 80.388-1.96 1.983-4.544 2.975-7.129 2.975z" fill="#fff"/></g></g></svg>