<svg id="Capa_1" enable-background="new 0 0 512 512" height="512" viewBox="0 0 512 512" width="512" xmlns="http://www.w3.org/2000/svg"><g><g><path d="m433.756 347.332c8.572-19.667 10.516-43.319 4.012-69.212-2.542-36.159-27.319-68.559-65.686-91.598-27.405-19.362-57.929-31.571-79.402-34.659-13.642-10.372-22.169-26.68-22.169-44.608v-41.024c0-11.437-9.272-20.71-20.71-20.71h-35.078c-11.438 0-20.71 9.272-20.71 20.71v41.024c0 17.565-8.182 33.577-21.342 43.972-33.461-2.747-116.171 34.011-146.198 93.815-33.141 66.007-13.134 123.252 34.894 147.366 30.395 15.26 64.725 13.587 94.239-6.423 19.273 24.159 47.043 37.094 77.915 37.094 11.142 0 21.877-1.691 31.958-4.98 14.906 43.91 61.052 75.913 115.679 75.913 66.686 0 120.745-47.688 120.745-106.515 0-20.608-29.639-33.996-68.147-40.165z" fill="#faf1a9"/><path d="m125.282 327.974c-26.002 22.649-54.647 26.508-77.118 13.09-20.565-12.28-30.847-35.975-26.614-65.686h-6.849c-14.397 52.823 6.176 96.7 46.666 117.029 29.145 14.633 61.906 13.686 90.571-4.057-5.818-11.379-11.394-22.869-16.234-34.765-3.378-8.302-7.372-16.843-10.422-25.611z" fill="#dfb5a7"/><path d="m448.805 350.223v6.874c10.623 5.023 17.081 11.424 17.081 19.206 0 43.901-45.997 79.49-102.737 79.49-52.421 0-95.658-30.381-101.938-69.625 1.628-6.361 5.096-12.417 11.238-17.951 11.048-9.954 24.758-16.922 38.542-22.215 7.296-2.801 14.945-5.202 22.732-6.757-.335 3.008-.682 6.014-1.048 9.018 33.326-9.066 68.276-5.126 102.8-5.165 8.279-21.966 8.586-48.488-1.404-77.327h-4.357c2.593 16.531-1.63 30.152-11.758 38.805-18.006 15.383-48.594 9.908-79.594-19.815-6.788-76.715-76.672-153.157-104.841-153.157-2.749 0-5.896.731-9.342 2.116 25.732 8.608 76.239 69.224 76.239 127.153 0 62.531-36.654 98.242-81.868 98.242s-81.868-35.711-81.868-98.242c0-6.031.553-12.091 1.563-18.119-6.268 17.492-10.103 35.781-10.103 53.869 0 80.489 47.18 126.456 105.38 126.456 10.712 0 21.049-1.563 30.789-4.606-3.106-9.6-5.163-19.284-3.862-28.443 1.525 57.657 54.983 103.983 120.709 103.983 66.686 0 120.746-47.688 120.746-106.515-.001-17.83-22.183-30.254-53.099-37.275z" fill="#dfb5a7"/><path d="m367.147 62.404 6.153 17.3c.263.741.785 1.328 1.443 1.624l15.371 6.925c2.172.978 2.172 4.438 0 5.417l-15.371 6.925c-.658.296-1.18.883-1.443 1.624l-6.153 17.3c-.869 2.444-3.943 2.444-4.812 0l-6.153-17.3c-.263-.741-.785-1.328-1.443-1.624l-15.371-6.925c-2.172-.978-2.172-4.438 0-5.417l15.371-6.925c.658-.296 1.18-.883 1.443-1.624l6.153-17.3c.869-2.445 3.943-2.445 4.812 0z" fill="#fbf2aa"/><circle cx="436.787" cy="53.151" fill="#f7e16e" r="12.306"/><ellipse cx="470.314" cy="170.028" fill="#f7e16e" rx="9.558" ry="9.558" transform="matrix(.973 -.23 .23 .973 -26.483 112.604)"/><path d="m58.15 10.362 8.295 23.323c.355.999 1.058 1.79 1.945 2.19l20.721 9.336c2.927 1.319 2.927 5.983 0 7.302l-20.721 9.335c-.887.4-1.59 1.191-1.945 2.19l-8.295 23.322c-1.172 3.295-5.316 3.295-6.488 0l-8.294-23.323c-.355-.999-1.058-1.79-1.945-2.19l-20.721-9.336c-2.927-1.319-2.927-5.983 0-7.302l20.721-9.336c.887-.4 1.59-1.191 1.945-2.19l8.294-23.323c1.172-3.293 5.316-3.293 6.488.002z" fill="#fbf2aa"/></g><g><g fill="#3c122c"><path d="m391.019 451.203c-3.346 0-6.058-2.713-6.058-6.059v-12.218c0-3.346 2.713-6.058 6.058-6.058 3.346 0 6.059 2.713 6.059 6.058v12.218c-.001 3.347-2.713 6.059-6.059 6.059z"/><path d="m425.546 429.66c-3.346 0-6.059-2.713-6.059-6.058v-12.217c0-3.346 2.713-6.059 6.059-6.059s6.059 2.713 6.059 6.059v12.217c-.001 3.346-2.714 6.058-6.059 6.058z"/><path d="m447.297 339.506c.242-.818.502-1.628.724-2.455 7.918-29.509 3.174-62.892-13.72-96.54-15.438-30.748-46.464-59.775-85.124-79.639-15.563-7.997-34.994-15.6-52.255-18.576-10.086-8.557-16.313-21.258-16.313-35.041v-41.024c0-16.987-13.82-30.807-30.807-30.807h-35.078c-16.987 0-30.807 13.82-30.807 30.807v41.024c0 13.096-5.627 25.208-14.839 33.724-19.978-.063-46.452 9.59-66.504 19.893-38.66 19.864-69.687 48.891-85.125 79.639-16.894 33.648-21.638 67.031-13.72 96.54 7.542 28.108 26.402 50.972 53.107 64.38 14.903 7.482 30.703 11.247 46.462 11.246 12.481-.001 24.939-2.363 36.893-7.11 4.599-1.826 9.078-3.986 13.432-6.456 20.631 21.993 48.873 34.065 79.898 34.065 8.899 0 17.562-1.013 25.889-2.95 19.166 43.225 66.514 73.884 121.747 73.884 72.147 0 130.843-52.312 130.843-116.613 0-25.43-28.464-40.43-64.703-47.991zm-107.35-160.671c34.935 17.95 62.747 43.733 76.307 70.738 15.702 31.273 18.997 61.671 10.956 86.57-15.14-1.97-30.914-2.864-46.052-2.864-11.789 0-23.964.545-35.925 1.715 2.492-12.023 3.766-24.856 3.766-38.371 0-37.296-15.858-80.532-43.508-118.625-3.785-5.214-8.026-10.601-12.565-15.887 11.811 1.949 28.168 7.037 47.021 16.724zm-135.835-71.58v-41.024c0-5.851 4.761-10.612 10.612-10.612h35.078c5.851 0 10.612 4.761 10.612 10.612v41.024c0 10.688 2.609 20.918 7.271 30.011-11.737-9.393-23.717-15.762-34.164-15.762-11.852 0-25.678 8.193-38.883 19.708 6.038-10.031 9.474-21.691 9.474-33.957zm-71.374 279.544c-21.618 8.585-45.356 7.374-66.84-3.415-46.617-23.407-58.834-77.181-30.401-133.811 13.559-27.006 41.371-52.789 76.306-70.738 25.201-12.948 45.942-17.682 57.329-17.682 2.142 0 3.948.17 5.395.481-4.694 5.438-9.077 10.993-12.976 16.364-27.65 38.093-43.507 81.33-43.507 118.625 0 33.708 7.894 63.191 22.962 86.351-2.707 1.42-5.46 2.709-8.268 3.825zm100.783 26.182c-56.991 0-95.282-46.761-95.282-116.358 0-33.128 14.454-72.042 39.656-106.762 23.847-32.854 47.291-48.161 55.627-48.161 8.335 0 31.779 15.307 55.626 48.161 25.202 34.72 39.656 73.633 39.656 106.762 0 14.865-1.755 28.682-5.061 41.228-40.29 6.908-73.428 22.207-73.428 49.647 0 8.063.924 15.937 2.68 23.543-6.207 1.277-12.708 1.94-19.474 1.94zm147.636 70.934c-61.012 0-110.648-43.252-110.648-96.418 0-8.578 11.21-17.138 30.755-23.486 20.615-6.695 49.735-10.536 79.893-10.536s59.278 3.841 79.893 10.536c19.545 6.348 30.755 14.909 30.755 23.486 0 53.165-49.636 96.418-110.648 96.418z"/></g><path d="m171.898 296.263c-.278 0-.559-.012-.841-.035-5.558-.458-9.692-5.335-9.234-10.892 2.19-26.569 8.965-50.276 20.136-70.464 2.7-4.88 8.844-6.645 13.724-3.946 4.88 2.701 6.646 8.845 3.946 13.724-9.778 17.669-15.726 38.645-17.679 62.345-.435 5.274-4.852 9.268-10.052 9.268z" fill="#fff"/><path d="m215.132 197.32c-2.532 0-5.066-.946-7.027-2.847-4.004-3.881-4.104-10.274-.223-14.278 2.707-2.793 6.35-6.41 10.534-9.617 4.424-3.394 10.764-2.557 14.157 1.869 3.394 4.425 2.557 10.764-1.869 14.157-3.138 2.407-6.095 5.351-8.321 7.647-1.979 2.042-4.614 3.069-7.251 3.069z" fill="#fff"/><path d="m48.797 295.767c-.65 0-1.31-.063-1.972-.195-5.463-1.084-9.018-6.376-7.945-11.841.344-1.75 8.779-43.146 40.066-67.565 4.396-3.433 10.742-2.65 14.172 1.746 3.432 4.397 2.649 10.742-1.747 14.173-25.246 19.705-32.608 55.202-32.68 55.558-.96 4.798-5.178 8.124-9.894 8.124z" fill="#fff"/></g></g></svg>