<svg id="Capa_1" enable-background="new 0 0 514.147 514.147" height="512" viewBox="0 0 514.147 514.147" width="512" xmlns="http://www.w3.org/2000/svg"><g><g><path d="m332.268 141.369c12.474-25.294 24.89-56.891 30.632-68.655 5.372-11.005 16.246-16.754 24.772-11.692 8.526 5.062 8.227 16.64 4.386 27.78-6.57 18.31-18.342 43.796-30.799 66.01" fill="#c49a8b"/><path d="m418.379 302.201c7.125-78.378-22.553-142.837-101.489-166.643-76.277-23.004-156.923 11.854-177.92 87.707-22.107 79.862-42.554 124.328-71.803 145.606-31.597 22.986-53.901 28.804-48.905 57.045 12.544 70.905 277.347 151.897 376.311-46.032 8.771-17.541 21.3-50.118 23.806-77.683z" fill="#e8a284"/><path d="m316.89 135.558c-12.952-3.906-26.029-6.139-38.92-6.792 56.432 20.931 77.65 70.365 72.241 129.868-1.996 21.96-11.978 47.912-18.965 61.886-67.226 134.452-230.504 107.346-283.349 61.422-20.802 13.548-33.535 21.931-29.635 43.974 12.544 70.905 277.347 151.897 376.311-46.032 8.771-17.542 21.3-50.118 23.806-77.683 7.126-78.377-22.553-142.837-101.489-166.643z" fill="#d57b84"/><path d="m186.177 12.622c-13.929 2.193-23.467 17.336-19.429 30.846 7.57 25.329 23.879 63.467 56.673 84.123 51.965 32.732 125.643 9.173 125.643 9.173s-10.573-76.628-62.537-109.359c-32.794-20.656-74.236-18.894-100.35-14.783z" fill="#a1e8c3"/><path d="m181.943 10.232c26.964-4.245 56.586 4.824 36.986 5.905-10.455.576-17.375 17.256-13.38 26.934 7.49 18.145 22.507 45.801 48.881 62.413 41.792 26.324 92.572 26.401 92.572 26.401s-2.251-17.429-9.455-38.304c9.77 24.472 12.583 44.831 12.583 44.831s-76.076 24.325-129.731-9.471c-33.861-21.328-50.7-60.707-58.517-86.86-4.17-13.949 5.679-29.584 20.061-31.849z" fill="#85adc2"/><path d="m46.89 66.238 8.214 23.098c.352.989 1.048 1.772 1.927 2.168l20.521 9.246c2.899 1.306 2.899 5.925 0 7.232l-20.521 9.246c-.879.396-1.575 1.179-1.927 2.168l-8.214 23.097c-1.16 3.263-5.264 3.263-6.425 0l-8.214-23.097c-.352-.989-1.048-1.773-1.927-2.168l-20.521-9.246c-2.899-1.306-2.899-5.925 0-7.232l20.521-9.246c.879-.396 1.575-1.18 1.927-2.168l8.214-23.098c1.161-3.263 5.265-3.263 6.425 0z" fill="#f0c6b5"/><path d="m482.229 422.29 6.093 17.133c.261.734.777 1.315 1.429 1.609l15.222 6.858c2.151.969 2.151 4.395 0 5.364l-15.222 6.858c-.652.294-1.168.875-1.429 1.608l-6.093 17.133c-.861 2.421-3.905 2.421-4.766 0l-6.093-17.133c-.261-.734-.777-1.315-1.429-1.608l-15.222-6.858c-2.15-.969-2.15-4.395 0-5.364l15.222-6.858c.652-.294 1.168-.875 1.429-1.609l6.093-17.133c.861-2.421 3.905-2.421 4.766 0z" fill="#f0c6b5"/><g fill="#e9a385"><ellipse cx="460.345" cy="150.163" rx="17.937" ry="17.937" transform="matrix(.16 -.987 .987 .16 238.382 580.51)"/><ellipse cx="61.915" cy="206.392" rx="7.737" ry="7.737" transform="matrix(.924 -.383 .383 .924 -74.27 39.404)"/></g></g><g><g fill="#3c122c"><path d="m408.604 193.48c-8.991-15.84-20.691-29.327-34.974-40.42 11.107-20.563 21.54-43.319 27.841-60.881.015-.039.028-.078.042-.118 6.265-18.175 3.081-32.622-8.736-39.638-5.671-3.366-12.377-4.149-18.882-2.206-8.29 2.479-15.573 9.079-19.982 18.11-2.132 4.368-5.092 11.227-8.523 19.249-9.883-24.023-26.429-51.559-53.534-68.631-34.731-21.877-77.483-20.886-107.235-16.2-9.49 1.494-18.004 7.226-23.357 15.727-5.354 8.501-6.848 18.655-4.097 27.859 7.909 26.466 23.355 61.448 52.657 83.94-5.064 2.082-10.004 4.43-14.785 7.065-32.464 17.9-55.799 47.47-65.706 83.26-22.326 80.653-42.041 121.269-68.049 140.188-6.636 4.827-13 8.973-18.616 12.63-21.099 13.741-39.319 25.607-34.253 54.244 6.549 37.018 66.136 72.872 138.607 83.4 12.184 1.771 26.583 3.088 42.446 3.088 29.074 0 63.069-4.425 97.38-18.596 51.071-21.093 90.324-58.504 116.67-111.195 9.829-19.658 22.228-52.733 24.821-81.249 3.891-42.814-2.747-79.698-19.735-109.626zm-46.058-95.157c3.852-9.009 7.177-16.79 9.341-21.223 2.279-4.669 5.491-7.05 7.737-7.722 1.496-.446 2.359-.106 2.943.241 3.16 1.876 2.308 9.309.058 15.864-5.341 14.873-14.188 34.449-23.642 52.524.107-.851.109-1.727-.013-2.611-.134-.974-1.214-8.421-4.068-19.331 2.715-6.213 5.293-12.24 7.644-17.742zm-186.217-57.718c-1.098-3.675-.421-7.856 1.857-11.474s5.758-6.034 9.546-6.631c26.363-4.149 63.985-5.203 93.464 13.365 37.473 23.604 51.883 73.518 56.306 93.615-.344.081-.72.165-1.082.248-3.834-7.492-10.705-19.324-21.389-32.363-16.279-19.867-44.885-46.38-88.716-59.867-3.169-.973-6.525.803-7.499 3.97-.975 3.167.803 6.524 3.97 7.499 40.783 12.55 67.47 37.19 82.675 55.652 8.775 10.654 14.855 20.544 18.648 27.524-24.431 4.054-64.544 6.396-95.357-13.014-29.483-18.568-44.78-52.951-52.423-78.524zm232.092 260.691c-2.504 27.53-15.505 59.541-22.792 74.116-64.923 129.846-196.846 121.504-235.732 115.854-31.692-4.604-61.951-14.638-85.203-28.251-21.064-12.333-34.399-26.49-36.585-38.842-2.644-14.946 3.558-19.727 25.475-34 5.818-3.79 12.413-8.085 19.467-13.216 30.413-22.125 51.598-64.469 75.559-151.025 8.581-31.002 27.977-55.581 56.088-71.082 8.7-4.797 18.003-8.538 27.696-11.221 19.562 8.625 40.542 11.393 59.397 11.393 15.035 0 28.712-1.757 39.24-3.697 56.663 24.254 84.039 76.821 77.39 149.971z"/><path d="m303.663 397.91c-3.314 0-6-2.686-6-6v-12.1c0-3.314 2.686-6 6-6 3.313 0 6 2.686 6 6v12.1c0 3.313-2.687 6-6 6z"/><path d="m264.278 370.903c-3.314 0-6-2.686-6-6v-12.1c0-3.313 2.686-6 6-6 3.313 0 6 2.687 6 6v12.1c0 3.313-2.686 6-6 6z"/><path d="m229.769 427.542c-3.314 0-6-2.686-6-6v-12.1c0-3.314 2.686-6 6-6 3.313 0 6 2.686 6 6v12.1c0 3.314-2.686 6-6 6z"/></g><path d="m160.336 327.472c-1.694 0-3.411-.432-4.985-1.339-4.784-2.759-6.427-8.873-3.668-13.658 12.641-21.924 19.211-46.936 23.523-66.278 1.202-5.393 6.553-8.785 11.937-7.585 5.391 1.202 8.786 6.547 7.585 11.936-4.623 20.732-11.724 47.644-25.719 71.917-1.852 3.211-5.215 5.007-8.673 5.007z" fill="#fff"/><path d="m197.687 225.924c-1.59 0-3.202-.38-4.703-1.182-4.871-2.602-6.711-8.66-4.108-13.532 4.146-7.761 8.588-14.215 13.581-19.73 3.705-4.096 10.029-4.411 14.124-.702 4.095 3.706 4.409 10.03.702 14.124-3.88 4.286-7.401 9.433-10.767 15.731-1.8 3.372-5.256 5.291-8.829 5.291z" fill="#fff"/></g></g></svg>