<svg id="Capa_1" enable-background="new 0 0 512 512" height="512" viewBox="0 0 512 512" width="512" xmlns="http://www.w3.org/2000/svg"><g><g><path d="m209.534 501.395-22.672-5.9c-9.843-2.561-15.746-12.617-13.185-22.461l3.928-15.096c2.561-9.843 12.617-15.746 22.461-13.185l22.672 5.9c9.843 2.561 15.746 12.617 13.185 22.461l-3.928 15.096c-2.562 9.843-12.618 15.746-22.461 13.185z" fill="#a1e8c3"/><path d="m361.613 320.668c-32.43 124.624-93.471 157.632-154.07 141.863s-97.808-74.344-65.378-198.968 122.219-268.106 182.818-252.337 69.06 184.818 36.63 309.442z" fill="#faf1a9"/><path d="m324.983 11.226c-2.363-.615-4.775-.96-7.222-1.101 34.349 17.943 41.857 106.782 24.783 172.396-18.028 69.281-57.037 100.048-86.977 92.257-36.28-9.441-53.547-67.672-91.513-77.552-10.515 25.238-15.339 41.17-21.888 66.337-32.43 124.625 4.779 183.199 65.378 198.968s121.64-17.238 154.07-141.863 23.968-293.673-36.631-309.442z" fill="#dfb5a7"/><path d="m358.421 357.787c-35.006 95.425-87.756 121.17-148.012 105.49-59.971-15.606-100.259-65.189-84.915-164.626 1.814-11.757-66.179-135.439-28.466-129.478 110.26 17.428 127.969 191.686 135.621 193.677 7.317 1.904 119.657-145.044 213.835-101.797 34.698 15.934-84.109 85.955-88.063 96.734z" fill="#ccf3e2"/><path d="m446.484 261.053c-17.192-7.895-21.388-10.659-39.041-7.94 25.122 9.616-78.387 70.79-81.62 79.605-29.193 79.578-85.39 94.34-135.639 81.263-50.012-13.014-74.904-47.098-64.69-115.331-15.343 99.437 24.944 149.02 84.916 164.626 60.256 15.68 113.006-10.065 148.012-105.49 3.953-10.778 122.76-80.799 88.062-96.733z" fill="#b1b6e1"/><path d="m119.981 33.139 8.226 23.131c.352.99 1.049 1.775 1.929 2.172l20.551 9.259c2.903 1.308 2.903 5.934 0 7.242l-20.551 9.259c-.88.396-1.577 1.181-1.929 2.172l-8.226 23.131c-1.162 3.268-5.272 3.268-6.434 0l-8.226-23.131c-.352-.99-1.049-1.775-1.929-2.172l-20.552-9.26c-2.903-1.308-2.903-5.934 0-7.242l20.551-9.259c.88-.396 1.577-1.181 1.929-2.172l8.226-23.131c1.163-3.267 5.273-3.267 6.435.001z" fill="#fbf2aa"/><path d="m454.679 124.808 6.102 17.158c.261.735.779 1.317 1.431 1.611l15.244 6.868c2.154.97 2.154 4.402 0 5.372l-15.244 6.868c-.653.294-1.17.876-1.431 1.611l-6.102 17.158c-.862 2.424-3.911 2.424-4.773 0l-6.102-17.158c-.261-.735-.778-1.317-1.431-1.611l-15.244-6.868c-2.154-.97-2.154-4.402 0-5.372l15.244-6.868c.653-.294 1.17-.876 1.431-1.611l6.102-17.158c.863-2.424 3.911-2.424 4.773 0z" fill="#fbf2aa"/><g fill="#f7e16e"><circle cx="45.133" cy="42.024" r="12.205"/><ellipse cx="70.28" cy="289.817" rx="9.479" ry="9.479" transform="matrix(.995 -.099 .099 .995 -28.216 8.336)"/></g></g><g><g fill="#3c122c"><path d="m324.773 134.862c-1.857 0-3.742-.233-5.62-.722l-2.994-.779c-5.773-1.502-10.616-5.163-13.636-10.307-3.02-5.145-3.855-11.157-2.353-16.93l2.518-9.678c1.502-5.772 5.163-10.615 10.307-13.635 5.145-3.019 11.157-3.856 16.93-2.353l2.993.778c11.918 3.102 19.09 15.32 15.99 27.237l-2.518 9.678c-2.615 10.039-11.697 16.711-21.617 16.711zm-5.588-13.131 2.994.779c5.502 1.433 11.148-1.88 12.58-7.385l2.518-9.677c1.432-5.504-1.881-11.148-7.386-12.58l-2.992-.779c-2.667-.694-5.445-.308-7.821 1.087s-4.067 3.631-4.761 6.298l-2.518 9.678c-.694 2.666-.308 5.443 1.086 7.819 1.397 2.375 3.634 4.066 6.3 4.76z"/><path d="m263.217 194.631c-1.887 0-3.787-.241-5.661-.729l-2.994-.779c-5.773-1.502-10.615-5.163-13.635-10.307-3.02-5.145-3.855-11.157-2.353-16.93l2.518-9.677c1.502-5.772 5.162-10.615 10.307-13.635 5.144-3.02 11.158-3.856 16.93-2.354l2.994.779c5.773 1.502 10.615 5.163 13.635 10.307 3.02 5.145 3.855 11.157 2.353 16.93l-2.518 9.678c-1.502 5.772-5.162 10.615-10.307 13.635-3.475 2.039-7.345 3.082-11.269 3.082zm-.53-43.117c-1.812 0-3.6.482-5.205 1.424-2.375 1.395-4.066 3.631-4.76 6.298l-2.518 9.678c-.694 2.666-.308 5.443 1.087 7.819s3.631 4.067 6.298 4.761h.001l2.993.779c2.663.693 5.442.308 7.82-1.087 2.375-1.395 4.066-3.631 4.76-6.298l2.518-9.678c.694-2.666.308-5.443-1.086-7.819-1.395-2.376-3.631-4.067-6.298-4.761l-2.994-.779c-.867-.226-1.744-.337-2.616-.337z"/><path d="m298.482 261.17c-1.857 0-3.742-.233-5.62-.722l-2.994-.779c-11.916-3.101-19.089-15.319-15.989-27.236l2.518-9.678c3.102-11.917 15.321-19.088 27.236-15.988l2.994.779c11.917 3.101 19.089 15.319 15.989 27.236l-2.518 9.678c-2.613 10.038-11.695 16.71-21.616 16.71zm-5.588-13.131 2.994.779c5.502 1.433 11.148-1.88 12.581-7.385l2.518-9.677c1.432-5.505-1.881-11.148-7.385-12.58l-2.994-.779c-5.502-1.433-11.148 1.88-12.581 7.385l-2.518 9.677c-1.431 5.504 1.881 11.148 7.385 12.58z"/><path d="m243.304 251.143c-.501 0-1.009-.063-1.517-.195-3.212-.836-5.137-4.117-4.302-7.328l2.832-10.884c.835-3.211 4.116-5.137 7.328-4.302 3.212.836 5.137 4.117 4.302 7.328l-2.832 10.884c-.703 2.704-3.141 4.497-5.811 4.497z"/><path d="m312.102 185.863c-.501 0-1.009-.063-1.517-.195-3.212-.836-5.137-4.116-4.302-7.328l2.832-10.885c.835-3.211 4.113-5.138 7.328-4.302 3.212.836 5.137 4.116 4.302 7.328l-2.832 10.885c-.703 2.704-3.141 4.497-5.811 4.497z"/><path d="m344.246 218.553c-.501 0-1.009-.063-1.517-.195-3.212-.836-5.137-4.117-4.302-7.328l2.832-10.884c.835-3.211 4.115-5.138 7.328-4.302 3.212.836 5.137 4.117 4.302 7.328l-2.832 10.884c-.703 2.704-3.141 4.497-5.811 4.497z"/><path d="m462.737 267.532c-.41-3.936-2.524-11.193-12.075-15.578-21.442-9.847-43.442-10.904-64.911-6.439 4.976-41.506 5.942-83.763 2.402-121.327-3.044-32.308-9.153-59.062-18.156-79.517-10.58-24.038-24.876-38.551-42.492-43.135-17.619-4.586-37.173 1.118-58.129 16.951-17.831 13.472-36.205 33.855-54.612 60.581-21.499 31.216-41.344 68.781-57.268 107.636-17.515-14.81-37.196-23.989-58.904-27.421-10.465-1.654-16.07 3.282-18.481 6.37-11.989 15.352 1.438 50.232 23.289 101.692 5.008 11.795 11.196 26.366 12.056 30.7-7.398 48.862-2.149 89.033 15.606 119.41 9.207 15.753 21.504 28.57 36.745 38.37l-3.815 14.662c-1.914 7.356-.849 15.018 2.998 21.573 3.848 6.555 10.019 11.22 17.374 13.134l22.621 5.887c2.394.623 4.795.92 7.162.92 12.641 0 24.215-8.503 27.544-21.294l3.436-13.204c19.689-.561 37.84-6.206 54.234-16.923 27.75-18.14 50.656-51.223 68.091-98.342 2.931-3.229 14.922-12.121 24.641-19.328 42.667-31.641 72.708-55.567 70.644-75.378zm-231.478-177.105c30.868-44.819 61.728-70.357 84.368-70.357 2.371 0 4.653.28 6.834.848 23.009 5.987 40.112 45.295 45.753 105.148 3.654 38.778 2.335 82.769-3.397 125.525-51.559 19.009-97.758 64.867-122.452 89.386-1.706 1.693-3.482 3.457-5.174 5.12-.527-1.994-1.067-4.074-1.586-6.078-6.258-24.139-16.732-64.539-37.105-101.398-7.77-14.058-16.293-26.299-25.532-36.725 15.846-40.199 36.16-79.335 58.291-111.469zm-81.148 280.229 22.861 53.344c-1.736 2.712-3.288 5.176-4.634 7.336-30.925-26.297-42.272-70.731-32.948-131.159.898-5.818-1.767-12.899-13.557-40.662-6.905-16.264-14.733-34.698-20.135-51.055-6.188-18.737-6.322-26.542-5.963-29.353 80.835 13.003 108.61 120.153 120.479 165.937 1.637 6.313 2.929 11.298 4.095 15.037.064.206.132.422.2.638-5.803 5.97-11.758 13.015-17.537 20.419l-21.961-56.222c-1.207-3.091-4.69-4.617-7.783-3.411-3.091 1.207-4.618 4.692-3.411 7.783l24.658 63.127c-4.876 6.685-9.486 13.357-13.604 19.512l-19.716-46.005c-1.307-3.05-4.836-4.464-7.889-3.156-3.049 1.308-4.462 4.841-3.155 7.89zm72.198 115.006c-1.171 4.498-5.787 7.204-10.278 6.035l-22.621-5.887c-2.179-.567-4.007-1.948-5.146-3.89-1.139-1.941-1.455-4.211-.888-6.389l2.622-10.074c6.858 2.971 14.14 5.496 21.89 7.513 5.719 1.488 11.335 2.607 16.848 3.371zm200.794-192.593c-12.827 11.423-29.523 23.804-42.939 33.752-23.438 17.381-29.123 22.004-31.145 27.518-30.344 82.718-74.862 115.178-136.088 99.247-10.321-2.686-19.667-6.337-28.039-10.916 10.015-16.083 33.491-52.286 52.984-70.986 2.656-1.279 4.946-3.353 6.967-5.192 3.001-2.73 6.811-6.512 11.632-11.3 35.11-34.859 117.327-116.495 185.829-85.036.127.058.241.114.341.166-.649 2.138-3.844 8.768-19.542 22.747z"/></g><path d="m287.834 67.032c-3.016 0-5.997-1.356-7.968-3.939-2.993-3.921-2.645-9.342.583-12.85 1.128-2.471 2.982-4.382 5.623-5.827 4.854-2.654 10.938-.873 13.593 3.979 2.175 3.977 1.371 8.783-1.663 11.848-.771 1.487-2.008 3.137-4.1 4.734-1.814 1.386-3.95 2.055-6.068 2.055z" fill="#fff"/><path d="m205.929 185.002c-1.495 0-3.012-.336-4.442-1.046-4.955-2.458-6.979-8.466-4.522-13.421 15.557-31.364 47.051-84.163 63.003-98.905 4.062-3.754 10.399-3.503 14.151.558 3.754 4.062 3.504 10.398-.557 14.152-12.762 11.793-42.521 60.572-58.652 93.095-1.75 3.525-5.297 5.567-8.981 5.567z" fill="#fff"/></g></g></svg>