<svg id="Capa_1" enable-background="new 0 0 512 512" height="512" viewBox="0 0 512 512" width="512" xmlns="http://www.w3.org/2000/svg"><g><g><path d="m255.449 148.297s15.666-100.134 52.027-138.279c0 0 20.512-.461 25.629 17.451 0 0-23.734 32.315-50.172 124.537-.001 0-20.337 23.086-27.484-3.709z" fill="#c49a8b"/><path d="m135.926 268.352c18.94-17.934 30.797-41.41 34.03-66.775.111-.867.23-1.736.358-2.605 8.628-58.692 53.56-100.694 100.359-93.814 46.798 6.88 77.742 60.036 69.113 118.728-.128.87-.264 1.736-.407 2.598-4.203 25.222.396 51.117 13.373 73.743 14.632 25.512 21.123 55.797 16.539 86.977-8.8 59.861-55.742 104.828-113.046 114.553-9.991 1.695-28.797-5.854-38.997-10.442-4.54-2.042-9.596-2.608-14.48-1.645-9.822 1.937-26.833 4.374-35.435.217-52.806-25.519-81.147-82.669-72.278-142.999 4.583-31.178 19.516-58.315 40.871-78.536z" fill="#ccf3e2"/><path d="m352.752 300.228c-12.977-22.626-17.576-48.521-13.373-73.743.144-.863.28-1.729.408-2.598 8.628-58.692-22.315-111.848-69.113-118.728-4.459-.656-8.9-.864-13.295-.66 31.689 11.812 51.351 51.184 45.026 94.213-.105.712-.216 1.421-.334 2.127-3.441 20.65 3.324 65.813 11.392 85.586 10.963 26.866 10.429 45.795 6.676 71.323-7.205 49.01-40.9 74.462-88.367 77.846-32.842 2.341-56.329-8.835-63.371-12.239-36.301-17.543-65.661-60.205-67.542-100.474-2.617 7.681-4.581 15.699-5.802 24.009-8.869 60.33 19.473 117.479 72.278 142.999 8.602 4.157 25.613 1.72 35.435-.216 4.884-.963 9.94-.398 14.48 1.644 10.2 4.588 29.006 12.137 38.997 10.442 57.304-9.725 104.246-54.692 113.047-114.553 4.581-31.181-1.911-61.467-16.542-86.978z" fill="#b1b6e1"/><path d="m279.777 112.36s56.612-41.08 110.797-27.818c54.185 13.263 88.595 62.888 85.424 75.846-3.172 12.958-56.612 41.08-110.797 27.818s-85.424-75.846-85.424-75.846z" fill="#a1e8c3"/><path d="m390.574 84.542c-14.699-3.598-29.574-3.191-43.451-.696 8.3-.791 16.912-.461 25.447 1.628 41.584 10.178 67.993 48.263 65.559 58.208-2.434 9.944-43.447 31.527-85.031 21.349-39.46-9.658-63.059-53.393-65.368-57.837-5.071 3.078-7.951 5.167-7.951 5.167s31.239 62.583 85.424 75.846c54.185 13.262 107.625-14.86 110.797-27.818 3.17-12.959-31.241-62.584-85.426-75.847z" fill="#85adc2"/><path d="m65.111 96.516 8.226 23.13c.352.99 1.049 1.775 1.929 2.172l20.55 9.259c2.903 1.308 2.903 5.934 0 7.242l-20.55 9.259c-.88.396-1.577 1.181-1.929 2.172l-8.226 23.13c-1.162 3.268-5.272 3.268-6.434 0l-8.226-23.13c-.352-.99-1.049-1.775-1.929-2.172l-20.55-9.259c-2.903-1.308-2.903-5.934 0-7.242l20.55-9.259c.88-.396 1.577-1.181 1.929-2.172l8.226-23.13c1.162-3.267 5.272-3.267 6.434 0z" fill="#cdf4e3"/><g fill="#a2e9c4"><circle cx="165.271" cy="53.523" r="14.216"/><circle cx="437.623" cy="271.711" r="7.748"/></g></g><g><path d="m462.037 115.663c-11.144-11.668-34.937-32.49-69.082-40.848-26.995-6.608-54.109-1.078-75.638 6.904 13.885-34.264 23.722-48.134 23.858-48.323 1.834-2.496 2.409-5.7 1.558-8.678-5.727-20.048-25.689-24.918-35.482-24.712-2.66.06-5.188 1.176-7.023 3.102-20.343 21.341-34.36 59.658-43.109 91.374-20.598.866-40.687 9.702-57.777 25.678-20.606 19.262-34.433 46.734-38.935 77.352-.137.934-.265 1.868-.384 2.799-2.938 23.052-13.942 44.633-30.982 60.769-23.934 22.664-39.113 51.833-43.893 84.352-4.667 31.746.164 63.043 13.972 90.508 13.947 27.743 36.027 49.515 63.857 62.964 8.601 4.156 22.639 4.356 41.731.592 2.872-.567 5.788-.238 8.433.952 17.072 7.681 30.507 11.552 40.049 11.552 1.701 0 3.279-.123 4.73-.37 63.307-10.743 112.045-60.161 121.279-122.969 4.78-32.519-1.361-64.822-17.76-93.415-11.676-20.357-16.001-44.193-12.181-67.114.155-.928.3-1.861.436-2.789 1.543-10.498 1.917-20.953 1.187-31.148 3.853 1.468 7.83 2.732 11.94 3.738 11.058 2.706 21.754 3.752 31.686 3.752 20.734 0 38.124-4.559 48.451-8.076 18.574-6.326 39.563-17.75 42.766-30.839 3.205-13.09-10.134-32.917-23.687-47.107zm-150.44-95.223c3.205.622 7.54 2.181 10.173 6.078-5.357 8.713-16.753 29.452-30.482 67.056-7.615 4.131-13.107 7.722-15.731 9.518 7.557-28.338 19.432-62.746 36.04-82.652zm18.28 201.998c-.117.803-.243 1.603-.376 2.4-4.578 27.471.595 56.014 14.564 80.371 14.143 24.658 19.441 52.508 15.319 80.538-7.968 54.197-50.089 96.85-104.814 106.137-3.905.662-14.938-1.481-33.214-9.701-4.41-1.984-9.118-2.989-13.882-2.989-2.211 0-4.433.217-6.643.652-16.387 3.232-25.939 2.573-29.141 1.025-48.145-23.267-74.96-76.525-66.728-132.526 4.121-28.031 17.209-53.178 37.849-72.722 20.389-19.307 33.557-45.154 37.079-72.78.102-.803.212-1.607.331-2.415 7.812-53.135 47.736-91.427 88.995-85.363.327.048.647.119.972.173.163.54.369 1.074.629 1.594 1.071 2.146 21.531 42.393 58.514 66.34 2.29 12.538 2.521 25.834.546 39.266zm104.31-47.024c-12.819 4.095-38.519 9.939-66.605 3.065-38.069-9.318-64.458-46.529-74.431-62.858 16.353-9.889 56.842-30.701 95.042-21.352 28.087 6.875 48.182 23.928 57.66 33.481 13.594 13.7 19.769 26.103 20.295 30.227-2.371 3.416-13.577 11.564-31.961 17.437z" fill="#3c122c"/><path d="m156.747 331.441c-1.095 0-2.209-.181-3.303-.563-5.221-1.824-7.975-7.535-6.151-12.756 3.01-8.618 8.508-15.681 13.882-22.177 3.089-3.735 6.333-7.147 9.469-10.446 5.992-6.302 11.651-12.255 15.262-19.461 6.702-13.372 10.526-28.041 13.107-39.327 1.233-5.391 6.597-8.763 11.995-7.528 5.391 1.234 8.761 6.604 7.528 11.995-2.832 12.38-7.066 28.551-14.725 43.833-4.946 9.871-11.914 17.2-18.652 24.287-3.035 3.193-5.904 6.21-8.553 9.412-4.214 5.095-8.49 10.528-10.406 16.015-1.44 4.129-5.313 6.716-9.453 6.716z" fill="#fff"/><path d="m221.658 193.696c-1.388 0-2.796-.29-4.142-.902-5.033-2.29-7.258-8.228-4.968-13.262 3.447-7.575 7.395-15.402 14.372-20.554 4.448-3.285 10.717-2.343 14.004 2.106 3.286 4.449 2.343 10.719-2.106 14.005-3.38 2.496-6.296 8.907-8.039 12.737-1.679 3.689-5.316 5.87-9.121 5.87z" fill="#fff"/><g fill="#3c122c"><path d="m283.583 329.519c-.553 0-1.115-.077-1.672-.238-3.188-.922-5.025-4.254-4.103-7.441l3.158-10.919c.922-3.188 4.254-5.025 7.441-4.103 3.188.922 5.025 4.254 4.103 7.441l-3.158 10.919c-.76 2.63-3.161 4.341-5.769 4.341z"/><path d="m308.04 382.544c-.552 0-1.115-.077-1.672-.238-3.188-.922-5.025-4.254-4.102-7.441l3.158-10.919c.922-3.187 4.253-5.026 7.441-4.103 3.188.922 5.025 4.254 4.103 7.441l-3.158 10.919c-.762 2.631-3.163 4.341-5.77 4.341z"/><path d="m272.443 377.139c-.552 0-1.115-.077-1.672-.238-3.188-.922-5.025-4.253-4.102-7.441l3.158-10.919c.922-3.188 4.254-5.025 7.441-4.102 3.188.922 5.025 4.253 4.102 7.441l-3.158 10.919c-.761 2.629-3.162 4.34-5.769 4.34z"/></g></g></g></svg>