<svg id="Capa_1" enable-background="new 0 0 512 512" height="512" viewBox="0 0 512 512" width="512" xmlns="http://www.w3.org/2000/svg"><g><g><path d="m381.256 268.153c0-14.572-11.744-26.396-26.283-26.535v-44.684c14.539-.139 26.283-11.963 26.283-26.535s-11.744-26.396-26.283-26.535v-19.687c0-63.031-51.097-114.128-114.129-114.128-58.691 0-107.025 44.304-113.406 101.291-.08-.001-.159-.006-.239-.006-14.658 0-26.541 11.883-26.541 26.541 0 14.496 11.623 26.27 26.057 26.529v104.442c-14.434.259-26.057 12.033-26.057 26.529s11.623 26.27 26.057 26.529v65.919c0 63.031 51.097 114.128 114.129 114.128 51.243 0 94.597-33.772 109.022-80.272 1.573.29 3.192.45 4.848.45 14.658 0 26.542-11.883 26.542-26.541 0-14.572-11.744-26.396-26.283-26.535v-74.365c14.539-.139 26.283-11.963 26.283-26.535z" fill="#a1e8c3"/><path d="m381.256 268.153c0-14.572-11.744-26.396-26.283-26.535v-44.684c14.539-.139 26.283-11.963 26.283-26.535s-11.744-26.396-26.283-26.535v-19.687c0-63.031-51.097-114.129-114.129-114.129-7.517 0-14.862.732-21.972 2.119 35.897 8.433 62.167 41.701 62.167 88.646l.716 13.052c10.361.12 22.096 6.085 24.354 18.509 2.449 13.47-3.688 27.096-14.049 27.217l2.449 52.655c10.361.12 6.123 8.851 6.123 21.479 0 12.629-.659 20.036-11.021 20.156v69.8c10.361.121 11.021 7.854 11.021 20.482 0 12.703-8.469 23.001-18.915 23.001-1.181 0-2.334-.138-3.455-.39-10.28 40.297-41.177 69.565-77.696 69.565-32.735 0-60.948-23.518-73.849-57.415v8.899c0 63.031 51.097 114.129 114.129 114.129 51.243 0 94.598-33.772 109.022-80.272 1.573.29 3.192.449 4.848.449 14.658 0 26.542-11.883 26.542-26.541 0-14.572-11.744-26.396-26.283-26.535v-74.365c14.537-.139 26.281-11.963 26.281-26.535z" fill="#85adc2"/><circle cx="226.633" cy="253.059" fill="#ccf3e2" r="22.374"/><ellipse cx="273.102" cy="342.554" fill="#ccf3e2" rx="22.374" ry="22.374" transform="matrix(.924 -.383 .383 .924 -110.301 130.587)"/><circle cx="25.785" cy="358.338" fill="#a2e9c4" r="7.775"/><path d="m413.091 4.815 6.123 17.216c.262.737.781 1.321 1.436 1.616l15.296 6.891c2.161.974 2.161 4.417 0 5.39l-15.296 6.892c-.655.295-1.174.879-1.436 1.616l-6.123 17.216c-.865 2.432-3.924 2.432-4.789 0l-6.123-17.216c-.262-.737-.781-1.321-1.436-1.616l-15.296-6.891c-2.161-.974-2.161-4.417 0-5.39l15.296-6.891c.655-.295 1.174-.879 1.436-1.616l6.123-17.216c.865-2.434 3.924-2.434 4.789-.001z" fill="#cdf4e3"/><path d="m53.717 411.064 6.123 17.216c.262.737.781 1.321 1.436 1.616l15.296 6.891c2.161.974 2.161 4.417 0 5.39l-15.296 6.891c-.655.295-1.174.879-1.436 1.616l-6.123 17.216c-.865 2.432-3.924 2.432-4.789 0l-6.123-17.216c-.262-.737-.781-1.321-1.436-1.616l-15.296-6.891c-2.161-.974-2.161-4.417 0-5.39l15.296-6.891c.655-.295 1.174-.879 1.436-1.616l6.123-17.216c.865-2.432 3.924-2.432 4.789 0z" fill="#cdf4e3"/><ellipse cx="479.724" cy="103.108" fill="#a2e9c4" rx="14.265" ry="14.265" transform="matrix(.924 -.383 .383 .924 -2.941 191.431)"/></g><g><g fill="#3c122c"><path d="m226.633 281.461c-15.661 0-28.403-12.741-28.403-28.402s12.741-28.402 28.403-28.402 28.403 12.741 28.403 28.402-12.741 28.402-28.403 28.402zm0-44.746c-9.013 0-16.345 7.332-16.345 16.344s7.332 16.344 16.345 16.344 16.345-7.332 16.345-16.344-7.332-16.344-16.345-16.344z"/><path d="m273.102 370.956c-15.661 0-28.402-12.741-28.402-28.402s12.741-28.403 28.402-28.403 28.403 12.742 28.403 28.403-12.742 28.402-28.403 28.402zm0-44.747c-9.012 0-16.344 7.332-16.344 16.345 0 9.012 7.332 16.344 16.344 16.344 9.013 0 16.345-7.332 16.345-16.344 0-9.013-7.332-16.345-16.345-16.345z"/><path d="m391.305 268.153c0-16.532-11.127-30.619-26.284-35.098v-27.558c15.157-4.48 26.284-18.567 26.284-35.098 0-16.532-11.127-30.619-26.284-35.099v-11.124c0-68.47-55.705-124.176-124.177-124.176-60.624 0-111.837 43.446-122.25 102.308-16.038 3.88-27.984 18.354-27.984 35.567 0 16.392 11.03 30.453 26.057 35.022v87.458c-15.027 4.569-26.057 18.63-26.057 35.021 0 16.39 11.03 30.452 26.057 35.021v57.428c0 68.471 55.706 124.176 124.177 124.176 27.041 0 52.746-8.542 74.339-24.702 18.752-14.035 33.352-33.421 41.697-55.184 19.172-1.124 34.425-17.077 34.425-36.526 0-16.531-11.127-30.618-26.284-35.099v-57.239c15.157-4.48 26.284-18.567 26.284-35.098zm-36.428 110.948c9.005.086 16.331 7.482 16.331 16.488 0 9.094-7.399 16.492-16.493 16.492-.992 0-2.01-.095-3.024-.283-5.012-.919-9.914 2.043-11.421 6.904-13.582 43.784-53.539 73.201-99.425 73.201-1.448 0-2.886-.038-4.32-.097-22.573-19.079-25.658-53.327-25.537-84.808.013-3.331-2.676-6.04-6.006-6.053-.008 0-.016 0-.023 0-3.319 0-6.016 2.684-6.029 6.005-.111 28.892 2.42 60.033 18.847 82.371-46.326-10.523-81.012-52.035-81.012-101.499v-65.919c0-5.479-4.389-9.948-9.867-10.046-8.927-.161-16.19-7.556-16.19-16.483 0-8.928 7.263-16.322 16.189-16.483 5.478-.098 9.868-4.567 9.868-10.046v-104.441c0-5.479-4.39-9.948-9.868-10.046-8.927-.161-16.189-7.555-16.189-16.483 0-9.066 7.353-16.446 16.409-16.493l.199.005c5.127.035 9.535-3.796 10.11-8.93 5.895-52.654 50.356-92.36 103.42-92.36 57.39 0 104.08 46.69 104.08 104.08v19.688c0 5.512 4.44 9.995 9.953 10.048 9.004.085 16.331 7.481 16.331 16.487 0 9.004-7.326 16.401-16.331 16.486-5.512.053-9.952 4.536-9.952 10.048v44.685c0 5.512 4.44 9.995 9.953 10.048 9.004.085 16.331 7.481 16.331 16.486 0 9.004-7.326 16.4-16.331 16.487-5.512.053-9.952 4.536-9.952 10.048v74.365c-.004 5.512 4.437 9.995 9.949 10.048z"/><path d="m204.966 389.331c-.003 0-.006 0-.009 0-3.33-.005-6.025-2.708-6.02-6.038.008-5.35-.007-11.66-.175-17.891-.09-3.328 2.536-6.1 5.865-6.19 3.317-.073 6.1 2.537 6.189 5.864.172 6.383.187 12.8.179 18.234-.005 3.327-2.704 6.021-6.029 6.021z"/><path d="m290.616 294.832c-.09 0-.18-.002-.27-.006-3.327-.146-5.904-2.961-5.758-6.288.253-5.748.708-11.526 1.149-17.114.2-2.527.399-5.054.581-7.581.238-3.321 3.098-5.82 6.445-5.582 3.321.238 5.82 3.123 5.582 6.445-.184 2.556-.385 5.111-.587 7.667-.433 5.484-.88 11.155-1.124 16.695-.142 3.237-2.811 5.764-6.018 5.764z"/><path d="m294.168 221.7c-.111 0-.223-.003-.336-.009-3.325-.183-5.872-3.026-5.689-6.351 1.03-18.76-.099-36.472-3.454-54.147-.621-3.272 1.528-6.426 4.798-7.048 3.272-.625 6.427 1.528 7.048 4.799 3.54 18.646 4.733 37.31 3.648 57.058-.177 3.212-2.837 5.698-6.015 5.698z"/></g><path d="m171.632 193.123c-5.622 0-10.27-4.462-10.456-10.123-.221-6.682-.281-13.215-.178-19.415.095-5.781 4.888-10.389 10.639-10.295 5.781.096 10.39 4.859 10.294 10.64-.097 5.855-.039 12.039.17 18.378.191 5.778-4.339 10.617-10.117 10.808-.117.005-.235.007-.352.007z" fill="#fff"/><path d="m174.885 134.994c-.616 0-1.239-.054-1.866-.168-5.69-1.023-9.473-6.467-8.449-12.157 9.497-52.766 33.392-67.864 51.764-71.238 5.689-1.035 11.143 2.719 12.187 8.406 1.045 5.687-2.719 11.142-8.405 12.188-21.504 3.949-30.87 31.738-34.94 54.354-.911 5.062-5.321 8.615-10.291 8.615z" fill="#fff"/></g></g></svg>