<svg id="Capa_1" enable-background="new 0 0 512 512" height="512" viewBox="0 0 512 512" width="512" xmlns="http://www.w3.org/2000/svg"><g><g><path d="m458.8 35.84c-7.889-7.889-15.932-8.537-24.674-3.579-53.787-16.928-155.814 12.408-275.176 131.77-119.409 119.408-154.068 226.815-138.857 282.346-5.065 8.894-4.507 17.016 3.323 24.846 40.131 40.131 219.721 21.073 339.949-99.155s135.565-296.098 95.435-336.228z" fill="#a1e8c3"/><g fill="#ccf3e2"><path d="m184.101 318.726c-13.528-14.223-32.62-23.103-53.798-23.103-41.011 0-74.257 33.246-74.257 74.258 0 13.291 3.509 25.755 9.625 36.548 38.063-31.108 78.216-59.447 118.43-87.703z"/><path d="m216.125 296.162c26.872-30.561 54.511-60.443 82.697-89.799-12.879-22.04-36.773-36.858-64.142-36.858-41.011 0-74.258 33.246-74.258 74.258 0 27.871 15.364 52.143 38.076 64.844 5.883-4.139 11.758-8.288 17.627-12.445z"/><path d="m399.321 77.027c-12.434-9.382-27.906-14.951-44.683-14.951-41.011 0-74.257 33.246-74.257 74.258 0 24.029 11.423 45.379 29.124 58.952 8.381-8.65 16.822-17.242 25.288-25.807 20.983-31.185 42.061-62.341 64.528-92.452z"/></g><path d="m458.8 35.84c-19.84-19.84-40.644 6.094-71.135 51.915 2.189.729 4.344 2.113 6.481 4.25 28.994 28.994 17.913 156.06-68.951 242.925-86.864 86.864-216.619 100.633-245.613 71.639-2.292-2.292-3.716-4.619-4.363-7.004-45.537 30.709-71.365 52.094-51.802 71.657 40.131 40.13 219.722 21.072 339.949-99.155s135.564-296.097 95.434-336.227z" fill="#85adc2"/><path d="m452.467 397.829c0 4.302-3.488 7.79-7.79 7.79-4.303 0-7.79-3.488-7.79-7.79s3.488-7.79 7.79-7.79c4.302-.001 7.79 3.487 7.79 7.79z" fill="#a2e9c4"/><path d="m39.53 87.944 8.271 23.256c.354.996 1.055 1.785 1.94 2.183l20.662 9.309c2.919 1.315 2.919 5.966 0 7.281l-20.662 9.309c-.885.399-1.586 1.188-1.94 2.183l-8.271 23.255c-1.168 3.285-5.3 3.285-6.469 0l-8.271-23.255c-.354-.996-1.055-1.785-1.94-2.183l-20.661-9.309c-2.919-1.315-2.919-5.966 0-7.281l20.661-9.309c.885-.399 1.586-1.188 1.94-2.183l8.271-23.256c1.169-3.285 5.301-3.285 6.469 0z" fill="#cdf4e3"/><path d="m487.476 296.326 6.135 17.251c.263.738.783 1.324 1.439 1.62l15.326 6.905c2.165.975 2.165 4.425 0 5.401l-15.326 6.905c-.656.296-1.176.881-1.439 1.62l-6.135 17.251c-.867 2.437-3.932 2.437-4.799 0l-6.135-17.251c-.263-.739-.783-1.324-1.439-1.62l-15.326-6.905c-2.165-.975-2.165-4.425 0-5.401l15.326-6.905c.656-.296 1.176-.881 1.439-1.62l6.135-17.251c.867-2.437 3.932-2.437 4.799 0z" fill="#cdf4e3"/><ellipse cx="90.164" cy="25.994" fill="#a2e9c4" rx="14.293" ry="14.293" transform="matrix(.993 -.122 .122 .993 -2.501 11.211)"/></g><g><path d="m465.919 28.72c-7.225-7.225-15.276-10.439-23.925-9.549-2.909.299-5.783 1.071-8.648 2.282-23.969-6.445-54.369-4.566-88.242 5.978-42.256 13.153-110.088 46.293-193.275 129.48-83.558 83.559-118.578 153.193-133.242 196.895-9.262 27.601-13.168 52.732-11.613 74.695.417 5.885 1.258 11.463 2.473 16.724-1.375 3.115-2.254 6.232-2.571 9.382-.868 8.629 2.301 16.615 9.42 23.735 14.454 14.454 42.376 21.957 77.509 21.957 21.675 0 46.098-2.858 71.783-8.702 44.716-10.175 130.794-38.307 204.897-112.41 73.977-73.977 101.03-159.028 110.572-203.141 14.281-66.02 8.339-123.849-15.138-147.326zm-428.241 331.492c13.978-41.655 47.598-108.269 128.391-189.062 80.284-80.284 144.928-112.012 185.02-124.492 18.802-5.853 36.403-8.743 51.906-8.743 3.017 0 5.953.111 8.803.33-5.843 6.367-11.899 14.183-18.365 23.255-11.62-6.055-24.81-9.492-38.796-9.492-46.497 0-84.327 37.829-84.327 84.326 0 12.525 2.752 24.418 7.672 35.114-12.665-7.618-27.479-12.011-43.306-12.011-46.497 0-84.326 37.829-84.326 84.326 0 18.79 6.182 36.159 16.615 50.19-11.092-5.379-23.532-8.398-36.665-8.398-46.497 0-84.326 37.829-84.326 84.326 0 11.7 2.405 22.846 6.732 32.982-10.081 7.166-18.742 13.835-25.738 20.23-.598-18.123 2.934-39.709 10.71-62.881zm32.056 30.907c-2.343-6.649-3.62-13.796-3.62-21.237 0-35.394 28.795-64.189 64.189-64.189 15.788 0 30.249 5.744 41.441 15.233-28.186 21.243-55.688 39.449-80.045 55.572-7.749 5.128-15.088 9.985-21.965 14.621zm130.914-92.971c-18.096-11.362-30.158-31.486-30.158-54.385 0-35.394 28.795-64.189 64.189-64.189 22.914 0 43.046 12.077 54.404 30.191-12.812 15.523-26.688 31.047-41.83 46.19-15.21 15.209-30.885 29.214-46.605 42.193zm109.736-115.391c-12.27-11.695-19.936-28.175-19.936-46.423 0-35.394 28.795-64.189 64.19-64.189 9.748 0 18.986 2.201 27.266 6.109-4.778 7.126-9.794 14.769-15.122 22.893-16.236 24.755-34.633 52.794-56.398 81.61zm150.992-10.968c-9.074 41.95-34.799 122.829-105.13 193.16-70.529 70.529-152.526 97.321-195.126 107.014-68.688 15.63-115.843 6.883-130.585-7.859-3.976-3.977-3.729-6.431-3.624-7.479 1.413-14.031 37.595-37.981 75.902-63.336 46.893-31.039 105.252-69.668 158.678-123.095 53.758-53.758 91.668-111.56 122.13-158.004 24.15-36.822 46.961-71.602 60.433-72.987.18-.019.416-.043.708-.043 1.263 0 3.574.455 6.918 3.799 14.875 14.874 24.253 61.533 9.696 128.83z" fill="#3c122c"/><path d="m193.504 249.546c-.741.001-1.493-.082-2.248-.254-5.421-1.236-8.814-6.633-7.578-12.055 8.778-38.488 36.569-47.462 50.023-46.847l-.936 20.115.136.005c-2.245-.041-22.581.474-29.59 31.205-1.064 4.667-5.213 7.831-9.807 7.831z" fill="#fff"/><path d="m92.981 356.597c-1.674 0-3.369-.417-4.93-1.296-4.845-2.728-6.563-8.867-3.835-13.713 9.04-16.06 25.193-26.322 41.321-26.322.248 0 .494.002.742.007 5.559.109 9.978 4.704 9.869 10.263-.108 5.56-4.708 10.015-10.263 9.869-.134-.002-.268-.004-.4-.004-10.826 0-19.526 8.612-23.722 16.064-1.848 3.284-5.264 5.131-8.782 5.132z" fill="#fff"/><path d="m314.551 144.75c-.014 0-.027 0-.04 0-5.561-.022-10.051-4.547-10.029-10.108.074-18.712 9.463-35.775 23.919-43.47 4.909-2.614 11.006-.752 13.619 4.157 2.613 4.908.752 11.006-4.156 13.618-9.722 5.175-13.211 17.119-13.245 25.775-.022 5.546-4.527 10.028-10.068 10.028z" fill="#fff"/><g fill="#3c122c"><path d="m136.457 423.916c-3.336 0-6.041-2.705-6.041-6.041v-11.722c0-3.336 2.705-6.041 6.041-6.041s6.041 2.705 6.041 6.041v11.722c0 3.336-2.705 6.041-6.041 6.041z"/><path d="m203.622 382.799c-3.336 0-6.041-2.705-6.041-6.041v-11.721c0-3.336 2.705-6.041 6.041-6.041s6.041 2.705 6.041 6.041v11.721c0 3.337-2.705 6.041-6.041 6.041z"/><path d="m179.8 431.709c-3.336 0-6.041-2.705-6.041-6.041v-11.722c0-3.336 2.705-6.041 6.041-6.041s6.041 2.705 6.041 6.041v11.722c0 3.336-2.705 6.041-6.041 6.041z"/></g></g></g></svg>