<svg id="Capa_1" enable-background="new 0 0 512 512" height="512" viewBox="0 0 512 512" width="512" xmlns="http://www.w3.org/2000/svg"><g><g><path d="m443.721 330.619c-71.985-71.436-194.477-168.929-255.503-245.416-22.982-28.805-52.703-45.313-82.157-40.961-.689-1.111-1.471-2.183-2.354-3.203l-19.422-22.432c-9.012-10.409-24.756-11.542-35.165-2.53l-26.576 23.009c-10.409 9.012-11.542 24.756-2.53 35.165l19.421 22.432c.919 1.062 1.912 2.022 2.958 2.89-7.814 24.034-1.985 50.218 12.971 75.352 69.513 116.824 150.876 218.617 245.718 303.317 34.247 30.585 85.636 31.768 121.2 2.725l14.66-11.972c42.845-34.99 46.044-99.41 6.779-138.376z" fill="#a1e8c3"/><path d="m443.721 330.619c-71.985-71.436-194.477-168.929-255.503-245.416-32.408-40.618-78.216-56.801-117.779-24.491-2.375 1.94-4.6 3.916-6.688 5.924 31.7-21.038 67.176-7.161 92.714 24.846 51.089 64.032 153.634 145.648 213.896 205.452 32.871 32.62 30.193 86.55-5.675 115.842l-12.273 10.022c-29.772 24.314-72.793 23.324-101.463-2.281-32.851-29.338-63.764-61.133-92.848-95.248 43.854 55.818 91.421 106.926 142.98 152.972 34.247 30.585 85.636 31.768 121.2 2.725l14.66-11.972c42.845-34.989 46.044-99.409 6.779-138.375z" fill="#85adc2"/><circle cx="387.138" cy="12.657" fill="#a2e9c4" r="7.746"/><path d="m306.92 7.743 8.223 23.122c.352.99 1.049 1.774 1.929 2.171l20.543 9.256c2.902 1.308 2.902 5.932 0 7.239l-20.543 9.256c-.88.396-1.577 1.181-1.929 2.171l-8.223 23.122c-1.162 3.267-5.27 3.267-6.432 0l-8.223-23.122c-.352-.99-1.049-1.775-1.929-2.171l-20.543-9.256c-2.902-1.308-2.902-5.932 0-7.239l20.543-9.256c.88-.396 1.577-1.181 1.929-2.171l8.223-23.122c1.162-3.267 5.27-3.267 6.432 0z" fill="#cdf4e3"/><path d="m483.698 115.694 6.1 17.152c.261.734.778 1.316 1.431 1.61l15.239 6.866c2.153.97 2.153 4.4 0 5.37l-15.239 6.866c-.652.294-1.169.876-1.431 1.61l-6.1 17.152c-.862 2.423-3.909 2.423-4.771 0l-6.1-17.152c-.261-.734-.778-1.316-1.431-1.61l-15.239-6.866c-2.153-.97-2.153-4.4 0-5.37l15.239-6.866c.652-.294 1.169-.876 1.431-1.61l6.1-17.152c.861-2.424 3.909-2.424 4.771 0z" fill="#cdf4e3"/><ellipse cx="390.127" cy="175.021" fill="#a2e9c4" rx="14.211" ry="14.211" transform="matrix(.123 -.993 .993 .123 168.595 540.747)"/><path d="m85.839 358.979 8.223 23.122c.352.99 1.049 1.774 1.929 2.171l20.543 9.256c2.902 1.308 2.902 5.932 0 7.239l-20.543 9.256c-.88.396-1.577 1.181-1.929 2.171l-8.223 23.122c-1.162 3.267-5.27 3.267-6.432 0l-8.223-23.122c-.352-.99-1.049-1.775-1.929-2.171l-20.543-9.256c-2.902-1.308-2.902-5.932 0-7.239l20.543-9.256c.88-.396 1.576-1.181 1.929-2.171l8.223-23.122c1.162-3.267 5.27-3.267 6.432 0z" fill="#cdf4e3"/></g><g><g fill="#3c122c"><path d="m450.772 323.514c-26.129-25.93-58.444-54.891-92.657-85.553-60.748-54.443-123.565-110.739-162.072-159.001-20.956-26.265-46.695-42.244-72.474-44.994-4.342-.464-8.665-.528-12.954-.241l-18.761-21.671c-12.611-14.565-34.72-16.156-49.286-3.545l-26.576 23.009c-7.056 6.108-11.312 14.599-11.981 23.909-.67 9.309 2.326 18.321 8.435 25.377l18.813 21.729c-5.733 23.803-.662 50.345 15.503 77.511 71.191 119.645 154.513 222.485 247.653 305.665 18.342 16.381 41.976 25.708 66.548 26.264.779.018 1.555.026 2.333.026 23.766 0 46.88-8.22 65.319-23.279l14.66-11.972c22.641-18.491 36.438-45.842 37.852-75.04 1.41-29.15-9.653-57.651-30.355-78.194zm-423.19-255.815c-2.608-3.013-3.887-6.861-3.602-10.836.286-3.975 2.103-7.6 5.116-10.209l26.576-23.009c2.736-2.368 6.16-3.641 9.742-3.641.363 0 .728.013 1.093.039 3.975.286 7.6 2.103 10.208 5.115l11.685 13.497c-8.459 3.254-16.617 8.032-24.295 14.302-10.555 8.623-18.73 18.228-24.542 28.581zm433.545 333.042c-1.14 23.541-12.263 45.593-30.518 60.5l-14.66 11.972c-31.921 26.069-77.427 25.044-108.199-2.438-91.616-81.82-173.637-183.081-243.783-300.97-16.603-27.902-27.858-68.134 12.804-101.341 12.137-9.912 25.125-14.912 38.689-14.912 1.983 0 3.979.107 5.985.321 20.419 2.178 41.353 15.522 58.947 37.572 39.55 49.57 103 106.433 164.36 161.424 34.018 30.487 66.15 59.283 91.917 84.854 16.681 16.556 25.596 39.524 24.458 63.018z"/><path d="m385.401 419.103c-1.131 0-2.273-.318-3.289-.984-11.134-7.302-22.624-16.023-35.129-26.661-2.527-2.149-2.833-5.94-.683-8.467s5.94-2.832 8.467-.683c12.121 10.311 23.221 18.739 33.933 25.765 2.774 1.819 3.548 5.543 1.728 8.317-1.153 1.759-3.071 2.713-5.027 2.713z"/><path d="m389.048 354.348c-1.335 0-2.678-.442-3.793-1.352-62.669-51.114-120.267-105.721-171.193-162.301-2.219-2.466-2.02-6.264.446-8.483 2.466-2.22 6.264-2.02 8.483.446 50.516 56.125 107.664 110.303 169.858 161.03 2.571 2.096 2.955 5.88.858 8.451-1.188 1.454-2.917 2.209-4.659 2.209z"/><path d="m328.156 372.061c-1.202 0-2.415-.36-3.47-1.108-41.316-29.309-104.409-107.011-107.075-110.304-2.087-2.578-1.689-6.36.89-8.447 2.577-2.088 6.36-1.689 8.448.89.643.794 64.72 79.711 104.688 108.064 2.706 1.919 3.343 5.669 1.423 8.374-1.171 1.651-3.024 2.531-4.904 2.531z"/></g><path d="m170.997 278.331c-2.477 0-4.957-.913-6.895-2.754-6.454-6.134-13.987-16.516-19.486-24.096l-1.813-2.495c-20.959-28.725-33.807-47.838-49.101-73.04-2.868-4.727-1.361-10.884 3.365-13.752 4.726-2.867 10.883-1.361 13.752 3.365 15.157 24.977 27.309 43.051 48.157 71.626l1.846 2.539c4.759 6.56 11.952 16.474 17.072 21.34 4.008 3.809 4.169 10.145.36 14.153-1.967 2.07-4.61 3.114-7.257 3.114z" fill="#fff"/><path d="m83.524 138.528c-4.025 0-7.821-2.445-9.348-6.428-1.831-4.772-3.953-10.441-5.815-16.303-1.674-5.269 1.241-10.898 6.51-12.572 5.272-1.674 10.898 1.242 12.572 6.51 1.705 5.368 3.7 10.693 5.426 15.193 1.98 5.162-.599 10.952-5.761 12.932-1.18.454-2.392.668-3.584.668z" fill="#fff"/></g></g></svg>