<svg id="Capa_1" enable-background="new 0 0 512 512" height="512" viewBox="0 0 512 512" width="512" xmlns="http://www.w3.org/2000/svg"><g><g><path d="m436.853 220.38s33.272-52.051 25.026-63.355c-8.247-11.305-103.385 38.818-103.385 38.818s6.476-58.32-16.287-54.133c-7.123 1.31-15.659 11.78-24.028 25.548-9.44-6.206-18.815-10.965-18.815-10.965 2.026-12.883-17.728-89.387-28.542-93.779-10.814-4.393-65.238 46.21-65.238 46.21s-46.55-23.482-61.16-17.668c-14.61 5.813 14.807 87.905 14.807 87.905s-36.642 3.151-43.349 24.902 52.951 53.404 52.951 53.404l118.394-28.27s.452-.313 1.255-.883c-3.887 9.326-6.243 15.514-6.243 15.514l48.092 100.868s111.759 6.708 120.881-8.115c4.721-7.673-5.097-20.153-15.667-30.406-8.151-7.907-4.7-21.67 6.201-24.855 24.676-7.211 56.57-17.594 58.283-26.104 2.543-12.642-63.176-34.636-63.176-34.636z" fill="#a1e8c3"/><path d="m435.545 305.973c-8.151-7.907-4.7-21.67 6.201-24.855 6.055-1.77 12.545-3.73 18.917-5.808-64.558-7.46-117.232-63.897-132.014-123.157-3.441 4.173-6.968 9.353-10.465 15.107-9.442-6.208-18.819-10.967-18.819-10.967.996-6.333-9.155-45.928-15.035-66.882-7.544 20.745-18.351 32.147-33.17 30.126-12.651-1.725-29.936-3.755-39.124-15.039-.129.114-4.902 1.774-5.029 1.886-6.032 14.556-8.952 19.482-24.092 24.259-13.164 4.154-26.913 2.515-39.018-3.539 5.466 24.309 15.337 51.856 15.337 51.856s-36.642 3.151-43.349 24.902 52.951 53.404 52.951 53.404l118.394-28.27s.452-.313 1.257-.884c-3.887 9.324-6.245 15.515-6.245 15.515l48.092 100.868s111.759 6.708 120.881-8.115c4.718-7.674-5.1-20.153-15.67-30.407z" fill="#85adc2"/><path d="m385.302 15.483c-10.083-1.855-19.946 4.267-22.693 14.144-19.25 69.207-58.679 126.624-112.681 175.529-10.305 9.333-8.029 26.105 4.372 32.39l3.66 1.855c7.151 3.624 15.786 2.599 21.881-2.608 56.826-48.551 96.316-114.723 120.885-196.059 3.421-11.324-3.79-23.11-15.424-25.251z" fill="#c49a8b"/><path d="m359.384 244.666c-24.823-24.823-65.068-24.823-89.891 0-7.749 7.748-13.078 17-15.989 26.816-1.563-1.989-3.244-3.916-5.078-5.75s-3.76-3.515-5.75-5.078c9.816-2.911 19.068-8.24 26.816-15.988 24.823-24.823 24.823-65.068 0-89.891s-65.068-24.823-89.891 0c-7.749 7.748-13.078 17-15.989 26.816-1.563-1.99-3.244-3.916-5.078-5.75-24.822-24.823-65.068-24.823-89.891 0s-24.823 65.068 0 89.891c1.542 1.542 3.143 2.986 4.797 4.336-8.883 3.041-17.229 8.095-24.315 15.182-24.823 24.822-24.823 65.068 0 89.891 1.034 1.034 2.104 2.009 3.19 2.957-7.04 3.087-13.641 7.495-19.405 13.258-24.822 24.822-24.822 65.068 0 89.891 24.823 24.823 65.068 24.823 89.891 0 5.763-5.764 10.171-12.364 13.258-19.405.948 1.085 1.923 2.155 2.957 3.189 24.822 24.823 65.068 24.823 89.891 0 7.087-7.086 12.141-15.432 15.182-24.315 1.35 1.653 2.795 3.255 4.337 4.796 24.823 24.823 65.068 24.823 89.891 0s24.823-65.068 0-89.891c-1.833-1.833-3.76-3.515-5.75-5.078 9.816-2.911 19.068-8.24 26.816-15.989 24.823-24.82 24.823-65.066.001-89.888zm-184.86-5.75c1.563 1.989 3.244 3.916 5.078 5.75 1.834 1.833 3.76 3.515 5.75 5.078-9.816 2.911-19.068 8.24-26.816 15.989-7.086 7.086-12.141 15.432-15.182 24.315-1.35-1.653-2.795-3.255-4.337-4.796-1.542-1.542-3.143-2.987-4.797-4.337 8.883-3.04 17.229-8.095 24.315-15.182 7.749-7.75 13.078-17.001 15.989-26.817zm-48.765 155.63c-.948-1.085-1.923-2.155-2.957-3.189s-2.104-2.009-3.19-2.957c7.04-3.087 13.641-7.495 19.405-13.258 7.087-7.086 12.141-15.433 15.182-24.315 1.35 1.653 2.795 3.255 4.337 4.797s3.143 2.986 4.797 4.337c-8.883 3.04-17.229 8.095-24.315 15.182-5.765 5.762-10.172 12.363-13.259 19.403zm107.486-14.608c-1.35-1.653-2.795-3.255-4.337-4.796-1.542-1.542-3.143-2.987-4.797-4.337 8.883-3.04 17.229-8.095 24.315-15.182 7.748-7.749 13.078-17 15.989-26.816 1.562 1.99 3.244 3.916 5.078 5.75 1.833 1.833 3.76 3.515 5.75 5.078-9.816 2.911-19.068 8.24-26.816 15.989-7.087 7.086-12.142 15.431-15.182 24.314z" fill="#c2b2eb"/><path d="m359.384 244.666c-14.126-14.127-33.247-20.202-51.679-18.25 8.8 1.157 17.302 5.107 24.063 11.868 16.314 16.314 16.314 42.765 0 59.079-15.668 15.667-40.679 16.279-57.087 1.854-1.717 11.34-4.307 22.568-6.63 33.827.289.308.584.612.877.919 7.862-1.593 16.647.306 24.867 3.06-9.78-.061-19.571 2.118-28.538 6.541 14.108-2.882 29.346 1.141 40.29 12.085 17.326 17.326 17.326 45.417 0 62.742-17.326 17.326-45.417 17.326-62.742 0-3.797-3.797-6.752-8.113-8.884-12.718-1.161-6.354-2.271-12.718-3.274-19.099-.442-2.811-.938-5.661-1.35-8.522-11.776 1.332-23.559 2.562-35.374 3.359 14.89 17.506 14.08 43.795-2.455 60.33-17.4 17.4-45.611 17.4-63.01 0-1.312-1.312-2.524-2.687-3.636-4.114-2.919-15.647-5.295-31.396-7.233-47.149-10.11 3.182-20.1 7.009-30.161 10.332 14.466 16.408 13.867 41.451-1.815 57.133-16.315 16.315-42.766 16.315-59.081 0-7.241-7.24-11.26-16.478-12.074-25.939-1.19 17.668 4.949 35.738 18.455 49.244 24.823 24.823 65.068 24.823 89.891 0 3.466-3.467 6.431-7.242 8.929-11.227-1.779-7.315-3.398-14.674-4.899-22.058 3.004 6.166 7.062 11.946 12.185 17.069 24.822 24.823 65.068 24.823 89.891 0 5.574-5.574 9.879-11.931 12.949-18.71-.868-4.077-1.697-8.163-2.51-12.25 2.525 4.066 5.548 7.911 9.079 11.442 24.823 24.823 65.068 24.823 89.891 0s24.823-65.068 0-89.891c-1.834-1.834-3.752-3.53-5.742-5.093 9.812-2.911 19.062-8.228 26.808-15.974 24.821-24.822 24.821-65.068-.001-89.89z" fill="#ae85ea"/><path d="m248.426 355.623c24.823-24.823 24.823-65.068 0-89.891-14.326-14.326-33.786-20.366-52.457-18.156 10.319 1.404 20.279 6.064 28.211 13.996 19.276 19.276 19.276 50.529 0 69.805s-50.529 19.276-69.805 0c-7.932-7.932-12.592-17.892-13.996-28.211-2.209 18.67 3.83 38.131 18.156 52.456 24.823 24.824 65.069 24.824 89.891.001z" fill="#ae85ea"/><circle cx="136.439" cy="30.213" fill="#9882de" r="7.737"/><path d="m39.262 4.583 8.214 23.098c.352.989 1.048 1.773 1.927 2.168l20.521 9.246c2.899 1.306 2.899 5.925 0 7.232l-20.521 9.246c-.879.396-1.575 1.18-1.927 2.169l-8.214 23.097c-1.16 3.263-5.264 3.263-6.425 0l-8.214-23.097c-.352-.989-1.048-1.773-1.927-2.169l-20.522-9.247c-2.899-1.306-2.899-5.925 0-7.232l20.521-9.246c.879-.396 1.575-1.179 1.927-2.168l8.214-23.098c1.161-3.262 5.265-3.262 6.426.001z" fill="#c3b3ec"/><path d="m487.642 409.528 6.093 17.133c.261.734.777 1.315 1.429 1.608l15.222 6.858c2.151.969 2.151 4.395 0 5.364l-15.222 6.858c-.652.294-1.168.875-1.429 1.608l-6.093 17.133c-.861 2.421-3.905 2.421-4.766 0l-6.093-17.133c-.261-.734-.777-1.315-1.429-1.608l-15.222-6.858c-2.151-.969-2.151-4.395 0-5.364l15.222-6.858c.652-.294 1.168-.875 1.429-1.608l6.093-17.133c.861-2.421 3.905-2.421 4.766 0z" fill="#c3b3ec"/><circle cx="400.11" cy="471.305" fill="#9882de" r="7.737"/></g><g><path d="m473.417 223.802c-7.78-3.418-15.565-6.455-21.661-8.723 2.871-4.924 6.338-11.115 9.628-17.629 12.149-24.05 14.714-37.902 8.573-46.32-7.039-9.648-21.969-6.267-45.374 2.839-17.291 6.727-37.419 16.293-51.259 23.134-1.209.594-2.226.179-2.724-.122-.577-.35-1.272-1.017-1.3-2.211-.253-10.756-1.57-19.409-3.974-26.099 18.257-31.306 33.292-66.372 44.973-105.044 2.449-8.11 1.322-16.915-3.094-24.154-4.422-7.249-11.746-12.287-20.094-13.823-15.305-2.815-29.978 6.342-34.137 21.299-10.008 35.981-25.693 69.336-47.392 100.634-2.526-11.502-5.454-21.969-6.055-24.091-12.857-45.332-21.02-48.648-24.943-50.242-7.738-3.146-17.868-.399-46.728 22.948-9.657 7.814-18.66 15.759-24.023 20.59-4.829-2.251-11.981-5.438-19.782-8.419-27.401-10.468-37.848-8.783-43.325-6.604-14.387 5.725-12.026 27.303-4.057 57.941 1.103 4.241 2.272 8.433 3.44 12.443-8.349-3.223-17.302-4.923-26.519-4.923-19.649 0-38.123 7.651-52.017 21.546-13.894 13.894-21.546 32.367-21.546 52.017 0 17.033 5.759 33.179 16.342 46.228-5.151 3.081-9.96 6.81-14.314 11.165-13.895 13.893-21.546 32.367-21.546 52.017 0 16.699 5.544 32.537 15.732 45.448-3.662 2.514-7.15 5.389-10.402 8.641-28.682 28.683-28.681 75.352 0 104.033 13.895 13.895 32.368 21.546 52.017 21.546s38.123-7.651 52.017-21.546c3.23-3.23 6.117-6.709 8.653-10.392 12.909 10.182 28.743 15.723 45.437 15.723 19.649 0 38.123-7.651 52.017-21.546 4.395-4.395 8.105-9.216 11.149-14.328 13.435 10.876 29.838 16.32 46.244 16.32 18.838 0 37.676-7.17 52.017-21.511 13.895-13.893 21.546-32.367 21.546-52.017 0-16.561-5.451-32.276-15.479-45.129 9.088.308 20.185.57 31.62.57 1.441 0 2.889-.004 4.336-.013 58.786-.357 68.152-7.607 72.318-14.377 10.433-16.958-12.02-37.987-19.398-44.898-1.148-1.075-1.059-2.32-.903-2.968.183-.76.688-1.75 2.06-2.146 54.782-15.831 66.284-24.381 68.345-34.62 2.634-13.107-12.654-22.746-36.418-33.187zm-101.173-191.495c1.199-4.314 5.074-7.156 9.419-7.156.603 0 1.215.055 1.83.168 2.798.515 5.155 2.138 6.639 4.568 1.478 2.422 1.84 5.247 1.021 7.956-20.619 68.261-51.97 124.652-93.37 168.141.887-10.439-.438-21.03-3.98-31.005 38.037-43.235 63.866-90.273 78.441-142.672zm-19.932 295.178c-5.329 5.33-11.515 9.284-18.116 11.889-17.772-11.864-39.601-15.152-59.634-9.887 5.265-20.034 1.977-41.864-9.888-59.636 2.606-6.6 6.562-12.785 11.891-18.114 10.116-10.117 23.567-15.688 37.874-15.688s27.758 5.571 37.874 15.688c10.117 10.116 15.689 23.567 15.689 37.874-.001 14.307-5.573 27.758-15.69 37.874zm-177.548-147.55c2.654-6.695 6.663-12.843 11.909-18.088 10.116-10.117 23.567-15.688 37.874-15.688s27.758 5.571 37.874 15.688c20.884 20.883 20.884 54.864 0 75.748-5.322 5.322-11.498 9.275-18.088 11.881-11.991-8.041-26.089-12.361-40.852-12.361-6.433 0-12.734.835-18.795 2.426 5.247-20.029 1.947-41.846-9.922-59.606zm-24.336-79.795c3.418.03 11.146 1.045 26.558 6.938 12.761 4.88 23.984 10.519 24.095 10.574 3.736 1.882 8.249 1.242 11.312-1.604.117-.108 11.797-10.949 25.118-21.914 17.355-14.283 25.866-19.266 29.612-20.999 2.943 5.083 8.178 17.677 13.959 38.655 4.582 16.628 7.232 30.244 8.115 37.632-1.791 2.213-3.616 4.415-5.472 6.607-2.148-2.907-4.529-5.694-7.16-8.326-13.894-13.895-32.367-21.546-52.017-21.546s-38.123 7.651-52.017 21.546c-3.544 3.543-6.666 7.392-9.367 11.478-1.786-5.622-3.794-12.228-5.68-19.072-6.98-25.332-7.38-35.989-7.056-39.969zm-74.712 82.773c10.116-10.117 23.566-15.689 37.874-15.689 14.307 0 27.758 5.571 37.874 15.689 20.884 20.883 20.884 54.864 0 75.748-20.885 20.885-54.865 20.883-75.748 0-10.117-10.116-15.688-23.567-15.688-37.874s5.571-27.758 15.688-37.874zm40.014 291.263c-10.116 10.117-23.566 15.688-37.874 15.688-14.307 0-27.758-5.571-37.874-15.688-20.884-20.884-20.884-54.864 0-75.748 3.4-3.4 7.155-6.229 11.136-8.52 12.779 9.203 27.86 13.816 42.953 13.816 6.309 0 12.614-.824 18.754-2.433-1.59 6.061-2.426 12.363-2.426 18.796 0 15.645 4.865 30.536 13.855 42.971-2.316 4.012-5.16 7.754-8.524 11.118zm-59.532-106.106c-10.117-10.116-15.689-23.567-15.689-37.874s5.571-27.758 15.689-37.874c4.629-4.63 9.968-8.282 15.758-10.906 12.492 8.586 27.056 12.898 41.635 12.898 6.309 0 12.614-.824 18.754-2.433-1.591 6.061-2.426 12.363-2.426 18.796 0 15.092 4.529 29.482 12.919 41.644-2.579 5.712-6.204 11.061-10.892 15.749-20.885 20.885-54.865 20.883-75.748 0zm165.639 89.891c-10.116 10.117-23.567 15.688-37.874 15.688s-27.758-5.571-37.874-15.688c-10.117-10.116-15.688-23.567-15.688-37.874s5.571-27.758 15.688-37.874c4.696-4.696 10.065-8.304 15.79-10.884 12.485 8.571 27.04 12.877 41.603 12.877 6.328 0 12.652-.829 18.81-2.447-5.345 20.338-1.863 42.522 10.446 60.437-2.58 5.718-6.209 11.073-10.901 15.765zm-56.23-109.409c-10.117-10.116-15.688-23.567-15.688-37.874s5.571-27.758 15.688-37.874c10.116-10.117 23.567-15.689 37.874-15.689s27.758 5.571 37.874 15.689c20.884 20.884 20.884 54.864 0 75.748-20.883 20.885-54.865 20.885-75.748 0zm165.639 89.89c-20.883 20.885-54.865 20.885-75.748 0-20.884-20.884-20.884-54.864 0-75.748 10.441-10.442 24.158-15.663 37.874-15.663s27.433 5.221 37.874 15.663c10.117 10.116 15.689 23.567 15.689 37.874-.001 14.307-5.572 27.758-15.689 37.874zm104.689-166.049c-8.038 2.322-14.002 8.561-15.955 16.689-1.962 8.169.535 16.482 6.679 22.236 11.098 10.394 14.75 16.83 15.573 19.501-3.726 1.574-16.787 5.152-58.565 5.189h-.647c-3.871 0-7.7-.032-11.426-.085 10.626-13.063 16.408-29.243 16.408-46.313 0-19.649-7.651-38.123-21.546-52.017-13.588-13.589-31.56-21.186-50.725-21.515 12.017-12.985 23.206-26.999 33.539-42.037.013.396.027.788.037 1.197.183 7.77 4.272 14.816 10.939 18.852 6.71 4.059 14.91 4.412 21.939.94 40.07-19.805 61.366-27.304 70.493-29.184-.946 4.148-3.548 11.863-10.535 25.293-6.596 12.679-13.647 23.743-13.717 23.854-1.658 2.596-2.027 5.811-1.001 8.715 1.025 2.904 3.333 5.175 6.253 6.152 22.825 7.645 45.451 17.815 53.887 23.936-5.51 3.28-18.94 9.151-51.63 18.597z" fill="#3c122c"/><g fill="#fff"><path d="m86.784 232.906c-.749 0-1.509-.081-2.271-.25-5.616-1.248-9.157-6.813-7.909-12.431.211-.95 5.433-23.42 27.971-35.941 5.03-2.792 11.373-.98 14.167 4.048 2.794 5.029.981 11.372-4.048 14.167-14.212 7.895-17.719 22.107-17.75 22.248-1.079 4.856-5.385 8.159-10.16 8.159z"/><path d="m177.195 322.314c-.755 0-1.521-.082-2.288-.253-5.617-1.248-9.148-6.856-7.9-12.473.211-.95 5.432-23.421 27.971-35.942 5.033-2.794 11.373-.981 14.167 4.048 2.794 5.03.981 11.373-4.048 14.167-14.145 7.857-17.628 21.746-17.77 22.333-1.077 4.85-5.365 8.12-10.132 8.12z"/><path d="m63.801 350.66c-5.674 0-10.319-4.553-10.413-10.248-.17-10.395 3.119-21.415 9.26-31.029 3.097-4.85 9.538-6.27 14.388-3.173 4.85 3.098 6.27 9.539 3.173 14.388-3.907 6.117-6.089 13.215-5.986 19.475.094 5.753-4.494 10.493-10.247 10.587-.058 0-.116 0-.175 0z"/><path d="m203.289 195.958c-1.97 0-3.962-.558-5.729-1.724-4.803-3.169-6.126-9.632-2.957-14.434 5.728-8.679 14.661-15.921 25.156-20.392 5.297-2.255 11.412.209 13.668 5.502 2.255 5.293-.208 11.413-5.502 13.668-6.676 2.844-12.482 7.472-15.932 12.698-2.002 3.037-5.32 4.682-8.704 4.682z"/></g></g></g></svg>