<svg id="Capa_1" enable-background="new 0 0 512 512" height="512" viewBox="0 0 512 512" width="512" xmlns="http://www.w3.org/2000/svg"><g><g><path d="m319.162 50.049c-20.449-4.097-82.974 35.418-95.003 97.204-2.26 11.609-2.716 23.149-1.805 34.27-9.476-6.898-20.131-12.735-31.875-16.842-58.977-20.622-124.3 13.981-131.086 33.867s23.512 87.923 82.49 108.545c58.977 20.621 122.987-10.132 131.086-33.867.016-.045.028-.094.043-.14.878.299 1.743.541 2.589.71 24.408 4.89 82.974-35.417 95.003-97.203 12.029-61.786-30.992-122.447-51.442-126.544z" fill="#ccf3e2"/><path d="m319.162 50.049c-2.475-.496-5.57-.347-9.114.396 13.014 4.648 37.521 40.763 30.362 77.531-7.406 38.038-43.461 62.852-58.487 59.842s-39.075-39.867-31.669-77.905c2.712-13.931 9.6-26.012 17.853-35.619-19.544 17.085-37.973 42.273-43.948 72.959-2.262 11.617-2.695 23.159-1.78 34.288-9.482-6.906-20.146-12.75-31.9-16.859-10.15-3.549-20.489-5.462-30.684-6.096 31.266 10.76 52.233 41.796 50.586 56.885-1.891 17.318-37.345 48.252-76.415 43.688-39.071-4.565-66.656-45.707-65.072-60.217.684-6.263 7.744-16.106 18.68-24.908-15.191 7.833-25.676 17.176-28.181 24.516-6.786 19.886 23.512 87.923 82.49 108.545 58.977 20.622 122.987-10.132 131.086-33.867 4.894-14.342-4.717-43.454-26.098-68.8 10.794 10.578 20.817 21.898 29.908 33.975 7.628 10.133 14.432 20.747 20.974 31.517 27.505-11.647 63.685-46.249 72.851-93.326 12.029-61.787-30.992-122.448-51.442-126.545z" fill="#b1b6e1"/><path d="m497.062 235.167c0-60.793-49.283-110.076-110.076-110.076-60.794 0-110.077 49.283-110.077 110.076 0 15.353 3.147 29.968 8.824 43.244-19.246-16.49-44.248-26.456-71.579-26.456-60.793 0-110.076 49.283-110.076 110.077 0 60.793 49.283 110.077 110.076 110.077 25.61 0 49.176-8.747 67.877-23.414 19.349 31.581 54.175 52.653 93.925 52.653 60.794 0 110.076-49.283 110.076-110.076 0-27.815-10.321-53.216-27.337-72.594 23.488-20.188 38.367-50.111 38.367-83.511z" fill="#9781dd"/><g fill="#8962de"><path d="m273.117 336.475c0 .481-.028.954-.036 1.433 7.769-9.115 14.704-18.93 22.406-28.13 1.738-2.076 3.532-4.101 5.35-6.105.882 1.107 1.777 2.204 2.7 3.276 9.593-5.115 19.014-10.653 28.027-16.761-28.536-11.023-49.659-36.938-53.864-68.215-.517 4.327-.79 8.729-.79 13.194 0 15.362 3.152 29.987 8.837 43.27-19.247-16.502-44.25-26.481-71.592-26.481-4.636 0-9.203.29-13.688.846 41.056 5.773 72.65 41.025 72.65 83.673z"/><path d="m188.597 420.995c-42.648 0-77.9-31.594-83.673-72.651-.556 4.485-.847 9.052-.847 13.688 0 60.794 49.283 110.077 110.077 110.077 24.309 0 46.773-7.886 64.986-21.231-7.971-21.466-15.827-42.975-22.006-64.996-15.343 21.262-40.311 35.113-68.537 35.113z"/><path d="m451.135 310.877c3.281 1.911 6.543 3.85 9.754 5.867 22.217-20.14 36.173-49.228 36.173-81.577 0-60.793-49.283-110.076-110.076-110.076-4.466 0-8.868.273-13.195.79 41.734 5.611 73.922 41.341 73.922 84.612 0 31.917-17.521 59.724-43.457 74.382-9.031-2.396-18.515-3.679-28.301-3.679-3.919 0-7.79.209-11.603.609 43.92 5.07 78.026 42.362 78.026 87.641 0 48.739-39.511 88.25-88.249 88.25-45.279 0-82.572-34.107-87.641-78.026-.4 3.814-.608 7.684-.608 11.603 0 60.793 49.283 110.077 110.076 110.077s110.076-49.283 110.076-110.077c0-31.725-13.425-60.308-34.897-80.396z"/></g><path d="m46.108 2.607 8.75 24.604c.375 1.053 1.116 1.888 2.052 2.31l21.859 9.849c3.088 1.391 3.088 6.312 0 7.703l-21.859 9.848c-.936.422-1.678 1.256-2.052 2.31l-8.75 24.604c-1.236 3.476-5.608 3.476-6.844 0l-8.75-24.604c-.375-1.054-1.116-1.888-2.052-2.31l-21.86-9.849c-3.088-1.391-3.088-6.312 0-7.703l21.859-9.849c.936-.422 1.678-1.256 2.052-2.31l8.75-24.604c1.237-3.475 5.609-3.475 6.845.001z" fill="#c3b3ec"/><path d="m423.27 9.746 6.491 18.251c.278.781.828 1.401 1.522 1.713l16.215 7.306c2.291 1.032 2.291 4.682 0 5.714l-16.215 7.306c-.694.313-1.244.932-1.522 1.713l-6.491 18.251c-.917 2.578-4.16 2.578-5.077 0l-6.491-18.251c-.278-.781-.828-1.401-1.522-1.713l-16.215-7.306c-2.291-1.032-2.291-4.682 0-5.714l16.215-7.306c.694-.313 1.244-.932 1.522-1.713l6.491-18.251c.917-2.579 4.16-2.579 5.077 0z" fill="#c3b3ec"/><circle cx="30.707" cy="320.904" fill="#9882de" r="14.675"/><path d="m173.79 81.385c0 4.552-3.69 8.242-8.242 8.242s-8.242-3.69-8.242-8.242 3.69-8.242 8.242-8.242 8.242 3.69 8.242 8.242z" fill="#9882de"/></g><g><path d="m507.714 235.167c0-66.57-54.159-120.729-120.729-120.729-3.184 0-6.339.126-9.462.369-3.329-11.52-7.509-21.097-10.951-27.919-13.028-25.819-30.816-44.379-45.318-47.285-15.722-3.151-36.621 9.378-44.877 14.91-32.417 21.723-55.846 55.631-62.675 90.703-1.132 5.813-1.828 11.498-2.178 17.028-5.447-2.851-11.282-5.434-17.53-7.618-33.141-11.588-73.676-8.412-108.43 8.495-9.135 4.444-30.954 16.458-36.254 31.987-4.793 14.047 2.15 38.844 17.688 63.171 7.408 11.598 21.265 29.77 42.245 44.063-10.062 17.615-15.819 37.992-15.819 59.689 0 66.57 54.159 120.729 120.729 120.729 23.997 0 46.373-7.051 65.189-19.171 22.043 29.372 57.146 48.41 96.613 48.41 66.57 0 120.728-54.159 120.728-120.729 0-26.78-8.77-51.549-23.582-71.594 21.392-21.793 34.613-51.632 34.613-84.509zm-21.304 0c0 26.535-10.45 50.672-27.449 68.519-21.652-20.53-50.882-33.144-83.005-33.144-26.013 0-50.131 8.27-69.863 22.319-11.648-16.282-18.532-36.193-18.532-57.695 0-54.823 44.601-99.424 99.424-99.424 54.823.001 99.425 44.602 99.425 99.425zm-251.795-85.878c8.547-43.903 43.204-70.095 53.622-77.076 13.208-8.851 23.301-11.82 27.629-11.82.47 0 .872.035 1.203.101 4.779.958 18.628 12.498 30.483 35.993 2.753 5.455 6.056 12.948 8.816 21.89-45.523 11.943-80.629 49.863-88.462 96.892-.697-1.118-1.403-2.236-2.14-3.353-6.223-9.421-17.076-23.413-33.111-35.985-.357-8.392.149-17.338 1.96-26.642zm-149.661 97.523c-14.175-22.192-17.076-40.143-15.479-44.823 1.162-3.406 9.089-11.769 25.411-19.71 7.914-3.85 30.156-13.319 57.188-13.319 11.046 0 22.897 1.583 34.89 5.776 40.736 14.244 66.63 51.414 74.299 76.159-14.483-6.165-30.4-9.593-47.108-9.593-37.24 0-70.593 16.952-92.756 43.542-18.016-12.216-30.029-27.987-36.445-38.032zm129.2 214.645c-54.823 0-99.424-44.602-99.424-99.424 0-54.823 44.602-99.424 99.424-99.424 23.863 0 45.785 8.454 62.939 22.519 3.502 7.67 7.786 14.911 12.746 21.624-21.394 21.794-34.612 51.64-34.612 84.52 0 19.487 4.647 37.908 12.882 54.22-15.552 10.088-34.077 15.965-53.955 15.965zm161.802 29.239c-54.823 0-99.424-44.602-99.424-99.424 0-54.823 44.602-99.424 99.424-99.424s99.424 44.602 99.424 99.424-44.602 99.424-99.424 99.424z" fill="#3c122c"/><path d="m375.254 453.041c-1.984 0-3.984-.627-5.735-1.899-3.904-2.836-5.137-7.838-3-12.164 6.743-13.647 1.468-29.882-12.008-36.959-4.272-2.243-6.214-7.015-4.723-11.604s5.863-7.309 10.642-6.611c15.057 2.191 28.872-7.838 31.439-22.842.814-4.756 4.751-8.078 9.577-8.078 4.825.001 8.762 3.322 9.576 8.078v.001c2.566 15.002 16.371 25.033 31.44 22.841 4.775-.698 9.15 2.022 10.641 6.611s-.452 9.361-4.723 11.604c-13.476 7.077-18.751 23.311-12.008 36.959 2.137 4.326.903 9.328-3.001 12.164-3.905 2.836-9.041 2.462-12.494-.907-10.896-10.629-27.965-10.631-38.861.001-1.907 1.858-4.323 2.804-6.762 2.805zm-6.257-56.384c10.626 9.62 15.336 24.116 12.393 38.144 12.433-7.133 27.674-7.133 40.107 0-2.942-14.028 1.768-28.524 12.394-38.144-14.251-1.537-26.582-10.495-32.448-23.574-5.864 13.078-18.196 22.036-32.446 23.574zm29.424-33.54c0 .002.001.004.001.006 0-.002-.001-.003-.001-.005z" fill="#3c122c"/><path d="m162.854 430.773c-1.984 0-3.984-.626-5.735-1.898-3.903-2.836-5.137-7.838-3-12.164 6.743-13.647 1.468-29.882-12.009-36.959-4.272-2.243-6.214-7.015-4.723-11.603 1.492-4.589 5.864-7.31 10.642-6.611 15.067 2.189 28.873-7.838 31.439-22.842.814-4.756 4.751-8.077 9.577-8.077 4.825 0 8.762 3.322 9.576 8.077 2.567 15.004 16.374 25.039 31.439 22.843 4.776-.698 9.15 2.022 10.641 6.611s-.451 9.36-4.722 11.604c-13.477 7.077-18.753 23.312-12.009 36.959 2.137 4.326.903 9.327-3 12.164-3.904 2.835-9.043 2.464-12.495-.907-10.895-10.629-27.965-10.629-38.861 0-1.903 1.856-4.32 2.803-6.76 2.803zm-6.256-56.383c10.626 9.62 15.336 24.115 12.393 38.144 12.433-7.134 27.675-7.133 40.107-.001-2.942-14.029 1.767-28.523 12.394-38.144-14.251-1.537-26.582-10.496-32.447-23.575-5.865 13.079-18.197 22.038-32.447 23.576zm35.724-34.618-6.3 1.077z" fill="#3c122c"/><path d="m435.218 258.252c-2.44 0-4.856-.947-6.76-2.805-10.896-10.629-27.965-10.631-38.862 0-3.452 3.368-8.591 3.741-12.494.906-3.904-2.836-5.137-7.838-3.001-12.164 6.743-13.648 1.469-29.883-12.008-36.96-4.272-2.242-6.214-7.014-4.723-11.603s5.867-7.309 10.642-6.612c15.053 2.187 28.872-7.838 31.439-22.842.814-4.756 4.751-8.077 9.577-8.077 4.825 0 8.763 3.322 9.576 8.077 2.567 15.004 16.373 25.034 31.439 22.842 4.769-.698 9.15 2.022 10.641 6.612 1.491 4.589-.451 9.361-4.724 11.603-13.476 7.077-18.751 23.311-12.008 36.959 2.137 4.325.903 9.327-3 12.164-1.75 1.273-3.75 1.9-5.734 1.9zm-58.638-56.384c10.627 9.62 15.336 24.115 12.393 38.144 12.433-7.133 27.675-7.133 40.108 0-2.943-14.029 1.767-28.524 12.393-38.144-14.251-1.537-26.581-10.496-32.447-23.575-5.865 13.078-18.197 22.037-32.447 23.575zm29.424-33.539c0 .003.001.006.002.009-.001-.003-.001-.007-.002-.009z" fill="#3c122c"/><g fill="#fff"><path d="m217.378 296.026c-.234 0-.469-.008-.706-.023-2.615-.17-5.211-.201-7.712-.096-5.891.251-10.847-4.308-11.099-10.185-.253-5.877 4.308-10.847 10.185-11.099 3.267-.141 6.637-.1 10.018.122 5.87.384 10.318 5.454 9.934 11.325-.369 5.632-5.054 9.955-10.62 9.956z"/><path d="m142.151 344.954c-1.29 0-2.601-.236-3.876-.734-5.479-2.141-8.185-8.32-6.043-13.799 4.596-11.757 12.689-23.518 22.789-33.115 4.98-4.732 10.396-8.798 16.099-12.086 5.098-2.937 11.611-1.188 14.548 3.909 2.938 5.097 1.188 11.611-3.909 14.548-4.245 2.447-8.304 5.499-12.063 9.072-7.882 7.489-14.14 16.52-17.622 25.427-1.643 4.207-5.665 6.778-9.923 6.778z"/><path d="m339.506 186.107c-2.996 0-5.975-1.257-8.081-3.707-3.836-4.461-3.329-11.186 1.131-15.022 2.479-2.132 5.151-4.185 7.942-6.104 4.849-3.332 11.48-2.103 14.812 2.745s2.103 11.48-2.745 14.812c-2.161 1.485-4.22 3.066-6.119 4.699-2.01 1.73-4.481 2.577-6.94 2.577z"/><path d="m317.736 265.69c-4.569 0-8.793-2.962-10.189-7.56-3.667-12.079-4.59-26.326-2.597-40.114.981-6.799 2.719-13.346 5.164-19.457 2.186-5.462 8.385-8.119 13.847-5.934 5.462 2.186 8.119 8.385 5.934 13.847-1.82 4.548-3.118 9.457-3.859 14.59-1.555 10.761-.881 21.728 1.897 30.879 1.709 5.629-1.469 11.579-7.098 13.288-1.032.312-2.075.461-3.099.461z"/><path d="m342.54 339.525c-3.512 0-6.949-1.735-8.982-4.913-3.171-4.955-1.724-11.543 3.232-14.713 2.757-1.764 5.691-3.422 8.721-4.927 5.269-2.618 11.661-.467 14.279 4.801 2.617 5.268.468 11.662-4.801 14.279-2.345 1.165-4.605 2.441-6.718 3.792-1.778 1.138-3.765 1.681-5.731 1.681z"/><path d="m309.785 415.257c-5.163 0-9.698-3.762-10.513-9.023-1.933-12.475-.844-26.709 3.067-40.081 1.93-6.596 4.57-12.833 7.849-18.538 2.931-5.101 9.441-6.859 14.543-3.928 5.101 2.931 6.859 9.442 3.928 14.543-2.44 4.246-4.416 8.924-5.873 13.904-3.051 10.435-3.926 21.387-2.462 30.838.901 5.813-3.082 11.257-8.895 12.157-.552.086-1.102.128-1.644.128z"/></g></g></g></svg>