<svg id="Capa_1" enable-background="new 0 0 512 512" height="512" viewBox="0 0 512 512" width="512" xmlns="http://www.w3.org/2000/svg"><g><g><path d="m292.043 274.158c14.78 14.541 29.518 29.125 44.222 43.742h5.64v5.603c19.125 19.036 38.178 38.144 57.175 57.307 102.487-129.005 77.733-355.99 9.883-370.04-48.492-10.042-46.999 120.166-142.454 238.351 8.524 8.334 17.037 16.678 25.534 25.037z" fill="#faf1a9"/><path d="m334.749 310.61c-2.06.997-3.624 2.446-4.796 4.262-4.637-.026-8.086-.169-9.764-.647 1.591-.976 2.806-2.24 3.588-3.854 11.472-23.69-51.989-118.189-89.273-112.405s-154.27 91.69-138.907 113.163c11.972 16.733 62.947-1.974 117.751-2.83 0 0-.001.001-.001.001-106 93.116-180.33 96.229-163.224 149.297 20.061 62.238 181.151 63.003 303.288-32.586 8.776 36.584 13.383 73.051 23.736 76.234 26.135 8.035 65.438-94.938 71.222-132.222 5.783-37.283-89.929-69.885-113.62-58.413z" fill="#f6e06e"/><path d="m376.449 311.765c18.517 4.573 36.277 11.932 53.179 20.91 58.737-116.72 43.867-272.315-2.9-312.684 34.126 38.191 23.901 182.429-50.279 291.774z" fill="#dfb5a7"/><path d="m323.723 314.704c-1.536-.099-2.736-.251-3.534-.478 0 0-101.058-11.006-106.842-5.925-106 93.116-180.33 96.229-163.224 149.297 20.115 62.404 182.009 63.004 304.261-33.354-10.883-36.322-17.857-73.808-30.661-109.54zm-36.37 82.925c-80.847 79.148-203.072 82.24-217.254 38.241-11.159-34.621 37.332-36.652 106.485-97.399 3.773-3.314 69.701 3.866 69.701 3.866 9.677 2.757 109.365-11.569 41.068 55.292z" fill="#dda86a"/><path d="m222.223 30.584 8.33 23.422c.357 1.003 1.063 1.797 1.954 2.199l20.809 9.375c2.94 1.325 2.94 6.009 0 7.333l-20.809 9.376c-.891.401-1.597 1.196-1.954 2.199l-8.33 23.422c-1.177 3.309-5.339 3.309-6.515 0l-8.33-23.422c-.357-1.003-1.062-1.798-1.954-2.199l-20.809-9.376c-2.94-1.324-2.94-6.009 0-7.333l20.809-9.375c.891-.401 1.597-1.196 1.954-2.199l8.33-23.422c1.177-3.309 5.339-3.309 6.515 0z" fill="#fbf2aa"/><path d="m63.333 132.111 6.179 17.374c.265.744.788 1.333 1.449 1.631l15.436 6.955c2.181.982 2.181 4.457 0 5.44l-15.436 6.955c-.661.298-1.185.887-1.449 1.631l-6.179 17.374c-.873 2.454-3.96 2.454-4.833 0l-6.179-17.374c-.265-.744-.788-1.333-1.449-1.631l-15.436-6.955c-2.181-.982-2.181-4.457 0-5.44l15.436-6.955c.661-.298 1.185-.887 1.449-1.631l6.179-17.374c.873-2.455 3.959-2.455 4.833 0z" fill="#fbf2aa"/><ellipse cx="103.437" cy="110.391" fill="#f7e16e" rx="12.239" ry="12.239" transform="matrix(.925 -.38 .38 .925 -34.179 47.564)"/></g><g><path d="m398.595 80.907c-.113 0-.226-.002-.341-.005-5.564-.185-9.924-4.845-9.739-10.408.11-3.319.166-6.699.166-10.045 0-5.567 4.512-10.079 10.079-10.079s10.079 4.512 10.079 10.079c0 3.568-.06 7.173-.177 10.714-.18 5.449-4.655 9.744-10.067 9.744z" fill="#fff"/><path d="m335.027 244.359c-2.746 0-5.481-1.115-7.47-3.31-3.733-4.118-3.428-10.479.679-14.22.45-.412 45.155-42.162 57.346-123.785.822-5.506 5.957-9.297 11.457-8.48 5.506.822 9.302 5.952 8.48 11.457-13.313 89.138-61.673 133.865-63.725 135.726-1.93 1.75-4.353 2.612-6.767 2.612z" fill="#fff"/><g fill="#3c122c"><path d="m465.473 68.625c-15.649-57.783-64.714-94.457-94.543-46.507-8.788 13.763-16.175 33.083-25.527 57.542-14.204 37.147-32.112 83.913-63.161 130.863-14.219-13.441-32.052-25.19-49.284-22.517-35.342 5.483-131.827 73.222-146.513 108.158-4.267 10.151-1.836 16.93.954 20.831 13.085 17.957 45.479 9.686 68.285 7.096 7.461-1.073 15.308-2.197 23.405-3.164-31.13 25.286-58.648 42.573-80.893 56.54-21.213 13.319-37.968 23.839-48.358 35.604-12.325 13.956-15.283 29.088-9.309 47.62 7.188 22.301 29.387 38.836 62.507 46.562 80.013 16.319 170.81-10.521 244.251-63.63 6.126 29.106 12.233 64.85 26.896 67.258 41.626 11.811 79.7-112.536 84.144-140.309 1.435-9.255-.7-22.938-17.547-37.64 39.959-84.642 47.454-184.378 24.693-264.307zm-312.656 235.511c-15.345 1.916-39.67 6.694-48.459 1.674 4.757-23.344 104.888-95.408 131.691-97.883 28.15-3.874 83.982 77.114 78.773 97.774-.661.366-3.432 1.506-11.909 1.159-7.931-.323-18.299-1.818-29.275-3.399-16.604-2.393-35.423-5.105-54.423-5.264-23.694-.201-46.379 3.062-66.398 5.939zm82.674 173.85c-52.759 17.611-155.218 26.423-175.776-23.48-7.439-23.081 5.903-32.783 49.201-59.968 27.733-17.413 63.462-39.863 104.288-76.146 19.278-.463 39.841 2.454 57.559 5.022 13.667 1.97 25.477 3.671 35.196 3.671 2.367-.005 6.49.003 11.147-1.028.792 20.39 6.82 35.006 13.832 57.996 3.965 12.371 8.187 25.202 11.368 38.051-38.72 30.2-77.954 46.856-106.815 55.882zm202.917-110.507c-1.843 21.874-36.455 116.331-57.628 124.049-3.858-5.442-8.349-26.605-11.675-42.281-3.088-14.553-6.588-31.048-11.17-46.463-6.23-21.506-17.078-50.356-19.975-68.818-1.431-9.429-.258-13.588 1.181-14.284 11.17-5.411 56.767 4.761 83.74 24.712 6.403 4.735 16.932 14.03 15.527 23.085zm-14.367-46.347c-27.281-15.828-67.91-27.197-89.083-21.299-2.432-23.507-20.919-53.218-38.524-74.214 33.805-49.929 52.802-99.545 67.797-138.76 8.589-22.462 16.006-41.861 23.689-53.894 6.524-10.217 11.589-12.662 15.992-12.662 18.551 1.932 31.75 21.792 42.293 54.245 17.708 57.606 18.029 161.065-22.164 246.584z"/><path d="m144.661 462.159c-2.695 0-5.153-1.815-5.854-4.546-.83-3.235 1.121-6.531 4.355-7.361 36.731-9.42 104.48-33.67 145.538-90.24 1.963-2.703 5.745-3.303 8.447-1.342 2.703 1.962 3.304 5.744 1.342 8.447-18.847 25.967-44.587 47.972-76.504 65.404-22.911 12.512-48.42 22.42-75.818 29.447-.503.129-1.008.191-1.506.191z"/><path d="m107.982 469.287c-3.064 0-5.691-2.319-6.009-5.433-.34-3.322 2.077-6.29 5.399-6.631.045-.004 4.561-.476 12.14-1.82 3.29-.585 6.427 1.611 7.01 4.899.583 3.289-1.61 6.427-4.899 7.01-8.065 1.43-12.82 1.922-13.019 1.943-.208.021-.417.032-.622.032z"/><path d="m282.089 425.19c-1.789 0-3.56-.79-4.753-2.304-2.068-2.622-1.618-6.424 1.004-8.493.14-.111 14.135-11.204 21.982-21.94 1.972-2.696 5.755-3.284 8.451-1.314 2.697 1.971 3.285 5.755 1.314 8.451-8.836 12.09-23.635 23.809-24.26 24.302-1.109.874-2.428 1.298-3.738 1.298z"/><path d="m240.593 452.821c-2.144 0-4.221-1.143-5.318-3.159-1.596-2.934-.511-6.606 2.422-8.202 4.537-2.468 11.749-6.706 13.58-8.4 2.452-2.269 6.278-2.12 8.546.332s2.119 6.278-.332 8.546c-3.586 3.318-13.97 9.034-16.014 10.147-.918.5-1.908.736-2.884.736z"/></g></g></g></svg>