<svg id="Capa_1" enable-background="new 0 0 512 512" height="512" viewBox="0 0 512 512" width="512" xmlns="http://www.w3.org/2000/svg"><g><g><path d="m276.956 154.5h-34.164c-68.058 0-123.23 55.172-123.23 123.23v101.062c0 68.058 55.172 123.23 123.23 123.23h34.164c68.058 0 123.23-55.172 123.23-123.23v-101.062c0-68.058-55.172-123.23-123.23-123.23z" fill="#f6e06e"/><path d="m277.233 154.5h-34.718c-1.111 0-2.217.017-3.321.046 66.37 1.76 119.632 56.113 119.632 122.908v46.29c0 67.905-55.048 122.953-122.953 122.953-53.92 0-99.728-34.71-116.311-83.003v15.376c0 67.905 55.048 122.953 122.953 122.953h34.718c67.905 0 122.953-55.048 122.953-122.953v-101.617c0-67.905-55.048-122.953-122.953-122.953z" fill="#dda86a"/><path d="m301.771 152.073c0-3.992 34.565-48.036 54.486-70.613 19.959-22.621-46.866-15.891-65.137 2.934 0 0 20.679-29.817 46.985-57.948 19.279-20.617-43.911-30.604-74.515 23.951h-4.231c-30.604-54.556-95.178-43.181-74.515-23.951 27.848 25.916 44.458 58.029 44.458 58.029-16.61-16.61-84.609-25.637-64.65-3.016 19.921 22.577 53.051 66.621 53.051 70.613" fill="#ccf3e2"/><path d="m334.848 67.675c-22.24 34.644-56.234 56.801-94.337 56.801-19.065 0-37.1-5.551-53.151-15.433 15.681 19.994 30.342 40.374 30.342 43.029h84.068c0-3.992 34.565-48.036 54.486-70.613 10.61-12.023-3.302-15.754-21.408-13.784z" fill="#b1b6e1"/><path d="m453.835 85.167 8.246 23.186c.353.993 1.052 1.779 1.934 2.177l20.6 9.281c2.91 1.311 2.91 5.948 0 7.259l-20.6 9.281c-.882.397-1.581 1.184-1.934 2.177l-8.246 23.186c-1.165 3.276-5.285 3.276-6.449 0l-8.246-23.186c-.353-.993-1.052-1.779-1.934-2.177l-20.599-9.281c-2.91-1.311-2.91-5.948 0-7.259l20.599-9.281c.882-.397 1.581-1.184 1.934-2.177l8.246-23.186c1.164-3.276 5.284-3.276 6.449 0z" fill="#fbf2aa"/><path d="m54.438 183.883 6.117 17.199c.262.736.78 1.32 1.434 1.615l15.28 6.885c2.159.973 2.159 4.412 0 5.385l-15.28 6.885c-.654.295-1.173.878-1.434 1.615l-6.117 17.199c-.864 2.43-3.92 2.43-4.784 0l-6.117-17.199c-.262-.736-.78-1.32-1.435-1.615l-15.281-6.885c-2.159-.973-2.159-4.412 0-5.385l15.281-6.885c.654-.295 1.173-.878 1.435-1.615l6.117-17.199c.864-2.429 3.919-2.429 4.784 0z" fill="#fbf2aa"/><ellipse cx="103.085" cy="125.779" fill="#f7e16e" rx="12.115" ry="12.116" transform="matrix(.924 -.383 .383 .924 -40.287 49.023)"/></g><g><g fill="#3c122c"><path d="m314.517 149.852c8.851-12.77 32.485-42.824 49.22-61.791 12.014-13.616 3.247-22.983 1.367-24.723-9.264-8.574-29.194-6.342-40.248-4.248-.687.13-1.455.282-2.293.458 6.715-8.259 14.501-17.383 22.828-26.288 8.288-8.863 6.371-16.95 5.162-20.016-2.98-7.559-11.29-12.343-22.8-13.125-20.242-1.384-47.336 9.138-66.295 35.142-8.186-11.135-18.423-20.049-30.075-26.113-12.265-6.384-25.982-9.43-37.638-8.371-11.434 1.043-19.473 5.977-22.055 13.536-1.054 3.085-2.545 11.154 6.356 19.437 9.675 9.004 17.969 18.869 24.59 27.744-2.758-.687-5.032-1.162-6.514-1.45-13.771-2.673-31.974-4.181-40.488 3.818-1.809 1.7-10.239 10.855 1.536 24.2 16.324 18.501 39.496 49.061 47.978 61.816-55.163 16.185-95.562 67.247-95.562 127.576v101.616c0 73.298 59.632 132.931 132.93 132.931h34.718c73.298 0 132.93-59.633 132.93-132.931v-101.617c-.001-60.359-40.441-111.443-95.647-127.601zm75.691 127.601v50.44l-21.743-14.835c-2.034-1.388-4.714-1.388-6.748 0l-26.695 18.214-26.69-18.214c-2.034-1.388-4.714-1.389-6.748 0l-26.692 18.214-26.69-18.214c-2.035-1.388-4.714-1.388-6.749 0l-26.689 18.213-26.685-18.213c-2.035-1.389-4.714-1.389-6.749 0l-26.685 18.212-25.105-17.137v-36.681c0-11.372 1.696-22.355 4.836-32.715l16.894 11.532c2.035 1.389 4.714 1.39 6.75 0l26.685-18.213 26.685 18.213c2.035 1.389 4.714 1.389 6.749 0l26.689-18.213 26.69 18.213c2.033 1.388 4.712 1.388 6.749 0l26.692-18.214 26.69 18.214c2.034 1.388 4.713 1.388 6.748 0l26.695-18.214 22.539 15.378c1.682 7.745 2.577 15.78 2.577 24.02zm-260.668 101.616v-50.438l21.73 14.833c2.035 1.389 4.714 1.39 6.75 0l26.685-18.213 26.685 18.213c2.035 1.389 4.714 1.389 6.749 0l26.689-18.213 26.69 18.213c2.033 1.388 4.712 1.389 6.749 0l26.692-18.214 26.69 18.214c2.034 1.389 4.714 1.389 6.748 0l26.695-18.214 25.117 17.138v36.681c0 11.373-1.696 22.357-4.837 32.718l-16.906-11.535c-2.036-1.388-4.714-1.388-6.748 0l-26.695 18.214-26.69-18.214c-2.034-1.388-4.714-1.389-6.748 0l-26.692 18.214-26.69-18.214c-2.035-1.388-4.714-1.388-6.749 0l-26.689 18.213-26.685-18.213c-2.035-1.389-4.714-1.389-6.749 0l-26.685 18.212-22.526-15.377c-1.685-7.743-2.58-15.777-2.58-24.018zm45.261-301.149c4.409-.134 11.023.306 19.585 2.135 14.392 3.075 24.363 7.979 27.86 11.476 3.478 3.479 8.973 3.902 12.944.999 3.971-2.904 5.233-8.269 2.973-12.638-.695-1.344-16.992-32.534-44.631-58.964 2.927-.51 7.391-.68 13.141.434 8.418 1.631 29.555 8.2 43.982 33.918 1.766 3.147 5.093 5.096 8.701 5.096h4.231c3.609 0 6.937-1.949 8.702-5.096 14.926-26.607 36.29-33.077 44.783-34.624 5.868-1.068 10.261-.745 12.904-.124-26.092 28.058-46.204 56.947-47.056 58.177-2.96 4.267-2.151 10.091 1.859 13.391 4.01 3.298 9.881 2.97 13.499-.756 4.702-4.844 15.899-9.67 28.526-12.294 8.836-1.837 15.563-2.102 19.873-1.796-9.487 10.901-22.161 26.388-33.014 40.363-12.217 15.73-17.606 23.494-19.986 27.924-5.389-.668-10.876-1.017-16.443-1.017h-34.718c-5.653 0-11.224.357-16.694 1.046-2.314-4.461-7.509-12.275-19.199-27.827-10.789-14.355-22.685-29.231-31.822-39.823zm67.714 86.558h34.718c47.31 0 87.914 29.235 104.714 70.586l-13.482-9.199c-2.034-1.389-4.714-1.389-6.748 0l-26.695 18.214-26.69-18.214c-2.034-1.389-4.714-1.389-6.748 0l-26.692 18.214-26.69-18.214c-2.035-1.389-4.714-1.389-6.749 0l-26.689 18.213-26.685-18.213c-2.035-1.389-4.714-1.389-6.749 0l-26.685 18.212-16.041-10.949c17.267-40.326 57.342-68.65 103.911-68.65zm34.718 327.567h-34.718c-47.308 0-87.911-29.232-104.712-70.579l13.467 9.192c1.018.695 2.196 1.042 3.375 1.042 1.178 0 2.357-.347 3.375-1.042l26.685-18.213 26.685 18.213c2.035 1.389 4.714 1.389 6.749.001l26.689-18.213 26.69 18.213c2.033 1.387 4.712 1.388 6.749 0l26.692-18.214 26.69 18.214c2.034 1.388 4.714 1.388 6.748 0l26.695-18.214 16.052 10.952c-17.268 40.324-57.343 68.648-103.911 68.648z"/><path d="m292.608 290.95c-3.306 0-5.987-2.68-5.987-5.986v-12.072c0-3.306 2.681-5.986 5.987-5.986s5.987 2.68 5.987 5.986v12.072c-.001 3.305-2.681 5.986-5.987 5.986z"/><path d="m332.336 306.058c-3.306 0-5.987-2.681-5.987-5.987v-12.072c0-3.306 2.681-5.987 5.987-5.987s5.987 2.681 5.987 5.987v12.072c-.001 3.307-2.681 5.987-5.987 5.987z"/><path d="m197.294 380.367c-3.306 0-5.986-2.68-5.986-5.986v-12.072c0-3.306 2.68-5.987 5.986-5.987s5.986 2.681 5.986 5.987v12.072c0 3.306-2.68 5.986-5.986 5.986z"/></g><path d="m160.4 321.016c-5.44 0-9.89-4.367-9.974-9.825-.117-7.614.149-15.122.787-22.314 2.717-30.616 11.97-55.978 27.501-75.382 3.443-4.302 9.722-4.998 14.025-1.555 4.302 3.443 4.998 9.722 1.555 14.024-13.033 16.282-20.839 38.043-23.203 64.677-.578 6.507-.817 13.319-.711 20.245.084 5.51-4.314 10.045-9.824 10.129-.052.001-.104.001-.156.001z" fill="#fff"/><path d="m213.603 205.09c-3.874 0-7.559-2.269-9.178-6.057-2.167-5.067.184-10.93 5.25-13.097 4.712-2.015 8.801-3.323 14.621-3.617 5.507-.277 10.189 3.959 10.468 9.462.278 5.503-3.958 10.19-9.462 10.468-2.932.148-4.77.747-7.78 2.034-1.28.548-2.611.807-3.919.807z" fill="#fff"/></g></g></svg>