<svg id="Capa_1" enable-background="new 0 0 512 512" height="512" viewBox="0 0 512 512" width="512" xmlns="http://www.w3.org/2000/svg"><g><g><path d="m275.594 82.501c-116.298 0-210.576 94.278-210.576 210.575 0 36.343 38.861 74.483 82.999 65.288 24.917-5.191 14.481-30.577 59.839-43.685.134 3.453.412 6.986.851 10.582 4.231 34.694-15.876 74.141-20.539 110.578-4.42 34.54 16.219 65.975 43.51 65.975h86.188c27.429 0 48.09-31.73 43.452-66.402-4.621-34.543-25.126-72.546-20.196-108.311.67-4.86 1-9.652 1.019-14.311 49.507 12.53 41.872 40.804 68.867 45.575 38.715 6.843 75.162-27.776 75.162-65.288-.001-116.298-94.279-210.576-210.576-210.576z" fill="#f4dab5"/><path d="m207.3 314.845c.172-1.849.153-3.792-.098-5.854-.362-2.968-13.893-22.825-33.74-26.794-26.794-1.985-28.779 1.985-44.656 18.855-22.456 23.86-54.815-5.735-62.229-33.626-1.021 8.408-1.558 16.966-1.558 25.65 0 36.344 38.861 74.483 82.999 65.288 24.813-5.169 14.574-30.364 59.282-43.519z" fill="#dba2b3"/><path d="m275.594 82.501c-6.473 0-12.873.308-19.198.88 87.733 8.811 156.225 82.866 156.225 172.921 0 14.772-15.234 22.418-43.664 26.887-27.244 4.282-63.198 62.079-59.384 90.59 3.828 28.618-10.167 57.533-33.858 60.072 0 0-42.468 8.471-56.69-9.307-13.538-16.923-12.975-47.183-16.923-49.075-.665 3.422-13.503 56.993-13.935 60.37-4.42 34.54 16.219 65.975 43.51 65.975h86.188c27.429 0 48.09-31.73 43.452-66.402-4.621-34.543-25.126-72.546-20.196-108.311.669-4.86 1-9.652 1.019-14.31 49.507 12.529 41.871 40.804 68.866 45.575 38.715 6.843 75.162-27.776 75.162-65.288.001-116.299-94.277-210.577-210.574-210.577z" fill="#dba2b3"/><path d="m103.978 2.493 8.368 23.53c.358 1.007 1.068 1.806 1.963 2.209l20.905 9.419c2.953 1.331 2.953 6.036 0 7.367l-20.905 9.419c-.895.403-1.604 1.202-1.963 2.209l-8.368 23.53c-1.182 3.324-5.363 3.324-6.545 0l-8.368-23.53c-.358-1.007-1.068-1.806-1.963-2.209l-20.905-9.419c-2.953-1.331-2.953-6.036 0-7.367l20.905-9.419c.895-.403 1.604-1.202 1.963-2.209l8.368-23.53c1.182-3.324 5.363-3.324 6.545 0z" fill="#f0c6b5"/><ellipse cx="22.303" cy="145.197" fill="#e9a385" rx="18.272" ry="18.272" transform="matrix(.16 -.987 .987 .16 -124.592 143.953)"/><path d="m483.156 53.36 6.207 17.454c.266.747.792 1.339 1.456 1.639l15.507 6.987c2.191.987 2.191 4.478 0 5.465l-15.507 6.987c-.664.299-1.19.891-1.456 1.639l-6.207 17.454c-.877 2.466-3.978 2.466-4.855 0l-6.207-17.454c-.266-.747-.792-1.34-1.456-1.639l-15.507-6.987c-2.191-.987-2.191-4.478 0-5.465l15.507-6.987c.664-.299 1.19-.891 1.456-1.639l6.207-17.454c.877-2.466 3.978-2.466 4.855 0z" fill="#f0c6b5"/></g><g><path d="m431.697 136.973c-41.697-41.696-97.135-64.659-156.103-64.659s-114.406 22.963-156.103 64.659-64.66 97.135-64.66 156.103c0 21.479 11.19 43.401 29.933 58.642 18.807 15.294 42.62 21.35 65.332 16.619 14.815-3.087 20.881-11.922 26.231-19.717 4.75-6.919 9.629-14.025 22.504-19.867 1.63 18.602-4.209 39.2-10.377 60.96-4.17 14.716-8.483 29.932-10.39 44.831-2.852 22.282 3.43 44.657 16.804 59.853 9.991 11.351 23.064 17.603 36.81 17.603h86.189c13.802 0 26.913-6.295 36.917-17.726 13.409-15.323 19.627-37.833 16.633-60.215-1.837-13.732-6.011-27.874-10.047-41.55-6.36-21.552-12.937-43.837-10.155-64.019.096-.699.187-1.4.271-2.101 15.729 6.106 22.2 14.194 28.495 22.065 6.451 8.064 13.762 17.204 29.255 19.943 20.329 3.592 41.72-2.507 58.686-16.735 17.806-14.936 28.436-36.836 28.436-58.584-.001-58.969-22.964-114.408-64.661-156.105zm23.129 199.077c-12.337 10.349-27.665 14.825-42.046 12.282-7.607-1.344-10.676-4.836-16.89-12.606-7.886-9.858-18.51-23.135-45.725-31.288 7.454-10.358 19.603-17.121 33.31-17.121 22.622 0 41.025 18.404 41.025 41.024 0 3.375 2.737 6.112 6.112 6.112 3.376 0 6.112-2.737 6.112-6.112 0-29.362-23.888-53.249-53.25-53.249-20.976 0-41.141 14.333-47.826 29.863-3.396 7.89-4.649 17.124-5.123 25.272-1.341 23.051 4.76 45.88 11.302 68.047 3.993 13.532 7.765 26.312 9.393 38.486 2.227 16.645-2.173 33.128-11.77 44.095-4.299 4.913-11.534 10.769-21.584 10.769h-86.189c-10.007 0-17.224-5.813-21.516-10.69-9.563-10.867-14.008-27.243-11.888-43.805 1.714-13.393 5.634-27.222 9.783-41.862 6.167-21.758 12.509-44.197 11.233-65.801-.404-7.214-1.172-14.872-4.074-21.812-8.01-19.151-27.037-32.564-49.067-32.564-29.362 0-53.25 23.887-53.25 53.249 0 3.375 2.737 6.112 6.112 6.112s6.112-2.737 6.112-6.112c0-22.621 18.404-41.024 41.025-41.024 14.487 0 27.234 7.554 34.535 18.923-25.791 8.494-34.623 21.336-41.153 30.848-4.826 7.031-7.046 9.939-13.589 11.301-16.931 3.529-34.088-.906-48.323-12.48-13.824-11.242-22.412-27.655-22.412-42.834 0-110.495 89.894-200.388 200.388-200.388s200.389 89.894 200.389 200.388c0 15.801-7.909 31.866-21.156 42.977z" fill="#3c122c"/><path d="m229.664 138.126c-4.651 0-8.919-3.081-10.222-7.782-1.565-5.649 1.745-11.496 7.394-13.062 10.249-2.84 21.113-4.825 32.292-5.9 5.827-.568 11.018 3.714 11.58 9.549.561 5.834-3.714 11.019-9.548 11.58-9.951.957-19.592 2.716-28.654 5.228-.95.261-1.904.387-2.842.387z" fill="#fff"/><path d="m122.589 246.479c-.872 0-1.757-.109-2.64-.334-5.679-1.454-9.103-7.236-7.649-12.914 9.976-38.958 36.013-74.346 71.434-97.091 4.932-3.168 11.497-1.736 14.665 3.196 3.167 4.932 1.736 11.497-3.196 14.665-30.957 19.879-53.68 50.676-62.34 84.495-1.228 4.795-5.543 7.983-10.274 7.983z" fill="#fff"/><g fill="#3c122c"><path d="m319.357 395.814c-2.769 0-5.277-1.893-5.942-4.704-1.215-5.122-2.625-10.328-4.313-15.916-.977-3.232.852-6.643 4.083-7.618 3.231-.977 6.643.852 7.618 4.083 1.761 5.828 3.234 11.268 4.506 16.633.779 3.285-1.253 6.579-4.538 7.357-.473.111-.948.165-1.414.165z"/><path d="m291.027 473.274c-1.575 0-3.155-.091-4.735-.28-3.353-.397-5.748-3.436-5.35-6.789.397-3.353 3.44-5.749 6.789-5.35 8.12.965 16.588-1.816 22.142-7.26 7.44-8.822 9.958-22.251 7.482-39.914-.467-3.344 1.862-6.434 5.205-6.902 3.338-.46 6.433 1.862 6.902 5.205 3 21.411-.519 38.149-10.462 49.748l-.318.343c-7.175 7.176-17.254 11.199-27.655 11.199z"/><path d="m354.313 231.591c-3.375 0-6.112-2.737-6.112-6.112v-12.327c0-3.376 2.737-6.112 6.112-6.112 3.376 0 6.112 2.737 6.112 6.112v12.327c.001 3.375-2.736 6.112-6.112 6.112z"/><path d="m391.798 207.424c-3.376 0-6.112-2.737-6.112-6.112v-12.326c0-3.376 2.737-6.112 6.112-6.112s6.112 2.737 6.112 6.112v12.326c0 3.375-2.736 6.112-6.112 6.112z"/><path d="m416.926 252.878c-3.376 0-6.112-2.737-6.112-6.112v-12.327c0-3.375 2.737-6.112 6.112-6.112s6.112 2.737 6.112 6.112v12.327c0 3.375-2.737 6.112-6.112 6.112z"/></g></g></g></svg>