<svg id="Capa_1" enable-background="new 0 0 512 512" height="512" viewBox="0 0 512 512" width="512" xmlns="http://www.w3.org/2000/svg"><g><g><path d="m270.288 39.538c-31.6 7.842-49.326 31.025-62.827 51.516-18.097-16.571-62.324-40.205-94.892-36.166-49.703 6.164-86.519 39.187-82.232 73.758 4.288 34.571 48.056 57.599 97.759 51.434 32.568-4.039 70.128-34.154 83.629-54.645 18.097 16.571 44.352 38.593 76.92 34.553 49.703-6.164 79.756-38.169 75.469-72.74-4.288-34.57-45.26-59.762-93.826-47.71z" fill="#ccf3e2"/><path d="m364.114 87.248c-3.844-30.995-37.178-54.444-79.032-50.28 16.968 1.125 28.206 5.818 29.019 12.374 1.312 10.579-22.178 22.146-58.591 26.662-23.859 2.959-35.153 27.868-47.43 23.632-10.871 7.106-46.338-11.948-70.198-8.989-36.413 4.516-66.994-.399-68.307-10.978-1.143-9.217 20.313-19.691 49.938-25.222-2.361.025-4.683.16-6.944.44-49.703 6.164-86.519 39.187-82.232 73.758 4.288 34.571 48.056 57.599 97.759 51.434 32.568-4.039 70.128-34.154 83.629-54.645 18.097 16.571 44.352 38.593 76.92 34.553 49.703-6.163 79.757-38.168 75.469-72.739z" fill="#b1b6e1"/><path d="m212.939 107.243c-31.284-14.896-65.474-19.835-98.235-11.849-62.335 15.197-101.772 72.839-104.569 141.948-.929 22.966 2.188 47.199 9.856 71.561 14.003 44.49 40.779 81.724 73.612 107.196 6.616 5.133 20.122 13.662 29.15 18.4 26.49 13.903 73.989 31.756 149.699 42.514 16.646-3.717 32.78-10.886 47.693-18.994 55.919-30.405 93.594-81.558 114.891-140.594-.421 1.649-.967 3.423-1.475 5.112 5.215-18.305 9.068-36.531 10.013-55.608 5.035-101.657-60.475-185.226-146.321-186.657-30.484-.509-59.428 9.417-84.314 26.971" fill="#efc5b4"/><path d="m297.252 80.271c-30.483-.508-59.427 9.418-84.312 26.972-31.284-14.896-65.474-19.835-98.235-11.849-62.336 15.196-101.774 72.839-104.57 141.948-.929 22.966 2.188 47.199 9.856 71.561 14.003 44.49 40.779 81.724 73.612 107.197 6.616 5.133 20.122 13.662 29.15 18.4 26.49 13.903 73.989 31.756 149.699 42.514 16.646-3.717 32.78-10.886 47.693-18.994 55.732-30.303 93.337-81.217 114.672-140.003 4.57-16.791 7.89-33.582 8.757-51.088 5.034-101.658-60.476-185.227-146.322-186.658zm98.922 170.859c-.725 14.354-3.478 28.122-7.264 41.892.059-.162.122-.323.182-.485-.349 1.352-.801 2.807-1.222 4.192.356-1.236.701-2.472 1.04-3.707-17.667 48.21-48.784 89.973-94.877 114.846-12.333 6.655-25.677 12.54-39.442 15.596-62.592-8.786-101.857-23.402-123.753-34.789-7.462-3.881-18.625-10.868-24.093-15.073-27.135-20.871-49.256-51.387-60.814-87.859-6.328-19.971-8.895-39.839-8.115-58.67 2.344-56.666 41.032-115 92.579-127.489 27.091-6.564 55.293-4.151 81.151 8.048 0 0 4.331 5.972 9.764 3.221 16.672-8.441 34.96-13.004 53.97-12.7 70.979 1.132 125.104 69.623 120.894 152.977z" fill="#d994b3"/><path d="m479.89 48.513 8.033 22.586c.344.967 1.025 1.733 1.884 2.121l20.067 9.041c2.835 1.277 2.835 5.794 0 7.072l-20.067 9.041c-.859.387-1.54 1.153-1.884 2.121l-8.033 22.586c-1.135 3.191-5.148 3.191-6.283 0l-8.033-22.586c-.344-.967-1.025-1.733-1.884-2.121l-20.067-9.041c-2.835-1.277-2.835-5.794 0-7.072l20.067-9.041c.859-.387 1.54-1.153 1.884-2.121l8.033-22.586c1.135-3.191 5.148-3.191 6.283 0z" fill="#f0c6b5"/><circle cx="412.916" cy="39.327" fill="#e9a385" r="14.408"/></g><g><path d="m374.539 95.647c.101-3.189-.033-6.406-.434-9.638-2.195-17.692-12.268-33.529-28.367-44.591-21.046-14.463-49.431-18.711-77.874-11.652-29.38 7.291-47.803 25.986-62.526 46.568-22.826-16.917-62.251-35.38-94.007-31.439-26.059 3.232-49.798 13.432-66.845 28.723-18.057 16.196-26.63 36.178-24.139 56.265.819 6.606 2.82 12.9 5.87 18.786-54.77 86.462-18.618 215.575 61.215 275.387 52.267 34.871 82.171 45.914 185.021 63.024 94.869-21.046 176.338-117.926 181.173-219.652 6.018-70.553-27.889-136.766-79.087-171.781zm-101.826-46.338c22.858-5.672 45.318-2.5 61.62 8.704 9.629 6.616 16.144 15.47 18.77 25.315-39.897-18.845-87.183-19.653-133.421 7.594 12.054-17.505 27.464-35.268 53.031-41.613zm-214.783 39.299c14.016-12.572 33.861-20.999 55.879-23.73 2.13-.264 4.326-.39 6.582-.39 20.311 0 45.082 10.212 63.273 21.47-52.302-12.696-107.503 2.346-143.057 43.252-.107-.598-.203-1.199-.278-1.804-1.656-13.353 4.595-27.132 17.601-38.798zm375.589 177.822c-5.061 91.905-78.062 178.63-161.503 200.352-97.285-16.946-123.448-26.267-172.239-58.64-110.767-79.456-113.379-299.704 46.822-306.485 88.116.938 160.25 83.443 172.159 170.422 1.913 13.061 21.711 10.19 19.937-2.818-9.157-65.786-48.766-128.875-105.701-162.679 106.214-59.022 210.618 48.785 200.525 159.848z" fill="#3c122c"/><path d="m72.141 307.495c-4.158 0-8.049-2.595-9.502-6.741-11.597-33.093-12.118-67.482-1.431-94.35 2.056-5.166 7.911-7.688 13.076-5.634 5.167 2.055 7.689 7.91 5.634 13.077-8.788 22.092-8.143 52.091 1.724 80.247 1.839 5.247-.924 10.992-6.172 12.831-1.101.386-2.225.57-3.329.57z" fill="#fff"/><path d="m86.837 184.046c-1.169 0-2.359-.206-3.519-.639-5.209-1.944-7.856-7.744-5.912-12.953 2.592-6.944 6.308-12.188 11.695-16.506 4.34-3.477 10.676-2.779 14.152 1.56 3.478 4.339 2.778 10.675-1.56 14.152-2.565 2.056-4.086 4.252-5.422 7.834-1.511 4.051-5.352 6.552-9.434 6.552z" fill="#fff"/><g fill="#3c122c"><path d="m143.413 196.728c-3.152 0-5.807-2.445-6.021-5.636l-.657-9.785c-.224-3.329 2.293-6.209 5.622-6.432 3.346-.219 6.209 2.294 6.432 5.622l.657 9.785c.224 3.329-2.293 6.209-5.622 6.432-.138.009-.275.014-.411.014z"/><path d="m195.615 212.685c-3.152 0-5.807-2.445-6.021-5.636l-.657-9.785c-.224-3.329 2.294-6.208 5.622-6.432 3.334-.227 6.209 2.294 6.432 5.622l.657 9.785c.224 3.329-2.294 6.208-5.622 6.432-.138.009-.275.014-.411.014z"/><path d="m166.396 238.92c-3.152 0-5.807-2.445-6.021-5.636l-.657-9.785c-.224-3.329 2.293-6.209 5.622-6.432 3.351-.224 6.208 2.294 6.432 5.622l.657 9.785c.224 3.329-2.293 6.209-5.622 6.432-.138.009-.275.014-.411.014z"/></g></g></g></svg>