<svg id="Capa_1" enable-background="new 0 0 512 512" height="512" viewBox="0 0 512 512" width="512" xmlns="http://www.w3.org/2000/svg"><g><g><path d="m371.849 114.927c29.049-28.775 30.127-88.341 20.378-98.183s-69.322-9.329-98.371 19.447c-14.673 14.535-21.747 30.461-22.388 45.468-.177 4.131-1.934 8.033-4.871 10.943l-248.459 246.114c-10.693 10.592-10.775 27.847-.183 38.54l10.229 10.326c10.592 10.693 27.847 10.775 38.54.183l247.592-245.257c3.494-3.461 8.162-5.403 13.072-5.679 14.659-.825 30.184-7.76 44.461-21.902z" fill="#faf1a9"/><path d="m476.015 220.33c29.049-28.775 30.127-88.341 20.378-98.183s-69.322-9.329-98.372 19.446c-14.673 14.535-21.747 30.461-22.388 45.468-.177 4.131-1.934 8.033-4.871 10.943l-248.458 246.116c-10.693 10.592-10.775 27.847-.183 38.54l10.229 10.326c10.592 10.693 27.847 10.775 38.54.183l247.592-245.258c3.494-3.461 8.162-5.403 13.072-5.679 14.658-.824 30.184-7.76 44.461-21.902z" fill="#faf1a9"/><path d="m496.392 122.147c-5.077-5.125-23.664-7.439-44.415-4.42 2.547.806 4.487 1.808 5.642 2.974 8.758 8.841 7.79 62.349-18.305 88.198-12.825 12.704-26.772 18.934-39.939 19.675-4.411.248-8.604 1.992-11.743 5.101l-222.413 220.317c-9.605 9.515-25.106 9.441-34.621-.164l-8.945-9.03c-10.035 10.638-9.903 27.393.468 37.863l10.229 10.326c10.592 10.693 27.847 10.775 38.54.183l247.592-245.258c3.494-3.461 8.162-5.403 13.072-5.679 14.657-.824 30.183-7.76 44.46-21.902 29.05-28.776 30.128-88.342 20.378-98.184z" fill="#dfb5a7"/><path d="m392.991 16.718c-5.077-5.125-23.664-7.439-44.415-4.42 2.547.805 4.487 1.808 5.642 2.974 8.758 8.841 7.79 62.349-18.305 88.198-12.825 12.704-26.772 18.934-39.939 19.675-4.411.248-8.604 1.992-11.743 5.101l-222.413 220.316c-9.605 9.515-25.106 9.441-34.621-.164l-8.945-9.03c-10.035 10.638-9.903 27.393.468 37.863l10.229 10.326c10.592 10.693 27.847 10.775 38.54.183l247.592-245.258c3.494-3.461 8.162-5.403 13.072-5.679 14.657-.824 30.183-7.76 44.46-21.902 29.049-28.775 30.127-88.341 20.378-98.183z" fill="#dfb5a7"/><g fill="#fbf2aa"><path d="m81.037 114.991 8.268 23.248c.354.995 1.055 1.784 1.939 2.182l20.655 9.306c2.918 1.315 2.918 5.964 0 7.279l-20.655 9.306c-.884.398-1.585 1.187-1.939 2.183l-8.268 23.248c-1.168 3.284-5.299 3.284-6.467 0l-8.268-23.248c-.354-.995-1.055-1.784-1.939-2.183l-20.655-9.306c-2.918-1.315-2.918-5.964 0-7.279l20.655-9.306c.884-.398 1.585-1.187 1.939-2.182l8.268-23.248c1.169-3.284 5.299-3.284 6.467 0z"/><path d="m414.94 422.306 6.133 17.245c.263.738.782 1.323 1.438 1.619l15.321 6.903c2.165.975 2.165 4.424 0 5.399l-15.321 6.903c-.656.296-1.176.881-1.438 1.619l-6.133 17.245c-.866 2.436-3.93 2.436-4.797 0l-6.133-17.245c-.263-.738-.782-1.323-1.438-1.619l-15.321-6.903c-2.164-.975-2.164-4.424 0-5.399l15.321-6.903c.656-.296 1.176-.881 1.438-1.619l6.133-17.245c.867-2.436 3.931-2.436 4.797 0z"/><path d="m469.229 301.733 6.133 17.245c.263.738.783 1.323 1.438 1.619l15.321 6.903c2.165.975 2.165 4.424 0 5.399l-15.321 6.903c-.656.296-1.176.881-1.438 1.619l-6.133 17.245c-.866 2.436-3.931 2.436-4.797 0l-6.133-17.245c-.263-.738-.782-1.323-1.438-1.619l-15.321-6.903c-2.164-.975-2.164-4.424 0-5.399l15.321-6.903c.656-.296 1.176-.881 1.438-1.619l6.133-17.245c.867-2.436 3.931-2.436 4.797 0z"/></g><circle cx="134.842" cy="63.707" fill="#f7e16e" r="12.267"/><path d="m337.292 437.016c0 5.262-4.266 9.527-9.527 9.527-5.262 0-9.527-4.266-9.527-9.527 0-5.262 4.266-9.527 9.527-9.527s9.527 4.265 9.527 9.527z" fill="#f7e16e"/></g><g><g fill="#3c122c"><path d="m47.551 405.722c-.061 0-.121 0-.182-.001-9.968-.047-19.32-3.973-26.335-11.055l-10.228-10.326c-7.015-7.081-10.853-16.471-10.806-26.439s3.973-19.321 11.055-26.335l248.458-246.115c1.157-1.146 1.831-2.646 1.898-4.223.791-18.491 9.561-36.537 25.362-52.189 19.303-19.121 47.283-25.148 62.244-27.039 18.379-2.325 41.257-1.529 50.361 7.66 9.104 9.19 9.68 32.077 7.183 50.431-2.033 14.942-8.324 42.863-27.629 61.985-15.358 15.213-32.986 23.789-50.978 24.801-2.561.144-4.889 1.131-6.553 2.78l-247.593 245.259c-7.038 6.972-16.357 10.806-26.257 10.806zm318.309-384.687c-4.688 0-10.065.328-15.984 1.158-20.426 2.866-38.263 10.574-48.938 21.148-12.132 12.018-18.845 25.416-19.415 38.748-.286 6.663-3.072 12.936-7.845 17.664l-248.457 246.114c-3.261 3.231-5.07 7.538-5.092 12.129s1.747 8.915 4.978 12.177l10.228 10.327c3.231 3.261 7.538 5.069 12.129 5.091.028.001.056.001.084.001 4.56 0 8.851-1.765 12.094-4.977l247.593-245.257c5.157-5.111 12.114-8.157 19.589-8.578 13.01-.731 26.13-7.303 37.943-19.004 10.673-10.573 18.551-28.336 21.61-48.734 2.797-18.653.54-31.976-1.334-35.181-2.177-1.301-9.076-2.826-19.183-2.826zm19.44 2.993c0 .001 0 .001 0 0zm-.423-.427h.001c-.001.001-.001.001-.001 0z"/><path d="m151.713 511.107c-9.617 0-19.227-3.682-26.513-11.038l-10.229-10.326c-14.481-14.619-14.368-38.294.251-52.774l248.458-246.115c1.157-1.146 1.831-2.645 1.898-4.223.791-18.491 9.561-36.537 25.361-52.189 19.304-19.122 47.284-25.149 62.245-27.039 18.378-2.324 41.257-1.529 50.361 7.66 9.103 9.19 9.679 32.077 7.183 50.432-2.033 14.942-8.324 42.863-27.629 61.986-15.358 15.213-32.986 23.788-50.978 24.8-2.562.144-4.89 1.131-6.555 2.781l-247.593 245.258c-7.263 7.194-16.765 10.787-26.26 10.787zm318.312-384.669c-4.688 0-10.064.328-15.983 1.158-20.426 2.866-38.264 10.574-48.938 21.148-12.131 12.017-18.844 25.416-19.415 38.748-.286 6.663-3.072 12.936-7.845 17.664l-248.457 246.115c-6.733 6.669-6.784 17.573-.115 24.307l10.229 10.326c6.669 6.733 17.573 6.785 24.307.115l247.592-245.258c5.159-5.111 12.116-8.157 19.59-8.578 13.01-.731 26.13-7.303 37.943-19.003 10.673-10.573 18.551-28.337 21.61-48.735 2.797-18.652.54-31.975-1.334-35.181-2.179-1.301-9.078-2.826-19.184-2.826zm5.99 93.892h.01zm13.45-90.898c.001.001.001.001.001.001s0-.001-.001-.001z"/><path d="m304.862 88.031c-1.545 0-3.091-.59-4.27-1.769-2.359-2.358-2.359-6.182 0-8.54l8.519-8.519c2.357-2.358 6.183-2.358 8.54 0 2.359 2.359 2.359 6.182 0 8.541l-8.519 8.519c-1.179 1.179-2.725 1.768-4.27 1.768z"/><path d="m344.343 61.811c-1.545 0-3.091-.59-4.27-1.769-2.359-2.358-2.359-6.182 0-8.541l8.519-8.519c2.357-2.358 6.182-2.358 8.539 0 2.359 2.358 2.359 6.182 0 8.54l-8.519 8.519c-1.177 1.18-2.723 1.77-4.269 1.77z"/><path d="m341.932 93.155c-1.545 0-3.091-.59-4.27-1.769-2.359-2.359-2.359-6.182 0-8.541l8.519-8.519c2.357-2.358 6.182-2.358 8.539 0 2.359 2.358 2.359 6.182 0 8.54l-8.519 8.519c-1.177 1.18-2.724 1.77-4.269 1.77z"/><path d="m406.238 187.284c-1.545 0-3.091-.59-4.27-1.769-2.359-2.358-2.359-6.182-.001-8.54l8.519-8.52c2.359-2.358 6.184-2.358 8.541 0 2.359 2.358 2.359 6.182.001 8.541l-8.519 8.519c-1.18 1.179-2.726 1.769-4.271 1.769z"/><path d="m449.336 169.2c-1.545 0-3.091-.59-4.27-1.769-2.359-2.359-2.359-6.182 0-8.541l8.519-8.519c2.357-2.358 6.182-2.358 8.539 0 2.359 2.359 2.359 6.182 0 8.541l-8.519 8.519c-1.177 1.179-2.723 1.769-4.269 1.769z"/><path d="m439.993 207.778c-1.545 0-3.091-.59-4.27-1.769-2.359-2.358-2.359-6.182-.001-8.541l8.519-8.519c2.359-2.358 6.184-2.358 8.54 0 2.359 2.358 2.359 6.182.001 8.541l-8.519 8.519c-1.179 1.179-2.725 1.769-4.27 1.769z"/><path d="m344.343 61.811c-1.545 0-3.091-.59-4.27-1.769-2.359-2.358-2.359-6.182 0-8.541l8.519-8.519c2.357-2.358 6.182-2.358 8.539 0 2.359 2.358 2.359 6.182 0 8.54l-8.519 8.519c-1.177 1.18-2.723 1.77-4.269 1.77z"/><path d="m398.859 231.342c-1.545 0-3.091-.59-4.27-1.769-2.359-2.359-2.359-6.182 0-8.54l8.519-8.519c2.357-2.358 6.183-2.358 8.54 0 2.359 2.359 2.359 6.182 0 8.541l-8.519 8.519c-1.179 1.179-2.725 1.768-4.27 1.768z"/></g><path d="m241.106 158.973c-2.421 0-4.85-.868-6.78-2.629-4.107-3.746-4.4-10.112-.654-14.219 4.356-4.775 9.6-10.018 14.027-14.025 4.123-3.729 10.486-3.412 14.217.71 3.729 4.121 3.412 10.487-.71 14.216-3.92 3.547-8.771 8.399-12.661 12.664-1.986 2.178-4.708 3.283-7.439 3.283z" fill="#fff"/><path d="m118.276 281.806c-2.609 0-5.214-1.007-7.185-3.016-3.893-3.968-3.832-10.34.135-14.233 13.972-13.709 28.001-27.971 41.569-41.763 17.831-18.128 36.27-36.872 55.046-54.848 4.015-3.844 10.385-3.706 14.231.31 3.844 4.015 3.706 10.387-.311 14.231-18.557 17.768-36.889 36.402-54.616 54.424-13.629 13.855-27.721 28.181-41.82 42.015-1.96 1.921-4.507 2.88-7.049 2.88z" fill="#fff"/><path d="m346.183 264.051c-2.421 0-4.85-.868-6.78-2.629-4.107-3.746-4.4-10.112-.654-14.219 4.356-4.775 9.6-10.019 14.027-14.025 4.122-3.73 10.486-3.412 14.217.71 3.729 4.121 3.412 10.487-.71 14.216-3.92 3.547-8.772 8.4-12.661 12.664-1.985 2.178-4.707 3.283-7.439 3.283z" fill="#fff"/><path d="m223.354 386.884c-2.609 0-5.214-1.007-7.185-3.016-3.893-3.968-3.833-10.341.135-14.234 13.969-13.707 27.996-27.967 41.562-41.758 17.833-18.129 36.273-36.875 55.051-54.854 4.017-3.843 10.386-3.706 14.232.31 3.844 4.015 3.706 10.387-.31 14.231-18.56 17.77-36.893 36.407-54.622 54.43-13.627 13.853-27.717 28.178-41.814 42.009-1.959 1.924-4.505 2.882-7.049 2.882z" fill="#fff"/></g></g></svg>