<svg id="Capa_1" enable-background="new 0 0 512 512" height="512" viewBox="0 0 512 512" width="512" xmlns="http://www.w3.org/2000/svg"><g><g><path d="m146.326 398.298 26.681 67.418c11.633 29.395 44.893 43.794 74.288 32.16 29.395-11.633 43.794-44.893 32.16-74.288l-6.887-17.402c-8.224-20.782-5.041-44.346 8.403-62.2l11.301-15.008c20.004-26.567 26.972-60.733 18.969-93.012l-9.829-39.643c-5.104-20.587-27.185-31.956-46.908-24.15-13.231 5.236-21.982 17.953-22.145 32.181l-3.32 38.258s-2.028 20.292-16.704 26.101c-14.676 5.808-24.29 4.633-31.51-9.499-38.287-70.077-33.899-140.391-51.678-175.949-8.787-17.574-22.047-37.509-64.707-22.883l-10.472 5.308c-26.362 19.527-28.314 41.983-22.456 69.321 5.936 27.702 20.602 59.803 20.602 59.803l-17.987 8.911c-20.457 10.135-28.956 34.84-19.064 55.416 7.811 16.247 25.18 25.632 43.051 23.262l11.636-1.543 9.486 71.138c8.075 23.722 37.282 33.399 60.278 43.355z" fill="#f4dab5"/><path d="m292.272 328.976c20.004-26.567 26.972-60.733 18.969-93.012l-9.829-39.642c-5.104-20.588-27.185-31.956-46.908-24.151-4.858 1.923-9.104 4.86-12.551 8.505l8.121 32.756c6.634 26.758.858 55.08-15.725 77.103l-9.368 12.441c-11.144 14.8-13.783 34.334-6.965 51.561l5.709 14.426c9.644 24.367-2.292 51.938-26.66 61.582-13.043 5.162-27 4.136-38.638-1.665l14.578 36.836c11.633 29.395 44.893 43.794 74.288 32.16 29.395-11.633 43.794-44.893 32.16-74.288l-6.887-17.403c-8.224-20.782-5.041-44.346 8.403-62.2z" fill="#dba2b3"/><ellipse cx="422.68" cy="393.242" fill="#c49a8b" rx="78.334" ry="78.334" transform="matrix(.187 -.983 .983 .187 -42.479 735.184)"/><path d="m390.147 464.496c9.912 4.533 20.922 7.079 32.533 7.079 43.263 0 78.334-35.071 78.334-78.334 0-11.611-2.546-22.622-7.079-32.533z" fill="#b17687"/><circle cx="408.651" cy="377.458" fill="#f4dab5" r="73.657"/><path d="m408.651 303.801c-3.031 0-6.013.204-8.948.56 27.624 3.851 48.892 27.555 48.892 56.241 0 31.37-25.431 56.8-56.801 56.8-28.685 0-52.39-21.267-56.24-48.891-.356 2.935-.56 5.917-.56 8.948 0 40.68 32.977 73.658 73.657 73.658s73.657-32.978 73.657-73.658-32.978-73.658-73.657-73.658z" fill="#dba2b3"/><path d="m221.187 1.835 6.158 17.315c.264.741.786 1.329 1.444 1.625l15.383 6.931c2.173.979 2.173 4.442 0 5.421l-15.383 6.931c-.659.297-1.181.884-1.444 1.626l-6.158 17.315c-.87 2.446-3.946 2.446-4.816 0l-6.158-17.315c-.264-.741-.786-1.329-1.444-1.626l-15.383-6.931c-2.173-.979-2.173-4.442 0-5.421l15.383-6.931c.659-.297 1.181-.884 1.444-1.625l6.158-17.315c.869-2.447 3.946-2.447 4.816 0z" fill="#fbf2aa"/><circle cx="402.266" cy="208.051" fill="#f7e16e" r="12.316"/><ellipse cx="243.95" cy="105.98" fill="#f7e16e" rx="9.566" ry="9.566" transform="matrix(.932 -.363 .363 .932 -21.834 95.871)"/><path d="m375.192 59.58 8.301 23.342c.355.999 1.059 1.791 1.947 2.191l20.738 9.343c2.93 1.32 2.93 5.988 0 7.308l-20.738 9.343c-.888.4-1.592 1.192-1.947 2.191l-8.301 23.342c-1.173 3.298-5.32 3.298-6.493 0l-8.301-23.342c-.355-.999-1.059-1.791-1.947-2.191l-20.738-9.343c-2.93-1.32-2.93-5.988 0-7.308l20.738-9.343c.888-.4 1.592-1.192 1.947-2.191l8.301-23.342c1.173-3.297 5.32-3.297 6.493 0z" fill="#fbf2aa"/></g><g><path d="m465.204 315.731c-14.913-13.674-34.773-22.036-56.554-22.036-46.187 0-83.763 37.576-83.763 83.763 0 18.249 5.883 35.139 15.828 48.913 13.137 32.395 44.913 55.311 81.965 55.311 48.766 0 88.44-39.674 88.44-88.44 0-33.36-18.573-62.453-45.916-77.511zm-56.554-1.825c35.043 0 63.552 28.509 63.552 63.552s-28.509 63.552-63.552 63.552-63.551-28.509-63.551-63.552 28.509-63.552 63.551-63.552zm14.03 147.564c-2.73 0-5.421-.171-8.068-.484 38.122-2.697 69.267-30.999 76.295-67.778 0 .011.001.023.001.034.001 37.621-30.606 68.228-68.228 68.228z" fill="#3c122c"/><path d="m300.346 335.055c21.933-29.128 29.479-66.133 20.704-101.523l-9.829-39.643c-3.134-12.643-11.574-23.313-23.155-29.275-11.581-5.964-25.17-6.634-37.28-1.84-16.996 6.726-28.156 22.814-28.525 41.06l-3.28 37.799c-.088.7-1.976 14.361-10.364 17.681-12.459 4.931-15.049 2.626-18.791-4.7-.042-.084-.086-.166-.131-.249-22.2-40.632-29.723-82.336-35.768-115.845-4.285-23.754-7.985-44.269-15.74-59.777-6.939-13.88-23.188-46.382-77.023-27.923-.443.151-.874.333-1.292.545l-10.472 5.308c-.506.257-.99.556-1.446.894-32.982 24.431-31.814 53.928-26.322 79.559 4.219 19.687 12.497 41.109 17.401 52.889l-9.391 4.652c-25.289 12.529-35.913 43.415-23.685 68.85 9.731 20.239 31.225 31.856 53.487 28.9l1.625-.215 8.151 61.127c.087.654.238 1.297.45 1.922 8.64 25.379 36.031 36.854 58.041 46.073 2.648 1.109 5.257 2.202 7.789 3.298l2.97 1.286 25.141 63.525c10.458 26.424 35.871 42.567 62.702 42.566 8.23 0 16.597-1.52 24.702-4.727 16.727-6.62 29.875-19.357 37.021-35.866 7.146-16.508 7.437-34.812.817-51.539l-6.887-17.402c-6.881-17.386-4.168-37.465 7.079-52.403zm-30.859 128.323c-5.002 11.553-14.203 20.468-25.911 25.102-23.351 9.24-49.758-1.544-60.142-24.084 11.665-.669 30.783-3.196 45.143-12.171 2.84-1.774 3.703-5.516 1.928-8.355-1.774-2.839-5.516-3.704-8.355-1.928-13.857 8.661-34.139 10.253-43.527 10.503l-18.986-47.972c9.365-.868 27.861-3.671 51.385-12.719 3.126-1.202 4.685-4.71 3.483-7.836-1.202-3.123-4.71-4.683-7.836-3.482-26.332 10.128-46.109 11.919-51.959 12.234-1.071-1.596-2.579-2.87-4.369-3.646l-6.811-2.949c-2.604-1.128-5.287-2.252-8.01-3.392-19.406-8.129-39.439-16.53-46.003-32.099 13.076-1.845 41.748-6.941 67.233-18.704 3.041-1.402 4.368-5.006 2.965-8.046s-5.006-4.367-8.046-2.964c-23.939 11.048-51.716 15.957-64.025 17.712l-7.875-59.062c-.737-5.531-5.816-9.416-11.346-8.683l-11.636 1.544c-13.572 1.798-26.681-5.282-32.614-17.622-7.456-15.509-.977-34.342 14.442-41.981l17.987-8.912c4.889-2.423 6.972-8.29 4.706-13.253-.113-.249-9.111-20.072-15.612-41.403 10.098-.59 30.158-2.516 55.349-8.813 3.249-.812 5.224-4.104 4.412-7.353s-4.104-5.223-7.353-4.412c-26.549 6.638-47.47 8.219-55.712 8.595-.354-1.456-.69-2.904-.997-4.336-5.121-23.902-3.892-42.083 17.927-58.587l9.051-4.588c36.555-12.305 44.969 4.527 51.738 18.064 6.457 12.913 9.919 32.106 13.928 54.327 2.346 13.005 4.907 27.195 8.421 42.128-34.095 11.524-47.318 8.053-47.454 8.014l.133.042-3.834 11.505c.705.235 3.791 1.127 9.963 1.127 8.401 0 22.545-1.674 44.141-8.891 5.786 21.781 13.9 44.839 26.486 67.904 13.523 26.292 36.578 17.171 44.162 14.169 20.169-7.982 22.933-33.413 23.04-34.492.004-.044.009-.087.012-.131l3.32-38.259c.022-.252.035-.504.038-.758.116-10.169 6.301-19.158 15.758-22.9 6.69-2.646 14.195-2.277 20.591 1.016s11.057 9.187 12.789 16.169l9.829 39.643c2.951 11.902 3.682 24.023 2.303 35.843-21.57-2.216-35.05-12.21-35.3-12.397-2.654-2.03-6.451-1.531-8.49 1.119-2.042 2.654-1.545 6.461 1.109 8.503.681.525 15.848 11.978 40.533 14.737-3.182 13.102-9.024 25.588-17.388 36.697l-3.241 4.304c-35.638 9.355-57.778-14.035-58.744-15.082-2.254-2.464-6.079-2.643-8.553-.395-2.478 2.252-2.66 6.087-.408 8.565.943 1.038 19.783 21.286 51.037 21.286 2.017 0 4.091-.096 6.21-.275-13.413 20.106-16.27 46.009-7.328 68.603l6.887 17.402c4.631 11.71 4.428 24.52-.574 36.075z" fill="#3c122c"/><g fill="#fff"><path d="m90.514 224.715c-4.355 0-8.375-2.837-9.681-7.224-3.436-11.538-6.75-23.152-9.955-34.382-3.7-12.968-7.195-25.215-10.372-35.553-1.64-5.335 1.356-10.989 6.691-12.628s10.99 1.356 12.628 6.691c3.237 10.532 6.759 22.875 10.489 35.944 3.189 11.176 6.487 22.733 9.89 34.159 1.593 5.349-1.452 10.977-6.801 12.57-.962.285-1.934.423-2.889.423z"/><path d="m67.791 118.185c-1.189 0-2.398-.211-3.576-.657-5.22-1.977-7.849-7.81-5.872-13.03.348-.919.646-2.107.96-3.364.952-3.804 2.256-9.014 6.639-13.507 3.897-3.995 10.295-4.075 14.291-.178 3.995 3.897 4.074 10.295.177 14.29-.57.584-1.022 2.39-1.5 4.301-.421 1.684-.899 3.591-1.665 5.614-1.531 4.042-5.374 6.531-9.454 6.531z"/><path d="m109.883 322.072c-4.504 0-8.61-3.032-9.782-7.594l-9.438-36.758c-1.388-5.406 1.869-10.914 7.275-12.302 5.402-1.393 10.914 1.869 12.302 7.274l9.438 36.758c1.388 5.406-1.869 10.914-7.275 12.302-.842.217-1.688.32-2.52.32z"/></g></g></g></svg>