<svg id="Capa_1" enable-background="new 0 0 512 512" height="512" viewBox="0 0 512 512" width="512" xmlns="http://www.w3.org/2000/svg"><g><g><path d="m243.83 211.371s-9.255-108.814 19.028-158.051c0 0 21.35-5.737 31.294 11.698 0 0-16.562 39.901-20.607 143.194-.001.001-15.371 29.373-29.715 3.159z" fill="#c49a8b"/><path d="m304.767 501.492-42.577-3.361-40.011 3.215c-60.973 4.9-82.255-24.479-108.835-88.27s-31.057-139.694-31.057-139.694c-4.643-66.852 46.866-122.259 110.78-125.741 11.566-.63 23.151.9 34.248 4.22l33.545 10.038 40.006-11.156c8.957-2.498 18.212-3.886 27.511-3.786 66.444.713 120.886 57.563 115.873 126.312 0 0-7.272 65.993-21.255 127.846s-57.216 105.194-118.228 100.377z" fill="#d789b9"/><path d="m328.378 146.957c-8.584-.092-17.127 1.096-25.436 3.243 41.98 11.368 72.885 51.258 69.475 98.021 0 0-5.83 52.907-17.04 102.494s-45.871 84.334-94.785 80.472l-34.134-2.695-32.077 2.578c-48.882 3.928-65.944-19.625-87.253-70.766-17.729-42.549-23.192-91.815-24.527-107.169-.666 6.599-.792 13.361-.314 20.246 0 0 4.477 75.903 31.057 139.695 26.58 63.791 47.862 93.169 108.835 88.269l40.011-3.215 42.577 3.361c61.012 4.817 104.246-38.524 118.229-100.377s21.255-127.846 21.255-127.846c5.013-68.747-49.429-125.597-115.873-126.311z" fill="#c668b9"/><path d="m258.227 162.908s54.543-64.36 121.825-64.36 121.825 48.27 121.825 64.36-54.543 64.361-121.825 64.361c-67.282-.001-121.825-64.361-121.825-64.361z" fill="#a1e8c3"/><path d="m380.052 98.547c-18.252 0-35.562 4.741-51.104 11.644 9.496-3.307 19.681-5.39 30.278-5.39 51.636 0 93.495 37.045 93.495 49.394 0 12.348-41.859 49.394-93.495 49.394-48.997 0-89.186-44.469-93.166-49.014-5.058 5.061-7.834 8.333-7.834 8.333s54.543 64.361 121.825 64.361 121.825-48.27 121.825-64.361c.002-16.09-54.541-64.361-121.824-64.361z" fill="#85adc2"/><path d="m134.704 2.666 8.887 24.99c.38 1.07 1.134 1.918 2.085 2.346l22.202 10.003c3.137 1.413 3.137 6.411 0 7.824l-22.202 10.003c-.951.428-1.704 1.276-2.085 2.346l-8.887 24.99c-1.256 3.531-5.696 3.531-6.951 0l-8.887-24.99c-.381-1.07-1.134-1.918-2.085-2.346l-22.202-10.002c-3.137-1.413-3.137-6.411 0-7.824l22.202-10.003c.951-.428 1.704-1.276 2.085-2.346l8.887-24.99c1.256-3.531 5.696-3.531 6.951-.001z" fill="#e9c3d9"/><path d="m31.51 105.35 6.593 18.537c.282.794.841 1.423 1.546 1.74l16.47 7.42c2.327 1.048 2.327 4.756 0 5.804l-16.47 7.42c-.705.318-1.264.947-1.546 1.74l-6.593 18.537c-.931 2.619-4.225 2.619-5.156 0l-6.593-18.537c-.282-.794-.841-1.423-1.546-1.74l-16.469-7.42c-2.327-1.048-2.327-4.756 0-5.804l16.469-7.42c.705-.318 1.264-.947 1.546-1.74l6.593-18.537c.931-2.619 4.224-2.619 5.156 0z" fill="#e9c3d9"/><ellipse cx="383.417" cy="43.634" fill="#d88aba" rx="14.369" ry="14.369" transform="matrix(.122 -.993 .993 .122 293.263 418.847)"/></g><g><path d="m471.645 116.163c-16.222-10.359-49.692-27.738-91.592-27.738-34.416 0-65.296 15.245-88.275 31.301 5.549-35.253 11.632-50.606 11.723-50.828 1.2-2.891.994-6.175-.556-8.895-10.929-19.161-32.717-19.147-42.713-16.459-2.597.698-4.81 2.401-6.15 4.733-14.067 24.489-19.429 61.822-21.151 94.698l-2.713-.812c-12.539-3.752-25.223-5.309-37.7-4.631-33.773 1.84-66.099 17.562-88.688 43.136-22.782 25.792-34.018 58.95-31.642 93.365.235 3.919 5.029 78.65 31.814 142.934 13.506 32.414 26.17 57.32 44.075 73.508 16.086 14.544 35.952 21.504 61.836 21.504 4.197 0 8.555-.183 13.078-.547l39.207-3.15 41.773 3.298c31.926 2.521 61.073-7.063 84.277-27.717 21.638-19.259 37.068-47.102 44.622-80.518 13.947-61.696 21.37-128.303 21.443-128.969.014-.124.026-.248.035-.372 1.299-17.818-1.042-35.24-6.716-51.491 9.986-4.436 18.137-9.109 24.014-12.862 18.614-11.887 40.354-31.263 40.354-46.743s-21.74-34.856-40.355-46.745zm-202.228-53.638c3.75-.243 9.302.239 13.395 4.199-3.136 9.648-9.312 32.184-14.028 71.277-7.635 6.849-13.12 12.616-16.011 15.798.941-30.842 4.846-67.444 16.644-91.274zm164.752 209.819c-.438 3.896-7.706 67.53-21.047 126.539-13.107 57.981-50.771 92.848-99.335 92.845-2.706 0-5.453-.109-8.225-.327l-42.576-3.361c-.535-.043-1.073-.041-1.607.001l-40.011 3.215c-52.956 4.259-71.901-17.803-98.68-82.073-25.58-61.392-30.252-135.657-30.296-136.398-.003-.035-.005-.07-.007-.105-2.013-28.983 7.44-56.9 26.616-78.609 19.024-21.537 46.221-34.777 74.617-36.323 1.529-.084 3.063-.125 4.601-.125 8.662 0 17.452 1.319 26.195 3.935l26.005 7.782c.03.036.055.075.086.111 2.351 2.774 58.393 67.938 129.547 67.938 18.003 0 34.442-3.212 48.633-7.693 4.628 13.476 6.535 27.9 5.484 42.648zm24.905-78.699c-14.136 8.777-43.2 23.501-79.022 23.501-49.349 0-92.444-38.522-107.969-54.239 15.525-15.716 58.62-54.239 107.969-54.239 35.821 0 64.885 14.724 79.022 23.501 21.022 13.052 31.595 26.409 32.642 30.738-1.047 4.33-11.619 17.686-32.642 30.738z" fill="#3c122c"/><path d="m140.738 338.344c-4.958 0-9.288-3.645-10.008-8.695-4.031-28.279-6.569-64.878 9.722-97.152 2.519-4.99 8.605-6.993 13.597-4.475 4.99 2.519 6.994 8.607 4.475 13.597-13.75 27.239-11.366 59.826-7.753 85.172.789 5.534-3.058 10.66-8.592 11.449-.484.07-.966.104-1.441.104z" fill="#fff"/><path d="m175.809 211.545c-2.746 0-5.482-1.11-7.479-3.298-3.769-4.129-3.477-10.531.652-14.3.564-.515 1.123-1.031 1.682-1.547 3.98-3.67 8.491-7.831 14.51-11.386 4.814-2.842 11.02-1.246 13.863 3.567s1.245 11.02-3.567 13.863c-4.17 2.463-7.373 5.417-11.082 8.837-.584.539-1.169 1.078-1.759 1.617-1.941 1.773-4.384 2.647-6.82 2.647z" fill="#fff"/><g fill="#3c122c"><path d="m334.024 346.129c-3.354 0-6.073-2.719-6.073-6.073v-12.247c0-3.354 2.719-6.073 6.073-6.073s6.073 2.719 6.073 6.073v12.247c0 3.354-2.719 6.073-6.073 6.073z"/><path d="m301.945 384.972c-3.354 0-6.073-2.719-6.073-6.073v-12.248c0-3.354 2.719-6.073 6.073-6.073s6.073 2.719 6.073 6.073v12.248c0 3.353-2.719 6.073-6.073 6.073z"/><path d="m358.544 388.963c-3.354 0-6.073-2.719-6.073-6.073v-12.247c0-3.354 2.719-6.073 6.073-6.073s6.073 2.719 6.073 6.073v12.247c0 3.354-2.719 6.073-6.073 6.073z"/></g></g></g></svg>