<svg id="Capa_1" enable-background="new 0 0 512 512" height="512" viewBox="0 0 512 512" width="512" xmlns="http://www.w3.org/2000/svg"><g><g><path d="m361.038 95.588-5.742-59.507c-1.362-14.11-13.218-24.878-27.394-24.878h-19.462c-14.36 0-26.306 11.04-27.436 25.355l-4.532 57.401c-3.248 41.143-26.334 78.382-62.24 98.73-46.505 26.354-76.848 69.676-76.848 118.656 0 80.327 81.609 145.445 182.278 145.445 100.67 0 182.278-65.118 182.278-145.445 0-49.113-30.51-92.536-77.23-118.868-35.728-20.137-59.733-56.065-63.672-96.889z" fill="#efc5b4"/><path d="m424.711 192.477c-35.729-20.137-59.734-56.066-63.674-96.889l-5.742-59.507c-1.362-14.11-13.218-24.878-27.394-24.878h-.957c6.151 4.767 9.801 12.851 9.086 21.674l-4.336 53.485c-2.975 36.693 11.042 71.823 36.94 94.589 33.864 29.771 52.018 72.435 44.601 115.924-12.131 71.128-88.063 117.516-169.6 103.61-44.001-7.504-80.634-31.039-103.139-62.291 15.79 67.499 89.994 118.595 179.166 118.595 100.669 0 182.278-65.118 182.278-145.445.002-49.112-30.508-92.535-77.229-118.867z" fill="#d994b3"/><path d="m280.064 225.022c11.225-3.688 23.243 3.326 25.318 14.958 13.414 75.224-30.204 150.795-104.893 175.337-74.689 24.543-154.631-10.426-188.45-78.945-5.23-10.595.286-23.371 11.511-27.06z" fill="#f4dab5"/><path d="m173.4 4.304 8.262 23.232c.354.995 1.054 1.783 1.938 2.181l20.64 9.299c2.916 1.314 2.916 5.96 0 7.274l-20.64 9.299c-.884.398-1.584 1.186-1.938 2.181l-8.262 23.232c-1.167 3.282-5.295 3.282-6.462 0l-8.262-23.232c-.354-.995-1.054-1.783-1.938-2.181l-20.641-9.299c-2.916-1.314-2.916-5.96 0-7.274l20.641-9.299c.884-.398 1.584-1.186 1.938-2.181l8.262-23.232c1.167-3.282 5.295-3.282 6.462 0z" fill="#f0c6b5"/><path d="m36.045 171.503 6.129 17.233c.262.738.782 1.322 1.437 1.618l15.311 6.898c2.163.975 2.163 4.421 0 5.395l-15.311 6.898c-.655.295-1.175.88-1.437 1.618l-6.129 17.233c-.866 2.435-3.928 2.435-4.794 0l-6.129-17.233c-.262-.738-.782-1.322-1.437-1.618l-15.311-6.898c-2.163-.975-2.163-4.421 0-5.395l15.311-6.898c.656-.295 1.175-.88 1.437-1.618l6.129-17.233c.866-2.435 3.928-2.435 4.794 0z" fill="#f0c6b5"/><g fill="#e9a385"><ellipse cx="455.825" cy="105.883" rx="18.041" ry="18.041" transform="matrix(.083 -.997 .997 .083 312.596 551.387)"/><ellipse cx="125.087" cy="169.703" rx="7.782" ry="7.782" transform="matrix(.929 -.37 .37 .929 -53.854 58.231)"/></g></g><g><g fill="#3c122c"><path d="m350.781 398.718c-1.905 0-3.78-.9-4.953-2.58-1.908-2.733-1.24-6.495 1.492-8.403 32.465-22.674 51.024-49.054 55.161-78.405 6.293-44.654-23.272-81.737-23.572-82.107-2.097-2.587-1.705-6.387.88-8.487 2.585-2.099 6.379-1.714 8.482.868 1.357 1.665 33.149 41.356 26.18 91.279-4.587 32.857-24.848 62.042-60.219 86.746-1.052.735-2.258 1.089-3.451 1.089z"/><path d="m411.234 395.263c-1.988 0-3.933-.981-5.086-2.778-1.799-2.805-.983-6.539 1.822-8.338 5.053-3.24 8.935-7.855 13.867-14.019 2.083-2.603 5.88-3.024 8.483-.943 2.602 2.082 3.024 5.881.942 8.483-5.475 6.843-10.186 12.413-16.776 16.64-1.009.646-2.137.955-3.252.955z"/><path d="m448.752 350.894c-.712 0-1.436-.127-2.141-.395-3.116-1.183-4.683-4.668-3.5-7.784 7.957-20.958 7.503-46.024-1.245-68.771-1.196-3.111.356-6.603 3.466-7.799 3.113-1.191 6.603.356 7.799 3.467 9.8 25.481 10.26 53.688 1.263 77.387-.915 2.411-3.208 3.895-5.642 3.895z"/></g><path d="m264.57 206.557c-3.164 0-6.279-1.489-8.237-4.275-3.195-4.544-2.101-10.817 2.443-14.013 9.544-6.711 17.525-17.221 24.4-32.135 2.325-5.044 8.298-7.25 13.345-4.924 5.045 2.326 7.249 8.301 4.924 13.346-8.4 18.222-18.572 31.363-31.098 40.169-1.761 1.238-3.779 1.832-5.777 1.832z" fill="#fff"/><path d="m304.477 132.643c-.654 0-1.317-.064-1.983-.197-5.448-1.088-8.98-6.387-7.891-11.835.686-3.429 1.126-6.036 1.427-8.45.687-5.512 5.712-9.426 11.224-8.737 5.512.687 9.424 5.712 8.737 11.224-.364 2.921-.877 5.977-1.662 9.908-.956 4.781-5.156 8.087-9.852 8.087z" fill="#fff"/><path d="m429.65 183.715c-33.111-18.662-55.018-51.968-58.6-89.092l-5.742-59.508c-1.868-19.367-17.949-33.97-37.405-33.97h-19.463c-19.475 0-35.93 15.208-37.463 34.622l-4.532 57.401c-3.021 38.263-24.393 72.197-57.171 90.772-33.842 19.178-58.669 46.432-71.664 77.307l-117.201 38.511c-8.177 2.686-14.777 8.78-18.11 16.72-3.299 7.861-3.037 16.734.72 24.346 17.527 35.51 47.354 63.629 83.989 79.178 20.654 8.766 42.685 13.176 64.773 13.176 13.67 0 27.362-1.698 40.758-5.091 22.069 15.736 47.921 26.998 75.821 33.194l-14.29 24.988c-2.758 4.822-1.084 10.967 3.738 13.724 1.575.901 3.29 1.329 4.984 1.329 3.49 0 6.883-1.82 8.74-5.066l17.908-31.314c6.644.842 13.372 1.412 20.165 1.693v34.163c0 5.555 4.503 10.058 10.058 10.058s10.058-4.503 10.058-10.058v-34.161c6.087-.251 12.124-.728 18.092-1.431l17.757 31.05c1.857 3.246 5.25 5.066 8.74 5.066 1.693 0 3.409-.428 4.984-1.329 4.822-2.757 6.496-8.902 3.738-13.724l-14.044-24.558c32.126-6.832 61.623-20.337 85.838-39.658 36.87-29.419 57.174-68.736 57.174-110.708 0-50.856-30.785-98.568-82.35-127.63zm-231.966 78.964c3.045 21.601-9.995 42.725-30.893 49.592-20.898 6.871-43.927-2.404-54.288-21.601zm-96.798 31.808c.012.023.023.048.034.071 9.872 20.002 30.374 32.033 51.818 32.031 5.936 0 11.946-.922 17.821-2.852 27.095-8.904 43.757-36.76 38.757-64.799-.004-.025-.01-.052-.014-.077l21.172-6.957c.143.715.276 1.405.386 2.023 6.937 38.901-16.191 77.557-53.797 89.915-8.157 2.68-16.497 3.96-24.739 3.96-29.756-.002-58.209-16.692-71.905-44.44-.262-.531-.55-1.182-.839-1.874zm-32.803 10.779c.483 1.193 1.007 2.413 1.513 3.437 9.719 19.69 26.257 35.282 46.57 43.904 11.453 4.86 23.669 7.306 35.916 7.306 9.685 0 19.391-1.53 28.748-4.605 21.19-6.963 39.11-21.358 50.459-40.531 11.24-18.99 15.307-41.353 11.452-62.969-.2-1.122-.46-2.427-.725-3.698l20.267-6.66c.402 1.901.807 3.896 1.1 5.536 9.842 55.195-22.97 110.038-76.325 127.571-11.574 3.803-23.405 5.619-35.099 5.619-42.217-.003-82.586-23.684-102.018-63.053-.713-1.445-1.51-3.378-2.208-5.172zm-47.025 26.655c-1.61-3.263-.823-6.199-.21-7.659 1.076-2.562 3.204-4.528 5.841-5.394l9.564-3.143c.852 2.213 1.895 4.774 2.866 6.74 13.254 26.853 35.811 48.118 63.515 59.876 15.619 6.629 32.279 9.965 48.982 9.964 13.209 0 26.448-2.087 39.21-6.28 28.901-9.497 53.341-29.128 68.819-55.277 15.33-25.901 20.877-56.4 15.62-85.88-.388-2.177-.943-4.859-1.448-7.207l9.386-3.084c2.638-.866 5.519-.545 7.904.879 1.359.811 3.734 2.708 4.372 6.29 12.655 70.962-29.533 141.474-98.131 164.016-14.88 4.89-30.092 7.224-45.127 7.223-54.279-.002-106.18-30.448-131.163-81.064zm298.605 114.811c-38.507 0-74.096-9.994-102.809-26.846 32.424-13.804 59.715-37.598 77.774-68.109 20.271-34.247 27.606-74.578 20.654-113.562-1.49-8.357-6.542-15.657-13.86-20.029-7.392-4.414-16.321-5.406-24.499-2.72l-112.083 36.832c12.344-19.95 30.86-37.544 54.352-50.857 38.599-21.874 63.76-61.758 67.307-106.69l4.531-57.401c.713-9.022 8.36-16.089 17.41-16.089h19.461c9.042 0 16.514 6.786 17.383 15.786l5.742 59.508v-.001c4.212 43.663 29.912 82.798 68.746 104.686 45.154 25.449 72.111 66.609 72.111 110.105.001 74.653-77.257 135.387-172.22 135.387z" fill="#3c122c"/></g></g></svg>