<svg id="Capa_1" enable-background="new 0 0 512 512" height="512" viewBox="0 0 512 512" width="512" xmlns="http://www.w3.org/2000/svg"><g><g><path d="m239.402 210.487s12.599-136.4 34.99-145.107c18.524-7.204 40.136 5.146 40.136 10.291 0 5.146-37.049 111.146-33.961 139.962s-41.165-5.146-41.165-5.146z" fill="#ccf3e2"/><path d="m385.457 204.61h-26.583c-14.361-13.795-33.851-22.29-55.336-22.29h-85.272c-21.564 0-41.119 8.557-55.495 22.441-1.818-.098-3.647-.151-5.489-.151h-30.74c-55.403 0-100.316 44.913-100.316 100.317v88.119c0 55.403 44.913 100.316 100.316 100.316h30.74c7.186 0 14.192-.762 20.95-2.197 11.774 6.831 25.441 10.762 40.034 10.762h85.272c13.65 0 26.497-3.43 37.737-9.464 4.398.589 8.884.9 13.443.9h30.74c55.403 0 100.316-44.913 100.316-100.316v-88.119c-.001-55.404-44.914-100.318-100.317-100.318z" fill="#e8a284"/><path d="m481.364 275.434c-6.343-3.288-12.685-6.58-19.002-9.916 5.174 12.099 8.042 25.418 8.042 39.409v17.901c0 50.633-37.515 92.498-86.265 99.332-.084 3.132-.527 6.221-1.257 9.257.362-3.086.569-6.22.569-9.403v-159.78c0-44.135-35.778-79.913-79.913-79.913h-24.188c44.135 0 79.913 35.778 79.913 79.913v96.698c0 44.135-35.778 79.913-79.913 79.913h-55.41c-44.135 0-79.913-35.778-79.913-79.913v-96.698c0-44.135 35.778-79.913 79.913-79.913h-5.673c-44.135 0-79.913 35.778-79.913 79.913v159.781c0 5.361.538 10.595 1.544 15.661-1.105-1.734-2.192-3.479-3.245-5.247-52.958-2.736-95.056-46.54-95.056-100.179v-27.322c0-17.841 4.663-34.591 12.829-49.106-8.012 6.227-15.792 12.758-23.657 19.179-2.95 9.452-4.541 19.504-4.541 29.928v88.119c0 55.403 44.913 100.316 100.316 100.316h30.74c7.184 0 14.189-.763 20.945-2.2 11.776 6.833 25.444 10.764 40.039 10.764h85.272c13.65 0 26.496-3.43 37.736-9.463 4.397.592 8.885.899 13.444.899h30.74c55.403 0 100.316-44.913 100.316-100.316v-88.119c-.003-10.266-1.548-20.17-4.412-29.495z" fill="#d57b84"/><path d="m175.518 2.465 8.274 23.265c.354.996 1.056 1.785 1.941 2.184l20.67 9.313c2.92 1.316 2.92 5.968 0 7.284l-20.67 9.313c-.885.399-1.586 1.188-1.941 2.184l-8.274 23.265c-1.169 3.287-5.303 3.287-6.472 0l-8.274-23.265c-.354-.996-1.056-1.785-1.941-2.184l-20.67-9.313c-2.92-1.316-2.92-5.968 0-7.284l20.67-9.313c.885-.399 1.586-1.188 1.941-2.184l8.274-23.265c1.17-3.287 5.304-3.287 6.472 0z" fill="#f0c6b5"/><path d="m48.936 125.104 6.138 17.258c.263.739.783 1.324 1.44 1.62l15.333 6.908c2.166.976 2.166 4.427 0 5.403l-15.333 6.908c-.656.296-1.177.881-1.44 1.62l-6.138 17.258c-.867 2.438-3.933 2.438-4.801 0l-6.138-17.258c-.263-.739-.783-1.325-1.439-1.62l-15.333-6.908c-2.166-.976-2.166-4.427 0-5.403l15.333-6.908c.657-.296 1.177-.881 1.439-1.62l6.138-17.258c.868-2.438 3.934-2.438 4.801 0z" fill="#f0c6b5"/><g fill="#e9a385"><ellipse cx="451.687" cy="119.776" rx="18.067" ry="18.067" transform="matrix(.707 -.707 .707 .707 47.602 354.473)"/><circle cx="130.793" cy="88.559" r="7.794"/></g></g><g><g fill="#3c122c"><path d="m370.087 194.538c-5.267 0-10.456.337-15.555.971-15.952-12.897-35.749-21.214-57.38-22.928 6.136-24.905 15.062-53.855 20.551-71.654 6.252-20.274 6.897-22.635 6.897-25.256 0-5.068-3.067-9.736-9.116-13.873-10.765-7.365-28.776-12.016-44.743-5.806-9.555 3.716-20.849 16.545-32.173 83.528-1.919 11.353-3.554 22.637-4.889 32.728h-.682c-25.612 0-49.102 9.248-67.318 24.574-7.7-1.486-15.641-2.284-23.768-2.284-69.343 0-125.758 56.415-125.758 125.759v57.38c0 69.343 56.415 125.759 125.759 125.759 13.257 0 26.036-2.075 38.043-5.897 15.567 9.182 33.698 14.461 53.043 14.461h55.808c17.991 0 34.936-4.562 49.742-12.588 10.084 2.614 20.649 4.023 31.54 4.023 69.343 0 125.759-56.415 125.759-125.759v-57.38c-.001-69.343-56.416-125.758-125.76-125.758zm-112.084-49.096c10.04-60.673 19.189-69.859 20.302-70.774 9.444-3.525 20.512.327 25.297 3.364-1.158 4.019-3.177 10.565-5.148 16.959-8.099 26.262-16.435 54.032-21.908 77.257h-22.542c1.134-8.41 2.467-17.55 3.999-26.806zm-116.09 337.848c-58.236 0-105.614-47.378-105.614-105.613v-57.38c0-58.236 47.378-105.614 105.614-105.614 2.279 0 4.535.098 6.778.243-12.821 17.376-20.41 38.836-20.41 62.038v130.318c0 29.137 11.966 55.528 31.236 74.53-5.727.967-11.607 1.478-17.604 1.478zm91.085 8.565c-46.633 0-84.572-37.939-84.572-84.572v-130.318c0-46.633 37.939-84.572 84.572-84.572h55.808c46.633 0 84.572 37.939 84.572 84.572v130.318c0 46.633-37.939 84.572-84.572 84.572zm242.703-114.178c0 58.236-47.378 105.613-105.613 105.613-3.005 0-5.977-.138-8.919-.386 19.927-19.076 32.355-45.924 32.355-75.622v-130.317c0-23.292-7.647-44.83-20.559-62.242 56.911 1.53 102.737 48.3 102.737 105.573v57.381z"/><path d="m285.142 470.501c-3.227 0-5.905-2.55-6.034-5.803-.133-3.335 2.463-6.146 5.798-6.279 15.476-.617 27.207-6.12 35.864-16.825 24.451-30.235 14.346-90.757 14.241-91.365-.568-3.288 1.637-6.415 4.924-6.984 3.289-.572 6.415 1.632 6.985 4.92.468 2.699 11.154 66.489-16.734 101.008-10.823 13.397-25.896 20.572-44.8 21.325-.081.002-.163.003-.244.003z"/><path d="m339.403 327.177c-3.235 0-5.915-2.56-6.036-5.82l-.78-21.049c-.123-3.336 2.48-6.14 5.816-6.263 3.35-.107 6.14 2.48 6.263 5.816l.78 21.049c.123 3.336-2.48 6.139-5.816 6.263-.076.002-.151.004-.227.004z"/><path d="m419.38 442.812c-1.144 0-2.301-.324-3.327-1.002-2.785-1.84-3.55-5.59-1.71-8.374 24.634-37.273 20.07-85.255 20.021-85.735-.338-3.318 2.075-6.286 5.393-6.628 3.316-.339 6.285 2.067 6.629 5.385.221 2.132 5.109 52.683-21.961 93.642-1.161 1.759-3.085 2.712-5.045 2.712z"/></g><path d="m180.906 354.607c-5.178 0-9.579-3.967-10.025-9.22-.524-6.162-.709-12.199-.832-17.804-.419-19.238.585-41.413 11.203-60.031 2.756-4.833 8.908-6.516 13.74-3.759 4.833 2.756 6.516 8.907 3.76 13.74-8.162 14.312-8.939 32.302-8.562 49.611.115 5.275.287 10.93.764 16.537.471 5.543-3.64 10.418-9.183 10.889-.29.025-.579.037-.865.037z" fill="#fff"/><path d="m204.59 252.01c-1.799 0-3.619-.481-5.264-1.492-4.74-2.912-6.221-9.115-3.309-13.855 3.375-5.492 7.196-10.031 11.358-13.489 4.278-3.556 10.629-2.969 14.184 1.309s2.969 10.629-1.309 14.184c-2.468 2.051-4.846 4.925-7.069 8.542-1.901 3.095-5.206 4.801-8.591 4.801z" fill="#fff"/><path d="m259.142 374.056c-3.338 0-6.044-2.706-6.044-6.043v-12.187c0-3.338 2.706-6.044 6.044-6.044s6.044 2.706 6.044 6.044v12.187c0 3.337-2.706 6.043-6.044 6.043z" fill="#3c122c"/><path d="m294.909 391.435c-3.338 0-6.044-2.706-6.044-6.044v-12.188c0-3.337 2.706-6.044 6.044-6.044s6.044 2.706 6.044 6.044v12.188c-.001 3.338-2.707 6.044-6.044 6.044z" fill="#3c122c"/><path d="m269.008 415.134c-3.338 0-6.044-2.706-6.044-6.043v-12.188c0-3.338 2.706-6.044 6.044-6.044s6.044 2.706 6.044 6.044v12.188c0 3.337-2.706 6.043-6.044 6.043z" fill="#3c122c"/></g></g></svg>