<svg id="Capa_1" enable-background="new 0 0 512 512" height="512" viewBox="0 0 512 512" width="512" xmlns="http://www.w3.org/2000/svg"><g><g><path d="m289.896 486.127-23.947 7.211c-81.291 24.478-158.945-2.519-201.3-89.046-42.354-86.526-31.938-184.716-20.491-235.362 11.446-50.645 39.299-122.968 107.281-143.439 79.205-23.85 161.828 25.302 178.666 106.288l15.715 75.587c1.69 8.127 4.094 16.09 7.185 23.794l27.078 67.494c30.832 76.85-10.899 163.598-90.187 187.473z" fill="#c49a8b"/><path d="m380.083 298.653-27.078-67.493c-3.091-7.704-5.495-15.667-7.185-23.794l-15.715-75.587c-12.123-58.308-58.348-100.111-112.845-110.052 41.257 7.662 76.45 32.233 85.159 74.198l1.824 80.04c.006 10.758 1.889 21.466 5.881 31.456.026.064 2.789 5.567 2.815 5.63l17.923 39.084c25.559 63.641-9.213 135.549-75.147 155.403l-19.913 5.996c-67.599 20.356-134.286 3.714-169.415-67.933-35.129-71.645-24.22-158.657-14.657-200.626 1.179-5.173 2.566-10.62 4.196-16.225-5.148 13.975-8.955 27.732-11.768 40.18-11.447 50.646-21.863 148.836 20.492 235.362s120.009 113.524 201.3 89.046l23.946-7.211c79.288-23.875 121.019-110.623 90.187-187.474z" fill="#b2748a"/><path d="m402.9 2.462 8.265 23.24c.354.995 1.055 1.783 1.939 2.182l20.647 9.303c2.917 1.314 2.917 5.962 0 7.276l-20.647 9.303c-.884.398-1.585 1.187-1.939 2.182l-8.265 23.24c-1.168 3.283-5.297 3.283-6.465 0l-8.265-23.24c-.354-.995-1.054-1.784-1.939-2.182l-20.648-9.303c-2.917-1.314-2.917-5.962 0-7.276l20.648-9.303c.884-.398 1.585-1.187 1.939-2.182l8.265-23.24c1.168-3.283 5.297-3.283 6.465 0z" fill="#f0c6b5"/><circle cx="469.967" cy="152.855" fill="#e9a385" r="18.047"/></g><g><path d="m210.035 512c-22.251 0-43.554-4.095-63.202-12.268-38.338-15.948-69.881-47.421-91.221-91.016-19.346-39.521-29.924-85.028-31.441-135.256-1.431-47.385 5.759-87.22 10.173-106.747 7.582-33.543 18.928-62.531 33.727-86.159 20.726-33.093 47.799-54.861 80.467-64.697 40.446-12.179 84.465-6.778 120.768 14.818 36.301 21.596 62.052 57.701 70.651 99.056l15.716 75.586c1.563 7.526 3.808 14.96 6.672 22.096l27.078 67.494c15.745 39.245 14.261 83.607-4.07 121.711-18.331 38.105-52.065 66.951-92.554 79.143l-23.946 7.211c-20.002 6.022-39.758 9.028-58.818 9.028zm-18.032-482.411c-12.654 0-25.349 1.828-37.663 5.536-61.748 18.593-88.663 84.233-100.369 136.024-8.761 38.762-24.377 138.647 19.714 228.72 29.505 60.274 77.425 92.22 135.573 92.225 17.116.002 35.106-2.764 53.789-8.39l23.946-7.211c35.095-10.568 64.335-35.571 80.223-68.598 15.889-33.028 17.174-71.479 3.527-105.495l-27.078-67.494c-3.303-8.233-5.892-16.811-7.698-25.494l-15.716-75.585c-7.452-35.846-29.772-67.139-61.237-85.858-20.411-12.144-43.64-18.38-67.011-18.38z" fill="#3c122c"/><path d="m100.222 250.962c-5.253 0-9.676-4.077-10.03-9.395-2.568-38.691 3.753-77.407 18.279-111.963 2.154-5.123 8.055-7.528 13.174-5.377 5.123 2.154 7.53 8.052 5.377 13.174-13.321 31.688-19.113 67.246-16.75 102.833.367 5.545-3.829 10.338-9.374 10.705-.226.016-.452.023-.676.023z" fill="#fff"/><path d="m140.939 104.292c-2.454 0-4.913-.891-6.851-2.694-4.069-3.785-4.3-10.152-.515-14.22 1.609-1.73 3.127-3.632 4.732-5.645 3.533-4.43 7.538-9.449 13.263-13.235 4.638-3.065 10.878-1.791 13.943 2.844 3.065 4.636 1.791 10.878-2.844 13.943-3.074 2.032-5.649 5.26-8.631 8.997-1.769 2.219-3.598 4.512-5.728 6.801-1.982 2.131-4.673 3.209-7.369 3.209z" fill="#fff"/><g fill="#3c122c"><path d="m216.178 256.558c-3.334 0-6.037-2.703-6.037-6.037v-12.04c0-3.334 2.703-6.037 6.037-6.037s6.037 2.703 6.037 6.037v12.04c0 3.334-2.703 6.037-6.037 6.037z"/><path d="m275.384 232.556c-3.334 0-6.037-2.703-6.037-6.037v-12.04c0-3.334 2.703-6.037 6.037-6.037s6.037 2.703 6.037 6.037v12.04c0 3.334-2.703 6.037-6.037 6.037z"/><path d="m258.182 280.96c-3.334 0-6.037-2.703-6.037-6.037v-12.04c0-3.334 2.703-6.037 6.037-6.037s6.037 2.703 6.037 6.037v12.04c0 3.334-2.703 6.037-6.037 6.037z"/><path d="m164.173 329.366c-3.334 0-6.037-2.703-6.037-6.037v-12.04c0-3.334 2.703-6.037 6.037-6.037s6.037 2.703 6.037 6.037v12.04c0 3.333-2.704 6.037-6.037 6.037z"/><path d="m237.38 350.168c-3.334 0-6.037-2.703-6.037-6.037v-12.04c0-3.334 2.703-6.037 6.037-6.037s6.037 2.703 6.037 6.037v12.04c0 3.333-2.703 6.037-6.037 6.037z"/><path d="m177.268 165.43c-3.334 0-6.037-2.703-6.037-6.037v-12.04c0-3.334 2.703-6.037 6.037-6.037s6.037 2.703 6.037 6.037v12.04c0 3.334-2.703 6.037-6.037 6.037z"/><path d="m262.974 436.923c-2.2 0-4.32-1.206-5.385-3.301-1.512-2.971-.328-6.606 2.644-8.117 36.357-18.492 58.413-45.569 65.554-80.478 5.428-26.535-.09-48.645-1.296-51.728-1.467-2.572-.853-5.897 1.556-7.76 2.639-2.039 6.428-1.554 8.469 1.084 2.669 3.453 9.781 31.204 2.593 63.182-5.805 25.829-22.906 61.795-71.403 86.461-.877.445-1.811.657-2.732.657zm61.985-142.923c.002.002.003.005.005.007-.002-.002-.003-.004-.005-.007zm-.527-.847v.001s0 0 0-.001z"/><path d="m215.161 453.788c-2.945 0-5.523-2.159-5.965-5.159-.485-3.298 1.795-6.366 5.095-6.852 11.44-1.683 21.359-5.333 21.458-5.37 3.124-1.162 6.599.433 7.759 3.56 1.16 3.126-.434 6.6-3.56 7.759-.452.168-11.22 4.131-23.901 5.997-.297.043-.593.065-.886.065z"/></g></g></g></svg>