<svg id="Capa_1" enable-background="new 0 0 509.468 509.468" height="512" viewBox="0 0 509.468 509.468" width="512" xmlns="http://www.w3.org/2000/svg"><g><g><ellipse cx="212.119" cy="295.556" fill="#a1e8c3" rx="203.397" ry="196.26" transform="matrix(.237 -.972 .972 .237 -125.267 431.638)"/><path d="m260.292 97.946c-8.835-2.153-17.68-3.635-26.489-4.506 65.092 27.706 102.091 101.215 84.191 174.642-19.834 81.359-99.553 131.8-178.057 112.661-70.85-17.271-116.489-85.313-110.137-158.225-3.314 8.542-6.124 17.398-8.356 26.554-26.607 109.137 37.194 218.421 142.501 244.093s212.244-41.989 238.849-151.126-37.195-218.421-142.502-244.093z" fill="#85adc2"/><path d="m347.79 102.634c-24.188-11.992-46.47-29.279-66.679-51.779-9.041-10.067-8.21-25.557 1.856-34.598 10.065-9.041 25.556-8.21 34.598 1.856 31.947 35.569 68.373 53.761 111.359 55.617 13.52.584 24.004 12.016 23.421 25.534-.584 13.519-12.016 24.004-25.534 23.42-28.171-1.216-54.571-7.928-79.021-20.05z" fill="#c49a8b"/><path d="m494.451 316.082c-5.949 76.722-54.536 145.55-129.675 171.678-83.07 28.886-173.07-3.294-223.771-73.14-11.785-16.234 355.603-126.351 353.446-98.538z" fill="#ccf3e2"/><path d="m443.074 324.639c-4.281 55.201-39.238 104.723-93.3 123.521-59.768 20.783-124.522-2.37-161.002-52.624" fill="#faf1a9"/><path d="m54.566 7.278 6.093 17.133c.261.734.777 1.315 1.429 1.609l15.222 6.858c2.151.969 2.151 4.395 0 5.364l-15.222 6.858c-.652.294-1.168.875-1.429 1.608l-6.093 17.133c-.861 2.421-3.905 2.421-4.766 0l-6.093-17.133c-.261-.734-.777-1.315-1.429-1.608l-15.222-6.858c-2.15-.969-2.15-4.395 0-5.364l15.222-6.858c.652-.294 1.168-.875 1.429-1.609l6.093-17.133c.861-2.42 3.905-2.42 4.766 0z" fill="#fbf2aa"/><circle cx="161.077" cy="42.451" fill="#f7e16e" r="12.187"/><path d="m21.117 115.515c0 5.228-4.238 9.466-9.466 9.466s-9.466-4.238-9.466-9.466 4.238-9.466 9.466-9.466 9.466 4.238 9.466 9.466z" fill="#f7e16e"/><path d="m482.925 160.09 6.093 17.133c.261.734.777 1.315 1.429 1.608l15.222 6.858c2.151.969 2.151 4.395 0 5.364l-15.222 6.858c-.652.294-1.168.875-1.429 1.609l-6.093 17.133c-.861 2.421-3.905 2.421-4.766 0l-6.093-17.133c-.261-.734-.777-1.315-1.429-1.609l-15.222-6.858c-2.151-.969-2.151-4.395 0-5.364l15.222-6.858c.652-.294 1.168-.875 1.429-1.608l6.093-17.133c.861-2.421 3.905-2.421 4.766 0z" fill="#fbf2aa"/></g><g><g fill="#3c122c"><path d="m495.567 302.638c-6.686-2.56-20.927-4.097-72.136 6.863-1.49.319-3.022.655-4.555.991 3.783-44.427-5.958-88.621-28.515-127.259-14.587-24.986-33.631-46.1-55.984-62.519l6.689-10.291c.761.39 1.518.79 2.282 1.169 25.65 12.718 53.586 19.811 83.032 21.082.51.022 1.018.033 1.525.033 8.651 0 16.868-3.191 23.283-9.075 6.792-6.229 10.75-14.73 11.148-23.938.397-9.207-2.814-18.017-9.042-24.808-6.229-6.792-14.73-10.751-23.938-11.147-40.16-1.734-74.293-18.845-104.351-52.31-12.713-14.152-34.569-15.324-48.721-2.613-14.152 12.712-15.324 34.568-2.613 48.721 15.417 17.165 32.18 31.53 50.019 42.92l-6.004 9.237c-16.889-9.975-35.294-17.506-54.831-22.269-53.811-13.12-109.673-3.751-157.292 26.379-47.496 30.052-81.106 77.18-94.642 132.702-13.533 55.524-5.382 112.833 22.955 161.371 28.41 48.664 73.692 82.689 127.505 95.808 15.877 3.871 31.93 5.784 47.9 5.784 15.825 0 31.563-1.895 46.961-5.611 15.241 3.568 30.656 5.36 46.044 5.36 22.291 0 44.521-3.744 66.046-11.229 76.711-26.675 130.454-97.748 136.915-181.068h-.001c.385-4.964-1.956-11.323-9.679-14.283zm-207.016-258.465c-5.342-5.947-4.85-15.134 1.099-20.477 2.765-2.483 6.228-3.705 9.681-3.705 3.975 0 7.937 1.621 10.796 4.805 33.837 37.673 72.556 56.948 118.368 58.925 3.87.167 7.442 1.831 10.06 4.686 2.618 2.854 3.967 6.557 3.8 10.426-.167 3.87-1.831 7.443-4.686 10.062-2.854 2.618-6.558 3.967-10.426 3.801-26.64-1.151-51.877-7.55-75.011-19.02-22.991-11.401-44.417-28.055-63.681-49.503zm139.418 286.503c3.04-.65 5.928-1.251 8.674-1.806-5.819 52.442-40.268 96.732-88.84 113.622-53.957 18.761-113.293.737-149.864-44.843 2.331-.858 4.767-1.744 7.326-2.664 30.689-11.028 69.891-23.572 110.384-35.323 41.892-12.154 81.781-22.448 112.32-28.986zm-109.81 5.731c-3.505 1.002-7.021 2.014-10.557 3.043-12.436 3.62-24.715 7.307-36.66 10.996 3.055-10.072 5.147-19.888 6.523-29.023 14.819-1.005 31.511-4.139 48.982-11.023-2.093 9.119-4.86 17.789-8.288 26.007zm-109.261 151.346c-14.016 0-28.225-1.655-42.388-5.107-48.05-11.714-88.512-42.145-113.932-85.687-25.494-43.668-32.815-95.278-20.615-145.322 21.563-88.453 99.088-148.278 183.376-148.278 14.016 0 28.225 1.655 42.388 5.107 48.05 11.714 88.512 42.145 113.932 85.686 21.458 36.755 30.02 79.137 24.923 121.476-19.572 4.7-41.361 10.386-64.18 16.752 3.174-8.911 5.681-18.241 7.473-27.975 8.514-4.256 17.141-9.454 25.763-15.796 2.669-1.963 3.242-5.719 1.278-8.388-1.963-2.67-5.718-3.244-8.389-1.278-5.395 3.968-10.899 7.546-16.504 10.754.322-2.981.586-5.993.784-9.039 2.608-40.037-6.272-71.1-6.651-72.401-.926-3.181-4.25-5.006-7.434-4.083-3.181.924-5.011 4.252-4.089 7.433.088.303 8.719 30.645 6.174 68.65-.368 5.497-.952 10.854-1.725 16.085-15.983 7.294-32.729 11.645-50.136 13.018.21-2.21.383-4.362.521-6.445 2.049-30.922-2.482-53.531-2.676-54.478-.663-3.244-3.828-5.327-7.077-4.674-3.245.662-5.34 3.83-4.68 7.076.044.219 4.429 22.246 2.436 51.63-.16 2.367-.368 4.829-.629 7.368-4.478.001-8.995-.183-13.553-.564-28.645-2.393-48.188-11.867-48.382-11.963-2.968-1.462-6.562-.249-8.032 2.719-1.47 2.97-.255 6.568 2.714 8.039.86.426 21.409 10.456 52.182 13.119 4.197.364 8.714.585 13.493.611-1.676 10.383-4.319 21.626-8.385 33.043-22.78 7.204-43.96 14.325-62.051 20.889-54.194 19.663-59.469 26.54-62.004 29.845-3.673 4.788-3.902 10.836-.583 15.407 20.558 28.321 48.031 51.388 79.07 66.744-.802.01-1.606.027-2.412.027zm152.322-10.22c-74.173 25.794-155.784.878-205.92-62.003 4.949-2.666 14.119-6.979 30.895-13.457 18.449 24.123 44.023 42.565 72.436 52.102 15.159 5.089 30.693 7.632 46.182 7.632 15.841 0 31.636-2.66 46.932-7.979 54.085-18.807 92.088-68.685 97.176-127.311 18.953-3.422 28.972-4.121 34.045-4.103-8.214 71.623-55.367 132.037-121.746 155.119z"/><path d="m285.697 408.097c-3.452 0-6.251-2.799-6.251-6.251v-12.605c0-3.452 2.799-6.251 6.251-6.251s6.251 2.799 6.251 6.251v12.605c0 3.453-2.799 6.251-6.251 6.251z"/><path d="m324.817 426.132c-3.452 0-6.251-2.799-6.251-6.251v-12.605c0-3.452 2.799-6.251 6.251-6.251s6.251 2.799 6.251 6.251v12.605c0 3.452-2.799 6.251-6.251 6.251z"/><path d="m349.788 393.392c-3.452 0-6.251-2.799-6.251-6.251v-12.605c0-3.452 2.799-6.251 6.251-6.251s6.251 2.799 6.251 6.251v12.605c-.001 3.452-2.799 6.251-6.251 6.251z"/></g><path d="m246.607 164.54c-.817 0-1.647-.097-2.477-.299-12.07-2.944-24.437-4.09-36.755-3.404-5.743.329-10.661-4.08-10.98-9.824-.319-5.745 4.08-10.661 9.824-10.981 14.368-.799 28.784.536 42.848 3.965 5.59 1.363 9.017 7 7.653 12.59-1.161 4.76-5.422 7.952-10.113 7.953z" fill="#fff"/><path d="m75.655 272.706c-.709 0-1.429-.072-2.151-.224-5.631-1.183-9.238-6.705-8.056-12.336 9.621-45.838 42.37-85.834 87.606-106.991 5.209-2.438 11.413-.188 13.851 5.023 2.438 5.212.188 11.413-5.023 13.852-38.746 18.12-67.883 53.524-76.041 92.396-1.031 4.91-5.362 8.28-10.186 8.28z" fill="#fff"/></g></g></svg>