<svg id="Capa_1" enable-background="new 0 0 512 512" height="512" viewBox="0 0 512 512" width="512" xmlns="http://www.w3.org/2000/svg"><g><g><path d="m321.036 437.234c58.623-58.624 75.029-142.097 47.044-208.042-.98-2.31-.42-4.964 1.368-6.726.078-.077.156-.154.233-.232 21.684-21.684 21.684-56.841 0-78.525s-56.841-21.684-78.525 0c-.078.078-.155.155-.232.234-1.762 1.788-4.415 2.348-6.726 1.368-65.944-27.986-149.418-11.58-208.042 47.044-58.622 58.623-75.029 142.095-47.045 208.038.98 2.309.411 4.954-1.364 6.726-.01.01-.02.02-.03.03-21.684 21.684-21.684 56.841 0 78.525s56.841 21.684 78.525 0l.03-.03c1.772-1.775 4.417-2.344 6.726-1.364 65.943 27.984 149.416 11.577 208.038-47.046z" fill="#f6e06e"/><path d="m369.478 222.436c.068-.067.135-.134.203-.201 21.684-21.684 21.684-56.841 0-78.525-21.02-21.02-54.697-21.66-76.493-1.928-.037.033-.023.094.025.108 6.998 2.028 13.599 5.793 19.116 11.308 17.446 17.446 17.446 45.731 0 63.177-.008.008-.017.017-.026.025-1.523 1.513-2.015 3.792-1.179 5.769 22.399 53.024 9.174 120.074-37.932 167.181-47.164 47.164-114.321 60.364-167.375 37.85-1.858-.788-3.986-.331-5.411 1.098-.008.008-.016.016-.024.024-17.446 17.445-45.731 17.445-63.176 0-5.516-5.516-9.281-12.118-11.309-19.116-.014-.048-.075-.061-.108-.025-19.732 21.796-19.091 55.473 1.928 76.493 21.684 21.684 56.841 21.684 78.525 0 1.8-1.8 4.513-2.344 6.857-1.351 65.928 27.924 149.344 11.504 207.936-47.088 58.578-58.577 75.004-141.966 47.11-207.886-1.001-2.369-.497-5.107 1.333-6.913z" fill="#dda86a"/><path d="m363.487 134.278c17.053-16.377 35.584-38.144 43.464-45.785 7.371-7.148 18.278-7.547 24.507.288 6.228 7.835 3.155 17.568-2.909 25.464-10.193 12.872-26.678 29.703-42.967 43.464" fill="#c49a8b"/><path d="m484.199 373.481c-6.289 16.029-26.859 23.407-41.903 15.029-28.202-15.707-69.372-45.212-85.35-89.761-25.319-70.591 22.206-152.223 22.206-152.223s88.574 32.818 113.892 103.41c15.978 44.548 2.946 93.494-8.845 123.545z" fill="#a1e8c3"/><path d="m488.647 333.504c-3.445 12.313-25.158 16.165-35.643 8.848-19.658-13.716-48.671-38.916-61.521-74.744-19.629-54.727-7.976-112.967-7.111-117.095-.553-1.188-1.107-2.375-1.667-3.561-3.333-1.425-5.238-2.132-5.238-2.132s-49.07 84.289-22.928 157.176c16.498 45.998 59.007 76.463 88.127 92.681 15.533 8.651 36.772 1.033 43.266-15.518 12.174-31.028 9.174-68.739 2.715-45.655z" fill="#85adc2"/><path d="m107.558 1.832 6.151 17.294c.263.74.785 1.327 1.442 1.624l15.365 6.923c2.171.978 2.171 4.437 0 5.415l-15.365 6.923c-.658.296-1.179.883-1.442 1.624l-6.151 17.294c-.869 2.443-3.942 2.443-4.811 0l-6.15-17.294c-.263-.74-.785-1.327-1.442-1.624l-15.365-6.923c-2.171-.978-2.171-4.437 0-5.415l15.365-6.923c.658-.296 1.179-.883 1.442-1.624l6.15-17.294c.87-2.443 3.942-2.443 4.811 0z" fill="#fbf2aa"/><g fill="#f7e16e"><ellipse cx="44.765" cy="129.777" rx="12.302" ry="12.302" transform="matrix(.083 -.997 .997 .083 -88.262 163.686)"/><ellipse cx="268.451" cy="54.281" rx="9.555" ry="9.555" transform="matrix(.924 -.383 .383 .924 -.338 106.863)"/></g></g><g><g fill="#3c122c"><path d="m502.545 246.528c-17.725-49.418-63.367-80.951-92.979-96.913 10.287-9.904 19.844-20.199 26.896-29.105l.092-.118c10.131-13.191 11.18-27.357 2.804-37.894-4.516-5.68-10.917-9.062-18.025-9.521-7.669-.498-15.479 2.518-21.41 8.269-3.337 3.236-8.057 8.4-14.034 14.939-7.78 8.511-17.274 18.887-26.458 27.942-23.866-11.743-53.432-8.135-73.774 10.861-34.108-13.86-72.205-16.802-110.372-8.496-39.754 8.653-76.5 28.96-106.267 58.726-29.765 29.766-50.072 66.511-58.725 106.264-8.308 38.169-5.364 76.274 8.5 110.385-23.787 25.704-23.191 65.968 1.785 90.944 12.794 12.793 29.598 19.189 46.401 19.189 16.004 0 32.005-5.799 44.543-17.403 34.112 13.865 72.217 16.807 110.386 8.501 39.753-8.654 76.498-28.961 106.264-58.726 25.247-25.248 43.687-55.517 53.984-88.384 17.539 17.994 37.82 31.645 55.228 41.34 5.68 3.163 12.093 4.766 18.634 4.766 4.648 0 9.36-.809 13.918-2.445 10.973-3.935 19.596-12.129 23.659-22.481 13.3-33.9 25.649-84.082 8.95-130.64zm-101.754-136.723c5.52-6.039 10.287-11.253 13.186-14.066 1.821-1.766 4.082-2.748 6.054-2.615 1.408.091 2.561.725 3.525 1.937 3.078 3.875-.516 9.771-2.969 12.979-7.609 9.6-18.812 21.373-30.408 32.104-4.228-1.844-6.926-2.862-7.521-3.082-1.889-.699-3.872-.79-5.726-.371-.039-.039-.075-.079-.114-.118-.213-.213-.437-.411-.652-.62 8.709-8.75 17.393-18.237 24.625-26.148zm-86.893 320.292c-37.228 37.229-86.446 57.357-134.369 57.354-21.524-.001-42.797-4.064-62.588-12.463-6.103-2.589-13.095-1.205-17.814 3.525-.007.008-.015.016-.023.023-8.581 8.581-19.99 13.307-32.125 13.307s-23.544-4.727-32.125-13.307c-8.581-8.581-13.307-19.99-13.307-32.125s4.726-23.544 13.307-32.125c.017-.018.041-.041.063-.064 4.698-4.72 6.066-11.689 3.486-17.773-27.099-63.857-9.058-143.008 44.891-196.957 53.949-53.951 133.104-71.99 196.963-44.889 6.142 2.604 13.15 1.201 17.851-3.568l.186-.188c8.581-8.581 19.99-13.306 32.125-13.306s23.544 4.726 32.125 13.306c.664.663 1.296 1.349 1.912 2.046-12.459 25.771-38.152 90.321-17.012 149.264 4.622 12.886 11.144 24.567 18.826 35.106-8.089 33.823-25.9 66.363-52.372 92.834zm160.904-60.302c-1.933 4.929-6.19 8.884-11.679 10.853-5.49 1.969-11.289 1.621-15.915-.956-28.792-16.035-66.175-43.685-80.76-84.349-15.916-44.375-.467-94.536 11.178-122.317 6.562 5.646 15.911 14.598 25.457 26.79 16.052 20.501 35.974 54.66 39.723 100.966.256 3.167 2.907 5.567 6.03 5.567.164 0 .329-.006.496-.02 3.334-.27 5.818-3.192 5.548-6.526-4.009-49.513-25.357-85.973-42.561-107.839-11.465-14.574-22.527-24.693-29.534-30.453.346-.723.681-1.413 1.001-2.064 21.738 9.849 80.715 40.804 99.757 93.897 14.584 40.662 3.297 85.77-8.741 116.451z"/><path d="m164.415 454.759c-16.068 0-26.116-2.408-27.052-2.642-3.381-.846-5.436-4.271-4.591-7.651.845-3.377 4.264-5.436 7.641-4.593.61.147 49.83 11.651 107.486-20.209 3.05-1.688 6.889-.58 8.574 2.47s.579 6.888-2.471 8.574c-35.678 19.718-68.042 24.051-89.587 24.051z"/><path d="m278.171 417.088c-2.118 0-4.187-1.068-5.379-3.004-1.826-2.967-.902-6.851 2.062-8.678 5.333-3.292 20.177-14.096 24.76-24.406 1.414-3.183 5.142-4.621 8.328-3.203 3.184 1.415 4.618 5.144 3.203 8.328-7.115 16.009-28.755 29.459-29.672 30.024-1.032.637-2.174.939-3.302.939z"/><path d="m196.524 328.196c-3.345 0-6.056-2.712-6.056-6.056v-12.213c0-3.345 2.712-6.056 6.056-6.056s6.056 2.712 6.056 6.056v12.213c0 3.344-2.712 6.056-6.056 6.056z"/><path d="m234.11 314.013c-3.345 0-6.056-2.712-6.056-6.056v-12.213c0-3.345 2.712-6.056 6.056-6.056s6.056 2.712 6.056 6.056v12.213c.001 3.344-2.711 6.056-6.056 6.056z"/><path d="m222.885 368.342c-3.344 0-6.056-2.712-6.056-6.056v-12.213c0-3.345 2.712-6.056 6.056-6.056 3.345 0 6.056 2.712 6.056 6.056v12.213c0 3.344-2.712 6.056-6.056 6.056z"/></g><path d="m186.114 200.136c-4.485 0-8.639-2.892-10.039-7.4-1.723-5.547 1.378-11.439 6.924-13.161 6.426-1.996 13.084-3.574 19.788-4.693 5.735-.954 11.148 2.914 12.103 8.643.955 5.728-2.914 11.147-8.642 12.103-5.768.962-11.492 2.318-17.011 4.033-1.039.321-2.09.475-3.123.475z" fill="#fff"/><path d="m72.601 321.133c-1.193 0-2.405-.204-3.591-.636-5.458-1.983-8.275-8.017-6.291-13.475 12.384-34.07 31.452-64.297 55.144-87.415 7.151-6.978 14.785-13.363 22.691-18.981 4.734-3.365 11.299-2.253 14.664 2.481 3.364 4.733 2.253 11.299-2.481 14.663-7.02 4.989-13.812 10.671-20.186 16.89-21.442 20.924-38.755 48.431-50.065 79.546-1.554 4.273-5.588 6.927-9.885 6.927z" fill="#fff"/></g></g></svg>