<svg id="Capa_1" enable-background="new 0 0 512 512" height="512" viewBox="0 0 512 512" width="512" xmlns="http://www.w3.org/2000/svg"><g><g><path d="m231.701 169.264c-2.207-23.527-7.71-51.564-8.788-62.481-1.008-10.212 5.464-18.994 15.467-18.994 10.004 0 15.707 8.458 18.113 18.113 3.731 15.98 6.646 39.346 7.281 60.649" fill="#c49a8b"/><path d="m461.2 340.218c0 137.904-88.059 161.693-196.552 161.693s-196.334-25.649-196.334-161.693 87.951-168.397 196.443-168.397c108.493 0 196.443 30.493 196.443 168.397z" fill="#e8a284"/><path d="m264.757 171.821c-7.986 0-15.858.181-23.595.561 73.788 4.084 130.589 32.106 130.589 129.497 0 106.508-67.927 140.815-151.719 140.815-78.814 0-143.585-31.633-151.003-122.827-.465 6.516-.716 13.286-.716 20.35 0 136.043 86.671 160.522 195.163 160.522s197.724-22.617 197.724-160.521-87.95-168.397-196.443-168.397z" fill="#d57b84"/><path d="m483.009 150.508c11.753 10.272 11.753 30.082 0 40.354-22.033 19.257-59.809 45.356-102.71 45.356-67.981 0-123.091-65.533-123.091-65.533s55.11-65.533 123.091-65.533c42.902-.001 80.677 26.098 102.71 45.356z" fill="#a1e8c3"/><path d="m488.385 150.767c-22.75-19.884-55.845-28.866-38.125-16.289 9.452 6.707 6.094 26.412-3.358 33.121-17.72 12.576-48.101 29.619-82.604 29.619-54.673 0-102.279-29.885-102.279-29.885s.222-.268.641-.758c-.889-.059-1.778-.13-2.666-.212-3.093 3.263-4.755 5.236-4.755 5.236s56.903 67.666 127.095 67.666c44.297 0 83.302-26.948 106.052-46.833 12.134-10.605 12.134-31.059-.001-41.665z" fill="#85adc2"/><path d="m135.951 2.469 8.287 23.302c.355.998 1.057 1.788 1.944 2.188l20.703 9.327c2.925 1.318 2.925 5.978 0 7.296l-20.703 9.328c-.886.399-1.589 1.19-1.944 2.188l-8.287 23.302c-1.171 3.292-5.311 3.292-6.482 0l-8.287-23.302c-.355-.998-1.057-1.788-1.944-2.188l-20.703-9.328c-2.925-1.318-2.925-5.978 0-7.296l20.703-9.327c.886-.399 1.589-1.19 1.944-2.188l8.287-23.302c1.17-3.292 5.311-3.292 6.482 0z" fill="#f0c6b5"/><ellipse cx="318.559" cy="49.24" fill="#e9a385" rx="18.095" ry="18.095" transform="matrix(.707 -.707 .707 .707 58.486 239.677)"/><path d="m39.469 110.618 6.147 17.285c.263.74.784 1.326 1.442 1.623l15.357 6.919c2.17.977 2.17 4.434 0 5.412l-15.357 6.919c-.658.296-1.179.883-1.442 1.623l-6.147 17.285c-.868 2.442-3.94 2.442-4.808 0l-6.147-17.285c-.263-.74-.784-1.327-1.442-1.623l-15.357-6.919c-2.17-.977-2.17-4.434 0-5.412l15.357-6.919c.658-.296 1.179-.883 1.442-1.623l6.147-17.285c.868-2.442 3.94-2.442 4.808 0z" fill="#f0c6b5"/></g><g><path d="m191.613 239.945c-3.565 0-7.02-1.894-8.855-5.24-2.679-4.885-.89-11.018 3.995-13.696 1.92-1.052 3.886-2.078 5.845-3.048 4.994-2.471 11.045-.429 13.518 4.562 2.473 4.993.431 11.045-4.562 13.518-1.709.846-3.425 1.742-5.1 2.66-1.538.843-3.201 1.244-4.841 1.244z" fill="#fff"/><path d="m119.497 328.676c-1.004 0-2.024-.151-3.032-.468-5.315-1.674-8.267-7.338-6.594-12.653 6.524-20.724 17.41-40.503 31.481-57.198 4.256-5.051 8.852-9.883 13.661-14.359 4.078-3.796 10.462-3.568 14.258.509 3.797 4.079 3.569 10.462-.509 14.259-4.215 3.924-8.246 8.161-11.98 12.593-12.369 14.676-21.935 32.053-27.665 50.255-1.356 4.306-5.333 7.062-9.62 7.062z" fill="#fff"/><g fill="#3c122c"><path d="m489.648 142.911c-24.976-21.828-64.22-47.848-109.349-47.848-45.369 0-84.643 26.431-108.035 46.629-1.355-13.839-3.43-27.306-5.947-38.084-.012-.048-.024-.097-.035-.145-4.02-16.132-14.45-25.762-27.902-25.762-7.254 0-13.881 2.905-18.661 8.181-5.162 5.696-7.657 13.677-6.846 21.893.457 4.625 1.561 11.534 2.96 20.281 1.709 10.686 3.77 23.585 5.151 35.73-42.417 4.246-75.684 15.139-100.952 32.976-19.943 14.078-35.247 32.792-45.487 55.623-10.83 24.146-16.321 53.699-16.321 87.834.001 151.372 102.574 171.781 202.911 171.781 67.671 0 112.739-9.471 146.132-30.708 43.081-27.4 64.023-73.545 64.023-141.074 0-34.561-5.49-64.372-16.315-88.605-3.391-7.59-7.358-14.702-11.853-21.346 18.323-9.193 34.173-21.011 46.528-31.809 7.794-6.812 12.264-16.935 12.264-27.773-.002-10.839-4.472-20.962-12.266-27.774zm-253.891-18.043c-1.292-8.078-2.408-15.055-2.804-19.076-.249-2.522.393-4.901 1.718-6.363.946-1.044 2.16-1.552 3.709-1.552 4.945 0 7.322 6.48 8.306 10.395 3.237 13.893 5.758 33.457 6.71 51.538-.741.798-1.385 1.506-1.923 2.107-3.502.092-6.953.221-10.349.387-1.433-12.833-3.587-26.308-5.367-37.436zm215.355 215.35c0 60.073-17.883 100.65-54.674 124.048-29.965 19.058-71.695 27.556-135.303 27.556-62.157 0-102.696-8.666-131.445-28.1-34.511-23.328-51.287-63.727-51.287-123.504 0-60.139 17.423-101.672 53.266-126.973 28.018-19.776 68.061-30.016 122.17-31.212 14.785 15.833 65.041 64.273 126.461 64.273 15.511 0 30.327-3.074 44.108-7.995 18.172 24.903 26.704 58.539 26.704 101.907zm25.258-156.953c-22.373 19.554-57.202 42.863-96.07 42.863-41.965 0-79.453-27.764-99.649-46.117 6.813-3.794 16.913-8.73 29.568-12.919 22.324-7.389 57.44-13.903 97.942-2.971 3.226.865 6.55-1.039 7.422-4.267.871-3.228-1.039-6.551-4.267-7.422-43.608-11.767-81.37-4.69-105.366 3.322-14.366 4.796-25.561 10.421-32.829 14.585.321-.79.538-1.63.649-2.502 17.515-17.303 59.063-52.598 106.53-52.598 38.868 0 73.697 23.309 96.07 42.863 3.41 2.98 5.365 7.565 5.365 12.581 0 5.017-1.955 9.602-5.365 12.582z"/><path d="m147.326 463.392c-3.343 0-6.053-2.71-6.053-6.053v-10.834c0-3.343 2.71-6.053 6.053-6.053s6.053 2.71 6.053 6.053v10.834c0 3.343-2.71 6.053-6.053 6.053z"/><path d="m115.954 429.254c-3.343 0-6.053-2.71-6.053-6.053v-10.834c0-3.343 2.71-6.053 6.053-6.053s6.053 2.71 6.053 6.053v10.834c0 3.343-2.71 6.053-6.053 6.053z"/><path d="m143.878 404.572c-3.343 0-6.053-2.71-6.053-6.053v-10.834c0-3.343 2.71-6.053 6.053-6.053s6.053 2.71 6.053 6.053v10.834c.001 3.343-2.71 6.053-6.053 6.053z"/></g></g></g></svg>