<svg id="Capa_1" enable-background="new 0 0 512 512" height="512" viewBox="0 0 512 512" width="512" xmlns="http://www.w3.org/2000/svg"><g><g><ellipse cx="137.327" cy="101.667" fill="#ccf3e2" rx="69.622" ry="123.138" transform="matrix(.367 -.93 .93 .367 -7.598 192.174)"/><path d="m162.845 36.89c-6.559-2.584-13.201-4.573-19.843-6.06 33.013 20.46 40.605 44.368 36.221 55.497-5.042 12.798-53.992 31.195-89.986 21.597-35.419-9.445-60.564-26.035-65.99-44.393-4.768 3.2 13.456 32.103 14.398 34.795 8.399 23.996 22.797 39.594 74.164 68.118 59.456 33.015 132.753-1.03 140.086-19.643 7.334-18.616-25.775-84.985-89.05-109.911z" fill="#b1b6e1"/><path d="m291.742 116.773c-16.95 0-33.168 4.454-48.119 12.56-14.952-8.107-31.17-12.56-48.12-12.56-74.699 0-146.96 48.615-146.96 195.704 0 147.088 72.261 189.47 146.96 189.47 16.95 0 33.168-4.452 48.12-12.56 14.952 8.108 31.169 12.56 48.119 12.56 74.7 0 146.96-38.642 146.96-189.47s-72.26-195.704-146.96-195.704z" fill="#e8a284"/><path d="m282.483 157.517c-13.689 0-26.786 3.511-38.86 9.903-12.075-6.392-25.172-9.903-38.861-9.903-60.326 0-118.682 38.33-118.682 154.301 0 115.97 58.357 149.385 118.682 149.385 13.689 0 26.786-3.51 38.861-9.903 12.075 6.393 25.172 9.903 38.86 9.903 60.326 0 118.682-30.467 118.682-149.385 0-118.919-58.356-154.301-118.682-154.301z" fill="#efc5b4"/><path d="m291.742 116.774c-5.862 0-11.635.545-17.299 1.576 34.856 5.29 66.892 24.568 85.451 67.158 24.658 23.202 41.272 62.865 41.272 126.311 0 118.918-58.357 149.385-118.682 149.385-13.688 0-26.786-3.51-38.86-9.903-12.075 6.393-25.172 9.903-38.861 9.903-39.402 0-77.959-14.263-99.969-56.467-29.879-22.969-52.642-58.349-55.848-110.606-.26 5.942-.402 12.047-.402 18.346 0 147.088 72.261 189.47 146.96 189.47 16.95 0 33.168-4.452 48.12-12.559 14.951 8.108 31.169 12.559 48.119 12.559 74.7 0 146.96-38.642 146.96-189.47-.001-150.829-72.261-195.703-146.961-195.703z" fill="#d57b84"/><path d="m401.165 311.818c0-63.446-16.613-103.108-41.272-126.311 10.45 23.981 16.627 55.35 16.627 95.779 0 126.79-91.168 160.187-157.613 160.187-34.537 0-79.189-9.886-114.116-36.737 22.01 42.204 60.567 56.467 99.969 56.467 13.689 0 26.786-3.51 38.861-9.903 12.074 6.393 25.172 9.903 38.86 9.903 60.328.001 118.684-30.467 118.684-149.385z" fill="#d994b3"/><ellipse cx="243.622" cy="308.253" fill="#a07575" rx="74.761" ry="107.415"/><path d="m243.622 200.838c-2.535 0-5.955 1.054-9.934 3.029 17.451 9.544 47.028 40.55 47.028 77.327 0 44.379-39.856 80.356-55.928 80.356-14.492 0-48.32-29.257-54.829-67.546-.711 4.662-1.099 9.417-1.099 14.249 0 59.324 53.278 107.415 74.761 107.415s74.761-48.092 74.761-107.415c.001-59.323-57.573-107.415-74.76-107.415z" fill="#925873"/><path d="m430.22 2.46 8.257 23.218c.353.994 1.053 1.782 1.937 2.18l20.628 9.294c2.914 1.313 2.914 5.956 0 7.269l-20.628 9.294c-.883.398-1.583 1.186-1.937 2.18l-8.257 23.218c-1.167 3.28-5.292 3.28-6.459 0l-8.257-23.218c-.354-.994-1.053-1.782-1.937-2.18l-20.629-9.294c-2.914-1.313-2.914-5.956 0-7.269l20.629-9.294c.883-.398 1.583-1.186 1.937-2.18l8.257-23.218c1.167-3.28 5.292-3.28 6.459 0z" fill="#f0c6b5"/><g fill="#e9a385"><ellipse cx="301.701" cy="28.498" rx="18.03" ry="18.03" transform="matrix(.16 -.987 .987 .16 225.244 321.739)"/><ellipse cx="492.171" cy="120.25" rx="7.778" ry="7.778" transform="matrix(.924 -.383 .383 .924 -8.553 197.499)"/></g></g><g><g fill="#3c122c"><path d="m400.665 151.294c-26.572-29.159-64.236-44.572-108.923-44.572-12.207 0-24.212 2.08-35.869 6.188-3.833-8.695-8.777-17.23-13.763-24.424-11.098-16.015-35.674-45.228-75.58-60.949-39.291-15.479-77.978-10.119-97.543-5.545-23.807 5.564-50.225 17.264-55.58 30.858-5.356 13.593 5.985 40.168 19.601 60.473 8.208 12.241 23.684 31.794 46.841 47.462-27.447 35.392-41.359 86.345-41.359 151.692 0 173.602 98.374 199.523 157.012 199.523 16.532 0 32.694-3.802 48.12-11.312 15.426 7.51 31.588 11.312 48.119 11.312 71.629 0 157.013-34.615 157.013-199.523.001-71.934-16.179-126.164-48.089-161.183zm-155.749-33.87c-.431.204-.863.399-1.293.609-.765-.372-1.533-.728-2.302-1.083 1.199.149 2.397.313 3.595.474zm-194.157-13.746c-14.954-21.749-19.235-39.263-18.614-43.446 2.399-3.483 17.477-13.372 43.245-19.079 16.94-3.752 50.348-8.077 83.771 5.089 34.965 13.775 56.625 39.554 66.424 53.695 3.412 4.923 6.217 9.61 8.513 13.975-12.508-4.772-25.434-7.191-38.596-7.191-40.64 0-75.72 13.424-102.106 38.921-20.991-13.589-35.18-31.12-42.637-41.964zm335.227 353.129c-22.375 23.283-54.084 35.089-94.245 35.089-14.867 0-29.445-3.817-43.328-11.345-1.494-.81-3.143-1.215-4.791-1.215s-3.298.405-4.792 1.215c-13.883 7.528-28.46 11.345-43.329 11.345-62.456 0-136.908-31.128-136.908-179.419 0-65.352 14.432-114.573 42.898-146.296 29.186-32.527 67.232-39.355 94.01-39.355 14.868 0 29.446 3.817 43.329 11.345 2.988 1.62 6.595 1.62 9.583 0 13.883-7.528 28.46-11.345 43.328-11.345 39.433 0 71.08 12.788 94.063 38.009 28.43 31.2 42.846 80.874 42.846 147.642 0 66.313-14.353 114.872-42.664 144.33z"/><path d="m282.483 467.235c-13.356 0-26.413-3.082-38.86-9.168-12.447 6.085-25.506 9.168-38.861 9.168-46.577 0-124.714-20.191-124.714-155.417 0-55.1 12.889-97.062 38.309-124.72 21.412-23.298 51.29-35.612 86.404-35.612 13.355 0 26.414 3.082 38.861 9.168 12.447-6.085 25.505-9.168 38.86-9.168 35.458 0 65.325 11.92 86.373 34.471 25.442 27.259 38.342 69.604 38.342 125.861 0 56.04-12.937 97.597-38.453 123.518-20.834 21.167-49.857 31.899-86.261 31.899zm-38.86-22.759 2.822 1.494c11.533 6.106 23.658 9.202 36.038 9.202 74.75 0 112.652-48.231 112.652-143.354 0-53.102-11.808-92.678-35.097-117.63-18.975-20.331-45.069-30.64-77.554-30.64-12.38 0-24.505 3.096-36.038 9.202l-2.822 1.494-2.822-1.494c-11.533-6.106-23.658-9.202-36.039-9.202-22.07 0-53.434 5.501-77.522 31.712-23.31 25.362-35.129 64.578-35.129 116.558 0 118.484 61.26 143.354 112.651 143.354 12.381 0 24.506-3.096 36.039-9.202z"/><path d="m243.623 421.7c-13.386 0-33.516-13.526-50.092-33.659-11.466-13.925-30.7-42.807-30.7-79.788 0-36.387 20.283-65.655 32.373-79.862 16.56-19.46 36.923-33.584 48.419-33.584 11.495 0 31.858 14.124 48.418 33.584 12.09 14.208 32.373 43.475 32.373 79.862 0 36.98-19.234 65.863-30.699 79.788-16.576 20.132-36.706 33.659-50.092 33.659zm0-214.83c-5.83 0-23.156 10.448-39.232 29.339-11.016 12.945-29.497 39.519-29.497 72.044 0 33.215 17.511 59.443 27.949 72.121 15.65 19.007 32.691 29.263 40.78 29.263s25.13-10.256 40.78-29.263c10.438-12.678 27.949-38.905 27.949-72.121 0-32.526-18.481-59.099-29.497-72.044-16.077-18.891-33.402-29.339-39.232-29.339z"/><path d="m272.124 296.673c-2.916 0-5.481-2.12-5.95-5.091-.823-5.212-2.023-10.595-3.568-16.002-.916-3.202.938-6.541 4.142-7.456 3.204-.917 6.541.939 7.456 4.142 1.68 5.875 2.987 11.742 3.886 17.433.519 3.291-1.727 6.379-5.017 6.899-.319.051-.636.075-.949.075z"/><path d="m247.238 380.065c-1.561 0-3.122-.603-4.302-1.804-2.335-2.376-2.301-6.194.075-8.529 12.31-12.097 20.625-28.428 23.411-45.985.522-3.29 3.623-5.535 6.902-5.011 3.289.522 5.534 3.612 5.011 6.902-3.188 20.09-12.73 38.805-26.87 52.698-1.174 1.153-2.7 1.729-4.227 1.729z"/></g><path d="m112.078 310.974c-5.365 0-9.818-4.236-10.037-9.645-.984-24.256 3.677-48.234 13.48-69.344 2.337-5.035 8.314-7.223 13.351-4.883 5.035 2.337 7.221 8.315 4.883 13.351-8.339 17.959-12.468 39.289-11.625 60.061.225 5.547-4.09 10.226-9.637 10.452-.139.005-.278.008-.415.008z" fill="#fff"/><path d="m143.441 219.818c-2.5 0-5.003-.927-6.951-2.791-4.01-3.839-4.148-10.202-.309-14.214 6.397-6.681 12.664-11.254 20.322-14.827 5.035-2.348 11.013-.171 13.36 4.859 2.347 5.031.172 11.012-4.859 13.36-5.368 2.504-9.645 5.648-14.301 10.512-1.975 2.062-4.616 3.101-7.262 3.101z" fill="#fff"/></g></g></svg>