<svg id="Capa_1" enable-background="new 0 0 512 512" height="512" viewBox="0 0 512 512" width="512" xmlns="http://www.w3.org/2000/svg"><g><g><path d="m266.009 501.924h-24.002c-22.757 0-41.206-18.448-41.206-41.206v-93.077c0-22.757 18.448-41.206 41.205-41.206h24.002c22.757 0 41.206 18.448 41.206 41.206v93.077c0 22.758-18.448 41.206-41.205 41.206z" fill="#a1e8c3"/><path d="m422.226 198.234c-1.468-1.092-3.624-1.872-6.341-2.35.964-53.114-37.839-115.211-57.274-121.543-3.887-1.266-9.716-1.186-16.797.1-31.157-37.71-69.599-64.366-87.807-64.366-18.218 0-56.691 26.684-87.857 64.426-7.221-1.34-13.166-1.445-17.11-.16-19.491 6.35-58.465 68.792-57.265 122.008-1.739.468-3.173 1.093-4.239 1.885-15.122 11.249-19.665 100.996 18.72 152.6s86.582 59.342 120.286 34.272c15.724-11.696 25.512-28.468 27.586-48.273.502-.009 1.001-.027 1.501-.041 2.065 19.823 11.856 36.61 27.591 48.314 33.703 25.071 81.901 17.331 120.286-34.272s33.842-141.351 18.72-152.6z" fill="#ccf3e2"/><path d="m422.226 198.234c-1.468-1.092-3.624-1.872-6.341-2.35.964-53.114-37.839-115.211-57.274-121.543-3.326-1.084-8.081-1.174-13.818-.374 10.73 20.253 21.502 88.652 20.878 123.034 2.23.392 3.998 1.032 5.203 1.929 12.407 9.232 12.179 60.008-19.315 102.36-31.494 42.353-48.242 50.168-75.895 29.592-18.282-13.604-23.093-22.087-23.968-22.087-.395 0-4.256 8.486-22.534 22.087-27.652 20.577-89.992 12.761-121.486-29.592-18.497-24.875-27.682-55.254-29.602-77.965-4.864 33.126.472 90.255 28.183 127.508 38.385 51.603 86.582 59.343 120.286 34.272 22.278-16.571 26.984-26.911 27.465-26.911 1.067 0 6.931 10.336 29.212 26.911 33.703 25.071 81.9 17.331 120.286-34.272 38.385-51.602 33.842-141.35 18.72-152.599z" fill="#b1b6e1"/><circle cx="113.929" cy="36.689" fill="#a2e9c4" r="7.796"/><path d="m43.077 20.003 8.277 23.273c.354.996 1.056 1.786 1.941 2.185l20.677 9.316c2.921 1.316 2.921 5.97 0 7.286l-20.677 9.316c-.885.399-1.587 1.188-1.941 2.185l-8.277 23.272c-1.169 3.288-5.304 3.288-6.474 0l-8.277-23.272c-.354-.996-1.056-1.786-1.941-2.185l-20.676-9.317c-2.921-1.316-2.921-5.97 0-7.286l20.677-9.316c.885-.399 1.587-1.188 1.941-2.185l8.277-23.273c1.169-3.287 5.304-3.287 6.473.001z" fill="#cdf4e3"/><path d="m483.94 92 6.139 17.263c.263.739.783 1.325 1.44 1.621l15.338 6.91c2.167.976 2.167 4.429 0 5.405l-15.338 6.91c-.657.296-1.177.882-1.44 1.621l-6.139 17.263c-.867 2.439-3.935 2.439-4.802 0l-6.139-17.263c-.263-.739-.783-1.325-1.44-1.621l-15.338-6.91c-2.167-.976-2.167-4.429 0-5.405l15.338-6.91c.657-.296 1.177-.882 1.44-1.621l6.139-17.263c.867-2.439 3.934-2.439 4.802 0z" fill="#cdf4e3"/><circle cx="422.589" cy="29.02" fill="#a2e9c4" r="14.304"/></g><g><g fill="#3c122c"><path d="m428.24 190.15c-.722-.537-1.513-1.015-2.347-1.455-1.064-25.192-9.626-48.886-16.062-63.368-11.612-26.13-30.988-54.99-48.098-60.565-4.384-1.429-9.792-1.704-15.823-1.091-1.592-1.854-3.137-3.613-4.608-5.246-30.982-34.4-66.878-58.425-87.295-58.425-20.416 0-56.312 24.025-87.293 58.424-1.482 1.645-3.036 3.413-4.641 5.284-6.163-.656-11.691-.4-16.155 1.054-17.11 5.575-36.485 34.435-48.097 60.565-6.549 14.737-15.3 39.011-16.111 64.697-.061.044-.128.082-.187.126-13.323 9.91-16.273 43.816-14.75 69.839 1.296 22.151 7.098 64.189 31.4 96.858 27.692 37.227 59.076 52.086 87.145 52.086 1.819 0 3.619-.078 5.408-.2v51.674c0 28.449 23.145 51.593 51.593 51.593h23.378c28.448 0 51.593-23.145 51.593-51.593v-51.808c2.359.215 4.743.335 7.155.335 28.066 0 59.456-14.862 87.145-52.086 24.302-32.669 30.104-74.708 31.4-96.858 1.523-26.025-1.427-59.93-14.75-69.84zm-76.684-106.708c1.635 0 2.961.163 3.934.48 6.808 2.218 23.081 20.685 35.925 49.588 8.024 18.056 12.751 35.821 14.021 51.848-15.005.554-33.322 5.269-48.327 10.748-3.035 1.109-6.456 2.437-10.145 3.986-8.989-19.225-21.646-35.246-30.727-45.329-12.408-13.778-28.274-27.629-42.804-35.67 7.122-5.768 15.093-11.241 23.815-16.265 23.49-13.533 44.497-19.386 54.308-19.386zm-96.675 201.803c-4.46-10.095-10.546-20.534-18.489-31.213-16.817-22.608-40.476-38.017-60.362-47.889 6.204-12.632 15.055-25.527 26.193-37.895 21.167-23.502 42.359-36.02 49.52-36.02 7.16 0 28.353 12.517 49.52 36.02 11.901 13.214 21.184 27.029 27.424 40.482-18.738 9.907-39.901 24.577-55.316 45.301-7.944 10.68-14.029 21.119-18.49 31.214zm-.874-265.093c11.962 0 41.527 18.528 69.514 48.69-12.278 4.09-25.113 10.062-36.333 16.526-9.16 5.276-21.502 13.306-33.367 23.92-11.862-10.613-24.201-18.644-33.358-23.92-11.136-6.416-23.863-12.347-36.056-16.434 28.014-30.218 57.627-48.782 69.6-48.782zm-101.845 63.77c.973-.317 2.297-.48 3.933-.48 9.812 0 30.82 5.854 54.309 19.386 8.046 4.635 15.46 9.65 22.152 14.928-15.188 7.774-32.182 22.435-45.307 37.007-8.742 9.706-20.788 24.926-29.696 43.2-1.717-.673-3.362-1.295-4.899-1.857-15.716-5.738-35.065-10.639-50.436-10.799 1.275-16.013 6.003-33.76 14.018-51.797 12.845-28.904 29.117-47.37 35.926-49.588zm-37.821 260.898c-15.161-20.383-25.128-51.112-27.345-84.307-2.067-30.959 3.282-50.642 6.565-54.179 4.33-2.126 24.721-1.591 53.778 9.292 31.156 11.669 57.722 30.051 72.884 50.433 32.346 43.484 32.466 87.04.306 110.963-32.162 23.922-73.843 11.281-106.188-32.202zm182.797 115.587c0 17.337-14.105 31.442-31.441 31.442h-23.378c-17.337 0-31.442-14.105-31.442-31.442v-55.753c7.83-2.698 15.128-6.59 21.68-11.464 9.065-6.743 16.747-15.389 22.325-25.572 5.578 10.183 13.26 18.828 22.325 25.572 6.061 4.509 12.764 8.17 19.932 10.831v56.386zm125.628-199.894c-2.216 33.196-12.182 63.925-27.344 84.307-32.347 43.484-74.028 56.123-106.188 32.201-32.161-23.923-32.041-67.478.305-110.963 15.162-20.382 41.727-38.765 72.883-50.433 20.823-7.798 37.193-10.284 46.394-10.284 3.64 0 6.158.389 7.386.992 3.283 3.537 8.631 23.22 6.564 54.18z"/><path d="m132.499 315.725c-3.339 0-6.046-2.707-6.046-6.045v-12.06c0-3.339 2.707-6.045 6.046-6.045s6.045 2.707 6.045 6.045v12.06c0 3.339-2.707 6.045-6.045 6.045z"/><path d="m164.9 349.872c-3.339 0-6.045-2.707-6.045-6.046v-12.06c0-3.339 2.707-6.046 6.045-6.046 3.339 0 6.046 2.707 6.046 6.046v12.06c0 3.339-2.707 6.046-6.046 6.046z"/><path d="m195.059 313.981c-3.339 0-6.045-2.707-6.045-6.045v-12.06c0-3.339 2.707-6.045 6.045-6.045 3.339 0 6.046 2.707 6.046 6.045v12.06c0 3.338-2.707 6.045-6.046 6.045z"/></g><path d="m138.112 179.295c-.741 0-1.493-.082-2.245-.253-5.426-1.235-8.823-6.634-7.588-12.06 3.02-13.268 7.301-22.039 12.583-32.126 2.582-4.93 8.671-6.832 13.6-4.252 4.93 2.582 6.833 8.671 4.252 13.6-5.607 10.706-8.495 17.181-10.786 27.249-1.065 4.674-5.218 7.842-9.816 7.842z" fill="#fff"/><path d="m166.494 123.877c-2.187 0-4.39-.709-6.24-2.171-4.366-3.45-5.108-9.786-1.658-14.153 1.983-2.509 3.817-4.664 5.608-6.591 3.789-4.075 10.164-4.307 14.24-.518 4.075 3.79 4.307 10.165.518 14.24-1.42 1.527-2.91 3.281-4.554 5.363-1.99 2.517-4.938 3.83-7.914 3.83z" fill="#fff"/></g></g></svg>