<svg id="Capa_1" enable-background="new 0 0 512 512" height="512" viewBox="0 0 512 512" width="512" xmlns="http://www.w3.org/2000/svg"><g><g><path d="m359.413 169.588c-11.994-21.617-28.238-40.861-48.032-56.335-2.101-1.642-2.924-4.245-2.17-6.586.004-.014.009-.026.013-.04 9.19-28.623-8.826-60.003-40.24-70.089-31.414-10.087-64.331 4.94-73.521 33.563-.004.013-.008.026-.013.04-.749 2.341-2.934 3.979-5.598 4.092-76.081 3.208-145.826 53.53-170.672 130.911-24.846 77.383 2.569 158.901 62.565 205.8 2.102 1.643 2.937 4.251 2.166 6.589-.034.102-.067.203-.1.306-9.19 28.623 8.826 60.004 40.24 70.09 31.414 10.087 64.33-4.94 73.521-33.564.033-.102.065-.204.097-.307.733-2.348 2.931-3.983 5.596-4.096 7.25-.305 14.442-1.042 21.543-2.186 29.41 28.836 69.691 46.625 114.133 46.625 90.047 0 163.044-72.997 163.044-163.044 0-83.114-62.189-151.699-142.572-161.769z" fill="#ccf3e2"/><path d="m174.484 353.775c-27.91 12.949-58.662 16.101-90.184 6.291-27.045-8.417-52.428-33.571-69.588-55.219 9.482 41.785 33.019 79.506 67.034 106.096 2.102 1.643 2.937 4.252 2.166 6.589-.034.102-.067.203-.1.306-9.19 28.623 8.826 60.004 40.24 70.09 31.414 10.087 64.33-4.94 73.521-33.564.033-.102.065-.204.097-.307.733-2.348 2.931-3.983 5.596-4.096 4.85-.204 9.674-.602 14.463-1.185-9.083-12.721-16.803-26.456-23.399-40.548-8.197-17.514-14.857-35.764-19.846-54.453z" fill="#b1b6e1"/><path d="m357.926 172.949c1.037-.124 2.074-.246 3.111-.372-12.134-22.835-28.954-43.142-49.656-59.325-2.101-1.642-2.924-4.245-2.17-6.586.004-.014.009-.026.013-.04 9.19-28.623-8.826-60.003-40.24-70.089-10.464-3.36-21.09-3.92-30.955-2.132 43.854 26.693 13.098 47.966 28.92 71.7 7.399 11.098 15.364 26.799 19.064 39.131 3.419 11.397 4.344 22.822 3.754 33.797 1.384-.052 2.766-.13 4.15-.195-4.864 1.452-9.633 3.124-14.295 5.005.548 1.41 1.082 2.826 1.605 4.244 11.749-3.485 24.188-5.362 37.068-5.362 71.882 0 130.154 58.272 130.154 130.153 0 71.882-58.272 130.154-130.154 130.154s-130.153-58.272-130.153-130.154c0-7.057.57-13.981 1.651-20.735-2.176.001-4.349-.065-6.517-.212-3.787 13.794-5.821 28.313-5.821 43.308 0 90.133 73.067 163.2 163.2 163.2s163.2-73.068 163.2-163.2c0-84.297-63.916-153.662-145.929-162.29z" fill="#b1b6e1"/><path d="m461.86 331.356c5.71 0 10.214-4.869 9.767-10.561-2.264-28.833-13.715-55.084-31.428-75.827-3.697-4.329-10.318-4.553-14.342-.528 4.025-4.024 3.8-10.645-.528-14.342-20.742-17.713-46.993-29.165-75.826-31.428-5.693-.447-10.561 4.057-10.561 9.767 0-5.71-4.869-10.214-10.562-9.767-28.833 2.263-55.084 13.714-75.826 31.428-4.329 3.697-4.553 10.318-.528 14.342-4.025-4.024-10.646-3.8-14.343.528-17.713 20.742-29.164 46.993-31.428 75.827-.447 5.692 4.057 10.561 9.767 10.561-5.71 0-10.214 4.868-9.767 10.561 2.264 28.833 13.715 55.083 31.428 75.826 3.697 4.329 10.318 4.553 14.343.528-4.025 4.025-3.801 10.646.528 14.342 20.742 17.713 46.993 29.165 75.826 31.428 5.693.448 10.562-4.057 10.562-9.766 0 5.71 4.869 10.214 10.561 9.766 28.833-2.263 55.084-13.714 75.826-31.428 4.329-3.696 4.553-10.317.528-14.342 4.025 4.025 10.646 3.801 14.342-.528 17.713-20.742 29.164-46.993 31.428-75.826.447-5.692-4.057-10.561-9.767-10.561zm-122.919 23.632c0-8.721-10.544-13.089-16.711-6.921 6.167-6.167 1.799-16.711-6.922-16.711 8.721 0 13.089-10.545 6.922-16.711 6.167 6.166 16.711 1.799 16.711-6.922 0 8.721 10.544 13.089 16.711 6.922-6.167 6.166-1.799 16.711 6.922 16.711-8.721 0-13.089 10.544-6.922 16.711-6.167-6.167-16.711-1.799-16.711 6.921z" fill="#faf1a9"/><path d="m461.86 331.356c5.71 0 10.214-4.869 9.767-10.561-2.264-28.833-13.715-55.084-31.428-75.827-3.096-3.625-8.239-4.36-12.195-2.142 12.94 20.224 20.443 44.262 20.443 70.053 0 71.882-58.272 130.154-130.154 130.154-25.322 0-48.95-7.239-68.942-19.75-.666 3.339.406 6.944 3.202 9.33 20.742 17.713 46.993 29.165 75.826 31.428 5.693.448 10.562-4.057 10.562-9.766 0 5.71 4.869 10.214 10.561 9.766 28.833-2.263 55.084-13.714 75.826-31.428 4.329-3.696 4.553-10.317.528-14.342 4.025 4.025 10.646 3.801 14.342-.528 17.713-20.742 29.164-46.993 31.428-75.826.448-5.692-4.056-10.561-9.766-10.561z" fill="#dfb5a7"/><path d="m416.226 38.45 6.102 17.158c.261.735.779 1.317 1.431 1.611l15.245 6.868c2.154.97 2.154 4.402 0 5.372l-15.245 6.868c-.653.294-1.17.876-1.431 1.611l-6.102 17.158c-.862 2.424-3.911 2.424-4.773 0l-6.102-17.158c-.261-.735-.778-1.317-1.431-1.611l-15.245-6.868c-2.154-.97-2.154-4.402 0-5.372l15.245-6.868c.653-.294 1.17-.876 1.431-1.611l6.102-17.158c.863-2.424 3.911-2.424 4.773 0z" fill="#fbf2aa"/><g fill="#f7e16e"><circle cx="75.616" cy="36.283" r="12.205"/><path d="m347.353 17.065c0 5.236-4.244 9.48-9.48 9.48s-9.48-4.244-9.48-9.48c0-5.235 4.244-9.479 9.48-9.479 5.235-.001 9.48 4.243 9.48 9.479z"/><ellipse cx="455.751" cy="146.712" rx="9.48" ry="9.48" transform="matrix(.993 -.122 .122 .993 -14.511 56.785)"/></g></g><g><path d="m365.712 160.369c-11.975-20.39-27.526-38.457-46.146-53.408 4.266-15.77 1.977-32.464-6.55-47.316-8.845-15.407-23.396-27-40.97-32.643-17.573-5.643-36.153-4.687-52.315 2.691-15.58 7.112-27.16 19.354-32.871 34.659-38.952 2.151-76.099 15.789-107.585 39.525-32.883 24.787-56.96 58.747-69.629 98.206-12.67 39.459-12.862 81.088-.555 120.386 11.782 37.622 34.043 70.332 64.456 94.756-4.37 15.852-2.105 32.656 6.473 47.597 8.845 15.407 23.395 27 40.97 32.643 7.559 2.427 15.302 3.633 22.96 3.633 10.148 0 20.145-2.119 29.355-6.324 15.674-7.156 27.3-19.503 32.972-34.932 5.121-.283 10.206-.789 15.256-1.47 30.874 28.56 72.135 46.044 117.409 46.044 95.425 0 173.059-77.634 173.059-173.059-.001-86.323-63.531-158.081-146.289-170.988zm-177.597 290.686-.079.248c-3.573 11.128-11.758 20.095-23.05 25.249-11.61 5.301-25.062 5.955-37.874 1.84-12.812-4.113-23.368-12.475-29.723-23.544-6.18-10.765-7.616-22.82-4.038-33.967l.069-.211c2.089-6.33-.125-13.409-5.508-17.618-58.215-45.507-82.005-123.81-59.196-194.847 22.808-71.035 87.733-120.853 161.559-123.966 6.884-.29 12.66-4.627 14.71-11.033.004-.015.01-.032.016-.05 3.574-11.125 11.759-20.089 23.048-25.243 11.61-5.3 25.061-5.953 37.874-1.84 12.812 4.113 23.368 12.475 29.723 23.544 6.18 10.764 7.616 22.82 4.059 33.899-.013.04-.027.083-.041.128-2.041 6.401.133 13.263 5.549 17.497 13.736 10.738 25.544 23.309 35.286 37.174-.52-.004-1.037-.02-1.557-.02-95.425 0-173.059 77.634-173.059 173.06 0 41.058 14.382 78.814 38.36 108.519-.467.025-.931.061-1.399.08-6.827.29-12.749 4.757-14.729 11.101zm150.826 33.331c-84.381 0-153.03-68.648-153.03-153.029s68.649-153.03 153.03-153.03 153.029 68.649 153.029 153.03-68.648 153.029-153.029 153.029z" fill="#3c122c"/><path d="m477.617 320.324c-2.307-29.388-13.666-56.795-32.848-79.258-2.576-3.016-6.226-4.929-10.151-5.388-.459-3.925-2.371-7.574-5.388-10.15-22.464-19.183-49.87-30.543-79.257-32.849-3.975-.315-7.923.918-11.032 3.376-3.108-2.456-7.054-3.687-11.032-3.376-29.387 2.306-56.794 13.665-79.257 32.849-3.016 2.575-4.929 6.226-5.388 10.15-3.925.459-7.575 2.372-10.151 5.388h.001c-19.183 22.464-30.542 49.871-32.849 79.258-.312 3.973.919 7.923 3.377 11.032-2.457 3.109-3.688 7.059-3.377 11.032 2.307 29.387 13.666 56.794 32.848 79.257 2.576 3.016 6.226 4.929 10.151 5.388.458 3.925 2.372 7.575 5.388 10.151v-.001c22.463 19.183 49.87 30.543 79.257 32.85.409.032.818.048 1.226.048 3.552 0 7.018-1.215 9.806-3.417 2.789 2.202 6.254 3.417 9.806 3.417.408 0 .817-.016 1.226-.048 29.388-2.307 56.794-13.666 79.256-32.849 3.017-2.576 4.931-6.226 5.389-10.151 3.924-.459 7.575-2.372 10.15-5.388 19.183-22.463 30.542-49.871 32.849-79.257.312-3.973-.919-7.923-3.376-11.032 2.457-3.109 3.688-7.059 3.376-11.032zm-41.987-71.454c17.523 20.52 27.9 45.554 30.007 72.395.112 1.434-.576 2.41-.996 2.865-.421.455-1.341 1.218-2.781 1.218h-99.286c-2.28 0-3.202-1.632-3.493-2.333-.29-.702-.792-2.508.82-4.12l70.204-70.204c.949-.949 2.046-1.115 2.697-1.115.052 0 .102.001.148.003.609.022 1.767.223 2.68 1.291zm-96.689 93.724c-1.124-.885-2.374-1.633-3.743-2.2s-2.783-.922-4.203-1.091c-.169-1.42-.524-2.833-1.091-4.203-.567-1.369-1.315-2.62-2.2-3.744.885-1.124 1.633-2.375 2.2-3.744.568-1.37.923-2.785 1.092-4.207 1.42-.169 2.834-.52 4.203-1.087s2.62-1.315 3.743-2.201c1.124.885 2.374 1.633 3.743 2.201 1.369.567 2.783.918 4.203 1.087.169 1.422.524 2.837 1.092 4.207.567 1.369 1.316 2.62 2.2 3.744-.885 1.124-1.634 2.375-2.2 3.744-.567 1.369-.922 2.782-1.091 4.203-1.42.169-2.834.524-4.203 1.091-1.37.567-2.621 1.315-3.745 2.2zm7.227-136.938c.421-.389 1.288-1.007 2.554-1.007.101 0 .204.004.311.012 26.84 2.107 51.874 12.483 72.394 30.007 1.07.914 1.27 2.072 1.294 2.682.024.622-.088 1.818-1.113 2.843l-70.204 70.204c-1.613 1.613-3.419 1.109-4.12.82-.702-.29-2.333-1.213-2.333-3.492v-99.286c-.001-1.442.762-2.362 1.217-2.783zm-91.005 31.693c.024-.609.223-1.768 1.293-2.682 20.52-17.524 45.553-27.9 72.394-30.007.106-.008.21-.012.311-.012 1.266 0 2.134.618 2.555 1.007.455.421 1.218 1.341 1.218 2.781v99.286c0 2.28-1.632 3.202-2.333 3.492-.702.289-2.509.793-4.12-.819l-70.205-70.206c-1.026-1.022-1.138-2.218-1.113-2.84zm-42.918 83.916c2.107-26.841 12.484-51.875 30.007-72.395h.001c.913-1.069 2.071-1.269 2.681-1.293.046-.002.095-.003.147-.003.651 0 1.748.166 2.696 1.114l70.205 70.206c1.612 1.612 1.11 3.417.82 4.119-.291.701-1.213 2.333-3.493 2.333h-99.286c-1.44 0-2.36-.763-2.781-1.218-.421-.453-1.109-1.429-.997-2.863zm30.007 92.576c-17.523-20.52-27.9-45.554-30.007-72.394-.112-1.434.576-2.411.995-2.865.421-.455 1.341-1.218 2.781-1.218h99.286c2.28 0 3.202 1.632 3.493 2.333.29.701.792 2.508-.82 4.12l-70.204 70.204c-1.024 1.025-2.221 1.134-2.843 1.112-.608-.022-1.767-.222-2.681-1.292zm89.463 43.216c-.454.419-1.425 1.102-2.865.996-26.84-2.108-51.874-12.484-72.394-30.008l-.001-.001c-1.069-.913-1.269-2.07-1.293-2.679-.025-.623.087-1.82 1.112-2.845l70.204-70.204c.877-.877 1.812-1.129 2.595-1.129.656 0 1.205.177 1.525.309.702.29 2.333 1.213 2.333 3.492v99.287c.002 1.441-.761 2.361-1.216 2.782zm91.005-31.693c-.024.609-.224 1.767-1.294 2.681-20.52 17.524-45.553 27.9-72.394 30.008-1.431.111-2.41-.575-2.865-.996s-1.218-1.341-1.218-2.781v-99.287c0-2.28 1.632-3.202 2.333-3.492.32-.132.869-.309 1.525-.309.782 0 1.717.251 2.595 1.129l70.204 70.204c1.027 1.024 1.139 2.221 1.114 2.843zm42.917-83.917c-2.107 26.84-12.483 51.874-30.007 72.394-.913 1.07-2.071 1.269-2.681 1.294-.624.023-1.819-.088-2.844-1.112l-70.204-70.204c-1.612-1.613-1.111-3.419-.82-4.12s1.213-2.333 3.493-2.333h99.286c1.441 0 2.361.763 2.781 1.218.42.452 1.108 1.43.996 2.863z" fill="#3c122c"/><path d="m150.964 151.884c-3.918 0-7.672-2.217-9.449-5.998-2.451-5.215-.21-11.43 5.004-13.881 13.01-6.114 27.257-10.629 42.347-13.416 5.669-1.05 11.109 2.698 12.155 8.365 1.047 5.666-2.698 11.108-8.364 12.155-13.332 2.463-25.869 6.426-37.261 11.781-1.435.674-2.946.994-4.432.994z" fill="#fff"/><path d="m62.563 278.179c-.4 0-.804-.023-1.211-.07-5.724-.662-9.828-5.839-9.166-11.563.824-7.129 2.395-14.546 5.094-24.049 5.31-18.688 13.056-36.071 23.023-51.668 7.399-11.576 15.995-22.037 25.551-31.092 4.183-3.964 10.787-3.786 14.75.397s3.785 10.786-.397 14.75c-8.326 7.889-15.836 17.035-22.321 27.182-8.871 13.882-15.78 29.403-20.533 46.134-2.379 8.377-3.748 14.774-4.438 20.742-.615 5.318-5.126 9.237-10.352 9.237z" fill="#fff"/><g fill="#3c122c"><path d="m87.573 352.058c-3.457 0-6.26-2.803-6.26-6.26v-12.625c0-3.457 2.803-6.26 6.26-6.26s6.26 2.803 6.26 6.26v12.625c0 3.457-2.803 6.26-6.26 6.26z"/><path d="m129.453 316.295c-3.457 0-6.26-2.803-6.26-6.26v-12.624c0-3.457 2.803-6.26 6.26-6.26s6.26 2.803 6.26 6.26v12.624c0 3.457-2.803 6.26-6.26 6.26z"/><path d="m139.805 396.761c-3.457 0-6.26-2.803-6.26-6.26v-12.625c0-3.457 2.803-6.26 6.26-6.26s6.26 2.803 6.26 6.26v12.625c0 3.457-2.803 6.26-6.26 6.26z"/></g></g></g></svg>