<svg id="Capa_1" enable-background="new 0 0 512 512" height="512" viewBox="0 0 512 512" width="512" xmlns="http://www.w3.org/2000/svg"><g><g><ellipse cx="260.159" cy="299.527" fill="#e8a284" rx="193.399" ry="193.399" transform="matrix(.707 -.707 .707 .707 -135.599 271.69)"/><path d="m263.468 100.213c-41.972 3.482-53.09 18.82-53.09 18.82 4.861 6.915 53.09 34.849 25.943 42.157s-100.26 51.125-108.21 161.34c-8.755 121.372 118.173 168.759 107.21 168.785 9.194 1.318 18.589 2.015 28.147 2.015 108.556 0 196.559-88.002 196.559-196.559s-88.375-205.532-196.559-196.558z" fill="#d57b84"/><path d="m227.615 103.611c-2.173-23.163-7.591-50.765-8.652-61.513-.992-10.054 5.379-18.7 15.228-18.7 9.849 0 15.464 8.327 17.833 17.833 3.674 15.732 6.543 38.736 7.168 59.709" fill="#c49a8b"/><path d="m475.029 85.145c11.57 10.113 11.57 29.615 0 39.728-21.692 18.959-58.882 44.653-101.118 44.653-66.928 0-121.183-64.518-121.183-64.518s54.256-64.518 121.183-64.518c42.236.001 79.426 25.696 101.118 44.655z" fill="#a1e8c3"/><path d="m480.321 85.4c-22.398-19.576-54.98-28.417-37.535-16.037 9.306 6.604 5.999 26.004-3.306 32.608-17.445 12.381-47.355 29.161-81.324 29.161-40.46 0-76.987-16.624-92.633-24.88-.679 4.698-.529 9.67-.296 14.49 20.98 19.63 62.671 51.786 110.686 51.786 43.611 0 82.01-26.531 104.408-46.106 11.947-10.443 11.947-30.581 0-41.022z" fill="#85adc2"/><ellipse cx="340.366" cy="331.224" fill="#efc5b4" rx="161.702" ry="161.702" transform="matrix(.707 -.707 .707 .707 -134.52 337.688)"/><path d="m462.273 331.224c5.663 0 10.13-4.829 9.686-10.474-2.245-28.596-13.602-54.63-31.169-75.202-3.666-4.293-10.233-4.516-14.224-.524 3.992-3.992 3.769-10.558-.524-14.224-20.571-17.567-46.606-28.924-75.201-31.169-5.646-.444-10.474 4.023-10.474 9.686 0-5.663-4.829-10.13-10.475-9.686-28.595 2.245-54.63 13.602-75.201 31.169-4.293 3.666-4.516 10.233-.524 14.224-3.992-3.992-10.558-3.769-14.224.524-17.567 20.571-28.924 46.606-31.169 75.202-.443 5.645 4.024 10.474 9.687 10.474-5.663 0-10.13 4.829-9.687 10.474 2.245 28.596 13.602 54.63 31.169 75.202 3.666 4.293 10.233 4.516 14.224.524-3.992 3.992-3.769 10.559.524 14.225 20.571 17.567 46.606 28.924 75.201 31.169 5.646.443 10.475-4.023 10.475-9.686 0 5.663 4.829 10.13 10.474 9.686 28.595-2.245 54.63-13.602 75.201-31.169 4.293-3.666 4.516-10.233.524-14.225 3.992 3.992 10.559 3.77 14.224-.524 17.567-20.571 28.924-46.606 31.169-75.202.443-5.645-4.024-10.474-9.686-10.474zm-121.907 23.438c0-8.649-10.458-12.981-16.574-6.865 6.116-6.116 1.785-16.573-6.865-16.573 8.65 0 12.981-10.457 6.865-16.573 6.116 6.116 16.574 1.784 16.574-6.865 0 8.649 10.457 12.981 16.573 6.865-6.116 6.116-1.784 16.573 6.865 16.573-8.649 0-12.981 10.457-6.865 16.573-6.116-6.116-16.573-1.784-16.573 6.865z" fill="#f4dab5"/><path d="m342.065 173.219c-89.391 0-161.856 72.465-161.856 161.856s72.466 161.856 161.856 161.856 161.856-72.465 161.856-161.856-72.465-161.856-161.856-161.856zm-22.176 268.762c-71.29 0-129.082-57.792-129.082-129.082s57.792-129.082 129.082-129.082 129.081 57.793 129.081 129.082c0 71.29-57.791 129.082-129.081 129.082z" fill="#da95b3"/><g fill="#dca3b4"><path d="m319.343 439.271c-21.81 0-42.352-5.417-60.367-14.967-.21.542-.244 1.044-.231 1.369.021.54.198 1.568 1.146 2.377 20.308 17.342 45.081 27.61 71.642 29.695 1.283.1 2.143-.511 2.545-.885.405-.374 1.082-1.192 1.082-2.472v-16.084c-5.184.635-10.462.967-15.817.967z"/><path d="m447.459 326.007h16.084c1.279 0 2.098-.678 2.472-1.082.372-.404.984-1.271.885-2.546-2.086-26.56-12.354-51.333-29.695-71.642-.809-.948-1.837-1.125-2.377-1.146-.042-.002-.085-.003-.132-.003-.32 0-.763.051-1.237.234 9.55 18.015 14.967 38.557 14.967 60.367-.001 5.356-.334 10.633-.967 15.818z"/><path d="m406.01 405.849c-16.174 14.663-36.085 25.276-58.132 30.251v18.289c0 1.28.678 2.098 1.082 2.472.403.373 1.27.987 2.545.885 26.562-2.085 51.335-12.354 71.642-29.695.947-.809 1.125-1.837 1.146-2.378.022-.553-.078-1.617-.988-2.528z"/><path d="m463.543 338.725h-18.289c-4.976 22.047-15.588 41.957-30.251 58.132l17.295 17.295c.913.912 1.974 1.011 2.53.989.54-.021 1.568-.198 2.377-1.146 17.341-20.308 27.609-45.081 29.695-71.641.099-1.274-.512-2.142-.885-2.546-.374-.405-1.193-1.083-2.472-1.083z"/></g><path d="m128.506 11.706 8.604 24.194c.368 1.036 1.098 1.857 2.018 2.271l21.496 9.685c3.037 1.368 3.037 6.207 0 7.575l-21.496 9.685c-.92.414-1.65 1.235-2.018 2.271l-8.604 24.194c-1.216 3.418-5.515 3.418-6.73 0l-8.604-24.194c-.368-1.036-1.098-1.857-2.018-2.271l-21.496-9.685c-3.037-1.368-3.037-6.207 0-7.575l21.496-9.685c.92-.415 1.65-1.236 2.018-2.271l8.604-24.195c1.215-3.417 5.514-3.417 6.73.001z" fill="#f5dbb6"/><path d="m30.507 111.352 6.383 17.947c.273.768.814 1.377 1.497 1.685l15.945 7.184c2.253 1.015 2.253 4.604 0 5.619l-15.945 7.184c-.683.307-1.224.917-1.497 1.685l-6.383 17.947c-.902 2.535-4.09 2.535-4.992 0l-6.383-17.947c-.273-.768-.814-1.377-1.497-1.685l-15.945-7.184c-2.253-1.015-2.253-4.604 0-5.619l15.945-7.184c.683-.308 1.224-.916 1.497-1.685l6.383-17.947c.901-2.535 4.09-2.535 4.992 0z" fill="#f5dbb6"/><path d="m56.021 38.029c0 6.117-4.959 11.077-11.077 11.077s-11.077-4.959-11.077-11.077 4.959-11.077 11.077-11.077 11.077 4.96 11.077 11.077z" fill="#f0c6b5"/></g><g><g fill="#3c122c"><path d="m477.9 320.283c-2.287-29.145-13.553-56.327-32.578-78.605-2.555-2.991-6.174-4.888-10.066-5.343-.454-3.892-2.352-7.512-5.343-10.067v-.001c-22.28-19.024-49.461-30.29-78.606-32.578-3.95-.313-7.859.911-10.941 3.348-3.084-2.438-7.005-3.66-10.941-3.348-29.145 2.288-56.325 13.553-78.605 32.578-2.992 2.555-4.889 6.175-5.343 10.067-3.892.454-7.513 2.351-10.067 5.343-19.024 22.279-30.29 49.46-32.578 78.605-.31 3.94.912 7.858 3.349 10.941-2.437 3.083-3.659 7-3.349 10.941 2.288 29.145 13.554 56.327 32.578 78.605 2.554 2.991 6.175 4.889 10.067 5.343.454 3.892 2.352 7.512 5.343 10.066 22.279 19.025 49.459 30.291 78.605 32.579.406.032.811.048 1.216.047 3.522 0 6.959-1.204 9.725-3.388 2.766 2.185 6.203 3.389 9.726 3.389.405 0 .81-.016 1.215-.048 29.146-2.288 56.327-13.553 78.606-32.578 2.991-2.555 4.889-6.175 5.343-10.067 3.892-.455 7.512-2.352 10.066-5.343 19.025-22.278 30.291-49.459 32.578-78.605.31-3.94-.912-7.857-3.349-10.941 2.437-3.082 3.659-7 3.349-10.94zm-41.641-70.865c17.379 20.351 27.67 45.179 29.76 71.798.112 1.422-.57 2.39-.987 2.841s-1.33 1.208-2.759 1.208h-98.468c-2.261 0-3.176-1.618-3.464-2.314s-.787-2.487.812-4.086l69.628-69.627c.94-.94 2.027-1.105 2.673-1.105.051 0 .1.001.146.003.603.023 1.753.221 2.659 1.282zm-95.893 92.951c-1.114-.877-2.355-1.62-3.712-2.182-1.358-.562-2.76-.914-4.169-1.082-.168-1.409-.52-2.811-1.082-4.169s-1.305-2.598-2.182-3.713c.878-1.114 1.62-2.355 2.182-3.713.563-1.359.915-2.762 1.083-4.172 1.409-.167 2.811-.516 4.169-1.078 1.357-.562 2.598-1.305 3.712-2.182 1.115.877 2.355 1.62 3.713 2.182 1.358.563 2.759.911 4.168 1.078.167 1.41.52 2.814 1.083 4.173.563 1.357 1.305 2.598 2.183 3.712-.878 1.115-1.62 2.355-2.183 3.712-.562 1.358-.915 2.76-1.082 4.168-1.408.168-2.81.52-4.168 1.082-1.36.564-2.601 1.307-3.715 2.184zm7.166-135.81c.417-.386 1.278-.999 2.533-.999.101 0 .204.004.308.012 26.619 2.09 51.447 12.381 71.799 29.76 1.06.906 1.259 2.055 1.282 2.659.024.617-.086 1.804-1.102 2.82l-69.628 69.627c-1.598 1.6-3.39 1.101-4.085.813-.695-.289-2.314-1.203-2.314-3.464v-98.469c0-1.429.756-2.342 1.207-2.759zm-90.255 31.432c.024-.605.222-1.754 1.283-2.66 20.352-17.379 45.179-27.67 71.798-29.76 1.405-.109 2.391.57 2.841.987.451.417 1.208 1.33 1.208 2.759v98.469c0 2.261-1.619 3.175-2.314 3.464-.695.288-2.487.787-4.086-.813l-69.626-69.627c-1.017-1.016-1.128-2.203-1.104-2.819zm-42.564 83.225c2.09-26.62 12.381-51.447 29.76-71.798.906-1.061 2.055-1.259 2.66-1.283.604-.024 1.803.085 2.821 1.103l69.626 69.627c1.598 1.599 1.101 3.39.813 4.085-.288.696-1.203 2.315-3.465 2.315h-98.468c-1.429 0-2.341-.757-2.758-1.208-.419-.451-1.101-1.419-.989-2.841zm29.76 91.814c-17.378-20.351-27.669-45.179-29.76-71.798-.112-1.422.57-2.39.987-2.841s1.33-1.208 2.758-1.208h98.468c2.262 0 3.176 1.619 3.465 2.315.288.695.786 2.486-.813 4.085l-69.626 69.626c-1.018 1.017-2.216 1.13-2.821 1.103-.603-.023-1.753-.221-2.658-1.282zm88.726 42.86c-.45.417-1.436 1.096-2.841.987-26.619-2.09-51.447-12.381-71.798-29.76-1.061-.905-1.259-2.055-1.283-2.659-.024-.616.087-1.803 1.103-2.819l69.626-69.627c.87-.87 1.797-1.119 2.573-1.119.651 0 1.196.175 1.513.306.696.289 2.314 1.203 2.314 3.464v98.469c0 1.428-.756 2.341-1.207 2.758zm90.255-31.432c-.023.604-.222 1.753-1.282 2.659-20.351 17.379-45.179 27.67-71.799 29.76-1.413.108-2.39-.57-2.841-.987s-1.208-1.33-1.208-2.758v-98.469c0-2.261 1.619-3.175 2.314-3.464.317-.131.862-.306 1.513-.306.774 0 1.699.249 2.567 1.114.002.002.003.004.005.005l69.627 69.626c1.018 1.016 1.129 2.202 1.104 2.82zm42.564-83.226c-2.089 26.62-12.38 51.447-29.76 71.798-.906 1.061-2.055 1.259-2.66 1.283-.603.028-1.802-.086-2.82-1.103l-69.626-69.626c-1.599-1.599-1.101-3.39-.813-4.086s1.203-2.314 3.464-2.314h98.468c1.429 0 2.341.757 2.759 1.208.418.449 1.1 1.417.988 2.84z"/><path d="m426.576 182.863c-2.763-3.931-5.666-7.757-8.69-11.48 25.668-9.278 47.658-25.028 63.68-39.032 7.673-6.706 12.074-16.672 12.074-27.342s-4.401-20.636-12.074-27.343c-24.589-21.49-63.225-47.107-107.655-47.107-44.666 0-83.331 26.022-106.361 45.906-1.334-13.624-3.376-26.881-5.854-37.494-.012-.047-.023-.095-.035-.143-3.957-15.881-14.226-25.363-27.47-25.363-7.141 0-13.665 2.86-18.372 8.054-5.082 5.608-7.539 13.464-6.74 21.554.449 4.552 1.536 11.352 2.914 19.961 1.802 11.27 4.002 25.04 5.351 37.721-91.626 19.713-160.517 101.34-160.517 198.772 0 112.117 91.214 203.331 203.332 203.331 14.316 0 28.281-1.513 41.769-4.342 12.361 2.839 25.227 4.342 38.437 4.342 94.64 0 171.634-76.995 171.634-171.634.001-63.235-34.378-118.585-85.423-148.361zm-157.545-80.656c17.243-17.035 58.148-51.784 104.88-51.784 38.266 0 72.555 22.948 94.582 42.2 3.357 2.934 5.282 7.449 5.282 12.386s-1.925 9.452-5.282 12.386c-22.026 19.251-56.315 42.2-94.582 42.2-41.315 0-78.222-27.334-98.105-45.402 6.708-3.735 16.651-8.594 29.11-12.718 21.979-7.274 56.549-13.687 96.424-2.926 3.175.856 6.447-1.023 7.306-4.201.858-3.178-1.023-6.449-4.201-7.307-42.938-11.585-80.109-4.616-103.733 3.271-14.143 4.721-25.166 10.26-32.322 14.36.318-.779.531-1.606.641-2.465zm-37.423-42.309c-1.272-7.951-2.371-14.818-2.761-18.775-.245-2.483.387-4.825 1.692-6.264.931-1.028 2.126-1.528 3.652-1.528 4.868 0 7.209 6.379 8.178 10.234 3.187 13.68 5.668 32.94 6.605 50.74-.843.909-1.554 1.694-2.132 2.342-3.311.215-6.599.513-9.865.885-1.409-12.868-3.581-26.455-5.369-37.634zm28.551 423.096c-101.165 0-183.468-82.303-183.468-183.467 0-97.615 76.634-177.658 172.898-183.153 8.982 9.592 30.721 30.817 59.915 46.002-79.962 14.578-140.773 84.743-140.773 168.849 0 65.735 37.152 122.946 91.555 151.768-.042-.001-.084.001-.127.001zm80.207 0c-83.686 0-151.769-68.083-151.769-151.77s68.083-151.77 151.769-151.77 151.77 68.083 151.77 151.77-68.084 151.77-151.77 151.77z"/><path d="m144.548 393.18c-3.291 0-5.959-2.668-5.959-5.959v-10.667c0-3.291 2.668-5.959 5.959-5.959s5.959 2.668 5.959 5.959v10.667c0 3.291-2.668 5.959-5.959 5.959z"/><path d="m113.662 359.572c-3.291 0-5.959-2.668-5.959-5.959v-10.666c0-3.291 2.668-5.959 5.959-5.959s5.959 2.668 5.959 5.959v10.666c0 3.291-2.668 5.959-5.959 5.959z"/><path d="m141.154 335.272c-3.291 0-5.959-2.668-5.959-5.959v-10.667c0-3.291 2.668-5.959 5.959-5.959s5.959 2.668 5.959 5.959v10.667c0 3.291-2.668 5.959-5.959 5.959z"/></g><path d="m196.628 174.477c-3.726 0-7.295-2.105-8.989-5.697-2.34-4.961-.215-10.88 4.746-13.22 1.947-.918 3.941-1.808 5.928-2.646 5.048-2.131 10.879.239 13.01 5.294s-.24 10.88-5.295 13.01c-1.732.73-3.472 1.507-5.17 2.307-1.368.646-2.811.952-4.23.952z" fill="#fff"/><path d="m120.438 257.346c-1.181 0-2.383-.212-3.552-.661-5.122-1.963-7.684-7.707-5.721-12.829 7.655-19.974 19.539-38.758 34.367-54.319 4.483-4.705 9.288-9.177 14.283-13.29 4.233-3.488 10.494-2.881 13.981 1.353s2.881 10.494-1.354 13.981c-4.379 3.607-8.595 7.529-12.529 11.659-13.033 13.678-23.475 30.181-30.199 47.725-1.515 3.953-5.281 6.381-9.276 6.381z" fill="#fff"/></g></g></svg>