<svg id="Capa_1" enable-background="new 0 0 512 512" height="512" viewBox="0 0 512 512" width="512" xmlns="http://www.w3.org/2000/svg"><g><g><path d="m347.568 50.568c-14.865 2.623-28.293 25.356-39.959 56.985-2.821-70.3-38.248-95.495-66.072-97.425-41.467-2.876-26.099 63.059-6.653 135.861.525 1.965 1.023 3.894 1.5 5.793-19.766-53.83-47.266-89.067-67.54-95.677-33.509-10.924-42.552 39.493 6.082 95.243 23.164 26.554 38.709 62.394 48.643 92.655h17.447 17.2 14.923 11.03 25.759c51.476-88.896 111.355-206.443 37.64-193.435z" fill="#ccf3e2"/><path d="m324.169 172.876c-9.173-3.292-13.231-18.072-12.374-39.239-4.311-5.852-8.784-11.592-13.228-17.355-2.804 27.38-11.114 46.095-23.45 48.011-14.332 2.226-30.365-18.796-42.018-51.628-2.117.675-4.215 1.39-6.283 2.167 2.494 10.113 5.237 20.563 8.068 31.158.533 1.995 1.037 3.951 1.521 5.878-4.651-12.677-9.732-24.318-15.045-34.805-2.381 1.052-4.713 2.203-6.984 3.47 5.658 21.086 4.95 36.87-3.472 42.127-8.452 5.276-23.012-1.072-39.543-15.523 1.155 1.4 2.337 2.804 3.565 4.212 23.164 26.554 38.709 62.394 48.643 92.655h86.359c17.824-30.783 36.656-65.001 50.601-96.046-13.436 18.509-26.742 28.369-36.36 24.918z" fill="#b1b6e1"/><path d="m374.908 343.33c0-56.2-49.321-101.76-110.162-101.76s-110.162 45.559-110.162 101.76c0 36.184 20.447 67.954 51.249 85.995 17.196 10.072 31.254 24.73 41.218 41.989l17.695 30.648 17.695-30.648c9.964-17.259 24.022-31.917 41.218-41.989 30.802-18.042 51.249-49.811 51.249-85.995z" fill="#e8c2d8"/><path d="m264.746 241.57c-4.804 0-9.536.286-14.178.837 40.4 5.491 71.414 37.635 71.414 76.479 0 27.118-15.115 50.972-37.986 64.771-13.286 8.017-19.57 20.444-27.329 33.882l-4.791 8.299c-3.846 6.661-13.46 6.661-17.305 0l-12.936-9.696c-18.802-5.64-47.243-20.215-52.884-45.596-4.808-21.638-11.217-24.057-13.4-39.223-.501 3.939-.767 7.945-.767 12.008 0 36.184 20.447 67.953 51.249 85.995 17.196 10.072 31.254 24.729 41.218 41.989l17.695 30.648 17.694-30.648c9.965-17.259 24.022-31.916 41.219-41.989 30.802-18.041 51.249-49.811 51.249-85.995 0-56.202-49.321-101.761-110.162-101.761z" fill="#d392d8"/><path d="m58.451 159.828 8.814 24.784c.377 1.061 1.125 1.902 2.067 2.327l22.019 9.921c3.111 1.402 3.111 6.358 0 7.76l-22.019 9.921c-.943.425-1.69 1.266-2.067 2.327l-8.814 24.784c-1.245 3.501-5.649 3.501-6.894 0l-8.814-24.784c-.377-1.061-1.124-1.902-2.067-2.327l-22.019-9.921c-3.111-1.402-3.111-6.358 0-7.76l22.019-9.921c.943-.425 1.69-1.266 2.067-2.327l8.814-24.784c1.245-3.501 5.649-3.501 6.894 0z" fill="#e9c3d9"/><path d="m469.541 431.448 6.538 18.384c.28.787.834 1.411 1.533 1.726l16.334 7.359c2.308 1.04 2.308 4.716 0 5.756l-16.334 7.359c-.699.315-1.254.939-1.533 1.726l-6.538 18.384c-.924 2.597-4.19 2.597-5.114 0l-6.538-18.384c-.28-.787-.834-1.411-1.534-1.726l-16.334-7.359c-2.307-1.04-2.307-4.716 0-5.756l16.334-7.359c.699-.315 1.254-.939 1.534-1.726l6.538-18.384c.924-2.598 4.19-2.598 5.114 0z" fill="#e9c3d9"/><g fill="#d88aba"><circle cx="430.505" cy="231.201" r="14.251"/><path d="m98.445 304.449c0 4.585-3.717 8.302-8.302 8.302s-8.302-3.717-8.302-8.302 3.717-8.302 8.302-8.302 8.302 3.717 8.302 8.302z"/></g></g><g><path d="m321.159 244.634c14.903-25.874 30.285-53.859 42.91-80.419 27.531-57.917 34.464-93.436 21.819-111.78-7.677-11.136-21.159-15.09-40.065-11.753h.001c-8.902 1.571-20.188 7.424-32.996 30.481-3.91-16.009-9.71-28.197-15.934-37.412-13.442-19.9-33.365-32.161-54.662-33.638-14.885-1.038-23.302 5.208-27.767 10.623-10.779 13.074-11.102 36.254-6.014 66.326-12.18-15.958-24.816-26.694-36.498-30.503-14.469-4.714-27.508-.879-34.879 10.267-12.03 18.191-7.684 57.594 30.285 101.119 20.941 24.006 35.467 56.402 45.119 84.719-40.17 18.116-67.934 56.43-67.934 100.664 0 38.654 21.014 74.04 56.214 94.657 15.28 8.95 28.281 22.21 37.597 38.345l17.695 30.649c1.793 3.106 5.108 5.019 8.694 5.019s6.901-1.914 8.694-5.019l17.695-30.648c9.317-16.137 22.318-29.397 37.598-38.346 35.2-20.618 56.214-56.004 56.214-94.657.002-42.693-25.866-79.868-63.786-98.694zm-1.142-141.417c14.976-37.526 26.21-42.219 29.295-42.764h.001c3.252-.573 6.144-.86 8.671-.86 5.617 0 9.43 1.416 11.374 4.236 3.595 5.215 8.509 24.596-23.421 91.767-12.755 26.832-28.479 55.313-43.629 81.531-1.663-.51-3.341-.991-5.035-1.435 16.173-53.51 21.43-94.772 20.438-126.504.767-2.047 1.536-4.041 2.306-5.971zm-90.06-79.709c.878-1.066 3.216-3.888 10.885-3.366 15.09 1.047 29.456 10.103 39.415 24.847 11.18 16.553 17.063 39.56 17.486 68.381.486 33.112-6.373 73.034-20.376 118.777-4.149-.405-8.359-.616-12.621-.616-3.606 0-7.173.157-10.7.448 2.268-16.577 2.207-44.885-9.464-88.58-10.385-38.88-27.766-103.953-14.625-119.891zm-47.466 121.241c-31.186-35.749-35.539-66.458-28.669-76.847.913-1.38 3.342-5.047 11.909-2.253 12.153 3.961 32.526 25.31 50.646 64.075 3.756 8.035 7.229 16.441 10.425 25.134 11.132 44.708 8.543 69.928 6.171 80.645-.491.125-.982.249-1.471.38-10.294-30.091-25.986-64.739-49.011-91.134zm104.371 178.629h75.615c1.562 6.426 2.393 13.102 2.393 19.952 0 12.873-2.903 25.318-8.315 36.695h-50.522c-3.326 0-6.023 2.697-6.023 6.023s2.697 6.023 6.023 6.023h43.577c-7.754 11.311-18.253 21.111-31.024 28.591-18.279 10.706-33.784 26.485-44.839 45.632l-9.001 15.59-9.001-15.591c-11.053-19.146-26.558-34.924-44.838-45.631-22.184-12.994-37.513-32.984-43.489-55.749h52.348c3.326 0 6.023-2.697 6.023-6.023s-2.697-6.023-6.023-6.023h-54.599c-.355-3.147-.544-6.328-.544-9.538 0-50.576 44.915-91.722 100.123-91.722 42.928 0 79.628 24.879 93.833 59.723h-71.717c-3.326 0-6.023 2.697-6.023 6.023s2.696 6.025 6.023 6.025z" fill="#3c122c"/><g fill="#fff"><path d="m254.526 285.345c-5.141 0-9.622-3.79-10.346-9.025-.792-5.721 3.204-11.001 8.925-11.793 5.08-.704 10.342-.95 15.639-.733 5.771.236 10.258 5.105 10.022 10.877-.236 5.771-5.138 10.252-10.877 10.022-4.058-.167-8.066.021-11.916.553-.486.067-.971.099-1.447.099z"/><path d="m191.572 342.414c-.995 0-2.006-.143-3.008-.443-5.533-1.66-8.673-7.49-7.014-13.022 5.476-18.261 16.205-34.066 31.889-46.977 4.458-3.672 11.05-3.033 14.72 1.427 3.671 4.46 3.032 11.05-1.427 14.721-12.423 10.228-20.884 22.621-25.146 36.836-1.359 4.532-5.516 7.458-10.014 7.458z"/></g></g></g></svg>