<svg id="Capa_1" enable-background="new 0 0 512 512" height="512" viewBox="0 0 512 512" width="512" xmlns="http://www.w3.org/2000/svg"><g><g><path d="m186.485 80.608c23.784 16.49 70.302 102.124 104.962 148.611 49.557 66.468 122.809 113.303 106.039 184.913-15.374 65.651-79.299 95.329-148.706 86.335-79.335-10.28-118.212-108.48-136.975-180.059-20.644-78.757-64.022-201.268-16.452-238.798 41.729-32.921 69.847-15.759 91.132-1.002z" fill="#9781dd"/><path d="m291.446 229.219c-34.66-46.487-81.178-132.121-104.962-148.611-13.919-9.65-30.762-20.327-52.422-17.355 11.629 1.865 21.298 8.572 29.647 14.785 18.973 14.117 43.83 87.431 71.479 127.23 39.534 56.905 97.97 97.002 84.592 158.309-12.265 56.205-51.008 81.614-106.376 73.914-63.288-8.801-94.303-92.873-109.27-154.153-10.584-43.339-28.657-102.148-30.146-147.171-1.803 53.779 23.482 129.555 37.817 184.242 18.763 71.579 57.64 169.779 136.975 180.06 69.406 8.994 133.332-20.685 148.706-86.336 16.769-71.61-56.483-118.446-106.04-184.914z" fill="#8962de"/><path d="m236.908 120.009c-6.198-42.956-58.057-79.475-103.232-74.158-7.746.912-15.225 2.623-22.302 5.124l-9.906-32.888c-1.812-6.016-8.157-9.423-14.173-7.612l-4.725 1.423c-6.016 1.812-9.424 8.157-7.611 14.173l11.572 38.422c-13.948 10.927-24.517 26.484-29.721 46.771-6.893 26.869-2.044 78.649 13.152 80.345 16.566 1.848 17.636-32.142 36.336-40.396 15.605-6.888 38.594 34.008 58.17 22.322 14.94-8.919 6.696-52.822 13.494-55.026 18.695-6.062 61.905 22.008 58.946 1.5z" fill="#ccf3e2"/><path d="m349.803 61.04 8.199 23.055c.351.987 1.046 1.769 1.923 2.164l20.484 9.229c2.894 1.304 2.894 5.914 0 7.218l-20.484 9.229c-.877.395-1.572 1.177-1.923 2.164l-8.199 23.055c-1.158 3.257-5.255 3.257-6.413 0l-8.2-23.054c-.351-.987-1.046-1.769-1.923-2.164l-20.484-9.229c-2.894-1.304-2.894-5.915 0-7.218l20.484-9.229c.877-.395 1.572-1.177 1.923-2.164l8.199-23.055c1.159-3.258 5.255-3.258 6.414-.001z" fill="#c3b3ec"/><path d="m443.919 202.236 6.082 17.102c.26.732.776 1.312 1.426 1.605l15.194 6.846c2.147.967 2.147 4.387 0 5.354l-15.194 6.846c-.651.293-1.166.873-1.426 1.605l-6.082 17.102c-.859 2.416-3.898 2.416-4.757 0l-6.082-17.102c-.26-.732-.776-1.312-1.427-1.605l-15.194-6.846c-2.147-.967-2.147-4.387 0-5.354l15.194-6.846c.651-.293 1.166-.873 1.427-1.605l6.082-17.102c.86-2.416 3.898-2.416 4.757 0z" fill="#c3b3ec"/><circle cx="374.058" cy="206.09" fill="#9882de" r="13.751"/></g><g><path d="m123.789 215.95c-4.927 0-9.215-3.649-9.882-8.667-.343-2.582-.641-5.149-.886-7.629-.543-5.486 3.465-10.373 8.951-10.915 5.494-.536 10.372 3.466 10.915 8.952.223 2.258.496 4.6.81 6.961.726 5.465-3.114 10.484-8.579 11.21-.447.059-.89.088-1.329.088z" fill="#fff"/><path d="m153.562 335.719c-4.264 0-8.212-2.753-9.534-7.04-5.307-17.189-9.872-34.779-14.286-51.79-2.539-9.785-5.165-19.904-7.89-29.776-1.467-5.314 1.652-10.811 6.967-12.277 5.312-1.466 10.811 1.652 12.277 6.967 2.765 10.02 5.411 20.214 7.97 30.072 4.358 16.794 8.865 34.161 14.037 50.916 1.627 5.268-1.326 10.856-6.593 12.482-.981.302-1.974.446-2.948.446z" fill="#fff"/><g fill="#3c122c"><path d="m341.879 272.883c-14.432-15.777-29.355-32.091-42.431-49.629-12.962-17.386-27.91-40.808-42.367-63.459-5.57-8.727-10.972-17.189-16.192-25.225.351-.254.698-.52 1.036-.812 2.861-2.467 6.026-7.101 4.861-15.175-3.329-23.07-18.302-45.625-41.081-61.881-22.46-16.029-49.143-23.596-73.197-20.766-4.94.582-9.763 1.468-14.447 2.634l-7.037-23.362c-1.644-5.463-5.318-9.958-10.344-12.657-5.025-2.698-10.8-3.279-16.263-1.634l-4.727 1.424c-11.274 3.396-17.685 15.333-14.29 26.609l9.687 32.16c-13.602 12.4-23.003 28.404-27.947 47.674-6.135 23.916-4.085 66.503 7.662 83.516 4.737 6.861 10.257 8.806 14.052 9.229.666.074 1.312.11 1.947.127 5.77 29.249 14.288 59.699 22.068 87.477 3.35 11.96 6.514 23.256 9.28 33.806 12.323 47.012 28.132 85.979 46.99 115.819 26.885 42.543 59.978 66.636 98.356 71.609 8.436 1.093 16.808 1.633 25.047 1.633 27.784 0 54.005-6.146 75.633-17.946 30.635-16.715 51.048-43.565 59.028-77.646 13.446-57.41-24.816-99.24-65.324-143.525zm-256.431-251.427 4.726-1.423c.144-.043.281-.062.406-.062.272 0 .496.083.655.168.232.124.537.368.674.826l7.294 24.216c-2.391 1.104-4.721 2.296-6.99 3.572l-7.699-25.56c-.22-.736.198-1.515.934-1.737zm-18.97 92.289c8.394-32.722 33.312-53.855 68.365-57.981 2.597-.306 5.215-.454 7.851-.454 36.674 0 75.911 28.721 83.527 61.815-3.839-.807-9.006-2.355-12.874-3.514-13.454-4.03-27.361-8.196-38.465-4.598-7.768 2.518-8.994 11.078-9.397 13.891-.534 3.734-.71 8.365-.895 13.268-.25 6.61-.532 14.103-1.727 20.174-1.438 7.304-3.429 8.568-3.513 8.617-4.384 2.619-12.174-3.028-21.896-10.684-10.577-8.328-22.567-17.77-35.187-12.199-12.207 5.389-18.312 17.573-23.218 27.363-1.917 3.826-5.397 10.771-7.423 12.086-1.924-2.285-5.491-10.431-7.118-26.035-1.557-14.942-.803-30.94 1.97-41.749zm321.289 298.111c-15.16 64.736-80.076 86.183-137.705 78.713-71.299-9.239-109.288-99.01-128.602-172.692-2.807-10.711-5.993-22.086-9.367-34.128-7.995-28.547-17.182-61.385-22.843-92.202 3.131-4.157 5.545-8.966 7.647-13.16 3.802-7.586 7.731-15.429 13.297-17.983 2.777.006 10.358 5.976 14.91 9.56 11.797 9.288 27.951 22.005 44.48 12.14 13.555-8.093 14.332-28.657 14.957-45.18.111-2.957.25-6.611.49-9.331 6.109.205 15.404 2.989 22.587 5.141 3.536 1.059 6.892 2.063 10.063 2.884 7.482 11.274 15.193 23.354 22.572 34.915 14.648 22.951 29.794 46.684 43.19 64.651 13.674 18.34 28.94 35.03 43.704 51.171 38.454 42.04 71.663 78.346 60.62 125.501z"/><path d="m291.667 381.016c-3.307 0-5.989-2.682-5.989-5.989v-10.716c0-3.307 2.682-5.989 5.989-5.989s5.989 2.682 5.989 5.989v10.716c0 3.307-2.681 5.989-5.989 5.989z"/><path d="m319.035 356.961c-3.307 0-5.989-2.682-5.989-5.989v-10.716c0-3.307 2.682-5.989 5.989-5.989s5.989 2.682 5.989 5.989v10.716c0 3.307-2.682 5.989-5.989 5.989z"/><path d="m328.622 403.154c-3.307 0-5.989-2.682-5.989-5.989v-10.716c0-3.307 2.682-5.989 5.989-5.989s5.989 2.682 5.989 5.989v10.716c0 3.307-2.682 5.989-5.989 5.989z"/></g></g></g></svg>