<svg id="Capa_1" enable-background="new 0 0 512.02 512.02" height="512" viewBox="0 0 512.02 512.02" width="512" xmlns="http://www.w3.org/2000/svg"><g><g><path d="m474.339 162.459 3.23-4.704c16.202-23.591 10.212-55.849-13.379-72.051l-4.681-3.215 21.316-31.445c7.045-10.392 4.331-24.528-6.061-31.573l-7.897-5.353c-10.392-7.045-24.528-4.332-31.573 6.061l-21.129 31.168-3.55-2.438c-23.591-16.202-55.849-10.212-72.051 13.378l-1.183 1.723c-98.566-22.724-133.578 69.508-188.203 171.23-28.308 52.716-120.198 172.464-126.958 228.56-2.078 11.372.336 20.864 8.888 26.87 31.283 34.706 233.265-23.476 314.81-85.346 81.867-62.114 187.661-185.556 128.421-242.865z" fill="#a1e8c3"/><path d="m467.845 156.942c-4.845-25.077-22.208-46.777-57.426-61.881-2.639-1.132-5.229-2.177-7.771-3.138 59.723 42.11-41.955 182.98-108.901 239.087-65.308 54.734-217.47 107.486-245.307 80.785-1.281-.734-2.434-1.584-3.446-2.56-.646-.622-1.207-1.289-1.731-1.975-12.705 24.586-21.245 46.542-21.432 62.19-.728 8.709 2.252 16.372 9.184 21.114 30.969 34.929 233.277-23.308 314.904-85.241 84.6-64.187 194.754-193.868 121.926-248.381z" fill="#85adc2"/><path d="m74.758 2.443 8.2 23.056c.351.987 1.046 1.769 1.923 2.165l20.485 9.229c2.894 1.304 2.894 5.915 0 7.219l-20.485 9.229c-.877.395-1.572 1.177-1.923 2.165l-8.2 23.056c-1.158 3.257-5.255 3.257-6.414 0l-8.2-23.056c-.351-.987-1.046-1.769-1.923-2.165l-20.485-9.229c-2.894-1.304-2.894-5.915 0-7.219l20.485-9.229c.877-.395 1.572-1.177 1.923-2.165l8.2-23.056c1.159-3.257 5.256-3.257 6.414 0z" fill="#cdf4e3"/><path d="m67.34 178.356 6.082 17.103c.26.732.776 1.312 1.427 1.606l15.195 6.846c2.147.967 2.147 4.388 0 5.355l-15.195 6.846c-.651.293-1.166.873-1.427 1.606l-6.082 17.102c-.859 2.416-3.898 2.416-4.757 0l-6.083-17.103c-.26-.732-.776-1.313-1.427-1.606l-15.195-6.846c-2.147-.967-2.147-4.387 0-5.355l15.195-6.846c.651-.293 1.166-.874 1.427-1.606l6.083-17.103c.859-2.415 3.897-2.415 4.757.001z" fill="#cdf4e3"/><circle cx="179.397" cy="60.236" fill="#a2e9c4" r="14.171"/></g><g><path d="m499.342 195.3c-1.065-12.77-5.263-23.944-12.53-33.45 8.568-13.296 11.705-29.094 8.805-44.713-2.754-14.831-10.647-27.857-22.367-37.125l15.839-23.365c4.903-7.233 6.697-15.943 5.049-24.525-1.647-8.581-6.538-16.008-13.772-20.912l-7.896-5.353c-14.932-10.123-35.315-6.209-45.437 8.722l-15.645 23.079c-12.565-7.039-27.055-9.457-41.39-6.795-14.698 2.729-27.623 10.508-36.876 22.056-40.486-7.547-74.556 3.177-103.943 32.669-27.329 27.427-49.032 69.029-72.009 113.073-5.414 10.378-11.012 21.108-16.785 31.859-8.634 16.078-23.938 39.48-40.14 64.257-23.697 36.236-50.556 77.307-68.337 112.776-30.093 55.516-31.642 105.613 40.988 104.447 72.701 0 203.292-43.526 266.845-91.746 67.428-51.158 165.575-153.285 159.601-224.954zm-55.785-169.52c3.945-5.819 11.888-7.346 17.709-3.399l7.897 5.353c2.819 1.912 4.725 4.806 5.368 8.151.642 3.345-.057 6.74-1.968 9.559l-15.681 23.132-28.886-19.839zm-69.915 24.711c10.987-2.039 22.111.32 31.323 6.647l53.574 36.794c9.211 6.326 15.408 15.861 17.448 26.848 1.563 8.419.534 16.915-2.875 24.573-1.089-1.738-2.207-3.594-3.388-5.556-9.272-15.407-21.972-36.508-54.687-53.586-9.586-5.004-19.124-8.141-28.663-9.435-8.357-7.51-18.737-13.497-31.088-17.937 5.281-4.2 11.534-7.081 18.356-8.348zm-256.69 255.21c17.16-26.24 31.979-48.901 41.021-65.738 5.83-10.857 11.456-21.641 16.897-32.07 22.253-42.656 43.271-82.946 68.451-108.215 26.661-26.757 55.332-34.678 92.961-25.686 6.298 1.505 12.059 3.392 17.297 5.643-11.576 3.572-23.231 9.84-35.051 18.845-27.222 20.739-52.042 53.455-76.044 85.093-15.037 19.821-29.239 38.541-43.834 54.335-14.366 15.547-30.6 32.123-47.788 49.672-23.772 24.272-47.799 48.808-68.897 72.558 11.451-18.439 23.587-37.004 34.987-54.437zm314.483-2.754c-27.778 35.276-66.567 73.183-103.761 101.402-56.736 43.047-161.157 78.077-229.077 85.991-24.907 1.837-59.685.95-62.464-7.716-4.991-15.557 6.229-40.993 32.616-75.403 25.676-33.483 61.619-70.181 96.377-105.671 17.292-17.656 33.625-34.332 48.187-50.091 15.252-16.506 30.414-36.491 45.077-55.818 23.194-30.574 47.179-62.188 72.238-81.28 26.407-20.117 50.293-23.439 75.172-10.45 27.741 14.481 37.878 31.323 46.82 46.182 3.521 5.85 6.917 11.48 11.108 16.344 0 .034.002.067.003.101.116.098.223.199.337.298 1.515 1.724 3.14 3.345 4.909 4.844 6.183 7.056 9.649 15.428 10.47 25.279 2.219 26.632-14.383 63.282-48.012 105.988z" fill="#3c122c"/><path d="m310.384 189.133c-1.971 0-3.965-.559-5.732-1.729-4.789-3.171-6.1-9.624-2.929-14.413 3.532-5.334 7.048-10.794 10.449-16.228 3.047-4.869 9.465-6.343 14.333-3.298 4.868 3.048 6.345 9.464 3.297 14.333-3.495 5.585-7.108 11.195-10.738 16.676-2 3.022-5.308 4.659-8.68 4.659z" fill="#fff"/><path d="m205.976 311.125c-3.019 0-6.013-1.308-8.069-3.831-3.628-4.453-2.96-11.003 1.493-14.631 25.767-20.996 45.672-44.751 70.979-76.019 3.613-4.464 10.162-5.154 14.626-1.54 4.465 3.613 5.154 10.161 1.541 14.626-26.102 32.249-46.689 56.797-74.008 79.057-1.929 1.572-4.253 2.338-6.562 2.338z" fill="#fff"/><g fill="#3c122c"><path d="m134.939 461.623c-7.191-.136-8.1-9.944-1.1-11.876 3.175-.877 5.232-1.65 8.248-2.52 25.284-7.78 50.097-17.653 73.75-29.345 2.965-1.463 6.557-.25 8.023 2.715s.25 6.558-2.715 8.024c-24.201 11.963-72.401 29.322-75.341 30.28-2.939.957-6.563 2.47-10.865 2.722z"/><path d="m240.479 417.498c-2.09 0-4.121-1.096-5.221-3.046-1.626-2.881-.609-6.534 2.272-8.16 6.139-3.465 12.283-7.3 18.224-11.011 7.004-4.374 14.247-8.896 21.685-12.949 2.906-1.583 6.543-.511 8.125 2.394 1.583 2.904.511 6.542-2.394 8.124-7.126 3.883-14.215 8.309-21.072 12.591-6.052 3.778-12.31 7.686-18.681 11.283-.93.525-1.941.774-2.938.774z"/><path d="m398.06 286.005c-1.3 0-2.61-.421-3.709-1.29-2.595-2.051-3.037-5.817-.986-8.413 2.059-2.606 4.106-5.257 6.085-7.882 1.993-2.642 5.748-3.166 8.388-1.177 2.641 1.992 3.168 5.747 1.177 8.388-2.033 2.696-4.136 5.421-6.25 8.097-1.184 1.497-2.936 2.277-4.705 2.277z"/><path d="m421.247 253.775c-1.122 0-2.257-.315-3.267-.974-2.77-1.807-3.551-5.518-1.744-8.289 12.747-19.539 23.941-40.238 33.274-61.523 1.328-3.03 4.863-4.408 7.89-3.08 3.03 1.329 4.409 4.861 3.08 7.89-9.596 21.886-21.107 43.169-34.212 63.258-1.147 1.761-3.065 2.718-5.021 2.718z"/></g></g></g></svg>