<svg id="Capa_1" enable-background="new 0 0 512 512" height="512" viewBox="0 0 512 512" width="512" xmlns="http://www.w3.org/2000/svg"><g><g><g><path d="m402.614 129.167c-2.143.423-4.183.917-6.16 1.456-10.316-23.383-31.374-36.189-66.187-29.318-68.172 13.455-33.277 97.268-111.222 175.213-77.945 77.944-230.063 13.712-173.127 80.187 12.04 14.057 25.905 25.423 41.001 34.257-34.638 2.379-50.345 8.034-21.81 41.351 85.11 99.372 246.798 85.95 339.314-6.566 92.516-92.517 135.631-323.706-1.809-296.58z" fill="#d789b9"/><path d="m490.424 213.841c-6.519-8.523-14.148-16.059-23.661-20.434-9.281-4.268-19.874-3.528-28.491 1.989-4.787 3.065-8.47 7.312-11.553 12.032 5.194 49.801-25.934 129.376-68.672 172.114-69.851 69.851-186.967 84.947-245.053 16.093-.948-1.124-1.817-2.201-2.619-3.239 23.068 1.008 46.253-1.497 68.641-7.636 31.516-8.642 61.125-24.317 85.635-45.977 22.879-20.219 38.915-45.069 53.888-71.364 7.218-12.676 14.061-25.681 19.319-39.306 4.945-12.814 9.384-27.062 7.899-40.968-1.526-14.291-12.822-26.286-23.375-35.099-6.29-5.253-13.32-9.522-20.814-12.598 20.971 25.901-12.83 110.971-56.208 154.35-56.468 56.468-144.155 75.661-182.415 28.697-.141-.172-.26-.334-.396-.504-27.957 2.081-40.189 7.209-16.632 34.714 11.557 13.494 24.798 24.505 39.193 33.18 1.911.299 3.825.573 5.741.824-37.342 2.25-55.335 7.052-25.743 41.603 85.11 99.372 246.798 85.95 339.314-6.566 50.751-50.75 86.632-143.227 86.002-211.905z" fill="#c668b9"/><path d="m454.877 116.803c1.29-1.852 2.279-3.959 2.841-6.285l7.485-30.98c2.426-10.042-3.748-20.15-13.79-22.576l-1.431-.345c-10.042-2.426-20.149 3.748-22.575 13.79l-7.485 30.98c-.583 2.413-.658 4.827-.313 7.14-7.214.013-14.311 1.03-21.117 2.95-4.987-6.943-11.343-12.958-18.826-17.597 1.89-2.004 3.308-4.503 4.001-7.372l6.014-24.896c2.124-8.793-3.282-17.644-12.075-19.768-8.793-2.124-17.644 3.282-19.768 12.075l-6.014 24.896c-.443 1.833-.541 3.665-.367 5.442-30.589-3.16-60.226 15.423-69.886 45.888-3.59 11.323 19.436 2.289 36.158 11.96 9.03 5.223 7.624 30.707 18.695 34.217 4.673 1.482 9.633-1.62 14.584-5.596 8.658 1.223 24.181-.386 36.724 6.868 10.718 6.199 9.049 36.447 22.19 40.614 13.04 4.135 27.958-21.773 40.213-20.645 22.966 2.114 40.302 26.86 44.581 13.365 11.87-37.438-5.743-77.162-39.839-94.125z" fill="#a1e8c3"/><path d="m43.808 116.175 8.772 24.667c.375 1.056 1.119 1.893 2.057 2.316l21.915 9.874c3.096 1.395 3.096 6.328 0 7.723l-21.915 9.874c-.938.423-1.682 1.26-2.057 2.316l-8.772 24.667c-1.239 3.485-5.622 3.485-6.861 0l-8.773-24.667c-.376-1.056-1.119-1.893-2.057-2.316l-21.915-9.874c-3.096-1.395-3.096-6.328 0-7.723l21.915-9.874c.938-.423 1.682-1.26 2.057-2.316l8.773-24.667c1.239-3.485 5.621-3.485 6.861 0z" fill="#e9c3d9"/><path d="m212.792 1.939 6.507 18.297c.279.783.83 1.404 1.526 1.718l16.257 7.324c2.297 1.035 2.297 4.694 0 5.729l-16.257 7.324c-.696.314-1.248.934-1.526 1.718l-6.507 18.297c-.919 2.585-4.17 2.585-5.09 0l-6.507-18.297c-.279-.783-.83-1.404-1.526-1.718l-16.257-7.324c-2.297-1.035-2.297-4.694 0-5.729l16.257-7.324c.696-.313 1.248-.934 1.526-1.718l6.507-18.297c.92-2.585 4.171-2.585 5.09 0z" fill="#e9c3d9"/><circle cx="179.686" cy="134.866" fill="#d88aba" r="8.263"/></g><g><g fill="#3c122c"><path d="m499.94 145.591c-7.227-13.937-17.719-25.479-30.494-33.864l7.114-29.446c1.906-7.89.626-16.05-3.606-22.977s-10.908-11.792-18.792-13.697l-1.437-.347c-16.291-3.941-32.741 6.116-36.676 22.404l-7.206 29.825c-2.632.322-5.249.766-7.849 1.323-2.538-2.793-5.288-5.411-8.243-7.819.235-.698.45-1.408.626-2.139l6.015-24.897c3.414-14.133-5.306-28.41-19.441-31.826-14.139-3.417-28.411 5.307-31.826 19.441l-5.411 22.401c-31.558.858-60.602 21.405-70.668 53.152-1.908 6.017-.235 10.256 1.506 12.753.495.711 1.035 1.336 1.605 1.902-2.721 7.551-5.091 15.586-7.529 23.899-9.364 31.922-19.976 68.103-55.649 103.775-36.91 36.91-92.234 39.61-132.63 41.582-29.171 1.423-48.442 2.364-54.438 16.278-5.11 11.857 3.915 24.797 13.417 35.892 6.492 7.58 13.598 14.498 21.218 20.759-9.064 2.566-15.334 6.723-18.416 13.873-5.839 13.548 4.691 28.589 15.76 41.514 37.958 44.319 93.253 70.054 155.7 72.465 3.221.124 6.444.185 9.669.185 69.855 0 140.182-28.975 189.812-78.604 32.849-32.849 61.738-85.096 77.279-139.761 7.206-25.35 11.116-49.486 11.768-71.289 1.865-1.774 3.594-4.294 4.733-7.888 7.293-22.996 5.193-47.454-5.911-68.869zm-14.481 54.496c-.541-.333-1.069-.66-1.564-.967-8.138-5.046-19.283-11.958-32.69-13.192-10.594-.974-19.321 6.435-27.02 12.971-3.107 2.638-8.112 6.887-10.716 7.88-1.751-2.365-3.752-9.347-4.872-13.257-2.93-10.228-5.961-20.805-15.015-26.041-11.752-6.798-24.659-7.4-34.083-7.839-.244-.012-.495-.023-.752-.035 6.155-13.702 16.669-24.856 30.204-31.874 15.874-8.232 34.003-9.789 51.048-4.383 17.045 5.404 30.966 17.123 39.196 32.997 7.064 13.622 9.212 28.906 6.264 43.74zm-39.871-132.313c.543 0 1.094.064 1.645.197l1.437.347c1.823.44 3.365 1.564 4.343 3.165.978 1.6 1.274 3.485.833 5.309l-5.937 24.574c-.284-.094-.561-.201-.847-.292-4.702-1.491-9.467-2.567-14.253-3.276l5.955-24.649c.775-3.212 3.659-5.375 6.824-5.375zm-71.828-16.399c.495 0 .998.058 1.5.179 3.425.828 5.538 4.287 4.711 7.711l-5.053 20.915c-2.319-1-4.701-1.906-7.158-2.685-1.664-.527-3.333-.973-5.005-1.381l4.795-19.85c.706-2.922 3.328-4.889 6.21-4.889zm-12.041 45.168c6.769 2.147 12.843 5.467 18.08 9.661-.534.264-1.075.508-1.606.784-19.917 10.328-34.975 27.3-42.851 48.121-2.445-8.527-5.041-17.276-12.611-21.654-9.932-5.744-20.827-6.252-28.781-6.623-.135-.007-.273-.013-.413-.02 11.616-25.509 40.803-38.952 68.182-30.269zm-308.213 253.663c-7.551-8.816-9.437-13.208-9.908-14.874 4.943-2.789 23.194-3.679 36.726-4.34 41.184-2.01 103.423-5.046 145.786-47.41 39.281-39.281 51.153-79.758 60.693-112.281 2.737-9.333 5.198-17.427 7.803-24.433 6.038.3 12.62.822 17.839 3.725 1.253 1.523 2.837 7.052 3.794 10.393 2.726 9.515 6.119 21.357 17.163 24.859.604.192 1.201.339 1.794.465-2.042 6.318-3.968 12.86-5.933 19.557-11.149 38.008-23.785 81.089-66.314 123.618-44.094 44.093-109.992 47.309-158.109 49.658-5.874.287-11.398.558-16.567.889-13.007-8.105-24.715-18.09-34.767-29.826zm343.267 67.891c-47.734 47.734-116.27 74.685-183.347 72.097-56.353-2.175-106.109-25.23-140.101-64.919-10.193-11.9-11.876-17.193-12.147-18.786 1.01-.656 4.104-2.161 12.36-3.348 8.521-1.224 19.567-1.764 32.358-2.388 48.723-2.378 122.355-5.97 172.354-55.969 46.436-46.436 60.487-94.337 71.777-132.827 3.211-10.946 6.138-20.552 9.278-28.93 7.462.353 15.751.868 22.274 4.51 1.508 1.785 3.408 8.418 4.555 12.422 3.225 11.254 7.237 25.259 20.257 29.387 2.248.712 4.432 1.03 6.553 1.03 10.272 0 19.06-7.46 26.366-13.664 3.016-2.56 7.999-6.791 10.177-7.472 7.77.858 15.372 5.572 22.094 9.739 2.66 1.65 5.272 3.264 7.879 4.586-2.61 63.731-35.51 147.355-82.687 194.532z"/><path d="m357.68 425.259c-1.944 0-3.851-.944-5.004-2.687-1.827-2.761-1.07-6.48 1.69-8.307 18.207-12.051 30.007-22.535 40.728-36.185 2.044-2.603 5.813-3.057 8.417-1.012s3.057 5.813 1.012 8.417c-11.419 14.539-24.44 26.136-43.54 38.777-1.018.674-2.167.997-3.303.997z"/><path d="m228.287 471.708c-18.047 0-36.911-2.218-56.706-6.64-3.231-.722-5.265-3.926-4.543-7.158.722-3.23 3.926-5.267 7.157-4.543 58.778 13.128 108.794 5.856 152.907-22.241 2.793-1.78 6.498-.957 8.276 1.835 1.779 2.792.957 6.498-1.836 8.277-31.962 20.359-66.734 30.47-105.255 30.47z"/></g><path d="m357.97 288.635c-1.088 0-2.195-.172-3.284-.534-5.455-1.813-8.408-7.705-6.595-13.16.736-2.214 1.49-4.276 2.22-6.272 1.403-3.835 2.614-7.148 3.387-10.624 1.247-5.611 6.811-9.152 12.419-7.903 5.612 1.247 9.151 6.807 7.903 12.419-1.071 4.82-2.64 9.111-4.158 13.26-.678 1.852-1.378 3.767-2.015 5.685-1.452 4.366-5.516 7.129-9.877 7.129z" fill="#fff"/><path d="m287.935 382.627c-3.341 0-6.622-1.605-8.634-4.583-3.218-4.763-1.966-11.233 2.797-14.452 17.848-12.059 31.257-24.457 40.992-37.903 3.137-4.331 6.119-8.826 8.866-13.359 2.978-4.917 9.38-6.486 14.296-3.511 4.917 2.979 6.488 9.379 3.51 14.296-3.04 5.019-6.341 9.993-9.81 14.784-11.187 15.451-26.299 29.498-46.199 42.943-1.787 1.207-3.813 1.785-5.818 1.785z" fill="#fff"/></g></g></g></svg>