<svg id="Capa_1" enable-background="new 0 0 512 512" height="512" viewBox="0 0 512 512" width="512" xmlns="http://www.w3.org/2000/svg"><g><g><path d="m403.675 379.122 4.373-4.595c100.604-110.937 108.424-271.043 78.724-300.743-29.081-29.081-183.195-22.19-293.751 72.56l-11.587 10.537" fill="#c49a8b"/><path d="m486.772 73.784c-29.081-29.082-183.195-22.19-293.751 72.56l-11.587 10.537 8.498-7.728c81.08-69.488 194.104-74.543 215.432-53.215 21.781 21.782 16.047 139.201-57.735 220.56l-3.207 3.37 59.253 59.253 4.373-4.595c100.604-110.936 108.424-271.043 78.724-300.742z" fill="#b2748a"/><ellipse cx="289.084" cy="265.968" fill="#e8a284" rx="40.292" ry="153.148" transform="matrix(.707 -.707 .707 .707 -103.397 282.314)"/><path d="m355.59 419.628c14.114-14.114-22.499-73.609-81.776-132.886s-118.772-95.889-132.886-81.776l-3.589 2.48c-76.292 106.922-82.101 238.934-52.632 268.402 29.265 29.265 159.664 23.739 266.186-51.063" fill="#c49a8b"/><path d="m273.814 286.742c-59.277-59.277-118.772-95.89-132.886-81.776l-3.589 2.479c-.155.217-.303.437-.458.654l2.33-1.674c12.084-12.084 58.786 15.027 104.312 60.553s72.637 92.228 60.553 104.312l-4.042 4.396c-89.804 65.441-195.944 75.677-218.421 53.201-9.066-9.066-12.803-31.752-9.748-61.478-8.053 51.562-2.214 93.384 12.841 108.439 29.265 29.266 159.664 23.739 266.186-51.062l4.697-5.159c14.114-14.113-22.498-73.608-81.775-132.885z" fill="#b2748a"/><path d="m95.545 25.426 8.278 23.275c.354.996 1.056 1.786 1.941 2.185l20.679 9.317c2.921 1.316 2.921 5.971 0 7.287l-20.679 9.317c-.885.399-1.587 1.189-1.941 2.185l-8.278 23.275c-1.169 3.288-5.305 3.288-6.474 0l-8.277-23.275c-.354-.997-1.056-1.786-1.941-2.185l-20.68-9.317c-2.921-1.316-2.921-5.971 0-7.287l20.679-9.317c.885-.399 1.587-1.189 1.941-2.185l8.277-23.275c1.17-3.288 5.306-3.288 6.475 0z" fill="#f0c6b5"/><ellipse cx="235.76" cy="27.688" fill="#e9a385" rx="18.074" ry="18.074" transform="matrix(.161 -.987 .987 .161 170.56 255.939)"/><path d="m29.347 198.003 6.14 17.265c.263.739.783 1.325 1.44 1.621l15.339 6.911c2.167.976 2.167 4.429 0 5.406l-15.339 6.911c-.657.296-1.177.882-1.44 1.621l-6.14 17.265c-.867 2.439-3.935 2.439-4.803 0l-6.14-17.265c-.263-.739-.783-1.325-1.44-1.621l-15.339-6.911c-2.167-.976-2.167-4.429 0-5.406l15.339-6.911c.657-.296 1.177-.882 1.44-1.621l6.14-17.265c.868-2.439 3.936-2.439 4.803 0z" fill="#f0c6b5"/></g><g><path d="m119.039 348.602c-.475 0-.956-.031-1.44-.098-5.744-.787-9.762-6.083-8.974-11.827.848-6.184 2.332-11.988 3.671-16.85 3.692-13.406 8.908-26.708 15.502-39.539 4.911-9.557 10.572-18.764 16.824-27.364 3.41-4.69 9.974-5.728 14.665-2.319 4.689 3.41 5.727 9.975 2.318 14.665-5.621 7.732-10.712 16.013-15.133 24.614-5.936 11.551-10.624 23.5-13.935 35.518-1.156 4.198-2.431 9.16-3.112 14.128-.72 5.259-5.222 9.072-10.386 9.072z" fill="#fff"/><path d="m261.626 150.699c-3.129 0-6.224-1.392-8.294-4.053-3.559-4.577-2.735-11.173 1.842-14.732.688-.535 17.202-13.238 46.932-24.049 5.45-1.979 11.472.83 13.454 6.278 1.981 5.449-.83 11.472-6.279 13.454-26.657 9.693-41.074 20.778-41.216 20.89-1.916 1.489-4.186 2.212-6.439 2.212z" fill="#fff"/><g fill="#3c122c"><path d="m410.633 255.682c-3.479 0-6.299-2.82-6.299-6.299v-11.159c0-3.479 2.82-6.299 6.299-6.299s6.299 2.82 6.299 6.299v11.159c0 3.479-2.82 6.299-6.299 6.299z"/><path d="m443.26 224.828c-3.479 0-6.299-2.82-6.299-6.299v-11.159c0-3.479 2.82-6.299 6.299-6.299s6.299 2.82 6.299 6.299v11.159c0 3.478-2.82 6.299-6.299 6.299z"/><path d="m413.116 207.096c-3.479 0-6.299-2.82-6.299-6.299v-11.159c0-3.479 2.82-6.299 6.299-6.299s6.299 2.82 6.299 6.299v11.159c0 3.479-2.821 6.299-6.299 6.299z"/><path d="m456.731 153.946c-3.479 0-6.299-2.82-6.299-6.299v-11.159c0-3.479 2.82-6.299 6.299-6.299s6.299 2.82 6.299 6.299v11.159c0 3.479-2.82 6.299-6.299 6.299z"/><path d="m493.897 66.658c-18.144-18.143-67.291-23.227-125.208-12.952-39.118 6.94-114.809 27.208-182.226 84.987l-10.864 9.874c-.326.281-.641.567-.942.856l-.003.003-.074.07c-.09.088-.185.172-.272.26-.003.003-.006.007-.009.01-7.025 7.032-12.013 20.882-1.338 47.889-17.727-7.601-30.77-8.033-39.119-1.227-1.745 1.422-7.403 9.323-11.145 14.705-20.225 29.097-52.703 99.167-61.305 158.104-7.663 52.505-1.46 96.086 16.19 113.736 12.635 12.635 38.649 19.413 71.707 19.413 12.73-.001 26.508-1.006 40.963-3.068 58.301-8.319 117.554-31.651 166.431-66.286 3.681-2.608 4.943-4.2 6.407-5.841 7.479-8.389 7.654-21.294-.197-39.602 11.23 4.439 20.198 6.186 27.331 6.186 10.025 0 16.457-3.414 20.566-7.518.003-.004.006-.006.009-.009.269-.27.536-.549.798-.838l3.749-3.936.164-.177c61.213-67.5 83.08-145.348 90.666-185.745 11.03-58.723 6.094-110.521-12.279-128.894zm-145.57 345.985c-1.211 2.567-2.415 3.328-3.225 3.896-18.13 12.722-36.271 22.952-53.691 31.187-23.187-44.071-53.037-72.292-54.343-73.515-2.538-2.375-6.521-2.245-8.9.292-2.378 2.538-2.249 6.523.288 8.903.303.284 29.289 27.741 51.45 69.522-12.462 5.382-24.448 9.764-35.655 13.311-9.924-19.978-26.228-38.858-26.961-39.702-2.281-2.625-6.257-2.908-8.885-.626-2.626 2.28-2.907 6.258-.628 8.885.163.188 14.891 17.257 24.196 35.096-17.844 4.986-33.181 7.849-44.568 9.473-51.066 7.286-85.339-.408-95.573-10.643-10.337-10.337-18.031-44.967-10.498-96.576 4.683-32.086 18.948-95.117 63.195-157.421 1.23-1.732 1.927-1.976 3.389-2.499 2.396-.857 14.401.073 40.696 16.857 23.694 15.123 51.422 38.13 78.075 64.783 26.654 26.654 49.662 54.382 64.785 78.076 16.792 26.313 17.834 38.363 16.853 40.701zm48.276-40.707-.111.117c-2.904 2.745-15.592 3.842-43.404-11.422-2.604-1.429-5.259-2.979-7.939-4.591-15.804-23.706-38.264-50.478-64.21-76.424-25.953-25.953-52.732-48.418-76.444-64.223-1.61-2.678-3.142-5.325-4.569-7.926-15.172-27.644-14.183-40.346-11.472-43.35l.428-.39c3.35-2.572 16.093-3.199 43.14 11.644 26.289 14.427 56.752 38.359 85.777 67.384 29.026 29.026 52.957 59.488 67.385 85.777 15.266 27.821 14.168 40.505 11.419 43.404zm89.768-180.105c-6.518 34.71-24.138 98.558-70.452 157.727-2.309-8.502-6.432-18.63-13.068-30.719-15.32-27.915-40.465-59.995-70.802-90.333-30.337-30.337-62.418-55.481-90.332-70.801-12.082-6.631-22.205-10.753-30.703-13.063 60.745-47.532 126.304-64.902 161.196-71.092 55.207-9.794 96.56-3.519 107.437 7.36 5.566 5.566 9.852 19.657 11.465 37.692 1.902 21.261.263 46.583-4.741 73.229z"/><path d="m196.759 419.326c-1.837 0-3.658-.8-4.903-2.34l-7.968-9.859c-2.186-2.705-1.766-6.671.94-8.858 2.705-2.188 6.672-1.765 8.859.94l7.968 9.859c2.187 2.705 1.766 6.671-.94 8.858-1.166.942-2.566 1.4-3.956 1.4z"/></g></g></g></svg>