<svg id="Capa_1" enable-background="new 0 0 511.26 511.26" height="512" viewBox="0 0 511.26 511.26" width="512" xmlns="http://www.w3.org/2000/svg"><g><g><path d="m426.007 64.367c14.041-9.782 33.551-5.243 41.66 9.827 65.348 121.439 30.655 275.247-85.228 355.979-115.892 80.739-272.211 59.98-363.482-43.419-11.316-12.819-8.793-32.681 5.236-42.455z" fill="#a1e8c3"/><path d="m456.187 64.242-20.124-6.882c70.073 103.55 44.136 244.506-58.775 316.202-102.912 71.695-244.122 47.187-316.98-54.424l-51.387 44.335c86.895 124.729 248.789 153.595 373.518 66.7s160.643-241.202 73.748-365.931z" fill="#85adc2"/><path d="m393.09 87.299c64.635 92.777 41.822 220.385-50.955 285.02s-220.385 41.822-285.02-50.955" fill="#d789b9"/><path d="m97.788 48.425 8.823 24.81c.378 1.062 1.126 1.904 2.069 2.329l22.042 9.931c3.114 1.403 3.114 6.365 0 7.768l-22.042 9.931c-.944.425-1.692 1.267-2.069 2.329l-8.823 24.81c-1.247 3.505-5.655 3.505-6.901 0l-8.823-24.81c-.378-1.062-1.126-1.904-2.07-2.329l-22.042-9.931c-3.114-1.403-3.114-6.365 0-7.768l22.042-9.931c.944-.425 1.692-1.267 2.07-2.329l8.823-24.81c1.247-3.505 5.655-3.505 6.901 0z" fill="#e9c3d9"/><path d="m290.676 23.142 6.545 18.403c.28.788.835 1.412 1.535 1.728l16.351 7.367c2.31 1.041 2.31 4.721 0 5.762l-16.351 7.367c-.7.315-1.255.94-1.535 1.728l-6.545 18.403c-.925 2.6-4.195 2.6-5.119 0l-6.545-18.403c-.28-.788-.835-1.412-1.535-1.728l-16.351-7.367c-2.31-1.041-2.31-4.721 0-5.762l16.351-7.367c.7-.315 1.255-.94 1.535-1.728l6.545-18.403c.924-2.6 4.194-2.6 5.119 0z" fill="#e9c3d9"/><g fill="#d88aba"><circle cx="63.51" cy="222.818" r="14.266"/><circle cx="221.404" cy="29.092" r="8.311"/></g></g><g><g fill="#3c122c"><path d="m476.087 66.9c-5.135-9.352-14.03-16.11-24.404-18.54-10.338-2.419-21.265-.33-29.975 5.74l-405.652 282.606c-8.711 6.07-14.46 15.594-15.77 26.131-1.315 10.572 1.942 21.257 8.936 29.315 46.007 53.006 109.855 87.107 179.783 96.022 12.102 1.543 24.218 2.306 36.281 2.306 58.149-.001 115.081-17.735 163.373-51.378 58.311-40.624 99.227-101.099 115.21-170.285 15.866-68.686 6-140.395-27.782-201.917zm-81.971 32.945c25.847 41.695 35.29 90.795 26.59 139.456-9.34 52.248-38.469 97.731-82.018 128.07-86.907 60.544-205.759 41.824-270.159-40.699zm-17.896 321.4c-46.053 32.085-98.884 47.68-151.286 47.678-74.099-.003-147.334-31.189-199.278-91.036-2.996-3.452-4.337-7.843-3.774-12.365.557-4.485 2.907-8.377 6.614-10.96l30.119-20.983c32.008 41.33 77.562 68.96 129.395 78.227 12.525 2.239 25.077 3.345 37.538 3.345 42.675 0 84.28-12.978 120.033-37.886 46.193-32.18 77.089-80.423 86.996-135.842 9.267-51.834-.869-104.138-28.549-148.484l30.119-20.983c2.683-1.869 5.762-2.833 8.925-2.833 1.209 0 2.431.141 3.647.426 4.437 1.039 8.092 3.818 10.292 7.825 65.116 118.586 30.383 266.418-80.791 343.871z"/><path d="m209.944 351.671c-1.989 0-3.945-.942-5.165-2.7l-7.874-11.341c-1.978-2.85-1.272-6.763 1.577-8.742 2.848-1.98 6.763-1.272 8.742 1.578l7.874 11.341c1.978 2.85 1.272 6.763-1.577 8.742-1.093.759-2.341 1.122-3.577 1.122z"/><path d="m278.193 357.029c-1.989 0-3.945-.942-5.166-2.7l-7.874-11.341c-1.978-2.85-1.272-6.764 1.577-8.743 2.852-1.979 6.764-1.272 8.743 1.577l7.874 11.341c1.978 2.85 1.272 6.764-1.577 8.743-1.092.759-2.341 1.123-3.577 1.123z"/><path d="m273.721 291.527c-1.989 0-3.946-.942-5.166-2.7l-7.874-11.342c-1.978-2.85-1.272-6.763 1.578-8.742 2.851-1.979 6.764-1.271 8.742 1.578l7.874 11.342c1.978 2.85 1.272 6.763-1.578 8.742-1.092.758-2.34 1.122-3.576 1.122z"/><path d="m339.071 295.324c-1.989 0-3.946-.942-5.166-2.7l-7.874-11.342c-1.978-2.85-1.272-6.764 1.578-8.742 2.852-1.978 6.764-1.271 8.742 1.578l7.874 11.342c1.978 2.85 1.272 6.763-1.578 8.742-1.092.759-2.341 1.122-3.576 1.122z"/><path d="m354.724 195.111c-1.989 0-3.945-.941-5.166-2.699l-7.874-11.341c-1.978-2.85-1.272-6.764 1.577-8.743 2.852-1.979 6.764-1.272 8.743 1.577l7.874 11.341c1.978 2.85 1.272 6.764-1.577 8.743-1.092.759-2.341 1.122-3.577 1.122z"/></g><path d="m297.993 207.074c-3.473 0-6.87-1.727-8.862-4.881-3.087-4.888-1.627-11.354 3.262-14.441l1.299-.818c3.283-2.064 6.383-4.013 9.019-6.196 4.455-3.688 11.054-3.068 14.741 1.385 3.688 4.453 3.068 11.053-1.385 14.741-3.69 3.056-7.523 5.465-11.229 7.796l-1.265.797c-1.735 1.094-3.669 1.617-5.58 1.617z" fill="#fff"/><path d="m127.722 323.575c-3.371 0-6.681-1.624-8.701-4.633-3.223-4.801-1.946-11.305 2.855-14.528 22.835-15.336 45.874-31.252 68.154-46.644 11.483-7.932 23.356-16.135 35.069-24.167 10.905-7.477 20.594-14.068 29.622-20.153 4.795-3.232 11.301-1.964 14.533 2.831 3.231 4.795 1.964 11.301-2.831 14.533-8.981 6.052-18.625 12.613-29.483 20.058-11.682 8.011-23.54 16.203-35.008 24.125-22.336 15.431-45.432 31.386-68.382 46.798-1.793 1.204-3.822 1.78-5.828 1.78z" fill="#fff"/></g></g></svg>