<svg id="Capa_1" enable-background="new 0 0 512 512" height="512" viewBox="0 0 512 512" width="512" xmlns="http://www.w3.org/2000/svg"><g><g><path d="m114.931 231.967c19.769-25.133 29.33-89.219 29.33-90.297 0-72.738 46.996-131.703 104.968-131.703s104.968 58.965 104.968 131.703c0 1.078-.01 2.153-.031 3.224-.601 31.346 9.592 61.939 29.361 87.073 22.29 28.339 35.56 63.921 35.56 102.562 0 92.51-76.048 167.505-169.858 167.505s-169.858-74.994-169.858-167.505c0-38.641 13.27-74.224 35.56-102.562z" fill="#a1e8c3"/><path d="m156.088 234.208c13.995-20.876 25.976-46.568 25.55-72.604-.014-.89-.063-1.784-.022-2.678 3.714-79.98 26.573-107.279 67.612-107.279s69.576 27.299 68.873 110.27c-.008.895-.007 1.788-.022 2.678-.425 26.036 12.281 48.738 26.275 69.614 15.779 23.538 30.996 64.114 30.996 96.209 0 76.839-59.713 129.937-126.123 129.937-66.409 0-127.658-53.099-127.658-129.937.001-32.096 18.74-72.672 34.519-96.21z" fill="#ccf3e2"/><path d="m383.527 231.967c-19.769-25.133-29.961-55.726-29.361-87.072.02-1.072.031-2.147.031-3.225 0-60.426-32.433-111.348-76.649-126.854-9.009-3.159 18.609 31.673 25.561 43.756 6.024 10.47 11.737 20.717 12.835 65.29 0-.013-.001-.027-.001-.04 1.531 11.141 2.28 23.79 2.159 38.095-.008.895-.007 1.788-.022 2.678-.425 26.036 12.281 48.738 26.276 69.614 15.779 23.538 30.996 64.113 30.996 96.208 0 76.839-59.713 129.937-126.122 129.937-22.581 0-44.562-6.145-63.745-17.269.007.001.014.002.021.003-51.053-8.505-86.238-24.711-67.642-2.366 31.151 37.432 78.431 61.311 131.367 61.311 93.81 0 169.858-74.995 169.858-167.505-.002-38.64-13.272-74.223-35.562-102.561z" fill="#85adc2"/><path d="m185.483 443.084c19.183 11.124 41.164 17.269 63.745 17.269 66.409 0 126.122-53.099 126.122-129.937 0-32.095-15.217-72.671-30.996-96.208-13.995-20.876-26.701-43.578-26.276-69.614.015-.89.014-1.783.022-2.678.121-14.305-.627-26.954-2.159-38.095.124 5.045.191 10.522.191 16.498 0 .87-.008 1.738-.024 2.604-.473 25.309-.668 47.513 10.283 70.671 12.207 25.815 28.639 63.829 28.639 95.027 0 74.692-47.581 138.798-121.443 138.798-16.764-.001-33.116-1.837-48.104-4.335z" fill="#b1b6e1"/><ellipse cx="249.229" cy="330.407" fill="#a07575" rx="64.933" ry="72.932"/><path d="m249.229 257.476c-2.221 0-4.415.127-6.578.371 26.255 3.263 46.679 28.255 46.679 58.615 0 32.577-23.512 58.986-52.516 58.986-27.03 0-49.281-22.939-52.186-52.429-.218 2.43-.331 4.895-.331 7.389 0 40.279 29.072 72.932 64.933 72.932s64.933-32.652 64.933-72.932-29.073-72.932-64.934-72.932z" fill="#925873"/><path d="m53.926 157.006 8.187 23.02c.35.986 1.044 1.767 1.92 2.161l20.452 9.215c2.889 1.302 2.889 5.906 0 7.207l-20.452 9.215c-.876.395-1.57 1.176-1.92 2.161l-8.187 23.02c-1.157 3.252-5.247 3.252-6.403 0l-8.187-23.02c-.35-.986-1.044-1.767-1.92-2.161l-20.452-9.215c-2.89-1.302-2.89-5.906 0-7.207l20.452-9.215c.876-.395 1.57-1.176 1.92-2.161l8.187-23.02c1.156-3.252 5.246-3.252 6.403 0z" fill="#cdf4e3"/><path d="m105.795 9.731 6.073 17.076c.26.731.775 1.31 1.424 1.603l15.171 6.835c2.143.966 2.143 4.381 0 5.346l-15.171 6.835c-.649.293-1.164.872-1.424 1.603l-6.073 17.076c-.858 2.412-3.892 2.412-4.75 0l-6.073-17.075c-.26-.731-.775-1.31-1.424-1.603l-15.171-6.835c-2.143-.966-2.143-4.381 0-5.346l15.171-6.835c.65-.293 1.164-.872 1.424-1.603l6.073-17.076c.858-2.413 3.892-2.413 4.75-.001z" fill="#cdf4e3"/><circle cx="429.178" cy="67.568" fill="#a2e9c4" r="17.876"/><ellipse cx="48.367" cy="55.688" fill="#a2e9c4" rx="7.711" ry="7.711" transform="matrix(.16 -.987 .987 .16 -14.35 94.51)"/><path d="m472.928 108.953 6.073 17.076c.26.731.775 1.31 1.424 1.603l15.171 6.835c2.143.966 2.143 4.381 0 5.346l-15.171 6.835c-.65.293-1.164.872-1.424 1.603l-6.073 17.076c-.858 2.412-3.892 2.412-4.75 0l-6.073-17.076c-.26-.731-.775-1.311-1.424-1.603l-15.171-6.835c-2.143-.966-2.143-4.381 0-5.346l15.171-6.835c.65-.293 1.164-.872 1.424-1.603l6.073-17.076c.858-2.413 3.892-2.413 4.75 0z" fill="#cdf4e3"/></g><g><path d="m212.667 200.539c-.675 0-1.36-.069-2.048-.213-5.387-1.125-8.843-6.405-7.718-11.793.84-4.019 1.775-10.243 2.328-15.49.333-3.15.652-6.479.985-9.938 2.222-23.137 4.988-51.932 15.582-73.357 2.439-4.935 8.414-6.957 13.352-4.517 4.934 2.44 6.956 8.417 4.516 13.351-8.97 18.142-11.542 44.915-13.608 66.428-.339 3.523-.665 6.914-1.004 10.123-.475 4.507-1.451 11.788-2.639 17.474-.982 4.702-5.127 7.932-9.746 7.932z" fill="#fff"/><path d="m195.016 239.087c-1.688 0-3.399-.429-4.967-1.333-4.769-2.748-6.407-8.842-3.659-13.611 1.62-2.813 3.142-5.646 4.52-8.423 2.446-4.93 8.427-6.945 13.358-4.496 4.931 2.447 6.943 8.428 4.496 13.358-1.56 3.144-3.278 6.345-5.104 9.513-1.843 3.201-5.196 4.992-8.644 4.992z" fill="#fff"/><g fill="#3c122c"><path d="m249.229 409.319c-39.102 0-70.913-35.399-70.913-78.911s31.811-78.911 70.913-78.911c39.101 0 70.912 35.4 70.912 78.911s-31.811 78.911-70.912 78.911zm0-145.863c-32.507 0-58.953 30.034-58.953 66.952s26.446 66.951 58.953 66.951c32.506 0 58.952-30.034 58.952-66.951s-26.446-66.952-58.952-66.952z"/><path d="m249.229 383.812c-3.302 0-5.98-2.678-5.98-5.98s2.678-5.98 5.98-5.98c19.984 0 36.242-18.592 36.242-41.444 0-3.302 2.677-5.98 5.98-5.98 3.302 0 5.98 2.678 5.98 5.98 0 29.447-21.623 53.404-48.202 53.404z"/><path d="m293.043 305.638c.755 3.931-1.627 7.634-5.32 8.271-3.693.638-7.299-2.032-8.054-5.962s1.626-7.634 5.32-8.271c3.693-.638 7.299 2.031 8.054 5.962z"/><path d="m391.419 225.803c-18.124-23.031-27.798-51.697-27.241-80.719.021-1.135.032-2.274.032-3.414 0-37.428-11.695-72.708-32.932-99.341-21.765-27.296-50.903-42.329-82.05-42.329-31.145 0-60.285 15.033-82.048 42.328-21.237 26.633-32.932 61.914-32.932 99.341 0 1.141.011 2.279.032 3.415.557 29.021-9.118 57.687-27.241 80.718-24.67 31.351-37.709 68.947-37.709 108.725 0 97.86 80.702 177.473 179.898 177.473s179.9-79.613 179.9-177.471c0-39.778-13.039-77.375-37.709-108.726zm-302.156 108.726c0-35.262 11.564-68.597 33.44-96.399v.001c20.963-26.638 32.152-59.817 31.506-93.426-.019-1.009-.028-2.021-.028-3.034 0-67.126 42.638-121.737 95.047-121.737s95.048 54.611 95.048 121.737c0 1.014-.009 2.025-.028 3.033-.645 33.61 10.545 66.79 31.506 93.427 21.877 27.802 33.44 61.137 33.44 96.399 0 9.901-.942 19.588-2.725 28.988-10.095-8.592-21.009-14.213-26.063-16.578.608-5.428.925-10.941.925-16.522 0-34.001-16.103-75.81-32.009-99.538-13.357-19.926-25.662-41.735-25.263-66.186.01-.592.013-1.186.017-1.781l.006-.945c.401-47.372-8.377-79.449-26.835-98.065-11.999-12.1-28.154-18.236-48.018-18.236-23.613 0-40.872 8.6-52.765 26.291-12.14 18.057-18.95 46.415-20.82 86.689-.041.87-.019 1.677 0 2.389l.016.667c.344 21.099-7.912 44.374-24.538 69.177-17.686 26.381-35.531 67.39-35.531 99.538 0 37.788 14.47 72.62 40.745 98.078 24.819 24.048 58.677 37.84 92.893 37.84 22.264 0 43.736-5.566 62.825-16.024 3.995 3.642 12.251 11.62 17.939 20.155-23.72 13.72-51.323 21.602-80.763 21.602-88.207-.002-159.967-70.673-159.967-157.54zm250.846 129.569c-5.412-8.178-12.626-15.654-17.461-20.265 6.107-4.142 11.907-8.826 17.342-14.027 3.377 2.607 12.973 10.195 20.455 17.84-6.302 6.012-13.103 11.517-20.336 16.452zm-90.881-9.724c-59.811 0-121.678-46.366-121.678-123.957 0-29.475 17.368-68.807 33.504-92.879 18.012-26.867 26.948-52.448 26.563-76.032l-.018-.791c-.015-.555-.028-1.078-.009-1.511 1.766-38.028 7.916-64.384 18.799-80.574 9.633-14.33 23.245-21.004 42.839-21.004 16.79 0 29.719 4.807 39.525 14.697 15.874 16.009 23.737 46.136 23.369 89.542l-.006.985c-.003.55-.006 1.099-.015 1.647-.454 27.743 12.846 51.501 27.287 73.041 14.899 22.226 29.983 61.266 29.983 92.879.001 77.591-61.085 123.957-120.143 123.957zm119.559-15.304c-7.396-7.523-16.296-14.691-20.487-17.958 15.22-17.483 25.506-38.659 30.172-61.795 5.493 2.81 14.225 7.839 21.906 14.752.957.862 2.119 1.336 3.308 1.474-6.548 23.888-18.667 45.543-34.899 63.527z"/></g></g></g></svg>