<svg id="Capa_1" enable-background="new 0 0 512 512" height="512" viewBox="0 0 512 512" width="512" xmlns="http://www.w3.org/2000/svg"><g><g><path d="m332.385 204.418c-2.839 0-5.657.088-8.456.246-11.973-70.937-73.685-124.973-148.028-124.973-82.92 0-150.139 67.22-150.139 150.139v116.776c0 82.919 67.22 150.139 150.139 150.139 27.526 0 53.317-7.414 75.498-20.344 23.272 15.238 51.091 24.107 80.986 24.107 81.763 0 148.046-66.282 148.046-148.046-.001-81.762-66.283-148.044-148.046-148.044z" fill="#c59b8c"/><path d="m261.413 222.822c20.041-9.047 41.646-13.727 62.702-20.083-9.016-47.427-48.693-92.435-96.346-113.662 13.942 16.58 20.669 52.27 25.712 72.443 2.16 8.637 5.182 34.522 7.932 61.302z" fill="#b2748a"/><path d="m221.729 453.68c-8.289-8.057-14.998-16.805-20.074-27.215-3.073-6.303-5.705-12.913-8.972-19.15-20.146 13.698-42.711 23.132-65.842 26.615h-14.241c-29.83-.604-61.197-19.212-81.434-30.181 24.2 44.646 83.264 92.997 137.615 92.997h14.24c25.901 0 50.193-6.885 71.148-18.925-11.654-6.811-22.655-14.629-32.44-24.141z" fill="#b2748a"/><ellipse cx="332.385" cy="352.463" fill="#a1e8c3" rx="116.303" ry="116.303" transform="matrix(.707 -.707 .707 .707 -151.876 338.266)"/><path d="m399.929 257.776c13.607 19.041 21.616 42.356 21.616 67.543 0 64.233-52.071 116.304-116.303 116.304-25.188 0-48.503-8.009-67.544-21.616 21.093 29.517 55.643 48.76 94.688 48.76 64.233 0 116.303-52.071 116.303-116.303-.001-39.046-19.243-73.595-48.76-94.688z" fill="#85adc2"/><ellipse cx="332.385" cy="352.463" fill="#cdf4e3" rx="24.55" ry="24.55" transform="matrix(.161 -.987 .987 .161 -69.109 623.596)"/><path d="m479.014 109.775 8.252 23.203c.353.993 1.053 1.781 1.935 2.178l20.615 9.288c2.912 1.312 2.912 5.952 0 7.265l-20.615 9.288c-.883.398-1.582 1.185-1.935 2.178l-8.252 23.203c-1.166 3.278-5.289 3.278-6.454 0l-8.252-23.203c-.353-.993-1.053-1.781-1.935-2.178l-20.615-9.288c-2.913-1.312-2.913-5.952 0-7.265l20.615-9.288c.883-.398 1.582-1.185 1.935-2.178l8.252-23.203c1.165-3.278 5.288-3.278 6.454 0z" fill="#cdf4e3"/><ellipse cx="460.769" cy="70.646" fill="#a2e9c4" rx="14.261" ry="14.261" transform="matrix(.973 -.231 .231 .973 -3.851 108.426)"/><path d="m369.848 3.904 8.252 23.203c.353.993 1.053 1.781 1.935 2.178l20.615 9.288c2.912 1.312 2.912 5.952 0 7.265l-20.615 9.288c-.883.398-1.582 1.185-1.935 2.178l-8.252 23.203c-1.166 3.278-5.288 3.278-6.454 0l-8.252-23.203c-.353-.993-1.053-1.781-1.935-2.178l-20.615-9.288c-2.912-1.312-2.912-5.952 0-7.265l20.615-9.288c.883-.398 1.582-1.185 1.935-2.178l8.252-23.203c1.165-3.278 5.288-3.278 6.454 0z" fill="#cdf4e3"/></g><g><g fill="#3c122c"><path d="m332.385 474.794c-67.453 0-122.331-54.878-122.331-122.331s54.878-122.331 122.331-122.331c67.454 0 122.331 54.878 122.331 122.331 0 67.454-54.878 122.331-122.331 122.331zm0-232.607c-60.806 0-110.276 49.47-110.276 110.276 0 60.807 49.47 110.277 110.276 110.277 60.807 0 110.276-49.47 110.276-110.277 0-60.806-49.47-110.276-110.276-110.276z"/><path d="m332.385 383.04c-16.86 0-30.577-13.717-30.577-30.577s13.717-30.577 30.577-30.577 30.577 13.717 30.577 30.577-13.717 30.577-30.577 30.577zm0-49.1c-10.213 0-18.522 8.309-18.522 18.522s8.309 18.523 18.522 18.523 18.523-8.309 18.523-18.523c-.001-10.212-8.31-18.522-18.523-18.522z"/><path d="m407.972 356.855h-26.21c-3.329 0-6.027-2.699-6.027-6.027 0-3.329 2.699-6.027 6.027-6.027h26.21c3.329 0 6.027 2.699 6.027 6.027.001 3.328-2.698 6.027-6.027 6.027z"/><path d="m332.824 308.074c-3.328 0-6.027-2.699-6.027-6.027v-26.21c0-3.329 2.699-6.027 6.027-6.027 3.329 0 6.027 2.699 6.027 6.027v26.21c0 3.329-2.699 6.027-6.027 6.027z"/><path d="m283.007 356.855h-26.21c-3.329 0-6.027-2.699-6.027-6.027 0-3.329 2.699-6.027 6.027-6.027h26.21c3.329 0 6.027 2.699 6.027 6.027.001 3.328-2.698 6.027-6.027 6.027z"/><path d="m332.824 435.117c-3.328 0-6.027-2.699-6.027-6.027v-26.21c0-3.329 2.699-6.027 6.027-6.027 3.329 0 6.027 2.699 6.027 6.027v26.21c0 3.328-2.699 6.027-6.027 6.027z"/><path d="m278.512 412.984c-1.543 0-3.085-.589-4.262-1.765-2.354-2.354-2.354-6.17 0-8.524l18.533-18.533c2.353-2.353 6.171-2.353 8.524 0 2.354 2.354 2.354 6.17 0 8.524l-18.533 18.533c-1.176 1.176-2.719 1.765-4.262 1.765z"/><path d="m384.677 412.984c-1.543 0-3.085-.589-4.262-1.765l-18.534-18.533c-2.354-2.354-2.354-6.17 0-8.524 2.353-2.353 6.17-2.353 8.524 0l18.534 18.533c2.354 2.354 2.354 6.17 0 8.524-1.176 1.176-2.719 1.765-4.262 1.765z"/><path d="m366.143 322.531c-1.543 0-3.085-.588-4.262-1.765-2.354-2.354-2.354-6.17 0-8.524l18.534-18.533c2.354-2.354 6.17-2.354 8.524 0s2.354 6.17 0 8.524l-18.534 18.533c-1.176 1.176-2.719 1.765-4.262 1.765z"/><path d="m297.046 322.531c-1.543 0-3.085-.589-4.262-1.765l-18.533-18.533c-2.354-2.354-2.354-6.17 0-8.524 2.353-2.354 6.171-2.354 8.524 0l18.533 18.533c2.354 2.354 2.354 6.17 0 8.524-1.177 1.176-2.72 1.765-4.262 1.765z"/><path d="m96.294 266.756c-3.329 0-6.027-2.699-6.027-6.027v-11.382c0-3.329 2.699-6.027 6.027-6.027 3.329 0 6.027 2.699 6.027 6.027v11.382c0 3.328-2.698 6.027-6.027 6.027z"/><path d="m133.53 303.269c-3.329 0-6.027-2.699-6.027-6.027v-11.382c0-3.329 2.699-6.027 6.027-6.027 3.329 0 6.027 2.699 6.027 6.027v11.382c.001 3.328-2.698 6.027-6.027 6.027z"/><path d="m153.414 241.088c-3.329 0-6.027-2.699-6.027-6.027v-11.382c0-3.329 2.699-6.027 6.027-6.027s6.027 2.699 6.027 6.027v11.382c0 3.328-2.699 6.027-6.027 6.027z"/></g><path d="m122.975 134.497c-3.42 0-6.754-1.747-8.634-4.897-2.844-4.764-1.288-10.931 3.475-13.775 2.644-1.578 5.381-3.115 8.137-4.567 4.91-2.585 10.984-.703 13.57 4.205 2.586 4.909.703 10.984-4.205 13.57-2.441 1.286-4.864 2.646-7.202 4.042-1.614.964-3.389 1.422-5.141 1.422z" fill="#fff"/><path d="m55.307 231.642c-.604 0-1.217-.055-1.833-.169-5.456-1.006-9.063-6.244-8.057-11.701 5.995-32.514 21.339-61.16 44.375-82.844 4.039-3.803 10.397-3.612 14.2.429 3.803 4.039 3.611 10.397-.429 14.2-19.899 18.732-33.173 43.58-38.388 71.858-.893 4.842-5.117 8.227-9.868 8.227z" fill="#fff"/><path d="m459.634 446.16c19.372-26.239 30.841-58.652 30.841-93.697 0-87.171-70.92-158.091-158.091-158.091-.09 0-.179.003-.269.003-6.297-27.761-19.826-52.807-38.489-73.046l9.943-13.372c3.311-4.452 2.385-10.745-2.067-14.055-4.451-3.31-10.745-2.386-14.055 2.067l-8.45 11.363c-5.813-4.901-11.979-9.395-18.453-13.441l10.419-14.011c3.311-4.452 2.385-10.745-2.067-14.056-4.45-3.31-10.745-2.385-14.055 2.067l-12.158 16.35c-20.338-9.368-42.96-14.597-66.782-14.597-88.326 0-160.185 71.859-160.185 160.185v116.776c0 13.113 1.595 25.859 4.582 38.064l-12.638 3.094c-5.389 1.319-8.688 6.757-7.369 12.146 1.123 4.587 5.229 7.659 9.75 7.659.791 0 1.594-.094 2.397-.29l13.874-3.397c23.098 60.12 81.436 102.908 149.59 102.908 27.158 0 52.743-6.819 75.176-18.798 23.772 14.315 51.594 22.561 81.308 22.561 32.654 0 63.026-9.952 88.245-26.981l9.233 9.233c1.962 1.961 4.533 2.942 7.104 2.942s5.142-.98 7.103-2.942c3.923-3.923 3.923-10.284 0-14.207l-7.414-7.414c3.47-3.052 6.811-6.247 10.002-9.587l7.659 7.659c1.962 1.961 4.533 2.942 7.104 2.942s5.142-.98 7.104-2.942c3.923-3.923 3.923-10.284 0-14.207zm-283.733 40.54c-58.709 0-109.09-36.304-129.895-87.638l6.266-1.534c5.389-1.319 8.688-6.757 7.369-12.146-1.32-5.389-6.757-8.688-12.146-7.369l-7.681 1.881c-2.611-10.674-4.006-21.82-4.006-33.287v-116.777c0-77.248 62.846-140.094 140.094-140.094 19.318 0 37.732 3.934 54.489 11.037l-1.815 2.441c-3.311 4.452-2.385 10.745 2.067 14.056 1.801 1.339 3.902 1.985 5.986 1.985 3.068 0 6.098-1.4 8.069-4.052l3.818-5.135c6.525 3.973 12.702 8.463 18.472 13.415l-5.806 7.808c-3.311 4.452-2.385 10.745 2.067 14.055 1.801 1.339 3.902 1.985 5.986 1.985 3.068 0 6.097-1.4 8.069-4.052l4.096-5.509c14.33 16.406 24.907 36.171 30.375 57.944-77.469 10.131-137.481 76.56-137.481 156.748 0 49.256 22.647 93.319 58.071 122.335-17.282 7.645-36.383 11.903-56.464 11.903zm156.484 3.763c-76.093 0-138-61.906-138-138 0-76.093 61.906-137.999 138-137.999s138 61.906 138 137.999-61.907 138-138 138z" fill="#3c122c"/></g></g></svg>