<svg id="Capa_1" enable-background="new 0 0 512 512" height="512" viewBox="0 0 512 512" width="512" xmlns="http://www.w3.org/2000/svg"><g><g><path d="m225.778 170.641c30.231 22.068 59.115 46.037 84.549 73.569 25.66 27.779 48.103 58.369 69.157 89.729 19.475 29.008 38.344 58.508 56.394 88.436 24.713-32.901 39.36-73.794 39.36-118.109 0-108.719-88.134-196.853-196.852-196.853-37.59 0-72.715 10.542-102.592 28.822 16.907 11.107 33.639 22.475 49.984 34.406z" fill="#ccf3e2"/><path d="m500.304 203.26c-2.949-33.915-54.558-17.695-54.558-17.695s11.796-72.253-33.915-70.778c-16.237.524-37.126 35.844-57.313 81.169-1.626-58.027-72.448-53.153-72.448-53.153s-42.762-94.371-79.626-85.523c-36.864 8.847-33.915 128.285-33.915 128.285s70.294 84.549 133.967 148.35c-11.57 34.78-18.952 59.561-18.952 59.561s-4.423 75.202 72.253 63.406c76.677-11.797 84.049-50.135 103.219-78.151 19.17-28.017 44.237-141.557 41.288-175.471z" fill="#a1e8c3"/><path d="m500.304 203.26c-.085-.972-.214-1.898-.376-2.79-10.811 50.88-34.902 86.292-62.887 86.292-34.051 0-62.334-52.429-67.946-121.356-4.85 9.379-9.732 19.682-14.575 30.556-.255-9.083-2.198-16.63-5.307-22.891-25.895 5.261-60.497-.106-94.286-16.73-37.731-18.564-64.955-46.496-74.286-72.761-5.045 13.903-8.015 31.401-9.756 47.959 17.743 8.362 34.671 18.626 51.387 28.692 10.705 6.447 21.215 12.827 31.068 20.555 10.372 8.136 20.09 17.048 30.074 25.644 10.359 8.918 20.859 17.546 30.734 27.018 9.96 9.553 19.583 19.449 29.384 29.162 15.697 15.559 32.483 30.691 47.906 46.895-1.099-3.341-2.234-6.677-3.394-9.993 17.417 35.933 36.373 71.14 54.342 106.816 5.99-9.46 10.758-19.012 16.631-27.595 19.169-28.019 44.236-141.559 41.287-175.473z" fill="#85adc2"/><path d="m417.58 443.462c-76.876 76.876-201.516 76.876-278.391 0-48.625-48.625-70.241-102.026-59.131-166.475 2.172-12.598-26.712-55.871-22.118-67.829 4.014-10.448 51.612-.653 57.508-10.322 7.412-12.157-13.117-51.375-1.475-60.457 73.727-57.507 380.483 228.207 303.607 305.083z" fill="#ccf3e2"/><path d="m288.639 210.12c-7.22-1.492-14.489-2.738-21.791-3.765 65.856 59.481 118.148 139.193 83.392 173.95-65.264 65.264-167.132 69.21-227.528 8.814-25.672-25.672-41.288-53.499-45.408-85.08-1.579 52.604 20.232 97.77 61.886 139.423 76.876 76.875 201.516 76.875 278.391 0 43.926-43.927-37.403-156.037-128.942-233.342z" fill="#b1b6e1"/><path d="m92.914 2.459 8.255 23.211c.353.994 1.053 1.781 1.936 2.179l20.622 9.291c2.913 1.313 2.913 5.955 0 7.267l-20.622 9.291c-.883.398-1.583 1.185-1.936 2.179l-8.255 23.213c-1.166 3.279-5.29 3.279-6.457 0l-8.255-23.211c-.354-.994-1.053-1.781-1.936-2.179l-20.622-9.291c-2.914-1.313-2.914-5.954 0-7.267l20.622-9.291c.883-.398 1.583-1.185 1.936-2.179l8.255-23.211c1.167-3.281 5.291-3.281 6.457-.002z" fill="#cdf4e3"/><path d="m29.843 123.952 6.123 17.218c.262.737.781 1.321 1.436 1.616l15.297 6.892c2.161.974 2.161 4.417 0 5.391l-15.297 6.892c-.655.295-1.174.879-1.436 1.616l-6.123 17.218c-.865 2.432-3.924 2.432-4.79 0l-6.123-17.218c-.262-.737-.781-1.321-1.436-1.616l-15.297-6.892c-2.161-.974-2.161-4.417 0-5.391l15.297-6.892c.655-.295 1.174-.879 1.436-1.616l6.123-17.218c.866-2.433 3.925-2.433 4.79 0z" fill="#cdf4e3"/><ellipse cx="387.928" cy="46.891" fill="#a2e9c4" rx="14.266" ry="14.266" transform="matrix(.083 -.997 .997 .083 309.126 429.614)"/></g><g><g fill="#3c122c"><path d="m177.568 237.446c-2.546 0-4.912-1.626-5.737-4.18-.313-.969-.619-1.948-.926-2.931-1.696-5.432-3.298-10.563-6.258-14.559-1.982-2.676-1.419-6.452 1.257-8.434 2.676-1.983 6.452-1.418 8.434 1.256 4.172 5.634 6.247 12.279 8.078 18.142.296.947.59 1.889.891 2.822 1.023 3.169-.717 6.567-3.886 7.59-.615.198-1.239.294-1.853.294z"/><path d="m351.139 354.312c-1.779 0-3.54-.783-4.731-2.286-7.688-9.708-16.818-17.537-27.135-23.269-5.248-2.916-10.8-5.27-16.502-6.997-2.9-.878-5.966-1.397-9.213-1.948-3.294-.558-6.701-1.135-10.126-2.132-15.827-4.607-24.437-18-31.899-31.325-.514-.919-1.022-1.851-1.531-2.789-2.463-4.531-4.79-8.811-8.098-11.737-3.01-2.663-7.145-4.661-12.289-5.936-4.191-1.04-8.465-1.481-12.989-1.948-8.959-.925-18.224-1.882-27.13-7.66-2.794-1.812-3.589-5.546-1.777-8.34 1.812-2.792 5.547-3.591 8.34-1.776 6.47 4.197 13.577 4.931 21.806 5.781 4.74.489 9.641.995 14.654 2.24 7.048 1.748 12.893 4.644 17.375 8.608 4.899 4.334 7.983 10.006 10.703 15.01.485.894.969 1.782 1.458 2.656 6.501 11.608 13.286 22.303 24.749 25.639 2.757.803 5.678 1.297 8.77 1.822 3.474.589 7.066 1.197 10.695 2.296 6.519 1.975 12.866 4.665 18.862 7.996 11.714 6.508 22.053 15.365 30.732 26.323 2.067 2.61 1.627 6.403-.983 8.47-1.109.876-2.43 1.302-3.741 1.302z"/><path d="m387.405 407.946c-2.425 0-4.712-1.474-5.632-3.874-3.371-8.798-6.842-17.184-12.203-23.086-2.239-2.464-2.056-6.278.408-8.517 2.465-2.241 6.278-2.056 8.517.409 6.768 7.451 10.739 16.966 14.538 26.88 1.192 3.109-.363 6.596-3.473 7.787-.708.271-1.438.401-2.155.401z"/><path d="m498.56 295.642c7.258-31.613 14.376-72.73 12.584-93.324-.933-10.731-5.737-19.288-13.893-24.746-11.547-7.728-27.521-7.488-39.299-5.798.618-15.797-1.014-39.706-14.144-54.658-7.959-9.064-19.124-13.64-32.328-13.204-7.612.245-17.05 3.971-29.719 20.226-30.462-17.552-65.767-27.605-103.377-27.605-3.1 0-6.182.073-9.248.211-1.312-2.041-2.665-4.093-4.058-6.14-23.108-33.967-45.038-48.739-65.173-43.904-20.325 4.878-33.065 29.736-38.944 75.969-22.63-5.26-40.77-2.939-53.682 7.132-11.685 9.115-7.856 26.255-4.153 42.83 1.119 5.01 3.289 14.723 3.123 19.204-4.356.913-13.652.958-19.541.986-18.358.089-34.213.167-38.926 12.436-3.881 10.102 1.863 23.524 11.555 44.587 3.463 7.524 9.879 21.467 9.955 25.539-11.173 65.251 9.175 122.747 62.202 175.775 20.425 20.425 44.082 35.692 69.338 45.816.85.344 1.708.668 2.563 1.001.7.27 1.399.542 2.102.804 22.692 8.532 47.249 13.221 72.887 13.221 27.516 0 53.795-5.384 77.849-15.143.159-.064.318-.126.476-.189.475-.194.946-.397 1.42-.596 24.431-10.12 47.313-25.083 67.145-44.915.909-.909 1.808-1.884 2.692-2.917 20.147-20.926 35.952-46.054 45.965-73.923 11.194-23.286 20.681-61.48 24.629-78.675zm-86.378-169.98c6.744-.225 11.586 1.624 15.258 5.795 11.088 12.597 9.22 42.072 7.567 52.354-.608 3.727.759 7.504 3.613 9.977 2.853 2.474 6.786 3.291 10.389 2.158 8.119-2.552 27.635-5.977 36.139-.289 1.767 1.183 3.853 3.222 4.317 8.546 2.72 31.284-21.571 142.287-39.427 168.384-3.564 5.208-6.724 10.709-9.78 16.029-.602 1.047-1.207 2.097-1.814 3.146-1.559-7.177-3.994-15.03-7.506-23.622-2.14-5.237-4.635-10.633-7.459-16.162 13.572-17.613 41.363-61.186 46.836-128.271.271-3.319-2.2-6.23-5.519-6.501-3.316-.277-6.229 2.2-6.5 5.519-4.77 58.464-27.83 98.648-41.218 117.474-2.947-5.124-6.168-10.349-9.627-15.652-2.777-9.793-6.193-20.377-10.242-31.759 15.839-32.56 23.722-76.726 23.428-131.429-.01-1.845-.02-3.749.01-4.391.46-3.038-1.458-5.984-4.5-6.745-3.232-.814-6.505 1.156-7.312 4.386-.287 1.147-.281 2.235-.256 6.815.252 46.837-5.585 85.45-17.372 115.111-11.309-29.512-22.917-54.418-27.04-63.061.836-5.3 1.239-10.364 1.259-15.211 31.971-71.117 46.047-72.577 46.756-72.601zm8.35 31.874c.038-.153.07-.306.096-.459-.028.2-.069.352-.096.459zm-50.982-15.311c-3.868 6.443-7.988 13.941-12.385 22.652-1.847-3.146-3.994-6.114-6.458-8.885-18.197-20.474-47.9-23.78-61.808-24.138-1.712-3.474-4.098-8.155-7.023-13.526 31.801.588 61.669 9.207 87.674 23.897zm-187.062-16.349c5.027-40 14.917-56.197 22.497-58.016 19.147-4.597 51.405 44.684 67.175 79.433 1.868 4.124 6.111 6.669 10.636 6.366.348-.021 34.999-2.025 51.697 16.846 8.581 9.699 11.16 24.008 7.664 42.532-.436 2.307-.112 4.695.92 6.803.135.276 10.53 21.584 21.947 49.664-.088-.099-.172-.198-.259-.297-40.482-45.793-91.904-89.612-137.553-117.215-16.251-9.826-31.325-17.392-45.125-22.712.129-1.132.258-2.267.401-3.404zm219.671 317.172c-.002-.036-.003-.072-.005-.108-1.227 1.096-2.474 2.172-3.73 3.237-28.637-43.667-59.396-72.21-93.926-87.18-10.693-4.636-21.506-4.329-31.961-4.033-8.981.255-17.461.496-24.46-2.686-11.374-5.171-17.424-15.759-23.274-25.997-1.722-3.014-3.348-5.86-5.091-8.526-1.823-2.787-5.558-3.569-8.346-1.748-2.787 1.822-3.57 5.559-1.747 8.346 1.545 2.363 3.084 5.057 4.713 7.91 6.163 10.786 13.832 24.21 28.754 30.993 9.54 4.338 19.836 4.041 29.791 3.763 9.559-.273 18.59-.528 26.824 3.042 32.079 13.907 62.086 42.046 89.231 83.646-11.786 8.743-24.638 16.124-38.321 21.915-.445.187-.889.381-1.335.564-.234.097-.47.188-.704.285-44.136 17.921-93.809 18.221-138.13.9-.339-.134-.679-.264-1.017-.399-.634-.252-1.265-.514-1.897-.773-.996-.412-1.992-.824-2.979-1.253-.041-.019-.083-.036-.124-.054-19.974-8.693-38.136-20.794-53.748-35.564-.067-.022-.133-.045-.199-.067-1.209-1.146-2.41-2.306-3.595-3.492-48.39-48.39-66.217-98.256-56.103-156.932 1.519-8.809-3.447-20.213-11.674-38.091-3.443-7.481-8.806-19.138-10.357-25.422 4.689-.675 12.766-.714 18.065-.74 17.102-.083 31.871-.156 37.924-10.082 5.715-9.373 2.759-22.607-.371-36.616-1.298-5.81-3.938-17.627-3.024-21.431 15.711-11.214 50.942-2.241 94.608 24.162 43.869 26.526 93.405 68.772 132.509 113.005 29.717 33.616 51.271 65.689 62.332 92.752 11.26 27.551 10.955 47.535-.905 59.395-2.52 2.519-5.101 4.939-7.728 7.279z"/></g><path d="m174.985 399.661c-2.669 0-5.339-1.014-7.381-3.044-6.413-6.375-12.454-13.074-17.954-19.909-21.384-26.581-35.185-56.097-39.911-85.358-.922-5.708 2.958-11.083 8.666-12.005 5.704-.923 11.083 2.959 12.005 8.667 4.149 25.683 16.443 51.815 35.555 75.571 5.017 6.235 10.535 12.353 16.401 18.185 4.101 4.077 4.12 10.706.044 14.806-2.046 2.056-4.736 3.087-7.425 3.087z" fill="#fff"/><path d="m116.313 266.666c-5.391 0-9.968-4.136-10.422-9.605-.548-6.599-.115-12.272.434-17.419.613-5.749 5.771-9.912 11.52-9.3 5.749.613 9.913 5.771 9.3 11.52-.508 4.765-.768 8.878-.388 13.468.478 5.763-3.806 10.822-9.568 11.299-.293.025-.585.037-.876.037z" fill="#fff"/></g></g></svg>