<svg id="Capa_1" enable-background="new 0 0 512 512" height="512" viewBox="0 0 512 512" width="512" xmlns="http://www.w3.org/2000/svg"><g><g><path d="m345.34 237.459h-70.418v91.106c0 11.343-9.195 20.538-20.538 20.538s-20.538-9.195-20.538-20.538v-91.106h-73.443c-31.838 0-49.962 36.398-30.777 61.805l49.467 65.508c5.054 6.694 7.789 14.853 7.789 23.24v75.386c0 21.299 17.266 38.565 38.565 38.565h58.219c21.299 0 38.565-17.266 38.565-38.565v-75.999c0-8.009 2.493-15.819 7.134-22.346l47.407-66.682c18.152-25.535-.103-60.912-31.432-60.912z" fill="#ccf3e2"/><path d="m345.34 237.459h-70.418v74.452l5.927 8.3c10.294 0 28.977-15.68 39.834-3.699 10.22 11.278-28.404 50.166-28.404 50.166-3.488 4.906-6.127 13.173-6.127 19.193l-.724 43.409c0 16.009-12.978 28.986-28.986 28.986h-43.758c-10.083 0-18.961-5.151-24.153-12.963l-1.648 18.096c0 21.299 17.266 38.565 38.565 38.565h58.219c21.299 0 38.565-17.266 38.565-38.565v-75.999c0-8.009 2.493-15.819 7.134-22.346l47.407-66.682c18.151-25.536-.104-60.913-31.433-60.913z" fill="#b1b6e1"/><path d="m233.845 316.511s-57.52-23.256-79.635 15.311l-19.334-25.603 44.867-36.812 54.102 31.208z" fill="#b1b6e1"/><path d="m408.674 132.041c-11.462 0-22.422 2.149-32.503 6.058-14.407-52.859-62.746-91.724-120.171-91.724s-105.764 38.865-120.171 91.724c-10.081-3.909-21.04-6.058-32.503-6.058-49.67 0-89.935 40.265-89.935 89.935s40.265 89.935 89.935 89.935c32.26 0 60.547-16.989 76.417-42.504 21.072 16.341 47.526 26.074 76.256 26.074s55.184-9.733 76.256-26.074c15.87 25.515 44.158 42.504 76.417 42.504 49.67 0 89.935-40.265 89.935-89.935.001-49.67-40.264-89.935-89.933-89.935z" fill="#a1e8c3"/><path d="m408.674 132.041c-11.462 0-22.422 2.149-32.503 6.058-14.407-52.859-62.746-91.724-120.171-91.724-54.733 0-101.189 35.318-117.9 84.397.246.074.498.139.742.215 13.72-40.281 62.69-81.609 117.158-76.713 55.167 4.958 84.556 67.624 98.277 107.905 9.601-2.979 30.886-2.179 47.342 5.616 23.368 11.069 28.289 36.812 23.046 52.552-9.454 28.379-27.693 39.671-57.596 38.073-15.987-.854-29.218-15.224-41.162-27.37-20.068 12.453-45.261 19.87-72.621 19.87-27.361 0-58.783-2.375-78.851-14.828-15.114 19.444-45.409 46.078-76.131 46.078-47.302 0-84.912-22.343-84.912-60.194 0 49.67 40.265 89.935 89.935 89.935 32.26 0 60.547-16.989 76.417-42.504 21.072 16.341 47.526 26.074 76.256 26.074s55.184-9.733 76.256-26.074c15.87 25.515 44.158 42.504 76.417 42.504 49.67 0 89.935-40.265 89.935-89.935s-40.265-89.935-89.934-89.935z" fill="#85adc2"/><path d="m61.41 2.457 8.245 23.183c.353.993 1.052 1.779 1.934 2.177l20.597 9.28c2.91 1.311 2.91 5.947 0 7.258l-20.597 9.28c-.882.397-1.581 1.184-1.934 2.176l-8.245 23.183c-1.165 3.275-5.284 3.275-6.449 0l-8.245-23.183c-.353-.993-1.052-1.779-1.934-2.176l-20.597-9.28c-2.91-1.311-2.91-5.947 0-7.258l20.597-9.28c.882-.397 1.581-1.184 1.934-2.177l8.245-23.183c1.165-3.276 5.284-3.276 6.449 0z" fill="#cdf4e3"/><path d="m469.281 41.601 6.116 17.197c.262.736.78 1.32 1.434 1.614l15.279 6.884c2.159.972 2.159 4.412 0 5.384l-15.279 6.884c-.654.295-1.173.878-1.434 1.614l-6.116 17.197c-.864 2.43-3.92 2.43-4.784 0l-6.116-17.197c-.262-.736-.78-1.32-1.434-1.614l-15.279-6.884c-2.158-.972-2.158-4.412 0-5.384l15.279-6.884c.654-.295 1.173-.878 1.434-1.614l6.116-17.197c.864-2.43 3.92-2.43 4.784 0z" fill="#cdf4e3"/><ellipse cx="399.792" cy="39.778" fill="#a2e9c4" rx="14.249" ry="14.249" transform="matrix(.083 -.997 .997 .083 327.174 434.927)"/></g><g><path d="m408.674 122.004c-8.849 0-17.551 1.145-25.984 3.414-19.004-52.942-69.676-89.08-126.69-89.08-57.013 0-107.686 36.138-126.69 89.08-8.433-2.269-17.135-3.414-25.984-3.414-55.125 0-99.972 44.847-99.972 99.972s44.847 99.972 99.972 99.972c9.601 0 18.969-1.35 27.891-3.92l39.865 52.792c3.716 4.921 5.762 11.027 5.762 17.192v75.386c0 26.799 21.803 48.602 48.603 48.602h58.219c26.799 0 48.602-21.803 48.602-48.602v-75.999c0-5.957 1.825-11.674 5.277-16.53l38.607-54.303c10.289 3.517 21.244 5.382 32.523 5.382 55.125 0 99.972-44.847 99.972-99.972-.001-55.125-44.848-99.972-99.973-99.972zm-87.49 237.233c-5.881 8.274-8.99 18.012-8.99 28.162v75.999c0 15.73-12.797 28.528-28.528 28.528h-58.219c-15.73 0-28.528-12.798-28.528-28.528v-75.386c0-10.504-3.486-20.905-9.816-29.289l-36.631-48.51c12.177-6.505 22.986-15.55 31.688-26.741 12.855 8.477 26.884 14.573 41.648 18.181v26.911c0 16.859 13.716 30.575 30.576 30.575 16.859 0 30.575-13.716 30.575-30.575v-26.148c15.953-3.479 31.09-9.85 44.882-18.945 7.757 9.974 17.187 18.245 27.767 24.532zm-77.302-54.272c4.006.353 8.044.553 12.118.553 2.98 0 5.94-.11 8.885-.299v23.346c0 5.79-4.711 10.501-10.501 10.501s-10.502-4.711-10.502-10.501zm164.792-3.092c-27.804 0-53.185-14.119-67.895-37.768l-5.878-9.45-8.795 6.82c-20.221 15.681-44.464 23.969-70.106 23.969-25.643 0-49.885-8.288-70.106-23.969l-8.795-6.82-5.879 9.45c-14.709 23.649-40.09 37.768-67.894 37.768-44.056 0-79.898-35.842-79.898-79.898 0-44.055 35.842-79.897 79.898-79.897 9.956 0 19.67 1.81 28.873 5.379l10.384 4.027 2.929-10.745c13.533-49.65 58.967-84.326 110.488-84.326s96.955 34.676 110.487 84.326l2.929 10.746 10.384-4.027c9.204-3.569 18.919-5.379 28.874-5.379 44.055 0 79.898 35.842 79.898 79.897s-35.843 79.897-79.898 79.897z" fill="#3c122c"/><path d="m57.058 261.082c-5.163 0-9.551-3.96-9.991-9.198-2.09-24.897 1.192-46.203 9.491-61.616 2.627-4.882 8.716-6.707 13.596-4.079 4.881 2.628 6.707 8.715 4.079 13.596-6.449 11.977-8.926 29.412-7.162 50.421.464 5.524-3.638 10.378-9.162 10.841-.285.023-.57.035-.851.035z" fill="#fff"/><path d="m86.624 183.318c-1.756 0-3.533-.46-5.148-1.428-4.756-2.848-6.302-9.013-3.454-13.768.391-.652 1.306-2.179 4.926-5.45 3.129-2.826 5.255-4.344 8.194-4.797 5.482-.847 10.604 2.913 11.449 8.391.656 4.259-1.468 8.305-5.02 10.292-.791.64-2.191 1.928-2.768 2.553-1.932 2.714-5.019 4.207-8.179 4.207zm8.621-4.882c-.001.003-.003.005-.004.007.001-.002.002-.004.004-.007zm-1.038-.722c-.002.001-.005.001-.007.001.002-.001.004-.001.007-.001zm.006-.001c-.002 0-.003.001-.004.001.002-.001.003-.001.004-.001z" fill="#fff"/><path d="m178.581 164.431c-.925 0-1.864-.128-2.797-.399-5.324-1.542-8.39-7.109-6.848-12.434 6.605-22.797 21.107-43.894 40.836-59.404 4.358-3.427 10.668-2.671 14.094 1.687s2.671 10.668-1.687 14.094c-16.454 12.936-28.516 30.412-33.961 49.209-1.273 4.392-5.283 7.247-9.637 7.247z" fill="#fff"/><path d="m242.776 95.994c-4.355 0-8.366-2.857-9.637-7.251-1.54-5.325 1.529-10.89 6.854-12.43 2.729-.789 5.487-1.417 8.196-1.867 5.466-.906 10.637 2.79 11.545 8.258s-2.79 10.637-8.259 11.545c-1.939.322-3.926.775-5.906 1.348-.931.268-1.87.397-2.793.397z" fill="#fff"/><g fill="#3c122c"><path d="m377.069 231.899c-3.326 0-6.022-2.697-6.022-6.022v-11.06c0-3.326 2.696-6.022 6.022-6.022s6.022 2.696 6.022 6.022v11.06c0 3.325-2.696 6.022-6.022 6.022z"/><path d="m405.316 207.071c-3.326 0-6.022-2.697-6.022-6.022v-11.06c0-3.326 2.697-6.022 6.022-6.022 3.326 0 6.022 2.697 6.022 6.022v11.06c0 3.325-2.696 6.022-6.022 6.022z"/><path d="m415.211 254.748c-3.326 0-6.022-2.697-6.022-6.022v-11.06c0-3.326 2.696-6.022 6.022-6.022s6.022 2.697 6.022 6.022v11.06c0 3.326-2.696 6.022-6.022 6.022z"/><path d="m303.915 173.817c-3.326 0-6.022-2.697-6.022-6.022v-11.06c0-3.326 2.697-6.022 6.022-6.022 3.326 0 6.022 2.697 6.022 6.022v11.06c0 3.326-2.697 6.022-6.022 6.022z"/><path d="m280.849 212.601c-3.326 0-6.022-2.697-6.022-6.022v-11.06c0-3.326 2.696-6.022 6.022-6.022s6.022 2.697 6.022 6.022v11.06c0 3.325-2.696 6.022-6.022 6.022z"/></g></g></g></svg>